<?xml version="1.0" encoding="utf-8" standalone="no"?>
<!DOCTYPE svg PUBLIC "-//W3C//DTD SVG 1.1//EN"
  "http://www.w3.org/Graphics/SVG/1.1/DTD/svg11.dtd">
<!-- Created with matplotlib (https://matplotlib.org/) -->
<svg height="345.6pt" version="1.1" viewBox="0 0 1152 345.6" width="1152pt" xmlns="http://www.w3.org/2000/svg" xmlns:xlink="http://www.w3.org/1999/xlink">
 <metadata>
  <rdf:RDF xmlns:cc="http://creativecommons.org/ns#" xmlns:dc="http://purl.org/dc/elements/1.1/" xmlns:rdf="http://www.w3.org/1999/02/22-rdf-syntax-ns#">
   <cc:Work>
    <dc:type rdf:resource="http://purl.org/dc/dcmitype/StillImage"/>
    <dc:date>2021-12-24T07:19:05.337001</dc:date>
    <dc:format>image/svg+xml</dc:format>
    <dc:creator>
     <cc:Agent>
      <dc:title>Matplotlib v3.3.3, https://matplotlib.org/</dc:title>
     </cc:Agent>
    </dc:creator>
   </cc:Work>
  </rdf:RDF>
 </metadata>
 <defs>
  <style type="text/css">*{stroke-linecap:butt;stroke-linejoin:round;}</style>
 </defs>
 <g id="figure_1">
  <g id="patch_1">
   <path d="M 0 345.6 
L 1152 345.6 
L 1152 0 
L 0 0 
z
" style="fill:#ffffff;"/>
  </g>
  <g id="axes_1">
   <g id="patch_2">
    <path d="M 144 307.584 
L 1036.8 307.584 
L 1036.8 41.472 
L 144 41.472 
z
" style="fill:#ffffff;"/>
   </g>
   <g id="matplotlib.axis_1">
    <g id="xtick_1">
     <g id="line2d_1">
      <defs>
       <path d="M 0 0 
L 0 3.5 
" id="m47c89a0a54" style="stroke:#000000;stroke-width:0.8;"/>
      </defs>
      <g>
       <use style="stroke:#000000;stroke-width:0.8;" x="184.581818" xlink:href="#m47c89a0a54" y="307.584"/>
      </g>
     </g>
     <g id="text_1">
      <!-- 0 -->
      <g transform="translate(181.400568 322.182437)scale(0.1 -0.1)">
       <defs>
        <path d="M 31.78125 66.40625 
Q 24.171875 66.40625 20.328125 58.90625 
Q 16.5 51.421875 16.5 36.375 
Q 16.5 21.390625 20.328125 13.890625 
Q 24.171875 6.390625 31.78125 6.390625 
Q 39.453125 6.390625 43.28125 13.890625 
Q 47.125 21.390625 47.125 36.375 
Q 47.125 51.421875 43.28125 58.90625 
Q 39.453125 66.40625 31.78125 66.40625 
z
M 31.78125 74.21875 
Q 44.046875 74.21875 50.515625 64.515625 
Q 56.984375 54.828125 56.984375 36.375 
Q 56.984375 17.96875 50.515625 8.265625 
Q 44.046875 -1.421875 31.78125 -1.421875 
Q 19.53125 -1.421875 13.0625 8.265625 
Q 6.59375 17.96875 6.59375 36.375 
Q 6.59375 54.828125 13.0625 64.515625 
Q 19.53125 74.21875 31.78125 74.21875 
z
" id="DejaVuSans-48"/>
       </defs>
       <use xlink:href="#DejaVuSans-48"/>
      </g>
     </g>
    </g>
    <g id="xtick_2">
     <g id="line2d_2">
      <g>
       <use style="stroke:#000000;stroke-width:0.8;" x="343.259504" xlink:href="#m47c89a0a54" y="307.584"/>
      </g>
     </g>
     <g id="text_2">
      <!-- 200 -->
      <g transform="translate(333.715754 322.182437)scale(0.1 -0.1)">
       <defs>
        <path d="M 19.1875 8.296875 
L 53.609375 8.296875 
L 53.609375 0 
L 7.328125 0 
L 7.328125 8.296875 
Q 12.9375 14.109375 22.625 23.890625 
Q 32.328125 33.6875 34.8125 36.53125 
Q 39.546875 41.84375 41.421875 45.53125 
Q 43.3125 49.21875 43.3125 52.78125 
Q 43.3125 58.59375 39.234375 62.25 
Q 35.15625 65.921875 28.609375 65.921875 
Q 23.96875 65.921875 18.8125 64.3125 
Q 13.671875 62.703125 7.8125 59.421875 
L 7.8125 69.390625 
Q 13.765625 71.78125 18.9375 73 
Q 24.125 74.21875 28.421875 74.21875 
Q 39.75 74.21875 46.484375 68.546875 
Q 53.21875 62.890625 53.21875 53.421875 
Q 53.21875 48.921875 51.53125 44.890625 
Q 49.859375 40.875 45.40625 35.40625 
Q 44.1875 33.984375 37.640625 27.21875 
Q 31.109375 20.453125 19.1875 8.296875 
z
" id="DejaVuSans-50"/>
       </defs>
       <use xlink:href="#DejaVuSans-50"/>
       <use x="63.623047" xlink:href="#DejaVuSans-48"/>
       <use x="127.246094" xlink:href="#DejaVuSans-48"/>
      </g>
     </g>
    </g>
    <g id="xtick_3">
     <g id="line2d_3">
      <g>
       <use style="stroke:#000000;stroke-width:0.8;" x="501.93719" xlink:href="#m47c89a0a54" y="307.584"/>
      </g>
     </g>
     <g id="text_3">
      <!-- 400 -->
      <g transform="translate(492.39344 322.182437)scale(0.1 -0.1)">
       <defs>
        <path d="M 37.796875 64.3125 
L 12.890625 25.390625 
L 37.796875 25.390625 
z
M 35.203125 72.90625 
L 47.609375 72.90625 
L 47.609375 25.390625 
L 58.015625 25.390625 
L 58.015625 17.1875 
L 47.609375 17.1875 
L 47.609375 0 
L 37.796875 0 
L 37.796875 17.1875 
L 4.890625 17.1875 
L 4.890625 26.703125 
z
" id="DejaVuSans-52"/>
       </defs>
       <use xlink:href="#DejaVuSans-52"/>
       <use x="63.623047" xlink:href="#DejaVuSans-48"/>
       <use x="127.246094" xlink:href="#DejaVuSans-48"/>
      </g>
     </g>
    </g>
    <g id="xtick_4">
     <g id="line2d_4">
      <g>
       <use style="stroke:#000000;stroke-width:0.8;" x="660.614876" xlink:href="#m47c89a0a54" y="307.584"/>
      </g>
     </g>
     <g id="text_4">
      <!-- 600 -->
      <g transform="translate(651.071126 322.182437)scale(0.1 -0.1)">
       <defs>
        <path d="M 33.015625 40.375 
Q 26.375 40.375 22.484375 35.828125 
Q 18.609375 31.296875 18.609375 23.390625 
Q 18.609375 15.53125 22.484375 10.953125 
Q 26.375 6.390625 33.015625 6.390625 
Q 39.65625 6.390625 43.53125 10.953125 
Q 47.40625 15.53125 47.40625 23.390625 
Q 47.40625 31.296875 43.53125 35.828125 
Q 39.65625 40.375 33.015625 40.375 
z
M 52.59375 71.296875 
L 52.59375 62.3125 
Q 48.875 64.0625 45.09375 64.984375 
Q 41.3125 65.921875 37.59375 65.921875 
Q 27.828125 65.921875 22.671875 59.328125 
Q 17.53125 52.734375 16.796875 39.40625 
Q 19.671875 43.65625 24.015625 45.921875 
Q 28.375 48.1875 33.59375 48.1875 
Q 44.578125 48.1875 50.953125 41.515625 
Q 57.328125 34.859375 57.328125 23.390625 
Q 57.328125 12.15625 50.6875 5.359375 
Q 44.046875 -1.421875 33.015625 -1.421875 
Q 20.359375 -1.421875 13.671875 8.265625 
Q 6.984375 17.96875 6.984375 36.375 
Q 6.984375 53.65625 15.1875 63.9375 
Q 23.390625 74.21875 37.203125 74.21875 
Q 40.921875 74.21875 44.703125 73.484375 
Q 48.484375 72.75 52.59375 71.296875 
z
" id="DejaVuSans-54"/>
       </defs>
       <use xlink:href="#DejaVuSans-54"/>
       <use x="63.623047" xlink:href="#DejaVuSans-48"/>
       <use x="127.246094" xlink:href="#DejaVuSans-48"/>
      </g>
     </g>
    </g>
    <g id="xtick_5">
     <g id="line2d_5">
      <g>
       <use style="stroke:#000000;stroke-width:0.8;" x="819.292562" xlink:href="#m47c89a0a54" y="307.584"/>
      </g>
     </g>
     <g id="text_5">
      <!-- 800 -->
      <g transform="translate(809.748812 322.182437)scale(0.1 -0.1)">
       <defs>
        <path d="M 31.78125 34.625 
Q 24.75 34.625 20.71875 30.859375 
Q 16.703125 27.09375 16.703125 20.515625 
Q 16.703125 13.921875 20.71875 10.15625 
Q 24.75 6.390625 31.78125 6.390625 
Q 38.8125 6.390625 42.859375 10.171875 
Q 46.921875 13.96875 46.921875 20.515625 
Q 46.921875 27.09375 42.890625 30.859375 
Q 38.875 34.625 31.78125 34.625 
z
M 21.921875 38.8125 
Q 15.578125 40.375 12.03125 44.71875 
Q 8.5 49.078125 8.5 55.328125 
Q 8.5 64.0625 14.71875 69.140625 
Q 20.953125 74.21875 31.78125 74.21875 
Q 42.671875 74.21875 48.875 69.140625 
Q 55.078125 64.0625 55.078125 55.328125 
Q 55.078125 49.078125 51.53125 44.71875 
Q 48 40.375 41.703125 38.8125 
Q 48.828125 37.15625 52.796875 32.3125 
Q 56.78125 27.484375 56.78125 20.515625 
Q 56.78125 9.90625 50.3125 4.234375 
Q 43.84375 -1.421875 31.78125 -1.421875 
Q 19.734375 -1.421875 13.25 4.234375 
Q 6.78125 9.90625 6.78125 20.515625 
Q 6.78125 27.484375 10.78125 32.3125 
Q 14.796875 37.15625 21.921875 38.8125 
z
M 18.3125 54.390625 
Q 18.3125 48.734375 21.84375 45.5625 
Q 25.390625 42.390625 31.78125 42.390625 
Q 38.140625 42.390625 41.71875 45.5625 
Q 45.3125 48.734375 45.3125 54.390625 
Q 45.3125 60.0625 41.71875 63.234375 
Q 38.140625 66.40625 31.78125 66.40625 
Q 25.390625 66.40625 21.84375 63.234375 
Q 18.3125 60.0625 18.3125 54.390625 
z
" id="DejaVuSans-56"/>
       </defs>
       <use xlink:href="#DejaVuSans-56"/>
       <use x="63.623047" xlink:href="#DejaVuSans-48"/>
       <use x="127.246094" xlink:href="#DejaVuSans-48"/>
      </g>
     </g>
    </g>
    <g id="xtick_6">
     <g id="line2d_6">
      <g>
       <use style="stroke:#000000;stroke-width:0.8;" x="977.970248" xlink:href="#m47c89a0a54" y="307.584"/>
      </g>
     </g>
     <g id="text_6">
      <!-- 1000 -->
      <g transform="translate(965.245248 322.182437)scale(0.1 -0.1)">
       <defs>
        <path d="M 12.40625 8.296875 
L 28.515625 8.296875 
L 28.515625 63.921875 
L 10.984375 60.40625 
L 10.984375 69.390625 
L 28.421875 72.90625 
L 38.28125 72.90625 
L 38.28125 8.296875 
L 54.390625 8.296875 
L 54.390625 0 
L 12.40625 0 
z
" id="DejaVuSans-49"/>
       </defs>
       <use xlink:href="#DejaVuSans-49"/>
       <use x="63.623047" xlink:href="#DejaVuSans-48"/>
       <use x="127.246094" xlink:href="#DejaVuSans-48"/>
       <use x="190.869141" xlink:href="#DejaVuSans-48"/>
      </g>
     </g>
    </g>
   </g>
   <g id="matplotlib.axis_2">
    <g id="ytick_1">
     <g id="line2d_7">
      <defs>
       <path d="M 0 0 
L -3.5 0 
" id="m7426787ba0" style="stroke:#000000;stroke-width:0.8;"/>
      </defs>
      <g>
       <use style="stroke:#000000;stroke-width:0.8;" x="144" xlink:href="#m7426787ba0" y="271.296057"/>
      </g>
     </g>
     <g id="text_7">
      <!-- −0.4 -->
      <g transform="translate(112.717187 275.095276)scale(0.1 -0.1)">
       <defs>
        <path d="M 10.59375 35.5 
L 73.1875 35.5 
L 73.1875 27.203125 
L 10.59375 27.203125 
z
" id="DejaVuSans-8722"/>
        <path d="M 10.6875 12.40625 
L 21 12.40625 
L 21 0 
L 10.6875 0 
z
" id="DejaVuSans-46"/>
       </defs>
       <use xlink:href="#DejaVuSans-8722"/>
       <use x="83.789062" xlink:href="#DejaVuSans-48"/>
       <use x="147.412109" xlink:href="#DejaVuSans-46"/>
       <use x="179.199219" xlink:href="#DejaVuSans-52"/>
      </g>
     </g>
    </g>
    <g id="ytick_2">
     <g id="line2d_8">
      <g>
       <use style="stroke:#000000;stroke-width:0.8;" x="144" xlink:href="#m7426787ba0" y="222.911609"/>
      </g>
     </g>
     <g id="text_8">
      <!-- −0.2 -->
      <g transform="translate(112.717187 226.710827)scale(0.1 -0.1)">
       <use xlink:href="#DejaVuSans-8722"/>
       <use x="83.789062" xlink:href="#DejaVuSans-48"/>
       <use x="147.412109" xlink:href="#DejaVuSans-46"/>
       <use x="179.199219" xlink:href="#DejaVuSans-50"/>
      </g>
     </g>
    </g>
    <g id="ytick_3">
     <g id="line2d_9">
      <g>
       <use style="stroke:#000000;stroke-width:0.8;" x="144" xlink:href="#m7426787ba0" y="174.52716"/>
      </g>
     </g>
     <g id="text_9">
      <!-- 0.0 -->
      <g transform="translate(121.096875 178.326379)scale(0.1 -0.1)">
       <use xlink:href="#DejaVuSans-48"/>
       <use x="63.623047" xlink:href="#DejaVuSans-46"/>
       <use x="95.410156" xlink:href="#DejaVuSans-48"/>
      </g>
     </g>
    </g>
    <g id="ytick_4">
     <g id="line2d_10">
      <g>
       <use style="stroke:#000000;stroke-width:0.8;" x="144" xlink:href="#m7426787ba0" y="126.142712"/>
      </g>
     </g>
     <g id="text_10">
      <!-- 0.2 -->
      <g transform="translate(121.096875 129.94193)scale(0.1 -0.1)">
       <use xlink:href="#DejaVuSans-48"/>
       <use x="63.623047" xlink:href="#DejaVuSans-46"/>
       <use x="95.410156" xlink:href="#DejaVuSans-50"/>
      </g>
     </g>
    </g>
    <g id="ytick_5">
     <g id="line2d_11">
      <g>
       <use style="stroke:#000000;stroke-width:0.8;" x="144" xlink:href="#m7426787ba0" y="77.758263"/>
      </g>
     </g>
     <g id="text_11">
      <!-- 0.4 -->
      <g transform="translate(121.096875 81.557482)scale(0.1 -0.1)">
       <use xlink:href="#DejaVuSans-48"/>
       <use x="63.623047" xlink:href="#DejaVuSans-46"/>
       <use x="95.410156" xlink:href="#DejaVuSans-52"/>
      </g>
     </g>
    </g>
   </g>
   <g id="line2d_12">
    <path clip-path="url(#pd3750b1a3a)" d="M 184.581818 174.52716 
L 190.928926 136.809676 
L 194.102479 119.136663 
L 197.276033 102.853164 
L 199.656198 91.799751 
L 202.036364 81.914759 
L 203.62314 76.043573 
L 205.209917 70.790992 
L 206.796694 66.190023 
L 208.383471 62.269554 
L 209.970248 59.054202 
L 211.557025 56.564181 
L 212.350413 55.596237 
L 213.143802 54.81513 
L 213.93719 54.222077 
L 214.730579 53.818023 
L 215.523967 53.603602 
L 216.317355 53.579139 
L 217.110744 53.744677 
L 217.904132 54.099964 
L 218.697521 54.644437 
L 219.490909 55.377238 
L 220.284298 56.297215 
L 221.871074 58.692635 
L 223.457851 61.815659 
L 225.044628 65.646646 
L 226.631405 70.161566 
L 228.218182 75.332034 
L 229.804959 81.125576 
L 232.185124 90.903539 
L 234.565289 101.862604 
L 236.945455 113.847947 
L 240.119008 131.130492 
L 244.08595 154.211034 
L 255.193388 220.086774 
L 258.366942 237.207149 
L 260.747107 249.037653 
L 263.127273 259.815808 
L 265.507438 269.389336 
L 267.094215 275.034976 
L 268.680992 280.049257 
L 270.267769 284.400723 
L 271.854545 288.062033 
L 273.441322 291.010196 
L 275.028099 293.22669 
L 275.821488 294.056038 
L 276.614876 294.697592 
L 277.408264 295.150377 
L 278.201653 295.413667 
L 278.995041 295.487048 
L 279.78843 295.370407 
L 280.581818 295.063931 
L 281.375207 294.568096 
L 282.168595 293.88368 
L 282.961983 293.011772 
L 284.54876 290.711182 
L 286.135537 287.68082 
L 287.722314 283.939696 
L 289.309091 279.511316 
L 290.895868 274.423502 
L 292.482645 268.7082 
L 294.86281 259.038255 
L 297.242975 248.174735 
L 299.62314 236.270994 
L 302.796694 219.073719 
L 306.763636 196.059017 
L 318.664463 125.689655 
L 321.838017 108.829751 
L 324.218182 97.244684 
L 326.598347 86.751173 
L 328.978512 77.497352 
L 330.565289 72.082211 
L 332.152066 67.310555 
L 333.738843 63.212364 
L 335.32562 59.813384 
L 336.912397 57.134948 
L 337.705785 56.071373 
L 338.499174 55.193892 
L 339.292562 54.503881 
L 340.08595 54.002415 
L 340.879339 53.690293 
L 341.672727 53.568 
L 342.466116 53.635722 
L 343.259504 53.893366 
L 344.052893 54.340513 
L 344.846281 54.976472 
L 345.639669 55.800233 
L 346.433058 56.810505 
L 348.019835 59.38398 
L 349.606612 62.680717 
L 351.193388 66.679953 
L 352.780165 71.356662 
L 354.366942 76.68137 
L 355.953719 82.62074 
L 358.333884 92.599532 
L 360.71405 103.735368 
L 363.094215 115.87113 
L 366.267769 133.309455 
L 370.234711 156.507583 
L 380.54876 217.790532 
L 383.722314 235.082818 
L 386.102479 247.077549 
L 388.482645 258.04758 
L 390.86281 267.837993 
L 392.449587 273.640512 
L 394.036364 278.820533 
L 395.62314 283.345389 
L 397.209917 287.18678 
L 398.796694 290.320474 
L 400.383471 292.72686 
L 401.17686 293.652388 
L 401.970248 294.390791 
L 402.763636 294.940874 
L 403.557025 295.301799 
L 404.350413 295.472996 
L 405.143802 295.454193 
L 405.93719 295.245418 
L 406.730579 294.847002 
L 407.523967 294.259572 
L 408.317355 293.484031 
L 409.110744 292.521639 
L 410.697521 290.042527 
L 412.284298 286.837859 
L 413.871074 282.927694 
L 415.457851 278.336674 
L 417.044628 273.093538 
L 418.631405 267.231335 
L 421.01157 257.358657 
L 423.391736 246.316081 
L 425.771901 234.259569 
L 428.945455 216.903116 
L 432.912397 193.766407 
L 444.019835 127.9582 
L 447.193388 110.916121 
L 449.573554 99.15977 
L 451.953719 88.467902 
L 454.333884 78.991578 
L 455.920661 73.416082 
L 457.507438 68.475709 
L 459.094215 64.20154 
L 460.680992 60.62031 
L 462.267769 57.754605 
L 463.854545 55.622359 
L 464.647934 54.835671 
L 465.441322 54.237016 
L 466.234711 53.827316 
L 467.028099 53.607243 
L 467.821488 53.57712 
L 468.614876 53.737006 
L 469.408264 54.086655 
L 470.201653 54.625504 
L 470.995041 55.352703 
L 471.78843 56.267121 
L 473.375207 58.651604 
L 474.961983 61.763942 
L 476.54876 65.58454 
L 478.135537 70.089496 
L 479.722314 75.250404 
L 481.309091 81.034956 
L 483.689256 90.800503 
L 486.069421 101.748493 
L 488.449587 113.724478 
L 491.62314 130.997258 
L 495.590083 154.070361 
L 506.697521 219.954463 
L 509.871074 237.085072 
L 512.25124 248.925223 
L 514.631405 259.714589 
L 517.01157 269.300647 
L 518.598347 274.955502 
L 520.185124 279.979393 
L 521.771901 284.34091 
L 523.358678 288.012747 
L 524.945455 290.971645 
L 526.532231 293.199134 
L 527.32562 294.034056 
L 528.119008 294.681204 
L 528.912397 295.139635 
L 529.705785 295.408576 
L 530.499174 295.487611 
L 531.292562 295.376622 
L 532.08595 295.075784 
L 532.879339 294.585594 
L 533.672727 293.906766 
L 534.466116 293.040438 
L 536.052893 290.750815 
L 537.639669 287.731202 
L 539.226446 284.000526 
L 540.813223 279.582102 
L 542.4 274.503906 
L 543.986777 268.797725 
L 546.366942 259.14034 
L 548.747107 248.287894 
L 551.127273 236.393669 
L 554.300826 219.206477 
L 558.267769 196.199378 
L 570.168595 125.820305 
L 573.342149 108.949578 
L 575.722314 97.354475 
L 578.102479 86.849508 
L 580.482645 77.582702 
L 582.069421 72.15813 
L 583.656198 67.376705 
L 585.242975 63.268312 
L 586.829752 59.85877 
L 588.416529 57.169433 
L 590.003306 55.217317 
L 590.796694 54.521697 
L 591.590083 54.014621 
L 592.383471 53.696847 
L 593.17686 53.568894 
L 593.970248 53.630964 
L 594.763636 53.882955 
L 595.557025 54.324457 
L 596.350413 54.954814 
L 597.143802 55.773023 
L 597.93719 56.777744 
L 599.523967 59.340346 
L 601.110744 62.62642 
L 602.697521 66.615375 
L 604.284298 71.282149 
L 605.871074 76.597563 
L 607.457851 82.527978 
L 609.838017 92.494557 
L 612.218182 103.619744 
L 614.598347 115.746414 
L 617.771901 133.175258 
L 621.738843 156.366302 
L 632.052893 217.657287 
L 635.226446 234.959188 
L 637.606612 246.963258 
L 639.986777 257.944248 
L 642.366942 267.747077 
L 643.953719 273.558601 
L 645.540496 278.748197 
L 647.127273 283.283024 
L 648.71405 287.134724 
L 650.300826 290.279104 
L 651.887603 292.696471 
L 652.680992 293.627521 
L 653.47438 294.37152 
L 654.267769 294.92724 
L 655.061157 295.293796 
L 655.854545 295.470646 
L 656.647934 295.457502 
L 657.441322 295.254379 
L 658.234711 294.861587 
L 659.028099 294.279789 
L 659.821488 293.509835 
L 660.614876 292.552959 
L 662.201653 290.084805 
L 663.78843 286.890808 
L 665.375207 282.991018 
L 666.961983 278.409832 
L 668.54876 273.176227 
L 670.135537 267.32298 
L 672.515702 257.462638 
L 674.895868 246.430934 
L 677.276033 234.383676 
L 680.449587 217.03692 
L 684.416529 193.907232 
L 695.523967 128.089895 
L 698.697521 111.0376 
L 701.077686 99.271494 
L 703.457851 88.568292 
L 705.838017 79.079149 
L 707.424793 73.494518 
L 709.01157 68.544513 
L 710.598347 64.260106 
L 712.185124 60.668435 
L 713.771901 57.791931 
L 715.358678 55.648675 
L 716.152066 54.856385 
L 716.945455 54.252106 
L 717.738843 53.836783 
L 718.532231 53.61105 
L 719.32562 53.575275 
L 720.119008 53.729501 
L 720.912397 54.073504 
L 721.705785 54.606744 
L 722.499174 55.328341 
L 723.292562 56.237229 
L 724.879339 58.610717 
L 726.466116 61.712313 
L 728.052893 65.522622 
L 729.639669 70.017535 
L 731.226446 75.168896 
L 732.813223 80.944357 
L 735.193388 90.697438 
L 737.573554 101.634506 
L 739.953719 113.601103 
L 743.127273 130.864186 
L 747.094215 153.929663 
L 758.201653 219.822216 
L 761.375207 236.962735 
L 763.755372 248.812511 
L 766.135537 259.613089 
L 768.515702 269.211937 
L 770.102479 274.87579 
L 771.689256 279.909436 
L 773.276033 284.281017 
L 774.86281 287.963215 
L 776.449587 290.932885 
L 778.036364 293.171426 
L 778.829752 294.011885 
L 779.62314 294.664672 
L 780.416529 295.128726 
L 781.209917 295.403306 
L 782.003306 295.488 
L 782.796694 295.382671 
L 783.590083 295.087493 
L 784.383471 294.602905 
L 785.17686 293.929715 
L 785.970248 293.06891 
L 786.763636 292.021882 
L 788.350413 289.37607 
L 789.93719 286.008864 
L 791.523967 281.941308 
L 793.110744 277.199148 
L 794.697521 271.812074 
L 796.284298 265.81393 
L 798.664463 255.754279 
L 801.044628 244.547391 
L 803.424793 232.351556 
L 806.598347 214.851425 
L 810.565289 191.60792 
L 820.879339 130.379035 
L 824.052893 113.151872 
L 826.433058 101.219673 
L 828.813223 90.323031 
L 831.193388 80.615336 
L 832.780165 74.872997 
L 834.366942 69.756351 
L 835.953719 65.297826 
L 837.540496 61.525599 
L 839.127273 58.462994 
L 840.71405 56.129557 
L 841.507438 55.240929 
L 842.300826 54.539707 
L 843.094215 54.026979 
L 843.887603 53.703559 
L 844.680992 53.569961 
L 845.47438 53.626364 
L 846.267769 53.872702 
L 847.061157 54.308595 
L 847.854545 54.933343 
L 848.647934 55.745979 
L 849.441322 56.745112 
L 851.028099 59.296806 
L 852.614876 62.572332 
L 854.201653 66.55089 
L 855.78843 71.207887 
L 857.375207 76.513893 
L 858.961983 82.435274 
L 861.342149 92.389776 
L 863.722314 103.504033 
L 866.102479 115.621778 
L 869.276033 133.041227 
L 873.242975 156.225278 
L 883.557025 217.523977 
L 886.730579 234.835571 
L 889.110744 246.848773 
L 891.490909 257.840888 
L 893.871074 267.655966 
L 895.457851 273.476618 
L 897.044628 278.675717 
L 898.631405 283.220399 
L 900.218182 287.082547 
L 901.804959 290.237546 
L 903.391736 292.665865 
L 904.185124 293.602517 
L 904.978512 294.352096 
L 905.771901 294.913426 
L 906.565289 295.285605 
L 907.358678 295.468122 
L 908.152066 295.460631 
L 908.945455 295.263161 
L 909.738843 294.876007 
L 910.532231 294.299854 
L 911.32562 293.535488 
L 912.119008 292.584163 
L 913.705785 290.126882 
L 915.292562 286.943635 
L 916.879339 283.054097 
L 918.466116 278.482839 
L 920.052893 273.258845 
L 921.639669 267.414429 
L 924.019835 257.566596 
L 926.4 246.545599 
L 928.780165 234.507801 
L 931.953719 217.17023 
L 935.920661 194.048033 
L 947.028099 128.221861 
L 950.201653 111.159266 
L 952.581818 99.383232 
L 954.961983 88.668876 
L 957.342149 79.166842 
L 958.928926 73.573163 
L 960.515702 68.613345 
L 962.102479 64.31883 
L 963.689256 60.716748 
L 965.276033 57.829393 
L 966.86281 55.675077 
L 967.656198 54.877286 
L 968.449587 54.267384 
L 969.242975 53.846408 
L 970.036364 53.615023 
L 970.829752 53.573595 
L 971.62314 53.722161 
L 972.416529 54.060519 
L 973.209917 54.588128 
L 974.003306 55.304159 
L 974.796694 56.207495 
L 976.383471 58.569967 
L 977.970248 61.660921 
L 979.557025 65.460855 
L 981.143802 69.945667 
L 982.730579 75.087605 
L 984.317355 80.854183 
L 986.697521 90.594655 
L 989.077686 101.520533 
L 991.457851 113.477909 
L 994.631405 130.730966 
L 996.218182 139.797969 
L 996.218182 139.797969 
" style="fill:none;stroke:#1f77b4;stroke-linecap:square;stroke-width:1.5;"/>
   </g>
   <g id="patch_3">
    <path d="M 144 307.584 
L 144 41.472 
" style="fill:none;stroke:#000000;stroke-linecap:square;stroke-linejoin:miter;stroke-width:0.8;"/>
   </g>
   <g id="patch_4">
    <path d="M 1036.8 307.584 
L 1036.8 41.472 
" style="fill:none;stroke:#000000;stroke-linecap:square;stroke-linejoin:miter;stroke-width:0.8;"/>
   </g>
   <g id="patch_5">
    <path d="M 144 307.584 
L 1036.8 307.584 
" style="fill:none;stroke:#000000;stroke-linecap:square;stroke-linejoin:miter;stroke-width:0.8;"/>
   </g>
   <g id="patch_6">
    <path d="M 144 41.472 
L 1036.8 41.472 
" style="fill:none;stroke:#000000;stroke-linecap:square;stroke-linejoin:miter;stroke-width:0.8;"/>
   </g>
   <g id="text_12">
    <!-- Original -->
    <g transform="translate(566.92125 35.472)scale(0.12 -0.12)">
     <defs>
      <path d="M 39.40625 66.21875 
Q 28.65625 66.21875 22.328125 58.203125 
Q 16.015625 50.203125 16.015625 36.375 
Q 16.015625 22.609375 22.328125 14.59375 
Q 28.65625 6.59375 39.40625 6.59375 
Q 50.140625 6.59375 56.421875 14.59375 
Q 62.703125 22.609375 62.703125 36.375 
Q 62.703125 50.203125 56.421875 58.203125 
Q 50.140625 66.21875 39.40625 66.21875 
z
M 39.40625 74.21875 
Q 54.734375 74.21875 63.90625 63.9375 
Q 73.09375 53.65625 73.09375 36.375 
Q 73.09375 19.140625 63.90625 8.859375 
Q 54.734375 -1.421875 39.40625 -1.421875 
Q 24.03125 -1.421875 14.8125 8.828125 
Q 5.609375 19.09375 5.609375 36.375 
Q 5.609375 53.65625 14.8125 63.9375 
Q 24.03125 74.21875 39.40625 74.21875 
z
" id="DejaVuSans-79"/>
      <path d="M 41.109375 46.296875 
Q 39.59375 47.171875 37.8125 47.578125 
Q 36.03125 48 33.890625 48 
Q 26.265625 48 22.1875 43.046875 
Q 18.109375 38.09375 18.109375 28.8125 
L 18.109375 0 
L 9.078125 0 
L 9.078125 54.6875 
L 18.109375 54.6875 
L 18.109375 46.1875 
Q 20.953125 51.171875 25.484375 53.578125 
Q 30.03125 56 36.53125 56 
Q 37.453125 56 38.578125 55.875 
Q 39.703125 55.765625 41.0625 55.515625 
z
" id="DejaVuSans-114"/>
      <path d="M 9.421875 54.6875 
L 18.40625 54.6875 
L 18.40625 0 
L 9.421875 0 
z
M 9.421875 75.984375 
L 18.40625 75.984375 
L 18.40625 64.59375 
L 9.421875 64.59375 
z
" id="DejaVuSans-105"/>
      <path d="M 45.40625 27.984375 
Q 45.40625 37.75 41.375 43.109375 
Q 37.359375 48.484375 30.078125 48.484375 
Q 22.859375 48.484375 18.828125 43.109375 
Q 14.796875 37.75 14.796875 27.984375 
Q 14.796875 18.265625 18.828125 12.890625 
Q 22.859375 7.515625 30.078125 7.515625 
Q 37.359375 7.515625 41.375 12.890625 
Q 45.40625 18.265625 45.40625 27.984375 
z
M 54.390625 6.78125 
Q 54.390625 -7.171875 48.1875 -13.984375 
Q 42 -20.796875 29.203125 -20.796875 
Q 24.46875 -20.796875 20.265625 -20.09375 
Q 16.0625 -19.390625 12.109375 -17.921875 
L 12.109375 -9.1875 
Q 16.0625 -11.328125 19.921875 -12.34375 
Q 23.78125 -13.375 27.78125 -13.375 
Q 36.625 -13.375 41.015625 -8.765625 
Q 45.40625 -4.15625 45.40625 5.171875 
L 45.40625 9.625 
Q 42.625 4.78125 38.28125 2.390625 
Q 33.9375 0 27.875 0 
Q 17.828125 0 11.671875 7.65625 
Q 5.515625 15.328125 5.515625 27.984375 
Q 5.515625 40.671875 11.671875 48.328125 
Q 17.828125 56 27.875 56 
Q 33.9375 56 38.28125 53.609375 
Q 42.625 51.21875 45.40625 46.390625 
L 45.40625 54.6875 
L 54.390625 54.6875 
z
" id="DejaVuSans-103"/>
      <path d="M 54.890625 33.015625 
L 54.890625 0 
L 45.90625 0 
L 45.90625 32.71875 
Q 45.90625 40.484375 42.875 44.328125 
Q 39.84375 48.1875 33.796875 48.1875 
Q 26.515625 48.1875 22.3125 43.546875 
Q 18.109375 38.921875 18.109375 30.90625 
L 18.109375 0 
L 9.078125 0 
L 9.078125 54.6875 
L 18.109375 54.6875 
L 18.109375 46.1875 
Q 21.34375 51.125 25.703125 53.5625 
Q 30.078125 56 35.796875 56 
Q 45.21875 56 50.046875 50.171875 
Q 54.890625 44.34375 54.890625 33.015625 
z
" id="DejaVuSans-110"/>
      <path d="M 34.28125 27.484375 
Q 23.390625 27.484375 19.1875 25 
Q 14.984375 22.515625 14.984375 16.5 
Q 14.984375 11.71875 18.140625 8.90625 
Q 21.296875 6.109375 26.703125 6.109375 
Q 34.1875 6.109375 38.703125 11.40625 
Q 43.21875 16.703125 43.21875 25.484375 
L 43.21875 27.484375 
z
M 52.203125 31.203125 
L 52.203125 0 
L 43.21875 0 
L 43.21875 8.296875 
Q 40.140625 3.328125 35.546875 0.953125 
Q 30.953125 -1.421875 24.3125 -1.421875 
Q 15.921875 -1.421875 10.953125 3.296875 
Q 6 8.015625 6 15.921875 
Q 6 25.140625 12.171875 29.828125 
Q 18.359375 34.515625 30.609375 34.515625 
L 43.21875 34.515625 
L 43.21875 35.40625 
Q 43.21875 41.609375 39.140625 45 
Q 35.0625 48.390625 27.6875 48.390625 
Q 23 48.390625 18.546875 47.265625 
Q 14.109375 46.140625 10.015625 43.890625 
L 10.015625 52.203125 
Q 14.9375 54.109375 19.578125 55.046875 
Q 24.21875 56 28.609375 56 
Q 40.484375 56 46.34375 49.84375 
Q 52.203125 43.703125 52.203125 31.203125 
z
" id="DejaVuSans-97"/>
      <path d="M 9.421875 75.984375 
L 18.40625 75.984375 
L 18.40625 0 
L 9.421875 0 
z
" id="DejaVuSans-108"/>
     </defs>
     <use xlink:href="#DejaVuSans-79"/>
     <use x="78.710938" xlink:href="#DejaVuSans-114"/>
     <use x="119.824219" xlink:href="#DejaVuSans-105"/>
     <use x="147.607422" xlink:href="#DejaVuSans-103"/>
     <use x="211.083984" xlink:href="#DejaVuSans-105"/>
     <use x="238.867188" xlink:href="#DejaVuSans-110"/>
     <use x="302.246094" xlink:href="#DejaVuSans-97"/>
     <use x="363.525391" xlink:href="#DejaVuSans-108"/>
    </g>
   </g>
  </g>
 </g>
 <defs>
  <clipPath id="pd3750b1a3a">
   <rect height="266.112" width="892.8" x="144" y="41.472"/>
  </clipPath>
 </defs>
</svg>
