<?xml version="1.0" encoding="utf-8" standalone="no"?>
<!DOCTYPE svg PUBLIC "-//W3C//DTD SVG 1.1//EN"
  "http://www.w3.org/Graphics/SVG/1.1/DTD/svg11.dtd">
<!-- Created with matplotlib (https://matplotlib.org/) -->
<svg height="345.6pt" version="1.1" viewBox="0 0 1152 345.6" width="1152pt" xmlns="http://www.w3.org/2000/svg" xmlns:xlink="http://www.w3.org/1999/xlink">
 <metadata>
  <rdf:RDF xmlns:cc="http://creativecommons.org/ns#" xmlns:dc="http://purl.org/dc/elements/1.1/" xmlns:rdf="http://www.w3.org/1999/02/22-rdf-syntax-ns#">
   <cc:Work>
    <dc:type rdf:resource="http://purl.org/dc/dcmitype/StillImage"/>
    <dc:date>2021-12-24T07:19:07.745629</dc:date>
    <dc:format>image/svg+xml</dc:format>
    <dc:creator>
     <cc:Agent>
      <dc:title>Matplotlib v3.3.3, https://matplotlib.org/</dc:title>
     </cc:Agent>
    </dc:creator>
   </cc:Work>
  </rdf:RDF>
 </metadata>
 <defs>
  <style type="text/css">*{stroke-linecap:butt;stroke-linejoin:round;}</style>
 </defs>
 <g id="figure_1">
  <g id="patch_1">
   <path d="M 0 345.6 
L 1152 345.6 
L 1152 0 
L 0 0 
z
" style="fill:#ffffff;"/>
  </g>
  <g id="axes_1">
   <g id="patch_2">
    <path d="M 144 307.584 
L 1036.8 307.584 
L 1036.8 41.472 
L 144 41.472 
z
" style="fill:#ffffff;"/>
   </g>
   <g id="matplotlib.axis_1">
    <g id="xtick_1">
     <g id="line2d_1">
      <defs>
       <path d="M 0 0 
L 0 3.5 
" id="mb55015c83b" style="stroke:#000000;stroke-width:0.8;"/>
      </defs>
      <g>
       <use style="stroke:#000000;stroke-width:0.8;" x="184.581818" xlink:href="#mb55015c83b" y="307.584"/>
      </g>
     </g>
     <g id="text_1">
      <!-- 0 -->
      <g transform="translate(181.400568 322.182437)scale(0.1 -0.1)">
       <defs>
        <path d="M 31.78125 66.40625 
Q 24.171875 66.40625 20.328125 58.90625 
Q 16.5 51.421875 16.5 36.375 
Q 16.5 21.390625 20.328125 13.890625 
Q 24.171875 6.390625 31.78125 6.390625 
Q 39.453125 6.390625 43.28125 13.890625 
Q 47.125 21.390625 47.125 36.375 
Q 47.125 51.421875 43.28125 58.90625 
Q 39.453125 66.40625 31.78125 66.40625 
z
M 31.78125 74.21875 
Q 44.046875 74.21875 50.515625 64.515625 
Q 56.984375 54.828125 56.984375 36.375 
Q 56.984375 17.96875 50.515625 8.265625 
Q 44.046875 -1.421875 31.78125 -1.421875 
Q 19.53125 -1.421875 13.0625 8.265625 
Q 6.59375 17.96875 6.59375 36.375 
Q 6.59375 54.828125 13.0625 64.515625 
Q 19.53125 74.21875 31.78125 74.21875 
z
" id="DejaVuSans-48"/>
       </defs>
       <use xlink:href="#DejaVuSans-48"/>
      </g>
     </g>
    </g>
    <g id="xtick_2">
     <g id="line2d_2">
      <g>
       <use style="stroke:#000000;stroke-width:0.8;" x="343.259504" xlink:href="#mb55015c83b" y="307.584"/>
      </g>
     </g>
     <g id="text_2">
      <!-- 200 -->
      <g transform="translate(333.715754 322.182437)scale(0.1 -0.1)">
       <defs>
        <path d="M 19.1875 8.296875 
L 53.609375 8.296875 
L 53.609375 0 
L 7.328125 0 
L 7.328125 8.296875 
Q 12.9375 14.109375 22.625 23.890625 
Q 32.328125 33.6875 34.8125 36.53125 
Q 39.546875 41.84375 41.421875 45.53125 
Q 43.3125 49.21875 43.3125 52.78125 
Q 43.3125 58.59375 39.234375 62.25 
Q 35.15625 65.921875 28.609375 65.921875 
Q 23.96875 65.921875 18.8125 64.3125 
Q 13.671875 62.703125 7.8125 59.421875 
L 7.8125 69.390625 
Q 13.765625 71.78125 18.9375 73 
Q 24.125 74.21875 28.421875 74.21875 
Q 39.75 74.21875 46.484375 68.546875 
Q 53.21875 62.890625 53.21875 53.421875 
Q 53.21875 48.921875 51.53125 44.890625 
Q 49.859375 40.875 45.40625 35.40625 
Q 44.1875 33.984375 37.640625 27.21875 
Q 31.109375 20.453125 19.1875 8.296875 
z
" id="DejaVuSans-50"/>
       </defs>
       <use xlink:href="#DejaVuSans-50"/>
       <use x="63.623047" xlink:href="#DejaVuSans-48"/>
       <use x="127.246094" xlink:href="#DejaVuSans-48"/>
      </g>
     </g>
    </g>
    <g id="xtick_3">
     <g id="line2d_3">
      <g>
       <use style="stroke:#000000;stroke-width:0.8;" x="501.93719" xlink:href="#mb55015c83b" y="307.584"/>
      </g>
     </g>
     <g id="text_3">
      <!-- 400 -->
      <g transform="translate(492.39344 322.182437)scale(0.1 -0.1)">
       <defs>
        <path d="M 37.796875 64.3125 
L 12.890625 25.390625 
L 37.796875 25.390625 
z
M 35.203125 72.90625 
L 47.609375 72.90625 
L 47.609375 25.390625 
L 58.015625 25.390625 
L 58.015625 17.1875 
L 47.609375 17.1875 
L 47.609375 0 
L 37.796875 0 
L 37.796875 17.1875 
L 4.890625 17.1875 
L 4.890625 26.703125 
z
" id="DejaVuSans-52"/>
       </defs>
       <use xlink:href="#DejaVuSans-52"/>
       <use x="63.623047" xlink:href="#DejaVuSans-48"/>
       <use x="127.246094" xlink:href="#DejaVuSans-48"/>
      </g>
     </g>
    </g>
    <g id="xtick_4">
     <g id="line2d_4">
      <g>
       <use style="stroke:#000000;stroke-width:0.8;" x="660.614876" xlink:href="#mb55015c83b" y="307.584"/>
      </g>
     </g>
     <g id="text_4">
      <!-- 600 -->
      <g transform="translate(651.071126 322.182437)scale(0.1 -0.1)">
       <defs>
        <path d="M 33.015625 40.375 
Q 26.375 40.375 22.484375 35.828125 
Q 18.609375 31.296875 18.609375 23.390625 
Q 18.609375 15.53125 22.484375 10.953125 
Q 26.375 6.390625 33.015625 6.390625 
Q 39.65625 6.390625 43.53125 10.953125 
Q 47.40625 15.53125 47.40625 23.390625 
Q 47.40625 31.296875 43.53125 35.828125 
Q 39.65625 40.375 33.015625 40.375 
z
M 52.59375 71.296875 
L 52.59375 62.3125 
Q 48.875 64.0625 45.09375 64.984375 
Q 41.3125 65.921875 37.59375 65.921875 
Q 27.828125 65.921875 22.671875 59.328125 
Q 17.53125 52.734375 16.796875 39.40625 
Q 19.671875 43.65625 24.015625 45.921875 
Q 28.375 48.1875 33.59375 48.1875 
Q 44.578125 48.1875 50.953125 41.515625 
Q 57.328125 34.859375 57.328125 23.390625 
Q 57.328125 12.15625 50.6875 5.359375 
Q 44.046875 -1.421875 33.015625 -1.421875 
Q 20.359375 -1.421875 13.671875 8.265625 
Q 6.984375 17.96875 6.984375 36.375 
Q 6.984375 53.65625 15.1875 63.9375 
Q 23.390625 74.21875 37.203125 74.21875 
Q 40.921875 74.21875 44.703125 73.484375 
Q 48.484375 72.75 52.59375 71.296875 
z
" id="DejaVuSans-54"/>
       </defs>
       <use xlink:href="#DejaVuSans-54"/>
       <use x="63.623047" xlink:href="#DejaVuSans-48"/>
       <use x="127.246094" xlink:href="#DejaVuSans-48"/>
      </g>
     </g>
    </g>
    <g id="xtick_5">
     <g id="line2d_5">
      <g>
       <use style="stroke:#000000;stroke-width:0.8;" x="819.292562" xlink:href="#mb55015c83b" y="307.584"/>
      </g>
     </g>
     <g id="text_5">
      <!-- 800 -->
      <g transform="translate(809.748812 322.182437)scale(0.1 -0.1)">
       <defs>
        <path d="M 31.78125 34.625 
Q 24.75 34.625 20.71875 30.859375 
Q 16.703125 27.09375 16.703125 20.515625 
Q 16.703125 13.921875 20.71875 10.15625 
Q 24.75 6.390625 31.78125 6.390625 
Q 38.8125 6.390625 42.859375 10.171875 
Q 46.921875 13.96875 46.921875 20.515625 
Q 46.921875 27.09375 42.890625 30.859375 
Q 38.875 34.625 31.78125 34.625 
z
M 21.921875 38.8125 
Q 15.578125 40.375 12.03125 44.71875 
Q 8.5 49.078125 8.5 55.328125 
Q 8.5 64.0625 14.71875 69.140625 
Q 20.953125 74.21875 31.78125 74.21875 
Q 42.671875 74.21875 48.875 69.140625 
Q 55.078125 64.0625 55.078125 55.328125 
Q 55.078125 49.078125 51.53125 44.71875 
Q 48 40.375 41.703125 38.8125 
Q 48.828125 37.15625 52.796875 32.3125 
Q 56.78125 27.484375 56.78125 20.515625 
Q 56.78125 9.90625 50.3125 4.234375 
Q 43.84375 -1.421875 31.78125 -1.421875 
Q 19.734375 -1.421875 13.25 4.234375 
Q 6.78125 9.90625 6.78125 20.515625 
Q 6.78125 27.484375 10.78125 32.3125 
Q 14.796875 37.15625 21.921875 38.8125 
z
M 18.3125 54.390625 
Q 18.3125 48.734375 21.84375 45.5625 
Q 25.390625 42.390625 31.78125 42.390625 
Q 38.140625 42.390625 41.71875 45.5625 
Q 45.3125 48.734375 45.3125 54.390625 
Q 45.3125 60.0625 41.71875 63.234375 
Q 38.140625 66.40625 31.78125 66.40625 
Q 25.390625 66.40625 21.84375 63.234375 
Q 18.3125 60.0625 18.3125 54.390625 
z
" id="DejaVuSans-56"/>
       </defs>
       <use xlink:href="#DejaVuSans-56"/>
       <use x="63.623047" xlink:href="#DejaVuSans-48"/>
       <use x="127.246094" xlink:href="#DejaVuSans-48"/>
      </g>
     </g>
    </g>
    <g id="xtick_6">
     <g id="line2d_6">
      <g>
       <use style="stroke:#000000;stroke-width:0.8;" x="977.970248" xlink:href="#mb55015c83b" y="307.584"/>
      </g>
     </g>
     <g id="text_6">
      <!-- 1000 -->
      <g transform="translate(965.245248 322.182437)scale(0.1 -0.1)">
       <defs>
        <path d="M 12.40625 8.296875 
L 28.515625 8.296875 
L 28.515625 63.921875 
L 10.984375 60.40625 
L 10.984375 69.390625 
L 28.421875 72.90625 
L 38.28125 72.90625 
L 38.28125 8.296875 
L 54.390625 8.296875 
L 54.390625 0 
L 12.40625 0 
z
" id="DejaVuSans-49"/>
       </defs>
       <use xlink:href="#DejaVuSans-49"/>
       <use x="63.623047" xlink:href="#DejaVuSans-48"/>
       <use x="127.246094" xlink:href="#DejaVuSans-48"/>
       <use x="190.869141" xlink:href="#DejaVuSans-48"/>
      </g>
     </g>
    </g>
   </g>
   <g id="matplotlib.axis_2">
    <g id="ytick_1">
     <g id="line2d_7">
      <defs>
       <path d="M 0 0 
L -3.5 0 
" id="md01e13e971" style="stroke:#000000;stroke-width:0.8;"/>
      </defs>
      <g>
       <use style="stroke:#000000;stroke-width:0.8;" x="144" xlink:href="#md01e13e971" y="268.137264"/>
      </g>
     </g>
     <g id="text_7">
      <!-- −0.4 -->
      <g transform="translate(112.717187 271.936483)scale(0.1 -0.1)">
       <defs>
        <path d="M 10.59375 35.5 
L 73.1875 35.5 
L 73.1875 27.203125 
L 10.59375 27.203125 
z
" id="DejaVuSans-8722"/>
        <path d="M 10.6875 12.40625 
L 21 12.40625 
L 21 0 
L 10.6875 0 
z
" id="DejaVuSans-46"/>
       </defs>
       <use xlink:href="#DejaVuSans-8722"/>
       <use x="83.789062" xlink:href="#DejaVuSans-48"/>
       <use x="147.412109" xlink:href="#DejaVuSans-46"/>
       <use x="179.199219" xlink:href="#DejaVuSans-52"/>
      </g>
     </g>
    </g>
    <g id="ytick_2">
     <g id="line2d_8">
      <g>
       <use style="stroke:#000000;stroke-width:0.8;" x="144" xlink:href="#md01e13e971" y="221.225021"/>
      </g>
     </g>
     <g id="text_8">
      <!-- −0.2 -->
      <g transform="translate(112.717187 225.02424)scale(0.1 -0.1)">
       <use xlink:href="#DejaVuSans-8722"/>
       <use x="83.789062" xlink:href="#DejaVuSans-48"/>
       <use x="147.412109" xlink:href="#DejaVuSans-46"/>
       <use x="179.199219" xlink:href="#DejaVuSans-50"/>
      </g>
     </g>
    </g>
    <g id="ytick_3">
     <g id="line2d_9">
      <g>
       <use style="stroke:#000000;stroke-width:0.8;" x="144" xlink:href="#md01e13e971" y="174.312777"/>
      </g>
     </g>
     <g id="text_9">
      <!-- 0.0 -->
      <g transform="translate(121.096875 178.111996)scale(0.1 -0.1)">
       <use xlink:href="#DejaVuSans-48"/>
       <use x="63.623047" xlink:href="#DejaVuSans-46"/>
       <use x="95.410156" xlink:href="#DejaVuSans-48"/>
      </g>
     </g>
    </g>
    <g id="ytick_4">
     <g id="line2d_10">
      <g>
       <use style="stroke:#000000;stroke-width:0.8;" x="144" xlink:href="#md01e13e971" y="127.400534"/>
      </g>
     </g>
     <g id="text_10">
      <!-- 0.2 -->
      <g transform="translate(121.096875 131.199753)scale(0.1 -0.1)">
       <use xlink:href="#DejaVuSans-48"/>
       <use x="63.623047" xlink:href="#DejaVuSans-46"/>
       <use x="95.410156" xlink:href="#DejaVuSans-50"/>
      </g>
     </g>
    </g>
    <g id="ytick_5">
     <g id="line2d_11">
      <g>
       <use style="stroke:#000000;stroke-width:0.8;" x="144" xlink:href="#md01e13e971" y="80.488291"/>
      </g>
     </g>
     <g id="text_11">
      <!-- 0.4 -->
      <g transform="translate(121.096875 84.287509)scale(0.1 -0.1)">
       <use xlink:href="#DejaVuSans-48"/>
       <use x="63.623047" xlink:href="#DejaVuSans-46"/>
       <use x="95.410156" xlink:href="#DejaVuSans-52"/>
      </g>
     </g>
    </g>
   </g>
   <g id="line2d_12">
    <path clip-path="url(#p6df362ba0d)" d="M 184.581818 172.523133 
L 185.375207 168.73821 
L 186.168595 161.978388 
L 186.961983 159.638018 
L 187.755372 155.940796 
L 188.54876 153.251961 
L 189.342149 148.374724 
L 190.135537 139.481584 
L 190.928926 132.127052 
L 191.722314 132.05814 
L 192.515702 129.297918 
L 194.102479 116.183592 
L 194.895868 111.570179 
L 195.689256 108.718096 
L 196.482645 107.518042 
L 197.276033 103.974217 
L 198.86281 95.007696 
L 199.656198 92.845803 
L 200.449587 91.656647 
L 202.036364 85.101433 
L 203.62314 78.343592 
L 204.416529 76.407603 
L 205.209917 72.718928 
L 206.003306 69.640962 
L 206.796694 67.186825 
L 208.383471 63.344262 
L 209.970248 59.779577 
L 210.763636 58.738095 
L 211.557025 58.232397 
L 213.143802 60.16601 
L 213.93719 59.852432 
L 215.523967 56.537999 
L 216.317355 55.821559 
L 217.110744 55.969016 
L 217.904132 55.714563 
L 218.697521 56.934638 
L 219.490909 57.395708 
L 220.284298 57.433625 
L 221.077686 57.114272 
L 221.871074 58.243505 
L 222.664463 60.836578 
L 223.457851 64.710199 
L 224.25124 66.692752 
L 225.838017 73.107004 
L 226.631405 76.533375 
L 227.424793 78.090803 
L 229.01157 80.375652 
L 229.804959 82.740381 
L 230.598347 85.663865 
L 231.391736 89.878146 
L 235.358678 107.318017 
L 237.738843 120.361907 
L 240.119008 134.333625 
L 241.705785 141.700576 
L 242.499174 146.561519 
L 243.292562 150.715179 
L 244.08595 155.597029 
L 244.879339 159.64055 
L 245.672727 164.374168 
L 248.052893 176.235856 
L 250.433058 191.829369 
L 252.019835 200.080109 
L 253.606612 211.22121 
L 254.4 215.459597 
L 255.193388 218.775764 
L 256.780165 228.414317 
L 257.573554 233.445833 
L 259.160331 241.474456 
L 259.953719 244.257299 
L 262.333884 255.805827 
L 263.127273 257.576974 
L 263.920661 259.741922 
L 264.71405 262.470225 
L 265.507438 265.81139 
L 267.094215 271.667187 
L 267.887603 274.846997 
L 268.680992 278.713552 
L 270.267769 282.541267 
L 271.061157 285.029734 
L 271.854545 288.074643 
L 272.647934 289.401329 
L 273.441322 289.507696 
L 274.234711 289.895499 
L 275.028099 291.413123 
L 275.821488 291.758753 
L 276.614876 290.871368 
L 277.408264 289.776528 
L 278.995041 291.827455 
L 279.78843 292.12325 
L 280.581818 291.217348 
L 281.375207 291.658663 
L 282.168595 291.706534 
L 282.961983 291.147247 
L 283.755372 289.08752 
L 285.342149 285.727607 
L 286.135537 284.940193 
L 286.928926 283.621406 
L 287.722314 281.411782 
L 288.515702 276.830445 
L 289.309091 273.376245 
L 290.102479 270.772064 
L 290.895868 269.216643 
L 292.482645 264.560977 
L 293.276033 261.392379 
L 294.069421 259.561596 
L 294.86281 256.991256 
L 295.656198 254.003187 
L 297.242975 246.613262 
L 300.416529 232.244112 
L 302.796694 215.737926 
L 303.590083 211.760926 
L 305.17686 205.126908 
L 306.763636 194.23185 
L 307.557025 189.331732 
L 308.350413 185.736573 
L 309.93719 176.228072 
L 312.317355 161.771327 
L 313.110744 157.901045 
L 317.077686 133.8182 
L 318.664463 126.017137 
L 319.457851 121.161837 
L 321.044628 113.203922 
L 321.838017 109.732063 
L 322.631405 105.609889 
L 323.424793 102.627601 
L 325.01157 95.304735 
L 325.804959 91.419467 
L 328.185124 84.584124 
L 329.771901 76.892175 
L 330.565289 74.382576 
L 331.358678 72.579307 
L 332.152066 69.552358 
L 332.945455 67.203574 
L 333.738843 65.415594 
L 334.532231 63.959989 
L 335.32562 61.742529 
L 336.912397 58.764442 
L 338.499174 57.345524 
L 340.08595 58.262673 
L 340.879339 58.718661 
L 341.672727 58.763792 
L 342.466116 59.272265 
L 343.259504 59.140271 
L 344.052893 58.451751 
L 344.846281 56.854709 
L 345.639669 57.794913 
L 347.226446 61.629318 
L 348.019835 61.936165 
L 348.813223 62.818439 
L 349.606612 64.962052 
L 350.4 68.759652 
L 351.193388 70.826161 
L 352.780165 76.013725 
L 353.573554 79.660184 
L 354.366942 82.210853 
L 355.160331 84.378485 
L 355.953719 86.023294 
L 357.540496 90.480452 
L 359.127273 97.720117 
L 360.71405 105.311508 
L 361.507438 109.515632 
L 364.680992 124.156442 
L 365.47438 128.959813 
L 366.267769 135.32345 
L 367.061157 139.770465 
L 368.647934 147.416922 
L 374.201653 180.467441 
L 379.755372 210.629337 
L 380.54876 215.724658 
L 383.722314 232.4147 
L 384.515702 237.093376 
L 386.102479 244.031535 
L 386.895868 246.583923 
L 389.276033 258.421108 
L 390.86281 260.696862 
L 391.656198 263.396015 
L 393.242975 270.979527 
L 394.036364 274.626392 
L 394.829752 276.511107 
L 395.62314 278.885433 
L 396.416529 280.251581 
L 398.796694 286.86548 
L 400.383471 286.724979 
L 401.17686 287.971645 
L 401.970248 290.086702 
L 402.763636 288.748384 
L 403.557025 286.120282 
L 404.350413 285.02914 
L 405.143802 286.527288 
L 405.93719 288.535182 
L 406.730579 289.424537 
L 407.523967 288.149469 
L 408.317355 288.59465 
L 409.110744 288.853325 
L 409.904132 288.456602 
L 411.490909 285.303809 
L 413.077686 280.623432 
L 413.871074 278.365734 
L 414.664463 276.734948 
L 417.044628 265.758276 
L 417.838017 263.445563 
L 419.424793 259.445205 
L 420.218182 255.70371 
L 421.01157 252.929913 
L 423.391736 242.729392 
L 426.565289 226.883929 
L 427.358678 222.960814 
L 429.738843 207.982683 
L 432.912397 190.771321 
L 434.499174 181.194287 
L 435.292562 177.996683 
L 436.08595 173.998416 
L 436.879339 168.844212 
L 438.466116 156.968927 
L 439.259504 153.671452 
L 440.052893 151.291884 
L 440.846281 147.515608 
L 441.639669 142.955239 
L 443.226446 132.245208 
L 444.813223 125.391385 
L 447.193388 111.935893 
L 451.160331 93.103178 
L 452.747107 87.98031 
L 454.333884 83.540041 
L 455.127273 81.124408 
L 456.71405 74.83242 
L 458.300826 69.793564 
L 459.094215 66.405283 
L 459.887603 64.719091 
L 461.47438 62.442044 
L 463.061157 58.229273 
L 463.854545 57.0229 
L 464.647934 57.29313 
L 465.441322 57.873821 
L 466.234711 58.937652 
L 467.028099 59.211049 
L 467.821488 59.339883 
L 468.614876 58.989577 
L 470.201653 60.433263 
L 470.995041 60.226016 
L 471.78843 58.480895 
L 472.581818 58.883238 
L 473.375207 60.447943 
L 474.168595 63.126026 
L 474.961983 64.471964 
L 475.755372 65.577521 
L 476.54876 67.196751 
L 477.342149 70.398666 
L 478.135537 72.950676 
L 480.515702 83.869614 
L 481.309091 86.278921 
L 482.895868 90.567951 
L 484.482645 96.719117 
L 485.276033 101.080701 
L 486.86281 107.852347 
L 487.656198 110.624341 
L 488.449587 113.882675 
L 489.242975 118.38739 
L 490.036364 123.726206 
L 490.829752 128.261885 
L 492.416529 135.268376 
L 494.003306 145.807551 
L 494.796694 151.100887 
L 497.17686 163.149569 
L 498.763636 174.294138 
L 499.557025 179.632172 
L 501.93719 192.002692 
L 503.523967 202.829753 
L 504.317355 206.915752 
L 505.110744 209.607544 
L 505.904132 213.347305 
L 506.697521 218.333075 
L 508.284298 229.252481 
L 510.664463 238.923411 
L 513.044628 251.005255 
L 513.838017 252.910018 
L 514.631405 256.325484 
L 516.218182 265.372906 
L 517.01157 266.773754 
L 517.804959 267.426244 
L 518.598347 269.31811 
L 520.185124 277.758968 
L 520.978512 280.676119 
L 521.771901 282.017219 
L 522.565289 284.508035 
L 523.358678 286.298267 
L 525.738843 290.285931 
L 527.32562 291.831817 
L 528.912397 294.118315 
L 529.705785 292.585949 
L 530.499174 290.252698 
L 531.292562 288.553175 
L 532.08595 288.581039 
L 533.672727 289.591581 
L 534.466116 288.651762 
L 535.259504 288.302427 
L 537.639669 283.716756 
L 538.433058 282.735245 
L 540.019835 278.577713 
L 540.813223 276.647644 
L 541.606612 275.457769 
L 542.4 271.957564 
L 543.193388 267.343365 
L 543.986777 262.035516 
L 544.780165 258.717672 
L 545.573554 257.107438 
L 546.366942 256.126347 
L 547.160331 253.220297 
L 547.953719 249.6978 
L 548.747107 245.240635 
L 550.333884 238.692578 
L 551.127273 235.882165 
L 551.920661 232.140303 
L 553.507438 222.455173 
L 554.300826 218.715782 
L 557.47438 198.038866 
L 558.267769 194.222663 
L 559.061157 191.568546 
L 559.854545 187.333994 
L 562.234711 170.962009 
L 563.821488 162.741617 
L 565.408264 153.405054 
L 568.581818 135.281668 
L 570.168595 125.930242 
L 572.54876 114.223041 
L 573.342149 109.303065 
L 575.722314 99.048949 
L 577.309091 90.512601 
L 578.102479 87.355852 
L 580.482645 81.41166 
L 582.069421 76.054095 
L 582.86281 72.908621 
L 583.656198 71.048164 
L 584.449587 69.708629 
L 585.242975 67.410618 
L 586.036364 64.043414 
L 586.829752 62.188353 
L 587.62314 61.000197 
L 588.416529 60.096315 
L 589.209917 57.777667 
L 590.003306 55.90799 
L 590.796694 55.845187 
L 591.590083 57.267454 
L 593.17686 58.158662 
L 593.970248 58.01865 
L 594.763636 58.461342 
L 595.557025 59.204821 
L 596.350413 60.281283 
L 597.143802 60.53633 
L 597.93719 60.512227 
L 598.730579 59.955345 
L 599.523967 61.820857 
L 601.110744 66.594033 
L 602.697521 68.349473 
L 603.490909 70.233159 
L 604.284298 73.837809 
L 605.077686 76.347527 
L 605.871074 79.803405 
L 606.664463 82.680696 
L 609.044628 93.242826 
L 610.631405 99.82364 
L 611.424793 101.965527 
L 613.01157 109.552192 
L 613.804959 114.321285 
L 614.598347 118.008422 
L 615.391736 120.609761 
L 616.185124 124.544717 
L 616.978512 130.465375 
L 620.152066 149.340486 
L 622.532231 162.55458 
L 624.119008 171.486058 
L 624.912397 177.369569 
L 626.499174 186.736017 
L 627.292562 190.902317 
L 628.08595 193.869369 
L 628.879339 197.620406 
L 631.259504 212.705339 
L 632.052893 215.657281 
L 632.846281 219.393222 
L 633.639669 224.036822 
L 635.226446 235.265948 
L 638.4 249.101708 
L 639.986777 257.126375 
L 640.780165 258.893454 
L 641.573554 261.439488 
L 643.160331 267.819654 
L 643.953719 269.035856 
L 644.747107 269.32524 
L 645.540496 270.210345 
L 646.333884 273.39535 
L 647.920661 280.549563 
L 649.507438 284.847569 
L 651.094215 287.270214 
L 651.887603 288.863314 
L 652.680992 290.730322 
L 653.47438 290.875066 
L 654.267769 290.660536 
L 655.061157 290.692986 
L 655.854545 291.221892 
L 656.647934 289.630665 
L 657.441322 287.518767 
L 658.234711 285.968253 
L 659.821488 287.058858 
L 660.614876 286.787355 
L 661.408264 285.426038 
L 662.201653 285.98552 
L 662.995041 285.729599 
L 663.78843 284.049111 
L 664.581818 280.79409 
L 665.375207 278.069261 
L 666.168595 275.949527 
L 666.961983 275.228523 
L 667.755372 273.073739 
L 668.54876 269.784926 
L 669.342149 265.335297 
L 670.928926 258.340487 
L 671.722314 255.692868 
L 673.309091 249.898797 
L 674.895868 244.836816 
L 675.689256 240.951625 
L 678.069421 227.392251 
L 679.656198 220.168181 
L 680.449587 215.722348 
L 681.242975 212.076878 
L 683.62314 197.326679 
L 686.003306 184.020033 
L 687.590083 174.002944 
L 688.383471 169.27603 
L 689.970248 161.142424 
L 692.350413 146.638727 
L 695.523967 129.858274 
L 696.317355 124.465896 
L 700.284298 102.784006 
L 701.077686 99.492452 
L 702.664463 91.845683 
L 703.457851 86.853698 
L 704.25124 83.035602 
L 705.044628 81.249048 
L 705.838017 80.644736 
L 708.218182 73.816271 
L 709.01157 71.123368 
L 709.804959 69.134845 
L 710.598347 67.837309 
L 711.391736 65.847437 
L 712.185124 63.042777 
L 712.978512 59.497581 
L 713.771901 58.095084 
L 714.565289 58.01433 
L 715.358678 57.789768 
L 716.152066 56.056285 
L 716.945455 54.734346 
L 717.738843 54.648727 
L 718.532231 55.770152 
L 719.32562 56.499719 
L 720.119008 58.070897 
L 720.912397 58.905146 
L 721.705785 59.16724 
L 722.499174 58.805231 
L 723.292562 59.215649 
L 724.08595 60.031506 
L 724.879339 61.141963 
L 725.672727 60.468739 
L 726.466116 61.692931 
L 727.259504 64.260551 
L 728.052893 67.541773 
L 728.846281 69.036321 
L 729.639669 70.033889 
L 730.433058 71.915583 
L 732.019835 79.943249 
L 732.813223 83.900463 
L 733.606612 86.755958 
L 736.780165 100.006818 
L 737.573554 102.469008 
L 738.366942 105.427431 
L 740.747107 118.614174 
L 742.333884 126.295207 
L 744.71405 141.849392 
L 745.507438 146.729946 
L 746.300826 150.794895 
L 748.680992 165.913168 
L 749.47438 169.903206 
L 750.267769 174.614119 
L 751.854545 182.227663 
L 752.647934 186.113965 
L 755.821488 205.358363 
L 757.408264 214.698772 
L 758.201653 218.719847 
L 759.78843 224.549636 
L 762.168595 239.877078 
L 762.961983 243.156496 
L 763.755372 247.100673 
L 764.54876 250.320476 
L 765.342149 254.026375 
L 766.135537 256.963714 
L 768.515702 267.394479 
L 769.309091 271.297084 
L 770.102479 273.62031 
L 770.895868 273.262768 
L 771.689256 274.159135 
L 772.482645 277.203219 
L 773.276033 280.996611 
L 774.069421 283.30306 
L 775.656198 285.846018 
L 776.449587 289.442838 
L 777.242975 291.585046 
L 778.036364 291.976771 
L 778.829752 291.606612 
L 779.62314 292.800724 
L 780.416529 294.422848 
L 781.209917 295.488 
L 782.003306 295.216434 
L 782.796694 293.914669 
L 783.590083 290.785064 
L 784.383471 288.823441 
L 785.17686 288.086058 
L 785.970248 288.561235 
L 786.763636 287.460628 
L 788.350413 283.431992 
L 789.143802 283.514864 
L 789.93719 282.695484 
L 790.730579 280.841996 
L 791.523967 277.668742 
L 795.490909 266.554232 
L 797.077686 259.420822 
L 797.871074 254.897296 
L 798.664463 251.67634 
L 800.25124 246.067705 
L 802.631405 234.736588 
L 803.424793 231.33597 
L 805.01157 222.1967 
L 805.804959 217.299419 
L 807.391736 209.569292 
L 808.185124 206.069363 
L 808.978512 200.422599 
L 812.152066 181.579573 
L 812.945455 177.096897 
L 814.532231 166.500575 
L 815.32562 161.497201 
L 816.912397 152.55538 
L 817.705785 147.740949 
L 819.292562 138.992157 
L 820.879339 130.356345 
L 822.466116 122.344935 
L 824.052893 112.443471 
L 824.846281 108.469725 
L 826.433058 101.471615 
L 827.226446 96.593456 
L 828.019835 93.058746 
L 829.606612 87.434047 
L 830.4 83.622305 
L 831.986777 77.772534 
L 833.573554 72.6301 
L 834.366942 71.255418 
L 835.160331 70.808104 
L 835.953719 69.826664 
L 836.747107 67.631936 
L 838.333884 62.284549 
L 839.127273 60.356074 
L 839.920661 58.13142 
L 840.71405 57.4364 
L 842.300826 57.467598 
L 843.887603 55.393491 
L 844.680992 54.658094 
L 845.47438 55.193382 
L 846.267769 56.198681 
L 847.061157 58.548276 
L 847.854545 59.979644 
L 848.647934 60.653148 
L 849.441322 60.627094 
L 851.821488 63.02263 
L 852.614876 63.301543 
L 854.201653 68.612594 
L 854.995041 70.844741 
L 855.78843 71.488095 
L 856.581818 72.928516 
L 857.375207 76.111018 
L 858.168595 81.18461 
L 858.961983 84.260954 
L 860.54876 91.724741 
L 861.342149 96.081509 
L 862.135537 99.482393 
L 863.722314 104.361167 
L 864.515702 107.837129 
L 865.309091 111.918731 
L 867.689256 125.650316 
L 869.276033 134.354285 
L 870.069421 137.881452 
L 878.796694 189.221541 
L 879.590083 193.783666 
L 881.17686 204.332745 
L 882.763636 212.698904 
L 883.557025 216.530918 
L 885.143802 222.739286 
L 887.523967 237.078857 
L 888.317355 240.502872 
L 889.110744 243.374536 
L 889.904132 246.824857 
L 890.697521 251.689985 
L 891.490909 255.147164 
L 893.077686 260.737987 
L 893.871074 265.13502 
L 894.664463 268.531249 
L 895.457851 270.74448 
L 896.25124 272.009377 
L 897.044628 274.314659 
L 900.218182 280.450704 
L 901.804959 286.058787 
L 902.598347 288.038656 
L 903.391736 290.32758 
L 904.978512 292.740103 
L 905.771901 293.649842 
L 906.565289 294.089235 
L 907.358678 293.106781 
L 908.152066 292.83302 
L 908.945455 293.690611 
L 909.738843 294.174183 
L 911.32562 286.591188 
L 912.119008 284.056479 
L 912.912397 284.381424 
L 913.705785 284.887688 
L 914.499174 284.630173 
L 915.292562 282.60632 
L 916.08595 281.609528 
L 918.466116 274.675738 
L 919.259504 273.693591 
L 920.052893 271.28787 
L 921.639669 263.221337 
L 922.433058 260.970448 
L 923.226446 257.228471 
L 924.019835 252.798457 
L 924.813223 247.353371 
L 925.606612 243.907993 
L 926.4 242.57275 
L 927.193388 240.639005 
L 928.780165 231.902065 
L 929.573554 227.832427 
L 931.160331 220.698762 
L 932.747107 211.154964 
L 935.127273 198.350877 
L 935.920661 192.593843 
L 936.71405 188.548552 
L 938.300826 178.876167 
L 939.094215 172.908086 
L 939.887603 168.545197 
L 940.680992 165.33154 
L 941.47438 161.028364 
L 943.061157 149.815049 
L 943.854545 145.211355 
L 944.647934 141.447933 
L 945.441322 138.300198 
L 947.028099 128.036928 
L 949.408264 116.778809 
L 950.995041 107.578349 
L 952.581818 102.40961 
L 954.168595 93.887508 
L 954.961983 91.449631 
L 955.755372 88.546909 
L 956.54876 85.040469 
L 957.342149 80.466325 
L 958.135537 77.345116 
L 958.928926 75.634932 
L 959.722314 75.114212 
L 960.515702 73.559364 
L 961.309091 71.696873 
L 962.102479 70.133916 
L 962.895868 68.279365 
L 964.482645 62.069655 
L 965.276033 60.45148 
L 966.069421 59.721472 
L 967.656198 55.4003 
L 968.449587 54.122931 
L 970.036364 54.567274 
L 970.829752 54.568252 
L 971.62314 53.6132 
L 972.416529 53.568 
L 973.209917 54.280497 
L 975.590083 60.861883 
L 976.383471 61.741508 
L 977.17686 63.378914 
L 977.970248 64.205425 
L 978.763636 65.619366 
L 979.557025 66.712284 
L 980.350413 69.32407 
L 981.143802 71.507354 
L 981.93719 74.10978 
L 984.317355 79.569965 
L 985.110744 84.148694 
L 989.871074 106.859715 
L 990.664463 110.047404 
L 991.457851 111.564014 
L 992.25124 116.259648 
L 993.044628 122.42405 
L 993.838017 123.772959 
L 994.631405 128.293824 
L 995.424793 135.208877 
L 996.218182 147.515239 
L 996.218182 147.515239 
" style="fill:none;stroke:#1f77b4;stroke-linecap:square;stroke-width:1.5;"/>
   </g>
   <g id="patch_3">
    <path d="M 144 307.584 
L 144 41.472 
" style="fill:none;stroke:#000000;stroke-linecap:square;stroke-linejoin:miter;stroke-width:0.8;"/>
   </g>
   <g id="patch_4">
    <path d="M 1036.8 307.584 
L 1036.8 41.472 
" style="fill:none;stroke:#000000;stroke-linecap:square;stroke-linejoin:miter;stroke-width:0.8;"/>
   </g>
   <g id="patch_5">
    <path d="M 144 307.584 
L 1036.8 307.584 
" style="fill:none;stroke:#000000;stroke-linecap:square;stroke-linejoin:miter;stroke-width:0.8;"/>
   </g>
   <g id="patch_6">
    <path d="M 144 41.472 
L 1036.8 41.472 
" style="fill:none;stroke:#000000;stroke-linecap:square;stroke-linejoin:miter;stroke-width:0.8;"/>
   </g>
   <g id="text_12">
    <!-- 12th layer's shape: torch.Size([1, 1, 1024]). Uniformly sampling 16 channels -->
    <g transform="translate(360.85125 35.472)scale(0.12 -0.12)">
     <defs>
      <path d="M 18.3125 70.21875 
L 18.3125 54.6875 
L 36.8125 54.6875 
L 36.8125 47.703125 
L 18.3125 47.703125 
L 18.3125 18.015625 
Q 18.3125 11.328125 20.140625 9.421875 
Q 21.96875 7.515625 27.59375 7.515625 
L 36.8125 7.515625 
L 36.8125 0 
L 27.59375 0 
Q 17.1875 0 13.234375 3.875 
Q 9.28125 7.765625 9.28125 18.015625 
L 9.28125 47.703125 
L 2.6875 47.703125 
L 2.6875 54.6875 
L 9.28125 54.6875 
L 9.28125 70.21875 
z
" id="DejaVuSans-116"/>
      <path d="M 54.890625 33.015625 
L 54.890625 0 
L 45.90625 0 
L 45.90625 32.71875 
Q 45.90625 40.484375 42.875 44.328125 
Q 39.84375 48.1875 33.796875 48.1875 
Q 26.515625 48.1875 22.3125 43.546875 
Q 18.109375 38.921875 18.109375 30.90625 
L 18.109375 0 
L 9.078125 0 
L 9.078125 75.984375 
L 18.109375 75.984375 
L 18.109375 46.1875 
Q 21.34375 51.125 25.703125 53.5625 
Q 30.078125 56 35.796875 56 
Q 45.21875 56 50.046875 50.171875 
Q 54.890625 44.34375 54.890625 33.015625 
z
" id="DejaVuSans-104"/>
      <path id="DejaVuSans-32"/>
      <path d="M 9.421875 75.984375 
L 18.40625 75.984375 
L 18.40625 0 
L 9.421875 0 
z
" id="DejaVuSans-108"/>
      <path d="M 34.28125 27.484375 
Q 23.390625 27.484375 19.1875 25 
Q 14.984375 22.515625 14.984375 16.5 
Q 14.984375 11.71875 18.140625 8.90625 
Q 21.296875 6.109375 26.703125 6.109375 
Q 34.1875 6.109375 38.703125 11.40625 
Q 43.21875 16.703125 43.21875 25.484375 
L 43.21875 27.484375 
z
M 52.203125 31.203125 
L 52.203125 0 
L 43.21875 0 
L 43.21875 8.296875 
Q 40.140625 3.328125 35.546875 0.953125 
Q 30.953125 -1.421875 24.3125 -1.421875 
Q 15.921875 -1.421875 10.953125 3.296875 
Q 6 8.015625 6 15.921875 
Q 6 25.140625 12.171875 29.828125 
Q 18.359375 34.515625 30.609375 34.515625 
L 43.21875 34.515625 
L 43.21875 35.40625 
Q 43.21875 41.609375 39.140625 45 
Q 35.0625 48.390625 27.6875 48.390625 
Q 23 48.390625 18.546875 47.265625 
Q 14.109375 46.140625 10.015625 43.890625 
L 10.015625 52.203125 
Q 14.9375 54.109375 19.578125 55.046875 
Q 24.21875 56 28.609375 56 
Q 40.484375 56 46.34375 49.84375 
Q 52.203125 43.703125 52.203125 31.203125 
z
" id="DejaVuSans-97"/>
      <path d="M 32.171875 -5.078125 
Q 28.375 -14.84375 24.75 -17.8125 
Q 21.140625 -20.796875 15.09375 -20.796875 
L 7.90625 -20.796875 
L 7.90625 -13.28125 
L 13.1875 -13.28125 
Q 16.890625 -13.28125 18.9375 -11.515625 
Q 21 -9.765625 23.484375 -3.21875 
L 25.09375 0.875 
L 2.984375 54.6875 
L 12.5 54.6875 
L 29.59375 11.921875 
L 46.6875 54.6875 
L 56.203125 54.6875 
z
" id="DejaVuSans-121"/>
      <path d="M 56.203125 29.59375 
L 56.203125 25.203125 
L 14.890625 25.203125 
Q 15.484375 15.921875 20.484375 11.0625 
Q 25.484375 6.203125 34.421875 6.203125 
Q 39.59375 6.203125 44.453125 7.46875 
Q 49.3125 8.734375 54.109375 11.28125 
L 54.109375 2.78125 
Q 49.265625 0.734375 44.1875 -0.34375 
Q 39.109375 -1.421875 33.890625 -1.421875 
Q 20.796875 -1.421875 13.15625 6.1875 
Q 5.515625 13.8125 5.515625 26.8125 
Q 5.515625 40.234375 12.765625 48.109375 
Q 20.015625 56 32.328125 56 
Q 43.359375 56 49.78125 48.890625 
Q 56.203125 41.796875 56.203125 29.59375 
z
M 47.21875 32.234375 
Q 47.125 39.59375 43.09375 43.984375 
Q 39.0625 48.390625 32.421875 48.390625 
Q 24.90625 48.390625 20.390625 44.140625 
Q 15.875 39.890625 15.1875 32.171875 
z
" id="DejaVuSans-101"/>
      <path d="M 41.109375 46.296875 
Q 39.59375 47.171875 37.8125 47.578125 
Q 36.03125 48 33.890625 48 
Q 26.265625 48 22.1875 43.046875 
Q 18.109375 38.09375 18.109375 28.8125 
L 18.109375 0 
L 9.078125 0 
L 9.078125 54.6875 
L 18.109375 54.6875 
L 18.109375 46.1875 
Q 20.953125 51.171875 25.484375 53.578125 
Q 30.03125 56 36.53125 56 
Q 37.453125 56 38.578125 55.875 
Q 39.703125 55.765625 41.0625 55.515625 
z
" id="DejaVuSans-114"/>
      <path d="M 17.921875 72.90625 
L 17.921875 45.796875 
L 9.625 45.796875 
L 9.625 72.90625 
z
" id="DejaVuSans-39"/>
      <path d="M 44.28125 53.078125 
L 44.28125 44.578125 
Q 40.484375 46.53125 36.375 47.5 
Q 32.28125 48.484375 27.875 48.484375 
Q 21.1875 48.484375 17.84375 46.4375 
Q 14.5 44.390625 14.5 40.28125 
Q 14.5 37.15625 16.890625 35.375 
Q 19.28125 33.59375 26.515625 31.984375 
L 29.59375 31.296875 
Q 39.15625 29.25 43.1875 25.515625 
Q 47.21875 21.78125 47.21875 15.09375 
Q 47.21875 7.46875 41.1875 3.015625 
Q 35.15625 -1.421875 24.609375 -1.421875 
Q 20.21875 -1.421875 15.453125 -0.5625 
Q 10.6875 0.296875 5.421875 2 
L 5.421875 11.28125 
Q 10.40625 8.6875 15.234375 7.390625 
Q 20.0625 6.109375 24.8125 6.109375 
Q 31.15625 6.109375 34.5625 8.28125 
Q 37.984375 10.453125 37.984375 14.40625 
Q 37.984375 18.0625 35.515625 20.015625 
Q 33.0625 21.96875 24.703125 23.78125 
L 21.578125 24.515625 
Q 13.234375 26.265625 9.515625 29.90625 
Q 5.8125 33.546875 5.8125 39.890625 
Q 5.8125 47.609375 11.28125 51.796875 
Q 16.75 56 26.8125 56 
Q 31.78125 56 36.171875 55.265625 
Q 40.578125 54.546875 44.28125 53.078125 
z
" id="DejaVuSans-115"/>
      <path d="M 18.109375 8.203125 
L 18.109375 -20.796875 
L 9.078125 -20.796875 
L 9.078125 54.6875 
L 18.109375 54.6875 
L 18.109375 46.390625 
Q 20.953125 51.265625 25.265625 53.625 
Q 29.59375 56 35.59375 56 
Q 45.5625 56 51.78125 48.09375 
Q 58.015625 40.1875 58.015625 27.296875 
Q 58.015625 14.40625 51.78125 6.484375 
Q 45.5625 -1.421875 35.59375 -1.421875 
Q 29.59375 -1.421875 25.265625 0.953125 
Q 20.953125 3.328125 18.109375 8.203125 
z
M 48.6875 27.296875 
Q 48.6875 37.203125 44.609375 42.84375 
Q 40.53125 48.484375 33.40625 48.484375 
Q 26.265625 48.484375 22.1875 42.84375 
Q 18.109375 37.203125 18.109375 27.296875 
Q 18.109375 17.390625 22.1875 11.75 
Q 26.265625 6.109375 33.40625 6.109375 
Q 40.53125 6.109375 44.609375 11.75 
Q 48.6875 17.390625 48.6875 27.296875 
z
" id="DejaVuSans-112"/>
      <path d="M 11.71875 12.40625 
L 22.015625 12.40625 
L 22.015625 0 
L 11.71875 0 
z
M 11.71875 51.703125 
L 22.015625 51.703125 
L 22.015625 39.3125 
L 11.71875 39.3125 
z
" id="DejaVuSans-58"/>
      <path d="M 30.609375 48.390625 
Q 23.390625 48.390625 19.1875 42.75 
Q 14.984375 37.109375 14.984375 27.296875 
Q 14.984375 17.484375 19.15625 11.84375 
Q 23.34375 6.203125 30.609375 6.203125 
Q 37.796875 6.203125 41.984375 11.859375 
Q 46.1875 17.53125 46.1875 27.296875 
Q 46.1875 37.015625 41.984375 42.703125 
Q 37.796875 48.390625 30.609375 48.390625 
z
M 30.609375 56 
Q 42.328125 56 49.015625 48.375 
Q 55.71875 40.765625 55.71875 27.296875 
Q 55.71875 13.875 49.015625 6.21875 
Q 42.328125 -1.421875 30.609375 -1.421875 
Q 18.84375 -1.421875 12.171875 6.21875 
Q 5.515625 13.875 5.515625 27.296875 
Q 5.515625 40.765625 12.171875 48.375 
Q 18.84375 56 30.609375 56 
z
" id="DejaVuSans-111"/>
      <path d="M 48.78125 52.59375 
L 48.78125 44.1875 
Q 44.96875 46.296875 41.140625 47.34375 
Q 37.3125 48.390625 33.40625 48.390625 
Q 24.65625 48.390625 19.8125 42.84375 
Q 14.984375 37.3125 14.984375 27.296875 
Q 14.984375 17.28125 19.8125 11.734375 
Q 24.65625 6.203125 33.40625 6.203125 
Q 37.3125 6.203125 41.140625 7.25 
Q 44.96875 8.296875 48.78125 10.40625 
L 48.78125 2.09375 
Q 45.015625 0.34375 40.984375 -0.53125 
Q 36.96875 -1.421875 32.421875 -1.421875 
Q 20.0625 -1.421875 12.78125 6.34375 
Q 5.515625 14.109375 5.515625 27.296875 
Q 5.515625 40.671875 12.859375 48.328125 
Q 20.21875 56 33.015625 56 
Q 37.15625 56 41.109375 55.140625 
Q 45.0625 54.296875 48.78125 52.59375 
z
" id="DejaVuSans-99"/>
      <path d="M 53.515625 70.515625 
L 53.515625 60.890625 
Q 47.90625 63.578125 42.921875 64.890625 
Q 37.9375 66.21875 33.296875 66.21875 
Q 25.25 66.21875 20.875 63.09375 
Q 16.5 59.96875 16.5 54.203125 
Q 16.5 49.359375 19.40625 46.890625 
Q 22.3125 44.4375 30.421875 42.921875 
L 36.375 41.703125 
Q 47.40625 39.59375 52.65625 34.296875 
Q 57.90625 29 57.90625 20.125 
Q 57.90625 9.515625 50.796875 4.046875 
Q 43.703125 -1.421875 29.984375 -1.421875 
Q 24.8125 -1.421875 18.96875 -0.25 
Q 13.140625 0.921875 6.890625 3.21875 
L 6.890625 13.375 
Q 12.890625 10.015625 18.65625 8.296875 
Q 24.421875 6.59375 29.984375 6.59375 
Q 38.421875 6.59375 43.015625 9.90625 
Q 47.609375 13.234375 47.609375 19.390625 
Q 47.609375 24.75 44.3125 27.78125 
Q 41.015625 30.8125 33.5 32.328125 
L 27.484375 33.5 
Q 16.453125 35.6875 11.515625 40.375 
Q 6.59375 45.0625 6.59375 53.421875 
Q 6.59375 63.09375 13.40625 68.65625 
Q 20.21875 74.21875 32.171875 74.21875 
Q 37.3125 74.21875 42.625 73.28125 
Q 47.953125 72.359375 53.515625 70.515625 
z
" id="DejaVuSans-83"/>
      <path d="M 9.421875 54.6875 
L 18.40625 54.6875 
L 18.40625 0 
L 9.421875 0 
z
M 9.421875 75.984375 
L 18.40625 75.984375 
L 18.40625 64.59375 
L 9.421875 64.59375 
z
" id="DejaVuSans-105"/>
      <path d="M 5.515625 54.6875 
L 48.1875 54.6875 
L 48.1875 46.484375 
L 14.40625 7.171875 
L 48.1875 7.171875 
L 48.1875 0 
L 4.296875 0 
L 4.296875 8.203125 
L 38.09375 47.515625 
L 5.515625 47.515625 
z
" id="DejaVuSans-122"/>
      <path d="M 31 75.875 
Q 24.46875 64.65625 21.28125 53.65625 
Q 18.109375 42.671875 18.109375 31.390625 
Q 18.109375 20.125 21.3125 9.0625 
Q 24.515625 -2 31 -13.1875 
L 23.1875 -13.1875 
Q 15.875 -1.703125 12.234375 9.375 
Q 8.59375 20.453125 8.59375 31.390625 
Q 8.59375 42.28125 12.203125 53.3125 
Q 15.828125 64.359375 23.1875 75.875 
z
" id="DejaVuSans-40"/>
      <path d="M 8.59375 75.984375 
L 29.296875 75.984375 
L 29.296875 69 
L 17.578125 69 
L 17.578125 -6.203125 
L 29.296875 -6.203125 
L 29.296875 -13.1875 
L 8.59375 -13.1875 
z
" id="DejaVuSans-91"/>
      <path d="M 11.71875 12.40625 
L 22.015625 12.40625 
L 22.015625 4 
L 14.015625 -11.625 
L 7.71875 -11.625 
L 11.71875 4 
z
" id="DejaVuSans-44"/>
      <path d="M 30.421875 75.984375 
L 30.421875 -13.1875 
L 9.71875 -13.1875 
L 9.71875 -6.203125 
L 21.390625 -6.203125 
L 21.390625 69 
L 9.71875 69 
L 9.71875 75.984375 
z
" id="DejaVuSans-93"/>
      <path d="M 8.015625 75.875 
L 15.828125 75.875 
Q 23.140625 64.359375 26.78125 53.3125 
Q 30.421875 42.28125 30.421875 31.390625 
Q 30.421875 20.453125 26.78125 9.375 
Q 23.140625 -1.703125 15.828125 -13.1875 
L 8.015625 -13.1875 
Q 14.5 -2 17.703125 9.0625 
Q 20.90625 20.125 20.90625 31.390625 
Q 20.90625 42.671875 17.703125 53.65625 
Q 14.5 64.65625 8.015625 75.875 
z
" id="DejaVuSans-41"/>
      <path d="M 8.6875 72.90625 
L 18.609375 72.90625 
L 18.609375 28.609375 
Q 18.609375 16.890625 22.84375 11.734375 
Q 27.09375 6.59375 36.625 6.59375 
Q 46.09375 6.59375 50.34375 11.734375 
Q 54.59375 16.890625 54.59375 28.609375 
L 54.59375 72.90625 
L 64.5 72.90625 
L 64.5 27.390625 
Q 64.5 13.140625 57.4375 5.859375 
Q 50.390625 -1.421875 36.625 -1.421875 
Q 22.796875 -1.421875 15.734375 5.859375 
Q 8.6875 13.140625 8.6875 27.390625 
z
" id="DejaVuSans-85"/>
      <path d="M 54.890625 33.015625 
L 54.890625 0 
L 45.90625 0 
L 45.90625 32.71875 
Q 45.90625 40.484375 42.875 44.328125 
Q 39.84375 48.1875 33.796875 48.1875 
Q 26.515625 48.1875 22.3125 43.546875 
Q 18.109375 38.921875 18.109375 30.90625 
L 18.109375 0 
L 9.078125 0 
L 9.078125 54.6875 
L 18.109375 54.6875 
L 18.109375 46.1875 
Q 21.34375 51.125 25.703125 53.5625 
Q 30.078125 56 35.796875 56 
Q 45.21875 56 50.046875 50.171875 
Q 54.890625 44.34375 54.890625 33.015625 
z
" id="DejaVuSans-110"/>
      <path d="M 37.109375 75.984375 
L 37.109375 68.5 
L 28.515625 68.5 
Q 23.6875 68.5 21.796875 66.546875 
Q 19.921875 64.59375 19.921875 59.515625 
L 19.921875 54.6875 
L 34.71875 54.6875 
L 34.71875 47.703125 
L 19.921875 47.703125 
L 19.921875 0 
L 10.890625 0 
L 10.890625 47.703125 
L 2.296875 47.703125 
L 2.296875 54.6875 
L 10.890625 54.6875 
L 10.890625 58.5 
Q 10.890625 67.625 15.140625 71.796875 
Q 19.390625 75.984375 28.609375 75.984375 
z
" id="DejaVuSans-102"/>
      <path d="M 52 44.1875 
Q 55.375 50.25 60.0625 53.125 
Q 64.75 56 71.09375 56 
Q 79.640625 56 84.28125 50.015625 
Q 88.921875 44.046875 88.921875 33.015625 
L 88.921875 0 
L 79.890625 0 
L 79.890625 32.71875 
Q 79.890625 40.578125 77.09375 44.375 
Q 74.3125 48.1875 68.609375 48.1875 
Q 61.625 48.1875 57.5625 43.546875 
Q 53.515625 38.921875 53.515625 30.90625 
L 53.515625 0 
L 44.484375 0 
L 44.484375 32.71875 
Q 44.484375 40.625 41.703125 44.40625 
Q 38.921875 48.1875 33.109375 48.1875 
Q 26.21875 48.1875 22.15625 43.53125 
Q 18.109375 38.875 18.109375 30.90625 
L 18.109375 0 
L 9.078125 0 
L 9.078125 54.6875 
L 18.109375 54.6875 
L 18.109375 46.1875 
Q 21.1875 51.21875 25.484375 53.609375 
Q 29.78125 56 35.6875 56 
Q 41.65625 56 45.828125 52.96875 
Q 50 49.953125 52 44.1875 
z
" id="DejaVuSans-109"/>
      <path d="M 45.40625 27.984375 
Q 45.40625 37.75 41.375 43.109375 
Q 37.359375 48.484375 30.078125 48.484375 
Q 22.859375 48.484375 18.828125 43.109375 
Q 14.796875 37.75 14.796875 27.984375 
Q 14.796875 18.265625 18.828125 12.890625 
Q 22.859375 7.515625 30.078125 7.515625 
Q 37.359375 7.515625 41.375 12.890625 
Q 45.40625 18.265625 45.40625 27.984375 
z
M 54.390625 6.78125 
Q 54.390625 -7.171875 48.1875 -13.984375 
Q 42 -20.796875 29.203125 -20.796875 
Q 24.46875 -20.796875 20.265625 -20.09375 
Q 16.0625 -19.390625 12.109375 -17.921875 
L 12.109375 -9.1875 
Q 16.0625 -11.328125 19.921875 -12.34375 
Q 23.78125 -13.375 27.78125 -13.375 
Q 36.625 -13.375 41.015625 -8.765625 
Q 45.40625 -4.15625 45.40625 5.171875 
L 45.40625 9.625 
Q 42.625 4.78125 38.28125 2.390625 
Q 33.9375 0 27.875 0 
Q 17.828125 0 11.671875 7.65625 
Q 5.515625 15.328125 5.515625 27.984375 
Q 5.515625 40.671875 11.671875 48.328125 
Q 17.828125 56 27.875 56 
Q 33.9375 56 38.28125 53.609375 
Q 42.625 51.21875 45.40625 46.390625 
L 45.40625 54.6875 
L 54.390625 54.6875 
z
" id="DejaVuSans-103"/>
     </defs>
     <use xlink:href="#DejaVuSans-49"/>
     <use x="63.623047" xlink:href="#DejaVuSans-50"/>
     <use x="127.246094" xlink:href="#DejaVuSans-116"/>
     <use x="166.455078" xlink:href="#DejaVuSans-104"/>
     <use x="229.833984" xlink:href="#DejaVuSans-32"/>
     <use x="261.621094" xlink:href="#DejaVuSans-108"/>
     <use x="289.404297" xlink:href="#DejaVuSans-97"/>
     <use x="350.683594" xlink:href="#DejaVuSans-121"/>
     <use x="409.863281" xlink:href="#DejaVuSans-101"/>
     <use x="471.386719" xlink:href="#DejaVuSans-114"/>
     <use x="512.5" xlink:href="#DejaVuSans-39"/>
     <use x="539.990234" xlink:href="#DejaVuSans-115"/>
     <use x="592.089844" xlink:href="#DejaVuSans-32"/>
     <use x="623.876953" xlink:href="#DejaVuSans-115"/>
     <use x="675.976562" xlink:href="#DejaVuSans-104"/>
     <use x="739.355469" xlink:href="#DejaVuSans-97"/>
     <use x="800.634766" xlink:href="#DejaVuSans-112"/>
     <use x="864.111328" xlink:href="#DejaVuSans-101"/>
     <use x="925.634766" xlink:href="#DejaVuSans-58"/>
     <use x="959.326172" xlink:href="#DejaVuSans-32"/>
     <use x="991.113281" xlink:href="#DejaVuSans-116"/>
     <use x="1030.322266" xlink:href="#DejaVuSans-111"/>
     <use x="1091.503906" xlink:href="#DejaVuSans-114"/>
     <use x="1130.367188" xlink:href="#DejaVuSans-99"/>
     <use x="1185.347656" xlink:href="#DejaVuSans-104"/>
     <use x="1248.726562" xlink:href="#DejaVuSans-46"/>
     <use x="1280.513672" xlink:href="#DejaVuSans-83"/>
     <use x="1343.990234" xlink:href="#DejaVuSans-105"/>
     <use x="1371.773438" xlink:href="#DejaVuSans-122"/>
     <use x="1424.263672" xlink:href="#DejaVuSans-101"/>
     <use x="1485.787109" xlink:href="#DejaVuSans-40"/>
     <use x="1524.800781" xlink:href="#DejaVuSans-91"/>
     <use x="1563.814453" xlink:href="#DejaVuSans-49"/>
     <use x="1627.4375" xlink:href="#DejaVuSans-44"/>
     <use x="1659.224609" xlink:href="#DejaVuSans-32"/>
     <use x="1691.011719" xlink:href="#DejaVuSans-49"/>
     <use x="1754.634766" xlink:href="#DejaVuSans-44"/>
     <use x="1786.421875" xlink:href="#DejaVuSans-32"/>
     <use x="1818.208984" xlink:href="#DejaVuSans-49"/>
     <use x="1881.832031" xlink:href="#DejaVuSans-48"/>
     <use x="1945.455078" xlink:href="#DejaVuSans-50"/>
     <use x="2009.078125" xlink:href="#DejaVuSans-52"/>
     <use x="2072.701172" xlink:href="#DejaVuSans-93"/>
     <use x="2111.714844" xlink:href="#DejaVuSans-41"/>
     <use x="2150.728516" xlink:href="#DejaVuSans-46"/>
     <use x="2182.515625" xlink:href="#DejaVuSans-32"/>
     <use x="2214.302734" xlink:href="#DejaVuSans-85"/>
     <use x="2287.496094" xlink:href="#DejaVuSans-110"/>
     <use x="2350.875" xlink:href="#DejaVuSans-105"/>
     <use x="2378.658203" xlink:href="#DejaVuSans-102"/>
     <use x="2413.863281" xlink:href="#DejaVuSans-111"/>
     <use x="2475.044922" xlink:href="#DejaVuSans-114"/>
     <use x="2514.408203" xlink:href="#DejaVuSans-109"/>
     <use x="2611.820312" xlink:href="#DejaVuSans-108"/>
     <use x="2639.603516" xlink:href="#DejaVuSans-121"/>
     <use x="2698.783203" xlink:href="#DejaVuSans-32"/>
     <use x="2730.570312" xlink:href="#DejaVuSans-115"/>
     <use x="2782.669922" xlink:href="#DejaVuSans-97"/>
     <use x="2843.949219" xlink:href="#DejaVuSans-109"/>
     <use x="2941.361328" xlink:href="#DejaVuSans-112"/>
     <use x="3004.837891" xlink:href="#DejaVuSans-108"/>
     <use x="3032.621094" xlink:href="#DejaVuSans-105"/>
     <use x="3060.404297" xlink:href="#DejaVuSans-110"/>
     <use x="3123.783203" xlink:href="#DejaVuSans-103"/>
     <use x="3187.259766" xlink:href="#DejaVuSans-32"/>
     <use x="3219.046875" xlink:href="#DejaVuSans-49"/>
     <use x="3282.669922" xlink:href="#DejaVuSans-54"/>
     <use x="3346.292969" xlink:href="#DejaVuSans-32"/>
     <use x="3378.080078" xlink:href="#DejaVuSans-99"/>
     <use x="3433.060547" xlink:href="#DejaVuSans-104"/>
     <use x="3496.439453" xlink:href="#DejaVuSans-97"/>
     <use x="3557.71875" xlink:href="#DejaVuSans-110"/>
     <use x="3621.097656" xlink:href="#DejaVuSans-110"/>
     <use x="3684.476562" xlink:href="#DejaVuSans-101"/>
     <use x="3746" xlink:href="#DejaVuSans-108"/>
     <use x="3773.783203" xlink:href="#DejaVuSans-115"/>
    </g>
   </g>
  </g>
 </g>
 <defs>
  <clipPath id="p6df362ba0d">
   <rect height="266.112" width="892.8" x="144" y="41.472"/>
  </clipPath>
 </defs>
</svg>
