<?xml version="1.0" encoding="utf-8" standalone="no"?>
<!DOCTYPE svg PUBLIC "-//W3C//DTD SVG 1.1//EN"
  "http://www.w3.org/Graphics/SVG/1.1/DTD/svg11.dtd">
<!-- Created with matplotlib (https://matplotlib.org/) -->
<svg height="345.6pt" version="1.1" viewBox="0 0 1152 345.6" width="1152pt" xmlns="http://www.w3.org/2000/svg" xmlns:xlink="http://www.w3.org/1999/xlink">
 <metadata>
  <rdf:RDF xmlns:cc="http://creativecommons.org/ns#" xmlns:dc="http://purl.org/dc/elements/1.1/" xmlns:rdf="http://www.w3.org/1999/02/22-rdf-syntax-ns#">
   <cc:Work>
    <dc:type rdf:resource="http://purl.org/dc/dcmitype/StillImage"/>
    <dc:date>2021-12-24T07:19:05.970139</dc:date>
    <dc:format>image/svg+xml</dc:format>
    <dc:creator>
     <cc:Agent>
      <dc:title>Matplotlib v3.3.3, https://matplotlib.org/</dc:title>
     </cc:Agent>
    </dc:creator>
   </cc:Work>
  </rdf:RDF>
 </metadata>
 <defs>
  <style type="text/css">*{stroke-linecap:butt;stroke-linejoin:round;}</style>
 </defs>
 <g id="figure_1">
  <g id="patch_1">
   <path d="M 0 345.6 
L 1152 345.6 
L 1152 0 
L 0 0 
z
" style="fill:#ffffff;"/>
  </g>
  <g id="axes_1">
   <g id="patch_2">
    <path d="M 144 307.584 
L 1036.8 307.584 
L 1036.8 41.472 
L 144 41.472 
z
" style="fill:#ffffff;"/>
   </g>
   <g id="matplotlib.axis_1">
    <g id="xtick_1">
     <g id="line2d_1">
      <defs>
       <path d="M 0 0 
L 0 3.5 
" id="m4770ba4dbe" style="stroke:#000000;stroke-width:0.8;"/>
      </defs>
      <g>
       <use style="stroke:#000000;stroke-width:0.8;" x="184.581818" xlink:href="#m4770ba4dbe" y="307.584"/>
      </g>
     </g>
     <g id="text_1">
      <!-- 0 -->
      <g transform="translate(181.400568 322.182437)scale(0.1 -0.1)">
       <defs>
        <path d="M 31.78125 66.40625 
Q 24.171875 66.40625 20.328125 58.90625 
Q 16.5 51.421875 16.5 36.375 
Q 16.5 21.390625 20.328125 13.890625 
Q 24.171875 6.390625 31.78125 6.390625 
Q 39.453125 6.390625 43.28125 13.890625 
Q 47.125 21.390625 47.125 36.375 
Q 47.125 51.421875 43.28125 58.90625 
Q 39.453125 66.40625 31.78125 66.40625 
z
M 31.78125 74.21875 
Q 44.046875 74.21875 50.515625 64.515625 
Q 56.984375 54.828125 56.984375 36.375 
Q 56.984375 17.96875 50.515625 8.265625 
Q 44.046875 -1.421875 31.78125 -1.421875 
Q 19.53125 -1.421875 13.0625 8.265625 
Q 6.59375 17.96875 6.59375 36.375 
Q 6.59375 54.828125 13.0625 64.515625 
Q 19.53125 74.21875 31.78125 74.21875 
z
" id="DejaVuSans-48"/>
       </defs>
       <use xlink:href="#DejaVuSans-48"/>
      </g>
     </g>
    </g>
    <g id="xtick_2">
     <g id="line2d_2">
      <g>
       <use style="stroke:#000000;stroke-width:0.8;" x="343.726203" xlink:href="#m4770ba4dbe" y="307.584"/>
      </g>
     </g>
     <g id="text_2">
      <!-- 50 -->
      <g transform="translate(337.363703 322.182437)scale(0.1 -0.1)">
       <defs>
        <path d="M 10.796875 72.90625 
L 49.515625 72.90625 
L 49.515625 64.59375 
L 19.828125 64.59375 
L 19.828125 46.734375 
Q 21.96875 47.46875 24.109375 47.828125 
Q 26.265625 48.1875 28.421875 48.1875 
Q 40.625 48.1875 47.75 41.5 
Q 54.890625 34.8125 54.890625 23.390625 
Q 54.890625 11.625 47.5625 5.09375 
Q 40.234375 -1.421875 26.90625 -1.421875 
Q 22.3125 -1.421875 17.546875 -0.640625 
Q 12.796875 0.140625 7.71875 1.703125 
L 7.71875 11.625 
Q 12.109375 9.234375 16.796875 8.0625 
Q 21.484375 6.890625 26.703125 6.890625 
Q 35.15625 6.890625 40.078125 11.328125 
Q 45.015625 15.765625 45.015625 23.390625 
Q 45.015625 31 40.078125 35.4375 
Q 35.15625 39.890625 26.703125 39.890625 
Q 22.75 39.890625 18.8125 39.015625 
Q 14.890625 38.140625 10.796875 36.28125 
z
" id="DejaVuSans-53"/>
       </defs>
       <use xlink:href="#DejaVuSans-53"/>
       <use x="63.623047" xlink:href="#DejaVuSans-48"/>
      </g>
     </g>
    </g>
    <g id="xtick_3">
     <g id="line2d_3">
      <g>
       <use style="stroke:#000000;stroke-width:0.8;" x="502.870588" xlink:href="#m4770ba4dbe" y="307.584"/>
      </g>
     </g>
     <g id="text_3">
      <!-- 100 -->
      <g transform="translate(493.326838 322.182437)scale(0.1 -0.1)">
       <defs>
        <path d="M 12.40625 8.296875 
L 28.515625 8.296875 
L 28.515625 63.921875 
L 10.984375 60.40625 
L 10.984375 69.390625 
L 28.421875 72.90625 
L 38.28125 72.90625 
L 38.28125 8.296875 
L 54.390625 8.296875 
L 54.390625 0 
L 12.40625 0 
z
" id="DejaVuSans-49"/>
       </defs>
       <use xlink:href="#DejaVuSans-49"/>
       <use x="63.623047" xlink:href="#DejaVuSans-48"/>
       <use x="127.246094" xlink:href="#DejaVuSans-48"/>
      </g>
     </g>
    </g>
    <g id="xtick_4">
     <g id="line2d_4">
      <g>
       <use style="stroke:#000000;stroke-width:0.8;" x="662.014973" xlink:href="#m4770ba4dbe" y="307.584"/>
      </g>
     </g>
     <g id="text_4">
      <!-- 150 -->
      <g transform="translate(652.471223 322.182437)scale(0.1 -0.1)">
       <use xlink:href="#DejaVuSans-49"/>
       <use x="63.623047" xlink:href="#DejaVuSans-53"/>
       <use x="127.246094" xlink:href="#DejaVuSans-48"/>
      </g>
     </g>
    </g>
    <g id="xtick_5">
     <g id="line2d_5">
      <g>
       <use style="stroke:#000000;stroke-width:0.8;" x="821.159358" xlink:href="#m4770ba4dbe" y="307.584"/>
      </g>
     </g>
     <g id="text_5">
      <!-- 200 -->
      <g transform="translate(811.615608 322.182437)scale(0.1 -0.1)">
       <defs>
        <path d="M 19.1875 8.296875 
L 53.609375 8.296875 
L 53.609375 0 
L 7.328125 0 
L 7.328125 8.296875 
Q 12.9375 14.109375 22.625 23.890625 
Q 32.328125 33.6875 34.8125 36.53125 
Q 39.546875 41.84375 41.421875 45.53125 
Q 43.3125 49.21875 43.3125 52.78125 
Q 43.3125 58.59375 39.234375 62.25 
Q 35.15625 65.921875 28.609375 65.921875 
Q 23.96875 65.921875 18.8125 64.3125 
Q 13.671875 62.703125 7.8125 59.421875 
L 7.8125 69.390625 
Q 13.765625 71.78125 18.9375 73 
Q 24.125 74.21875 28.421875 74.21875 
Q 39.75 74.21875 46.484375 68.546875 
Q 53.21875 62.890625 53.21875 53.421875 
Q 53.21875 48.921875 51.53125 44.890625 
Q 49.859375 40.875 45.40625 35.40625 
Q 44.1875 33.984375 37.640625 27.21875 
Q 31.109375 20.453125 19.1875 8.296875 
z
" id="DejaVuSans-50"/>
       </defs>
       <use xlink:href="#DejaVuSans-50"/>
       <use x="63.623047" xlink:href="#DejaVuSans-48"/>
       <use x="127.246094" xlink:href="#DejaVuSans-48"/>
      </g>
     </g>
    </g>
    <g id="xtick_6">
     <g id="line2d_6">
      <g>
       <use style="stroke:#000000;stroke-width:0.8;" x="980.303743" xlink:href="#m4770ba4dbe" y="307.584"/>
      </g>
     </g>
     <g id="text_6">
      <!-- 250 -->
      <g transform="translate(970.759993 322.182437)scale(0.1 -0.1)">
       <use xlink:href="#DejaVuSans-50"/>
       <use x="63.623047" xlink:href="#DejaVuSans-53"/>
       <use x="127.246094" xlink:href="#DejaVuSans-48"/>
      </g>
     </g>
    </g>
   </g>
   <g id="matplotlib.axis_2">
    <g id="ytick_1">
     <g id="line2d_7">
      <defs>
       <path d="M 0 0 
L -3.5 0 
" id="md5b567e326" style="stroke:#000000;stroke-width:0.8;"/>
      </defs>
      <g>
       <use style="stroke:#000000;stroke-width:0.8;" x="144" xlink:href="#md5b567e326" y="306.972682"/>
      </g>
     </g>
     <g id="text_7">
      <!-- −0.15 -->
      <g transform="translate(106.354687 310.771901)scale(0.1 -0.1)">
       <defs>
        <path d="M 10.59375 35.5 
L 73.1875 35.5 
L 73.1875 27.203125 
L 10.59375 27.203125 
z
" id="DejaVuSans-8722"/>
        <path d="M 10.6875 12.40625 
L 21 12.40625 
L 21 0 
L 10.6875 0 
z
" id="DejaVuSans-46"/>
       </defs>
       <use xlink:href="#DejaVuSans-8722"/>
       <use x="83.789062" xlink:href="#DejaVuSans-48"/>
       <use x="147.412109" xlink:href="#DejaVuSans-46"/>
       <use x="179.199219" xlink:href="#DejaVuSans-49"/>
       <use x="242.822266" xlink:href="#DejaVuSans-53"/>
      </g>
     </g>
    </g>
    <g id="ytick_2">
     <g id="line2d_8">
      <g>
       <use style="stroke:#000000;stroke-width:0.8;" x="144" xlink:href="#md5b567e326" y="264.440716"/>
      </g>
     </g>
     <g id="text_8">
      <!-- −0.10 -->
      <g transform="translate(106.354687 268.239935)scale(0.1 -0.1)">
       <use xlink:href="#DejaVuSans-8722"/>
       <use x="83.789062" xlink:href="#DejaVuSans-48"/>
       <use x="147.412109" xlink:href="#DejaVuSans-46"/>
       <use x="179.199219" xlink:href="#DejaVuSans-49"/>
       <use x="242.822266" xlink:href="#DejaVuSans-48"/>
      </g>
     </g>
    </g>
    <g id="ytick_3">
     <g id="line2d_9">
      <g>
       <use style="stroke:#000000;stroke-width:0.8;" x="144" xlink:href="#md5b567e326" y="221.90875"/>
      </g>
     </g>
     <g id="text_9">
      <!-- −0.05 -->
      <g transform="translate(106.354687 225.707968)scale(0.1 -0.1)">
       <use xlink:href="#DejaVuSans-8722"/>
       <use x="83.789062" xlink:href="#DejaVuSans-48"/>
       <use x="147.412109" xlink:href="#DejaVuSans-46"/>
       <use x="179.199219" xlink:href="#DejaVuSans-48"/>
       <use x="242.822266" xlink:href="#DejaVuSans-53"/>
      </g>
     </g>
    </g>
    <g id="ytick_4">
     <g id="line2d_10">
      <g>
       <use style="stroke:#000000;stroke-width:0.8;" x="144" xlink:href="#md5b567e326" y="179.376783"/>
      </g>
     </g>
     <g id="text_10">
      <!-- 0.00 -->
      <g transform="translate(114.734375 183.176002)scale(0.1 -0.1)">
       <use xlink:href="#DejaVuSans-48"/>
       <use x="63.623047" xlink:href="#DejaVuSans-46"/>
       <use x="95.410156" xlink:href="#DejaVuSans-48"/>
       <use x="159.033203" xlink:href="#DejaVuSans-48"/>
      </g>
     </g>
    </g>
    <g id="ytick_5">
     <g id="line2d_11">
      <g>
       <use style="stroke:#000000;stroke-width:0.8;" x="144" xlink:href="#md5b567e326" y="136.844817"/>
      </g>
     </g>
     <g id="text_11">
      <!-- 0.05 -->
      <g transform="translate(114.734375 140.644036)scale(0.1 -0.1)">
       <use xlink:href="#DejaVuSans-48"/>
       <use x="63.623047" xlink:href="#DejaVuSans-46"/>
       <use x="95.410156" xlink:href="#DejaVuSans-48"/>
       <use x="159.033203" xlink:href="#DejaVuSans-53"/>
      </g>
     </g>
    </g>
    <g id="ytick_6">
     <g id="line2d_12">
      <g>
       <use style="stroke:#000000;stroke-width:0.8;" x="144" xlink:href="#md5b567e326" y="94.312851"/>
      </g>
     </g>
     <g id="text_12">
      <!-- 0.10 -->
      <g transform="translate(114.734375 98.112069)scale(0.1 -0.1)">
       <use xlink:href="#DejaVuSans-48"/>
       <use x="63.623047" xlink:href="#DejaVuSans-46"/>
       <use x="95.410156" xlink:href="#DejaVuSans-49"/>
       <use x="159.033203" xlink:href="#DejaVuSans-48"/>
      </g>
     </g>
    </g>
    <g id="ytick_7">
     <g id="line2d_13">
      <g>
       <use style="stroke:#000000;stroke-width:0.8;" x="144" xlink:href="#md5b567e326" y="51.780884"/>
      </g>
     </g>
     <g id="text_13">
      <!-- 0.15 -->
      <g transform="translate(114.734375 55.580103)scale(0.1 -0.1)">
       <use xlink:href="#DejaVuSans-48"/>
       <use x="63.623047" xlink:href="#DejaVuSans-46"/>
       <use x="95.410156" xlink:href="#DejaVuSans-49"/>
       <use x="159.033203" xlink:href="#DejaVuSans-53"/>
      </g>
     </g>
    </g>
   </g>
   <g id="line2d_14">
    <path clip-path="url(#p8ff2390f57)" d="M 184.581818 184.887138 
L 187.764706 179.576667 
L 190.947594 179.123178 
L 197.313369 177.549918 
L 203.679144 176.165026 
L 210.04492 175.086041 
L 216.410695 174.412097 
L 219.593583 174.249534 
L 222.776471 174.212199 
L 225.959358 174.304778 
L 229.142246 174.529282 
L 232.325134 174.882795 
L 238.690909 175.924889 
L 248.239572 177.94751 
L 260.971123 180.653918 
L 267.336898 181.858548 
L 273.702674 182.84981 
L 280.068449 183.535746 
L 286.434225 183.8459 
L 289.617112 183.839797 
L 292.8 183.714731 
L 295.982888 183.462561 
L 299.165775 183.078606 
L 302.348663 182.565411 
L 308.714439 181.216013 
L 327.811765 176.572891 
L 334.17754 175.385645 
L 340.543316 174.575632 
L 343.726203 174.33754 
L 346.909091 174.220764 
L 350.091979 174.231193 
L 353.274866 174.372773 
L 356.457754 174.645845 
L 359.640642 175.04498 
L 366.006417 176.156366 
L 378.737968 178.900843 
L 388.286631 180.888966 
L 394.652406 182.061699 
L 401.018182 183.002576 
L 407.383957 183.623612 
L 413.749733 183.856924 
L 416.93262 183.807729 
L 420.115508 183.636325 
L 423.298396 183.335432 
L 426.481283 182.90272 
L 432.847059 181.67797 
L 442.395722 179.327073 
L 451.944385 177.007508 
L 458.31016 175.722715 
L 464.675936 174.78429 
L 467.858824 174.473483 
L 471.041711 174.279659 
L 474.224599 174.20954 
L 477.407487 174.268296 
L 480.590374 174.458964 
L 483.773262 174.779869 
L 490.139037 175.770073 
L 496.504813 177.070936 
L 512.419251 180.48855 
L 518.785027 181.713277 
L 525.150802 182.737626 
L 531.516578 183.467235 
L 537.882353 183.829245 
L 541.065241 183.852422 
L 544.248128 183.75879 
L 547.431016 183.539959 
L 550.613904 183.190097 
L 553.796791 182.709324 
L 560.162567 181.408531 
L 582.442781 176.094295 
L 588.808556 175.036041 
L 591.991444 174.655729 
L 595.174332 174.38746 
L 598.357219 174.238902 
L 601.540107 174.216059 
L 604.722995 174.323721 
L 607.905882 174.563131 
L 611.08877 174.930811 
L 617.454545 175.994904 
L 627.003209 178.02715 
L 639.734759 180.726444 
L 646.100535 181.921667 
L 652.46631 182.897837 
L 658.832086 183.56411 
L 665.197861 183.850916 
L 668.380749 183.831736 
L 671.563636 183.692616 
L 674.746524 183.425451 
L 677.929412 183.026602 
L 681.112299 182.499239 
L 687.478075 181.129624 
L 706.575401 176.496968 
L 712.941176 175.328486 
L 719.306952 174.542629 
L 722.48984 174.317992 
L 725.672727 174.215422 
L 728.855615 174.240712 
L 732.038503 174.397214 
L 735.22139 174.685145 
L 741.587166 175.620451 
L 747.952941 176.894085 
L 767.050267 180.960134 
L 773.416043 182.122461 
L 779.781818 183.047199 
L 786.147594 183.647907 
L 792.513369 183.857222 
L 795.696257 183.794502 
L 798.879144 183.608687 
L 802.062032 183.292849 
L 805.24492 182.845228 
L 811.610695 181.596479 
L 821.159358 179.234779 
L 830.708021 176.927047 
L 837.073797 175.65905 
L 843.439572 174.743254 
L 846.62246 174.44537 
L 849.805348 174.265393 
L 852.988235 174.209667 
L 856.171123 174.283243 
L 859.354011 174.489086 
L 862.536898 174.824432 
L 868.902674 175.837861 
L 878.451337 177.84698 
L 891.182888 180.561767 
L 897.548663 181.777963 
L 903.914439 182.787863 
L 910.280214 183.498283 
L 916.645989 183.837546 
L 919.828877 183.847727 
L 923.011765 183.740281 
L 926.194652 183.507007 
L 929.37754 183.141729 
L 932.560428 182.646622 
L 938.926203 181.323948 
L 958.023529 176.669936 
L 964.389305 175.45938 
L 970.75508 174.619329 
L 973.937968 174.364382 
L 977.120856 174.229903 
L 980.303743 174.221715 
L 983.486631 174.344257 
L 986.669519 174.606495 
L 989.852406 174.248149 
L 993.035294 168.439454 
L 996.218182 196.886572 
L 996.218182 196.886572 
" style="fill:none;stroke:#1f77b4;stroke-linecap:square;stroke-width:1.5;"/>
   </g>
   <g id="line2d_15">
    <path clip-path="url(#p8ff2390f57)" d="M 184.581818 165.599291 
L 187.764706 146.646408 
L 190.947594 135.235552 
L 194.130481 124.594804 
L 197.313369 115.332172 
L 200.496257 107.718568 
L 203.679144 101.811595 
L 206.862032 97.623599 
L 210.04492 95.146328 
L 213.227807 94.369217 
L 216.410695 95.289897 
L 219.593583 97.917702 
L 222.776471 102.269124 
L 225.959358 108.355405 
L 229.142246 116.161937 
L 232.325134 125.622065 
L 235.508021 136.589037 
L 238.690909 148.815559 
L 245.056684 175.554416 
L 248.239572 189.146348 
L 251.42246 202.246739 
L 254.605348 214.42757 
L 257.788235 225.343748 
L 260.971123 234.745759 
L 264.154011 242.474534 
L 267.336898 248.443433 
L 270.519786 252.6149 
L 273.702674 254.977806 
L 276.885561 255.52933 
L 280.068449 254.264808 
L 283.251337 251.174493 
L 286.434225 246.250689 
L 289.617112 239.501783 
L 292.8 230.975596 
L 295.982888 220.786555 
L 299.165775 209.142058 
L 302.348663 196.356844 
L 311.897326 155.610442 
L 315.080214 142.8539 
L 318.263102 131.21267 
L 321.445989 120.970184 
L 324.628877 112.30853 
L 327.811765 105.324879 
L 330.994652 100.056251 
L 334.17754 96.50482 
L 337.360428 94.659734 
L 340.543316 94.512628 
L 343.726203 96.065505 
L 346.909091 99.331199 
L 350.091979 104.326302 
L 353.274866 111.055124 
L 356.457754 119.487091 
L 359.640642 129.528858 
L 362.823529 140.998069 
L 366.006417 153.607882 
L 378.737968 206.896968 
L 381.920856 218.643519 
L 385.103743 229.021532 
L 388.286631 237.816498 
L 391.469519 244.898878 
L 394.652406 250.20301 
L 397.835294 253.703505 
L 401.018182 255.394146 
L 404.20107 255.272277 
L 407.383957 253.331086 
L 410.566845 249.560507 
L 413.749733 243.956536 
L 416.93262 236.539256 
L 420.115508 227.377873 
L 423.298396 216.618688 
L 426.481283 204.508149 
L 429.664171 191.400562 
L 439.212834 150.766403 
L 442.395722 138.384169 
L 445.57861 127.234793 
L 448.761497 117.562993 
L 451.944385 109.516799 
L 455.127273 103.167976 
L 458.31016 98.537719 
L 461.493048 95.621216 
L 464.675936 94.407111 
L 467.858824 94.89027 
L 471.041711 97.077151 
L 474.224599 100.983231 
L 477.407487 106.622833 
L 480.590374 113.990285 
L 483.773262 123.035082 
L 486.95615 133.6335 
L 490.139037 145.565335 
L 493.321925 158.504832 
L 502.870588 198.946144 
L 506.053476 211.400385 
L 509.236364 222.669842 
L 512.419251 232.480227 
L 515.602139 240.650597 
L 518.785027 247.07771 
L 521.967914 251.713715 
L 525.150802 254.542586 
L 528.33369 255.560728 
L 531.516578 254.764382 
L 534.699465 252.145177 
L 537.882353 247.693569 
L 541.065241 241.411964 
L 544.248128 233.335539 
L 547.431016 223.55889 
L 550.613904 212.263419 
L 553.796791 199.735813 
L 560.162567 172.631293 
L 563.345455 159.030201 
L 566.528342 146.045126 
L 569.71123 134.085452 
L 572.894118 123.461568 
L 576.077005 114.380659 
L 579.259893 106.959552 
L 582.442781 101.248193 
L 585.625668 97.255495 
L 588.808556 94.972223 
L 591.991444 94.388319 
L 595.174332 95.502656 
L 598.357219 98.325797 
L 601.540107 102.874411 
L 604.722995 109.157993 
L 607.905882 117.157376 
L 611.08877 126.798172 
L 614.271658 137.923015 
L 617.454545 150.272473 
L 623.820321 177.111489 
L 627.003209 190.671029 
L 630.186096 203.687026 
L 633.368984 215.739571 
L 636.551872 226.494127 
L 639.734759 235.712141 
L 642.917647 243.243791 
L 646.100535 249.009344 
L 649.283422 252.975233 
L 652.46631 255.132016 
L 655.649198 255.477177 
L 658.832086 254.005265 
L 662.014973 250.70657 
L 665.197861 245.574007 
L 668.380749 238.619384 
L 671.563636 229.896583 
L 674.746524 219.529506 
L 677.929412 207.737222 
L 681.112299 194.846847 
L 690.660963 154.113453 
L 693.84385 141.466226 
L 697.026738 129.97188 
L 700.209626 119.901993 
L 703.392513 111.427772 
L 706.575401 104.638361 
L 709.758289 99.565494 
L 712.941176 96.20891 
L 716.124064 94.557449 
L 719.306952 94.603505 
L 722.48984 96.350521 
L 725.672727 99.812343 
L 728.855615 105.004994 
L 732.038503 111.930172 
L 735.22139 120.551568 
L 738.404278 130.766882 
L 741.587166 142.382428 
L 744.770053 155.099205 
L 754.318717 195.591025 
L 757.501604 208.294225 
L 760.684492 219.898797 
L 763.86738 230.105647 
L 767.050267 238.710825 
L 770.233155 245.593116 
L 773.416043 250.692652 
L 776.59893 253.987272 
L 779.781818 255.471802 
L 782.964706 255.14326 
L 786.147594 252.99431 
L 789.330481 249.014991 
L 792.513369 243.202875 
L 795.696257 235.582381 
L 798.879144 226.229998 
L 802.062032 215.302542 
L 805.24492 203.058656 
L 808.427807 189.864506 
L 814.793583 162.491137 
L 817.976471 149.304827 
L 821.159358 137.047279 
L 824.342246 126.055701 
L 827.525134 116.563129 
L 830.708021 108.707746 
L 833.890909 102.554152 
L 837.073797 98.119484 
L 840.256684 95.397309 
L 843.439572 94.376487 
L 846.62246 95.053068 
L 849.805348 97.434721 
L 852.988235 101.537632 
L 856.171123 107.374789 
L 859.354011 114.936867 
L 862.536898 124.166422 
L 865.719786 134.929663 
L 868.902674 146.994588 
L 872.085561 160.023734 
L 881.634225 200.412751 
L 884.817112 212.749012 
L 888 223.864373 
L 891.182888 233.495599 
L 894.365775 241.471457 
L 897.548663 247.696313 
L 900.731551 252.126982 
L 903.914439 254.749805 
L 907.097326 255.561685 
L 910.280214 254.558386 
L 913.463102 251.730967 
L 916.645989 247.070504 
L 919.828877 240.581972 
L 923.011765 232.30585 
L 926.194652 222.345292 
L 929.37754 210.893022 
L 932.560428 198.248175 
L 945.291979 144.625243 
L 948.474866 132.803929 
L 951.657754 122.347118 
L 954.840642 113.450708 
L 958.023529 106.222718 
L 961.206417 100.707095 
L 964.389305 96.9096 
L 967.572193 94.820181 
L 970.75508 94.429407 
L 973.937968 95.737533 
L 977.120856 98.756263 
L 980.303743 103.502185 
L 983.486631 109.982852 
L 986.669519 118.180512 
L 989.852406 127.739177 
L 993.035294 143.614013 
L 996.218182 147.375281 
L 996.218182 147.375281 
" style="fill:none;stroke:#ff7f0e;stroke-linecap:square;stroke-width:1.5;"/>
   </g>
   <g id="line2d_16">
    <path clip-path="url(#p8ff2390f57)" d="M 184.581818 172.119898 
L 187.764706 141.878783 
L 190.947594 123.430425 
L 194.130481 105.932512 
L 197.313369 90.731605 
L 200.496257 78.042991 
L 203.679144 67.990022 
L 206.862032 60.599272 
L 210.04492 55.848211 
L 213.227807 53.704465 
L 216.410695 54.150896 
L 219.593583 57.197025 
L 222.776471 62.876504 
L 225.959358 71.229478 
L 229.142246 82.270446 
L 232.325134 95.942686 
L 235.508021 112.066041 
L 238.690909 130.292729 
L 241.873797 150.089882 
L 251.42246 211.606891 
L 254.605348 230.295792 
L 257.788235 247.05663 
L 260.971123 261.521559 
L 264.154011 273.482269 
L 267.336898 282.852471 
L 270.519786 289.622178 
L 273.702674 293.816062 
L 276.885561 295.46147 
L 280.068449 294.568937 
L 283.251337 291.124201 
L 286.434225 285.093508 
L 289.617112 276.439834 
L 292.8 265.154038 
L 295.982888 251.29569 
L 299.165775 235.041764 
L 302.348663 216.729085 
L 305.531551 196.875482 
L 315.080214 135.303353 
L 318.263102 116.662759 
L 321.445989 100.008794 
L 324.628877 85.718122 
L 327.811765 73.999946 
L 330.994652 64.935882 
L 334.17754 58.529019 
L 337.360428 54.749421 
L 340.543316 53.568 
L 343.726203 54.977061 
L 346.909091 58.996099 
L 350.091979 65.663989 
L 353.274866 75.015971 
L 356.457754 87.045984 
L 359.640642 101.657454 
L 362.823529 118.61217 
L 366.006417 137.493704 
L 372.372193 178.507105 
L 375.55508 199.10582 
L 378.737968 218.740062 
L 381.920856 236.767149 
L 385.103743 252.709377 
L 388.286631 266.261371 
L 391.469519 277.265289 
L 394.652406 285.668482 
L 397.835294 291.478215 
L 401.018182 294.72335 
L 404.20107 295.426562 
L 407.383957 293.589335 
L 410.566845 289.189157 
L 413.749733 282.188141 
L 416.93262 272.555676 
L 420.115508 260.302568 
L 423.298396 245.526449 
L 426.481283 228.459294 
L 429.664171 209.50447 
L 436.029947 168.409437 
L 439.212834 147.797262 
L 442.395722 128.18212 
L 445.57861 110.223598 
L 448.761497 94.412713 
L 451.944385 81.060543 
L 455.127273 70.323521 
L 458.31016 62.248306 
L 461.493048 56.820892 
L 464.675936 54.008537 
L 467.858824 53.788338 
L 471.041711 56.162754 
L 474.224599 61.160316 
L 477.407487 68.821891 
L 480.590374 79.172519 
L 483.773262 92.178724 
L 486.95615 107.696981 
L 490.139037 125.425766 
L 493.321925 144.879327 
L 502.870588 206.545723 
L 506.053476 225.650058 
L 509.236364 242.94939 
L 512.419251 258.031153 
L 515.602139 270.648873 
L 518.785027 280.689255 
L 521.967914 288.126809 
L 525.150802 292.980859 
L 528.33369 295.280426 
L 531.516578 295.041657 
L 534.699465 292.256644 
L 537.882353 286.895485 
L 541.065241 278.919709 
L 544.248128 268.309385 
L 547.431016 255.10202 
L 550.613904 239.439566 
L 553.796791 221.614758 
L 556.979679 202.0985 
L 566.528342 140.359774 
L 569.71123 121.291033 
L 572.894118 104.082299 
L 576.077005 89.157103 
L 579.259893 76.764551 
L 582.442781 67.014591 
L 585.625668 59.925898 
L 588.808556 55.473218 
L 591.991444 53.624748 
L 595.174332 54.366088 
L 598.357219 57.709965 
L 601.540107 63.691869 
L 604.722995 72.35102 
L 607.905882 83.696238 
L 611.08877 97.659356 
L 614.271658 114.043155 
L 617.454545 132.478862 
L 620.637433 152.413358 
L 627.003209 193.866108 
L 630.186096 213.815942 
L 633.368984 232.309453 
L 636.551872 248.824269 
L 639.734759 263.011946 
L 642.917647 274.680282 
L 646.100535 283.753941 
L 649.283422 290.228891 
L 652.46631 294.131505 
L 655.649198 295.488 
L 658.832086 294.305983 
L 662.014973 290.568899 
L 665.197861 284.241143 
L 668.380749 275.287477 
L 671.563636 263.704092 
L 674.746524 249.561508 
L 677.929412 233.052843 
L 681.112299 214.535347 
L 684.295187 194.546862 
L 690.660963 153.03804 
L 693.84385 133.097345 
L 697.026738 114.658107 
L 700.209626 98.257558 
L 703.392513 84.251946 
L 706.575401 72.833703 
L 709.758289 64.072946 
L 712.941176 57.966872 
L 716.124064 54.48425 
L 719.306952 53.597661 
L 722.48984 55.302276 
L 725.672727 59.620723 
L 728.855615 66.592749 
L 732.038503 76.251161 
L 735.22139 88.582066 
L 738.404278 103.475465 
L 741.587166 120.674058 
L 744.770053 139.740157 
L 757.501604 220.883761 
L 760.684492 238.694302 
L 763.86738 254.376733 
L 767.050267 267.64425 
L 770.233155 278.353304 
L 773.416043 286.460182 
L 776.59893 291.976464 
L 779.781818 294.931393 
L 782.964706 295.345755 
L 786.147594 293.218348 
L 789.330481 288.524111 
L 792.513369 281.224694 
L 795.696257 271.29213 
L 798.879144 258.744772 
L 802.062032 243.69317 
L 805.24492 226.387389 
L 808.427807 207.251452 
L 821.159358 126.043476 
L 824.342246 108.308062 
L 827.525134 92.764586 
L 830.708021 79.704764 
L 833.890909 69.269932 
L 837.073797 61.497484 
L 840.256684 56.369479 
L 843.439572 53.85292 
L 846.62246 53.927452 
L 849.805348 56.598614 
L 852.988235 61.897372 
L 856.171123 69.864464 
L 859.354011 80.52061 
L 862.536898 93.822668 
L 865.719786 109.611079 
L 868.902674 127.564211 
L 872.085561 147.175224 
L 881.634225 208.794429 
L 884.817112 227.719646 
L 888 244.784076 
L 891.182888 259.594963 
L 894.365775 271.92294 
L 897.548663 281.667044 
L 900.731551 288.809094 
L 903.914439 293.371037 
L 907.097326 295.381259 
L 910.280214 294.853438 
L 913.463102 291.777028 
L 916.645989 286.120022 
L 919.828877 277.844807 
L 923.011765 266.93536 
L 926.194652 253.438878 
L 929.37754 237.512418 
L 932.560428 219.467773 
L 935.743316 199.79696 
L 945.291979 138.112916 
L 948.474866 119.228682 
L 951.657754 102.261956 
L 954.840642 87.615526 
L 958.023529 75.520399 
L 961.206417 66.073636 
L 964.389305 59.28671 
L 967.572193 55.131867 
L 970.75508 53.578495 
L 973.937968 54.614959 
L 977.120856 58.256989 
L 980.303743 64.541965 
L 983.486631 73.507401 
L 986.669519 85.164114 
L 989.852406 99.713239 
L 993.035294 113.162682 
L 996.218182 131.731828 
L 996.218182 131.731828 
" style="fill:none;stroke:#2ca02c;stroke-linecap:square;stroke-width:1.5;"/>
   </g>
   <g id="line2d_17">
    <path clip-path="url(#p8ff2390f57)" d="M 184.581818 183.117117 
L 187.764706 177.440968 
L 190.947594 179.851839 
L 194.130481 180.355374 
L 200.496257 182.233622 
L 203.679144 183.045005 
L 206.862032 183.726448 
L 210.04492 184.254889 
L 213.227807 184.619124 
L 216.410695 184.81688 
L 219.593583 184.853231 
L 222.776471 184.739816 
L 229.142246 184.143037 
L 235.508021 183.227081 
L 241.873797 182.141383 
L 248.239572 180.850374 
L 257.788235 178.51944 
L 264.154011 177.049622 
L 270.519786 175.948878 
L 273.702674 175.572636 
L 276.885561 175.315276 
L 283.251337 175.137411 
L 289.617112 175.343595 
L 295.982888 175.826067 
L 302.348663 176.509868 
L 308.714439 177.478699 
L 311.897326 178.132225 
L 318.263102 179.796292 
L 327.811765 182.547998 
L 330.994652 183.314677 
L 334.17754 183.941344 
L 337.360428 184.409613 
L 340.543316 184.71185 
L 343.726203 184.848744 
L 346.909091 184.827785 
L 350.091979 184.663062 
L 356.457754 183.990749 
L 362.823529 183.036888 
L 369.189305 181.920503 
L 375.55508 180.581621 
L 391.469519 176.812471 
L 394.652406 176.24635 
L 397.835294 175.795219 
L 401.018182 175.46339 
L 404.20107 175.249291 
L 410.566845 175.149527 
L 416.93262 175.415676 
L 423.298396 175.938105 
L 429.664171 176.662461 
L 436.029947 177.706378 
L 439.212834 178.407635 
L 445.57861 180.141888 
L 451.944385 182.007896 
L 455.127273 182.847301 
L 458.31016 183.564921 
L 461.493048 184.134314 
L 464.675936 184.54133 
L 467.858824 184.781721 
L 471.041711 184.858765 
L 474.224599 184.782427 
L 477.407487 184.569283 
L 483.773262 183.829012 
L 490.139037 182.841747 
L 496.504813 181.691757 
L 502.870588 180.304289 
L 515.602139 177.221954 
L 521.967914 176.065076 
L 525.150802 175.658036 
L 528.33369 175.370322 
L 534.699465 175.136789 
L 541.065241 175.299084 
L 547.431016 175.752213 
L 553.796791 176.409649 
L 560.162567 177.330839 
L 563.345455 177.951637 
L 569.71123 179.561068 
L 579.259893 182.331475 
L 582.442781 183.129697 
L 585.625668 183.794615 
L 588.808556 184.304805 
L 591.991444 184.650008 
L 595.174332 184.829018 
L 598.357219 184.847588 
L 601.540107 184.718179 
L 607.905882 184.097456 
L 614.271658 183.169296 
L 620.637433 182.074469 
L 627.003209 180.768896 
L 646.100535 176.381477 
L 649.283422 175.90003 
L 652.46631 175.537369 
L 655.649198 175.293371 
L 662.014973 175.139699 
L 668.380749 175.364742 
L 674.746524 175.859741 
L 681.112299 176.555575 
L 687.478075 177.54666 
L 690.660963 178.214828 
L 697.026738 179.901519 
L 706.575401 182.641423 
L 709.758289 183.393519 
L 712.941176 184.002849 
L 716.124064 184.452449 
L 719.306952 184.735692 
L 722.48984 184.85412 
L 725.672727 184.815929 
L 728.855615 184.636061 
L 735.22139 183.942124 
L 741.587166 182.977547 
L 747.952941 181.851238 
L 754.318717 180.497467 
L 770.233155 176.742524 
L 773.416043 176.189089 
L 776.59893 175.751418 
L 779.781818 175.433088 
L 782.964706 175.232193 
L 789.330481 175.155817 
L 795.696257 175.439539 
L 802.062032 175.9737 
L 808.427807 176.711337 
L 814.793583 177.779661 
L 817.976471 178.495541 
L 824.342246 180.248901 
L 830.708021 182.108496 
L 833.890909 182.935845 
L 837.073797 183.637564 
L 840.256684 184.188945 
L 843.439572 184.577098 
L 846.62246 184.798612 
L 849.805348 184.857639 
L 852.988235 184.764678 
L 859.354011 184.199103 
L 865.719786 183.29925 
L 872.085561 182.225013 
L 878.451337 180.951701 
L 884.817112 179.433854 
L 894.365775 177.145004 
L 900.731551 176.012723 
L 903.914439 175.619232 
L 907.097326 175.345041 
L 913.463102 175.136296 
L 919.828877 175.318076 
L 926.194652 175.78467 
L 932.560428 176.453216 
L 938.926203 177.395408 
L 942.109091 178.030337 
L 948.474866 179.664709 
L 958.023529 182.428014 
L 961.206417 183.212669 
L 964.389305 183.860785 
L 967.572193 184.352473 
L 970.75508 184.678692 
L 973.937968 184.839024 
L 977.120856 184.8401 
L 980.303743 184.694913 
L 986.669519 184.073002 
L 989.852406 182.488692 
L 993.035294 187.444404 
L 996.218182 183.941795 
L 996.218182 183.941795 
" style="fill:none;stroke:#d62728;stroke-linecap:square;stroke-width:1.5;"/>
   </g>
   <g id="line2d_18">
    <path clip-path="url(#p8ff2390f57)" d="M 184.581818 176.13369 
L 187.764706 178.509019 
L 190.947594 178.498054 
L 194.130481 178.318971 
L 200.496257 177.374683 
L 206.862032 176.782439 
L 213.227807 176.591229 
L 219.593583 176.742771 
L 229.142246 177.363326 
L 254.605348 179.240617 
L 260.971123 179.49287 
L 267.336898 179.529655 
L 283.251337 179.440551 
L 292.8 179.731723 
L 302.348663 180.011105 
L 305.531551 179.96263 
L 308.714439 179.79347 
L 315.080214 179.087658 
L 327.811765 177.235231 
L 334.17754 176.71717 
L 340.543316 176.596323 
L 346.909091 176.800092 
L 356.457754 177.454914 
L 378.737968 179.119209 
L 385.103743 179.438195 
L 391.469519 179.537111 
L 410.566845 179.460388 
L 420.115508 179.780456 
L 426.481283 179.991221 
L 432.847059 179.914787 
L 436.029947 179.697673 
L 442.395722 178.915228 
L 451.944385 177.478395 
L 458.31016 176.835997 
L 464.675936 176.594611 
L 471.041711 176.707644 
L 477.407487 177.067816 
L 509.236364 179.360365 
L 515.602139 179.528596 
L 525.150802 179.464588 
L 534.699465 179.429933 
L 544.248128 179.69823 
L 553.796791 180.007014 
L 556.979679 179.985802 
L 560.162567 179.849385 
L 563.345455 179.584403 
L 569.71123 178.735344 
L 579.259893 177.330589 
L 585.625668 176.760901 
L 591.991444 176.591519 
L 598.357219 176.759515 
L 607.905882 177.391277 
L 630.186096 179.065262 
L 636.551872 179.409044 
L 642.917647 179.535794 
L 665.197861 179.515902 
L 681.112299 180.010915 
L 684.295187 179.949811 
L 687.478075 179.766007 
L 693.84385 179.035722 
L 706.575401 177.195004 
L 712.941176 176.699993 
L 719.306952 176.600209 
L 725.672727 176.819165 
L 735.22139 177.483157 
L 757.501604 179.142337 
L 763.86738 179.449815 
L 770.233155 179.536796 
L 789.330481 179.467553 
L 798.879144 179.795338 
L 805.24492 179.997213 
L 811.610695 179.89665 
L 814.793583 179.664773 
L 821.159358 178.860703 
L 830.708021 177.431824 
L 837.073797 176.811467 
L 843.439572 176.592395 
L 849.805348 176.722663 
L 856.171123 177.093184 
L 888 179.376043 
L 894.365775 179.531543 
L 907.097326 179.4248 
L 916.645989 179.494306 
L 935.743316 179.976546 
L 938.926203 179.825593 
L 942.109091 179.546307 
L 948.474866 178.679125 
L 958.023529 177.287766 
L 964.389305 176.740698 
L 970.75508 176.592983 
L 977.120856 176.776998 
L 986.669519 177.410366 
L 989.852406 178.163842 
L 993.035294 170.94248 
L 996.218182 187.474782 
L 996.218182 187.474782 
" style="fill:none;stroke:#9467bd;stroke-linecap:square;stroke-width:1.5;"/>
   </g>
   <g id="line2d_19">
    <path clip-path="url(#p8ff2390f57)" d="M 184.581818 170.987917 
L 187.764706 182.923126 
L 190.947594 179.974292 
L 194.130481 180.022629 
L 213.227807 178.31418 
L 219.593583 177.969757 
L 229.142246 177.726119 
L 238.690909 177.72043 
L 245.056684 177.861527 
L 251.42246 178.256032 
L 257.788235 178.955134 
L 270.519786 180.5381 
L 276.885561 181.049127 
L 283.251337 181.292655 
L 289.617112 181.301123 
L 299.165775 181.049773 
L 311.897326 180.578887 
L 318.263102 180.178628 
L 327.811765 179.300247 
L 337.360428 178.45493 
L 343.726203 178.061098 
L 353.274866 177.753749 
L 362.823529 177.705387 
L 369.189305 177.796922 
L 375.55508 178.097304 
L 381.920856 178.709033 
L 397.835294 180.652864 
L 404.20107 181.114262 
L 410.566845 181.310193 
L 416.93262 181.282381 
L 429.664171 180.903319 
L 439.212834 180.518316 
L 445.57861 180.083983 
L 467.858824 178.167867 
L 474.224599 177.881136 
L 483.773262 177.706531 
L 493.321925 177.752818 
L 499.687701 177.971245 
L 506.053476 178.484709 
L 515.602139 179.686521 
L 521.967914 180.45361 
L 528.33369 180.99843 
L 534.699465 181.275639 
L 541.065241 181.310869 
L 550.613904 181.076819 
L 566.528342 180.451829 
L 572.894118 179.983649 
L 591.991444 178.290343 
L 598.357219 177.954854 
L 607.905882 177.722293 
L 617.454545 177.724315 
L 623.820321 177.875818 
L 630.186096 178.288272 
L 636.551872 179.001434 
L 649.283422 180.574209 
L 655.649198 181.070096 
L 662.014973 181.298914 
L 668.380749 181.295942 
L 681.112299 180.930949 
L 690.660963 180.560885 
L 697.026738 180.150281 
L 709.758289 178.960256 
L 719.306952 178.21613 
L 725.672727 177.909587 
L 735.22139 177.711811 
L 744.770053 177.739449 
L 751.135829 177.928674 
L 757.501604 178.400612 
L 763.86738 179.155213 
L 773.416043 180.365269 
L 779.781818 180.943221 
L 786.147594 181.254604 
L 792.513369 181.317753 
L 802.062032 181.103438 
L 817.976471 180.498579 
L 824.342246 180.05374 
L 846.62246 178.147395 
L 852.988235 177.869295 
L 862.536898 177.704566 
L 872.085561 177.759597 
L 878.451337 177.991704 
L 884.817112 178.523393 
L 894.365775 179.734088 
L 900.731551 180.491448 
L 907.097326 181.021386 
L 913.463102 181.283669 
L 919.828877 181.306901 
L 929.37754 181.064819 
L 945.291979 180.430267 
L 951.657754 179.951811 
L 970.75508 178.267014 
L 977.120856 177.940427 
L 986.669519 177.704586 
L 989.852406 177.935314 
L 993.035294 177.329775 
L 996.218182 169.228285 
L 996.218182 169.228285 
" style="fill:none;stroke:#8c564b;stroke-linecap:square;stroke-width:1.5;"/>
   </g>
   <g id="line2d_20">
    <path clip-path="url(#p8ff2390f57)" d="M 184.581818 174.07375 
L 187.764706 189.898627 
L 190.947594 197.684449 
L 194.130481 204.560031 
L 197.313369 210.410706 
L 200.496257 215.302485 
L 203.679144 219.175101 
L 206.862032 221.996794 
L 210.04492 223.760066 
L 213.227807 224.468862 
L 216.410695 224.129934 
L 219.593583 222.749105 
L 222.776471 220.3323 
L 225.959358 216.891145 
L 229.142246 212.452177 
L 232.325134 207.068937 
L 235.508021 200.83439 
L 238.690909 193.890874 
L 245.056684 178.703973 
L 251.42246 163.511126 
L 254.605348 156.565423 
L 257.788235 150.333195 
L 260.971123 144.955193 
L 264.154011 140.518215 
L 267.336898 137.065377 
L 270.519786 134.610431 
L 273.702674 133.150452 
L 276.885561 132.676366 
L 280.068449 133.179318 
L 283.251337 134.653255 
L 286.434225 137.093776 
L 289.617112 140.494037 
L 292.8 144.836931 
L 295.982888 150.085503 
L 299.165775 156.170892 
L 302.348663 162.980255 
L 305.531551 170.347472 
L 315.080214 193.389733 
L 318.263102 200.47073 
L 321.445989 206.843626 
L 324.628877 212.342359 
L 327.811765 216.86164 
L 330.994652 220.346186 
L 334.17754 222.774881 
L 337.360428 224.145982 
L 340.543316 224.464977 
L 343.726203 223.738568 
L 346.909091 221.972283 
L 350.091979 219.17321 
L 353.274866 215.35736 
L 356.457754 210.559716 
L 359.640642 204.847102 
L 362.823529 198.329909 
L 366.006417 191.170078 
L 378.737968 160.86038 
L 381.920856 154.159481 
L 385.103743 148.231021 
L 388.286631 143.194906 
L 391.469519 139.120163 
L 394.652406 136.037396 
L 397.835294 133.952695 
L 401.018182 132.859873 
L 404.20107 132.749466 
L 407.383957 133.613467 
L 410.566845 135.446786 
L 413.749733 138.24483 
L 416.93262 141.997885 
L 420.115508 146.682796 
L 423.298396 152.252154 
L 426.481283 158.622198 
L 429.664171 165.661107 
L 436.029947 180.944847 
L 439.212834 188.674492 
L 442.395722 196.08825 
L 445.57861 202.929732 
L 448.761497 208.994046 
L 451.944385 214.138486 
L 455.127273 218.277849 
L 458.31016 221.37154 
L 461.493048 223.407161 
L 464.675936 224.386823 
L 467.858824 224.317019 
L 471.041711 223.203883 
L 474.224599 221.053017 
L 477.407487 217.873865 
L 480.590374 213.687938 
L 483.773262 208.540732 
L 486.95615 202.513821 
L 490.139037 195.73625 
L 493.321925 188.389728 
L 502.870588 165.391845 
L 506.053476 158.292318 
L 509.236364 151.860585 
L 512.419251 146.252389 
L 515.602139 141.567538 
L 518.785027 137.859079 
L 521.967914 135.147074 
L 525.150802 133.431681 
L 528.33369 132.704737 
L 531.516578 132.956859 
L 534.699465 134.181174 
L 537.882353 136.373335 
L 541.065241 139.527608 
L 544.248128 143.630374 
L 547.431016 148.650885 
L 550.613904 154.529665 
L 553.796791 161.166301 
L 556.979679 168.408903 
L 569.71123 198.707365 
L 572.894118 205.280975 
L 576.077005 211.01715 
L 579.259893 215.795619 
L 582.442781 219.549644 
L 585.625668 222.250878 
L 588.808556 223.89384 
L 591.991444 224.482995 
L 595.174332 224.025254 
L 598.357219 222.526079 
L 601.540107 219.991889 
L 604.722995 216.435425 
L 607.905882 211.885638 
L 611.08877 206.399974 
L 614.271658 200.076502 
L 617.454545 193.063698 
L 623.820321 177.818777 
L 627.003209 170.104575 
L 630.186096 162.690298 
L 633.368984 155.81685 
L 636.551872 149.67584 
L 639.734759 144.401536 
L 642.917647 140.075016 
L 646.100535 136.735557 
L 649.283422 134.394183 
L 652.46631 133.046944 
L 655.649198 132.684472 
L 658.832086 133.298217 
L 662.014973 134.882406 
L 665.197861 137.432627 
L 668.380749 140.941317 
L 671.563636 145.389653 
L 674.746524 150.737671 
L 677.929412 156.91211 
L 681.112299 163.79443 
L 684.295187 171.212115 
L 693.84385 194.224831 
L 697.026738 201.235596 
L 700.209626 207.516142 
L 703.392513 212.907608 
L 706.575401 217.31111 
L 709.758289 220.676031 
L 712.941176 222.98422 
L 716.124064 224.235166 
L 719.306952 224.434904 
L 722.48984 223.58985 
L 725.672727 221.705543 
L 728.855615 218.789715 
L 732.038503 214.859821 
L 735.22139 209.953922 
L 738.404278 204.143213 
L 741.587166 197.543713 
L 744.770053 190.323372 
L 757.501604 160.063756 
L 760.684492 153.442876 
L 763.86738 147.611043 
L 767.050267 142.681697 
L 770.233155 138.718923 
L 773.416043 135.749753 
L 776.59893 133.778435 
L 779.781818 132.797968 
L 782.964706 132.798767 
L 786.147594 133.773352 
L 789.330481 135.716772 
L 792.513369 138.624132 
L 795.696257 142.48484 
L 798.879144 147.273358 
L 802.062032 152.938916 
L 805.24492 159.392751 
L 808.427807 166.496981 
L 814.793583 181.8318 
L 817.976471 189.539533 
L 821.159358 196.900274 
L 824.342246 203.662516 
L 827.525134 209.62818 
L 830.708021 214.661471 
L 833.890909 218.683174 
L 837.073797 221.656653 
L 840.256684 223.57185 
L 843.439572 224.431669 
L 846.62246 224.242845 
L 849.805348 223.011279 
L 852.988235 220.74272 
L 856.171123 217.447527 
L 859.354011 213.149397 
L 862.536898 207.897035 
L 865.719786 201.777228 
L 868.902674 194.924735 
L 872.085561 187.527247 
L 881.634225 164.556265 
L 884.817112 157.523063 
L 888 151.1783 
L 891.182888 145.671223 
L 894.365775 141.095578 
L 897.548663 137.499985 
L 900.731551 134.901622 
L 903.914439 133.299295 
L 907.097326 132.684203 
L 910.280214 133.047289 
L 913.463102 134.382034 
L 916.645989 136.684046 
L 919.828877 139.947186 
L 923.011765 144.156449 
L 926.194652 149.278231 
L 929.37754 155.249219 
L 932.560428 161.963587 
L 935.743316 169.263053 
L 945.291979 192.327342 
L 948.474866 199.49274 
L 951.657754 205.97895 
L 954.840642 211.611017 
L 958.023529 216.275413 
L 961.206417 219.910449 
L 964.389305 222.491241 
L 967.572193 224.013928 
L 970.75508 224.483607 
L 973.937968 223.906975 
L 977.120856 222.289662 
L 980.303743 219.638208 
L 983.486631 215.966831 
L 986.669519 211.311089 
L 989.852406 205.307978 
L 993.035294 205.98866 
L 996.218182 179.210477 
L 996.218182 179.210477 
" style="fill:none;stroke:#e377c2;stroke-linecap:square;stroke-width:1.5;"/>
   </g>
   <g id="line2d_21">
    <path clip-path="url(#p8ff2390f57)" d="M 184.581818 179.606944 
L 187.764706 180.521911 
L 190.947594 180.697365 
L 194.130481 181.734857 
L 203.679144 182.835037 
L 210.04492 183.282414 
L 216.410695 183.384675 
L 219.593583 183.275666 
L 222.776471 183.043592 
L 225.959358 182.680831 
L 229.142246 182.189107 
L 235.508021 180.900477 
L 241.873797 179.497183 
L 248.239572 178.379265 
L 254.605348 177.717266 
L 260.971123 177.415216 
L 270.519786 177.296218 
L 280.068449 177.389404 
L 286.434225 177.622919 
L 292.8 178.069519 
L 299.165775 178.744137 
L 308.714439 180.034901 
L 324.628877 182.275125 
L 330.994652 182.940145 
L 337.360428 183.330197 
L 343.726203 183.357837 
L 346.909091 183.204386 
L 350.091979 182.924324 
L 353.274866 182.512829 
L 359.640642 181.33746 
L 369.189305 179.258506 
L 372.372193 178.682984 
L 375.55508 178.222187 
L 381.920856 177.63916 
L 388.286631 177.384931 
L 397.835294 177.296503 
L 407.383957 177.419492 
L 413.749733 177.688253 
L 420.115508 178.178466 
L 426.481283 178.890245 
L 436.029947 180.20602 
L 448.761497 182.02297 
L 455.127273 182.756818 
L 461.493048 183.242266 
L 467.858824 183.39418 
L 471.041711 183.315025 
L 474.224599 183.115638 
L 477.407487 182.786854 
L 480.590374 182.327471 
L 486.95615 181.081652 
L 496.504813 179.032469 
L 499.687701 178.497925 
L 502.870588 178.08144 
L 509.236364 177.572276 
L 515.602139 177.36024 
L 525.150802 177.299434 
L 534.699465 177.454997 
L 541.065241 177.761405 
L 547.431016 178.295235 
L 553.796791 179.04135 
L 566.528342 180.844944 
L 576.077005 182.173899 
L 582.442781 182.868207 
L 588.808556 183.298325 
L 595.174332 183.378098 
L 598.357219 183.25565 
L 601.540107 183.008911 
L 604.722995 182.631204 
L 611.08877 181.509854 
L 623.820321 178.820755 
L 627.003209 178.329355 
L 633.368984 177.691977 
L 639.734759 177.405274 
L 649.283422 177.296027 
L 658.832086 177.398093 
L 665.197861 177.642164 
L 671.563636 178.102119 
L 677.929412 178.788396 
L 687.478075 180.087211 
L 703.392513 182.318872 
L 709.758289 182.970579 
L 716.124064 183.342449 
L 722.48984 183.346445 
L 725.672727 183.179065 
L 728.855615 182.884181 
L 732.038503 182.457717 
L 738.404278 181.259856 
L 747.952941 179.18769 
L 751.135829 178.624558 
L 754.318717 178.177311 
L 760.684492 177.617507 
L 767.050267 177.376713 
L 776.59893 177.297073 
L 786.147594 177.429742 
L 792.513369 177.709786 
L 798.879144 178.213394 
L 805.24492 178.936027 
L 817.976471 180.724757 
L 827.525134 182.069972 
L 833.890909 182.791745 
L 840.256684 183.260748 
L 846.62246 183.390881 
L 849.805348 183.298582 
L 852.988235 183.084722 
L 856.171123 182.741096 
L 859.354011 182.26741 
L 865.719786 181.001781 
L 875.268449 178.965659 
L 878.451337 178.444636 
L 884.817112 177.750648 
L 891.182888 177.428714 
L 900.731551 177.296826 
L 910.280214 177.379227 
L 916.645989 177.599611 
L 923.011765 178.029764 
L 929.37754 178.688951 
L 938.926203 179.968774 
L 954.840642 182.219141 
L 961.206417 182.900573 
L 967.572193 183.313291 
L 973.937968 183.370137 
L 977.120856 183.234053 
L 980.303743 182.972433 
L 983.486631 182.580026 
L 986.669519 182.032374 
L 989.852406 181.0645 
L 993.035294 184.218906 
L 996.218182 183.635001 
L 996.218182 183.635001 
" style="fill:none;stroke:#7f7f7f;stroke-linecap:square;stroke-width:1.5;"/>
   </g>
   <g id="line2d_22">
    <path clip-path="url(#p8ff2390f57)" d="M 184.581818 166.130472 
L 187.764706 178.416034 
L 190.947594 176.550509 
L 194.130481 176.669838 
L 210.04492 178.327971 
L 216.410695 179.150769 
L 225.959358 180.678931 
L 235.508021 182.230832 
L 238.690909 182.59825 
L 241.873797 182.828624 
L 245.056684 182.902112 
L 248.239572 182.819146 
L 254.605348 182.272842 
L 264.154011 180.980627 
L 295.982888 176.48209 
L 302.348663 175.96957 
L 305.531551 175.879708 
L 311.897326 176.033763 
L 318.263102 176.501126 
L 330.994652 177.750368 
L 340.543316 178.875378 
L 346.909091 179.809405 
L 362.823529 182.381289 
L 366.006417 182.701281 
L 369.189305 182.874663 
L 372.372193 182.888879 
L 375.55508 182.751944 
L 381.920856 182.13172 
L 391.469519 180.809952 
L 420.115508 176.716519 
L 426.481283 176.085945 
L 429.664171 175.922386 
L 432.847059 175.876257 
L 439.212834 176.102775 
L 445.57861 176.606721 
L 458.31016 177.876923 
L 467.858824 179.035974 
L 474.224599 180.000719 
L 486.95615 182.118053 
L 490.139037 182.515534 
L 493.321925 182.783861 
L 496.504813 182.898509 
L 499.687701 182.854678 
L 502.870588 182.667219 
L 509.236364 181.982468 
L 525.150802 179.727268 
L 547.431016 176.574732 
L 553.796791 176.011791 
L 556.979679 175.891543 
L 563.345455 175.992214 
L 569.71123 176.430384 
L 582.442781 177.664035 
L 591.991444 178.767265 
L 598.357219 179.679801 
L 614.271658 182.278476 
L 617.454545 182.631941 
L 620.637433 182.845063 
L 623.820321 182.900347 
L 627.003209 182.800519 
L 633.368984 182.230557 
L 642.917647 180.928296 
L 674.746524 176.442699 
L 681.112299 175.953412 
L 684.295187 175.87698 
L 690.660963 176.053902 
L 697.026738 176.533112 
L 709.758289 177.788898 
L 719.306952 178.924014 
L 725.672727 179.867557 
L 741.587166 182.424287 
L 744.770053 182.728799 
L 747.952941 182.884376 
L 751.135829 182.880573 
L 754.318717 182.727747 
L 760.684492 182.086748 
L 773.416043 180.299205 
L 798.879144 176.672101 
L 805.24492 176.061545 
L 808.427807 175.911177 
L 814.793583 175.95634 
L 821.159358 176.361966 
L 833.890909 177.578717 
L 843.439572 178.661799 
L 849.805348 179.552868 
L 868.902674 182.553208 
L 872.085561 182.805 
L 875.268449 182.901313 
L 878.451337 182.840089 
L 884.817112 182.324925 
L 894.365775 181.046596 
L 926.194652 176.533109 
L 932.560428 175.992144 
L 935.743316 175.885447 
L 942.109091 176.009848 
L 948.474866 176.461433 
L 961.206417 177.702055 
L 970.75508 178.81471 
L 977.120856 179.736844 
L 986.669519 181.367257 
L 989.852406 180.74403 
L 993.035294 200.414184 
L 996.218182 158.55954 
L 996.218182 158.55954 
" style="fill:none;stroke:#bcbd22;stroke-linecap:square;stroke-width:1.5;"/>
   </g>
   <g id="line2d_23">
    <path clip-path="url(#p8ff2390f57)" d="M 184.581818 182.784144 
L 190.947594 178.685166 
L 194.130481 178.026424 
L 200.496257 177.321172 
L 206.862032 176.983163 
L 213.227807 176.99047 
L 219.593583 177.24932 
L 251.42246 179.092849 
L 264.154011 179.480821 
L 286.434225 180.013869 
L 295.982888 180.292285 
L 302.348663 180.203055 
L 305.531551 180.000018 
L 311.897326 179.267706 
L 321.445989 177.875822 
L 327.811765 177.22941 
L 334.17754 176.960813 
L 340.543316 177.022685 
L 346.909091 177.316367 
L 375.55508 179.007907 
L 388.286631 179.436951 
L 413.749733 180.055898 
L 423.298396 180.30191 
L 429.664171 180.141368 
L 436.029947 179.537536 
L 451.944385 177.392674 
L 458.31016 177.0057 
L 464.675936 176.97324 
L 471.041711 177.205674 
L 483.773262 178.029512 
L 496.504813 178.765825 
L 509.236364 179.295543 
L 521.967914 179.584988 
L 537.882353 179.985075 
L 547.431016 180.280385 
L 553.796791 180.236577 
L 556.979679 180.06353 
L 563.345455 179.381598 
L 576.077005 177.593636 
L 582.442781 177.08611 
L 588.808556 176.950047 
L 595.174332 177.110462 
L 604.722995 177.674979 
L 620.637433 178.664673 
L 633.368984 179.22847 
L 646.100535 179.549037 
L 662.014973 179.917067 
L 674.746524 180.296238 
L 681.112299 180.185853 
L 684.295187 179.969466 
L 690.660963 179.216094 
L 700.209626 177.829672 
L 706.575401 177.203983 
L 712.941176 176.956272 
L 719.306952 177.034207 
L 725.672727 177.337823 
L 751.135829 178.879803 
L 763.86738 179.365594 
L 802.062032 180.302854 
L 808.427807 180.119235 
L 814.793583 179.490877 
L 830.708021 177.360243 
L 837.073797 176.995046 
L 843.439572 176.980321 
L 849.805348 177.224655 
L 884.817112 179.19893 
L 897.548663 179.533963 
L 913.463102 179.890468 
L 926.194652 180.286032 
L 932.560428 180.222696 
L 935.743316 180.036382 
L 942.109091 179.331844 
L 954.840642 177.55458 
L 961.206417 177.068801 
L 967.572193 176.952105 
L 973.937968 177.126386 
L 983.486631 177.699875 
L 986.669519 177.921019 
L 989.852406 177.926563 
L 993.035294 182.531878 
L 996.218182 172.198783 
L 996.218182 172.198783 
" style="fill:none;stroke:#17becf;stroke-linecap:square;stroke-width:1.5;"/>
   </g>
   <g id="line2d_24">
    <path clip-path="url(#p8ff2390f57)" d="M 184.581818 172.065983 
L 187.764706 180.915169 
L 190.947594 178.358355 
L 197.313369 177.404895 
L 203.679144 176.608608 
L 210.04492 176.118398 
L 213.227807 176.029505 
L 216.410695 176.054949 
L 222.776471 176.440046 
L 229.142246 177.195834 
L 248.239572 180.036062 
L 254.605348 180.577347 
L 260.971123 180.784024 
L 270.519786 180.712106 
L 283.251337 180.351623 
L 305.531551 179.452805 
L 311.897326 178.924768 
L 318.263102 178.135717 
L 327.811765 176.834276 
L 334.17754 176.230264 
L 340.543316 176.025496 
L 343.726203 176.09355 
L 350.091979 176.556172 
L 356.457754 177.36536 
L 372.372193 179.795291 
L 378.737968 180.445775 
L 385.103743 180.7498 
L 391.469519 180.788042 
L 401.018182 180.609628 
L 420.115508 179.961059 
L 429.664171 179.567551 
L 436.029947 179.120866 
L 442.395722 178.405781 
L 455.127273 176.697572 
L 461.493048 176.159107 
L 464.675936 176.041654 
L 467.858824 176.037373 
L 474.224599 176.367093 
L 480.590374 177.082608 
L 490.139037 178.550422 
L 496.504813 179.526484 
L 502.870588 180.278608 
L 509.236364 180.688904 
L 515.602139 180.796424 
L 525.150802 180.659934 
L 541.065241 180.151965 
L 556.979679 179.502195 
L 563.345455 179.008572 
L 569.71123 178.248093 
L 582.442781 176.570926 
L 588.808556 176.102651 
L 591.991444 176.026637 
L 595.174332 176.065094 
L 601.540107 176.474319 
L 607.905882 177.247102 
L 627.003209 180.076291 
L 633.368984 180.597371 
L 639.734759 180.787731 
L 649.283422 180.704685 
L 665.197861 180.225393 
L 684.295187 179.429822 
L 690.660963 178.886284 
L 697.026738 178.085398 
L 706.575401 176.791363 
L 712.941176 176.206931 
L 716.124064 176.06125 
L 719.306952 176.027453 
L 722.48984 176.10845 
L 728.855615 176.594234 
L 735.22139 177.418621 
L 751.135829 179.841065 
L 757.501604 180.472251 
L 763.86738 180.757801 
L 770.233155 180.785038 
L 782.964706 180.508874 
L 805.24492 179.701454 
L 811.610695 179.349437 
L 817.976471 178.754417 
L 827.525134 177.468676 
L 833.890909 176.657626 
L 840.256684 176.140198 
L 843.439572 176.035353 
L 846.62246 176.044249 
L 852.988235 176.398538 
L 859.354011 177.132177 
L 868.902674 178.608682 
L 875.268449 179.576999 
L 881.634225 180.311605 
L 888 180.702048 
L 894.365775 180.796043 
L 903.914439 180.65121 
L 919.828877 180.138632 
L 935.743316 179.4808 
L 942.109091 178.971984 
L 948.474866 178.198723 
L 958.023529 176.889636 
L 964.389305 176.261639 
L 970.75508 176.025203 
L 973.937968 176.076751 
L 980.303743 176.509742 
L 986.669519 177.305097 
L 989.852406 176.726909 
L 993.035294 200.213903 
L 996.218182 139.440384 
L 996.218182 139.440384 
" style="fill:none;stroke:#1f77b4;stroke-linecap:square;stroke-width:1.5;"/>
   </g>
   <g id="line2d_25">
    <path clip-path="url(#p8ff2390f57)" d="M 184.581818 163.871363 
L 187.764706 186.409288 
L 194.130481 195.962657 
L 197.313369 200.105536 
L 200.496257 203.627948 
L 203.679144 206.49936 
L 206.862032 208.696536 
L 210.04492 210.21185 
L 213.227807 211.045379 
L 216.410695 211.199082 
L 219.593583 210.673298 
L 222.776471 209.465839 
L 225.959358 207.574344 
L 229.142246 205.001367 
L 232.325134 201.762189 
L 235.508021 197.89475 
L 238.690909 193.469152 
L 241.873797 188.593694 
L 248.239572 178.10171 
L 251.42246 172.839402 
L 254.605348 167.801091 
L 257.788235 163.13943 
L 260.971123 158.978239 
L 264.154011 155.410252 
L 267.336898 152.498572 
L 270.519786 150.281552 
L 273.702674 148.778882 
L 276.885561 147.998714 
L 280.068449 147.94304 
L 283.251337 148.611854 
L 286.434225 150.003682 
L 289.617112 152.113962 
L 292.8 154.930071 
L 295.982888 158.42404 
L 299.165775 162.543047 
L 302.348663 167.200357 
L 305.531551 172.269063 
L 315.080214 188.189659 
L 318.263102 193.110916 
L 321.445989 197.577725 
L 324.628877 201.486932 
L 327.811765 204.771696 
L 330.994652 207.394507 
L 334.17754 209.338795 
L 337.360428 210.600785 
L 340.543316 211.181704 
L 343.726203 211.08324 
L 346.909091 210.304704 
L 350.091979 208.843449 
L 353.274866 206.698159 
L 356.457754 203.87502 
L 359.640642 200.39667 
L 362.823529 196.311875 
L 366.006417 191.704489 
L 369.189305 186.697325 
L 378.737968 170.93392 
L 381.920856 166.019078 
L 385.103743 161.530422 
L 388.286631 157.580296 
L 391.469519 154.250073 
L 394.652406 151.592989 
L 397.835294 149.639657 
L 401.018182 148.404711 
L 404.20107 147.893425 
L 407.383957 148.106849 
L 410.566845 149.044339 
L 413.749733 150.703789 
L 416.93262 153.078237 
L 420.115508 156.15038 
L 423.298396 159.884194 
L 426.481283 164.215242 
L 429.664171 169.042324 
L 436.029947 179.582439 
L 442.395722 190.061683 
L 445.57861 194.828713 
L 448.761497 199.098484 
L 451.944385 202.781948 
L 455.127273 205.823995 
L 458.31016 208.196015 
L 461.493048 209.886992 
L 464.675936 210.895811 
L 467.858824 211.224398 
L 471.041711 210.873679 
L 474.224599 209.842038 
L 477.407487 208.126734 
L 480.590374 205.72836 
L 483.773262 202.658139 
L 486.95615 198.9472 
L 490.139037 194.656507 
L 493.321925 189.884329 
L 499.687701 179.47178 
L 506.053476 169.06783 
L 509.236364 164.296124 
L 512.419251 159.995962 
L 515.602139 156.268126 
L 518.785027 153.182888 
L 521.967914 150.784592 
L 525.150802 149.096851 
L 528.33369 148.130336 
L 531.516578 147.88812 
L 534.699465 148.370442 
L 537.882353 149.576407 
L 541.065241 151.502489 
L 544.248128 154.138831 
L 547.431016 157.462168 
L 550.613904 161.42703 
L 553.796791 165.956274 
L 556.979679 170.933429 
L 569.71123 191.882389 
L 572.894118 196.477588 
L 576.077005 200.538108 
L 579.259893 203.988252 
L 582.442781 206.783779 
L 585.625668 208.903464 
L 588.808556 210.341095 
L 591.991444 211.097101 
L 595.174332 211.173528 
L 598.357219 210.570259 
L 601.540107 209.285076 
L 604.722995 207.315701 
L 607.905882 204.665751 
L 611.08877 201.352627 
L 614.271658 197.417447 
L 617.454545 192.934375 
L 620.637433 188.016352 
L 633.368984 167.248818 
L 636.551872 162.638527 
L 639.734759 158.540756 
L 642.917647 155.044769 
L 646.100535 152.210622 
L 649.283422 150.074228 
L 652.46631 148.653585 
L 655.649198 147.955785 
L 658.832086 147.982679 
L 662.014973 148.733846 
L 665.197861 150.207821 
L 668.380749 152.399291 
L 671.563636 155.294326 
L 674.746524 158.862692 
L 677.929412 163.048053 
L 681.112299 167.759361 
L 684.295187 172.86509 
L 693.84385 188.768666 
L 697.026738 193.644598 
L 700.209626 198.0524 
L 703.392513 201.893304 
L 706.575401 205.104082 
L 709.758289 207.650179 
L 712.941176 209.516933 
L 716.124064 210.701178 
L 719.306952 211.204738 
L 722.48984 211.028961 
L 725.672727 210.172853 
L 728.855615 208.63371 
L 732.038503 206.410751 
L 735.22139 203.511468 
L 738.404278 199.961019 
L 741.587166 195.811777 
L 744.770053 191.151966 
L 747.952941 186.108718 
L 757.501604 170.357213 
L 760.684492 165.484233 
L 763.86738 161.051806 
L 767.050267 157.168751 
L 770.233155 153.91286 
L 773.416043 151.334709 
L 776.59893 149.462694 
L 779.781818 148.309993 
L 782.964706 147.881167 
L 786.147594 148.177065 
L 789.330481 149.196879 
L 792.513369 150.938229 
L 795.696257 153.39323 
L 798.879144 156.542991 
L 802.062032 160.348625 
L 805.24492 164.742052 
L 808.427807 169.617298 
L 814.793583 180.195109 
L 817.976471 185.523369 
L 821.159358 190.625704 
L 824.342246 195.341886 
L 827.525134 199.548678 
L 830.708021 203.161355 
L 833.890909 206.128116 
L 837.073797 208.422875 
L 840.256684 210.03623 
L 843.439572 210.967503 
L 846.62246 211.218773 
L 849.805348 210.79062 
L 852.988235 209.681281 
L 856.171123 207.888098 
L 859.354011 205.412422 
L 862.536898 202.267178 
L 865.719786 198.486522 
L 868.902674 194.135356 
L 872.085561 189.316306 
L 878.451337 178.865681 
L 884.817112 168.504763 
L 888 163.780646 
L 891.182888 159.541217 
L 894.365775 155.883511 
L 897.548663 152.874669 
L 900.731551 150.556274 
L 903.914439 148.950372 
L 907.097326 148.066214 
L 910.280214 147.906484 
L 913.463102 148.471286 
L 916.645989 149.759444 
L 919.828877 151.767074 
L 923.011765 154.483157 
L 926.194652 157.882205 
L 929.37754 161.91593 
L 932.560428 166.502838 
L 935.743316 171.521775 
L 945.291979 187.453465 
L 948.474866 192.429314 
L 951.657754 196.9685 
L 954.840642 200.962698 
L 958.023529 204.340106 
L 961.206417 207.059326 
L 964.389305 209.101557 
L 967.572193 210.461462 
L 970.75508 211.140084 
L 973.937968 211.139155 
L 977.120856 210.458395 
L 980.303743 209.095374 
L 983.486631 207.048171 
L 986.669519 204.316655 
L 989.852406 201.847909 
L 996.218182 182.563599 
L 996.218182 182.563599 
" style="fill:none;stroke:#ff7f0e;stroke-linecap:square;stroke-width:1.5;"/>
   </g>
   <g id="line2d_26">
    <path clip-path="url(#p8ff2390f57)" d="M 184.581818 166.584108 
L 190.947594 148.002079 
L 194.130481 137.895534 
L 197.313369 128.971025 
L 200.496257 121.40792 
L 203.679144 115.315852 
L 206.862032 110.747578 
L 210.04492 107.721673 
L 213.227807 106.241009 
L 216.410695 106.306357 
L 219.593583 107.923163 
L 222.776471 111.100889 
L 225.959358 115.844713 
L 229.142246 122.139601 
L 232.325134 129.929306 
L 235.508021 139.093452 
L 238.690909 149.430394 
L 241.873797 160.652633 
L 251.42246 195.833856 
L 254.605348 206.723894 
L 257.788235 216.61312 
L 260.971123 225.260324 
L 264.154011 232.506449 
L 267.336898 238.262758 
L 270.519786 242.490866 
L 273.702674 245.181516 
L 276.885561 246.33656 
L 280.068449 245.957239 
L 283.251337 244.038838 
L 286.434225 240.573682 
L 289.617112 235.559692 
L 292.8 229.017438 
L 295.982888 221.01031 
L 299.165775 211.667122 
L 302.348663 201.198422 
L 305.531551 189.900047 
L 315.080214 154.86541 
L 318.263102 144.133012 
L 321.445989 134.434171 
L 324.628877 125.99669 
L 327.811765 118.970552 
L 330.994652 113.440352 
L 334.17754 109.44375 
L 337.360428 106.991602 
L 340.543316 106.084662 
L 343.726203 106.725137 
L 346.909091 108.920321 
L 350.091979 112.679548 
L 353.274866 118.002656 
L 356.457754 124.862092 
L 359.640642 133.180214 
L 362.823529 142.807967 
L 366.006417 153.511539 
L 372.372193 176.813162 
L 375.55508 188.61598 
L 378.737968 199.975124 
L 381.920856 210.527042 
L 385.103743 219.978808 
L 388.286631 228.120237 
L 391.469519 234.820425 
L 394.652406 240.011871 
L 397.835294 243.669277 
L 401.018182 245.789434 
L 404.20107 246.374941 
L 407.383957 245.425032 
L 410.566845 242.933222 
L 413.749733 238.892446 
L 416.93262 233.306867 
L 420.115508 226.210287 
L 423.298396 217.688013 
L 426.481283 207.897713 
L 429.664171 197.082137 
L 436.029947 173.737032 
L 439.212834 162.007755 
L 442.395722 150.777868 
L 445.57861 140.397487 
L 448.761497 131.144708 
L 451.944385 123.217559 
L 455.127273 116.739927 
L 458.31016 111.776551 
L 461.493048 108.352927 
L 464.675936 106.474504 
L 467.858824 106.141569 
L 471.041711 107.358146 
L 474.224599 110.133133 
L 477.407487 114.47404 
L 480.590374 120.372939 
L 483.773262 127.786419 
L 486.95615 136.612522 
L 490.139037 146.671626 
L 493.321925 157.697885 
L 506.053476 204.004421 
L 509.236364 214.177748 
L 512.419251 223.163081 
L 515.602139 230.7809 
L 518.785027 236.926024 
L 521.967914 241.549265 
L 525.150802 244.635766 
L 528.33369 246.185873 
L 531.516578 246.20168 
L 534.699465 244.680269 
L 537.882353 241.613942 
L 541.065241 236.997995 
L 544.248128 230.845206 
L 547.431016 223.205851 
L 550.613904 214.190028 
L 553.796791 203.986117 
L 556.979679 192.868641 
L 566.528342 157.759981 
L 569.71123 146.80816 
L 572.894118 136.818207 
L 576.077005 128.0387 
L 579.259893 120.638833 
L 582.442781 114.718348 
L 585.625668 110.325179 
L 588.808556 107.475166 
L 591.991444 106.170431 
L 595.174332 106.411989 
L 598.357219 108.206005 
L 601.540107 111.561923 
L 604.722995 116.48366 
L 607.905882 122.952571 
L 611.08877 130.906215 
L 614.271658 140.215663 
L 617.454545 150.66941 
L 620.637433 161.970717 
L 630.186096 197.114466 
L 633.368984 207.905378 
L 636.551872 217.663835 
L 639.734759 226.158093 
L 642.917647 233.237944 
L 646.100535 238.821501 
L 649.283422 242.874719 
L 652.46631 245.390402 
L 655.649198 246.37086 
L 658.832086 245.816578 
L 662.014973 243.722565 
L 665.197861 240.080896 
L 668.380749 234.891312 
L 671.563636 228.178031 
L 674.746524 220.010925 
L 677.929412 210.527378 
L 681.112299 199.947773 
L 684.295187 188.57716 
L 693.84385 153.600641 
L 697.026738 142.971836 
L 700.209626 133.406631 
L 703.392513 125.123595 
L 706.575401 118.264551 
L 709.758289 112.907695 
L 712.941176 109.086649 
L 716.124064 106.810399 
L 719.306952 106.079446 
L 722.48984 106.896396 
L 725.672727 109.269208 
L 728.855615 113.206818 
L 732.038503 118.706958 
L 735.22139 125.737508 
L 738.404278 134.21375 
L 741.587166 143.97741 
L 744.770053 154.78474 
L 751.135829 178.166412 
L 754.318717 189.93874 
L 757.501604 201.223223 
L 760.684492 211.663177 
L 763.86738 220.974758 
L 767.050267 228.957407 
L 770.233155 235.488278 
L 773.416043 240.505779 
L 776.59893 243.988123 
L 779.781818 245.93344 
L 782.964706 246.344279 
L 786.147594 245.219289 
L 789.330481 242.551468 
L 792.513369 238.334216 
L 795.696257 232.574178 
L 798.879144 225.309781 
L 802.062032 216.633677 
L 805.24492 206.712825 
L 808.427807 195.799705 
L 821.159358 149.547456 
L 824.342246 139.282907 
L 827.525134 130.172458 
L 830.708021 122.405388 
L 833.890909 116.097805 
L 837.073797 111.308964 
L 840.256684 108.061168 
L 843.439572 106.358599 
L 846.62246 106.201778 
L 849.805348 107.595229 
L 852.988235 110.548262 
L 856.171123 115.067387 
L 859.354011 121.14174 
L 862.536898 128.722544 
L 865.719786 137.69965 
L 868.902674 147.883826 
L 872.085561 158.999639 
L 881.634225 194.205707 
L 884.817112 205.214794 
L 888 215.26461 
L 891.182888 224.101807 
L 894.365775 231.556011 
L 897.548663 237.529619 
L 900.731551 241.97823 
L 903.914439 244.889625 
L 907.097326 246.26507 
L 910.280214 246.10617 
L 913.463102 244.409318 
L 916.645989 241.166668 
L 919.828877 236.374563 
L 923.011765 230.049095 
L 926.194652 222.246169 
L 929.37754 213.08402 
L 932.560428 202.760614 
L 935.743316 191.56021 
L 945.291979 156.474453 
L 948.474866 145.617083 
L 951.657754 135.75393 
L 954.840642 127.124339 
L 958.023529 119.888956 
L 961.206417 114.140737 
L 964.389305 109.922795 
L 967.572193 107.248674 
L 970.75508 106.119856 
L 973.937968 106.537749 
L 977.120856 108.509076 
L 980.303743 112.043333 
L 983.486631 117.142685 
L 986.669519 123.792 
L 989.852406 132.088197 
L 993.035294 143.331995 
L 996.218182 152.332545 
L 996.218182 152.332545 
" style="fill:none;stroke:#2ca02c;stroke-linecap:square;stroke-width:1.5;"/>
   </g>
   <g id="line2d_27">
    <path clip-path="url(#p8ff2390f57)" d="M 184.581818 201.891172 
L 187.764706 207.574474 
L 190.947594 220.303945 
L 194.130481 231.365935 
L 197.313369 240.913417 
L 200.496257 248.695834 
L 203.679144 254.656311 
L 206.862032 258.799518 
L 210.04492 261.157829 
L 213.227807 261.766818 
L 216.410695 260.6511 
L 219.593583 257.819137 
L 222.776471 253.267328 
L 225.959358 246.992283 
L 229.142246 239.010924 
L 232.325134 229.387937 
L 235.508021 218.264974 
L 238.690909 205.885644 
L 245.056684 178.875521 
L 248.239572 165.2038 
L 251.42246 152.093393 
L 254.605348 139.986832 
L 257.788235 129.227045 
L 260.971123 120.045619 
L 264.154011 112.573391 
L 267.336898 106.865075 
L 270.519786 102.927699 
L 273.702674 100.745698 
L 276.885561 100.300781 
L 280.068449 101.582979 
L 283.251337 104.594808 
L 286.434225 109.346579 
L 289.617112 115.844675 
L 292.8 124.071216 
L 295.982888 133.957173 
L 299.165775 145.352875 
L 302.348663 158.002885 
L 308.714439 185.477888 
L 311.897326 199.297087 
L 315.080214 212.464307 
L 318.263102 224.517983 
L 321.445989 235.108831 
L 324.628877 244.013728 
L 327.811765 251.122175 
L 330.994652 256.405253 
L 334.17754 259.881417 
L 337.360428 261.586477 
L 340.543316 261.553064 
L 343.726203 259.799958 
L 346.909091 256.330264 
L 350.091979 251.138482 
L 353.274866 244.225954 
L 356.457754 235.624154 
L 359.640642 225.4227 
L 362.823529 213.798893 
L 366.006417 201.037747 
L 378.737968 147.460603 
L 381.920856 135.820007 
L 385.103743 125.625006 
L 388.286631 117.067596 
L 391.469519 110.247054 
L 394.652406 105.19706 
L 397.835294 101.913709 
L 401.018182 100.378564 
L 404.20107 100.575396 
L 407.383957 102.498874 
L 410.566845 106.15536 
L 413.749733 111.555547 
L 416.93262 118.699549 
L 420.115508 127.553921 
L 423.298396 138.023047 
L 426.481283 149.920445 
L 429.664171 162.947621 
L 439.212834 204.288552 
L 442.395722 217.090905 
L 445.57861 228.635496 
L 448.761497 238.619878 
L 451.944385 246.86556 
L 455.127273 253.296399 
L 458.31016 257.905045 
L 461.493048 260.719231 
L 464.675936 261.775614 
L 467.858824 261.102443 
L 471.041711 258.712323 
L 474.224599 254.603904 
L 477.407487 248.77209 
L 480.590374 241.226293 
L 483.773262 232.015948 
L 486.95615 221.260293 
L 490.139037 209.174897 
L 493.321925 196.08655 
L 502.870588 155.388838 
L 506.053476 142.986638 
L 509.236364 131.853608 
L 512.419251 122.249663 
L 515.602139 114.329615 
L 518.785027 108.165094 
L 521.967914 103.772763 
L 525.150802 101.140756 
L 528.33369 100.250092 
L 531.516578 101.087918 
L 534.699465 103.653588 
L 537.882353 107.956322 
L 541.065241 114.005217 
L 544.248128 121.790828 
L 547.431016 131.26015 
L 550.613904 142.286978 
L 553.796791 154.644936 
L 556.979679 167.992171 
L 566.528342 209.164133 
L 569.71123 221.542913 
L 572.894118 232.536677 
L 576.077005 241.89023 
L 579.259893 249.466562 
L 582.442781 255.219167 
L 585.625668 259.157341 
L 588.808556 261.31479 
L 591.991444 261.726522 
L 595.174332 260.415278 
L 598.357219 257.387865 
L 601.540107 252.639947 
L 604.722995 246.169047 
L 607.905882 237.996414 
L 611.08877 228.193809 
L 614.271658 216.913467 
L 617.454545 204.411569 
L 623.820321 177.306613 
L 627.003209 163.674029 
L 630.186096 150.657235 
L 633.368984 138.688714 
L 636.551872 128.099026 
L 639.734759 119.107257 
L 642.917647 111.834193 
L 646.100535 106.327753 
L 649.283422 102.591101 
L 652.46631 100.607687 
L 655.649198 100.359678 
L 658.832086 101.838486 
L 662.014973 105.047717 
L 665.197861 109.99824 
L 668.380749 116.694733 
L 671.563636 125.114874 
L 674.746524 135.18203 
L 677.929412 146.735542 
L 681.112299 159.506936 
L 687.478075 187.067425 
L 690.660963 200.838325 
L 693.84385 213.900234 
L 697.026738 225.802671 
L 700.209626 236.210485 
L 703.392513 244.914665 
L 706.575401 251.815627 
L 709.758289 256.891523 
L 712.941176 260.164183 
L 716.124064 261.669863 
L 719.306952 261.440043 
L 722.48984 259.491664 
L 725.672727 255.826184 
L 728.855615 250.438172 
L 732.038503 243.330961 
L 735.22139 234.541069 
L 738.404278 224.166896 
L 741.587166 212.397127 
L 744.770053 199.529595 
L 754.318717 158.744286 
L 757.501604 146.071152 
L 760.684492 134.582022 
L 763.86738 124.565713 
L 767.050267 116.202448 
L 770.233155 109.582705 
L 773.416043 104.734524 
L 776.59893 101.651167 
L 779.781818 100.313837 
L 782.964706 100.707272 
L 786.147594 102.827499 
L 789.330481 106.681952 
L 792.513369 112.281075 
L 795.696257 119.622333 
L 798.879144 128.666863 
L 802.062032 139.309906 
L 805.24492 151.353168 
L 808.427807 164.48481 
L 817.976471 205.796871 
L 821.159358 218.475318 
L 824.342246 229.855185 
L 827.525134 239.648445 
L 830.708021 247.689779 
L 833.890909 253.912632 
L 837.073797 258.315224 
L 840.256684 260.927515 
L 843.439572 261.785843 
L 846.62246 260.916899 
L 849.805348 258.331424 
L 852.988235 254.027054 
L 856.171123 247.999093 
L 859.354011 240.260248 
L 862.536898 230.866444 
L 865.719786 219.94652 
L 868.902674 207.728317 
L 872.085561 194.55137 
L 881.634225 153.923865 
L 884.817112 141.649457 
L 888 130.67944 
L 891.182888 121.261169 
L 894.365775 113.538657 
L 897.548663 107.575784 
L 900.731551 103.384689 
L 903.914439 100.951859 
L 907.097326 100.258331 
L 910.280214 101.292684 
L 913.463102 104.055515 
L 916.645989 108.556787 
L 919.828877 114.804395 
L 923.011765 122.785425 
L 926.194652 132.440059 
L 929.37754 143.631987 
L 932.560428 156.122004 
L 935.743316 169.555061 
L 942.109091 197.340753 
L 945.291979 210.632087 
L 948.474866 222.87014 
L 951.657754 233.687658 
L 954.840642 242.843828 
L 958.023529 250.213556 
L 961.206417 255.758453 
L 964.389305 259.492038 
L 967.572193 261.449175 
L 970.75508 261.663899 
L 973.937968 260.157192 
L 977.120856 256.934253 
L 980.303743 251.990149 
L 983.486631 245.323774 
L 986.669519 236.951698 
L 989.852406 227.708058 
L 996.218182 193.24955 
L 996.218182 193.24955 
" style="fill:none;stroke:#d62728;stroke-linecap:square;stroke-width:1.5;"/>
   </g>
   <g id="line2d_28">
    <path clip-path="url(#p8ff2390f57)" d="M 184.581818 167.537002 
L 187.764706 181.39269 
L 190.947594 179.941129 
L 197.313369 178.848582 
L 203.679144 177.83858 
L 210.04492 177.126682 
L 216.410695 176.696175 
L 222.776471 176.503784 
L 229.142246 176.535666 
L 235.508021 176.80621 
L 241.873797 177.361776 
L 248.239572 178.261339 
L 264.154011 181.024579 
L 270.519786 181.740374 
L 276.885561 182.181547 
L 283.251337 182.408931 
L 289.617112 182.450547 
L 295.982888 182.304952 
L 302.348663 181.955298 
L 308.714439 181.339504 
L 315.080214 180.384049 
L 327.811765 178.12606 
L 334.17754 177.317827 
L 340.543316 176.804201 
L 346.909091 176.540137 
L 353.274866 176.501056 
L 359.640642 176.69351 
L 366.006417 177.151947 
L 372.372193 177.941704 
L 378.737968 179.042597 
L 388.286631 180.735195 
L 394.652406 181.547967 
L 401.018182 182.06835 
L 407.383957 182.357982 
L 413.749733 182.457294 
L 420.115508 182.37151 
L 426.481283 182.089527 
L 432.847059 181.567969 
L 439.212834 180.719297 
L 458.31016 177.538551 
L 464.675936 176.93669 
L 471.041711 176.59847 
L 477.407487 176.489176 
L 483.773262 176.60668 
L 490.139037 176.975404 
L 496.504813 177.654938 
L 502.870588 178.673619 
L 512.419251 180.416276 
L 518.785027 181.326204 
L 525.150802 181.932571 
L 531.516578 182.288512 
L 537.882353 182.445765 
L 544.248128 182.418862 
L 550.613904 182.200671 
L 556.979679 181.763136 
L 563.345455 181.024167 
L 569.71123 179.959166 
L 579.259893 178.252238 
L 585.625668 177.404528 
L 591.991444 176.855434 
L 598.357219 176.56134 
L 604.722995 176.493489 
L 611.08877 176.654891 
L 617.454545 177.07573 
L 623.820321 177.820074 
L 630.186096 178.890037 
L 639.734759 180.608037 
L 646.100535 181.460789 
L 652.46631 182.015589 
L 658.832086 182.331846 
L 665.197861 182.454787 
L 671.563636 182.393153 
L 677.929412 182.137713 
L 684.295187 181.651747 
L 690.660963 180.848048 
L 697.026738 179.739582 
L 703.392513 178.579766 
L 709.758289 177.63768 
L 716.124064 176.998312 
L 722.48984 176.628786 
L 728.855615 176.490732 
L 735.22139 176.578246 
L 741.587166 176.912135 
L 747.952941 177.547662 
L 754.318717 178.527109 
L 767.050267 180.789953 
L 773.416043 181.584919 
L 779.781818 182.090484 
L 786.147594 182.368563 
L 792.513369 182.457446 
L 798.879144 182.360935 
L 805.24492 182.067054 
L 811.610695 181.529138 
L 817.976471 180.660641 
L 833.890909 177.90157 
L 840.256684 177.167839 
L 846.62246 176.718756 
L 852.988235 176.51017 
L 859.354011 176.525684 
L 865.719786 176.778118 
L 872.085561 177.310752 
L 878.451337 178.185546 
L 894.365775 180.961195 
L 900.731551 181.698878 
L 907.097326 182.157623 
L 913.463102 182.398898 
L 919.828877 182.453725 
L 926.194652 182.321826 
L 932.560428 181.988156 
L 938.926203 181.394756 
L 945.291979 180.462878 
L 958.023529 178.195959 
L 964.389305 177.365608 
L 970.75508 176.832308 
L 977.120856 176.551447 
L 983.486631 176.496331 
L 986.669519 176.553519 
L 989.852406 178.169761 
L 993.035294 169.946946 
L 996.218182 167.342034 
L 996.218182 167.342034 
" style="fill:none;stroke:#9467bd;stroke-linecap:square;stroke-width:1.5;"/>
   </g>
   <g id="line2d_29">
    <path clip-path="url(#p8ff2390f57)" d="M 184.581818 180.169937 
L 187.764706 182.147926 
L 190.947594 180.943442 
L 194.130481 180.596341 
L 206.862032 180.29423 
L 216.410695 179.845891 
L 229.142246 178.846161 
L 235.508021 178.420017 
L 241.873797 178.183632 
L 251.42246 178.131938 
L 264.154011 178.066181 
L 273.702674 178.068544 
L 280.068449 178.315051 
L 286.434225 178.796765 
L 302.348663 180.321844 
L 308.714439 180.654699 
L 315.080214 180.708744 
L 330.994652 180.352726 
L 340.543316 179.968058 
L 350.091979 179.271659 
L 359.640642 178.535982 
L 366.006417 178.236045 
L 372.372193 178.12972 
L 404.20107 178.211076 
L 410.566845 178.623129 
L 420.115508 179.553149 
L 429.664171 180.404331 
L 436.029947 180.684731 
L 442.395722 180.694426 
L 458.31016 180.319144 
L 467.858824 179.89782 
L 477.407487 179.172996 
L 486.95615 178.465211 
L 493.321925 178.202743 
L 502.870588 178.129691 
L 515.602139 178.075728 
L 525.150802 178.053971 
L 531.516578 178.269513 
L 537.882353 178.723548 
L 556.979679 180.477901 
L 563.345455 180.70494 
L 569.71123 180.675111 
L 588.808556 180.165694 
L 595.174332 179.822156 
L 617.454545 178.263126 
L 623.820321 178.134454 
L 652.46631 178.076107 
L 658.832086 178.336523 
L 665.197861 178.830003 
L 681.112299 180.34803 
L 687.478075 180.665006 
L 693.84385 180.705025 
L 709.758289 180.342651 
L 719.306952 179.947077 
L 728.855615 179.241469 
L 738.404278 178.513584 
L 744.770053 178.225172 
L 754.318717 178.127666 
L 767.050267 178.085327 
L 776.59893 178.042975 
L 782.964706 178.228056 
L 789.330481 178.653222 
L 811.610695 180.596256 
L 817.976471 180.718118 
L 827.525134 180.550537 
L 843.439572 180.056482 
L 852.988235 179.406986 
L 865.719786 178.444794 
L 872.085561 178.193921 
L 881.634225 178.130658 
L 894.365775 178.071492 
L 903.914439 178.059981 
L 910.280214 178.289089 
L 916.645989 178.755588 
L 935.743316 180.498631 
L 942.109091 180.709277 
L 948.474866 180.668579 
L 967.572193 180.150237 
L 973.937968 179.797892 
L 986.669519 178.803232 
L 989.852406 179.500972 
L 993.035294 170.914376 
L 996.218182 175.911312 
L 996.218182 175.911312 
" style="fill:none;stroke:#8c564b;stroke-linecap:square;stroke-width:1.5;"/>
   </g>
   <g id="patch_3">
    <path d="M 144 307.584 
L 144 41.472 
" style="fill:none;stroke:#000000;stroke-linecap:square;stroke-linejoin:miter;stroke-width:0.8;"/>
   </g>
   <g id="patch_4">
    <path d="M 1036.8 307.584 
L 1036.8 41.472 
" style="fill:none;stroke:#000000;stroke-linecap:square;stroke-linejoin:miter;stroke-width:0.8;"/>
   </g>
   <g id="patch_5">
    <path d="M 144 307.584 
L 1036.8 307.584 
" style="fill:none;stroke:#000000;stroke-linecap:square;stroke-linejoin:miter;stroke-width:0.8;"/>
   </g>
   <g id="patch_6">
    <path d="M 144 41.472 
L 1036.8 41.472 
" style="fill:none;stroke:#000000;stroke-linecap:square;stroke-linejoin:miter;stroke-width:0.8;"/>
   </g>
   <g id="text_14">
    <!-- 3th layer's shape: torch.Size([1, 128, 256]). Uniformly sampling 16 channels -->
    <g transform="translate(360.85125 35.472)scale(0.12 -0.12)">
     <defs>
      <path d="M 40.578125 39.3125 
Q 47.65625 37.796875 51.625 33 
Q 55.609375 28.21875 55.609375 21.1875 
Q 55.609375 10.40625 48.1875 4.484375 
Q 40.765625 -1.421875 27.09375 -1.421875 
Q 22.515625 -1.421875 17.65625 -0.515625 
Q 12.796875 0.390625 7.625 2.203125 
L 7.625 11.71875 
Q 11.71875 9.328125 16.59375 8.109375 
Q 21.484375 6.890625 26.8125 6.890625 
Q 36.078125 6.890625 40.9375 10.546875 
Q 45.796875 14.203125 45.796875 21.1875 
Q 45.796875 27.640625 41.28125 31.265625 
Q 36.765625 34.90625 28.71875 34.90625 
L 20.21875 34.90625 
L 20.21875 43.015625 
L 29.109375 43.015625 
Q 36.375 43.015625 40.234375 45.921875 
Q 44.09375 48.828125 44.09375 54.296875 
Q 44.09375 59.90625 40.109375 62.90625 
Q 36.140625 65.921875 28.71875 65.921875 
Q 24.65625 65.921875 20.015625 65.03125 
Q 15.375 64.15625 9.8125 62.3125 
L 9.8125 71.09375 
Q 15.4375 72.65625 20.34375 73.4375 
Q 25.25 74.21875 29.59375 74.21875 
Q 40.828125 74.21875 47.359375 69.109375 
Q 53.90625 64.015625 53.90625 55.328125 
Q 53.90625 49.265625 50.4375 45.09375 
Q 46.96875 40.921875 40.578125 39.3125 
z
" id="DejaVuSans-51"/>
      <path d="M 18.3125 70.21875 
L 18.3125 54.6875 
L 36.8125 54.6875 
L 36.8125 47.703125 
L 18.3125 47.703125 
L 18.3125 18.015625 
Q 18.3125 11.328125 20.140625 9.421875 
Q 21.96875 7.515625 27.59375 7.515625 
L 36.8125 7.515625 
L 36.8125 0 
L 27.59375 0 
Q 17.1875 0 13.234375 3.875 
Q 9.28125 7.765625 9.28125 18.015625 
L 9.28125 47.703125 
L 2.6875 47.703125 
L 2.6875 54.6875 
L 9.28125 54.6875 
L 9.28125 70.21875 
z
" id="DejaVuSans-116"/>
      <path d="M 54.890625 33.015625 
L 54.890625 0 
L 45.90625 0 
L 45.90625 32.71875 
Q 45.90625 40.484375 42.875 44.328125 
Q 39.84375 48.1875 33.796875 48.1875 
Q 26.515625 48.1875 22.3125 43.546875 
Q 18.109375 38.921875 18.109375 30.90625 
L 18.109375 0 
L 9.078125 0 
L 9.078125 75.984375 
L 18.109375 75.984375 
L 18.109375 46.1875 
Q 21.34375 51.125 25.703125 53.5625 
Q 30.078125 56 35.796875 56 
Q 45.21875 56 50.046875 50.171875 
Q 54.890625 44.34375 54.890625 33.015625 
z
" id="DejaVuSans-104"/>
      <path id="DejaVuSans-32"/>
      <path d="M 9.421875 75.984375 
L 18.40625 75.984375 
L 18.40625 0 
L 9.421875 0 
z
" id="DejaVuSans-108"/>
      <path d="M 34.28125 27.484375 
Q 23.390625 27.484375 19.1875 25 
Q 14.984375 22.515625 14.984375 16.5 
Q 14.984375 11.71875 18.140625 8.90625 
Q 21.296875 6.109375 26.703125 6.109375 
Q 34.1875 6.109375 38.703125 11.40625 
Q 43.21875 16.703125 43.21875 25.484375 
L 43.21875 27.484375 
z
M 52.203125 31.203125 
L 52.203125 0 
L 43.21875 0 
L 43.21875 8.296875 
Q 40.140625 3.328125 35.546875 0.953125 
Q 30.953125 -1.421875 24.3125 -1.421875 
Q 15.921875 -1.421875 10.953125 3.296875 
Q 6 8.015625 6 15.921875 
Q 6 25.140625 12.171875 29.828125 
Q 18.359375 34.515625 30.609375 34.515625 
L 43.21875 34.515625 
L 43.21875 35.40625 
Q 43.21875 41.609375 39.140625 45 
Q 35.0625 48.390625 27.6875 48.390625 
Q 23 48.390625 18.546875 47.265625 
Q 14.109375 46.140625 10.015625 43.890625 
L 10.015625 52.203125 
Q 14.9375 54.109375 19.578125 55.046875 
Q 24.21875 56 28.609375 56 
Q 40.484375 56 46.34375 49.84375 
Q 52.203125 43.703125 52.203125 31.203125 
z
" id="DejaVuSans-97"/>
      <path d="M 32.171875 -5.078125 
Q 28.375 -14.84375 24.75 -17.8125 
Q 21.140625 -20.796875 15.09375 -20.796875 
L 7.90625 -20.796875 
L 7.90625 -13.28125 
L 13.1875 -13.28125 
Q 16.890625 -13.28125 18.9375 -11.515625 
Q 21 -9.765625 23.484375 -3.21875 
L 25.09375 0.875 
L 2.984375 54.6875 
L 12.5 54.6875 
L 29.59375 11.921875 
L 46.6875 54.6875 
L 56.203125 54.6875 
z
" id="DejaVuSans-121"/>
      <path d="M 56.203125 29.59375 
L 56.203125 25.203125 
L 14.890625 25.203125 
Q 15.484375 15.921875 20.484375 11.0625 
Q 25.484375 6.203125 34.421875 6.203125 
Q 39.59375 6.203125 44.453125 7.46875 
Q 49.3125 8.734375 54.109375 11.28125 
L 54.109375 2.78125 
Q 49.265625 0.734375 44.1875 -0.34375 
Q 39.109375 -1.421875 33.890625 -1.421875 
Q 20.796875 -1.421875 13.15625 6.1875 
Q 5.515625 13.8125 5.515625 26.8125 
Q 5.515625 40.234375 12.765625 48.109375 
Q 20.015625 56 32.328125 56 
Q 43.359375 56 49.78125 48.890625 
Q 56.203125 41.796875 56.203125 29.59375 
z
M 47.21875 32.234375 
Q 47.125 39.59375 43.09375 43.984375 
Q 39.0625 48.390625 32.421875 48.390625 
Q 24.90625 48.390625 20.390625 44.140625 
Q 15.875 39.890625 15.1875 32.171875 
z
" id="DejaVuSans-101"/>
      <path d="M 41.109375 46.296875 
Q 39.59375 47.171875 37.8125 47.578125 
Q 36.03125 48 33.890625 48 
Q 26.265625 48 22.1875 43.046875 
Q 18.109375 38.09375 18.109375 28.8125 
L 18.109375 0 
L 9.078125 0 
L 9.078125 54.6875 
L 18.109375 54.6875 
L 18.109375 46.1875 
Q 20.953125 51.171875 25.484375 53.578125 
Q 30.03125 56 36.53125 56 
Q 37.453125 56 38.578125 55.875 
Q 39.703125 55.765625 41.0625 55.515625 
z
" id="DejaVuSans-114"/>
      <path d="M 17.921875 72.90625 
L 17.921875 45.796875 
L 9.625 45.796875 
L 9.625 72.90625 
z
" id="DejaVuSans-39"/>
      <path d="M 44.28125 53.078125 
L 44.28125 44.578125 
Q 40.484375 46.53125 36.375 47.5 
Q 32.28125 48.484375 27.875 48.484375 
Q 21.1875 48.484375 17.84375 46.4375 
Q 14.5 44.390625 14.5 40.28125 
Q 14.5 37.15625 16.890625 35.375 
Q 19.28125 33.59375 26.515625 31.984375 
L 29.59375 31.296875 
Q 39.15625 29.25 43.1875 25.515625 
Q 47.21875 21.78125 47.21875 15.09375 
Q 47.21875 7.46875 41.1875 3.015625 
Q 35.15625 -1.421875 24.609375 -1.421875 
Q 20.21875 -1.421875 15.453125 -0.5625 
Q 10.6875 0.296875 5.421875 2 
L 5.421875 11.28125 
Q 10.40625 8.6875 15.234375 7.390625 
Q 20.0625 6.109375 24.8125 6.109375 
Q 31.15625 6.109375 34.5625 8.28125 
Q 37.984375 10.453125 37.984375 14.40625 
Q 37.984375 18.0625 35.515625 20.015625 
Q 33.0625 21.96875 24.703125 23.78125 
L 21.578125 24.515625 
Q 13.234375 26.265625 9.515625 29.90625 
Q 5.8125 33.546875 5.8125 39.890625 
Q 5.8125 47.609375 11.28125 51.796875 
Q 16.75 56 26.8125 56 
Q 31.78125 56 36.171875 55.265625 
Q 40.578125 54.546875 44.28125 53.078125 
z
" id="DejaVuSans-115"/>
      <path d="M 18.109375 8.203125 
L 18.109375 -20.796875 
L 9.078125 -20.796875 
L 9.078125 54.6875 
L 18.109375 54.6875 
L 18.109375 46.390625 
Q 20.953125 51.265625 25.265625 53.625 
Q 29.59375 56 35.59375 56 
Q 45.5625 56 51.78125 48.09375 
Q 58.015625 40.1875 58.015625 27.296875 
Q 58.015625 14.40625 51.78125 6.484375 
Q 45.5625 -1.421875 35.59375 -1.421875 
Q 29.59375 -1.421875 25.265625 0.953125 
Q 20.953125 3.328125 18.109375 8.203125 
z
M 48.6875 27.296875 
Q 48.6875 37.203125 44.609375 42.84375 
Q 40.53125 48.484375 33.40625 48.484375 
Q 26.265625 48.484375 22.1875 42.84375 
Q 18.109375 37.203125 18.109375 27.296875 
Q 18.109375 17.390625 22.1875 11.75 
Q 26.265625 6.109375 33.40625 6.109375 
Q 40.53125 6.109375 44.609375 11.75 
Q 48.6875 17.390625 48.6875 27.296875 
z
" id="DejaVuSans-112"/>
      <path d="M 11.71875 12.40625 
L 22.015625 12.40625 
L 22.015625 0 
L 11.71875 0 
z
M 11.71875 51.703125 
L 22.015625 51.703125 
L 22.015625 39.3125 
L 11.71875 39.3125 
z
" id="DejaVuSans-58"/>
      <path d="M 30.609375 48.390625 
Q 23.390625 48.390625 19.1875 42.75 
Q 14.984375 37.109375 14.984375 27.296875 
Q 14.984375 17.484375 19.15625 11.84375 
Q 23.34375 6.203125 30.609375 6.203125 
Q 37.796875 6.203125 41.984375 11.859375 
Q 46.1875 17.53125 46.1875 27.296875 
Q 46.1875 37.015625 41.984375 42.703125 
Q 37.796875 48.390625 30.609375 48.390625 
z
M 30.609375 56 
Q 42.328125 56 49.015625 48.375 
Q 55.71875 40.765625 55.71875 27.296875 
Q 55.71875 13.875 49.015625 6.21875 
Q 42.328125 -1.421875 30.609375 -1.421875 
Q 18.84375 -1.421875 12.171875 6.21875 
Q 5.515625 13.875 5.515625 27.296875 
Q 5.515625 40.765625 12.171875 48.375 
Q 18.84375 56 30.609375 56 
z
" id="DejaVuSans-111"/>
      <path d="M 48.78125 52.59375 
L 48.78125 44.1875 
Q 44.96875 46.296875 41.140625 47.34375 
Q 37.3125 48.390625 33.40625 48.390625 
Q 24.65625 48.390625 19.8125 42.84375 
Q 14.984375 37.3125 14.984375 27.296875 
Q 14.984375 17.28125 19.8125 11.734375 
Q 24.65625 6.203125 33.40625 6.203125 
Q 37.3125 6.203125 41.140625 7.25 
Q 44.96875 8.296875 48.78125 10.40625 
L 48.78125 2.09375 
Q 45.015625 0.34375 40.984375 -0.53125 
Q 36.96875 -1.421875 32.421875 -1.421875 
Q 20.0625 -1.421875 12.78125 6.34375 
Q 5.515625 14.109375 5.515625 27.296875 
Q 5.515625 40.671875 12.859375 48.328125 
Q 20.21875 56 33.015625 56 
Q 37.15625 56 41.109375 55.140625 
Q 45.0625 54.296875 48.78125 52.59375 
z
" id="DejaVuSans-99"/>
      <path d="M 53.515625 70.515625 
L 53.515625 60.890625 
Q 47.90625 63.578125 42.921875 64.890625 
Q 37.9375 66.21875 33.296875 66.21875 
Q 25.25 66.21875 20.875 63.09375 
Q 16.5 59.96875 16.5 54.203125 
Q 16.5 49.359375 19.40625 46.890625 
Q 22.3125 44.4375 30.421875 42.921875 
L 36.375 41.703125 
Q 47.40625 39.59375 52.65625 34.296875 
Q 57.90625 29 57.90625 20.125 
Q 57.90625 9.515625 50.796875 4.046875 
Q 43.703125 -1.421875 29.984375 -1.421875 
Q 24.8125 -1.421875 18.96875 -0.25 
Q 13.140625 0.921875 6.890625 3.21875 
L 6.890625 13.375 
Q 12.890625 10.015625 18.65625 8.296875 
Q 24.421875 6.59375 29.984375 6.59375 
Q 38.421875 6.59375 43.015625 9.90625 
Q 47.609375 13.234375 47.609375 19.390625 
Q 47.609375 24.75 44.3125 27.78125 
Q 41.015625 30.8125 33.5 32.328125 
L 27.484375 33.5 
Q 16.453125 35.6875 11.515625 40.375 
Q 6.59375 45.0625 6.59375 53.421875 
Q 6.59375 63.09375 13.40625 68.65625 
Q 20.21875 74.21875 32.171875 74.21875 
Q 37.3125 74.21875 42.625 73.28125 
Q 47.953125 72.359375 53.515625 70.515625 
z
" id="DejaVuSans-83"/>
      <path d="M 9.421875 54.6875 
L 18.40625 54.6875 
L 18.40625 0 
L 9.421875 0 
z
M 9.421875 75.984375 
L 18.40625 75.984375 
L 18.40625 64.59375 
L 9.421875 64.59375 
z
" id="DejaVuSans-105"/>
      <path d="M 5.515625 54.6875 
L 48.1875 54.6875 
L 48.1875 46.484375 
L 14.40625 7.171875 
L 48.1875 7.171875 
L 48.1875 0 
L 4.296875 0 
L 4.296875 8.203125 
L 38.09375 47.515625 
L 5.515625 47.515625 
z
" id="DejaVuSans-122"/>
      <path d="M 31 75.875 
Q 24.46875 64.65625 21.28125 53.65625 
Q 18.109375 42.671875 18.109375 31.390625 
Q 18.109375 20.125 21.3125 9.0625 
Q 24.515625 -2 31 -13.1875 
L 23.1875 -13.1875 
Q 15.875 -1.703125 12.234375 9.375 
Q 8.59375 20.453125 8.59375 31.390625 
Q 8.59375 42.28125 12.203125 53.3125 
Q 15.828125 64.359375 23.1875 75.875 
z
" id="DejaVuSans-40"/>
      <path d="M 8.59375 75.984375 
L 29.296875 75.984375 
L 29.296875 69 
L 17.578125 69 
L 17.578125 -6.203125 
L 29.296875 -6.203125 
L 29.296875 -13.1875 
L 8.59375 -13.1875 
z
" id="DejaVuSans-91"/>
      <path d="M 11.71875 12.40625 
L 22.015625 12.40625 
L 22.015625 4 
L 14.015625 -11.625 
L 7.71875 -11.625 
L 11.71875 4 
z
" id="DejaVuSans-44"/>
      <path d="M 31.78125 34.625 
Q 24.75 34.625 20.71875 30.859375 
Q 16.703125 27.09375 16.703125 20.515625 
Q 16.703125 13.921875 20.71875 10.15625 
Q 24.75 6.390625 31.78125 6.390625 
Q 38.8125 6.390625 42.859375 10.171875 
Q 46.921875 13.96875 46.921875 20.515625 
Q 46.921875 27.09375 42.890625 30.859375 
Q 38.875 34.625 31.78125 34.625 
z
M 21.921875 38.8125 
Q 15.578125 40.375 12.03125 44.71875 
Q 8.5 49.078125 8.5 55.328125 
Q 8.5 64.0625 14.71875 69.140625 
Q 20.953125 74.21875 31.78125 74.21875 
Q 42.671875 74.21875 48.875 69.140625 
Q 55.078125 64.0625 55.078125 55.328125 
Q 55.078125 49.078125 51.53125 44.71875 
Q 48 40.375 41.703125 38.8125 
Q 48.828125 37.15625 52.796875 32.3125 
Q 56.78125 27.484375 56.78125 20.515625 
Q 56.78125 9.90625 50.3125 4.234375 
Q 43.84375 -1.421875 31.78125 -1.421875 
Q 19.734375 -1.421875 13.25 4.234375 
Q 6.78125 9.90625 6.78125 20.515625 
Q 6.78125 27.484375 10.78125 32.3125 
Q 14.796875 37.15625 21.921875 38.8125 
z
M 18.3125 54.390625 
Q 18.3125 48.734375 21.84375 45.5625 
Q 25.390625 42.390625 31.78125 42.390625 
Q 38.140625 42.390625 41.71875 45.5625 
Q 45.3125 48.734375 45.3125 54.390625 
Q 45.3125 60.0625 41.71875 63.234375 
Q 38.140625 66.40625 31.78125 66.40625 
Q 25.390625 66.40625 21.84375 63.234375 
Q 18.3125 60.0625 18.3125 54.390625 
z
" id="DejaVuSans-56"/>
      <path d="M 33.015625 40.375 
Q 26.375 40.375 22.484375 35.828125 
Q 18.609375 31.296875 18.609375 23.390625 
Q 18.609375 15.53125 22.484375 10.953125 
Q 26.375 6.390625 33.015625 6.390625 
Q 39.65625 6.390625 43.53125 10.953125 
Q 47.40625 15.53125 47.40625 23.390625 
Q 47.40625 31.296875 43.53125 35.828125 
Q 39.65625 40.375 33.015625 40.375 
z
M 52.59375 71.296875 
L 52.59375 62.3125 
Q 48.875 64.0625 45.09375 64.984375 
Q 41.3125 65.921875 37.59375 65.921875 
Q 27.828125 65.921875 22.671875 59.328125 
Q 17.53125 52.734375 16.796875 39.40625 
Q 19.671875 43.65625 24.015625 45.921875 
Q 28.375 48.1875 33.59375 48.1875 
Q 44.578125 48.1875 50.953125 41.515625 
Q 57.328125 34.859375 57.328125 23.390625 
Q 57.328125 12.15625 50.6875 5.359375 
Q 44.046875 -1.421875 33.015625 -1.421875 
Q 20.359375 -1.421875 13.671875 8.265625 
Q 6.984375 17.96875 6.984375 36.375 
Q 6.984375 53.65625 15.1875 63.9375 
Q 23.390625 74.21875 37.203125 74.21875 
Q 40.921875 74.21875 44.703125 73.484375 
Q 48.484375 72.75 52.59375 71.296875 
z
" id="DejaVuSans-54"/>
      <path d="M 30.421875 75.984375 
L 30.421875 -13.1875 
L 9.71875 -13.1875 
L 9.71875 -6.203125 
L 21.390625 -6.203125 
L 21.390625 69 
L 9.71875 69 
L 9.71875 75.984375 
z
" id="DejaVuSans-93"/>
      <path d="M 8.015625 75.875 
L 15.828125 75.875 
Q 23.140625 64.359375 26.78125 53.3125 
Q 30.421875 42.28125 30.421875 31.390625 
Q 30.421875 20.453125 26.78125 9.375 
Q 23.140625 -1.703125 15.828125 -13.1875 
L 8.015625 -13.1875 
Q 14.5 -2 17.703125 9.0625 
Q 20.90625 20.125 20.90625 31.390625 
Q 20.90625 42.671875 17.703125 53.65625 
Q 14.5 64.65625 8.015625 75.875 
z
" id="DejaVuSans-41"/>
      <path d="M 8.6875 72.90625 
L 18.609375 72.90625 
L 18.609375 28.609375 
Q 18.609375 16.890625 22.84375 11.734375 
Q 27.09375 6.59375 36.625 6.59375 
Q 46.09375 6.59375 50.34375 11.734375 
Q 54.59375 16.890625 54.59375 28.609375 
L 54.59375 72.90625 
L 64.5 72.90625 
L 64.5 27.390625 
Q 64.5 13.140625 57.4375 5.859375 
Q 50.390625 -1.421875 36.625 -1.421875 
Q 22.796875 -1.421875 15.734375 5.859375 
Q 8.6875 13.140625 8.6875 27.390625 
z
" id="DejaVuSans-85"/>
      <path d="M 54.890625 33.015625 
L 54.890625 0 
L 45.90625 0 
L 45.90625 32.71875 
Q 45.90625 40.484375 42.875 44.328125 
Q 39.84375 48.1875 33.796875 48.1875 
Q 26.515625 48.1875 22.3125 43.546875 
Q 18.109375 38.921875 18.109375 30.90625 
L 18.109375 0 
L 9.078125 0 
L 9.078125 54.6875 
L 18.109375 54.6875 
L 18.109375 46.1875 
Q 21.34375 51.125 25.703125 53.5625 
Q 30.078125 56 35.796875 56 
Q 45.21875 56 50.046875 50.171875 
Q 54.890625 44.34375 54.890625 33.015625 
z
" id="DejaVuSans-110"/>
      <path d="M 37.109375 75.984375 
L 37.109375 68.5 
L 28.515625 68.5 
Q 23.6875 68.5 21.796875 66.546875 
Q 19.921875 64.59375 19.921875 59.515625 
L 19.921875 54.6875 
L 34.71875 54.6875 
L 34.71875 47.703125 
L 19.921875 47.703125 
L 19.921875 0 
L 10.890625 0 
L 10.890625 47.703125 
L 2.296875 47.703125 
L 2.296875 54.6875 
L 10.890625 54.6875 
L 10.890625 58.5 
Q 10.890625 67.625 15.140625 71.796875 
Q 19.390625 75.984375 28.609375 75.984375 
z
" id="DejaVuSans-102"/>
      <path d="M 52 44.1875 
Q 55.375 50.25 60.0625 53.125 
Q 64.75 56 71.09375 56 
Q 79.640625 56 84.28125 50.015625 
Q 88.921875 44.046875 88.921875 33.015625 
L 88.921875 0 
L 79.890625 0 
L 79.890625 32.71875 
Q 79.890625 40.578125 77.09375 44.375 
Q 74.3125 48.1875 68.609375 48.1875 
Q 61.625 48.1875 57.5625 43.546875 
Q 53.515625 38.921875 53.515625 30.90625 
L 53.515625 0 
L 44.484375 0 
L 44.484375 32.71875 
Q 44.484375 40.625 41.703125 44.40625 
Q 38.921875 48.1875 33.109375 48.1875 
Q 26.21875 48.1875 22.15625 43.53125 
Q 18.109375 38.875 18.109375 30.90625 
L 18.109375 0 
L 9.078125 0 
L 9.078125 54.6875 
L 18.109375 54.6875 
L 18.109375 46.1875 
Q 21.1875 51.21875 25.484375 53.609375 
Q 29.78125 56 35.6875 56 
Q 41.65625 56 45.828125 52.96875 
Q 50 49.953125 52 44.1875 
z
" id="DejaVuSans-109"/>
      <path d="M 45.40625 27.984375 
Q 45.40625 37.75 41.375 43.109375 
Q 37.359375 48.484375 30.078125 48.484375 
Q 22.859375 48.484375 18.828125 43.109375 
Q 14.796875 37.75 14.796875 27.984375 
Q 14.796875 18.265625 18.828125 12.890625 
Q 22.859375 7.515625 30.078125 7.515625 
Q 37.359375 7.515625 41.375 12.890625 
Q 45.40625 18.265625 45.40625 27.984375 
z
M 54.390625 6.78125 
Q 54.390625 -7.171875 48.1875 -13.984375 
Q 42 -20.796875 29.203125 -20.796875 
Q 24.46875 -20.796875 20.265625 -20.09375 
Q 16.0625 -19.390625 12.109375 -17.921875 
L 12.109375 -9.1875 
Q 16.0625 -11.328125 19.921875 -12.34375 
Q 23.78125 -13.375 27.78125 -13.375 
Q 36.625 -13.375 41.015625 -8.765625 
Q 45.40625 -4.15625 45.40625 5.171875 
L 45.40625 9.625 
Q 42.625 4.78125 38.28125 2.390625 
Q 33.9375 0 27.875 0 
Q 17.828125 0 11.671875 7.65625 
Q 5.515625 15.328125 5.515625 27.984375 
Q 5.515625 40.671875 11.671875 48.328125 
Q 17.828125 56 27.875 56 
Q 33.9375 56 38.28125 53.609375 
Q 42.625 51.21875 45.40625 46.390625 
L 45.40625 54.6875 
L 54.390625 54.6875 
z
" id="DejaVuSans-103"/>
     </defs>
     <use xlink:href="#DejaVuSans-51"/>
     <use x="63.623047" xlink:href="#DejaVuSans-116"/>
     <use x="102.832031" xlink:href="#DejaVuSans-104"/>
     <use x="166.210938" xlink:href="#DejaVuSans-32"/>
     <use x="197.998047" xlink:href="#DejaVuSans-108"/>
     <use x="225.78125" xlink:href="#DejaVuSans-97"/>
     <use x="287.060547" xlink:href="#DejaVuSans-121"/>
     <use x="346.240234" xlink:href="#DejaVuSans-101"/>
     <use x="407.763672" xlink:href="#DejaVuSans-114"/>
     <use x="448.876953" xlink:href="#DejaVuSans-39"/>
     <use x="476.367188" xlink:href="#DejaVuSans-115"/>
     <use x="528.466797" xlink:href="#DejaVuSans-32"/>
     <use x="560.253906" xlink:href="#DejaVuSans-115"/>
     <use x="612.353516" xlink:href="#DejaVuSans-104"/>
     <use x="675.732422" xlink:href="#DejaVuSans-97"/>
     <use x="737.011719" xlink:href="#DejaVuSans-112"/>
     <use x="800.488281" xlink:href="#DejaVuSans-101"/>
     <use x="862.011719" xlink:href="#DejaVuSans-58"/>
     <use x="895.703125" xlink:href="#DejaVuSans-32"/>
     <use x="927.490234" xlink:href="#DejaVuSans-116"/>
     <use x="966.699219" xlink:href="#DejaVuSans-111"/>
     <use x="1027.880859" xlink:href="#DejaVuSans-114"/>
     <use x="1066.744141" xlink:href="#DejaVuSans-99"/>
     <use x="1121.724609" xlink:href="#DejaVuSans-104"/>
     <use x="1185.103516" xlink:href="#DejaVuSans-46"/>
     <use x="1216.890625" xlink:href="#DejaVuSans-83"/>
     <use x="1280.367188" xlink:href="#DejaVuSans-105"/>
     <use x="1308.150391" xlink:href="#DejaVuSans-122"/>
     <use x="1360.640625" xlink:href="#DejaVuSans-101"/>
     <use x="1422.164062" xlink:href="#DejaVuSans-40"/>
     <use x="1461.177734" xlink:href="#DejaVuSans-91"/>
     <use x="1500.191406" xlink:href="#DejaVuSans-49"/>
     <use x="1563.814453" xlink:href="#DejaVuSans-44"/>
     <use x="1595.601562" xlink:href="#DejaVuSans-32"/>
     <use x="1627.388672" xlink:href="#DejaVuSans-49"/>
     <use x="1691.011719" xlink:href="#DejaVuSans-50"/>
     <use x="1754.634766" xlink:href="#DejaVuSans-56"/>
     <use x="1818.257812" xlink:href="#DejaVuSans-44"/>
     <use x="1850.044922" xlink:href="#DejaVuSans-32"/>
     <use x="1881.832031" xlink:href="#DejaVuSans-50"/>
     <use x="1945.455078" xlink:href="#DejaVuSans-53"/>
     <use x="2009.078125" xlink:href="#DejaVuSans-54"/>
     <use x="2072.701172" xlink:href="#DejaVuSans-93"/>
     <use x="2111.714844" xlink:href="#DejaVuSans-41"/>
     <use x="2150.728516" xlink:href="#DejaVuSans-46"/>
     <use x="2182.515625" xlink:href="#DejaVuSans-32"/>
     <use x="2214.302734" xlink:href="#DejaVuSans-85"/>
     <use x="2287.496094" xlink:href="#DejaVuSans-110"/>
     <use x="2350.875" xlink:href="#DejaVuSans-105"/>
     <use x="2378.658203" xlink:href="#DejaVuSans-102"/>
     <use x="2413.863281" xlink:href="#DejaVuSans-111"/>
     <use x="2475.044922" xlink:href="#DejaVuSans-114"/>
     <use x="2514.408203" xlink:href="#DejaVuSans-109"/>
     <use x="2611.820312" xlink:href="#DejaVuSans-108"/>
     <use x="2639.603516" xlink:href="#DejaVuSans-121"/>
     <use x="2698.783203" xlink:href="#DejaVuSans-32"/>
     <use x="2730.570312" xlink:href="#DejaVuSans-115"/>
     <use x="2782.669922" xlink:href="#DejaVuSans-97"/>
     <use x="2843.949219" xlink:href="#DejaVuSans-109"/>
     <use x="2941.361328" xlink:href="#DejaVuSans-112"/>
     <use x="3004.837891" xlink:href="#DejaVuSans-108"/>
     <use x="3032.621094" xlink:href="#DejaVuSans-105"/>
     <use x="3060.404297" xlink:href="#DejaVuSans-110"/>
     <use x="3123.783203" xlink:href="#DejaVuSans-103"/>
     <use x="3187.259766" xlink:href="#DejaVuSans-32"/>
     <use x="3219.046875" xlink:href="#DejaVuSans-49"/>
     <use x="3282.669922" xlink:href="#DejaVuSans-54"/>
     <use x="3346.292969" xlink:href="#DejaVuSans-32"/>
     <use x="3378.080078" xlink:href="#DejaVuSans-99"/>
     <use x="3433.060547" xlink:href="#DejaVuSans-104"/>
     <use x="3496.439453" xlink:href="#DejaVuSans-97"/>
     <use x="3557.71875" xlink:href="#DejaVuSans-110"/>
     <use x="3621.097656" xlink:href="#DejaVuSans-110"/>
     <use x="3684.476562" xlink:href="#DejaVuSans-101"/>
     <use x="3746" xlink:href="#DejaVuSans-108"/>
     <use x="3773.783203" xlink:href="#DejaVuSans-115"/>
    </g>
   </g>
  </g>
 </g>
 <defs>
  <clipPath id="p8ff2390f57">
   <rect height="266.112" width="892.8" x="144" y="41.472"/>
  </clipPath>
 </defs>
</svg>
