<?xml version="1.0" encoding="utf-8" standalone="no"?>
<!DOCTYPE svg PUBLIC "-//W3C//DTD SVG 1.1//EN"
  "http://www.w3.org/Graphics/SVG/1.1/DTD/svg11.dtd">
<!-- Created with matplotlib (https://matplotlib.org/) -->
<svg height="345.6pt" version="1.1" viewBox="0 0 1152 345.6" width="1152pt" xmlns="http://www.w3.org/2000/svg" xmlns:xlink="http://www.w3.org/1999/xlink">
 <metadata>
  <rdf:RDF xmlns:cc="http://creativecommons.org/ns#" xmlns:dc="http://purl.org/dc/elements/1.1/" xmlns:rdf="http://www.w3.org/1999/02/22-rdf-syntax-ns#">
   <cc:Work>
    <dc:type rdf:resource="http://purl.org/dc/dcmitype/StillImage"/>
    <dc:date>2021-12-24T07:19:06.197550</dc:date>
    <dc:format>image/svg+xml</dc:format>
    <dc:creator>
     <cc:Agent>
      <dc:title>Matplotlib v3.3.3, https://matplotlib.org/</dc:title>
     </cc:Agent>
    </dc:creator>
   </cc:Work>
  </rdf:RDF>
 </metadata>
 <defs>
  <style type="text/css">*{stroke-linecap:butt;stroke-linejoin:round;}</style>
 </defs>
 <g id="figure_1">
  <g id="patch_1">
   <path d="M 0 345.6 
L 1152 345.6 
L 1152 0 
L 0 0 
z
" style="fill:#ffffff;"/>
  </g>
  <g id="axes_1">
   <g id="patch_2">
    <path d="M 144 307.584 
L 1036.8 307.584 
L 1036.8 41.472 
L 144 41.472 
z
" style="fill:#ffffff;"/>
   </g>
   <g id="matplotlib.axis_1">
    <g id="xtick_1">
     <g id="line2d_1">
      <defs>
       <path d="M 0 0 
L 0 3.5 
" id="m95ed05a01f" style="stroke:#000000;stroke-width:0.8;"/>
      </defs>
      <g>
       <use style="stroke:#000000;stroke-width:0.8;" x="184.581818" xlink:href="#m95ed05a01f" y="307.584"/>
      </g>
     </g>
     <g id="text_1">
      <!-- 0 -->
      <g transform="translate(181.400568 322.182437)scale(0.1 -0.1)">
       <defs>
        <path d="M 31.78125 66.40625 
Q 24.171875 66.40625 20.328125 58.90625 
Q 16.5 51.421875 16.5 36.375 
Q 16.5 21.390625 20.328125 13.890625 
Q 24.171875 6.390625 31.78125 6.390625 
Q 39.453125 6.390625 43.28125 13.890625 
Q 47.125 21.390625 47.125 36.375 
Q 47.125 51.421875 43.28125 58.90625 
Q 39.453125 66.40625 31.78125 66.40625 
z
M 31.78125 74.21875 
Q 44.046875 74.21875 50.515625 64.515625 
Q 56.984375 54.828125 56.984375 36.375 
Q 56.984375 17.96875 50.515625 8.265625 
Q 44.046875 -1.421875 31.78125 -1.421875 
Q 19.53125 -1.421875 13.0625 8.265625 
Q 6.59375 17.96875 6.59375 36.375 
Q 6.59375 54.828125 13.0625 64.515625 
Q 19.53125 74.21875 31.78125 74.21875 
z
" id="DejaVuSans-48"/>
       </defs>
       <use xlink:href="#DejaVuSans-48"/>
      </g>
     </g>
    </g>
    <g id="xtick_2">
     <g id="line2d_2">
      <g>
       <use style="stroke:#000000;stroke-width:0.8;" x="313.412987" xlink:href="#m95ed05a01f" y="307.584"/>
      </g>
     </g>
     <g id="text_2">
      <!-- 10 -->
      <g transform="translate(307.050487 322.182437)scale(0.1 -0.1)">
       <defs>
        <path d="M 12.40625 8.296875 
L 28.515625 8.296875 
L 28.515625 63.921875 
L 10.984375 60.40625 
L 10.984375 69.390625 
L 28.421875 72.90625 
L 38.28125 72.90625 
L 38.28125 8.296875 
L 54.390625 8.296875 
L 54.390625 0 
L 12.40625 0 
z
" id="DejaVuSans-49"/>
       </defs>
       <use xlink:href="#DejaVuSans-49"/>
       <use x="63.623047" xlink:href="#DejaVuSans-48"/>
      </g>
     </g>
    </g>
    <g id="xtick_3">
     <g id="line2d_3">
      <g>
       <use style="stroke:#000000;stroke-width:0.8;" x="442.244156" xlink:href="#m95ed05a01f" y="307.584"/>
      </g>
     </g>
     <g id="text_3">
      <!-- 20 -->
      <g transform="translate(435.881656 322.182437)scale(0.1 -0.1)">
       <defs>
        <path d="M 19.1875 8.296875 
L 53.609375 8.296875 
L 53.609375 0 
L 7.328125 0 
L 7.328125 8.296875 
Q 12.9375 14.109375 22.625 23.890625 
Q 32.328125 33.6875 34.8125 36.53125 
Q 39.546875 41.84375 41.421875 45.53125 
Q 43.3125 49.21875 43.3125 52.78125 
Q 43.3125 58.59375 39.234375 62.25 
Q 35.15625 65.921875 28.609375 65.921875 
Q 23.96875 65.921875 18.8125 64.3125 
Q 13.671875 62.703125 7.8125 59.421875 
L 7.8125 69.390625 
Q 13.765625 71.78125 18.9375 73 
Q 24.125 74.21875 28.421875 74.21875 
Q 39.75 74.21875 46.484375 68.546875 
Q 53.21875 62.890625 53.21875 53.421875 
Q 53.21875 48.921875 51.53125 44.890625 
Q 49.859375 40.875 45.40625 35.40625 
Q 44.1875 33.984375 37.640625 27.21875 
Q 31.109375 20.453125 19.1875 8.296875 
z
" id="DejaVuSans-50"/>
       </defs>
       <use xlink:href="#DejaVuSans-50"/>
       <use x="63.623047" xlink:href="#DejaVuSans-48"/>
      </g>
     </g>
    </g>
    <g id="xtick_4">
     <g id="line2d_4">
      <g>
       <use style="stroke:#000000;stroke-width:0.8;" x="571.075325" xlink:href="#m95ed05a01f" y="307.584"/>
      </g>
     </g>
     <g id="text_4">
      <!-- 30 -->
      <g transform="translate(564.712825 322.182437)scale(0.1 -0.1)">
       <defs>
        <path d="M 40.578125 39.3125 
Q 47.65625 37.796875 51.625 33 
Q 55.609375 28.21875 55.609375 21.1875 
Q 55.609375 10.40625 48.1875 4.484375 
Q 40.765625 -1.421875 27.09375 -1.421875 
Q 22.515625 -1.421875 17.65625 -0.515625 
Q 12.796875 0.390625 7.625 2.203125 
L 7.625 11.71875 
Q 11.71875 9.328125 16.59375 8.109375 
Q 21.484375 6.890625 26.8125 6.890625 
Q 36.078125 6.890625 40.9375 10.546875 
Q 45.796875 14.203125 45.796875 21.1875 
Q 45.796875 27.640625 41.28125 31.265625 
Q 36.765625 34.90625 28.71875 34.90625 
L 20.21875 34.90625 
L 20.21875 43.015625 
L 29.109375 43.015625 
Q 36.375 43.015625 40.234375 45.921875 
Q 44.09375 48.828125 44.09375 54.296875 
Q 44.09375 59.90625 40.109375 62.90625 
Q 36.140625 65.921875 28.71875 65.921875 
Q 24.65625 65.921875 20.015625 65.03125 
Q 15.375 64.15625 9.8125 62.3125 
L 9.8125 71.09375 
Q 15.4375 72.65625 20.34375 73.4375 
Q 25.25 74.21875 29.59375 74.21875 
Q 40.828125 74.21875 47.359375 69.109375 
Q 53.90625 64.015625 53.90625 55.328125 
Q 53.90625 49.265625 50.4375 45.09375 
Q 46.96875 40.921875 40.578125 39.3125 
z
" id="DejaVuSans-51"/>
       </defs>
       <use xlink:href="#DejaVuSans-51"/>
       <use x="63.623047" xlink:href="#DejaVuSans-48"/>
      </g>
     </g>
    </g>
    <g id="xtick_5">
     <g id="line2d_5">
      <g>
       <use style="stroke:#000000;stroke-width:0.8;" x="699.906494" xlink:href="#m95ed05a01f" y="307.584"/>
      </g>
     </g>
     <g id="text_5">
      <!-- 40 -->
      <g transform="translate(693.543994 322.182437)scale(0.1 -0.1)">
       <defs>
        <path d="M 37.796875 64.3125 
L 12.890625 25.390625 
L 37.796875 25.390625 
z
M 35.203125 72.90625 
L 47.609375 72.90625 
L 47.609375 25.390625 
L 58.015625 25.390625 
L 58.015625 17.1875 
L 47.609375 17.1875 
L 47.609375 0 
L 37.796875 0 
L 37.796875 17.1875 
L 4.890625 17.1875 
L 4.890625 26.703125 
z
" id="DejaVuSans-52"/>
       </defs>
       <use xlink:href="#DejaVuSans-52"/>
       <use x="63.623047" xlink:href="#DejaVuSans-48"/>
      </g>
     </g>
    </g>
    <g id="xtick_6">
     <g id="line2d_6">
      <g>
       <use style="stroke:#000000;stroke-width:0.8;" x="828.737662" xlink:href="#m95ed05a01f" y="307.584"/>
      </g>
     </g>
     <g id="text_6">
      <!-- 50 -->
      <g transform="translate(822.375162 322.182437)scale(0.1 -0.1)">
       <defs>
        <path d="M 10.796875 72.90625 
L 49.515625 72.90625 
L 49.515625 64.59375 
L 19.828125 64.59375 
L 19.828125 46.734375 
Q 21.96875 47.46875 24.109375 47.828125 
Q 26.265625 48.1875 28.421875 48.1875 
Q 40.625 48.1875 47.75 41.5 
Q 54.890625 34.8125 54.890625 23.390625 
Q 54.890625 11.625 47.5625 5.09375 
Q 40.234375 -1.421875 26.90625 -1.421875 
Q 22.3125 -1.421875 17.546875 -0.640625 
Q 12.796875 0.140625 7.71875 1.703125 
L 7.71875 11.625 
Q 12.109375 9.234375 16.796875 8.0625 
Q 21.484375 6.890625 26.703125 6.890625 
Q 35.15625 6.890625 40.078125 11.328125 
Q 45.015625 15.765625 45.015625 23.390625 
Q 45.015625 31 40.078125 35.4375 
Q 35.15625 39.890625 26.703125 39.890625 
Q 22.75 39.890625 18.8125 39.015625 
Q 14.890625 38.140625 10.796875 36.28125 
z
" id="DejaVuSans-53"/>
       </defs>
       <use xlink:href="#DejaVuSans-53"/>
       <use x="63.623047" xlink:href="#DejaVuSans-48"/>
      </g>
     </g>
    </g>
    <g id="xtick_7">
     <g id="line2d_7">
      <g>
       <use style="stroke:#000000;stroke-width:0.8;" x="957.568831" xlink:href="#m95ed05a01f" y="307.584"/>
      </g>
     </g>
     <g id="text_7">
      <!-- 60 -->
      <g transform="translate(951.206331 322.182437)scale(0.1 -0.1)">
       <defs>
        <path d="M 33.015625 40.375 
Q 26.375 40.375 22.484375 35.828125 
Q 18.609375 31.296875 18.609375 23.390625 
Q 18.609375 15.53125 22.484375 10.953125 
Q 26.375 6.390625 33.015625 6.390625 
Q 39.65625 6.390625 43.53125 10.953125 
Q 47.40625 15.53125 47.40625 23.390625 
Q 47.40625 31.296875 43.53125 35.828125 
Q 39.65625 40.375 33.015625 40.375 
z
M 52.59375 71.296875 
L 52.59375 62.3125 
Q 48.875 64.0625 45.09375 64.984375 
Q 41.3125 65.921875 37.59375 65.921875 
Q 27.828125 65.921875 22.671875 59.328125 
Q 17.53125 52.734375 16.796875 39.40625 
Q 19.671875 43.65625 24.015625 45.921875 
Q 28.375 48.1875 33.59375 48.1875 
Q 44.578125 48.1875 50.953125 41.515625 
Q 57.328125 34.859375 57.328125 23.390625 
Q 57.328125 12.15625 50.6875 5.359375 
Q 44.046875 -1.421875 33.015625 -1.421875 
Q 20.359375 -1.421875 13.671875 8.265625 
Q 6.984375 17.96875 6.984375 36.375 
Q 6.984375 53.65625 15.1875 63.9375 
Q 23.390625 74.21875 37.203125 74.21875 
Q 40.921875 74.21875 44.703125 73.484375 
Q 48.484375 72.75 52.59375 71.296875 
z
" id="DejaVuSans-54"/>
       </defs>
       <use xlink:href="#DejaVuSans-54"/>
       <use x="63.623047" xlink:href="#DejaVuSans-48"/>
      </g>
     </g>
    </g>
   </g>
   <g id="matplotlib.axis_2">
    <g id="ytick_1">
     <g id="line2d_8">
      <defs>
       <path d="M 0 0 
L -3.5 0 
" id="m44c21a3d9c" style="stroke:#000000;stroke-width:0.8;"/>
      </defs>
      <g>
       <use style="stroke:#000000;stroke-width:0.8;" x="144" xlink:href="#m44c21a3d9c" y="289.83768"/>
      </g>
     </g>
     <g id="text_8">
      <!-- −0.15 -->
      <g transform="translate(106.354687 293.636899)scale(0.1 -0.1)">
       <defs>
        <path d="M 10.59375 35.5 
L 73.1875 35.5 
L 73.1875 27.203125 
L 10.59375 27.203125 
z
" id="DejaVuSans-8722"/>
        <path d="M 10.6875 12.40625 
L 21 12.40625 
L 21 0 
L 10.6875 0 
z
" id="DejaVuSans-46"/>
       </defs>
       <use xlink:href="#DejaVuSans-8722"/>
       <use x="83.789062" xlink:href="#DejaVuSans-48"/>
       <use x="147.412109" xlink:href="#DejaVuSans-46"/>
       <use x="179.199219" xlink:href="#DejaVuSans-49"/>
       <use x="242.822266" xlink:href="#DejaVuSans-53"/>
      </g>
     </g>
    </g>
    <g id="ytick_2">
     <g id="line2d_9">
      <g>
       <use style="stroke:#000000;stroke-width:0.8;" x="144" xlink:href="#m44c21a3d9c" y="251.448712"/>
      </g>
     </g>
     <g id="text_9">
      <!-- −0.10 -->
      <g transform="translate(106.354687 255.24793)scale(0.1 -0.1)">
       <use xlink:href="#DejaVuSans-8722"/>
       <use x="83.789062" xlink:href="#DejaVuSans-48"/>
       <use x="147.412109" xlink:href="#DejaVuSans-46"/>
       <use x="179.199219" xlink:href="#DejaVuSans-49"/>
       <use x="242.822266" xlink:href="#DejaVuSans-48"/>
      </g>
     </g>
    </g>
    <g id="ytick_3">
     <g id="line2d_10">
      <g>
       <use style="stroke:#000000;stroke-width:0.8;" x="144" xlink:href="#m44c21a3d9c" y="213.059744"/>
      </g>
     </g>
     <g id="text_10">
      <!-- −0.05 -->
      <g transform="translate(106.354687 216.858962)scale(0.1 -0.1)">
       <use xlink:href="#DejaVuSans-8722"/>
       <use x="83.789062" xlink:href="#DejaVuSans-48"/>
       <use x="147.412109" xlink:href="#DejaVuSans-46"/>
       <use x="179.199219" xlink:href="#DejaVuSans-48"/>
       <use x="242.822266" xlink:href="#DejaVuSans-53"/>
      </g>
     </g>
    </g>
    <g id="ytick_4">
     <g id="line2d_11">
      <g>
       <use style="stroke:#000000;stroke-width:0.8;" x="144" xlink:href="#m44c21a3d9c" y="174.670776"/>
      </g>
     </g>
     <g id="text_11">
      <!-- 0.00 -->
      <g transform="translate(114.734375 178.469994)scale(0.1 -0.1)">
       <use xlink:href="#DejaVuSans-48"/>
       <use x="63.623047" xlink:href="#DejaVuSans-46"/>
       <use x="95.410156" xlink:href="#DejaVuSans-48"/>
       <use x="159.033203" xlink:href="#DejaVuSans-48"/>
      </g>
     </g>
    </g>
    <g id="ytick_5">
     <g id="line2d_12">
      <g>
       <use style="stroke:#000000;stroke-width:0.8;" x="144" xlink:href="#m44c21a3d9c" y="136.281807"/>
      </g>
     </g>
     <g id="text_12">
      <!-- 0.05 -->
      <g transform="translate(114.734375 140.081026)scale(0.1 -0.1)">
       <use xlink:href="#DejaVuSans-48"/>
       <use x="63.623047" xlink:href="#DejaVuSans-46"/>
       <use x="95.410156" xlink:href="#DejaVuSans-48"/>
       <use x="159.033203" xlink:href="#DejaVuSans-53"/>
      </g>
     </g>
    </g>
    <g id="ytick_6">
     <g id="line2d_13">
      <g>
       <use style="stroke:#000000;stroke-width:0.8;" x="144" xlink:href="#m44c21a3d9c" y="97.892839"/>
      </g>
     </g>
     <g id="text_13">
      <!-- 0.10 -->
      <g transform="translate(114.734375 101.692058)scale(0.1 -0.1)">
       <use xlink:href="#DejaVuSans-48"/>
       <use x="63.623047" xlink:href="#DejaVuSans-46"/>
       <use x="95.410156" xlink:href="#DejaVuSans-49"/>
       <use x="159.033203" xlink:href="#DejaVuSans-48"/>
      </g>
     </g>
    </g>
    <g id="ytick_7">
     <g id="line2d_14">
      <g>
       <use style="stroke:#000000;stroke-width:0.8;" x="144" xlink:href="#m44c21a3d9c" y="59.503871"/>
      </g>
     </g>
     <g id="text_14">
      <!-- 0.15 -->
      <g transform="translate(114.734375 63.30309)scale(0.1 -0.1)">
       <use xlink:href="#DejaVuSans-48"/>
       <use x="63.623047" xlink:href="#DejaVuSans-46"/>
       <use x="95.410156" xlink:href="#DejaVuSans-49"/>
       <use x="159.033203" xlink:href="#DejaVuSans-53"/>
      </g>
     </g>
    </g>
   </g>
   <g id="line2d_15">
    <path clip-path="url(#p19d82365d3)" d="M 184.581818 135.001335 
L 197.464935 154.682116 
L 210.348052 183.410992 
L 223.231169 208.576522 
L 236.114286 225.516323 
L 248.997403 218.47341 
L 261.880519 192.410975 
L 274.763636 165.241184 
L 287.646753 140.634115 
L 300.52987 124.409333 
L 313.412987 131.966876 
L 326.296104 158.402403 
L 339.179221 185.8498 
L 352.062338 210.719016 
L 364.945455 226.046678 
L 377.828571 216.534497 
L 390.711688 189.774277 
L 403.594805 162.860058 
L 416.477922 138.554002 
L 429.361039 123.938366 
L 442.244156 133.944957 
L 455.127273 161.066435 
L 468.01039 188.260529 
L 480.893506 212.792315 
L 493.776623 226.338207 
L 506.65974 214.439674 
L 519.542857 187.152923 
L 532.425974 160.496326 
L 545.309091 136.545289 
L 558.192208 123.703406 
L 571.075325 136.078206 
L 583.958442 163.714023 
L 596.841558 190.654833 
L 609.724675 214.782034 
L 622.607792 226.383273 
L 635.490909 212.209509 
L 648.374026 184.552556 
L 661.257143 158.148684 
L 674.14026 134.622138 
L 687.023377 123.711993 
L 699.906494 138.346108 
L 712.78961 166.33958 
L 725.672727 193.033699 
L 738.555844 216.672447 
L 751.438961 226.17731 
L 764.322078 209.864745 
L 777.205195 181.977159 
L 790.088312 155.816807 
L 802.971429 132.799915 
L 815.854545 123.96877 
L 828.737662 140.727938 
L 841.620779 168.939528 
L 854.503896 195.397053 
L 867.387013 218.446598 
L 880.27013 225.719672 
L 893.153247 207.425763 
L 906.036364 179.429142 
L 918.919481 153.501388 
L 931.802597 131.094901 
L 944.685714 124.475134 
L 957.568831 143.203119 
L 970.451948 171.431689 
L 983.335065 199.71374 
L 996.218182 204.407699 
" style="fill:none;stroke:#1f77b4;stroke-linecap:square;stroke-width:1.5;"/>
   </g>
   <g id="line2d_16">
    <path clip-path="url(#p19d82365d3)" d="M 184.581818 195.33762 
L 197.464935 242.843935 
L 210.348052 253.277022 
L 223.231169 236.976439 
L 236.114286 195.474698 
L 248.997403 144.04719 
L 261.880519 108.41613 
L 274.763636 99.135092 
L 287.646753 116.362123 
L 300.52987 158.312386 
L 313.412987 209.688379 
L 326.296104 244.735604 
L 339.179221 252.889282 
L 352.062338 234.102395 
L 364.945455 190.716718 
L 377.828571 139.75815 
L 390.711688 106.425436 
L 403.594805 99.618066 
L 416.477922 119.30134 
L 429.361039 163.08403 
L 442.244156 213.949086 
L 455.127273 246.641562 
L 468.01039 252.278995 
L 480.893506 231.00395 
L 493.776623 185.88351 
L 506.65974 135.639045 
L 519.542857 104.668391 
L 532.425974 100.328276 
L 545.309091 122.46046 
L 558.192208 167.926878 
L 571.075325 218.034929 
L 583.958442 248.309425 
L 596.841558 251.437518 
L 609.724675 227.685934 
L 622.607792 180.998957 
L 635.490909 131.704358 
L 648.374026 103.14415 
L 661.257143 101.266262 
L 674.14026 125.834411 
L 687.023377 172.817186 
L 699.906494 221.931387 
L 712.78961 249.740149 
L 725.672727 250.364599 
L 738.555844 224.155039 
L 751.438961 176.087992 
L 764.322078 127.966179 
L 777.205195 101.851991 
L 790.088312 102.43236 
L 802.971429 129.416378 
L 815.854545 177.730139 
L 828.737662 225.625611 
L 841.620779 250.93462 
L 854.503896 249.059444 
L 867.387013 220.419216 
L 880.27013 171.176035 
L 893.153247 124.435166 
L 906.036364 100.790891 
L 918.919481 103.827349 
L 931.802597 133.198367 
L 944.685714 182.640477 
L 957.568831 229.107328 
L 970.451948 251.825813 
L 983.335065 247.752578 
L 996.218182 232.596013 
" style="fill:none;stroke:#ff7f0e;stroke-linecap:square;stroke-width:1.5;"/>
   </g>
   <g id="line2d_17">
    <path clip-path="url(#p19d82365d3)" d="M 184.581818 225.773695 
L 197.464935 213.303413 
L 210.348052 210.454064 
L 223.231169 193.994284 
L 236.114286 170.123225 
L 248.997403 150.751804 
L 261.880519 139.30127 
L 274.763636 140.273017 
L 287.646753 157.154092 
L 300.52987 181.446086 
L 313.412987 200.906733 
L 326.296104 211.69032 
L 339.179221 209.596375 
L 352.062338 191.863399 
L 364.945455 168.030189 
L 377.828571 149.328977 
L 390.711688 138.763088 
L 403.594805 141.198081 
L 416.477922 159.32278 
L 429.361039 183.571231 
L 442.244156 202.299511 
L 455.127273 212.1364 
L 468.01039 208.562616 
L 480.893506 189.678746 
L 493.776623 165.990872 
L 506.65974 147.97172 
L 519.542857 138.33812 
L 532.425974 142.269466 
L 545.309091 161.546111 
L 558.192208 185.639365 
L 571.075325 203.619356 
L 583.958442 212.465906 
L 596.841558 207.38447 
L 609.724675 187.453606 
L 622.607792 164.00914 
L 635.490909 146.681423 
L 648.374026 138.032462 
L 661.257143 143.484691 
L 674.14026 163.81092 
L 687.023377 187.646282 
L 699.906494 204.864788 
L 712.78961 212.672885 
L 725.672727 206.066112 
L 738.555844 185.201005 
L 751.438961 162.08776 
L 764.322078 145.460286 
L 777.205195 137.851851 
L 790.088312 144.83968 
L 802.971429 166.103828 
L 815.854545 189.58824 
L 828.737662 206.034458 
L 841.620779 212.751829 
L 854.503896 204.612532 
L 867.387013 182.934151 
L 880.27013 160.228924 
L 893.153247 144.310975 
L 906.036364 137.801904 
L 918.919481 146.32923 
L 931.802597 168.411786 
L 944.685714 191.462835 
L 957.568831 207.125225 
L 970.451948 212.660972 
L 983.335065 205.602545 
L 996.218182 207.538781 
" style="fill:none;stroke:#2ca02c;stroke-linecap:square;stroke-width:1.5;"/>
   </g>
   <g id="line2d_18">
    <path clip-path="url(#p19d82365d3)" d="M 184.581818 166.791858 
L 197.464935 172.861433 
L 210.348052 168.175152 
L 223.231169 169.738065 
L 236.114286 172.844029 
L 248.997403 174.942946 
L 261.880519 178.370988 
L 274.763636 180.695928 
L 287.646753 179.292043 
L 300.52987 176.171244 
L 313.412987 173.908096 
L 326.296104 170.394005 
L 339.179221 168.233815 
L 352.062338 170.03347 
L 364.945455 173.05976 
L 377.828571 175.191602 
L 390.711688 178.702744 
L 403.594805 180.727856 
L 416.477922 179.006638 
L 429.361039 175.939969 
L 442.244156 173.648479 
L 455.127273 170.06174 
L 468.01039 168.236477 
L 480.893506 170.34018 
L 493.776623 173.260649 
L 506.65974 175.460099 
L 519.542857 179.019529 
L 532.425974 180.72417 
L 545.309091 178.708435 
L 558.192208 175.722423 
L 571.075325 173.36954 
L 583.958442 169.747079 
L 596.841558 168.277395 
L 609.724675 170.653376 
L 622.607792 173.449337 
L 635.490909 175.748087 
L 648.374026 179.317589 
L 661.257143 180.684819 
L 674.14026 178.401909 
L 687.023377 175.516415 
L 699.906494 173.071671 
L 712.78961 169.454199 
L 725.672727 168.355803 
L 738.555844 170.96819 
L 751.438961 173.629398 
L 764.322078 176.054355 
L 777.205195 179.593663 
L 790.088312 180.610236 
L 802.971429 178.091453 
L 815.854545 175.318896 
L 828.737662 172.755902 
L 841.620779 169.186584 
L 854.503896 168.470882 
L 867.387013 171.279911 
L 880.27013 173.804825 
L 893.153247 176.376429 
L 906.036364 179.844705 
L 918.919481 180.501482 
L 931.802597 177.781344 
L 944.685714 175.126378 
L 957.568831 172.424282 
L 970.451948 169.020076 
L 983.335065 170.743747 
L 996.218182 177.270921 
" style="fill:none;stroke:#d62728;stroke-linecap:square;stroke-width:1.5;"/>
   </g>
   <g id="line2d_19">
    <path clip-path="url(#p19d82365d3)" d="M 184.581818 123.747591 
L 197.464935 144.903442 
L 210.348052 175.372816 
L 223.231169 205.925182 
L 236.114286 228.870543 
L 248.997403 226.482035 
L 261.880519 201.845574 
L 274.763636 171.802017 
L 287.646753 141.799026 
L 300.52987 119.59276 
L 313.412987 122.421899 
L 326.296104 147.604016 
L 339.179221 178.175621 
L 352.062338 208.63032 
L 364.945455 229.917463 
L 377.828571 224.843272 
L 390.711688 199.11456 
L 403.594805 168.988017 
L 416.477922 139.165399 
L 429.361039 118.597038 
L 442.244156 124.103463 
L 455.127273 150.387606 
L 468.01039 181.038759 
L 480.893506 211.269945 
L 493.776623 230.711987 
L 506.65974 223.019144 
L 519.542857 196.359219 
L 532.425974 166.172441 
L 545.309091 136.598912 
L 558.192208 117.849679 
L 571.075325 125.972507 
L 583.958442 153.194587 
L 596.841558 183.904016 
L 609.724675 213.828008 
L 622.607792 231.245294 
L 635.490909 221.028399 
L 648.374026 193.58617 
L 661.257143 163.356182 
L 674.14026 134.11503 
L 687.023377 117.360133 
L 699.906494 128.010606 
L 712.78961 156.018039 
L 725.672727 186.770344 
L 738.555844 216.287321 
L 751.438961 231.511584 
L 764.322078 218.889792 
L 777.205195 190.800722 
L 790.088312 160.540567 
L 802.971429 131.730106 
L 815.854545 117.134532 
L 828.737662 130.198688 
L 841.620779 158.853013 
L 854.503896 189.635736 
L 867.387013 218.628985 
L 880.27013 231.508633 
L 893.153247 216.62195 
L 906.036364 188.006724 
L 918.919481 157.727894 
L 931.802597 129.461769 
L 944.685714 117.175987 
L 957.568831 132.517619 
L 970.451948 161.67859 
L 983.335065 191.481172 
L 996.218182 235.078953 
" style="fill:none;stroke:#9467bd;stroke-linecap:square;stroke-width:1.5;"/>
   </g>
   <g id="line2d_20">
    <path clip-path="url(#p19d82365d3)" d="M 184.581818 159.583435 
L 197.464935 179.5288 
L 210.348052 182.678322 
L 223.231169 183.787299 
L 236.114286 180.988102 
L 248.997403 175.446903 
L 261.880519 170.303277 
L 274.763636 166.796734 
L 287.646753 165.891968 
L 300.52987 168.981321 
L 313.412987 174.696409 
L 326.296104 179.679069 
L 339.179221 182.96491 
L 352.062338 183.70499 
L 364.945455 180.536797 
L 377.828571 174.919262 
L 390.711688 169.899803 
L 403.594805 166.580744 
L 416.477922 165.997376 
L 429.361039 169.459816 
L 442.244156 175.221483 
L 455.127273 180.06001 
L 468.01039 183.16358 
L 480.893506 183.586561 
L 493.776623 180.062876 
L 506.65974 174.399069 
L 519.542857 169.510653 
L 532.425974 166.387638 
L 545.309091 166.140328 
L 558.192208 169.959725 
L 571.075325 175.735712 
L 583.958442 180.426608 
L 596.841558 183.339759 
L 609.724675 183.430953 
L 622.607792 179.569681 
L 635.490909 173.887784 
L 648.374026 169.136354 
L 661.257143 166.218713 
L 674.14026 166.321437 
L 687.023377 170.477359 
L 699.906494 176.238103 
L 712.78961 180.778843 
L 725.672727 183.492347 
L 738.555844 183.237958 
L 751.438961 179.060749 
L 764.322078 173.386121 
L 777.205195 168.777287 
L 790.088312 166.075345 
L 802.971429 166.540869 
L 815.854545 171.008688 
L 828.737662 176.727474 
L 841.620779 181.116208 
L 854.503896 183.619684 
L 867.387013 183.007284 
L 880.27013 178.539489 
L 893.153247 172.895471 
L 906.036364 168.43397 
L 918.919481 165.959098 
L 931.802597 166.798971 
L 944.685714 171.54979 
L 957.568831 177.203605 
L 970.451948 181.392143 
L 983.335065 183.096794 
L 996.218182 203.417083 
" style="fill:none;stroke:#8c564b;stroke-linecap:square;stroke-width:1.5;"/>
   </g>
   <g id="line2d_21">
    <path clip-path="url(#p19d82365d3)" d="M 184.581818 160.660227 
L 197.464935 172.136788 
L 210.348052 173.094958 
L 223.231169 175.335988 
L 236.114286 177.332897 
L 248.997403 178.019805 
L 261.880519 177.470685 
L 274.763636 175.92339 
L 287.646753 173.444909 
L 300.52987 171.356654 
L 313.412987 170.856961 
L 326.296104 171.657038 
L 339.179221 173.274931 
L 352.062338 175.551813 
L 364.945455 177.462332 
L 377.828571 178.009788 
L 390.711688 177.373373 
L 403.594805 175.722217 
L 416.477922 173.207321 
L 429.361039 171.236332 
L 442.244156 170.890998 
L 455.127273 171.771851 
L 468.01039 173.467805 
L 480.893506 175.764286 
L 493.776623 177.57883 
L 506.65974 177.989948 
L 519.542857 177.267249 
L 532.425974 175.512321 
L 545.309091 172.974896 
L 558.192208 171.131301 
L 571.075325 170.93533 
L 583.958442 171.893446 
L 596.841558 173.666913 
L 609.724675 175.972366 
L 622.607792 177.681912 
L 635.490909 177.961228 
L 648.374026 177.152146 
L 661.257143 175.294307 
L 674.14026 172.749264 
L 687.023377 171.041666 
L 699.906494 170.989118 
L 712.78961 172.022025 
L 725.672727 173.871614 
L 738.555844 176.175115 
L 751.438961 177.77126 
L 764.322078 177.923979 
L 777.205195 177.027716 
L 790.088312 175.068944 
L 802.971429 172.531698 
L 815.854545 170.967663 
L 828.737662 171.051332 
L 841.620779 172.157846 
L 854.503896 174.081011 
L 867.387013 176.371214 
L 880.27013 177.846679 
L 893.153247 177.878957 
L 906.036364 176.893541 
L 918.919481 174.837266 
L 931.802597 172.323448 
L 944.685714 170.909117 
L 957.568831 171.12137 
L 970.451948 172.355832 
L 983.335065 171.733719 
L 996.218182 166.172751 
" style="fill:none;stroke:#e377c2;stroke-linecap:square;stroke-width:1.5;"/>
   </g>
   <g id="line2d_22">
    <path clip-path="url(#p19d82365d3)" d="M 184.581818 180.343844 
L 197.464935 231.890956 
L 210.348052 258.220187 
L 223.231169 252.948122 
L 236.114286 218.124479 
L 248.997403 164.503851 
L 261.880519 116.48379 
L 274.763636 93.336773 
L 287.646753 99.690812 
L 300.52987 135.020458 
L 313.412987 188.914561 
L 326.296104 236.789891 
L 339.179221 259.024344 
L 352.062338 250.907191 
L 364.945455 213.638057 
L 377.828571 159.399003 
L 390.711688 113.137029 
L 403.594805 92.672382 
L 416.477922 101.795891 
L 429.361039 139.540746 
L 442.244156 194.029783 
L 455.127273 240.087869 
L 468.01039 259.559722 
L 480.893506 248.606817 
L 493.776623 208.99291 
L 506.65974 154.37005 
L 519.542857 110.02481 
L 532.425974 92.263259 
L 545.309091 104.155609 
L 558.192208 144.218321 
L 571.075325 199.065267 
L 583.958442 243.144073 
L 596.841558 259.83179 
L 609.724675 246.050146 
L 622.607792 204.206913 
L 635.490909 149.438997 
L 648.374026 107.152796 
L 661.257143 92.110072 
L 674.14026 106.767424 
L 687.023377 149.035477 
L 699.906494 203.998656 
L 712.78961 245.952859 
L 725.672727 259.840663 
L 738.555844 243.241143 
L 751.438961 199.299011 
L 764.322078 144.626686 
L 777.205195 104.525295 
L 790.088312 92.213154 
L 802.971429 109.627659 
L 815.854545 153.973133 
L 828.737662 208.808902 
L 841.620779 248.510057 
L 854.503896 259.585727 
L 867.387013 240.185253 
L 880.27013 194.289609 
L 893.153247 139.952555 
L 906.036364 102.145585 
L 918.919481 92.572956 
L 931.802597 112.731447 
L 944.685714 159.010674 
L 957.568831 213.476026 
L 970.451948 250.977289 
L 983.335065 258.415121 
L 996.218182 225.660317 
" style="fill:none;stroke:#7f7f7f;stroke-linecap:square;stroke-width:1.5;"/>
   </g>
   <g id="line2d_23">
    <path clip-path="url(#p19d82365d3)" d="M 184.581818 226.369275 
L 197.464935 206.568032 
L 210.348052 168.239927 
L 223.231169 131.853472 
L 236.114286 106.570791 
L 248.997403 112.183009 
L 261.880519 145.018314 
L 274.763636 183.278708 
L 287.646753 218.865386 
L 300.52987 243.191421 
L 313.412987 236.917404 
L 326.296104 203.50703 
L 339.179221 164.769669 
L 352.062338 128.755485 
L 364.945455 105.562627 
L 377.828571 114.429239 
L 390.711688 148.588843 
L 403.594805 186.727316 
L 416.477922 221.871068 
L 429.361039 244.12586 
L 442.244156 234.616298 
L 455.127273 199.888873 
L 468.01039 161.274004 
L 480.893506 125.752855 
L 493.776623 104.857988 
L 506.65974 116.905572 
L 519.542857 152.176177 
L 532.425974 190.153301 
L 545.309091 224.780164 
L 558.192208 244.760167 
L 571.075325 232.085106 
L 583.958442 196.255275 
L 596.841558 157.79985 
L 609.724675 122.863514 
L 622.607792 104.467165 
L 635.490909 119.589539 
L 648.374026 155.770085 
L 661.257143 193.556215 
L 674.14026 227.575542 
L 687.023377 245.084239 
L 699.906494 229.346206 
L 712.78961 192.616639 
L 725.672727 154.348063 
L 738.555844 120.106898 
L 751.438961 104.396872 
L 764.322078 122.457989 
L 777.205195 159.361726 
L 790.088312 196.934702 
L 802.971429 230.238303 
L 815.854545 245.090583 
L 828.737662 226.422824 
L 841.620779 188.981175 
L 854.503896 150.920281 
L 867.387013 117.503743 
L 880.27013 104.649994 
L 893.153247 125.487354 
L 906.036364 162.944517 
L 918.919481 200.286627 
L 931.802597 232.748141 
L 944.685714 244.775721 
L 957.568831 223.338291 
L 970.451948 185.417719 
L 983.335065 148.852359 
L 996.218182 97.223717 
" style="fill:none;stroke:#bcbd22;stroke-linecap:square;stroke-width:1.5;"/>
   </g>
   <g id="line2d_24">
    <path clip-path="url(#p19d82365d3)" d="M 184.581818 112.069751 
L 197.464935 73.751237 
L 210.348052 53.568 
L 223.231169 77.573106 
L 236.114286 140.72021 
L 248.997403 218.109154 
L 261.880519 276.466874 
L 274.763636 295.488 
L 287.646753 269.63688 
L 300.52987 205.668484 
L 313.412987 128.482276 
L 326.296104 71.152138 
L 339.179221 53.860747 
L 352.062338 82.016303 
L 364.945455 147.834493 
L 377.828571 224.769604 
L 390.711688 280.06122 
L 403.594805 294.974674 
L 416.477922 265.071518 
L 429.361039 198.533255 
L 442.244156 121.885022 
L 455.127273 67.689362 
L 468.01039 54.5697 
L 480.893506 86.800001 
L 493.776623 155.050194 
L 506.65974 231.230644 
L 519.542857 283.297492 
L 532.425974 294.067727 
L 545.309091 260.174854 
L 558.192208 191.305466 
L 571.075325 115.494292 
L 583.958442 64.590437 
L 596.841558 55.677364 
L 609.724675 91.910327 
L 622.607792 162.337396 
L 635.490909 237.470556 
L 648.374026 286.168493 
L 661.257143 292.768189 
L 674.14026 254.960593 
L 687.023377 184.014616 
L 699.906494 109.331406 
L 712.78961 61.862629 
L 725.672727 57.182653 
L 738.555844 97.33209 
L 751.438961 169.665695 
L 764.322078 243.469004 
L 777.205195 288.667851 
L 790.088312 291.07789 
L 802.971429 249.444404 
L 815.854545 176.690974 
L 828.737662 103.41655 
L 841.620779 59.512424 
L 854.503896 59.0836 
L 867.387013 103.048442 
L 880.27013 177.005435 
L 893.153247 249.208094 
L 906.036364 290.790532 
L 918.919481 288.999417 
L 931.802597 243.644105 
L 944.685714 169.365212 
L 957.568831 97.76902 
L 970.451948 57.479394 
L 983.335065 60.936541 
L 996.218182 103.874874 
" style="fill:none;stroke:#17becf;stroke-linecap:square;stroke-width:1.5;"/>
   </g>
   <g id="line2d_25">
    <path clip-path="url(#p19d82365d3)" d="M 184.581818 148.742785 
L 197.464935 138.566973 
L 210.348052 124.416678 
L 223.231169 128.336311 
L 236.114286 150.916147 
L 248.997403 185.564703 
L 261.880519 213.875413 
L 274.763636 226.350615 
L 287.646753 221.662711 
L 300.52987 198.668691 
L 313.412987 164.026927 
L 326.296104 136.001936 
L 339.179221 124.109292 
L 352.062338 129.626276 
L 364.945455 153.879617 
L 377.828571 188.71108 
L 390.711688 215.743434 
L 403.594805 226.650358 
L 416.477922 220.307339 
L 429.361039 195.696927 
L 442.244156 160.891877 
L 455.127273 134.178409 
L 468.01039 123.872982 
L 480.893506 131.084064 
L 493.776623 156.946536 
L 506.65974 191.778387 
L 519.542857 217.467408 
L 532.425974 226.803413 
L 545.309091 218.788621 
L 558.192208 192.624518 
L 571.075325 157.838614 
L 583.958442 132.501316 
L 596.841558 123.785128 
L 609.724675 132.711072 
L 622.607792 160.100418 
L 635.490909 194.754951 
L 648.374026 219.046431 
L 661.257143 226.809071 
L 674.14026 217.105916 
L 687.023377 189.467223 
L 699.906494 154.879284 
L 712.78961 130.97148 
L 725.672727 123.846725 
L 738.555844 134.507922 
L 751.438961 163.323697 
L 764.322078 197.630207 
L 777.205195 220.479992 
L 790.088312 226.665969 
L 802.971429 215.259236 
L 815.854545 186.242296 
L 828.737662 152.02424 
L 841.620779 129.589351 
L 854.503896 124.059216 
L 867.387013 136.473575 
L 880.27013 166.597933 
L 893.153247 200.395129 
L 906.036364 221.767572 
L 918.919481 226.37305 
L 931.802597 213.24937 
L 944.685714 182.967665 
L 957.568831 149.282842 
L 970.451948 128.393006 
L 983.335065 124.303202 
L 996.218182 128.375339 
" style="fill:none;stroke:#1f77b4;stroke-linecap:square;stroke-width:1.5;"/>
   </g>
   <g id="line2d_26">
    <path clip-path="url(#p19d82365d3)" d="M 184.581818 181.720771 
L 197.464935 232.947177 
L 210.348052 245.679276 
L 223.231169 229.732557 
L 236.114286 191.582061 
L 248.997403 144.673717 
L 261.880519 111.268871 
L 274.763636 103.329445 
L 287.646753 120.11882 
L 300.52987 158.210359 
L 313.412987 204.664928 
L 326.296104 237.84562 
L 339.179221 245.234057 
L 352.062338 227.020102 
L 364.945455 187.282943 
L 377.828571 140.679612 
L 390.711688 109.428258 
L 403.594805 103.877923 
L 416.477922 122.858938 
L 429.361039 162.471194 
L 442.244156 208.629033 
L 455.127273 239.661521 
L 468.01039 244.592988 
L 480.893506 224.112456 
L 493.776623 182.916262 
L 506.65974 136.830153 
L 519.542857 107.818113 
L 532.425974 104.636454 
L 545.309091 125.786251 
L 558.192208 166.79598 
L 571.075325 212.451886 
L 583.958442 241.243104 
L 596.841558 243.733258 
L 609.724675 221.016194 
L 622.607792 178.500055 
L 635.490909 133.142038 
L 648.374026 106.437654 
L 661.257143 105.603757 
L 674.14026 128.894863 
L 687.023377 171.167756 
L 699.906494 216.11689 
L 712.78961 242.590293 
L 725.672727 242.65618 
L 738.555844 217.739402 
L 751.438961 174.052731 
L 764.322078 129.629757 
L 777.205195 105.285891 
L 790.088312 106.778848 
L 802.971429 132.177338 
L 815.854545 175.568838 
L 828.737662 219.608532 
L 841.620779 243.704244 
L 854.503896 241.3625 
L 867.387013 214.29038 
L 880.27013 169.59441 
L 893.153247 126.30655 
L 906.036364 104.360645 
L 918.919481 108.160863 
L 931.802597 135.624979 
L 944.685714 179.980473 
L 957.568831 222.91338 
L 970.451948 244.586524 
L 983.335065 241.077538 
L 996.218182 178.064835 
" style="fill:none;stroke:#ff7f0e;stroke-linecap:square;stroke-width:1.5;"/>
   </g>
   <g id="line2d_27">
    <path clip-path="url(#p19d82365d3)" d="M 184.581818 178.941744 
L 197.464935 196.996535 
L 210.348052 208.934308 
L 223.231169 209.01145 
L 236.114286 196.521202 
L 248.997403 172.753635 
L 261.880519 151.206529 
L 274.763636 140.727946 
L 287.646753 141.028817 
L 300.52987 153.727185 
L 313.412987 177.742872 
L 326.296104 199.366171 
L 339.179221 209.439479 
L 352.062338 208.430552 
L 364.945455 194.659712 
L 377.828571 170.421018 
L 390.711688 149.745193 
L 403.594805 140.31054 
L 416.477922 141.633289 
L 429.361039 155.606033 
L 442.244156 180.100574 
L 455.127273 200.806649 
L 468.01039 209.80487 
L 480.893506 207.738375 
L 493.776623 192.693873 
L 506.65974 168.127655 
L 519.542857 148.387482 
L 532.425974 139.981943 
L 545.309091 142.348013 
L 558.192208 157.590063 
L 571.075325 182.416909 
L 583.958442 202.139073 
L 596.841558 210.079335 
L 609.724675 206.931389 
L 622.607792 190.632752 
L 635.490909 165.88602 
L 648.374026 147.132912 
L 661.257143 139.742032 
L 674.14026 143.176622 
L 687.023377 159.670713 
L 699.906494 184.678813 
L 712.78961 203.364163 
L 725.672727 210.262919 
L 738.555844 206.00644 
L 751.438961 188.486891 
L 764.322078 163.707461 
L 777.205195 145.980394 
L 790.088312 139.591119 
L 802.971429 144.122127 
L 815.854545 161.837428 
L 828.737662 186.874394 
L 841.620779 204.48356 
L 854.503896 210.355029 
L 867.387013 204.960788 
L 880.27013 186.2682 
L 893.153247 161.601363 
L 906.036364 144.928443 
L 918.919481 139.53004 
L 931.802597 145.187157 
L 944.685714 164.07825 
L 957.568831 188.992937 
L 970.451948 205.378068 
L 983.335065 212.321549 
L 996.218182 194.073096 
" style="fill:none;stroke:#2ca02c;stroke-linecap:square;stroke-width:1.5;"/>
   </g>
   <g id="line2d_28">
    <path clip-path="url(#p19d82365d3)" d="M 184.581818 188.745697 
L 197.464935 188.194487 
L 210.348052 187.696889 
L 223.231169 181.323066 
L 236.114286 170.353415 
L 248.997403 162.842133 
L 261.880519 160.85069 
L 274.763636 162.22881 
L 287.646753 168.672054 
L 300.52987 179.673242 
L 313.412987 187.264781 
L 326.296104 189.068531 
L 339.179221 187.377303 
L 352.062338 180.420778 
L 364.945455 169.379333 
L 377.828571 162.484188 
L 390.711688 160.829236 
L 403.594805 162.578501 
L 416.477922 169.574004 
L 429.361039 180.658953 
L 442.244156 187.615099 
L 455.127273 189.066485 
L 468.01039 186.987868 
L 480.893506 179.474006 
L 493.776623 168.451056 
L 506.65974 162.171877 
L 519.542857 160.833594 
L 532.425974 162.974947 
L 545.309091 170.520122 
L 558.192208 181.599841 
L 571.075325 187.916798 
L 583.958442 189.037927 
L 596.841558 186.549305 
L 609.724675 178.488063 
L 622.607792 167.575228 
L 635.490909 161.900783 
L 648.374026 160.86501 
L 661.257143 163.42025 
L 674.14026 171.505411 
L 687.023377 182.488698 
L 699.906494 188.174454 
L 712.78961 188.981744 
L 725.672727 186.059532 
L 738.555844 177.469071 
L 751.438961 166.757127 
L 764.322078 161.666927 
L 777.205195 160.924863 
L 790.088312 163.916179 
L 802.971429 172.524 
L 815.854545 183.319531 
L 828.737662 188.392656 
L 841.620779 188.896031 
L 854.503896 185.51707 
L 867.387013 176.424577 
L 880.27013 166.000128 
L 893.153247 161.466632 
L 906.036364 161.014916 
L 918.919481 164.464043 
L 931.802597 173.568892 
L 944.685714 184.088147 
L 957.568831 188.575224 
L 970.451948 188.796889 
L 983.335065 183.037967 
L 996.218182 158.307405 
" style="fill:none;stroke:#d62728;stroke-linecap:square;stroke-width:1.5;"/>
   </g>
   <g id="line2d_29">
    <path clip-path="url(#p19d82365d3)" d="M 184.581818 185.853592 
L 197.464935 181.813302 
L 210.348052 173.098886 
L 223.231169 162.344279 
L 236.114286 156.309175 
L 248.997403 159.524261 
L 261.880519 167.169773 
L 274.763636 176.631944 
L 287.646753 187.038595 
L 300.52987 193.018986 
L 313.412987 189.582326 
L 326.296104 181.675879 
L 339.179221 172.00983 
L 352.062338 161.449115 
L 364.945455 156.254086 
L 377.828571 160.12347 
L 390.711688 167.981152 
L 403.594805 177.588148 
L 416.477922 187.915418 
L 429.361039 193.072448 
L 442.244156 188.948295 
L 455.127273 180.851463 
L 468.01039 171.02522 
L 480.893506 160.600773 
L 493.776623 156.28757 
L 506.65974 160.752092 
L 519.542857 168.806521 
L 532.425974 178.555237 
L 545.309091 188.74839 
L 558.192208 193.034081 
L 571.075325 188.286019 
L 583.958442 180.013138 
L 596.841558 170.029434 
L 609.724675 159.807927 
L 622.607792 156.405264 
L 635.490909 161.406951 
L 648.374026 169.645598 
L 661.257143 179.531352 
L 674.14026 189.529164 
L 687.023377 192.907376 
L 699.906494 187.59939 
L 712.78961 179.160342 
L 725.672727 169.025156 
L 738.555844 159.079038 
L 751.438961 156.60184 
L 764.322078 162.08524 
L 777.205195 170.498216 
L 790.088312 180.514352 
L 802.971429 190.249444 
L 815.854545 192.697328 
L 828.737662 186.891511 
L 841.620779 178.292995 
L 854.503896 168.015529 
L 867.387013 158.421749 
L 880.27013 156.871103 
L 893.153247 162.785029 
L 906.036364 171.364602 
L 918.919481 181.500969 
L 931.802597 190.901169 
L 944.685714 192.409819 
L 957.568831 186.165269 
L 970.451948 177.475786 
L 983.335065 161.810178 
L 996.218182 128.337424 
" style="fill:none;stroke:#9467bd;stroke-linecap:square;stroke-width:1.5;"/>
   </g>
   <g id="line2d_30">
    <path clip-path="url(#p19d82365d3)" d="M 184.581818 179.171236 
L 197.464935 182.165265 
L 210.348052 184.902542 
L 223.231169 182.409828 
L 236.114286 178.727275 
L 248.997403 175.330675 
L 261.880519 168.437962 
L 274.763636 164.495088 
L 287.646753 167.263059 
L 300.52987 171.407406 
L 313.412987 174.753258 
L 326.296104 181.273378 
L 339.179221 184.854325 
L 352.062338 182.001462 
L 364.945455 178.495013 
L 377.828571 174.803234 
L 390.711688 167.821468 
L 403.594805 164.494773 
L 416.477922 167.710293 
L 429.361039 171.669977 
L 442.244156 175.244578 
L 455.127273 181.859111 
L 468.01039 184.82191 
L 480.893506 181.592272 
L 493.776623 178.267372 
L 506.65974 174.234641 
L 519.542857 167.241664 
L 532.425974 164.558902 
L 545.309091 168.160267 
L 558.192208 171.921279 
L 571.075325 175.775839 
L 583.958442 182.407832 
L 596.841558 184.727551 
L 609.724675 181.189515 
L 622.607792 178.036547 
L 635.490909 173.629288 
L 648.374026 166.704967 
L 661.257143 164.684858 
L 674.14026 168.605865 
L 687.023377 172.168129 
L 699.906494 176.343661 
L 712.78961 182.912806 
L 725.672727 184.574705 
L 738.555844 180.799375 
L 751.438961 177.794461 
L 764.322078 172.992704 
L 777.205195 166.217107 
L 790.088312 164.869402 
L 802.971429 169.040562 
L 815.854545 172.418522 
L 828.737662 176.942824 
L 841.620779 183.36806 
L 854.503896 184.3674 
L 867.387013 180.426977 
L 880.27013 177.532957 
L 893.153247 172.331796 
L 906.036364 165.783149 
L 918.919481 165.10828 
L 931.802597 169.458683 
L 944.685714 172.680083 
L 957.568831 177.567762 
L 970.451948 183.733779 
L 983.335065 178.486801 
L 996.218182 174.311243 
" style="fill:none;stroke:#8c564b;stroke-linecap:square;stroke-width:1.5;"/>
   </g>
   <g id="patch_3">
    <path d="M 144 307.584 
L 144 41.472 
" style="fill:none;stroke:#000000;stroke-linecap:square;stroke-linejoin:miter;stroke-width:0.8;"/>
   </g>
   <g id="patch_4">
    <path d="M 1036.8 307.584 
L 1036.8 41.472 
" style="fill:none;stroke:#000000;stroke-linecap:square;stroke-linejoin:miter;stroke-width:0.8;"/>
   </g>
   <g id="patch_5">
    <path d="M 144 307.584 
L 1036.8 307.584 
" style="fill:none;stroke:#000000;stroke-linecap:square;stroke-linejoin:miter;stroke-width:0.8;"/>
   </g>
   <g id="patch_6">
    <path d="M 144 41.472 
L 1036.8 41.472 
" style="fill:none;stroke:#000000;stroke-linecap:square;stroke-linejoin:miter;stroke-width:0.8;"/>
   </g>
   <g id="text_15">
    <!-- 4th layer's shape: torch.Size([1, 256, 64]). Uniformly sampling 16 channels -->
    <g transform="translate(364.66875 35.472)scale(0.12 -0.12)">
     <defs>
      <path d="M 18.3125 70.21875 
L 18.3125 54.6875 
L 36.8125 54.6875 
L 36.8125 47.703125 
L 18.3125 47.703125 
L 18.3125 18.015625 
Q 18.3125 11.328125 20.140625 9.421875 
Q 21.96875 7.515625 27.59375 7.515625 
L 36.8125 7.515625 
L 36.8125 0 
L 27.59375 0 
Q 17.1875 0 13.234375 3.875 
Q 9.28125 7.765625 9.28125 18.015625 
L 9.28125 47.703125 
L 2.6875 47.703125 
L 2.6875 54.6875 
L 9.28125 54.6875 
L 9.28125 70.21875 
z
" id="DejaVuSans-116"/>
      <path d="M 54.890625 33.015625 
L 54.890625 0 
L 45.90625 0 
L 45.90625 32.71875 
Q 45.90625 40.484375 42.875 44.328125 
Q 39.84375 48.1875 33.796875 48.1875 
Q 26.515625 48.1875 22.3125 43.546875 
Q 18.109375 38.921875 18.109375 30.90625 
L 18.109375 0 
L 9.078125 0 
L 9.078125 75.984375 
L 18.109375 75.984375 
L 18.109375 46.1875 
Q 21.34375 51.125 25.703125 53.5625 
Q 30.078125 56 35.796875 56 
Q 45.21875 56 50.046875 50.171875 
Q 54.890625 44.34375 54.890625 33.015625 
z
" id="DejaVuSans-104"/>
      <path id="DejaVuSans-32"/>
      <path d="M 9.421875 75.984375 
L 18.40625 75.984375 
L 18.40625 0 
L 9.421875 0 
z
" id="DejaVuSans-108"/>
      <path d="M 34.28125 27.484375 
Q 23.390625 27.484375 19.1875 25 
Q 14.984375 22.515625 14.984375 16.5 
Q 14.984375 11.71875 18.140625 8.90625 
Q 21.296875 6.109375 26.703125 6.109375 
Q 34.1875 6.109375 38.703125 11.40625 
Q 43.21875 16.703125 43.21875 25.484375 
L 43.21875 27.484375 
z
M 52.203125 31.203125 
L 52.203125 0 
L 43.21875 0 
L 43.21875 8.296875 
Q 40.140625 3.328125 35.546875 0.953125 
Q 30.953125 -1.421875 24.3125 -1.421875 
Q 15.921875 -1.421875 10.953125 3.296875 
Q 6 8.015625 6 15.921875 
Q 6 25.140625 12.171875 29.828125 
Q 18.359375 34.515625 30.609375 34.515625 
L 43.21875 34.515625 
L 43.21875 35.40625 
Q 43.21875 41.609375 39.140625 45 
Q 35.0625 48.390625 27.6875 48.390625 
Q 23 48.390625 18.546875 47.265625 
Q 14.109375 46.140625 10.015625 43.890625 
L 10.015625 52.203125 
Q 14.9375 54.109375 19.578125 55.046875 
Q 24.21875 56 28.609375 56 
Q 40.484375 56 46.34375 49.84375 
Q 52.203125 43.703125 52.203125 31.203125 
z
" id="DejaVuSans-97"/>
      <path d="M 32.171875 -5.078125 
Q 28.375 -14.84375 24.75 -17.8125 
Q 21.140625 -20.796875 15.09375 -20.796875 
L 7.90625 -20.796875 
L 7.90625 -13.28125 
L 13.1875 -13.28125 
Q 16.890625 -13.28125 18.9375 -11.515625 
Q 21 -9.765625 23.484375 -3.21875 
L 25.09375 0.875 
L 2.984375 54.6875 
L 12.5 54.6875 
L 29.59375 11.921875 
L 46.6875 54.6875 
L 56.203125 54.6875 
z
" id="DejaVuSans-121"/>
      <path d="M 56.203125 29.59375 
L 56.203125 25.203125 
L 14.890625 25.203125 
Q 15.484375 15.921875 20.484375 11.0625 
Q 25.484375 6.203125 34.421875 6.203125 
Q 39.59375 6.203125 44.453125 7.46875 
Q 49.3125 8.734375 54.109375 11.28125 
L 54.109375 2.78125 
Q 49.265625 0.734375 44.1875 -0.34375 
Q 39.109375 -1.421875 33.890625 -1.421875 
Q 20.796875 -1.421875 13.15625 6.1875 
Q 5.515625 13.8125 5.515625 26.8125 
Q 5.515625 40.234375 12.765625 48.109375 
Q 20.015625 56 32.328125 56 
Q 43.359375 56 49.78125 48.890625 
Q 56.203125 41.796875 56.203125 29.59375 
z
M 47.21875 32.234375 
Q 47.125 39.59375 43.09375 43.984375 
Q 39.0625 48.390625 32.421875 48.390625 
Q 24.90625 48.390625 20.390625 44.140625 
Q 15.875 39.890625 15.1875 32.171875 
z
" id="DejaVuSans-101"/>
      <path d="M 41.109375 46.296875 
Q 39.59375 47.171875 37.8125 47.578125 
Q 36.03125 48 33.890625 48 
Q 26.265625 48 22.1875 43.046875 
Q 18.109375 38.09375 18.109375 28.8125 
L 18.109375 0 
L 9.078125 0 
L 9.078125 54.6875 
L 18.109375 54.6875 
L 18.109375 46.1875 
Q 20.953125 51.171875 25.484375 53.578125 
Q 30.03125 56 36.53125 56 
Q 37.453125 56 38.578125 55.875 
Q 39.703125 55.765625 41.0625 55.515625 
z
" id="DejaVuSans-114"/>
      <path d="M 17.921875 72.90625 
L 17.921875 45.796875 
L 9.625 45.796875 
L 9.625 72.90625 
z
" id="DejaVuSans-39"/>
      <path d="M 44.28125 53.078125 
L 44.28125 44.578125 
Q 40.484375 46.53125 36.375 47.5 
Q 32.28125 48.484375 27.875 48.484375 
Q 21.1875 48.484375 17.84375 46.4375 
Q 14.5 44.390625 14.5 40.28125 
Q 14.5 37.15625 16.890625 35.375 
Q 19.28125 33.59375 26.515625 31.984375 
L 29.59375 31.296875 
Q 39.15625 29.25 43.1875 25.515625 
Q 47.21875 21.78125 47.21875 15.09375 
Q 47.21875 7.46875 41.1875 3.015625 
Q 35.15625 -1.421875 24.609375 -1.421875 
Q 20.21875 -1.421875 15.453125 -0.5625 
Q 10.6875 0.296875 5.421875 2 
L 5.421875 11.28125 
Q 10.40625 8.6875 15.234375 7.390625 
Q 20.0625 6.109375 24.8125 6.109375 
Q 31.15625 6.109375 34.5625 8.28125 
Q 37.984375 10.453125 37.984375 14.40625 
Q 37.984375 18.0625 35.515625 20.015625 
Q 33.0625 21.96875 24.703125 23.78125 
L 21.578125 24.515625 
Q 13.234375 26.265625 9.515625 29.90625 
Q 5.8125 33.546875 5.8125 39.890625 
Q 5.8125 47.609375 11.28125 51.796875 
Q 16.75 56 26.8125 56 
Q 31.78125 56 36.171875 55.265625 
Q 40.578125 54.546875 44.28125 53.078125 
z
" id="DejaVuSans-115"/>
      <path d="M 18.109375 8.203125 
L 18.109375 -20.796875 
L 9.078125 -20.796875 
L 9.078125 54.6875 
L 18.109375 54.6875 
L 18.109375 46.390625 
Q 20.953125 51.265625 25.265625 53.625 
Q 29.59375 56 35.59375 56 
Q 45.5625 56 51.78125 48.09375 
Q 58.015625 40.1875 58.015625 27.296875 
Q 58.015625 14.40625 51.78125 6.484375 
Q 45.5625 -1.421875 35.59375 -1.421875 
Q 29.59375 -1.421875 25.265625 0.953125 
Q 20.953125 3.328125 18.109375 8.203125 
z
M 48.6875 27.296875 
Q 48.6875 37.203125 44.609375 42.84375 
Q 40.53125 48.484375 33.40625 48.484375 
Q 26.265625 48.484375 22.1875 42.84375 
Q 18.109375 37.203125 18.109375 27.296875 
Q 18.109375 17.390625 22.1875 11.75 
Q 26.265625 6.109375 33.40625 6.109375 
Q 40.53125 6.109375 44.609375 11.75 
Q 48.6875 17.390625 48.6875 27.296875 
z
" id="DejaVuSans-112"/>
      <path d="M 11.71875 12.40625 
L 22.015625 12.40625 
L 22.015625 0 
L 11.71875 0 
z
M 11.71875 51.703125 
L 22.015625 51.703125 
L 22.015625 39.3125 
L 11.71875 39.3125 
z
" id="DejaVuSans-58"/>
      <path d="M 30.609375 48.390625 
Q 23.390625 48.390625 19.1875 42.75 
Q 14.984375 37.109375 14.984375 27.296875 
Q 14.984375 17.484375 19.15625 11.84375 
Q 23.34375 6.203125 30.609375 6.203125 
Q 37.796875 6.203125 41.984375 11.859375 
Q 46.1875 17.53125 46.1875 27.296875 
Q 46.1875 37.015625 41.984375 42.703125 
Q 37.796875 48.390625 30.609375 48.390625 
z
M 30.609375 56 
Q 42.328125 56 49.015625 48.375 
Q 55.71875 40.765625 55.71875 27.296875 
Q 55.71875 13.875 49.015625 6.21875 
Q 42.328125 -1.421875 30.609375 -1.421875 
Q 18.84375 -1.421875 12.171875 6.21875 
Q 5.515625 13.875 5.515625 27.296875 
Q 5.515625 40.765625 12.171875 48.375 
Q 18.84375 56 30.609375 56 
z
" id="DejaVuSans-111"/>
      <path d="M 48.78125 52.59375 
L 48.78125 44.1875 
Q 44.96875 46.296875 41.140625 47.34375 
Q 37.3125 48.390625 33.40625 48.390625 
Q 24.65625 48.390625 19.8125 42.84375 
Q 14.984375 37.3125 14.984375 27.296875 
Q 14.984375 17.28125 19.8125 11.734375 
Q 24.65625 6.203125 33.40625 6.203125 
Q 37.3125 6.203125 41.140625 7.25 
Q 44.96875 8.296875 48.78125 10.40625 
L 48.78125 2.09375 
Q 45.015625 0.34375 40.984375 -0.53125 
Q 36.96875 -1.421875 32.421875 -1.421875 
Q 20.0625 -1.421875 12.78125 6.34375 
Q 5.515625 14.109375 5.515625 27.296875 
Q 5.515625 40.671875 12.859375 48.328125 
Q 20.21875 56 33.015625 56 
Q 37.15625 56 41.109375 55.140625 
Q 45.0625 54.296875 48.78125 52.59375 
z
" id="DejaVuSans-99"/>
      <path d="M 53.515625 70.515625 
L 53.515625 60.890625 
Q 47.90625 63.578125 42.921875 64.890625 
Q 37.9375 66.21875 33.296875 66.21875 
Q 25.25 66.21875 20.875 63.09375 
Q 16.5 59.96875 16.5 54.203125 
Q 16.5 49.359375 19.40625 46.890625 
Q 22.3125 44.4375 30.421875 42.921875 
L 36.375 41.703125 
Q 47.40625 39.59375 52.65625 34.296875 
Q 57.90625 29 57.90625 20.125 
Q 57.90625 9.515625 50.796875 4.046875 
Q 43.703125 -1.421875 29.984375 -1.421875 
Q 24.8125 -1.421875 18.96875 -0.25 
Q 13.140625 0.921875 6.890625 3.21875 
L 6.890625 13.375 
Q 12.890625 10.015625 18.65625 8.296875 
Q 24.421875 6.59375 29.984375 6.59375 
Q 38.421875 6.59375 43.015625 9.90625 
Q 47.609375 13.234375 47.609375 19.390625 
Q 47.609375 24.75 44.3125 27.78125 
Q 41.015625 30.8125 33.5 32.328125 
L 27.484375 33.5 
Q 16.453125 35.6875 11.515625 40.375 
Q 6.59375 45.0625 6.59375 53.421875 
Q 6.59375 63.09375 13.40625 68.65625 
Q 20.21875 74.21875 32.171875 74.21875 
Q 37.3125 74.21875 42.625 73.28125 
Q 47.953125 72.359375 53.515625 70.515625 
z
" id="DejaVuSans-83"/>
      <path d="M 9.421875 54.6875 
L 18.40625 54.6875 
L 18.40625 0 
L 9.421875 0 
z
M 9.421875 75.984375 
L 18.40625 75.984375 
L 18.40625 64.59375 
L 9.421875 64.59375 
z
" id="DejaVuSans-105"/>
      <path d="M 5.515625 54.6875 
L 48.1875 54.6875 
L 48.1875 46.484375 
L 14.40625 7.171875 
L 48.1875 7.171875 
L 48.1875 0 
L 4.296875 0 
L 4.296875 8.203125 
L 38.09375 47.515625 
L 5.515625 47.515625 
z
" id="DejaVuSans-122"/>
      <path d="M 31 75.875 
Q 24.46875 64.65625 21.28125 53.65625 
Q 18.109375 42.671875 18.109375 31.390625 
Q 18.109375 20.125 21.3125 9.0625 
Q 24.515625 -2 31 -13.1875 
L 23.1875 -13.1875 
Q 15.875 -1.703125 12.234375 9.375 
Q 8.59375 20.453125 8.59375 31.390625 
Q 8.59375 42.28125 12.203125 53.3125 
Q 15.828125 64.359375 23.1875 75.875 
z
" id="DejaVuSans-40"/>
      <path d="M 8.59375 75.984375 
L 29.296875 75.984375 
L 29.296875 69 
L 17.578125 69 
L 17.578125 -6.203125 
L 29.296875 -6.203125 
L 29.296875 -13.1875 
L 8.59375 -13.1875 
z
" id="DejaVuSans-91"/>
      <path d="M 11.71875 12.40625 
L 22.015625 12.40625 
L 22.015625 4 
L 14.015625 -11.625 
L 7.71875 -11.625 
L 11.71875 4 
z
" id="DejaVuSans-44"/>
      <path d="M 30.421875 75.984375 
L 30.421875 -13.1875 
L 9.71875 -13.1875 
L 9.71875 -6.203125 
L 21.390625 -6.203125 
L 21.390625 69 
L 9.71875 69 
L 9.71875 75.984375 
z
" id="DejaVuSans-93"/>
      <path d="M 8.015625 75.875 
L 15.828125 75.875 
Q 23.140625 64.359375 26.78125 53.3125 
Q 30.421875 42.28125 30.421875 31.390625 
Q 30.421875 20.453125 26.78125 9.375 
Q 23.140625 -1.703125 15.828125 -13.1875 
L 8.015625 -13.1875 
Q 14.5 -2 17.703125 9.0625 
Q 20.90625 20.125 20.90625 31.390625 
Q 20.90625 42.671875 17.703125 53.65625 
Q 14.5 64.65625 8.015625 75.875 
z
" id="DejaVuSans-41"/>
      <path d="M 8.6875 72.90625 
L 18.609375 72.90625 
L 18.609375 28.609375 
Q 18.609375 16.890625 22.84375 11.734375 
Q 27.09375 6.59375 36.625 6.59375 
Q 46.09375 6.59375 50.34375 11.734375 
Q 54.59375 16.890625 54.59375 28.609375 
L 54.59375 72.90625 
L 64.5 72.90625 
L 64.5 27.390625 
Q 64.5 13.140625 57.4375 5.859375 
Q 50.390625 -1.421875 36.625 -1.421875 
Q 22.796875 -1.421875 15.734375 5.859375 
Q 8.6875 13.140625 8.6875 27.390625 
z
" id="DejaVuSans-85"/>
      <path d="M 54.890625 33.015625 
L 54.890625 0 
L 45.90625 0 
L 45.90625 32.71875 
Q 45.90625 40.484375 42.875 44.328125 
Q 39.84375 48.1875 33.796875 48.1875 
Q 26.515625 48.1875 22.3125 43.546875 
Q 18.109375 38.921875 18.109375 30.90625 
L 18.109375 0 
L 9.078125 0 
L 9.078125 54.6875 
L 18.109375 54.6875 
L 18.109375 46.1875 
Q 21.34375 51.125 25.703125 53.5625 
Q 30.078125 56 35.796875 56 
Q 45.21875 56 50.046875 50.171875 
Q 54.890625 44.34375 54.890625 33.015625 
z
" id="DejaVuSans-110"/>
      <path d="M 37.109375 75.984375 
L 37.109375 68.5 
L 28.515625 68.5 
Q 23.6875 68.5 21.796875 66.546875 
Q 19.921875 64.59375 19.921875 59.515625 
L 19.921875 54.6875 
L 34.71875 54.6875 
L 34.71875 47.703125 
L 19.921875 47.703125 
L 19.921875 0 
L 10.890625 0 
L 10.890625 47.703125 
L 2.296875 47.703125 
L 2.296875 54.6875 
L 10.890625 54.6875 
L 10.890625 58.5 
Q 10.890625 67.625 15.140625 71.796875 
Q 19.390625 75.984375 28.609375 75.984375 
z
" id="DejaVuSans-102"/>
      <path d="M 52 44.1875 
Q 55.375 50.25 60.0625 53.125 
Q 64.75 56 71.09375 56 
Q 79.640625 56 84.28125 50.015625 
Q 88.921875 44.046875 88.921875 33.015625 
L 88.921875 0 
L 79.890625 0 
L 79.890625 32.71875 
Q 79.890625 40.578125 77.09375 44.375 
Q 74.3125 48.1875 68.609375 48.1875 
Q 61.625 48.1875 57.5625 43.546875 
Q 53.515625 38.921875 53.515625 30.90625 
L 53.515625 0 
L 44.484375 0 
L 44.484375 32.71875 
Q 44.484375 40.625 41.703125 44.40625 
Q 38.921875 48.1875 33.109375 48.1875 
Q 26.21875 48.1875 22.15625 43.53125 
Q 18.109375 38.875 18.109375 30.90625 
L 18.109375 0 
L 9.078125 0 
L 9.078125 54.6875 
L 18.109375 54.6875 
L 18.109375 46.1875 
Q 21.1875 51.21875 25.484375 53.609375 
Q 29.78125 56 35.6875 56 
Q 41.65625 56 45.828125 52.96875 
Q 50 49.953125 52 44.1875 
z
" id="DejaVuSans-109"/>
      <path d="M 45.40625 27.984375 
Q 45.40625 37.75 41.375 43.109375 
Q 37.359375 48.484375 30.078125 48.484375 
Q 22.859375 48.484375 18.828125 43.109375 
Q 14.796875 37.75 14.796875 27.984375 
Q 14.796875 18.265625 18.828125 12.890625 
Q 22.859375 7.515625 30.078125 7.515625 
Q 37.359375 7.515625 41.375 12.890625 
Q 45.40625 18.265625 45.40625 27.984375 
z
M 54.390625 6.78125 
Q 54.390625 -7.171875 48.1875 -13.984375 
Q 42 -20.796875 29.203125 -20.796875 
Q 24.46875 -20.796875 20.265625 -20.09375 
Q 16.0625 -19.390625 12.109375 -17.921875 
L 12.109375 -9.1875 
Q 16.0625 -11.328125 19.921875 -12.34375 
Q 23.78125 -13.375 27.78125 -13.375 
Q 36.625 -13.375 41.015625 -8.765625 
Q 45.40625 -4.15625 45.40625 5.171875 
L 45.40625 9.625 
Q 42.625 4.78125 38.28125 2.390625 
Q 33.9375 0 27.875 0 
Q 17.828125 0 11.671875 7.65625 
Q 5.515625 15.328125 5.515625 27.984375 
Q 5.515625 40.671875 11.671875 48.328125 
Q 17.828125 56 27.875 56 
Q 33.9375 56 38.28125 53.609375 
Q 42.625 51.21875 45.40625 46.390625 
L 45.40625 54.6875 
L 54.390625 54.6875 
z
" id="DejaVuSans-103"/>
     </defs>
     <use xlink:href="#DejaVuSans-52"/>
     <use x="63.623047" xlink:href="#DejaVuSans-116"/>
     <use x="102.832031" xlink:href="#DejaVuSans-104"/>
     <use x="166.210938" xlink:href="#DejaVuSans-32"/>
     <use x="197.998047" xlink:href="#DejaVuSans-108"/>
     <use x="225.78125" xlink:href="#DejaVuSans-97"/>
     <use x="287.060547" xlink:href="#DejaVuSans-121"/>
     <use x="346.240234" xlink:href="#DejaVuSans-101"/>
     <use x="407.763672" xlink:href="#DejaVuSans-114"/>
     <use x="448.876953" xlink:href="#DejaVuSans-39"/>
     <use x="476.367188" xlink:href="#DejaVuSans-115"/>
     <use x="528.466797" xlink:href="#DejaVuSans-32"/>
     <use x="560.253906" xlink:href="#DejaVuSans-115"/>
     <use x="612.353516" xlink:href="#DejaVuSans-104"/>
     <use x="675.732422" xlink:href="#DejaVuSans-97"/>
     <use x="737.011719" xlink:href="#DejaVuSans-112"/>
     <use x="800.488281" xlink:href="#DejaVuSans-101"/>
     <use x="862.011719" xlink:href="#DejaVuSans-58"/>
     <use x="895.703125" xlink:href="#DejaVuSans-32"/>
     <use x="927.490234" xlink:href="#DejaVuSans-116"/>
     <use x="966.699219" xlink:href="#DejaVuSans-111"/>
     <use x="1027.880859" xlink:href="#DejaVuSans-114"/>
     <use x="1066.744141" xlink:href="#DejaVuSans-99"/>
     <use x="1121.724609" xlink:href="#DejaVuSans-104"/>
     <use x="1185.103516" xlink:href="#DejaVuSans-46"/>
     <use x="1216.890625" xlink:href="#DejaVuSans-83"/>
     <use x="1280.367188" xlink:href="#DejaVuSans-105"/>
     <use x="1308.150391" xlink:href="#DejaVuSans-122"/>
     <use x="1360.640625" xlink:href="#DejaVuSans-101"/>
     <use x="1422.164062" xlink:href="#DejaVuSans-40"/>
     <use x="1461.177734" xlink:href="#DejaVuSans-91"/>
     <use x="1500.191406" xlink:href="#DejaVuSans-49"/>
     <use x="1563.814453" xlink:href="#DejaVuSans-44"/>
     <use x="1595.601562" xlink:href="#DejaVuSans-32"/>
     <use x="1627.388672" xlink:href="#DejaVuSans-50"/>
     <use x="1691.011719" xlink:href="#DejaVuSans-53"/>
     <use x="1754.634766" xlink:href="#DejaVuSans-54"/>
     <use x="1818.257812" xlink:href="#DejaVuSans-44"/>
     <use x="1850.044922" xlink:href="#DejaVuSans-32"/>
     <use x="1881.832031" xlink:href="#DejaVuSans-54"/>
     <use x="1945.455078" xlink:href="#DejaVuSans-52"/>
     <use x="2009.078125" xlink:href="#DejaVuSans-93"/>
     <use x="2048.091797" xlink:href="#DejaVuSans-41"/>
     <use x="2087.105469" xlink:href="#DejaVuSans-46"/>
     <use x="2118.892578" xlink:href="#DejaVuSans-32"/>
     <use x="2150.679688" xlink:href="#DejaVuSans-85"/>
     <use x="2223.873047" xlink:href="#DejaVuSans-110"/>
     <use x="2287.251953" xlink:href="#DejaVuSans-105"/>
     <use x="2315.035156" xlink:href="#DejaVuSans-102"/>
     <use x="2350.240234" xlink:href="#DejaVuSans-111"/>
     <use x="2411.421875" xlink:href="#DejaVuSans-114"/>
     <use x="2450.785156" xlink:href="#DejaVuSans-109"/>
     <use x="2548.197266" xlink:href="#DejaVuSans-108"/>
     <use x="2575.980469" xlink:href="#DejaVuSans-121"/>
     <use x="2635.160156" xlink:href="#DejaVuSans-32"/>
     <use x="2666.947266" xlink:href="#DejaVuSans-115"/>
     <use x="2719.046875" xlink:href="#DejaVuSans-97"/>
     <use x="2780.326172" xlink:href="#DejaVuSans-109"/>
     <use x="2877.738281" xlink:href="#DejaVuSans-112"/>
     <use x="2941.214844" xlink:href="#DejaVuSans-108"/>
     <use x="2968.998047" xlink:href="#DejaVuSans-105"/>
     <use x="2996.78125" xlink:href="#DejaVuSans-110"/>
     <use x="3060.160156" xlink:href="#DejaVuSans-103"/>
     <use x="3123.636719" xlink:href="#DejaVuSans-32"/>
     <use x="3155.423828" xlink:href="#DejaVuSans-49"/>
     <use x="3219.046875" xlink:href="#DejaVuSans-54"/>
     <use x="3282.669922" xlink:href="#DejaVuSans-32"/>
     <use x="3314.457031" xlink:href="#DejaVuSans-99"/>
     <use x="3369.4375" xlink:href="#DejaVuSans-104"/>
     <use x="3432.816406" xlink:href="#DejaVuSans-97"/>
     <use x="3494.095703" xlink:href="#DejaVuSans-110"/>
     <use x="3557.474609" xlink:href="#DejaVuSans-110"/>
     <use x="3620.853516" xlink:href="#DejaVuSans-101"/>
     <use x="3682.376953" xlink:href="#DejaVuSans-108"/>
     <use x="3710.160156" xlink:href="#DejaVuSans-115"/>
    </g>
   </g>
  </g>
 </g>
 <defs>
  <clipPath id="p19d82365d3">
   <rect height="266.112" width="892.8" x="144" y="41.472"/>
  </clipPath>
 </defs>
</svg>
