<?xml version="1.0" encoding="utf-8" standalone="no"?>
<!DOCTYPE svg PUBLIC "-//W3C//DTD SVG 1.1//EN"
  "http://www.w3.org/Graphics/SVG/1.1/DTD/svg11.dtd">
<!-- Created with matplotlib (https://matplotlib.org/) -->
<svg height="345.6pt" version="1.1" viewBox="0 0 1152 345.6" width="1152pt" xmlns="http://www.w3.org/2000/svg" xmlns:xlink="http://www.w3.org/1999/xlink">
 <metadata>
  <rdf:RDF xmlns:cc="http://creativecommons.org/ns#" xmlns:dc="http://purl.org/dc/elements/1.1/" xmlns:rdf="http://www.w3.org/1999/02/22-rdf-syntax-ns#">
   <cc:Work>
    <dc:type rdf:resource="http://purl.org/dc/dcmitype/StillImage"/>
    <dc:date>2021-12-24T07:19:06.897957</dc:date>
    <dc:format>image/svg+xml</dc:format>
    <dc:creator>
     <cc:Agent>
      <dc:title>Matplotlib v3.3.3, https://matplotlib.org/</dc:title>
     </cc:Agent>
    </dc:creator>
   </cc:Work>
  </rdf:RDF>
 </metadata>
 <defs>
  <style type="text/css">*{stroke-linecap:butt;stroke-linejoin:round;}</style>
 </defs>
 <g id="figure_1">
  <g id="patch_1">
   <path d="M 0 345.6 
L 1152 345.6 
L 1152 0 
L 0 0 
z
" style="fill:#ffffff;"/>
  </g>
  <g id="axes_1">
   <g id="patch_2">
    <path d="M 144 307.584 
L 1036.8 307.584 
L 1036.8 41.472 
L 144 41.472 
z
" style="fill:#ffffff;"/>
   </g>
   <g id="matplotlib.axis_1">
    <g id="xtick_1">
     <g id="line2d_1">
      <defs>
       <path d="M 0 0 
L 0 3.5 
" id="me6e5838295" style="stroke:#000000;stroke-width:0.8;"/>
      </defs>
      <g>
       <use style="stroke:#000000;stroke-width:0.8;" x="184.581818" xlink:href="#me6e5838295" y="307.584"/>
      </g>
     </g>
     <g id="text_1">
      <!-- 0 -->
      <g transform="translate(181.400568 322.182437)scale(0.1 -0.1)">
       <defs>
        <path d="M 31.78125 66.40625 
Q 24.171875 66.40625 20.328125 58.90625 
Q 16.5 51.421875 16.5 36.375 
Q 16.5 21.390625 20.328125 13.890625 
Q 24.171875 6.390625 31.78125 6.390625 
Q 39.453125 6.390625 43.28125 13.890625 
Q 47.125 21.390625 47.125 36.375 
Q 47.125 51.421875 43.28125 58.90625 
Q 39.453125 66.40625 31.78125 66.40625 
z
M 31.78125 74.21875 
Q 44.046875 74.21875 50.515625 64.515625 
Q 56.984375 54.828125 56.984375 36.375 
Q 56.984375 17.96875 50.515625 8.265625 
Q 44.046875 -1.421875 31.78125 -1.421875 
Q 19.53125 -1.421875 13.0625 8.265625 
Q 6.59375 17.96875 6.59375 36.375 
Q 6.59375 54.828125 13.0625 64.515625 
Q 19.53125 74.21875 31.78125 74.21875 
z
" id="DejaVuSans-48"/>
       </defs>
       <use xlink:href="#DejaVuSans-48"/>
      </g>
     </g>
    </g>
    <g id="xtick_2">
     <g id="line2d_2">
      <g>
       <use style="stroke:#000000;stroke-width:0.8;" x="313.412987" xlink:href="#me6e5838295" y="307.584"/>
      </g>
     </g>
     <g id="text_2">
      <!-- 10 -->
      <g transform="translate(307.050487 322.182437)scale(0.1 -0.1)">
       <defs>
        <path d="M 12.40625 8.296875 
L 28.515625 8.296875 
L 28.515625 63.921875 
L 10.984375 60.40625 
L 10.984375 69.390625 
L 28.421875 72.90625 
L 38.28125 72.90625 
L 38.28125 8.296875 
L 54.390625 8.296875 
L 54.390625 0 
L 12.40625 0 
z
" id="DejaVuSans-49"/>
       </defs>
       <use xlink:href="#DejaVuSans-49"/>
       <use x="63.623047" xlink:href="#DejaVuSans-48"/>
      </g>
     </g>
    </g>
    <g id="xtick_3">
     <g id="line2d_3">
      <g>
       <use style="stroke:#000000;stroke-width:0.8;" x="442.244156" xlink:href="#me6e5838295" y="307.584"/>
      </g>
     </g>
     <g id="text_3">
      <!-- 20 -->
      <g transform="translate(435.881656 322.182437)scale(0.1 -0.1)">
       <defs>
        <path d="M 19.1875 8.296875 
L 53.609375 8.296875 
L 53.609375 0 
L 7.328125 0 
L 7.328125 8.296875 
Q 12.9375 14.109375 22.625 23.890625 
Q 32.328125 33.6875 34.8125 36.53125 
Q 39.546875 41.84375 41.421875 45.53125 
Q 43.3125 49.21875 43.3125 52.78125 
Q 43.3125 58.59375 39.234375 62.25 
Q 35.15625 65.921875 28.609375 65.921875 
Q 23.96875 65.921875 18.8125 64.3125 
Q 13.671875 62.703125 7.8125 59.421875 
L 7.8125 69.390625 
Q 13.765625 71.78125 18.9375 73 
Q 24.125 74.21875 28.421875 74.21875 
Q 39.75 74.21875 46.484375 68.546875 
Q 53.21875 62.890625 53.21875 53.421875 
Q 53.21875 48.921875 51.53125 44.890625 
Q 49.859375 40.875 45.40625 35.40625 
Q 44.1875 33.984375 37.640625 27.21875 
Q 31.109375 20.453125 19.1875 8.296875 
z
" id="DejaVuSans-50"/>
       </defs>
       <use xlink:href="#DejaVuSans-50"/>
       <use x="63.623047" xlink:href="#DejaVuSans-48"/>
      </g>
     </g>
    </g>
    <g id="xtick_4">
     <g id="line2d_4">
      <g>
       <use style="stroke:#000000;stroke-width:0.8;" x="571.075325" xlink:href="#me6e5838295" y="307.584"/>
      </g>
     </g>
     <g id="text_4">
      <!-- 30 -->
      <g transform="translate(564.712825 322.182437)scale(0.1 -0.1)">
       <defs>
        <path d="M 40.578125 39.3125 
Q 47.65625 37.796875 51.625 33 
Q 55.609375 28.21875 55.609375 21.1875 
Q 55.609375 10.40625 48.1875 4.484375 
Q 40.765625 -1.421875 27.09375 -1.421875 
Q 22.515625 -1.421875 17.65625 -0.515625 
Q 12.796875 0.390625 7.625 2.203125 
L 7.625 11.71875 
Q 11.71875 9.328125 16.59375 8.109375 
Q 21.484375 6.890625 26.8125 6.890625 
Q 36.078125 6.890625 40.9375 10.546875 
Q 45.796875 14.203125 45.796875 21.1875 
Q 45.796875 27.640625 41.28125 31.265625 
Q 36.765625 34.90625 28.71875 34.90625 
L 20.21875 34.90625 
L 20.21875 43.015625 
L 29.109375 43.015625 
Q 36.375 43.015625 40.234375 45.921875 
Q 44.09375 48.828125 44.09375 54.296875 
Q 44.09375 59.90625 40.109375 62.90625 
Q 36.140625 65.921875 28.71875 65.921875 
Q 24.65625 65.921875 20.015625 65.03125 
Q 15.375 64.15625 9.8125 62.3125 
L 9.8125 71.09375 
Q 15.4375 72.65625 20.34375 73.4375 
Q 25.25 74.21875 29.59375 74.21875 
Q 40.828125 74.21875 47.359375 69.109375 
Q 53.90625 64.015625 53.90625 55.328125 
Q 53.90625 49.265625 50.4375 45.09375 
Q 46.96875 40.921875 40.578125 39.3125 
z
" id="DejaVuSans-51"/>
       </defs>
       <use xlink:href="#DejaVuSans-51"/>
       <use x="63.623047" xlink:href="#DejaVuSans-48"/>
      </g>
     </g>
    </g>
    <g id="xtick_5">
     <g id="line2d_5">
      <g>
       <use style="stroke:#000000;stroke-width:0.8;" x="699.906494" xlink:href="#me6e5838295" y="307.584"/>
      </g>
     </g>
     <g id="text_5">
      <!-- 40 -->
      <g transform="translate(693.543994 322.182437)scale(0.1 -0.1)">
       <defs>
        <path d="M 37.796875 64.3125 
L 12.890625 25.390625 
L 37.796875 25.390625 
z
M 35.203125 72.90625 
L 47.609375 72.90625 
L 47.609375 25.390625 
L 58.015625 25.390625 
L 58.015625 17.1875 
L 47.609375 17.1875 
L 47.609375 0 
L 37.796875 0 
L 37.796875 17.1875 
L 4.890625 17.1875 
L 4.890625 26.703125 
z
" id="DejaVuSans-52"/>
       </defs>
       <use xlink:href="#DejaVuSans-52"/>
       <use x="63.623047" xlink:href="#DejaVuSans-48"/>
      </g>
     </g>
    </g>
    <g id="xtick_6">
     <g id="line2d_6">
      <g>
       <use style="stroke:#000000;stroke-width:0.8;" x="828.737662" xlink:href="#me6e5838295" y="307.584"/>
      </g>
     </g>
     <g id="text_6">
      <!-- 50 -->
      <g transform="translate(822.375162 322.182437)scale(0.1 -0.1)">
       <defs>
        <path d="M 10.796875 72.90625 
L 49.515625 72.90625 
L 49.515625 64.59375 
L 19.828125 64.59375 
L 19.828125 46.734375 
Q 21.96875 47.46875 24.109375 47.828125 
Q 26.265625 48.1875 28.421875 48.1875 
Q 40.625 48.1875 47.75 41.5 
Q 54.890625 34.8125 54.890625 23.390625 
Q 54.890625 11.625 47.5625 5.09375 
Q 40.234375 -1.421875 26.90625 -1.421875 
Q 22.3125 -1.421875 17.546875 -0.640625 
Q 12.796875 0.140625 7.71875 1.703125 
L 7.71875 11.625 
Q 12.109375 9.234375 16.796875 8.0625 
Q 21.484375 6.890625 26.703125 6.890625 
Q 35.15625 6.890625 40.078125 11.328125 
Q 45.015625 15.765625 45.015625 23.390625 
Q 45.015625 31 40.078125 35.4375 
Q 35.15625 39.890625 26.703125 39.890625 
Q 22.75 39.890625 18.8125 39.015625 
Q 14.890625 38.140625 10.796875 36.28125 
z
" id="DejaVuSans-53"/>
       </defs>
       <use xlink:href="#DejaVuSans-53"/>
       <use x="63.623047" xlink:href="#DejaVuSans-48"/>
      </g>
     </g>
    </g>
    <g id="xtick_7">
     <g id="line2d_7">
      <g>
       <use style="stroke:#000000;stroke-width:0.8;" x="957.568831" xlink:href="#me6e5838295" y="307.584"/>
      </g>
     </g>
     <g id="text_7">
      <!-- 60 -->
      <g transform="translate(951.206331 322.182437)scale(0.1 -0.1)">
       <defs>
        <path d="M 33.015625 40.375 
Q 26.375 40.375 22.484375 35.828125 
Q 18.609375 31.296875 18.609375 23.390625 
Q 18.609375 15.53125 22.484375 10.953125 
Q 26.375 6.390625 33.015625 6.390625 
Q 39.65625 6.390625 43.53125 10.953125 
Q 47.40625 15.53125 47.40625 23.390625 
Q 47.40625 31.296875 43.53125 35.828125 
Q 39.65625 40.375 33.015625 40.375 
z
M 52.59375 71.296875 
L 52.59375 62.3125 
Q 48.875 64.0625 45.09375 64.984375 
Q 41.3125 65.921875 37.59375 65.921875 
Q 27.828125 65.921875 22.671875 59.328125 
Q 17.53125 52.734375 16.796875 39.40625 
Q 19.671875 43.65625 24.015625 45.921875 
Q 28.375 48.1875 33.59375 48.1875 
Q 44.578125 48.1875 50.953125 41.515625 
Q 57.328125 34.859375 57.328125 23.390625 
Q 57.328125 12.15625 50.6875 5.359375 
Q 44.046875 -1.421875 33.015625 -1.421875 
Q 20.359375 -1.421875 13.671875 8.265625 
Q 6.984375 17.96875 6.984375 36.375 
Q 6.984375 53.65625 15.1875 63.9375 
Q 23.390625 74.21875 37.203125 74.21875 
Q 40.921875 74.21875 44.703125 73.484375 
Q 48.484375 72.75 52.59375 71.296875 
z
" id="DejaVuSans-54"/>
       </defs>
       <use xlink:href="#DejaVuSans-54"/>
       <use x="63.623047" xlink:href="#DejaVuSans-48"/>
      </g>
     </g>
    </g>
   </g>
   <g id="matplotlib.axis_2">
    <g id="ytick_1">
     <g id="line2d_8">
      <defs>
       <path d="M 0 0 
L -3.5 0 
" id="m2a984667d9" style="stroke:#000000;stroke-width:0.8;"/>
      </defs>
      <g>
       <use style="stroke:#000000;stroke-width:0.8;" x="144" xlink:href="#m2a984667d9" y="290.984141"/>
      </g>
     </g>
     <g id="text_8">
      <!-- −0.3 -->
      <g transform="translate(112.717187 294.78336)scale(0.1 -0.1)">
       <defs>
        <path d="M 10.59375 35.5 
L 73.1875 35.5 
L 73.1875 27.203125 
L 10.59375 27.203125 
z
" id="DejaVuSans-8722"/>
        <path d="M 10.6875 12.40625 
L 21 12.40625 
L 21 0 
L 10.6875 0 
z
" id="DejaVuSans-46"/>
       </defs>
       <use xlink:href="#DejaVuSans-8722"/>
       <use x="83.789062" xlink:href="#DejaVuSans-48"/>
       <use x="147.412109" xlink:href="#DejaVuSans-46"/>
       <use x="179.199219" xlink:href="#DejaVuSans-51"/>
      </g>
     </g>
    </g>
    <g id="ytick_2">
     <g id="line2d_9">
      <g>
       <use style="stroke:#000000;stroke-width:0.8;" x="144" xlink:href="#m2a984667d9" y="252.671095"/>
      </g>
     </g>
     <g id="text_9">
      <!-- −0.2 -->
      <g transform="translate(112.717187 256.470313)scale(0.1 -0.1)">
       <use xlink:href="#DejaVuSans-8722"/>
       <use x="83.789062" xlink:href="#DejaVuSans-48"/>
       <use x="147.412109" xlink:href="#DejaVuSans-46"/>
       <use x="179.199219" xlink:href="#DejaVuSans-50"/>
      </g>
     </g>
    </g>
    <g id="ytick_3">
     <g id="line2d_10">
      <g>
       <use style="stroke:#000000;stroke-width:0.8;" x="144" xlink:href="#m2a984667d9" y="214.358048"/>
      </g>
     </g>
     <g id="text_10">
      <!-- −0.1 -->
      <g transform="translate(112.717187 218.157267)scale(0.1 -0.1)">
       <use xlink:href="#DejaVuSans-8722"/>
       <use x="83.789062" xlink:href="#DejaVuSans-48"/>
       <use x="147.412109" xlink:href="#DejaVuSans-46"/>
       <use x="179.199219" xlink:href="#DejaVuSans-49"/>
      </g>
     </g>
    </g>
    <g id="ytick_4">
     <g id="line2d_11">
      <g>
       <use style="stroke:#000000;stroke-width:0.8;" x="144" xlink:href="#m2a984667d9" y="176.045002"/>
      </g>
     </g>
     <g id="text_11">
      <!-- 0.0 -->
      <g transform="translate(121.096875 179.844221)scale(0.1 -0.1)">
       <use xlink:href="#DejaVuSans-48"/>
       <use x="63.623047" xlink:href="#DejaVuSans-46"/>
       <use x="95.410156" xlink:href="#DejaVuSans-48"/>
      </g>
     </g>
    </g>
    <g id="ytick_5">
     <g id="line2d_12">
      <g>
       <use style="stroke:#000000;stroke-width:0.8;" x="144" xlink:href="#m2a984667d9" y="137.731956"/>
      </g>
     </g>
     <g id="text_12">
      <!-- 0.1 -->
      <g transform="translate(121.096875 141.531174)scale(0.1 -0.1)">
       <use xlink:href="#DejaVuSans-48"/>
       <use x="63.623047" xlink:href="#DejaVuSans-46"/>
       <use x="95.410156" xlink:href="#DejaVuSans-49"/>
      </g>
     </g>
    </g>
    <g id="ytick_6">
     <g id="line2d_13">
      <g>
       <use style="stroke:#000000;stroke-width:0.8;" x="144" xlink:href="#m2a984667d9" y="99.418909"/>
      </g>
     </g>
     <g id="text_13">
      <!-- 0.2 -->
      <g transform="translate(121.096875 103.218128)scale(0.1 -0.1)">
       <use xlink:href="#DejaVuSans-48"/>
       <use x="63.623047" xlink:href="#DejaVuSans-46"/>
       <use x="95.410156" xlink:href="#DejaVuSans-50"/>
      </g>
     </g>
    </g>
    <g id="ytick_7">
     <g id="line2d_14">
      <g>
       <use style="stroke:#000000;stroke-width:0.8;" x="144" xlink:href="#m2a984667d9" y="61.105863"/>
      </g>
     </g>
     <g id="text_14">
      <!-- 0.3 -->
      <g transform="translate(121.096875 64.905082)scale(0.1 -0.1)">
       <use xlink:href="#DejaVuSans-48"/>
       <use x="63.623047" xlink:href="#DejaVuSans-46"/>
       <use x="95.410156" xlink:href="#DejaVuSans-51"/>
      </g>
     </g>
    </g>
   </g>
   <g id="line2d_15">
    <path clip-path="url(#p0df8794968)" d="M 184.581818 158.661827 
L 197.464935 111.729833 
L 210.348052 79.099045 
L 223.231169 76.592116 
L 236.114286 116.026973 
L 248.997403 168.190884 
L 261.880519 238.705837 
L 274.763636 278.489325 
L 287.646753 278.888094 
L 300.52987 248.224509 
L 313.412987 182.713161 
L 326.296104 120.718342 
L 339.179221 79.954472 
L 352.062338 73.381096 
L 364.945455 108.647525 
L 377.828571 181.308217 
L 390.711688 248.542077 
L 403.594805 276.325067 
L 416.477922 273.319631 
L 429.361039 247.962902 
L 442.244156 153.046186 
L 455.127273 104.785052 
L 468.01039 70.271972 
L 480.893506 77.596344 
L 493.776623 122.595274 
L 506.65974 182.890257 
L 519.542857 240.664088 
L 532.425974 276.48298 
L 545.309091 256.835259 
L 558.192208 232.423898 
L 571.075325 163.18107 
L 583.958442 99.111708 
L 596.841558 65.241888 
L 609.724675 73.400507 
L 622.607792 119.689833 
L 635.490909 175.796051 
L 648.374026 253.034616 
L 661.257143 282.184921 
L 674.14026 273.714141 
L 687.023377 221.730523 
L 699.906494 149.972161 
L 712.78961 96.937236 
L 725.672727 75.784634 
L 738.555844 72.027608 
L 751.438961 149.572051 
L 764.322078 200.522312 
L 777.205195 257.520864 
L 790.088312 281.849603 
L 802.971429 267.757517 
L 815.854545 224.457047 
L 828.737662 158.541417 
L 841.620779 99.996474 
L 854.503896 81.997852 
L 867.387013 82.787933 
L 880.27013 135.410936 
L 893.153247 207.686522 
L 906.036364 268.286904 
L 918.919481 281.916503 
L 931.802597 265.790902 
L 944.685714 228.353969 
L 957.568831 140.829344 
L 970.451948 98.801265 
L 983.335065 82.837174 
L 996.218182 103.953809 
" style="fill:none;stroke:#1f77b4;stroke-linecap:square;stroke-width:1.5;"/>
   </g>
   <g id="line2d_16">
    <path clip-path="url(#p0df8794968)" d="M 184.581818 181.557068 
L 197.464935 153.022329 
L 210.348052 144.036964 
L 223.231169 155.589667 
L 236.114286 166.480752 
L 248.997403 188.487611 
L 261.880519 197.932324 
L 274.763636 198.143065 
L 287.646753 192.413713 
L 300.52987 180.89157 
L 313.412987 160.488523 
L 326.296104 147.400502 
L 339.179221 140.029227 
L 352.062338 148.842376 
L 364.945455 168.860265 
L 377.828571 181.796412 
L 390.711688 190.537096 
L 403.594805 198.410092 
L 416.477922 195.693532 
L 429.361039 173.097092 
L 442.244156 151.849655 
L 455.127273 135.58745 
L 468.01039 145.233329 
L 480.893506 150.379122 
L 493.776623 164.420033 
L 506.65974 186.003317 
L 519.542857 200.246897 
L 532.425974 195.722924 
L 545.309091 189.155924 
L 558.192208 167.439291 
L 571.075325 152.035883 
L 583.958442 142.738934 
L 596.841558 145.164866 
L 609.724675 150.925522 
L 622.607792 164.788108 
L 635.490909 186.822291 
L 648.374026 200.451382 
L 661.257143 201.766028 
L 674.14026 188.702955 
L 687.023377 176.394246 
L 699.906494 159.706319 
L 712.78961 145.072345 
L 725.672727 140.179073 
L 738.555844 155.552028 
L 751.438961 177.340426 
L 764.322078 196.167201 
L 777.205195 198.297499 
L 790.088312 199.58393 
L 802.971429 187.735828 
L 815.854545 173.389766 
L 828.737662 149.729285 
L 841.620779 144.445415 
L 854.503896 144.855471 
L 867.387013 156.428754 
L 880.27013 170.367715 
L 893.153247 187.599253 
L 906.036364 191.002235 
L 918.919481 195.957133 
L 931.802597 182.843956 
L 944.685714 164.973415 
L 957.568831 143.734365 
L 970.451948 137.343591 
L 983.335065 137.408681 
L 996.218182 159.483933 
" style="fill:none;stroke:#ff7f0e;stroke-linecap:square;stroke-width:1.5;"/>
   </g>
   <g id="line2d_17">
    <path clip-path="url(#p0df8794968)" d="M 184.581818 226.878717 
L 197.464935 198.973784 
L 210.348052 164.067803 
L 223.231169 125.566969 
L 236.114286 107.39986 
L 248.997403 114.172512 
L 261.880519 148.635501 
L 274.763636 190.615332 
L 287.646753 227.445578 
L 300.52987 246.077538 
L 313.412987 235.76396 
L 326.296104 197.025227 
L 339.179221 154.030519 
L 352.062338 121.814253 
L 364.945455 111.25144 
L 377.828571 127.088281 
L 390.711688 159.215473 
L 403.594805 198.011988 
L 416.477922 223.411844 
L 429.361039 234.122734 
L 442.244156 218.431324 
L 455.127273 190.289906 
L 468.01039 153.120016 
L 480.893506 124.541976 
L 493.776623 106.754288 
L 506.65974 117.622606 
L 519.542857 148.511385 
L 532.425974 187.147588 
L 545.309091 220.612042 
L 558.192208 239.022868 
L 571.075325 222.616414 
L 583.958442 181.552358 
L 596.841558 141.335167 
L 609.724675 109.485944 
L 622.607792 103.958085 
L 635.490909 125.185379 
L 648.374026 166.297348 
L 661.257143 201.889564 
L 674.14026 227.464333 
L 687.023377 233.42143 
L 699.906494 219.237678 
L 712.78961 182.459957 
L 725.672727 152.823356 
L 738.555844 125.216899 
L 751.438961 116.971285 
L 764.322078 130.880492 
L 777.205195 167.980735 
L 790.088312 206.364343 
L 802.971429 235.902823 
L 815.854545 249.184687 
L 828.737662 231.510678 
L 841.620779 192.617856 
L 854.503896 152.547249 
L 867.387013 120.675359 
L 880.27013 117.024379 
L 893.153247 144.509563 
L 906.036364 182.487113 
L 918.919481 220.967589 
L 931.802597 243.335223 
L 944.685714 248.995248 
L 957.568831 225.49484 
L 970.451948 187.623577 
L 983.335065 155.691859 
L 996.218182 129.419114 
" style="fill:none;stroke:#2ca02c;stroke-linecap:square;stroke-width:1.5;"/>
   </g>
   <g id="line2d_18">
    <path clip-path="url(#p0df8794968)" d="M 184.581818 144.642667 
L 197.464935 163.069148 
L 210.348052 195.492568 
L 223.231169 220.753333 
L 236.114286 227.148534 
L 248.997403 216.847959 
L 261.880519 194.907877 
L 274.763636 173.903723 
L 287.646753 146.77506 
L 300.52987 135.865617 
L 313.412987 143.945939 
L 326.296104 167.957326 
L 339.179221 195.000273 
L 352.062338 215.009539 
L 364.945455 214.648196 
L 377.828571 204.978256 
L 390.711688 185.829096 
L 403.594805 163.605972 
L 416.477922 139.819209 
L 429.361039 136.236422 
L 442.244156 143.694813 
L 455.127273 166.564528 
L 468.01039 184.317443 
L 480.893506 201.678205 
L 493.776623 216.271755 
L 506.65974 206.056406 
L 519.542857 184.528566 
L 532.425974 159.998482 
L 545.309091 135.024111 
L 558.192208 128.813716 
L 571.075325 143.082171 
L 583.958442 165.771334 
L 596.841558 192.224447 
L 609.724675 211.264716 
L 622.607792 218.374264 
L 635.490909 198.942293 
L 648.374026 177.598826 
L 661.257143 154.918342 
L 674.14026 141.784606 
L 687.023377 140.461262 
L 699.906494 150.527973 
L 712.78961 171.820495 
L 725.672727 197.064371 
L 738.555844 213.889196 
L 751.438961 221.451729 
L 764.322078 205.601583 
L 777.205195 183.875849 
L 790.088312 163.466389 
L 802.971429 140.306708 
L 815.854545 134.968605 
L 828.737662 149.240616 
L 841.620779 174.26033 
L 854.503896 200.099111 
L 867.387013 218.743111 
L 880.27013 214.592304 
L 893.153247 198.657368 
L 906.036364 175.434922 
L 918.919481 149.344661 
L 931.802597 130.635712 
L 944.685714 130.097016 
L 957.568831 140.720894 
L 970.451948 169.233652 
L 983.335065 199.54555 
L 996.218182 196.537631 
" style="fill:none;stroke:#d62728;stroke-linecap:square;stroke-width:1.5;"/>
   </g>
   <g id="line2d_19">
    <path clip-path="url(#p0df8794968)" d="M 184.581818 90.393415 
L 197.464935 62.654186 
L 210.348052 80.293632 
L 223.231169 132.625569 
L 236.114286 218.915926 
L 248.997403 274.391969 
L 261.880519 295.449761 
L 274.763636 270.791241 
L 287.646753 212.468509 
L 300.52987 133.594433 
L 313.412987 70.735538 
L 326.296104 58.953635 
L 339.179221 78.45031 
L 352.062338 135.421781 
L 364.945455 213.242456 
L 377.828571 263.801427 
L 390.711688 286.479686 
L 403.594805 266.536469 
L 416.477922 205.709496 
L 429.361039 137.428423 
L 442.244156 62.801823 
L 455.127273 53.568 
L 468.01039 78.405448 
L 480.893506 135.555239 
L 493.776623 226.012546 
L 506.65974 281.148813 
L 519.542857 293.442468 
L 532.425974 268.155492 
L 545.309091 194.428268 
L 558.192208 119.324052 
L 571.075325 67.538563 
L 583.958442 63.749144 
L 596.841558 92.223595 
L 609.724675 153.973864 
L 622.607792 233.382368 
L 635.490909 277.178941 
L 648.374026 292.381947 
L 661.257143 259.699772 
L 674.14026 199.718705 
L 687.023377 129.956844 
L 699.906494 68.26871 
L 712.78961 59.268263 
L 725.672727 90.511936 
L 738.555844 150.082361 
L 751.438961 247.570499 
L 764.322078 288.360134 
L 777.205195 293.132864 
L 790.088312 258.85232 
L 802.971429 185.144876 
L 815.854545 106.85358 
L 828.737662 57.900365 
L 841.620779 57.505627 
L 854.503896 101.005921 
L 867.387013 166.015751 
L 880.27013 239.112758 
L 893.153247 278.5921 
L 906.036364 286.152932 
L 918.919481 248.417454 
L 931.802597 173.782055 
L 944.685714 101.251252 
L 957.568831 56.999528 
L 970.451948 55.696268 
L 983.335065 79.844686 
L 996.218182 139.322093 
" style="fill:none;stroke:#9467bd;stroke-linecap:square;stroke-width:1.5;"/>
   </g>
   <g id="line2d_20">
    <path clip-path="url(#p0df8794968)" d="M 184.581818 224.231179 
L 197.464935 234.476549 
L 210.348052 212.904566 
L 223.231169 182.202893 
L 236.114286 142.151261 
L 248.997403 123.389785 
L 261.880519 123.642595 
L 274.763636 137.163604 
L 287.646753 172.157042 
L 300.52987 209.244141 
L 313.412987 229.209949 
L 326.296104 226.391007 
L 339.179221 200.234936 
L 352.062338 175.502632 
L 364.945455 147.659418 
L 377.828571 127.335924 
L 390.711688 122.21522 
L 403.594805 137.213518 
L 416.477922 173.962006 
L 429.361039 189.221445 
L 442.244156 226.215886 
L 455.127273 223.510549 
L 468.01039 206.415559 
L 480.893506 178.645306 
L 493.776623 135.309474 
L 506.65974 117.720226 
L 519.542857 119.710089 
L 532.425974 128.777578 
L 545.309091 182.30117 
L 558.192208 214.066123 
L 571.075325 225.826401 
L 583.958442 220.191873 
L 596.841558 205.154886 
L 609.724675 172.188532 
L 622.607792 135.533336 
L 635.490909 129.901963 
L 648.374026 135.048501 
L 661.257143 148.610295 
L 674.14026 179.662787 
L 687.023377 210.502016 
L 699.906494 233.165988 
L 712.78961 230.055437 
L 725.672727 205.643345 
L 738.555844 188.150574 
L 751.438961 134.091886 
L 764.322078 120.973984 
L 777.205195 130.924754 
L 790.088312 149.749967 
L 802.971429 185.279286 
L 815.854545 222.098477 
L 828.737662 234.725283 
L 841.620779 231.218338 
L 854.503896 193.655015 
L 867.387013 166.797429 
L 880.27013 137.144387 
L 893.153247 127.184211 
L 906.036364 123.865934 
L 918.919481 157.240888 
L 931.802597 191.613647 
L 944.685714 209.346305 
L 957.568831 230.847373 
L 970.451948 218.148304 
L 983.335065 182.524712 
L 996.218182 139.93576 
" style="fill:none;stroke:#8c564b;stroke-linecap:square;stroke-width:1.5;"/>
   </g>
   <g id="line2d_21">
    <path clip-path="url(#p0df8794968)" d="M 184.581818 127.213282 
L 197.464935 116.206113 
L 210.348052 130.31473 
L 223.231169 160.697545 
L 236.114286 186.968304 
L 248.997403 212.081384 
L 261.880519 220.813247 
L 274.763636 215.019512 
L 287.646753 182.566025 
L 300.52987 147.909088 
L 313.412987 126.564312 
L 326.296104 120.258955 
L 339.179221 135.777035 
L 352.062338 158.328406 
L 364.945455 191.949013 
L 377.828571 220.343055 
L 390.711688 219.072052 
L 403.594805 205.864027 
L 416.477922 186.436667 
L 429.361039 143.012414 
L 442.244156 132.356134 
L 455.127273 129.253496 
L 468.01039 138.215629 
L 480.893506 162.017148 
L 493.776623 198.297997 
L 506.65974 221.437973 
L 519.542857 227.289178 
L 532.425974 206.410532 
L 545.309091 185.156619 
L 558.192208 155.455531 
L 571.075325 131.116737 
L 583.958442 122.939652 
L 596.841558 146.947854 
L 609.724675 177.406007 
L 622.607792 203.517588 
L 635.490909 227.626162 
L 648.374026 223.538541 
L 661.257143 210.015139 
L 674.14026 181.734562 
L 687.023377 149.17316 
L 699.906494 131.142953 
L 712.78961 131.714102 
L 725.672727 140.850282 
L 738.555844 179.789241 
L 751.438961 201.289125 
L 764.322078 218.577083 
L 777.205195 222.553834 
L 790.088312 209.697371 
L 802.971429 176.480729 
L 815.854545 140.894776 
L 828.737662 124.8331 
L 841.620779 127.369362 
L 854.503896 142.913333 
L 867.387013 169.41129 
L 880.27013 203.516375 
L 893.153247 224.115729 
L 906.036364 218.46229 
L 918.919481 197.261018 
L 931.802597 179.284632 
L 944.685714 137.303773 
L 957.568831 129.151009 
L 970.451948 129.440885 
L 983.335065 132.38126 
L 996.218182 144.336092 
" style="fill:none;stroke:#e377c2;stroke-linecap:square;stroke-width:1.5;"/>
   </g>
   <g id="line2d_22">
    <path clip-path="url(#p0df8794968)" d="M 184.581818 140.936067 
L 197.464935 149.328779 
L 210.348052 172.969883 
L 223.231169 204.442001 
L 236.114286 225.021682 
L 248.997403 218.890868 
L 261.880519 195.218297 
L 274.763636 173.413904 
L 287.646753 146.549546 
L 300.52987 123.954779 
L 313.412987 131.604992 
L 326.296104 157.468625 
L 339.179221 181.130969 
L 352.062338 209.282352 
L 364.945455 219.695128 
L 377.828571 217.501953 
L 390.711688 198.301995 
L 403.594805 165.189814 
L 416.477922 150.433205 
L 429.361039 136.973865 
L 442.244156 136.395985 
L 455.127273 159.989286 
L 468.01039 185.356179 
L 480.893506 208.341957 
L 493.776623 223.768848 
L 506.65974 220.404842 
L 519.542857 203.564657 
L 532.425974 169.901133 
L 545.309091 143.725194 
L 558.192208 130.895584 
L 571.075325 139.663012 
L 583.958442 158.516985 
L 596.841558 184.983074 
L 609.724675 216.641122 
L 622.607792 223.455271 
L 635.490909 207.844444 
L 648.374026 189.367577 
L 661.257143 162.510983 
L 674.14026 141.120288 
L 687.023377 126.288957 
L 699.906494 133.354348 
L 712.78961 158.296313 
L 725.672727 179.212491 
L 738.555844 201.628211 
L 751.438961 217.80977 
L 764.322078 208.639454 
L 777.205195 184.279178 
L 790.088312 159.531622 
L 802.971429 134.046607 
L 815.854545 118.740868 
L 828.737662 129.070414 
L 841.620779 154.373494 
L 854.503896 184.677647 
L 867.387013 206.658423 
L 880.27013 213.132661 
L 893.153247 204.341858 
L 906.036364 181.423274 
L 918.919481 146.600907 
L 931.802597 131.086227 
L 944.685714 123.447778 
L 957.568831 133.436788 
L 970.451948 159.358003 
L 983.335065 181.949946 
L 996.218182 210.680197 
" style="fill:none;stroke:#7f7f7f;stroke-linecap:square;stroke-width:1.5;"/>
   </g>
   <g id="line2d_23">
    <path clip-path="url(#p0df8794968)" d="M 184.581818 168.057152 
L 197.464935 178.696319 
L 210.348052 200.093514 
L 223.231169 210.799146 
L 236.114286 205.780711 
L 248.997403 195.551771 
L 261.880519 167.901835 
L 274.763636 152.925639 
L 287.646753 137.194396 
L 300.52987 140.003156 
L 313.412987 163.579202 
L 326.296104 178.373508 
L 339.179221 205.355395 
L 352.062338 210.853599 
L 364.945455 214.812327 
L 377.828571 196.102087 
L 390.711688 165.15224 
L 403.594805 158.167313 
L 416.477922 147.44259 
L 429.361039 146.690914 
L 442.244156 173.138429 
L 455.127273 186.130453 
L 468.01039 209.232009 
L 480.893506 216.225857 
L 493.776623 212.388211 
L 506.65974 191.931592 
L 519.542857 169.496239 
L 532.425974 155.543284 
L 545.309091 145.697504 
L 558.192208 144.91768 
L 571.075325 167.932815 
L 583.958442 186.780334 
L 596.841558 210.322922 
L 609.724675 212.61795 
L 622.607792 203.085205 
L 635.490909 186.127913 
L 648.374026 160.122657 
L 661.257143 151.759514 
L 674.14026 132.108968 
L 687.023377 140.459178 
L 699.906494 165.825041 
L 712.78961 181.953621 
L 725.672727 197.977266 
L 738.555844 208.761429 
L 751.438961 196.627128 
L 764.322078 184.565409 
L 777.205195 159.043664 
L 790.088312 146.094657 
L 802.971429 134.329355 
L 815.854545 143.912789 
L 828.737662 170.078566 
L 841.620779 187.91353 
L 854.503896 208.03684 
L 867.387013 215.10059 
L 880.27013 211.310886 
L 893.153247 186.3494 
L 906.036364 158.958934 
L 918.919481 151.929603 
L 931.802597 152.447012 
L 944.685714 150.382571 
L 957.568831 178.497985 
L 970.451948 196.118762 
L 983.335065 218.716793 
L 996.218182 201.06433 
" style="fill:none;stroke:#bcbd22;stroke-linecap:square;stroke-width:1.5;"/>
   </g>
   <g id="line2d_24">
    <path clip-path="url(#p0df8794968)" d="M 184.581818 192.059741 
L 197.464935 150.151524 
L 210.348052 119.14727 
L 223.231169 96.560105 
L 236.114286 107.594392 
L 248.997403 144.736348 
L 261.880519 188.601296 
L 274.763636 211.482018 
L 287.646753 244.788209 
L 300.52987 242.254418 
L 313.412987 202.726565 
L 326.296104 161.903354 
L 339.179221 128.462561 
L 352.062338 115.02919 
L 364.945455 126.187644 
L 377.828571 145.765608 
L 390.711688 195.507259 
L 403.594805 237.349529 
L 416.477922 243.374484 
L 429.361039 234.612666 
L 442.244156 201.773153 
L 455.127273 158.508415 
L 468.01039 133.340727 
L 480.893506 119.488548 
L 493.776623 119.067565 
L 506.65974 160.854515 
L 519.542857 197.606161 
L 532.425974 230.129215 
L 545.309091 244.916989 
L 558.192208 231.993889 
L 571.075325 193.420358 
L 583.958442 165.92508 
L 596.841558 122.021031 
L 609.724675 101.668677 
L 622.607792 123.166622 
L 635.490909 163.807185 
L 648.374026 200.330832 
L 661.257143 226.622784 
L 674.14026 233.817115 
L 687.023377 229.928107 
L 699.906494 192.69313 
L 712.78961 141.301865 
L 725.672727 120.864187 
L 738.555844 109.23161 
L 751.438961 123.925948 
L 764.322078 164.096993 
L 777.205195 201.389691 
L 790.088312 219.173334 
L 802.971429 245.165699 
L 815.854545 230.524815 
L 828.737662 188.771088 
L 841.620779 148.336619 
L 854.503896 122.445382 
L 867.387013 111.538299 
L 880.27013 133.27842 
L 893.153247 160.309437 
L 906.036364 212.523373 
L 918.919481 248.114198 
L 931.802597 245.481583 
L 944.685714 225.868991 
L 957.568831 187.595904 
L 970.451948 145.349467 
L 983.335065 124.053432 
L 996.218182 125.012964 
" style="fill:none;stroke:#17becf;stroke-linecap:square;stroke-width:1.5;"/>
   </g>
   <g id="line2d_25">
    <path clip-path="url(#p0df8794968)" d="M 184.581818 125.7299 
L 197.464935 71.260969 
L 210.348052 53.684557 
L 223.231169 78.392226 
L 236.114286 141.566076 
L 248.997403 223.314422 
L 261.880519 275.296095 
L 274.763636 295.488 
L 287.646753 265.427113 
L 300.52987 204.242491 
L 313.412987 128.029481 
L 326.296104 81.545435 
L 339.179221 63.592269 
L 352.062338 90.749257 
L 364.945455 152.799426 
L 377.828571 237.3338 
L 390.711688 279.935506 
L 403.594805 287.540811 
L 416.477922 265.097373 
L 429.361039 202.531172 
L 442.244156 119.392481 
L 455.127273 73.701867 
L 468.01039 64.683162 
L 480.893506 95.629101 
L 493.776623 163.409507 
L 506.65974 232.734667 
L 519.542857 283.089812 
L 532.425974 287.368488 
L 545.309091 257.466782 
L 558.192208 188.456572 
L 571.075325 114.804377 
L 583.958442 63.252122 
L 596.841558 64.334736 
L 609.724675 99.142685 
L 622.607792 164.892325 
L 635.490909 234.406984 
L 648.374026 283.659739 
L 661.257143 285.557805 
L 674.14026 248.223402 
L 687.023377 173.426237 
L 699.906494 104.536501 
L 712.78961 67.544957 
L 725.672727 59.221539 
L 738.555844 96.313518 
L 751.438961 174.696074 
L 764.322078 247.15297 
L 777.205195 283.347349 
L 790.088312 285.870846 
L 802.971429 244.626561 
L 815.854545 173.181994 
L 828.737662 101.533851 
L 841.620779 66.391104 
L 854.503896 65.292162 
L 867.387013 108.580414 
L 880.27013 181.610091 
L 893.153247 256.622368 
L 906.036364 288.109117 
L 918.919481 277.98068 
L 931.802597 244.991355 
L 944.685714 173.233448 
L 957.568831 97.784065 
L 970.451948 63.953403 
L 983.335065 64.144978 
L 996.218182 102.253642 
" style="fill:none;stroke:#1f77b4;stroke-linecap:square;stroke-width:1.5;"/>
   </g>
   <g id="line2d_26">
    <path clip-path="url(#p0df8794968)" d="M 184.581818 156.217929 
L 197.464935 178.264775 
L 210.348052 222.902043 
L 223.231169 241.707824 
L 236.114286 227.41025 
L 248.997403 209.949034 
L 261.880519 169.344082 
L 274.763636 142.081199 
L 287.646753 125.598163 
L 300.52987 122.237999 
L 313.412987 151.328121 
L 326.296104 191.288858 
L 339.179221 215.538985 
L 352.062338 235.095535 
L 364.945455 226.77037 
L 377.828571 195.700563 
L 390.711688 167.012964 
L 403.594805 140.64544 
L 416.477922 120.140651 
L 429.361039 130.58542 
L 442.244156 162.934349 
L 455.127273 187.456591 
L 468.01039 218.418932 
L 480.893506 228.585329 
L 493.776623 224.306636 
L 506.65974 199.248202 
L 519.542857 157.461413 
L 532.425974 133.188071 
L 545.309091 125.663475 
L 558.192208 123.21197 
L 571.075325 159.30414 
L 583.958442 195.633542 
L 596.841558 218.006182 
L 609.724675 232.324925 
L 622.607792 223.064375 
L 635.490909 189.408523 
L 648.374026 155.296598 
L 661.257143 134.714964 
L 674.14026 121.235923 
L 687.023377 136.210526 
L 699.906494 160.36437 
L 712.78961 190.928248 
L 725.672727 222.968382 
L 738.555844 231.772308 
L 751.438961 211.690346 
L 764.322078 196.170543 
L 777.205195 156.454909 
L 790.088312 133.167864 
L 802.971429 123.382865 
L 815.854545 129.943819 
L 828.737662 166.677558 
L 841.620779 202.308064 
L 854.503896 222.663948 
L 867.387013 239.496152 
L 880.27013 222.898335 
L 893.153247 187.521683 
L 906.036364 162.181674 
L 918.919481 130.621185 
L 931.802597 121.698833 
L 944.685714 137.104338 
L 957.568831 177.218873 
L 970.451948 209.176503 
L 983.335065 239.482747 
L 996.218182 235.441163 
" style="fill:none;stroke:#ff7f0e;stroke-linecap:square;stroke-width:1.5;"/>
   </g>
   <g id="line2d_27">
    <path clip-path="url(#p0df8794968)" d="M 184.581818 169.404465 
L 197.464935 192.01575 
L 210.348052 186.791023 
L 223.231169 176.310559 
L 236.114286 168.976275 
L 248.997403 168.343981 
L 261.880519 169.447729 
L 274.763636 168.989288 
L 287.646753 181.252105 
L 300.52987 190.605379 
L 313.412987 192.981949 
L 326.296104 194.421832 
L 339.179221 181.058028 
L 352.062338 169.584275 
L 364.945455 166.692064 
L 377.828571 156.500416 
L 390.711688 162.195391 
L 403.594805 172.839837 
L 416.477922 181.793057 
L 429.361039 195.191633 
L 442.244156 182.612062 
L 455.127273 175.91861 
L 468.01039 170.763993 
L 480.893506 166.550673 
L 493.776623 162.490068 
L 506.65974 159.466577 
L 519.542857 167.295127 
L 532.425974 171.481598 
L 545.309091 173.111342 
L 558.192208 180.252681 
L 571.075325 184.058846 
L 583.958442 188.052552 
L 596.841558 177.218692 
L 609.724675 164.025251 
L 622.607792 160.535904 
L 635.490909 152.037062 
L 648.374026 165.729135 
L 661.257143 179.235004 
L 674.14026 185.176263 
L 687.023377 195.127745 
L 699.906494 190.535894 
L 712.78961 183.547801 
L 725.672727 174.891874 
L 738.555844 163.097625 
L 751.438961 172.045942 
L 764.322078 173.610898 
L 777.205195 178.145218 
L 790.088312 179.546979 
L 802.971429 183.446881 
L 815.854545 192.076259 
L 828.737662 187.695995 
L 841.620779 187.842608 
L 854.503896 184.787021 
L 867.387013 175.813564 
L 880.27013 164.824472 
L 893.153247 157.673127 
L 906.036364 165.067965 
L 918.919481 180.285249 
L 931.802597 184.919014 
L 944.685714 200.738821 
L 957.568831 190.928043 
L 970.451948 184.995694 
L 983.335065 168.784273 
L 996.218182 164.376198 
" style="fill:none;stroke:#2ca02c;stroke-linecap:square;stroke-width:1.5;"/>
   </g>
   <g id="line2d_28">
    <path clip-path="url(#p0df8794968)" d="M 184.581818 209.904377 
L 197.464935 200.864041 
L 210.348052 164.05061 
L 223.231169 129.768493 
L 236.114286 104.111014 
L 248.997403 107.720791 
L 261.880519 142.168528 
L 274.763636 180.635744 
L 287.646753 218.420756 
L 300.52987 241.948531 
L 313.412987 232.059059 
L 326.296104 206.28079 
L 339.179221 156.193745 
L 352.062338 122.443452 
L 364.945455 101.524089 
L 377.828571 120.064903 
L 390.711688 145.266962 
L 403.594805 180.084866 
L 416.477922 217.746008 
L 429.361039 234.7193 
L 442.244156 224.169646 
L 455.127273 195.940812 
L 468.01039 153.389448 
L 480.893506 127.007155 
L 493.776623 103.35798 
L 506.65974 112.814543 
L 519.542857 146.105969 
L 532.425974 180.418014 
L 545.309091 222.701286 
L 558.192208 241.699871 
L 571.075325 227.700849 
L 583.958442 191.554554 
L 596.841558 151.328707 
L 609.724675 119.076391 
L 622.607792 105.111737 
L 635.490909 117.626717 
L 648.374026 157.476231 
L 661.257143 195.463124 
L 674.14026 231.966149 
L 687.023377 237.140993 
L 699.906494 227.186888 
L 712.78961 196.696994 
L 725.672727 156.226908 
L 738.555844 126.722762 
L 751.438961 110.172502 
L 764.322078 123.674366 
L 777.205195 162.242706 
L 790.088312 197.699262 
L 802.971429 232.445358 
L 815.854545 246.626695 
L 828.737662 227.907438 
L 841.620779 198.153631 
L 854.503896 147.963947 
L 867.387013 115.243897 
L 880.27013 105.940446 
L 893.153247 130.408599 
L 906.036364 161.979444 
L 918.919481 199.181214 
L 931.802597 230.191302 
L 944.685714 241.603022 
L 957.568831 220.378294 
L 970.451948 180.016162 
L 983.335065 146.237136 
L 996.218182 127.719095 
" style="fill:none;stroke:#d62728;stroke-linecap:square;stroke-width:1.5;"/>
   </g>
   <g id="line2d_29">
    <path clip-path="url(#p0df8794968)" d="M 184.581818 197.580898 
L 197.464935 186.210094 
L 210.348052 180.245644 
L 223.231169 159.905722 
L 236.114286 138.886815 
L 248.997403 138.552988 
L 261.880519 147.24205 
L 274.763636 172.019312 
L 287.646753 190.183623 
L 300.52987 204.95216 
L 313.412987 202.358863 
L 326.296104 198.61788 
L 339.179221 177.37164 
L 352.062338 161.82103 
L 364.945455 147.846043 
L 377.828571 152.066923 
L 390.711688 162.527767 
L 403.594805 177.580075 
L 416.477922 190.741387 
L 429.361039 206.157325 
L 442.244156 211.532038 
L 455.127273 199.855261 
L 468.01039 182.427414 
L 480.893506 164.959032 
L 493.776623 146.326974 
L 506.65974 145.711728 
L 519.542857 160.324171 
L 532.425974 172.938279 
L 545.309091 194.975988 
L 558.192208 207.962882 
L 571.075325 209.253644 
L 583.958442 190.245641 
L 596.841558 170.879345 
L 609.724675 156.249846 
L 622.607792 150.921078 
L 635.490909 144.286543 
L 648.374026 157.33748 
L 661.257143 176.651578 
L 674.14026 189.870156 
L 687.023377 200.616226 
L 699.906494 200.964372 
L 712.78961 189.046254 
L 725.672727 174.862605 
L 738.555844 155.715725 
L 751.438961 137.009424 
L 764.322078 143.876285 
L 777.205195 156.019761 
L 790.088312 178.044814 
L 802.971429 198.305536 
L 815.854545 209.407981 
L 828.737662 205.813398 
L 841.620779 195.631032 
L 854.503896 172.575461 
L 867.387013 157.59007 
L 880.27013 147.670305 
L 893.153247 156.644738 
L 906.036364 172.814421 
L 918.919481 187.027232 
L 931.802597 204.400276 
L 944.685714 215.957153 
L 957.568831 216.846192 
L 970.451948 204.301566 
L 983.335065 191.943568 
L 996.218182 176.453018 
" style="fill:none;stroke:#9467bd;stroke-linecap:square;stroke-width:1.5;"/>
   </g>
   <g id="line2d_30">
    <path clip-path="url(#p0df8794968)" d="M 184.581818 136.729342 
L 197.464935 151.220656 
L 210.348052 165.132909 
L 223.231169 173.824735 
L 236.114286 191.173144 
L 248.997403 204.916286 
L 261.880519 211.010899 
L 274.763636 213.545685 
L 287.646753 204.503793 
L 300.52987 183.836497 
L 313.412987 168.971068 
L 326.296104 164.293219 
L 339.179221 164.155159 
L 352.062338 167.377687 
L 364.945455 184.3454 
L 377.828571 193.403304 
L 390.711688 210.198635 
L 403.594805 208.428863 
L 416.477922 189.33546 
L 429.361039 181.130852 
L 442.244156 157.105507 
L 455.127273 147.01905 
L 468.01039 153.378715 
L 480.893506 155.211327 
L 493.776623 181.289259 
L 506.65974 198.362714 
L 519.542857 205.453395 
L 532.425974 201.521816 
L 545.309091 180.991674 
L 558.192208 168.047431 
L 571.075325 155.641335 
L 583.958442 147.7394 
L 596.841558 146.735414 
L 609.724675 162.876101 
L 622.607792 184.304306 
L 635.490909 189.026091 
L 648.374026 198.10266 
L 661.257143 201.561749 
L 674.14026 185.166061 
L 687.023377 178.045523 
L 699.906494 152.733408 
L 712.78961 148.426172 
L 725.672727 158.478858 
L 738.555844 167.197171 
L 751.438961 193.312459 
L 764.322078 204.347119 
L 777.205195 208.925354 
L 790.088312 209.749804 
L 802.971429 193.658449 
L 815.854545 171.27581 
L 828.737662 155.645066 
L 841.620779 155.588385 
L 854.503896 163.818911 
L 867.387013 171.478674 
L 880.27013 188.922819 
L 893.153247 199.567358 
L 906.036364 207.820765 
L 918.919481 197.49573 
L 931.802597 177.008363 
L 944.685714 159.676372 
L 957.568831 143.494421 
L 970.451948 132.570316 
L 983.335065 146.738525 
L 996.218182 155.812629 
" style="fill:none;stroke:#8c564b;stroke-linecap:square;stroke-width:1.5;"/>
   </g>
   <g id="patch_3">
    <path d="M 144 307.584 
L 144 41.472 
" style="fill:none;stroke:#000000;stroke-linecap:square;stroke-linejoin:miter;stroke-width:0.8;"/>
   </g>
   <g id="patch_4">
    <path d="M 1036.8 307.584 
L 1036.8 41.472 
" style="fill:none;stroke:#000000;stroke-linecap:square;stroke-linejoin:miter;stroke-width:0.8;"/>
   </g>
   <g id="patch_5">
    <path d="M 144 307.584 
L 1036.8 307.584 
" style="fill:none;stroke:#000000;stroke-linecap:square;stroke-linejoin:miter;stroke-width:0.8;"/>
   </g>
   <g id="patch_6">
    <path d="M 144 41.472 
L 1036.8 41.472 
" style="fill:none;stroke:#000000;stroke-linecap:square;stroke-linejoin:miter;stroke-width:0.8;"/>
   </g>
   <g id="text_15">
    <!-- 8th layer's shape: torch.Size([1, 256, 64]). Uniformly sampling 16 channels -->
    <g transform="translate(364.66875 35.472)scale(0.12 -0.12)">
     <defs>
      <path d="M 31.78125 34.625 
Q 24.75 34.625 20.71875 30.859375 
Q 16.703125 27.09375 16.703125 20.515625 
Q 16.703125 13.921875 20.71875 10.15625 
Q 24.75 6.390625 31.78125 6.390625 
Q 38.8125 6.390625 42.859375 10.171875 
Q 46.921875 13.96875 46.921875 20.515625 
Q 46.921875 27.09375 42.890625 30.859375 
Q 38.875 34.625 31.78125 34.625 
z
M 21.921875 38.8125 
Q 15.578125 40.375 12.03125 44.71875 
Q 8.5 49.078125 8.5 55.328125 
Q 8.5 64.0625 14.71875 69.140625 
Q 20.953125 74.21875 31.78125 74.21875 
Q 42.671875 74.21875 48.875 69.140625 
Q 55.078125 64.0625 55.078125 55.328125 
Q 55.078125 49.078125 51.53125 44.71875 
Q 48 40.375 41.703125 38.8125 
Q 48.828125 37.15625 52.796875 32.3125 
Q 56.78125 27.484375 56.78125 20.515625 
Q 56.78125 9.90625 50.3125 4.234375 
Q 43.84375 -1.421875 31.78125 -1.421875 
Q 19.734375 -1.421875 13.25 4.234375 
Q 6.78125 9.90625 6.78125 20.515625 
Q 6.78125 27.484375 10.78125 32.3125 
Q 14.796875 37.15625 21.921875 38.8125 
z
M 18.3125 54.390625 
Q 18.3125 48.734375 21.84375 45.5625 
Q 25.390625 42.390625 31.78125 42.390625 
Q 38.140625 42.390625 41.71875 45.5625 
Q 45.3125 48.734375 45.3125 54.390625 
Q 45.3125 60.0625 41.71875 63.234375 
Q 38.140625 66.40625 31.78125 66.40625 
Q 25.390625 66.40625 21.84375 63.234375 
Q 18.3125 60.0625 18.3125 54.390625 
z
" id="DejaVuSans-56"/>
      <path d="M 18.3125 70.21875 
L 18.3125 54.6875 
L 36.8125 54.6875 
L 36.8125 47.703125 
L 18.3125 47.703125 
L 18.3125 18.015625 
Q 18.3125 11.328125 20.140625 9.421875 
Q 21.96875 7.515625 27.59375 7.515625 
L 36.8125 7.515625 
L 36.8125 0 
L 27.59375 0 
Q 17.1875 0 13.234375 3.875 
Q 9.28125 7.765625 9.28125 18.015625 
L 9.28125 47.703125 
L 2.6875 47.703125 
L 2.6875 54.6875 
L 9.28125 54.6875 
L 9.28125 70.21875 
z
" id="DejaVuSans-116"/>
      <path d="M 54.890625 33.015625 
L 54.890625 0 
L 45.90625 0 
L 45.90625 32.71875 
Q 45.90625 40.484375 42.875 44.328125 
Q 39.84375 48.1875 33.796875 48.1875 
Q 26.515625 48.1875 22.3125 43.546875 
Q 18.109375 38.921875 18.109375 30.90625 
L 18.109375 0 
L 9.078125 0 
L 9.078125 75.984375 
L 18.109375 75.984375 
L 18.109375 46.1875 
Q 21.34375 51.125 25.703125 53.5625 
Q 30.078125 56 35.796875 56 
Q 45.21875 56 50.046875 50.171875 
Q 54.890625 44.34375 54.890625 33.015625 
z
" id="DejaVuSans-104"/>
      <path id="DejaVuSans-32"/>
      <path d="M 9.421875 75.984375 
L 18.40625 75.984375 
L 18.40625 0 
L 9.421875 0 
z
" id="DejaVuSans-108"/>
      <path d="M 34.28125 27.484375 
Q 23.390625 27.484375 19.1875 25 
Q 14.984375 22.515625 14.984375 16.5 
Q 14.984375 11.71875 18.140625 8.90625 
Q 21.296875 6.109375 26.703125 6.109375 
Q 34.1875 6.109375 38.703125 11.40625 
Q 43.21875 16.703125 43.21875 25.484375 
L 43.21875 27.484375 
z
M 52.203125 31.203125 
L 52.203125 0 
L 43.21875 0 
L 43.21875 8.296875 
Q 40.140625 3.328125 35.546875 0.953125 
Q 30.953125 -1.421875 24.3125 -1.421875 
Q 15.921875 -1.421875 10.953125 3.296875 
Q 6 8.015625 6 15.921875 
Q 6 25.140625 12.171875 29.828125 
Q 18.359375 34.515625 30.609375 34.515625 
L 43.21875 34.515625 
L 43.21875 35.40625 
Q 43.21875 41.609375 39.140625 45 
Q 35.0625 48.390625 27.6875 48.390625 
Q 23 48.390625 18.546875 47.265625 
Q 14.109375 46.140625 10.015625 43.890625 
L 10.015625 52.203125 
Q 14.9375 54.109375 19.578125 55.046875 
Q 24.21875 56 28.609375 56 
Q 40.484375 56 46.34375 49.84375 
Q 52.203125 43.703125 52.203125 31.203125 
z
" id="DejaVuSans-97"/>
      <path d="M 32.171875 -5.078125 
Q 28.375 -14.84375 24.75 -17.8125 
Q 21.140625 -20.796875 15.09375 -20.796875 
L 7.90625 -20.796875 
L 7.90625 -13.28125 
L 13.1875 -13.28125 
Q 16.890625 -13.28125 18.9375 -11.515625 
Q 21 -9.765625 23.484375 -3.21875 
L 25.09375 0.875 
L 2.984375 54.6875 
L 12.5 54.6875 
L 29.59375 11.921875 
L 46.6875 54.6875 
L 56.203125 54.6875 
z
" id="DejaVuSans-121"/>
      <path d="M 56.203125 29.59375 
L 56.203125 25.203125 
L 14.890625 25.203125 
Q 15.484375 15.921875 20.484375 11.0625 
Q 25.484375 6.203125 34.421875 6.203125 
Q 39.59375 6.203125 44.453125 7.46875 
Q 49.3125 8.734375 54.109375 11.28125 
L 54.109375 2.78125 
Q 49.265625 0.734375 44.1875 -0.34375 
Q 39.109375 -1.421875 33.890625 -1.421875 
Q 20.796875 -1.421875 13.15625 6.1875 
Q 5.515625 13.8125 5.515625 26.8125 
Q 5.515625 40.234375 12.765625 48.109375 
Q 20.015625 56 32.328125 56 
Q 43.359375 56 49.78125 48.890625 
Q 56.203125 41.796875 56.203125 29.59375 
z
M 47.21875 32.234375 
Q 47.125 39.59375 43.09375 43.984375 
Q 39.0625 48.390625 32.421875 48.390625 
Q 24.90625 48.390625 20.390625 44.140625 
Q 15.875 39.890625 15.1875 32.171875 
z
" id="DejaVuSans-101"/>
      <path d="M 41.109375 46.296875 
Q 39.59375 47.171875 37.8125 47.578125 
Q 36.03125 48 33.890625 48 
Q 26.265625 48 22.1875 43.046875 
Q 18.109375 38.09375 18.109375 28.8125 
L 18.109375 0 
L 9.078125 0 
L 9.078125 54.6875 
L 18.109375 54.6875 
L 18.109375 46.1875 
Q 20.953125 51.171875 25.484375 53.578125 
Q 30.03125 56 36.53125 56 
Q 37.453125 56 38.578125 55.875 
Q 39.703125 55.765625 41.0625 55.515625 
z
" id="DejaVuSans-114"/>
      <path d="M 17.921875 72.90625 
L 17.921875 45.796875 
L 9.625 45.796875 
L 9.625 72.90625 
z
" id="DejaVuSans-39"/>
      <path d="M 44.28125 53.078125 
L 44.28125 44.578125 
Q 40.484375 46.53125 36.375 47.5 
Q 32.28125 48.484375 27.875 48.484375 
Q 21.1875 48.484375 17.84375 46.4375 
Q 14.5 44.390625 14.5 40.28125 
Q 14.5 37.15625 16.890625 35.375 
Q 19.28125 33.59375 26.515625 31.984375 
L 29.59375 31.296875 
Q 39.15625 29.25 43.1875 25.515625 
Q 47.21875 21.78125 47.21875 15.09375 
Q 47.21875 7.46875 41.1875 3.015625 
Q 35.15625 -1.421875 24.609375 -1.421875 
Q 20.21875 -1.421875 15.453125 -0.5625 
Q 10.6875 0.296875 5.421875 2 
L 5.421875 11.28125 
Q 10.40625 8.6875 15.234375 7.390625 
Q 20.0625 6.109375 24.8125 6.109375 
Q 31.15625 6.109375 34.5625 8.28125 
Q 37.984375 10.453125 37.984375 14.40625 
Q 37.984375 18.0625 35.515625 20.015625 
Q 33.0625 21.96875 24.703125 23.78125 
L 21.578125 24.515625 
Q 13.234375 26.265625 9.515625 29.90625 
Q 5.8125 33.546875 5.8125 39.890625 
Q 5.8125 47.609375 11.28125 51.796875 
Q 16.75 56 26.8125 56 
Q 31.78125 56 36.171875 55.265625 
Q 40.578125 54.546875 44.28125 53.078125 
z
" id="DejaVuSans-115"/>
      <path d="M 18.109375 8.203125 
L 18.109375 -20.796875 
L 9.078125 -20.796875 
L 9.078125 54.6875 
L 18.109375 54.6875 
L 18.109375 46.390625 
Q 20.953125 51.265625 25.265625 53.625 
Q 29.59375 56 35.59375 56 
Q 45.5625 56 51.78125 48.09375 
Q 58.015625 40.1875 58.015625 27.296875 
Q 58.015625 14.40625 51.78125 6.484375 
Q 45.5625 -1.421875 35.59375 -1.421875 
Q 29.59375 -1.421875 25.265625 0.953125 
Q 20.953125 3.328125 18.109375 8.203125 
z
M 48.6875 27.296875 
Q 48.6875 37.203125 44.609375 42.84375 
Q 40.53125 48.484375 33.40625 48.484375 
Q 26.265625 48.484375 22.1875 42.84375 
Q 18.109375 37.203125 18.109375 27.296875 
Q 18.109375 17.390625 22.1875 11.75 
Q 26.265625 6.109375 33.40625 6.109375 
Q 40.53125 6.109375 44.609375 11.75 
Q 48.6875 17.390625 48.6875 27.296875 
z
" id="DejaVuSans-112"/>
      <path d="M 11.71875 12.40625 
L 22.015625 12.40625 
L 22.015625 0 
L 11.71875 0 
z
M 11.71875 51.703125 
L 22.015625 51.703125 
L 22.015625 39.3125 
L 11.71875 39.3125 
z
" id="DejaVuSans-58"/>
      <path d="M 30.609375 48.390625 
Q 23.390625 48.390625 19.1875 42.75 
Q 14.984375 37.109375 14.984375 27.296875 
Q 14.984375 17.484375 19.15625 11.84375 
Q 23.34375 6.203125 30.609375 6.203125 
Q 37.796875 6.203125 41.984375 11.859375 
Q 46.1875 17.53125 46.1875 27.296875 
Q 46.1875 37.015625 41.984375 42.703125 
Q 37.796875 48.390625 30.609375 48.390625 
z
M 30.609375 56 
Q 42.328125 56 49.015625 48.375 
Q 55.71875 40.765625 55.71875 27.296875 
Q 55.71875 13.875 49.015625 6.21875 
Q 42.328125 -1.421875 30.609375 -1.421875 
Q 18.84375 -1.421875 12.171875 6.21875 
Q 5.515625 13.875 5.515625 27.296875 
Q 5.515625 40.765625 12.171875 48.375 
Q 18.84375 56 30.609375 56 
z
" id="DejaVuSans-111"/>
      <path d="M 48.78125 52.59375 
L 48.78125 44.1875 
Q 44.96875 46.296875 41.140625 47.34375 
Q 37.3125 48.390625 33.40625 48.390625 
Q 24.65625 48.390625 19.8125 42.84375 
Q 14.984375 37.3125 14.984375 27.296875 
Q 14.984375 17.28125 19.8125 11.734375 
Q 24.65625 6.203125 33.40625 6.203125 
Q 37.3125 6.203125 41.140625 7.25 
Q 44.96875 8.296875 48.78125 10.40625 
L 48.78125 2.09375 
Q 45.015625 0.34375 40.984375 -0.53125 
Q 36.96875 -1.421875 32.421875 -1.421875 
Q 20.0625 -1.421875 12.78125 6.34375 
Q 5.515625 14.109375 5.515625 27.296875 
Q 5.515625 40.671875 12.859375 48.328125 
Q 20.21875 56 33.015625 56 
Q 37.15625 56 41.109375 55.140625 
Q 45.0625 54.296875 48.78125 52.59375 
z
" id="DejaVuSans-99"/>
      <path d="M 53.515625 70.515625 
L 53.515625 60.890625 
Q 47.90625 63.578125 42.921875 64.890625 
Q 37.9375 66.21875 33.296875 66.21875 
Q 25.25 66.21875 20.875 63.09375 
Q 16.5 59.96875 16.5 54.203125 
Q 16.5 49.359375 19.40625 46.890625 
Q 22.3125 44.4375 30.421875 42.921875 
L 36.375 41.703125 
Q 47.40625 39.59375 52.65625 34.296875 
Q 57.90625 29 57.90625 20.125 
Q 57.90625 9.515625 50.796875 4.046875 
Q 43.703125 -1.421875 29.984375 -1.421875 
Q 24.8125 -1.421875 18.96875 -0.25 
Q 13.140625 0.921875 6.890625 3.21875 
L 6.890625 13.375 
Q 12.890625 10.015625 18.65625 8.296875 
Q 24.421875 6.59375 29.984375 6.59375 
Q 38.421875 6.59375 43.015625 9.90625 
Q 47.609375 13.234375 47.609375 19.390625 
Q 47.609375 24.75 44.3125 27.78125 
Q 41.015625 30.8125 33.5 32.328125 
L 27.484375 33.5 
Q 16.453125 35.6875 11.515625 40.375 
Q 6.59375 45.0625 6.59375 53.421875 
Q 6.59375 63.09375 13.40625 68.65625 
Q 20.21875 74.21875 32.171875 74.21875 
Q 37.3125 74.21875 42.625 73.28125 
Q 47.953125 72.359375 53.515625 70.515625 
z
" id="DejaVuSans-83"/>
      <path d="M 9.421875 54.6875 
L 18.40625 54.6875 
L 18.40625 0 
L 9.421875 0 
z
M 9.421875 75.984375 
L 18.40625 75.984375 
L 18.40625 64.59375 
L 9.421875 64.59375 
z
" id="DejaVuSans-105"/>
      <path d="M 5.515625 54.6875 
L 48.1875 54.6875 
L 48.1875 46.484375 
L 14.40625 7.171875 
L 48.1875 7.171875 
L 48.1875 0 
L 4.296875 0 
L 4.296875 8.203125 
L 38.09375 47.515625 
L 5.515625 47.515625 
z
" id="DejaVuSans-122"/>
      <path d="M 31 75.875 
Q 24.46875 64.65625 21.28125 53.65625 
Q 18.109375 42.671875 18.109375 31.390625 
Q 18.109375 20.125 21.3125 9.0625 
Q 24.515625 -2 31 -13.1875 
L 23.1875 -13.1875 
Q 15.875 -1.703125 12.234375 9.375 
Q 8.59375 20.453125 8.59375 31.390625 
Q 8.59375 42.28125 12.203125 53.3125 
Q 15.828125 64.359375 23.1875 75.875 
z
" id="DejaVuSans-40"/>
      <path d="M 8.59375 75.984375 
L 29.296875 75.984375 
L 29.296875 69 
L 17.578125 69 
L 17.578125 -6.203125 
L 29.296875 -6.203125 
L 29.296875 -13.1875 
L 8.59375 -13.1875 
z
" id="DejaVuSans-91"/>
      <path d="M 11.71875 12.40625 
L 22.015625 12.40625 
L 22.015625 4 
L 14.015625 -11.625 
L 7.71875 -11.625 
L 11.71875 4 
z
" id="DejaVuSans-44"/>
      <path d="M 30.421875 75.984375 
L 30.421875 -13.1875 
L 9.71875 -13.1875 
L 9.71875 -6.203125 
L 21.390625 -6.203125 
L 21.390625 69 
L 9.71875 69 
L 9.71875 75.984375 
z
" id="DejaVuSans-93"/>
      <path d="M 8.015625 75.875 
L 15.828125 75.875 
Q 23.140625 64.359375 26.78125 53.3125 
Q 30.421875 42.28125 30.421875 31.390625 
Q 30.421875 20.453125 26.78125 9.375 
Q 23.140625 -1.703125 15.828125 -13.1875 
L 8.015625 -13.1875 
Q 14.5 -2 17.703125 9.0625 
Q 20.90625 20.125 20.90625 31.390625 
Q 20.90625 42.671875 17.703125 53.65625 
Q 14.5 64.65625 8.015625 75.875 
z
" id="DejaVuSans-41"/>
      <path d="M 8.6875 72.90625 
L 18.609375 72.90625 
L 18.609375 28.609375 
Q 18.609375 16.890625 22.84375 11.734375 
Q 27.09375 6.59375 36.625 6.59375 
Q 46.09375 6.59375 50.34375 11.734375 
Q 54.59375 16.890625 54.59375 28.609375 
L 54.59375 72.90625 
L 64.5 72.90625 
L 64.5 27.390625 
Q 64.5 13.140625 57.4375 5.859375 
Q 50.390625 -1.421875 36.625 -1.421875 
Q 22.796875 -1.421875 15.734375 5.859375 
Q 8.6875 13.140625 8.6875 27.390625 
z
" id="DejaVuSans-85"/>
      <path d="M 54.890625 33.015625 
L 54.890625 0 
L 45.90625 0 
L 45.90625 32.71875 
Q 45.90625 40.484375 42.875 44.328125 
Q 39.84375 48.1875 33.796875 48.1875 
Q 26.515625 48.1875 22.3125 43.546875 
Q 18.109375 38.921875 18.109375 30.90625 
L 18.109375 0 
L 9.078125 0 
L 9.078125 54.6875 
L 18.109375 54.6875 
L 18.109375 46.1875 
Q 21.34375 51.125 25.703125 53.5625 
Q 30.078125 56 35.796875 56 
Q 45.21875 56 50.046875 50.171875 
Q 54.890625 44.34375 54.890625 33.015625 
z
" id="DejaVuSans-110"/>
      <path d="M 37.109375 75.984375 
L 37.109375 68.5 
L 28.515625 68.5 
Q 23.6875 68.5 21.796875 66.546875 
Q 19.921875 64.59375 19.921875 59.515625 
L 19.921875 54.6875 
L 34.71875 54.6875 
L 34.71875 47.703125 
L 19.921875 47.703125 
L 19.921875 0 
L 10.890625 0 
L 10.890625 47.703125 
L 2.296875 47.703125 
L 2.296875 54.6875 
L 10.890625 54.6875 
L 10.890625 58.5 
Q 10.890625 67.625 15.140625 71.796875 
Q 19.390625 75.984375 28.609375 75.984375 
z
" id="DejaVuSans-102"/>
      <path d="M 52 44.1875 
Q 55.375 50.25 60.0625 53.125 
Q 64.75 56 71.09375 56 
Q 79.640625 56 84.28125 50.015625 
Q 88.921875 44.046875 88.921875 33.015625 
L 88.921875 0 
L 79.890625 0 
L 79.890625 32.71875 
Q 79.890625 40.578125 77.09375 44.375 
Q 74.3125 48.1875 68.609375 48.1875 
Q 61.625 48.1875 57.5625 43.546875 
Q 53.515625 38.921875 53.515625 30.90625 
L 53.515625 0 
L 44.484375 0 
L 44.484375 32.71875 
Q 44.484375 40.625 41.703125 44.40625 
Q 38.921875 48.1875 33.109375 48.1875 
Q 26.21875 48.1875 22.15625 43.53125 
Q 18.109375 38.875 18.109375 30.90625 
L 18.109375 0 
L 9.078125 0 
L 9.078125 54.6875 
L 18.109375 54.6875 
L 18.109375 46.1875 
Q 21.1875 51.21875 25.484375 53.609375 
Q 29.78125 56 35.6875 56 
Q 41.65625 56 45.828125 52.96875 
Q 50 49.953125 52 44.1875 
z
" id="DejaVuSans-109"/>
      <path d="M 45.40625 27.984375 
Q 45.40625 37.75 41.375 43.109375 
Q 37.359375 48.484375 30.078125 48.484375 
Q 22.859375 48.484375 18.828125 43.109375 
Q 14.796875 37.75 14.796875 27.984375 
Q 14.796875 18.265625 18.828125 12.890625 
Q 22.859375 7.515625 30.078125 7.515625 
Q 37.359375 7.515625 41.375 12.890625 
Q 45.40625 18.265625 45.40625 27.984375 
z
M 54.390625 6.78125 
Q 54.390625 -7.171875 48.1875 -13.984375 
Q 42 -20.796875 29.203125 -20.796875 
Q 24.46875 -20.796875 20.265625 -20.09375 
Q 16.0625 -19.390625 12.109375 -17.921875 
L 12.109375 -9.1875 
Q 16.0625 -11.328125 19.921875 -12.34375 
Q 23.78125 -13.375 27.78125 -13.375 
Q 36.625 -13.375 41.015625 -8.765625 
Q 45.40625 -4.15625 45.40625 5.171875 
L 45.40625 9.625 
Q 42.625 4.78125 38.28125 2.390625 
Q 33.9375 0 27.875 0 
Q 17.828125 0 11.671875 7.65625 
Q 5.515625 15.328125 5.515625 27.984375 
Q 5.515625 40.671875 11.671875 48.328125 
Q 17.828125 56 27.875 56 
Q 33.9375 56 38.28125 53.609375 
Q 42.625 51.21875 45.40625 46.390625 
L 45.40625 54.6875 
L 54.390625 54.6875 
z
" id="DejaVuSans-103"/>
     </defs>
     <use xlink:href="#DejaVuSans-56"/>
     <use x="63.623047" xlink:href="#DejaVuSans-116"/>
     <use x="102.832031" xlink:href="#DejaVuSans-104"/>
     <use x="166.210938" xlink:href="#DejaVuSans-32"/>
     <use x="197.998047" xlink:href="#DejaVuSans-108"/>
     <use x="225.78125" xlink:href="#DejaVuSans-97"/>
     <use x="287.060547" xlink:href="#DejaVuSans-121"/>
     <use x="346.240234" xlink:href="#DejaVuSans-101"/>
     <use x="407.763672" xlink:href="#DejaVuSans-114"/>
     <use x="448.876953" xlink:href="#DejaVuSans-39"/>
     <use x="476.367188" xlink:href="#DejaVuSans-115"/>
     <use x="528.466797" xlink:href="#DejaVuSans-32"/>
     <use x="560.253906" xlink:href="#DejaVuSans-115"/>
     <use x="612.353516" xlink:href="#DejaVuSans-104"/>
     <use x="675.732422" xlink:href="#DejaVuSans-97"/>
     <use x="737.011719" xlink:href="#DejaVuSans-112"/>
     <use x="800.488281" xlink:href="#DejaVuSans-101"/>
     <use x="862.011719" xlink:href="#DejaVuSans-58"/>
     <use x="895.703125" xlink:href="#DejaVuSans-32"/>
     <use x="927.490234" xlink:href="#DejaVuSans-116"/>
     <use x="966.699219" xlink:href="#DejaVuSans-111"/>
     <use x="1027.880859" xlink:href="#DejaVuSans-114"/>
     <use x="1066.744141" xlink:href="#DejaVuSans-99"/>
     <use x="1121.724609" xlink:href="#DejaVuSans-104"/>
     <use x="1185.103516" xlink:href="#DejaVuSans-46"/>
     <use x="1216.890625" xlink:href="#DejaVuSans-83"/>
     <use x="1280.367188" xlink:href="#DejaVuSans-105"/>
     <use x="1308.150391" xlink:href="#DejaVuSans-122"/>
     <use x="1360.640625" xlink:href="#DejaVuSans-101"/>
     <use x="1422.164062" xlink:href="#DejaVuSans-40"/>
     <use x="1461.177734" xlink:href="#DejaVuSans-91"/>
     <use x="1500.191406" xlink:href="#DejaVuSans-49"/>
     <use x="1563.814453" xlink:href="#DejaVuSans-44"/>
     <use x="1595.601562" xlink:href="#DejaVuSans-32"/>
     <use x="1627.388672" xlink:href="#DejaVuSans-50"/>
     <use x="1691.011719" xlink:href="#DejaVuSans-53"/>
     <use x="1754.634766" xlink:href="#DejaVuSans-54"/>
     <use x="1818.257812" xlink:href="#DejaVuSans-44"/>
     <use x="1850.044922" xlink:href="#DejaVuSans-32"/>
     <use x="1881.832031" xlink:href="#DejaVuSans-54"/>
     <use x="1945.455078" xlink:href="#DejaVuSans-52"/>
     <use x="2009.078125" xlink:href="#DejaVuSans-93"/>
     <use x="2048.091797" xlink:href="#DejaVuSans-41"/>
     <use x="2087.105469" xlink:href="#DejaVuSans-46"/>
     <use x="2118.892578" xlink:href="#DejaVuSans-32"/>
     <use x="2150.679688" xlink:href="#DejaVuSans-85"/>
     <use x="2223.873047" xlink:href="#DejaVuSans-110"/>
     <use x="2287.251953" xlink:href="#DejaVuSans-105"/>
     <use x="2315.035156" xlink:href="#DejaVuSans-102"/>
     <use x="2350.240234" xlink:href="#DejaVuSans-111"/>
     <use x="2411.421875" xlink:href="#DejaVuSans-114"/>
     <use x="2450.785156" xlink:href="#DejaVuSans-109"/>
     <use x="2548.197266" xlink:href="#DejaVuSans-108"/>
     <use x="2575.980469" xlink:href="#DejaVuSans-121"/>
     <use x="2635.160156" xlink:href="#DejaVuSans-32"/>
     <use x="2666.947266" xlink:href="#DejaVuSans-115"/>
     <use x="2719.046875" xlink:href="#DejaVuSans-97"/>
     <use x="2780.326172" xlink:href="#DejaVuSans-109"/>
     <use x="2877.738281" xlink:href="#DejaVuSans-112"/>
     <use x="2941.214844" xlink:href="#DejaVuSans-108"/>
     <use x="2968.998047" xlink:href="#DejaVuSans-105"/>
     <use x="2996.78125" xlink:href="#DejaVuSans-110"/>
     <use x="3060.160156" xlink:href="#DejaVuSans-103"/>
     <use x="3123.636719" xlink:href="#DejaVuSans-32"/>
     <use x="3155.423828" xlink:href="#DejaVuSans-49"/>
     <use x="3219.046875" xlink:href="#DejaVuSans-54"/>
     <use x="3282.669922" xlink:href="#DejaVuSans-32"/>
     <use x="3314.457031" xlink:href="#DejaVuSans-99"/>
     <use x="3369.4375" xlink:href="#DejaVuSans-104"/>
     <use x="3432.816406" xlink:href="#DejaVuSans-97"/>
     <use x="3494.095703" xlink:href="#DejaVuSans-110"/>
     <use x="3557.474609" xlink:href="#DejaVuSans-110"/>
     <use x="3620.853516" xlink:href="#DejaVuSans-101"/>
     <use x="3682.376953" xlink:href="#DejaVuSans-108"/>
     <use x="3710.160156" xlink:href="#DejaVuSans-115"/>
    </g>
   </g>
  </g>
 </g>
 <defs>
  <clipPath id="p0df8794968">
   <rect height="266.112" width="892.8" x="144" y="41.472"/>
  </clipPath>
 </defs>
</svg>
