<?xml version="1.0" encoding="utf-8" standalone="no"?>
<!DOCTYPE svg PUBLIC "-//W3C//DTD SVG 1.1//EN"
  "http://www.w3.org/Graphics/SVG/1.1/DTD/svg11.dtd">
<!-- Created with matplotlib (https://matplotlib.org/) -->
<svg height="345.6pt" version="1.1" viewBox="0 0 1152 345.6" width="1152pt" xmlns="http://www.w3.org/2000/svg" xmlns:xlink="http://www.w3.org/1999/xlink">
 <metadata>
  <rdf:RDF xmlns:cc="http://creativecommons.org/ns#" xmlns:dc="http://purl.org/dc/elements/1.1/" xmlns:rdf="http://www.w3.org/1999/02/22-rdf-syntax-ns#">
   <cc:Work>
    <dc:type rdf:resource="http://purl.org/dc/dcmitype/StillImage"/>
    <dc:date>2021-12-24T07:19:07.883210</dc:date>
    <dc:format>image/svg+xml</dc:format>
    <dc:creator>
     <cc:Agent>
      <dc:title>Matplotlib v3.3.3, https://matplotlib.org/</dc:title>
     </cc:Agent>
    </dc:creator>
   </cc:Work>
  </rdf:RDF>
 </metadata>
 <defs>
  <style type="text/css">*{stroke-linecap:butt;stroke-linejoin:round;}</style>
 </defs>
 <g id="figure_1">
  <g id="patch_1">
   <path d="M 0 345.6 
L 1152 345.6 
L 1152 0 
L 0 0 
z
" style="fill:#ffffff;"/>
  </g>
  <g id="axes_1">
   <g id="patch_2">
    <path d="M 144 307.584 
L 1036.8 307.584 
L 1036.8 41.472 
L 144 41.472 
z
" style="fill:#ffffff;"/>
   </g>
   <g id="matplotlib.axis_1">
    <g id="xtick_1">
     <g id="line2d_1">
      <defs>
       <path d="M 0 0 
L 0 3.5 
" id="m9838ca78d3" style="stroke:#000000;stroke-width:0.8;"/>
      </defs>
      <g>
       <use style="stroke:#000000;stroke-width:0.8;" x="184.581818" xlink:href="#m9838ca78d3" y="307.584"/>
      </g>
     </g>
     <g id="text_1">
      <!-- 0 -->
      <g transform="translate(181.400568 322.182437)scale(0.1 -0.1)">
       <defs>
        <path d="M 31.78125 66.40625 
Q 24.171875 66.40625 20.328125 58.90625 
Q 16.5 51.421875 16.5 36.375 
Q 16.5 21.390625 20.328125 13.890625 
Q 24.171875 6.390625 31.78125 6.390625 
Q 39.453125 6.390625 43.28125 13.890625 
Q 47.125 21.390625 47.125 36.375 
Q 47.125 51.421875 43.28125 58.90625 
Q 39.453125 66.40625 31.78125 66.40625 
z
M 31.78125 74.21875 
Q 44.046875 74.21875 50.515625 64.515625 
Q 56.984375 54.828125 56.984375 36.375 
Q 56.984375 17.96875 50.515625 8.265625 
Q 44.046875 -1.421875 31.78125 -1.421875 
Q 19.53125 -1.421875 13.0625 8.265625 
Q 6.59375 17.96875 6.59375 36.375 
Q 6.59375 54.828125 13.0625 64.515625 
Q 19.53125 74.21875 31.78125 74.21875 
z
" id="DejaVuSans-48"/>
       </defs>
       <use xlink:href="#DejaVuSans-48"/>
      </g>
     </g>
    </g>
    <g id="xtick_2">
     <g id="line2d_2">
      <g>
       <use style="stroke:#000000;stroke-width:0.8;" x="343.259504" xlink:href="#m9838ca78d3" y="307.584"/>
      </g>
     </g>
     <g id="text_2">
      <!-- 200 -->
      <g transform="translate(333.715754 322.182437)scale(0.1 -0.1)">
       <defs>
        <path d="M 19.1875 8.296875 
L 53.609375 8.296875 
L 53.609375 0 
L 7.328125 0 
L 7.328125 8.296875 
Q 12.9375 14.109375 22.625 23.890625 
Q 32.328125 33.6875 34.8125 36.53125 
Q 39.546875 41.84375 41.421875 45.53125 
Q 43.3125 49.21875 43.3125 52.78125 
Q 43.3125 58.59375 39.234375 62.25 
Q 35.15625 65.921875 28.609375 65.921875 
Q 23.96875 65.921875 18.8125 64.3125 
Q 13.671875 62.703125 7.8125 59.421875 
L 7.8125 69.390625 
Q 13.765625 71.78125 18.9375 73 
Q 24.125 74.21875 28.421875 74.21875 
Q 39.75 74.21875 46.484375 68.546875 
Q 53.21875 62.890625 53.21875 53.421875 
Q 53.21875 48.921875 51.53125 44.890625 
Q 49.859375 40.875 45.40625 35.40625 
Q 44.1875 33.984375 37.640625 27.21875 
Q 31.109375 20.453125 19.1875 8.296875 
z
" id="DejaVuSans-50"/>
       </defs>
       <use xlink:href="#DejaVuSans-50"/>
       <use x="63.623047" xlink:href="#DejaVuSans-48"/>
       <use x="127.246094" xlink:href="#DejaVuSans-48"/>
      </g>
     </g>
    </g>
    <g id="xtick_3">
     <g id="line2d_3">
      <g>
       <use style="stroke:#000000;stroke-width:0.8;" x="501.93719" xlink:href="#m9838ca78d3" y="307.584"/>
      </g>
     </g>
     <g id="text_3">
      <!-- 400 -->
      <g transform="translate(492.39344 322.182437)scale(0.1 -0.1)">
       <defs>
        <path d="M 37.796875 64.3125 
L 12.890625 25.390625 
L 37.796875 25.390625 
z
M 35.203125 72.90625 
L 47.609375 72.90625 
L 47.609375 25.390625 
L 58.015625 25.390625 
L 58.015625 17.1875 
L 47.609375 17.1875 
L 47.609375 0 
L 37.796875 0 
L 37.796875 17.1875 
L 4.890625 17.1875 
L 4.890625 26.703125 
z
" id="DejaVuSans-52"/>
       </defs>
       <use xlink:href="#DejaVuSans-52"/>
       <use x="63.623047" xlink:href="#DejaVuSans-48"/>
       <use x="127.246094" xlink:href="#DejaVuSans-48"/>
      </g>
     </g>
    </g>
    <g id="xtick_4">
     <g id="line2d_4">
      <g>
       <use style="stroke:#000000;stroke-width:0.8;" x="660.614876" xlink:href="#m9838ca78d3" y="307.584"/>
      </g>
     </g>
     <g id="text_4">
      <!-- 600 -->
      <g transform="translate(651.071126 322.182437)scale(0.1 -0.1)">
       <defs>
        <path d="M 33.015625 40.375 
Q 26.375 40.375 22.484375 35.828125 
Q 18.609375 31.296875 18.609375 23.390625 
Q 18.609375 15.53125 22.484375 10.953125 
Q 26.375 6.390625 33.015625 6.390625 
Q 39.65625 6.390625 43.53125 10.953125 
Q 47.40625 15.53125 47.40625 23.390625 
Q 47.40625 31.296875 43.53125 35.828125 
Q 39.65625 40.375 33.015625 40.375 
z
M 52.59375 71.296875 
L 52.59375 62.3125 
Q 48.875 64.0625 45.09375 64.984375 
Q 41.3125 65.921875 37.59375 65.921875 
Q 27.828125 65.921875 22.671875 59.328125 
Q 17.53125 52.734375 16.796875 39.40625 
Q 19.671875 43.65625 24.015625 45.921875 
Q 28.375 48.1875 33.59375 48.1875 
Q 44.578125 48.1875 50.953125 41.515625 
Q 57.328125 34.859375 57.328125 23.390625 
Q 57.328125 12.15625 50.6875 5.359375 
Q 44.046875 -1.421875 33.015625 -1.421875 
Q 20.359375 -1.421875 13.671875 8.265625 
Q 6.984375 17.96875 6.984375 36.375 
Q 6.984375 53.65625 15.1875 63.9375 
Q 23.390625 74.21875 37.203125 74.21875 
Q 40.921875 74.21875 44.703125 73.484375 
Q 48.484375 72.75 52.59375 71.296875 
z
" id="DejaVuSans-54"/>
       </defs>
       <use xlink:href="#DejaVuSans-54"/>
       <use x="63.623047" xlink:href="#DejaVuSans-48"/>
       <use x="127.246094" xlink:href="#DejaVuSans-48"/>
      </g>
     </g>
    </g>
    <g id="xtick_5">
     <g id="line2d_5">
      <g>
       <use style="stroke:#000000;stroke-width:0.8;" x="819.292562" xlink:href="#m9838ca78d3" y="307.584"/>
      </g>
     </g>
     <g id="text_5">
      <!-- 800 -->
      <g transform="translate(809.748812 322.182437)scale(0.1 -0.1)">
       <defs>
        <path d="M 31.78125 34.625 
Q 24.75 34.625 20.71875 30.859375 
Q 16.703125 27.09375 16.703125 20.515625 
Q 16.703125 13.921875 20.71875 10.15625 
Q 24.75 6.390625 31.78125 6.390625 
Q 38.8125 6.390625 42.859375 10.171875 
Q 46.921875 13.96875 46.921875 20.515625 
Q 46.921875 27.09375 42.890625 30.859375 
Q 38.875 34.625 31.78125 34.625 
z
M 21.921875 38.8125 
Q 15.578125 40.375 12.03125 44.71875 
Q 8.5 49.078125 8.5 55.328125 
Q 8.5 64.0625 14.71875 69.140625 
Q 20.953125 74.21875 31.78125 74.21875 
Q 42.671875 74.21875 48.875 69.140625 
Q 55.078125 64.0625 55.078125 55.328125 
Q 55.078125 49.078125 51.53125 44.71875 
Q 48 40.375 41.703125 38.8125 
Q 48.828125 37.15625 52.796875 32.3125 
Q 56.78125 27.484375 56.78125 20.515625 
Q 56.78125 9.90625 50.3125 4.234375 
Q 43.84375 -1.421875 31.78125 -1.421875 
Q 19.734375 -1.421875 13.25 4.234375 
Q 6.78125 9.90625 6.78125 20.515625 
Q 6.78125 27.484375 10.78125 32.3125 
Q 14.796875 37.15625 21.921875 38.8125 
z
M 18.3125 54.390625 
Q 18.3125 48.734375 21.84375 45.5625 
Q 25.390625 42.390625 31.78125 42.390625 
Q 38.140625 42.390625 41.71875 45.5625 
Q 45.3125 48.734375 45.3125 54.390625 
Q 45.3125 60.0625 41.71875 63.234375 
Q 38.140625 66.40625 31.78125 66.40625 
Q 25.390625 66.40625 21.84375 63.234375 
Q 18.3125 60.0625 18.3125 54.390625 
z
" id="DejaVuSans-56"/>
       </defs>
       <use xlink:href="#DejaVuSans-56"/>
       <use x="63.623047" xlink:href="#DejaVuSans-48"/>
       <use x="127.246094" xlink:href="#DejaVuSans-48"/>
      </g>
     </g>
    </g>
    <g id="xtick_6">
     <g id="line2d_6">
      <g>
       <use style="stroke:#000000;stroke-width:0.8;" x="977.970248" xlink:href="#m9838ca78d3" y="307.584"/>
      </g>
     </g>
     <g id="text_6">
      <!-- 1000 -->
      <g transform="translate(965.245248 322.182437)scale(0.1 -0.1)">
       <defs>
        <path d="M 12.40625 8.296875 
L 28.515625 8.296875 
L 28.515625 63.921875 
L 10.984375 60.40625 
L 10.984375 69.390625 
L 28.421875 72.90625 
L 38.28125 72.90625 
L 38.28125 8.296875 
L 54.390625 8.296875 
L 54.390625 0 
L 12.40625 0 
z
" id="DejaVuSans-49"/>
       </defs>
       <use xlink:href="#DejaVuSans-49"/>
       <use x="63.623047" xlink:href="#DejaVuSans-48"/>
       <use x="127.246094" xlink:href="#DejaVuSans-48"/>
       <use x="190.869141" xlink:href="#DejaVuSans-48"/>
      </g>
     </g>
    </g>
   </g>
   <g id="matplotlib.axis_2">
    <g id="ytick_1">
     <g id="line2d_7">
      <defs>
       <path d="M 0 0 
L -3.5 0 
" id="m74d964dece" style="stroke:#000000;stroke-width:0.8;"/>
      </defs>
      <g>
       <use style="stroke:#000000;stroke-width:0.8;" x="144" xlink:href="#m74d964dece" y="267.192857"/>
      </g>
     </g>
     <g id="text_7">
      <!-- −0.2 -->
      <g transform="translate(112.717187 270.992076)scale(0.1 -0.1)">
       <defs>
        <path d="M 10.59375 35.5 
L 73.1875 35.5 
L 73.1875 27.203125 
L 10.59375 27.203125 
z
" id="DejaVuSans-8722"/>
        <path d="M 10.6875 12.40625 
L 21 12.40625 
L 21 0 
L 10.6875 0 
z
" id="DejaVuSans-46"/>
       </defs>
       <use xlink:href="#DejaVuSans-8722"/>
       <use x="83.789062" xlink:href="#DejaVuSans-48"/>
       <use x="147.412109" xlink:href="#DejaVuSans-46"/>
       <use x="179.199219" xlink:href="#DejaVuSans-50"/>
      </g>
     </g>
    </g>
    <g id="ytick_2">
     <g id="line2d_8">
      <g>
       <use style="stroke:#000000;stroke-width:0.8;" x="144" xlink:href="#m74d964dece" y="219.216331"/>
      </g>
     </g>
     <g id="text_8">
      <!-- −0.1 -->
      <g transform="translate(112.717187 223.01555)scale(0.1 -0.1)">
       <use xlink:href="#DejaVuSans-8722"/>
       <use x="83.789062" xlink:href="#DejaVuSans-48"/>
       <use x="147.412109" xlink:href="#DejaVuSans-46"/>
       <use x="179.199219" xlink:href="#DejaVuSans-49"/>
      </g>
     </g>
    </g>
    <g id="ytick_3">
     <g id="line2d_9">
      <g>
       <use style="stroke:#000000;stroke-width:0.8;" x="144" xlink:href="#m74d964dece" y="171.239804"/>
      </g>
     </g>
     <g id="text_9">
      <!-- 0.0 -->
      <g transform="translate(121.096875 175.039023)scale(0.1 -0.1)">
       <use xlink:href="#DejaVuSans-48"/>
       <use x="63.623047" xlink:href="#DejaVuSans-46"/>
       <use x="95.410156" xlink:href="#DejaVuSans-48"/>
      </g>
     </g>
    </g>
    <g id="ytick_4">
     <g id="line2d_10">
      <g>
       <use style="stroke:#000000;stroke-width:0.8;" x="144" xlink:href="#m74d964dece" y="123.263278"/>
      </g>
     </g>
     <g id="text_10">
      <!-- 0.1 -->
      <g transform="translate(121.096875 127.062497)scale(0.1 -0.1)">
       <use xlink:href="#DejaVuSans-48"/>
       <use x="63.623047" xlink:href="#DejaVuSans-46"/>
       <use x="95.410156" xlink:href="#DejaVuSans-49"/>
      </g>
     </g>
    </g>
    <g id="ytick_5">
     <g id="line2d_11">
      <g>
       <use style="stroke:#000000;stroke-width:0.8;" x="144" xlink:href="#m74d964dece" y="75.286751"/>
      </g>
     </g>
     <g id="text_11">
      <!-- 0.2 -->
      <g transform="translate(121.096875 79.08597)scale(0.1 -0.1)">
       <use xlink:href="#DejaVuSans-48"/>
       <use x="63.623047" xlink:href="#DejaVuSans-46"/>
       <use x="95.410156" xlink:href="#DejaVuSans-50"/>
      </g>
     </g>
    </g>
   </g>
   <g id="line2d_12">
    <path clip-path="url(#pd67b89e31e)" d="M 184.581818 195.205209 
L 185.375207 104.14553 
L 186.168595 169.529981 
L 186.961983 172.472962 
L 187.755372 147.787163 
L 188.54876 144.012727 
L 189.342149 200.367967 
L 190.135537 150.726127 
L 190.928926 193.58308 
L 191.722314 201.459308 
L 192.515702 194.038725 
L 193.309091 172.650364 
L 194.102479 114.139501 
L 194.895868 125.540095 
L 195.689256 158.912106 
L 196.482645 205.620007 
L 197.276033 155.81746 
L 198.069421 135.338325 
L 198.86281 122.353699 
L 199.656198 142.551424 
L 200.449587 149.589582 
L 201.242975 148.244374 
L 202.036364 135.247303 
L 202.829752 154.961078 
L 203.62314 102.150857 
L 204.416529 144.269795 
L 205.209917 200.087806 
L 206.003306 164.559998 
L 206.796694 139.503921 
L 207.590083 102.430907 
L 208.383471 230.74113 
L 209.17686 117.642583 
L 209.970248 152.885278 
L 210.763636 123.855988 
L 211.557025 173.452258 
L 212.350413 146.58866 
L 213.93719 169.139563 
L 214.730579 198.414706 
L 215.523967 202.635082 
L 216.317355 109.718866 
L 217.110744 225.051523 
L 217.904132 182.401064 
L 218.697521 199.563987 
L 219.490909 135.673566 
L 220.284298 85.216644 
L 221.077686 198.215356 
L 221.871074 291.586186 
L 222.664463 166.033953 
L 223.457851 203.161109 
L 224.25124 218.468969 
L 225.044628 173.634069 
L 225.838017 86.807681 
L 226.631405 169.77504 
L 227.424793 175.995907 
L 228.218182 243.202338 
L 229.01157 163.295211 
L 229.804959 226.111299 
L 230.598347 145.790529 
L 231.391736 227.650524 
L 232.185124 182.981213 
L 232.978512 206.348503 
L 234.565289 143.026003 
L 235.358678 208.577001 
L 236.152066 185.246292 
L 236.945455 154.754909 
L 237.738843 185.510808 
L 238.532231 209.756714 
L 239.32562 202.46987 
L 240.119008 193.560939 
L 240.912397 156.482092 
L 241.705785 178.32897 
L 242.499174 195.227378 
L 243.292562 155.620991 
L 244.08595 151.013326 
L 244.879339 199.020769 
L 245.672727 175.164274 
L 246.466116 131.30791 
L 247.259504 219.625733 
L 248.052893 176.937093 
L 248.846281 197.593629 
L 249.639669 211.127818 
L 250.433058 109.502714 
L 251.226446 155.497123 
L 252.019835 169.981752 
L 252.813223 161.009528 
L 253.606612 138.69241 
L 254.4 135.905592 
L 255.193388 163.290809 
L 255.986777 236.770858 
L 256.780165 130.208367 
L 257.573554 173.142546 
L 258.366942 141.109671 
L 259.160331 134.98326 
L 259.953719 221.854903 
L 260.747107 53.568 
L 261.540496 134.647275 
L 262.333884 131.359748 
L 263.127273 261.625929 
L 263.920661 177.280089 
L 264.71405 214.707027 
L 265.507438 140.518512 
L 266.300826 157.425972 
L 267.094215 192.454294 
L 267.887603 184.857637 
L 268.680992 196.154772 
L 269.47438 174.371481 
L 270.267769 139.603018 
L 271.061157 178.607072 
L 271.854545 233.12418 
L 272.647934 174.810986 
L 273.441322 162.035438 
L 274.234711 123.487046 
L 275.028099 102.13475 
L 275.821488 152.062768 
L 276.614876 214.959456 
L 277.408264 154.599255 
L 278.201653 193.249015 
L 278.995041 260.300622 
L 279.78843 216.316358 
L 280.581818 77.905629 
L 281.375207 166.309121 
L 282.168595 176.776003 
L 282.961983 203.998325 
L 283.755372 154.696722 
L 284.54876 186.921052 
L 285.342149 169.289374 
L 286.135537 218.63626 
L 286.928926 206.674404 
L 287.722314 136.957551 
L 288.515702 135.561672 
L 289.309091 161.692472 
L 290.102479 180.394893 
L 290.895868 207.655623 
L 291.689256 178.554477 
L 292.482645 190.564109 
L 293.276033 179.454496 
L 294.069421 141.823492 
L 294.86281 174.990152 
L 295.656198 215.41059 
L 296.449587 185.138176 
L 297.242975 222.432883 
L 298.036364 133.429504 
L 298.829752 268.772965 
L 299.62314 195.855916 
L 300.416529 200.796081 
L 301.209917 126.831459 
L 302.003306 98.741227 
L 302.796694 202.140002 
L 303.590083 235.686481 
L 304.383471 204.559548 
L 305.17686 166.804431 
L 305.970248 135.565747 
L 306.763636 202.184337 
L 307.557025 173.077718 
L 308.350413 181.963966 
L 309.143802 104.017069 
L 309.93719 170.982602 
L 310.730579 216.238827 
L 311.523967 161.042557 
L 312.317355 213.568085 
L 313.110744 133.416225 
L 313.904132 184.466455 
L 314.697521 160.644443 
L 315.490909 205.017245 
L 316.284298 240.39536 
L 317.871074 114.421678 
L 318.664463 214.124918 
L 319.457851 151.358071 
L 320.25124 180.490166 
L 321.044628 155.513226 
L 321.838017 247.753451 
L 322.631405 175.872774 
L 323.424793 181.079623 
L 324.218182 171.919569 
L 325.01157 188.769339 
L 325.804959 140.256263 
L 326.598347 280.453278 
L 327.391736 134.976407 
L 328.185124 183.8752 
L 328.978512 256.099191 
L 329.771901 259.069297 
L 330.565289 167.787055 
L 331.358678 240.441578 
L 332.152066 252.564167 
L 332.945455 217.62795 
L 333.738843 165.305151 
L 334.532231 210.787598 
L 335.32562 134.52029 
L 336.119008 235.715621 
L 336.912397 171.207074 
L 337.705785 229.024938 
L 338.499174 130.358161 
L 339.292562 212.796405 
L 340.08595 153.855111 
L 340.879339 192.191319 
L 341.672727 162.188124 
L 342.466116 206.763106 
L 343.259504 170.357332 
L 344.052893 191.561962 
L 344.846281 186.830808 
L 345.639669 176.410509 
L 346.433058 207.136609 
L 347.226446 146.347544 
L 348.019835 148.894554 
L 348.813223 198.349408 
L 349.606612 183.735812 
L 350.4 112.86116 
L 351.193388 184.416287 
L 351.986777 162.459618 
L 352.780165 166.900112 
L 353.573554 170.503253 
L 354.366942 274.744232 
L 355.160331 209.399425 
L 355.953719 249.865583 
L 356.747107 133.547546 
L 357.540496 158.179385 
L 358.333884 134.756391 
L 359.127273 196.482678 
L 359.920661 163.871035 
L 360.71405 208.279089 
L 361.507438 207.200653 
L 362.300826 153.897562 
L 363.094215 183.323785 
L 363.887603 207.602834 
L 364.680992 192.060943 
L 365.47438 162.899685 
L 366.267769 237.616199 
L 367.061157 139.108696 
L 367.854545 180.72731 
L 368.647934 131.984447 
L 369.441322 184.248302 
L 370.234711 166.512833 
L 371.028099 169.506502 
L 371.821488 226.37704 
L 372.614876 56.122152 
L 373.408264 162.501564 
L 374.201653 164.373273 
L 374.995041 240.335193 
L 375.78843 89.132834 
L 376.581818 209.891702 
L 377.375207 146.671423 
L 378.168595 145.382008 
L 378.961983 147.338849 
L 379.755372 210.228988 
L 380.54876 187.185392 
L 381.342149 223.181922 
L 382.135537 166.460548 
L 382.928926 183.172146 
L 383.722314 170.915452 
L 384.515702 231.392113 
L 385.309091 119.757421 
L 386.102479 164.235415 
L 386.895868 162.996182 
L 387.689256 103.202784 
L 388.482645 184.115522 
L 389.276033 156.438833 
L 390.069421 153.401337 
L 390.86281 205.346066 
L 391.656198 123.151301 
L 392.449587 128.513693 
L 393.242975 217.636847 
L 394.036364 233.949703 
L 394.829752 210.894304 
L 395.62314 141.408089 
L 396.416529 99.431426 
L 397.209917 205.494262 
L 398.003306 186.758865 
L 398.796694 86.422061 
L 399.590083 111.134637 
L 400.383471 157.700302 
L 401.17686 114.412223 
L 401.970248 257.622363 
L 402.763636 151.751338 
L 403.557025 158.131387 
L 404.350413 199.326761 
L 405.143802 272.102804 
L 405.93719 223.964855 
L 406.730579 135.933277 
L 407.523967 249.947039 
L 408.317355 169.448247 
L 409.110744 211.661988 
L 409.904132 234.49133 
L 410.697521 215.552506 
L 411.490909 159.711641 
L 412.284298 179.792761 
L 413.077686 223.987396 
L 413.871074 200.728572 
L 414.664463 225.92502 
L 415.457851 191.003758 
L 416.25124 171.666539 
L 417.044628 178.661864 
L 417.838017 135.714011 
L 418.631405 246.796227 
L 419.424793 126.623718 
L 420.218182 156.850932 
L 421.01157 255.303408 
L 421.804959 113.063843 
L 422.598347 206.76381 
L 423.391736 157.565174 
L 424.185124 245.265199 
L 424.978512 238.979681 
L 425.771901 133.267803 
L 426.565289 143.589764 
L 427.358678 148.122836 
L 428.152066 170.991196 
L 428.945455 231.809768 
L 429.738843 82.809498 
L 430.532231 184.915493 
L 431.32562 160.4934 
L 432.119008 248.629589 
L 432.912397 176.219385 
L 433.705785 200.911456 
L 434.499174 221.466612 
L 435.292562 207.314395 
L 436.08595 160.726795 
L 436.879339 198.482222 
L 437.672727 160.991821 
L 438.466116 144.226575 
L 439.259504 205.947019 
L 440.052893 207.593144 
L 440.846281 212.822888 
L 441.639669 156.293434 
L 442.433058 167.543652 
L 443.226446 200.292746 
L 444.019835 69.340455 
L 444.813223 153.835335 
L 445.606612 195.068317 
L 446.4 113.791274 
L 447.193388 147.117966 
L 447.986777 191.342511 
L 448.780165 158.582848 
L 449.573554 140.875211 
L 450.366942 179.482722 
L 451.160331 235.995743 
L 451.953719 204.44364 
L 452.747107 194.895401 
L 453.540496 221.575668 
L 454.333884 103.985641 
L 455.127273 189.045513 
L 455.920661 135.311148 
L 456.71405 173.169233 
L 457.507438 184.027143 
L 458.300826 218.594335 
L 459.094215 147.73624 
L 459.887603 142.442075 
L 460.680992 178.590332 
L 461.47438 242.472147 
L 462.267769 152.674648 
L 463.061157 116.801006 
L 463.854545 115.518626 
L 464.647934 161.052842 
L 465.441322 136.172842 
L 466.234711 127.371688 
L 467.028099 220.048993 
L 467.821488 183.835077 
L 468.614876 206.510955 
L 469.408264 163.18291 
L 470.201653 192.262114 
L 470.995041 199.704359 
L 471.78843 139.460987 
L 472.581818 164.637038 
L 473.375207 242.948017 
L 474.168595 236.538978 
L 474.961983 220.507076 
L 475.755372 224.065921 
L 476.54876 161.315144 
L 478.135537 133.278888 
L 478.928926 197.360463 
L 479.722314 132.730984 
L 480.515702 249.55056 
L 481.309091 178.165147 
L 482.102479 206.16849 
L 482.895868 210.64047 
L 483.689256 198.605548 
L 484.482645 159.260543 
L 485.276033 180.784793 
L 486.069421 195.670041 
L 486.86281 232.629479 
L 487.656198 204.866954 
L 488.449587 203.04928 
L 489.242975 115.569731 
L 490.036364 188.558087 
L 490.829752 206.923895 
L 491.62314 260.097803 
L 492.416529 109.627829 
L 493.209917 173.36367 
L 494.003306 202.86906 
L 494.796694 153.036842 
L 495.590083 207.044993 
L 496.383471 244.407212 
L 497.17686 178.278808 
L 497.970248 138.730353 
L 498.763636 150.455025 
L 499.557025 164.077661 
L 500.350413 148.530967 
L 501.143802 174.047092 
L 501.93719 143.229523 
L 502.730579 207.711854 
L 503.523967 140.960166 
L 504.317355 224.239486 
L 505.110744 174.665977 
L 505.904132 96.489166 
L 506.697521 216.884626 
L 507.490909 234.725676 
L 508.284298 176.519296 
L 509.077686 188.466591 
L 509.871074 122.653995 
L 510.664463 174.156246 
L 511.457851 141.116706 
L 512.25124 165.09911 
L 513.044628 83.566162 
L 513.838017 154.017005 
L 514.631405 87.337441 
L 515.424793 179.940573 
L 516.218182 175.304321 
L 517.01157 127.465426 
L 517.804959 193.799307 
L 518.598347 185.651084 
L 519.391736 182.608578 
L 520.185124 184.328926 
L 520.978512 198.852044 
L 521.771901 174.421249 
L 522.565289 283.296523 
L 523.358678 144.324417 
L 524.152066 150.952911 
L 524.945455 181.896518 
L 525.738843 221.358654 
L 526.532231 81.285883 
L 527.32562 208.953721 
L 528.119008 168.753606 
L 528.912397 168.421699 
L 529.705785 214.980968 
L 530.499174 223.742984 
L 531.292562 227.54104 
L 532.08595 140.672478 
L 532.879339 155.071661 
L 534.466116 226.828046 
L 535.259504 193.743612 
L 536.052893 194.580755 
L 536.846281 186.572664 
L 537.639669 171.285998 
L 538.433058 120.886351 
L 539.226446 199.334368 
L 540.019835 113.811952 
L 540.813223 199.431799 
L 541.606612 167.378603 
L 542.4 173.836804 
L 543.193388 219.754885 
L 543.986777 145.039375 
L 544.780165 189.509712 
L 545.573554 215.533486 
L 546.366942 229.641162 
L 547.160331 161.387937 
L 547.953719 195.261774 
L 549.540496 154.190157 
L 550.333884 199.370617 
L 551.127273 142.286724 
L 551.920661 218.072636 
L 552.71405 142.074201 
L 553.507438 133.332853 
L 554.300826 108.626225 
L 555.094215 143.620419 
L 555.887603 140.007225 
L 556.680992 199.114797 
L 557.47438 163.273133 
L 558.267769 212.725286 
L 559.061157 238.506714 
L 559.854545 151.115999 
L 560.647934 176.516113 
L 561.441322 186.352532 
L 562.234711 160.664629 
L 563.028099 151.865701 
L 563.821488 172.316356 
L 564.614876 155.589049 
L 565.408264 235.095848 
L 566.201653 128.18025 
L 566.995041 167.512019 
L 567.78843 172.797532 
L 568.581818 268.854536 
L 569.375207 189.346183 
L 570.168595 205.339103 
L 570.961983 123.817208 
L 571.755372 219.222966 
L 572.54876 217.803609 
L 573.342149 195.420798 
L 574.135537 136.376726 
L 574.928926 244.473812 
L 575.722314 145.684027 
L 576.515702 146.960612 
L 577.309091 147.002786 
L 578.102479 198.360275 
L 578.895868 183.311237 
L 579.689256 295.488 
L 580.482645 196.363571 
L 581.276033 181.283383 
L 582.069421 146.466576 
L 582.86281 120.403911 
L 583.656198 129.882634 
L 584.449587 170.059902 
L 585.242975 175.693966 
L 586.036364 240.766339 
L 586.829752 140.89319 
L 587.62314 211.957677 
L 588.416529 152.583501 
L 589.209917 184.590043 
L 590.003306 195.974694 
L 590.796694 80.547207 
L 591.590083 122.196834 
L 592.383471 196.629032 
L 593.17686 128.216667 
L 593.970248 195.792585 
L 594.763636 152.435154 
L 595.557025 86.85864 
L 596.350413 104.162359 
L 597.143802 206.595847 
L 597.93719 193.932363 
L 599.523967 134.459523 
L 600.317355 208.655737 
L 601.110744 150.657859 
L 601.904132 180.821957 
L 602.697521 181.064433 
L 603.490909 138.675295 
L 604.284298 118.256516 
L 605.077686 137.807052 
L 605.871074 112.030607 
L 606.664463 187.561206 
L 607.457851 188.84594 
L 608.25124 103.014006 
L 609.044628 155.322348 
L 609.838017 248.659594 
L 610.631405 193.388974 
L 611.424793 164.500698 
L 612.218182 116.709534 
L 613.01157 186.693131 
L 613.804959 140.067756 
L 614.598347 159.993713 
L 615.391736 168.474593 
L 616.185124 164.968135 
L 616.978512 212.697701 
L 617.771901 179.332073 
L 618.565289 97.793827 
L 619.358678 184.629316 
L 620.152066 255.064158 
L 620.945455 122.954938 
L 621.738843 205.896804 
L 622.532231 194.863276 
L 623.32562 146.249241 
L 624.119008 248.752882 
L 624.912397 135.014426 
L 625.705785 147.875723 
L 626.499174 172.561666 
L 627.292562 202.412099 
L 628.08595 205.241536 
L 628.879339 112.664021 
L 629.672727 183.671804 
L 630.466116 182.540671 
L 631.259504 119.013061 
L 632.052893 132.347262 
L 632.846281 93.443452 
L 633.639669 109.380608 
L 634.433058 258.920925 
L 635.226446 215.939875 
L 636.019835 219.807741 
L 636.813223 118.524795 
L 637.606612 162.74748 
L 638.4 146.264601 
L 639.193388 215.435966 
L 639.986777 198.220046 
L 641.573554 135.303977 
L 642.366942 175.248815 
L 643.160331 137.927178 
L 643.953719 224.592396 
L 644.747107 106.114996 
L 645.540496 134.293536 
L 646.333884 178.267848 
L 647.127273 264.794378 
L 647.920661 159.81192 
L 648.71405 124.445807 
L 649.507438 146.419163 
L 650.300826 155.813551 
L 651.094215 156.674855 
L 651.887603 178.94367 
L 652.680992 142.368719 
L 653.47438 217.110991 
L 654.267769 184.991807 
L 655.061157 162.623529 
L 655.854545 204.185645 
L 656.647934 217.759932 
L 657.441322 233.888865 
L 658.234711 183.696203 
L 659.028099 261.771055 
L 659.821488 196.270043 
L 660.614876 106.674138 
L 661.408264 157.004536 
L 662.201653 142.847985 
L 662.995041 92.205721 
L 663.78843 121.172284 
L 664.581818 140.075838 
L 665.375207 228.59361 
L 666.168595 223.076595 
L 666.961983 183.496756 
L 667.755372 133.205067 
L 668.54876 208.299821 
L 669.342149 212.318951 
L 670.135537 149.211736 
L 670.928926 225.768452 
L 671.722314 231.229086 
L 672.515702 143.216029 
L 673.309091 158.858812 
L 674.102479 143.492236 
L 674.895868 291.888877 
L 675.689256 232.773826 
L 676.482645 213.165836 
L 677.276033 189.391637 
L 678.069421 230.572648 
L 678.86281 203.130047 
L 679.656198 100.509676 
L 680.449587 163.689323 
L 681.242975 123.798853 
L 682.036364 234.720386 
L 682.829752 117.482026 
L 683.62314 231.112656 
L 684.416529 245.474481 
L 685.209917 202.642123 
L 686.003306 123.538484 
L 686.796694 199.67353 
L 687.590083 209.607177 
L 688.383471 184.876232 
L 689.17686 182.054349 
L 689.970248 153.275539 
L 690.763636 166.030246 
L 691.557025 128.663255 
L 692.350413 266.997904 
L 693.143802 106.353932 
L 693.93719 201.305957 
L 694.730579 177.351682 
L 695.523967 166.982821 
L 696.317355 212.258177 
L 697.110744 122.30585 
L 697.904132 153.64206 
L 698.697521 115.374722 
L 699.490909 172.667746 
L 700.284298 137.943524 
L 701.077686 179.96819 
L 701.871074 172.480142 
L 702.664463 171.380883 
L 703.457851 172.145429 
L 704.25124 166.981566 
L 705.044628 234.667698 
L 705.838017 137.946659 
L 706.631405 173.940186 
L 707.424793 119.786471 
L 708.218182 188.646931 
L 709.01157 204.775256 
L 709.804959 212.713965 
L 710.598347 176.123462 
L 711.391736 213.476663 
L 712.185124 138.470771 
L 712.978512 125.559619 
L 713.771901 172.856311 
L 714.565289 236.166112 
L 715.358678 167.039132 
L 716.152066 237.495272 
L 716.945455 243.245261 
L 717.738843 235.967261 
L 718.532231 215.14457 
L 719.32562 103.934418 
L 720.119008 165.512293 
L 720.912397 201.716034 
L 721.705785 152.988377 
L 722.499174 206.957231 
L 723.292562 194.278564 
L 724.08595 128.268287 
L 724.879339 238.871152 
L 725.672727 137.278687 
L 726.466116 167.189365 
L 727.259504 156.15071 
L 728.052893 184.457894 
L 728.846281 177.384256 
L 729.639669 104.448557 
L 730.433058 146.694416 
L 731.226446 229.918974 
L 732.019835 181.577786 
L 732.813223 174.723768 
L 733.606612 172.556195 
L 734.4 131.831432 
L 735.193388 209.948841 
L 735.986777 170.27618 
L 736.780165 264.766811 
L 737.573554 192.038368 
L 738.366942 165.227958 
L 739.160331 171.407393 
L 739.953719 184.883704 
L 740.747107 224.632509 
L 741.540496 205.362069 
L 743.127273 157.789676 
L 743.920661 166.626388 
L 744.71405 122.572274 
L 745.507438 153.57102 
L 746.300826 123.174339 
L 747.094215 170.919328 
L 747.887603 122.141511 
L 748.680992 230.943413 
L 749.47438 161.070881 
L 750.267769 135.336738 
L 751.061157 208.363877 
L 751.854545 142.421243 
L 752.647934 196.557927 
L 753.441322 108.953816 
L 754.234711 213.026611 
L 755.028099 157.604646 
L 755.821488 115.660892 
L 756.614876 116.554514 
L 757.408264 148.605696 
L 758.201653 188.628551 
L 758.995041 126.539184 
L 759.78843 182.654635 
L 760.581818 166.856585 
L 761.375207 244.320494 
L 762.168595 210.934983 
L 762.961983 216.948321 
L 763.755372 116.112384 
L 764.54876 135.581443 
L 765.342149 130.083201 
L 766.135537 126.552359 
L 766.928926 253.725896 
L 767.722314 279.432742 
L 768.515702 177.950018 
L 769.309091 243.737066 
L 770.895868 138.785226 
L 771.689256 138.432856 
L 773.276033 261.675679 
L 774.86281 67.406542 
L 775.656198 198.311958 
L 776.449587 168.775015 
L 777.242975 133.737025 
L 778.036364 153.551212 
L 778.829752 148.459017 
L 779.62314 219.757562 
L 780.416529 196.939526 
L 781.209917 193.036896 
L 782.003306 227.875508 
L 782.796694 163.301328 
L 783.590083 156.427213 
L 784.383471 138.191832 
L 785.970248 186.062898 
L 786.763636 233.31042 
L 787.557025 189.24163 
L 788.350413 230.899246 
L 789.143802 208.925064 
L 789.93719 133.138391 
L 790.730579 155.333731 
L 791.523967 212.52666 
L 792.317355 198.226391 
L 793.110744 161.553997 
L 793.904132 203.112442 
L 794.697521 209.766379 
L 795.490909 98.466096 
L 796.284298 164.059232 
L 797.077686 129.56656 
L 797.871074 194.87029 
L 798.664463 144.341176 
L 799.457851 157.600365 
L 800.25124 122.691335 
L 801.044628 137.791142 
L 801.838017 191.449944 
L 802.631405 184.017082 
L 803.424793 197.274844 
L 804.218182 153.272216 
L 805.01157 170.176354 
L 805.804959 225.921191 
L 806.598347 138.40985 
L 807.391736 197.941647 
L 808.185124 169.792848 
L 808.978512 204.342842 
L 809.771901 233.995371 
L 810.565289 182.132849 
L 811.358678 196.014926 
L 812.152066 172.961487 
L 812.945455 192.696877 
L 813.738843 182.170951 
L 814.532231 184.581825 
L 815.32562 124.048029 
L 816.119008 129.426968 
L 816.912397 165.788514 
L 817.705785 119.662328 
L 818.499174 92.220163 
L 819.292562 169.781364 
L 820.08595 194.495545 
L 820.879339 224.190422 
L 821.672727 189.85017 
L 822.466116 142.200827 
L 823.259504 169.567906 
L 824.052893 192.257339 
L 824.846281 235.221371 
L 825.639669 65.657024 
L 826.433058 157.049648 
L 827.226446 123.137615 
L 828.019835 198.465788 
L 828.813223 87.881298 
L 829.606612 162.597363 
L 830.4 162.577413 
L 831.193388 187.524268 
L 831.986777 188.515818 
L 832.780165 252.629274 
L 833.573554 213.319902 
L 834.366942 114.631045 
L 835.160331 96.466489 
L 835.953719 202.101651 
L 836.747107 180.28516 
L 838.333884 123.957018 
L 839.127273 107.646425 
L 839.920661 222.696229 
L 840.71405 155.106507 
L 841.507438 161.117344 
L 842.300826 137.192598 
L 843.094215 245.843908 
L 843.887603 153.772916 
L 844.680992 145.066783 
L 845.47438 234.688244 
L 846.267769 175.672786 
L 847.061157 183.953483 
L 847.854545 104.494962 
L 848.647934 185.753549 
L 849.441322 181.261233 
L 850.234711 194.148531 
L 851.028099 108.387089 
L 851.821488 152.983153 
L 852.614876 248.380044 
L 853.408264 130.141187 
L 854.201653 98.214649 
L 854.995041 192.757914 
L 855.78843 155.203742 
L 856.581818 200.750096 
L 857.375207 183.35998 
L 858.168595 198.361985 
L 858.961983 208.577426 
L 859.755372 179.730697 
L 860.54876 131.787226 
L 861.342149 187.788717 
L 862.135537 171.735044 
L 862.928926 151.681691 
L 863.722314 184.901865 
L 864.515702 135.297571 
L 865.309091 209.973209 
L 866.102479 155.050848 
L 866.895868 164.432982 
L 868.482645 253.198239 
L 869.276033 200.658613 
L 870.069421 113.036762 
L 870.86281 166.730914 
L 871.656198 147.091275 
L 872.449587 194.975649 
L 873.242975 149.714336 
L 874.036364 160.518652 
L 874.829752 225.171252 
L 875.62314 172.129027 
L 876.416529 163.56358 
L 877.209917 133.536526 
L 878.003306 193.466533 
L 878.796694 184.172538 
L 879.590083 122.723355 
L 880.383471 161.199187 
L 881.17686 228.658935 
L 881.970248 147.616195 
L 882.763636 123.251142 
L 883.557025 214.180831 
L 884.350413 203.394419 
L 885.143802 261.408376 
L 885.93719 159.477981 
L 887.523967 256.978883 
L 888.317355 180.796276 
L 889.110744 89.019328 
L 889.904132 119.461003 
L 890.697521 154.996099 
L 891.490909 230.572034 
L 892.284298 154.470963 
L 893.077686 168.791576 
L 893.871074 228.700724 
L 894.664463 116.4072 
L 895.457851 200.317778 
L 896.25124 205.198034 
L 897.838017 114.346488 
L 898.631405 198.235874 
L 899.424793 206.996301 
L 900.218182 175.561072 
L 901.01157 211.729143 
L 901.804959 207.727682 
L 902.598347 157.188548 
L 903.391736 126.724287 
L 904.185124 206.125206 
L 904.978512 119.066654 
L 905.771901 213.176913 
L 906.565289 238.266141 
L 907.358678 175.306959 
L 908.152066 135.784276 
L 908.945455 176.354109 
L 909.738843 127.666547 
L 910.532231 193.025053 
L 911.32562 181.109112 
L 912.119008 225.436432 
L 912.912397 243.498573 
L 913.705785 227.65753 
L 915.292562 117.825438 
L 916.08595 137.717256 
L 916.879339 137.372111 
L 917.672727 162.716138 
L 918.466116 179.969569 
L 919.259504 131.933371 
L 920.052893 239.026794 
L 920.846281 157.407198 
L 921.639669 155.138022 
L 922.433058 191.107529 
L 923.226446 119.908484 
L 924.019835 193.244199 
L 924.813223 182.290369 
L 925.606612 186.115376 
L 926.4 249.307477 
L 927.193388 134.654285 
L 927.986777 205.883811 
L 928.780165 219.110422 
L 929.573554 217.014743 
L 930.366942 160.55757 
L 931.160331 144.915527 
L 931.953719 139.212672 
L 932.747107 143.53969 
L 933.540496 120.171395 
L 934.333884 210.530224 
L 935.127273 142.943555 
L 935.920661 118.741036 
L 936.71405 147.791341 
L 937.507438 163.792361 
L 938.300826 146.59172 
L 939.094215 118.354039 
L 939.887603 161.572657 
L 940.680992 122.405594 
L 941.47438 161.831688 
L 942.267769 186.692225 
L 943.061157 161.941162 
L 943.854545 146.84727 
L 944.647934 196.947563 
L 945.441322 230.885702 
L 946.234711 178.199042 
L 947.028099 105.128383 
L 947.821488 173.089946 
L 948.614876 231.429274 
L 949.408264 263.162055 
L 950.201653 177.496801 
L 950.995041 198.955859 
L 951.78843 193.765218 
L 952.581818 130.296779 
L 953.375207 231.11187 
L 954.168595 194.714088 
L 955.755372 158.112512 
L 956.54876 130.031842 
L 957.342149 149.050859 
L 958.135537 189.157764 
L 958.928926 243.924679 
L 959.722314 215.033074 
L 960.515702 205.916639 
L 961.309091 200.648419 
L 962.102479 145.062576 
L 962.895868 246.56354 
L 963.689256 222.47997 
L 964.482645 232.604758 
L 965.276033 147.427874 
L 966.069421 119.992243 
L 966.86281 146.715515 
L 967.656198 251.209199 
L 968.449587 111.540178 
L 969.242975 126.423158 
L 970.036364 165.811386 
L 970.829752 135.548657 
L 971.62314 172.033798 
L 972.416529 122.542748 
L 973.209917 206.646884 
L 974.003306 259.696455 
L 974.796694 149.253192 
L 975.590083 193.756261 
L 976.383471 114.234633 
L 977.17686 205.810226 
L 977.970248 130.806675 
L 978.763636 112.613137 
L 979.557025 128.718717 
L 980.350413 172.603422 
L 981.143802 165.766327 
L 981.93719 122.748302 
L 982.730579 144.121609 
L 983.523967 151.630524 
L 984.317355 219.449587 
L 985.110744 195.149382 
L 985.904132 211.699675 
L 986.697521 206.065558 
L 987.490909 131.467738 
L 988.284298 100.217758 
L 989.077686 140.173277 
L 989.871074 157.135035 
L 990.664463 136.649305 
L 991.457851 202.369741 
L 992.25124 120.617106 
L 993.044628 210.985348 
L 993.838017 172.070567 
L 994.631405 212.726176 
L 995.424793 151.545761 
L 996.218182 116.986217 
L 996.218182 116.986217 
" style="fill:none;stroke:#1f77b4;stroke-linecap:square;stroke-width:1.5;"/>
   </g>
   <g id="patch_3">
    <path d="M 144 307.584 
L 144 41.472 
" style="fill:none;stroke:#000000;stroke-linecap:square;stroke-linejoin:miter;stroke-width:0.8;"/>
   </g>
   <g id="patch_4">
    <path d="M 1036.8 307.584 
L 1036.8 41.472 
" style="fill:none;stroke:#000000;stroke-linecap:square;stroke-linejoin:miter;stroke-width:0.8;"/>
   </g>
   <g id="patch_5">
    <path d="M 144 307.584 
L 1036.8 307.584 
" style="fill:none;stroke:#000000;stroke-linecap:square;stroke-linejoin:miter;stroke-width:0.8;"/>
   </g>
   <g id="patch_6">
    <path d="M 144 41.472 
L 1036.8 41.472 
" style="fill:none;stroke:#000000;stroke-linecap:square;stroke-linejoin:miter;stroke-width:0.8;"/>
   </g>
   <g id="text_12">
    <!-- Transpose of the compressed signal -->
    <g transform="translate(482.84625 35.472)scale(0.12 -0.12)">
     <defs>
      <path d="M -0.296875 72.90625 
L 61.375 72.90625 
L 61.375 64.59375 
L 35.5 64.59375 
L 35.5 0 
L 25.59375 0 
L 25.59375 64.59375 
L -0.296875 64.59375 
z
" id="DejaVuSans-84"/>
      <path d="M 41.109375 46.296875 
Q 39.59375 47.171875 37.8125 47.578125 
Q 36.03125 48 33.890625 48 
Q 26.265625 48 22.1875 43.046875 
Q 18.109375 38.09375 18.109375 28.8125 
L 18.109375 0 
L 9.078125 0 
L 9.078125 54.6875 
L 18.109375 54.6875 
L 18.109375 46.1875 
Q 20.953125 51.171875 25.484375 53.578125 
Q 30.03125 56 36.53125 56 
Q 37.453125 56 38.578125 55.875 
Q 39.703125 55.765625 41.0625 55.515625 
z
" id="DejaVuSans-114"/>
      <path d="M 34.28125 27.484375 
Q 23.390625 27.484375 19.1875 25 
Q 14.984375 22.515625 14.984375 16.5 
Q 14.984375 11.71875 18.140625 8.90625 
Q 21.296875 6.109375 26.703125 6.109375 
Q 34.1875 6.109375 38.703125 11.40625 
Q 43.21875 16.703125 43.21875 25.484375 
L 43.21875 27.484375 
z
M 52.203125 31.203125 
L 52.203125 0 
L 43.21875 0 
L 43.21875 8.296875 
Q 40.140625 3.328125 35.546875 0.953125 
Q 30.953125 -1.421875 24.3125 -1.421875 
Q 15.921875 -1.421875 10.953125 3.296875 
Q 6 8.015625 6 15.921875 
Q 6 25.140625 12.171875 29.828125 
Q 18.359375 34.515625 30.609375 34.515625 
L 43.21875 34.515625 
L 43.21875 35.40625 
Q 43.21875 41.609375 39.140625 45 
Q 35.0625 48.390625 27.6875 48.390625 
Q 23 48.390625 18.546875 47.265625 
Q 14.109375 46.140625 10.015625 43.890625 
L 10.015625 52.203125 
Q 14.9375 54.109375 19.578125 55.046875 
Q 24.21875 56 28.609375 56 
Q 40.484375 56 46.34375 49.84375 
Q 52.203125 43.703125 52.203125 31.203125 
z
" id="DejaVuSans-97"/>
      <path d="M 54.890625 33.015625 
L 54.890625 0 
L 45.90625 0 
L 45.90625 32.71875 
Q 45.90625 40.484375 42.875 44.328125 
Q 39.84375 48.1875 33.796875 48.1875 
Q 26.515625 48.1875 22.3125 43.546875 
Q 18.109375 38.921875 18.109375 30.90625 
L 18.109375 0 
L 9.078125 0 
L 9.078125 54.6875 
L 18.109375 54.6875 
L 18.109375 46.1875 
Q 21.34375 51.125 25.703125 53.5625 
Q 30.078125 56 35.796875 56 
Q 45.21875 56 50.046875 50.171875 
Q 54.890625 44.34375 54.890625 33.015625 
z
" id="DejaVuSans-110"/>
      <path d="M 44.28125 53.078125 
L 44.28125 44.578125 
Q 40.484375 46.53125 36.375 47.5 
Q 32.28125 48.484375 27.875 48.484375 
Q 21.1875 48.484375 17.84375 46.4375 
Q 14.5 44.390625 14.5 40.28125 
Q 14.5 37.15625 16.890625 35.375 
Q 19.28125 33.59375 26.515625 31.984375 
L 29.59375 31.296875 
Q 39.15625 29.25 43.1875 25.515625 
Q 47.21875 21.78125 47.21875 15.09375 
Q 47.21875 7.46875 41.1875 3.015625 
Q 35.15625 -1.421875 24.609375 -1.421875 
Q 20.21875 -1.421875 15.453125 -0.5625 
Q 10.6875 0.296875 5.421875 2 
L 5.421875 11.28125 
Q 10.40625 8.6875 15.234375 7.390625 
Q 20.0625 6.109375 24.8125 6.109375 
Q 31.15625 6.109375 34.5625 8.28125 
Q 37.984375 10.453125 37.984375 14.40625 
Q 37.984375 18.0625 35.515625 20.015625 
Q 33.0625 21.96875 24.703125 23.78125 
L 21.578125 24.515625 
Q 13.234375 26.265625 9.515625 29.90625 
Q 5.8125 33.546875 5.8125 39.890625 
Q 5.8125 47.609375 11.28125 51.796875 
Q 16.75 56 26.8125 56 
Q 31.78125 56 36.171875 55.265625 
Q 40.578125 54.546875 44.28125 53.078125 
z
" id="DejaVuSans-115"/>
      <path d="M 18.109375 8.203125 
L 18.109375 -20.796875 
L 9.078125 -20.796875 
L 9.078125 54.6875 
L 18.109375 54.6875 
L 18.109375 46.390625 
Q 20.953125 51.265625 25.265625 53.625 
Q 29.59375 56 35.59375 56 
Q 45.5625 56 51.78125 48.09375 
Q 58.015625 40.1875 58.015625 27.296875 
Q 58.015625 14.40625 51.78125 6.484375 
Q 45.5625 -1.421875 35.59375 -1.421875 
Q 29.59375 -1.421875 25.265625 0.953125 
Q 20.953125 3.328125 18.109375 8.203125 
z
M 48.6875 27.296875 
Q 48.6875 37.203125 44.609375 42.84375 
Q 40.53125 48.484375 33.40625 48.484375 
Q 26.265625 48.484375 22.1875 42.84375 
Q 18.109375 37.203125 18.109375 27.296875 
Q 18.109375 17.390625 22.1875 11.75 
Q 26.265625 6.109375 33.40625 6.109375 
Q 40.53125 6.109375 44.609375 11.75 
Q 48.6875 17.390625 48.6875 27.296875 
z
" id="DejaVuSans-112"/>
      <path d="M 30.609375 48.390625 
Q 23.390625 48.390625 19.1875 42.75 
Q 14.984375 37.109375 14.984375 27.296875 
Q 14.984375 17.484375 19.15625 11.84375 
Q 23.34375 6.203125 30.609375 6.203125 
Q 37.796875 6.203125 41.984375 11.859375 
Q 46.1875 17.53125 46.1875 27.296875 
Q 46.1875 37.015625 41.984375 42.703125 
Q 37.796875 48.390625 30.609375 48.390625 
z
M 30.609375 56 
Q 42.328125 56 49.015625 48.375 
Q 55.71875 40.765625 55.71875 27.296875 
Q 55.71875 13.875 49.015625 6.21875 
Q 42.328125 -1.421875 30.609375 -1.421875 
Q 18.84375 -1.421875 12.171875 6.21875 
Q 5.515625 13.875 5.515625 27.296875 
Q 5.515625 40.765625 12.171875 48.375 
Q 18.84375 56 30.609375 56 
z
" id="DejaVuSans-111"/>
      <path d="M 56.203125 29.59375 
L 56.203125 25.203125 
L 14.890625 25.203125 
Q 15.484375 15.921875 20.484375 11.0625 
Q 25.484375 6.203125 34.421875 6.203125 
Q 39.59375 6.203125 44.453125 7.46875 
Q 49.3125 8.734375 54.109375 11.28125 
L 54.109375 2.78125 
Q 49.265625 0.734375 44.1875 -0.34375 
Q 39.109375 -1.421875 33.890625 -1.421875 
Q 20.796875 -1.421875 13.15625 6.1875 
Q 5.515625 13.8125 5.515625 26.8125 
Q 5.515625 40.234375 12.765625 48.109375 
Q 20.015625 56 32.328125 56 
Q 43.359375 56 49.78125 48.890625 
Q 56.203125 41.796875 56.203125 29.59375 
z
M 47.21875 32.234375 
Q 47.125 39.59375 43.09375 43.984375 
Q 39.0625 48.390625 32.421875 48.390625 
Q 24.90625 48.390625 20.390625 44.140625 
Q 15.875 39.890625 15.1875 32.171875 
z
" id="DejaVuSans-101"/>
      <path id="DejaVuSans-32"/>
      <path d="M 37.109375 75.984375 
L 37.109375 68.5 
L 28.515625 68.5 
Q 23.6875 68.5 21.796875 66.546875 
Q 19.921875 64.59375 19.921875 59.515625 
L 19.921875 54.6875 
L 34.71875 54.6875 
L 34.71875 47.703125 
L 19.921875 47.703125 
L 19.921875 0 
L 10.890625 0 
L 10.890625 47.703125 
L 2.296875 47.703125 
L 2.296875 54.6875 
L 10.890625 54.6875 
L 10.890625 58.5 
Q 10.890625 67.625 15.140625 71.796875 
Q 19.390625 75.984375 28.609375 75.984375 
z
" id="DejaVuSans-102"/>
      <path d="M 18.3125 70.21875 
L 18.3125 54.6875 
L 36.8125 54.6875 
L 36.8125 47.703125 
L 18.3125 47.703125 
L 18.3125 18.015625 
Q 18.3125 11.328125 20.140625 9.421875 
Q 21.96875 7.515625 27.59375 7.515625 
L 36.8125 7.515625 
L 36.8125 0 
L 27.59375 0 
Q 17.1875 0 13.234375 3.875 
Q 9.28125 7.765625 9.28125 18.015625 
L 9.28125 47.703125 
L 2.6875 47.703125 
L 2.6875 54.6875 
L 9.28125 54.6875 
L 9.28125 70.21875 
z
" id="DejaVuSans-116"/>
      <path d="M 54.890625 33.015625 
L 54.890625 0 
L 45.90625 0 
L 45.90625 32.71875 
Q 45.90625 40.484375 42.875 44.328125 
Q 39.84375 48.1875 33.796875 48.1875 
Q 26.515625 48.1875 22.3125 43.546875 
Q 18.109375 38.921875 18.109375 30.90625 
L 18.109375 0 
L 9.078125 0 
L 9.078125 75.984375 
L 18.109375 75.984375 
L 18.109375 46.1875 
Q 21.34375 51.125 25.703125 53.5625 
Q 30.078125 56 35.796875 56 
Q 45.21875 56 50.046875 50.171875 
Q 54.890625 44.34375 54.890625 33.015625 
z
" id="DejaVuSans-104"/>
      <path d="M 48.78125 52.59375 
L 48.78125 44.1875 
Q 44.96875 46.296875 41.140625 47.34375 
Q 37.3125 48.390625 33.40625 48.390625 
Q 24.65625 48.390625 19.8125 42.84375 
Q 14.984375 37.3125 14.984375 27.296875 
Q 14.984375 17.28125 19.8125 11.734375 
Q 24.65625 6.203125 33.40625 6.203125 
Q 37.3125 6.203125 41.140625 7.25 
Q 44.96875 8.296875 48.78125 10.40625 
L 48.78125 2.09375 
Q 45.015625 0.34375 40.984375 -0.53125 
Q 36.96875 -1.421875 32.421875 -1.421875 
Q 20.0625 -1.421875 12.78125 6.34375 
Q 5.515625 14.109375 5.515625 27.296875 
Q 5.515625 40.671875 12.859375 48.328125 
Q 20.21875 56 33.015625 56 
Q 37.15625 56 41.109375 55.140625 
Q 45.0625 54.296875 48.78125 52.59375 
z
" id="DejaVuSans-99"/>
      <path d="M 52 44.1875 
Q 55.375 50.25 60.0625 53.125 
Q 64.75 56 71.09375 56 
Q 79.640625 56 84.28125 50.015625 
Q 88.921875 44.046875 88.921875 33.015625 
L 88.921875 0 
L 79.890625 0 
L 79.890625 32.71875 
Q 79.890625 40.578125 77.09375 44.375 
Q 74.3125 48.1875 68.609375 48.1875 
Q 61.625 48.1875 57.5625 43.546875 
Q 53.515625 38.921875 53.515625 30.90625 
L 53.515625 0 
L 44.484375 0 
L 44.484375 32.71875 
Q 44.484375 40.625 41.703125 44.40625 
Q 38.921875 48.1875 33.109375 48.1875 
Q 26.21875 48.1875 22.15625 43.53125 
Q 18.109375 38.875 18.109375 30.90625 
L 18.109375 0 
L 9.078125 0 
L 9.078125 54.6875 
L 18.109375 54.6875 
L 18.109375 46.1875 
Q 21.1875 51.21875 25.484375 53.609375 
Q 29.78125 56 35.6875 56 
Q 41.65625 56 45.828125 52.96875 
Q 50 49.953125 52 44.1875 
z
" id="DejaVuSans-109"/>
      <path d="M 45.40625 46.390625 
L 45.40625 75.984375 
L 54.390625 75.984375 
L 54.390625 0 
L 45.40625 0 
L 45.40625 8.203125 
Q 42.578125 3.328125 38.25 0.953125 
Q 33.9375 -1.421875 27.875 -1.421875 
Q 17.96875 -1.421875 11.734375 6.484375 
Q 5.515625 14.40625 5.515625 27.296875 
Q 5.515625 40.1875 11.734375 48.09375 
Q 17.96875 56 27.875 56 
Q 33.9375 56 38.25 53.625 
Q 42.578125 51.265625 45.40625 46.390625 
z
M 14.796875 27.296875 
Q 14.796875 17.390625 18.875 11.75 
Q 22.953125 6.109375 30.078125 6.109375 
Q 37.203125 6.109375 41.296875 11.75 
Q 45.40625 17.390625 45.40625 27.296875 
Q 45.40625 37.203125 41.296875 42.84375 
Q 37.203125 48.484375 30.078125 48.484375 
Q 22.953125 48.484375 18.875 42.84375 
Q 14.796875 37.203125 14.796875 27.296875 
z
" id="DejaVuSans-100"/>
      <path d="M 9.421875 54.6875 
L 18.40625 54.6875 
L 18.40625 0 
L 9.421875 0 
z
M 9.421875 75.984375 
L 18.40625 75.984375 
L 18.40625 64.59375 
L 9.421875 64.59375 
z
" id="DejaVuSans-105"/>
      <path d="M 45.40625 27.984375 
Q 45.40625 37.75 41.375 43.109375 
Q 37.359375 48.484375 30.078125 48.484375 
Q 22.859375 48.484375 18.828125 43.109375 
Q 14.796875 37.75 14.796875 27.984375 
Q 14.796875 18.265625 18.828125 12.890625 
Q 22.859375 7.515625 30.078125 7.515625 
Q 37.359375 7.515625 41.375 12.890625 
Q 45.40625 18.265625 45.40625 27.984375 
z
M 54.390625 6.78125 
Q 54.390625 -7.171875 48.1875 -13.984375 
Q 42 -20.796875 29.203125 -20.796875 
Q 24.46875 -20.796875 20.265625 -20.09375 
Q 16.0625 -19.390625 12.109375 -17.921875 
L 12.109375 -9.1875 
Q 16.0625 -11.328125 19.921875 -12.34375 
Q 23.78125 -13.375 27.78125 -13.375 
Q 36.625 -13.375 41.015625 -8.765625 
Q 45.40625 -4.15625 45.40625 5.171875 
L 45.40625 9.625 
Q 42.625 4.78125 38.28125 2.390625 
Q 33.9375 0 27.875 0 
Q 17.828125 0 11.671875 7.65625 
Q 5.515625 15.328125 5.515625 27.984375 
Q 5.515625 40.671875 11.671875 48.328125 
Q 17.828125 56 27.875 56 
Q 33.9375 56 38.28125 53.609375 
Q 42.625 51.21875 45.40625 46.390625 
L 45.40625 54.6875 
L 54.390625 54.6875 
z
" id="DejaVuSans-103"/>
      <path d="M 9.421875 75.984375 
L 18.40625 75.984375 
L 18.40625 0 
L 9.421875 0 
z
" id="DejaVuSans-108"/>
     </defs>
     <use xlink:href="#DejaVuSans-84"/>
     <use x="46.333984" xlink:href="#DejaVuSans-114"/>
     <use x="87.447266" xlink:href="#DejaVuSans-97"/>
     <use x="148.726562" xlink:href="#DejaVuSans-110"/>
     <use x="212.105469" xlink:href="#DejaVuSans-115"/>
     <use x="264.205078" xlink:href="#DejaVuSans-112"/>
     <use x="327.681641" xlink:href="#DejaVuSans-111"/>
     <use x="388.863281" xlink:href="#DejaVuSans-115"/>
     <use x="440.962891" xlink:href="#DejaVuSans-101"/>
     <use x="502.486328" xlink:href="#DejaVuSans-32"/>
     <use x="534.273438" xlink:href="#DejaVuSans-111"/>
     <use x="595.455078" xlink:href="#DejaVuSans-102"/>
     <use x="630.660156" xlink:href="#DejaVuSans-32"/>
     <use x="662.447266" xlink:href="#DejaVuSans-116"/>
     <use x="701.65625" xlink:href="#DejaVuSans-104"/>
     <use x="765.035156" xlink:href="#DejaVuSans-101"/>
     <use x="826.558594" xlink:href="#DejaVuSans-32"/>
     <use x="858.345703" xlink:href="#DejaVuSans-99"/>
     <use x="913.326172" xlink:href="#DejaVuSans-111"/>
     <use x="974.507812" xlink:href="#DejaVuSans-109"/>
     <use x="1071.919922" xlink:href="#DejaVuSans-112"/>
     <use x="1135.396484" xlink:href="#DejaVuSans-114"/>
     <use x="1174.259766" xlink:href="#DejaVuSans-101"/>
     <use x="1235.783203" xlink:href="#DejaVuSans-115"/>
     <use x="1287.882812" xlink:href="#DejaVuSans-115"/>
     <use x="1339.982422" xlink:href="#DejaVuSans-101"/>
     <use x="1401.505859" xlink:href="#DejaVuSans-100"/>
     <use x="1464.982422" xlink:href="#DejaVuSans-32"/>
     <use x="1496.769531" xlink:href="#DejaVuSans-115"/>
     <use x="1548.869141" xlink:href="#DejaVuSans-105"/>
     <use x="1576.652344" xlink:href="#DejaVuSans-103"/>
     <use x="1640.128906" xlink:href="#DejaVuSans-110"/>
     <use x="1703.507812" xlink:href="#DejaVuSans-97"/>
     <use x="1764.787109" xlink:href="#DejaVuSans-108"/>
    </g>
   </g>
  </g>
 </g>
 <defs>
  <clipPath id="pd67b89e31e">
   <rect height="266.112" width="892.8" x="144" y="41.472"/>
  </clipPath>
 </defs>
</svg>
