<?xml version="1.0" encoding="utf-8" standalone="no"?>
<!DOCTYPE svg PUBLIC "-//W3C//DTD SVG 1.1//EN"
  "http://www.w3.org/Graphics/SVG/1.1/DTD/svg11.dtd">
<!-- Created with matplotlib (https://matplotlib.org/) -->
<svg height="345.6pt" version="1.1" viewBox="0 0 1152 345.6" width="1152pt" xmlns="http://www.w3.org/2000/svg" xmlns:xlink="http://www.w3.org/1999/xlink">
 <metadata>
  <rdf:RDF xmlns:cc="http://creativecommons.org/ns#" xmlns:dc="http://purl.org/dc/elements/1.1/" xmlns:rdf="http://www.w3.org/1999/02/22-rdf-syntax-ns#">
   <cc:Work>
    <dc:type rdf:resource="http://purl.org/dc/dcmitype/StillImage"/>
    <dc:date>2021-12-24T07:21:33.954628</dc:date>
    <dc:format>image/svg+xml</dc:format>
    <dc:creator>
     <cc:Agent>
      <dc:title>Matplotlib v3.3.3, https://matplotlib.org/</dc:title>
     </cc:Agent>
    </dc:creator>
   </cc:Work>
  </rdf:RDF>
 </metadata>
 <defs>
  <style type="text/css">*{stroke-linecap:butt;stroke-linejoin:round;}</style>
 </defs>
 <g id="figure_1">
  <g id="patch_1">
   <path d="M 0 345.6 
L 1152 345.6 
L 1152 0 
L 0 0 
z
" style="fill:#ffffff;"/>
  </g>
  <g id="axes_1">
   <g id="patch_2">
    <path d="M 144 307.584 
L 1036.8 307.584 
L 1036.8 41.472 
L 144 41.472 
z
" style="fill:#ffffff;"/>
   </g>
   <g id="matplotlib.axis_1">
    <g id="xtick_1">
     <g id="line2d_1">
      <defs>
       <path d="M 0 0 
L 0 3.5 
" id="mcd4f0604bd" style="stroke:#000000;stroke-width:0.8;"/>
      </defs>
      <g>
       <use style="stroke:#000000;stroke-width:0.8;" x="184.581818" xlink:href="#mcd4f0604bd" y="307.584"/>
      </g>
     </g>
     <g id="text_1">
      <!-- 0 -->
      <g transform="translate(181.400568 322.182437)scale(0.1 -0.1)">
       <defs>
        <path d="M 31.78125 66.40625 
Q 24.171875 66.40625 20.328125 58.90625 
Q 16.5 51.421875 16.5 36.375 
Q 16.5 21.390625 20.328125 13.890625 
Q 24.171875 6.390625 31.78125 6.390625 
Q 39.453125 6.390625 43.28125 13.890625 
Q 47.125 21.390625 47.125 36.375 
Q 47.125 51.421875 43.28125 58.90625 
Q 39.453125 66.40625 31.78125 66.40625 
z
M 31.78125 74.21875 
Q 44.046875 74.21875 50.515625 64.515625 
Q 56.984375 54.828125 56.984375 36.375 
Q 56.984375 17.96875 50.515625 8.265625 
Q 44.046875 -1.421875 31.78125 -1.421875 
Q 19.53125 -1.421875 13.0625 8.265625 
Q 6.59375 17.96875 6.59375 36.375 
Q 6.59375 54.828125 13.0625 64.515625 
Q 19.53125 74.21875 31.78125 74.21875 
z
" id="DejaVuSans-48"/>
       </defs>
       <use xlink:href="#DejaVuSans-48"/>
      </g>
     </g>
    </g>
    <g id="xtick_2">
     <g id="line2d_2">
      <g>
       <use style="stroke:#000000;stroke-width:0.8;" x="343.259504" xlink:href="#mcd4f0604bd" y="307.584"/>
      </g>
     </g>
     <g id="text_2">
      <!-- 200 -->
      <g transform="translate(333.715754 322.182437)scale(0.1 -0.1)">
       <defs>
        <path d="M 19.1875 8.296875 
L 53.609375 8.296875 
L 53.609375 0 
L 7.328125 0 
L 7.328125 8.296875 
Q 12.9375 14.109375 22.625 23.890625 
Q 32.328125 33.6875 34.8125 36.53125 
Q 39.546875 41.84375 41.421875 45.53125 
Q 43.3125 49.21875 43.3125 52.78125 
Q 43.3125 58.59375 39.234375 62.25 
Q 35.15625 65.921875 28.609375 65.921875 
Q 23.96875 65.921875 18.8125 64.3125 
Q 13.671875 62.703125 7.8125 59.421875 
L 7.8125 69.390625 
Q 13.765625 71.78125 18.9375 73 
Q 24.125 74.21875 28.421875 74.21875 
Q 39.75 74.21875 46.484375 68.546875 
Q 53.21875 62.890625 53.21875 53.421875 
Q 53.21875 48.921875 51.53125 44.890625 
Q 49.859375 40.875 45.40625 35.40625 
Q 44.1875 33.984375 37.640625 27.21875 
Q 31.109375 20.453125 19.1875 8.296875 
z
" id="DejaVuSans-50"/>
       </defs>
       <use xlink:href="#DejaVuSans-50"/>
       <use x="63.623047" xlink:href="#DejaVuSans-48"/>
       <use x="127.246094" xlink:href="#DejaVuSans-48"/>
      </g>
     </g>
    </g>
    <g id="xtick_3">
     <g id="line2d_3">
      <g>
       <use style="stroke:#000000;stroke-width:0.8;" x="501.93719" xlink:href="#mcd4f0604bd" y="307.584"/>
      </g>
     </g>
     <g id="text_3">
      <!-- 400 -->
      <g transform="translate(492.39344 322.182437)scale(0.1 -0.1)">
       <defs>
        <path d="M 37.796875 64.3125 
L 12.890625 25.390625 
L 37.796875 25.390625 
z
M 35.203125 72.90625 
L 47.609375 72.90625 
L 47.609375 25.390625 
L 58.015625 25.390625 
L 58.015625 17.1875 
L 47.609375 17.1875 
L 47.609375 0 
L 37.796875 0 
L 37.796875 17.1875 
L 4.890625 17.1875 
L 4.890625 26.703125 
z
" id="DejaVuSans-52"/>
       </defs>
       <use xlink:href="#DejaVuSans-52"/>
       <use x="63.623047" xlink:href="#DejaVuSans-48"/>
       <use x="127.246094" xlink:href="#DejaVuSans-48"/>
      </g>
     </g>
    </g>
    <g id="xtick_4">
     <g id="line2d_4">
      <g>
       <use style="stroke:#000000;stroke-width:0.8;" x="660.614876" xlink:href="#mcd4f0604bd" y="307.584"/>
      </g>
     </g>
     <g id="text_4">
      <!-- 600 -->
      <g transform="translate(651.071126 322.182437)scale(0.1 -0.1)">
       <defs>
        <path d="M 33.015625 40.375 
Q 26.375 40.375 22.484375 35.828125 
Q 18.609375 31.296875 18.609375 23.390625 
Q 18.609375 15.53125 22.484375 10.953125 
Q 26.375 6.390625 33.015625 6.390625 
Q 39.65625 6.390625 43.53125 10.953125 
Q 47.40625 15.53125 47.40625 23.390625 
Q 47.40625 31.296875 43.53125 35.828125 
Q 39.65625 40.375 33.015625 40.375 
z
M 52.59375 71.296875 
L 52.59375 62.3125 
Q 48.875 64.0625 45.09375 64.984375 
Q 41.3125 65.921875 37.59375 65.921875 
Q 27.828125 65.921875 22.671875 59.328125 
Q 17.53125 52.734375 16.796875 39.40625 
Q 19.671875 43.65625 24.015625 45.921875 
Q 28.375 48.1875 33.59375 48.1875 
Q 44.578125 48.1875 50.953125 41.515625 
Q 57.328125 34.859375 57.328125 23.390625 
Q 57.328125 12.15625 50.6875 5.359375 
Q 44.046875 -1.421875 33.015625 -1.421875 
Q 20.359375 -1.421875 13.671875 8.265625 
Q 6.984375 17.96875 6.984375 36.375 
Q 6.984375 53.65625 15.1875 63.9375 
Q 23.390625 74.21875 37.203125 74.21875 
Q 40.921875 74.21875 44.703125 73.484375 
Q 48.484375 72.75 52.59375 71.296875 
z
" id="DejaVuSans-54"/>
       </defs>
       <use xlink:href="#DejaVuSans-54"/>
       <use x="63.623047" xlink:href="#DejaVuSans-48"/>
       <use x="127.246094" xlink:href="#DejaVuSans-48"/>
      </g>
     </g>
    </g>
    <g id="xtick_5">
     <g id="line2d_5">
      <g>
       <use style="stroke:#000000;stroke-width:0.8;" x="819.292562" xlink:href="#mcd4f0604bd" y="307.584"/>
      </g>
     </g>
     <g id="text_5">
      <!-- 800 -->
      <g transform="translate(809.748812 322.182437)scale(0.1 -0.1)">
       <defs>
        <path d="M 31.78125 34.625 
Q 24.75 34.625 20.71875 30.859375 
Q 16.703125 27.09375 16.703125 20.515625 
Q 16.703125 13.921875 20.71875 10.15625 
Q 24.75 6.390625 31.78125 6.390625 
Q 38.8125 6.390625 42.859375 10.171875 
Q 46.921875 13.96875 46.921875 20.515625 
Q 46.921875 27.09375 42.890625 30.859375 
Q 38.875 34.625 31.78125 34.625 
z
M 21.921875 38.8125 
Q 15.578125 40.375 12.03125 44.71875 
Q 8.5 49.078125 8.5 55.328125 
Q 8.5 64.0625 14.71875 69.140625 
Q 20.953125 74.21875 31.78125 74.21875 
Q 42.671875 74.21875 48.875 69.140625 
Q 55.078125 64.0625 55.078125 55.328125 
Q 55.078125 49.078125 51.53125 44.71875 
Q 48 40.375 41.703125 38.8125 
Q 48.828125 37.15625 52.796875 32.3125 
Q 56.78125 27.484375 56.78125 20.515625 
Q 56.78125 9.90625 50.3125 4.234375 
Q 43.84375 -1.421875 31.78125 -1.421875 
Q 19.734375 -1.421875 13.25 4.234375 
Q 6.78125 9.90625 6.78125 20.515625 
Q 6.78125 27.484375 10.78125 32.3125 
Q 14.796875 37.15625 21.921875 38.8125 
z
M 18.3125 54.390625 
Q 18.3125 48.734375 21.84375 45.5625 
Q 25.390625 42.390625 31.78125 42.390625 
Q 38.140625 42.390625 41.71875 45.5625 
Q 45.3125 48.734375 45.3125 54.390625 
Q 45.3125 60.0625 41.71875 63.234375 
Q 38.140625 66.40625 31.78125 66.40625 
Q 25.390625 66.40625 21.84375 63.234375 
Q 18.3125 60.0625 18.3125 54.390625 
z
" id="DejaVuSans-56"/>
       </defs>
       <use xlink:href="#DejaVuSans-56"/>
       <use x="63.623047" xlink:href="#DejaVuSans-48"/>
       <use x="127.246094" xlink:href="#DejaVuSans-48"/>
      </g>
     </g>
    </g>
    <g id="xtick_6">
     <g id="line2d_6">
      <g>
       <use style="stroke:#000000;stroke-width:0.8;" x="977.970248" xlink:href="#mcd4f0604bd" y="307.584"/>
      </g>
     </g>
     <g id="text_6">
      <!-- 1000 -->
      <g transform="translate(965.245248 322.182437)scale(0.1 -0.1)">
       <defs>
        <path d="M 12.40625 8.296875 
L 28.515625 8.296875 
L 28.515625 63.921875 
L 10.984375 60.40625 
L 10.984375 69.390625 
L 28.421875 72.90625 
L 38.28125 72.90625 
L 38.28125 8.296875 
L 54.390625 8.296875 
L 54.390625 0 
L 12.40625 0 
z
" id="DejaVuSans-49"/>
       </defs>
       <use xlink:href="#DejaVuSans-49"/>
       <use x="63.623047" xlink:href="#DejaVuSans-48"/>
       <use x="127.246094" xlink:href="#DejaVuSans-48"/>
       <use x="190.869141" xlink:href="#DejaVuSans-48"/>
      </g>
     </g>
    </g>
   </g>
   <g id="matplotlib.axis_2">
    <g id="ytick_1">
     <g id="line2d_7">
      <defs>
       <path d="M 0 0 
L -3.5 0 
" id="m33b9249e73" style="stroke:#000000;stroke-width:0.8;"/>
      </defs>
      <g>
       <use style="stroke:#000000;stroke-width:0.8;" x="144" xlink:href="#m33b9249e73" y="301.346553"/>
      </g>
     </g>
     <g id="text_7">
      <!-- −0.8 -->
      <g transform="translate(112.717187 305.145772)scale(0.1 -0.1)">
       <defs>
        <path d="M 10.59375 35.5 
L 73.1875 35.5 
L 73.1875 27.203125 
L 10.59375 27.203125 
z
" id="DejaVuSans-8722"/>
        <path d="M 10.6875 12.40625 
L 21 12.40625 
L 21 0 
L 10.6875 0 
z
" id="DejaVuSans-46"/>
       </defs>
       <use xlink:href="#DejaVuSans-8722"/>
       <use x="83.789062" xlink:href="#DejaVuSans-48"/>
       <use x="147.412109" xlink:href="#DejaVuSans-46"/>
       <use x="179.199219" xlink:href="#DejaVuSans-56"/>
      </g>
     </g>
    </g>
    <g id="ytick_2">
     <g id="line2d_8">
      <g>
       <use style="stroke:#000000;stroke-width:0.8;" x="144" xlink:href="#m33b9249e73" y="269.581873"/>
      </g>
     </g>
     <g id="text_8">
      <!-- −0.6 -->
      <g transform="translate(112.717187 273.381092)scale(0.1 -0.1)">
       <use xlink:href="#DejaVuSans-8722"/>
       <use x="83.789062" xlink:href="#DejaVuSans-48"/>
       <use x="147.412109" xlink:href="#DejaVuSans-46"/>
       <use x="179.199219" xlink:href="#DejaVuSans-54"/>
      </g>
     </g>
    </g>
    <g id="ytick_3">
     <g id="line2d_9">
      <g>
       <use style="stroke:#000000;stroke-width:0.8;" x="144" xlink:href="#m33b9249e73" y="237.817193"/>
      </g>
     </g>
     <g id="text_9">
      <!-- −0.4 -->
      <g transform="translate(112.717187 241.616411)scale(0.1 -0.1)">
       <use xlink:href="#DejaVuSans-8722"/>
       <use x="83.789062" xlink:href="#DejaVuSans-48"/>
       <use x="147.412109" xlink:href="#DejaVuSans-46"/>
       <use x="179.199219" xlink:href="#DejaVuSans-52"/>
      </g>
     </g>
    </g>
    <g id="ytick_4">
     <g id="line2d_10">
      <g>
       <use style="stroke:#000000;stroke-width:0.8;" x="144" xlink:href="#m33b9249e73" y="206.052512"/>
      </g>
     </g>
     <g id="text_10">
      <!-- −0.2 -->
      <g transform="translate(112.717187 209.851731)scale(0.1 -0.1)">
       <use xlink:href="#DejaVuSans-8722"/>
       <use x="83.789062" xlink:href="#DejaVuSans-48"/>
       <use x="147.412109" xlink:href="#DejaVuSans-46"/>
       <use x="179.199219" xlink:href="#DejaVuSans-50"/>
      </g>
     </g>
    </g>
    <g id="ytick_5">
     <g id="line2d_11">
      <g>
       <use style="stroke:#000000;stroke-width:0.8;" x="144" xlink:href="#m33b9249e73" y="174.287832"/>
      </g>
     </g>
     <g id="text_11">
      <!-- 0.0 -->
      <g transform="translate(121.096875 178.087051)scale(0.1 -0.1)">
       <use xlink:href="#DejaVuSans-48"/>
       <use x="63.623047" xlink:href="#DejaVuSans-46"/>
       <use x="95.410156" xlink:href="#DejaVuSans-48"/>
      </g>
     </g>
    </g>
    <g id="ytick_6">
     <g id="line2d_12">
      <g>
       <use style="stroke:#000000;stroke-width:0.8;" x="144" xlink:href="#m33b9249e73" y="142.523152"/>
      </g>
     </g>
     <g id="text_12">
      <!-- 0.2 -->
      <g transform="translate(121.096875 146.322371)scale(0.1 -0.1)">
       <use xlink:href="#DejaVuSans-48"/>
       <use x="63.623047" xlink:href="#DejaVuSans-46"/>
       <use x="95.410156" xlink:href="#DejaVuSans-50"/>
      </g>
     </g>
    </g>
    <g id="ytick_7">
     <g id="line2d_13">
      <g>
       <use style="stroke:#000000;stroke-width:0.8;" x="144" xlink:href="#m33b9249e73" y="110.758471"/>
      </g>
     </g>
     <g id="text_13">
      <!-- 0.4 -->
      <g transform="translate(121.096875 114.55769)scale(0.1 -0.1)">
       <use xlink:href="#DejaVuSans-48"/>
       <use x="63.623047" xlink:href="#DejaVuSans-46"/>
       <use x="95.410156" xlink:href="#DejaVuSans-52"/>
      </g>
     </g>
    </g>
    <g id="ytick_8">
     <g id="line2d_14">
      <g>
       <use style="stroke:#000000;stroke-width:0.8;" x="144" xlink:href="#m33b9249e73" y="78.993791"/>
      </g>
     </g>
     <g id="text_14">
      <!-- 0.6 -->
      <g transform="translate(121.096875 82.79301)scale(0.1 -0.1)">
       <use xlink:href="#DejaVuSans-48"/>
       <use x="63.623047" xlink:href="#DejaVuSans-46"/>
       <use x="95.410156" xlink:href="#DejaVuSans-54"/>
      </g>
     </g>
    </g>
    <g id="ytick_9">
     <g id="line2d_15">
      <g>
       <use style="stroke:#000000;stroke-width:0.8;" x="144" xlink:href="#m33b9249e73" y="47.229111"/>
      </g>
     </g>
     <g id="text_15">
      <!-- 0.8 -->
      <g transform="translate(121.096875 51.02833)scale(0.1 -0.1)">
       <use xlink:href="#DejaVuSans-48"/>
       <use x="63.623047" xlink:href="#DejaVuSans-46"/>
       <use x="95.410156" xlink:href="#DejaVuSans-56"/>
      </g>
     </g>
    </g>
   </g>
   <g id="line2d_16">
    <path clip-path="url(#peb76a83d87)" d="M 184.581818 183.625264 
L 185.375207 184.312188 
L 186.168595 185.294119 
L 186.961983 185.099693 
L 192.515702 177.527627 
L 197.276033 170.618496 
L 205.209917 158.624356 
L 213.93719 145.497878 
L 219.490909 137.522939 
L 224.25124 131.037914 
L 229.01157 124.926449 
L 233.771901 119.21492 
L 237.738843 114.769029 
L 241.705785 110.608141 
L 245.672727 106.726972 
L 249.639669 103.116472 
L 253.606612 99.764889 
L 257.573554 96.65859 
L 262.333884 93.234091 
L 267.094215 90.115448 
L 271.854545 87.276638 
L 276.614876 84.692556 
L 281.375207 82.33961 
L 286.928926 79.857445 
L 292.482645 77.628465 
L 298.036364 75.624279 
L 304.383471 73.576963 
L 310.730579 71.757717 
L 317.871074 69.948458 
L 325.804959 68.192761 
L 333.738843 66.666668 
L 342.466116 65.213609 
L 351.986777 63.856636 
L 362.300826 62.611616 
L 373.408264 61.48809 
L 386.102479 60.430177 
L 400.383471 59.472497 
L 416.25124 58.636661 
L 434.499174 57.905034 
L 455.920661 57.28107 
L 481.309091 56.77775 
L 512.25124 56.398915 
L 552.71405 56.142938 
L 611.424793 56.017969 
L 772.482645 56.004024 
L 921.639669 55.841445 
L 993.838017 55.682917 
L 996.218182 56.665371 
L 996.218182 56.665371 
" style="fill:none;stroke:#1f77b4;stroke-linecap:square;stroke-width:1.5;"/>
   </g>
   <g id="line2d_17">
    <path clip-path="url(#peb76a83d87)" d="M 184.581818 170.382934 
L 185.375207 170.801252 
L 186.168595 170.553149 
L 186.961983 170.651402 
L 194.102479 169.096374 
L 201.242975 167.864792 
L 217.110744 165.211646 
L 225.838017 163.474272 
L 239.32562 160.516037 
L 253.606612 157.442227 
L 263.920661 155.4531 
L 273.441322 153.835145 
L 283.755372 152.30956 
L 294.86281 150.889182 
L 308.350413 149.391429 
L 327.391736 147.518006 
L 382.135537 142.240689 
L 409.110744 139.346525 
L 440.052893 135.789616 
L 488.449587 129.962881 
L 548.747107 122.75265 
L 587.62314 118.336565 
L 622.532231 114.591043 
L 656.647934 111.151931 
L 690.763636 107.936885 
L 724.879339 104.942946 
L 759.78843 102.099706 
L 796.284298 99.352717 
L 833.573554 96.768157 
L 872.449587 94.29419 
L 913.705785 91.893789 
L 957.342149 89.583064 
L 993.044628 87.850324 
L 993.838017 87.863378 
L 996.218182 89.557041 
L 996.218182 89.557041 
" style="fill:none;stroke:#ff7f0e;stroke-linecap:square;stroke-width:1.5;"/>
   </g>
   <g id="line2d_18">
    <path clip-path="url(#peb76a83d87)" d="M 184.581818 201.819472 
L 185.375207 200.836064 
L 186.168595 199.01961 
L 186.961983 196.823732 
L 187.755372 195.607566 
L 194.895868 181.300784 
L 202.036364 167.108509 
L 206.003306 159.660805 
L 209.970248 152.7081 
L 213.143802 147.558007 
L 216.317355 142.791684 
L 219.490909 138.404773 
L 222.664463 134.379609 
L 225.838017 130.690584 
L 229.01157 127.308585 
L 232.185124 124.204023 
L 236.152066 120.670752 
L 240.119008 117.477285 
L 244.08595 114.580317 
L 248.052893 111.942758 
L 252.813223 109.075993 
L 257.573554 106.491603 
L 262.333884 104.151376 
L 267.887603 101.68716 
L 273.441322 99.469109 
L 279.78843 97.190458 
L 286.135537 95.143521 
L 293.276033 93.073329 
L 301.209917 91.013829 
L 309.93719 88.989243 
L 319.457851 87.01517 
L 329.771901 85.100604 
L 341.672727 83.124885 
L 355.160331 81.128206 
L 369.441322 79.239702 
L 385.309091 77.361601 
L 403.557025 75.4356 
L 423.391736 73.575117 
L 444.813223 71.791201 
L 468.614876 70.037539 
L 494.796694 68.340043 
L 523.358678 66.71845 
L 554.300826 65.186676 
L 588.416529 63.721642 
L 626.499174 62.313342 
L 668.54876 60.983766 
L 716.152066 59.70671 
L 770.102479 58.489569 
L 831.193388 57.338968 
L 901.804959 56.236013 
L 984.317355 55.173556 
L 994.631405 55.131894 
L 996.218182 55.336401 
L 996.218182 55.336401 
" style="fill:none;stroke:#2ca02c;stroke-linecap:square;stroke-width:1.5;"/>
   </g>
   <g id="line2d_19">
    <path clip-path="url(#peb76a83d87)" d="M 184.581818 185.479561 
L 185.375207 184.730679 
L 186.168595 184.488742 
L 186.961983 184.639579 
L 187.755372 185.540961 
L 203.62314 197.537274 
L 208.383471 200.76386 
L 212.350413 203.21305 
L 216.317355 205.419589 
L 220.284298 207.373553 
L 224.25124 209.075354 
L 228.218182 210.533212 
L 232.185124 211.760669 
L 236.152066 212.774631 
L 240.912397 213.735675 
L 245.672727 214.4486 
L 250.433058 214.944954 
L 255.986777 215.289278 
L 261.540496 215.420448 
L 267.887603 215.356037 
L 275.028099 215.065634 
L 283.755372 214.474279 
L 294.069421 213.542842 
L 308.350413 212.013508 
L 357.540496 206.565423 
L 375.78843 204.864235 
L 393.242975 203.457165 
L 411.490909 202.205956 
L 431.32562 201.073534 
L 452.747107 200.076172 
L 477.342149 199.163723 
L 505.110744 198.361721 
L 538.433058 197.627159 
L 580.482645 196.93067 
L 639.193388 196.195485 
L 747.094215 195.107644 
L 993.838017 192.665304 
L 995.424793 193.381944 
L 996.218182 193.530031 
L 996.218182 193.530031 
" style="fill:none;stroke:#d62728;stroke-linecap:square;stroke-width:1.5;"/>
   </g>
   <g id="line2d_20">
    <path clip-path="url(#peb76a83d87)" d="M 184.581818 177.016178 
L 185.375207 177.299396 
L 186.168595 176.557966 
L 186.961983 175.05463 
L 187.755372 173.267267 
L 198.069421 145.772185 
L 202.036364 135.966474 
L 205.209917 128.693905 
L 208.383471 122.014306 
L 211.557025 115.967919 
L 213.93719 111.8546 
L 216.317355 108.09617 
L 218.697521 104.679892 
L 221.077686 101.588404 
L 223.457851 98.801344 
L 225.838017 96.29671 
L 228.218182 94.051921 
L 230.598347 92.044611 
L 233.771901 89.700337 
L 236.945455 87.691862 
L 240.119008 85.975547 
L 243.292562 84.512396 
L 246.466116 83.26802 
L 250.433058 81.974701 
L 254.4 80.926169 
L 259.160331 79.932459 
L 263.920661 79.171798 
L 269.47438 78.516149 
L 275.821488 78.001118 
L 282.961983 77.64152 
L 291.689256 77.421667 
L 303.590083 77.365644 
L 321.044628 77.538589 
L 398.796694 78.556316 
L 436.08595 78.702168 
L 479.722314 78.64108 
L 535.259504 78.329411 
L 615.391736 77.636862 
L 886.730579 75.137601 
L 993.838017 74.394519 
L 996.218182 73.813894 
L 996.218182 73.813894 
" style="fill:none;stroke:#9467bd;stroke-linecap:square;stroke-width:1.5;"/>
   </g>
   <g id="line2d_21">
    <path clip-path="url(#peb76a83d87)" d="M 184.581818 177.898736 
L 185.375207 178.118154 
L 186.168595 177.034445 
L 186.961983 175.748158 
L 187.755372 173.525752 
L 193.309091 162.705717 
L 197.276033 155.410357 
L 201.242975 148.631471 
L 204.416529 143.64947 
L 207.590083 139.09726 
L 210.763636 134.992175 
L 213.93719 131.336434 
L 217.110744 128.119523 
L 219.490909 125.982866 
L 221.871074 124.070596 
L 225.044628 121.847769 
L 228.218182 119.968632 
L 231.391736 118.399641 
L 234.565289 117.107638 
L 237.738843 116.060815 
L 240.912397 115.229343 
L 244.879339 114.45124 
L 248.846281 113.918691 
L 253.606612 113.544883 
L 258.366942 113.402363 
L 263.920661 113.460521 
L 270.267769 113.743809 
L 278.995041 114.381353 
L 291.689256 115.573071 
L 325.01157 118.795989 
L 340.879339 120.05581 
L 356.747107 121.085702 
L 373.408264 121.932765 
L 390.86281 122.592943 
L 409.904132 123.08986 
L 431.32562 123.423657 
L 455.920661 123.578895 
L 484.482645 123.533077 
L 519.391736 123.247521 
L 564.614876 122.639538 
L 628.879339 121.532143 
L 867.689256 117.236454 
L 952.581818 116.029031 
L 993.838017 115.512793 
L 994.631405 115.602039 
L 996.218182 116.427864 
L 996.218182 116.427864 
" style="fill:none;stroke:#8c564b;stroke-linecap:square;stroke-width:1.5;"/>
   </g>
   <g id="line2d_22">
    <path clip-path="url(#peb76a83d87)" d="M 184.581818 172.67758 
L 185.375207 171.688189 
L 186.168595 171.786141 
L 186.961983 172.647751 
L 195.689256 173.695369 
L 206.003306 174.944839 
L 213.143802 176.047273 
L 218.697521 177.110989 
L 224.25124 178.392125 
L 229.804959 179.898651 
L 236.152066 181.866466 
L 244.08595 184.5888 
L 267.887603 192.946045 
L 275.821488 195.405303 
L 282.961983 197.400919 
L 290.102479 199.18316 
L 298.036364 200.920373 
L 305.970248 202.419641 
L 314.697521 203.822494 
L 323.424793 205.000114 
L 332.945455 206.066336 
L 344.052893 207.071759 
L 355.953719 207.919551 
L 369.441322 208.656335 
L 385.309091 209.291928 
L 403.557025 209.795649 
L 425.771901 210.175878 
L 452.747107 210.400802 
L 485.276033 210.441088 
L 525.738843 210.262431 
L 578.895868 209.790869 
L 653.47438 208.888222 
L 964.482645 204.905443 
L 993.838017 204.670941 
L 996.218182 205.244526 
L 996.218182 205.244526 
" style="fill:none;stroke:#e377c2;stroke-linecap:square;stroke-width:1.5;"/>
   </g>
   <g id="line2d_23">
    <path clip-path="url(#peb76a83d87)" d="M 184.581818 160.984984 
L 185.375207 161.134698 
L 186.961983 158.880908 
L 191.722314 148.394018 
L 195.689256 140.147192 
L 199.656198 132.451932 
L 202.829752 126.729001 
L 206.003306 121.40086 
L 209.17686 116.464821 
L 212.350413 111.911902 
L 215.523967 107.729566 
L 218.697521 103.902991 
L 221.871074 100.415307 
L 225.044628 97.247873 
L 228.218182 94.380393 
L 231.391736 91.79136 
L 234.565289 89.458654 
L 237.738843 87.360067 
L 241.705785 85.033145 
L 245.672727 82.997956 
L 249.639669 81.217305 
L 253.606612 79.657643 
L 258.366942 78.035785 
L 263.127273 76.64425 
L 268.680992 75.261358 
L 275.028099 73.937566 
L 282.168595 72.704927 
L 290.102479 71.577899 
L 299.62314 70.473022 
L 310.730579 69.424585 
L 324.218182 68.385369 
L 340.879339 67.329293 
L 362.300826 66.201715 
L 389.276033 65.011979 
L 422.598347 63.771172 
L 463.854545 62.465148 
L 515.424793 61.063721 
L 578.102479 59.587024 
L 648.71405 58.144747 
L 724.879339 56.81626 
L 803.424793 55.671424 
L 887.523967 54.671466 
L 978.763636 53.81097 
L 996.218182 53.568 
L 996.218182 53.568 
" style="fill:none;stroke:#7f7f7f;stroke-linecap:square;stroke-width:1.5;"/>
   </g>
   <g id="line2d_24">
    <path clip-path="url(#peb76a83d87)" d="M 184.581818 189.249992 
L 185.375207 189.067957 
L 186.168595 189.082779 
L 186.961983 188.664626 
L 187.755372 189.529542 
L 192.515702 193.60308 
L 202.829752 202.649931 
L 206.796694 205.751157 
L 209.970248 207.952069 
L 213.143802 209.870149 
L 216.317355 211.494674 
L 219.490909 212.830484 
L 222.664463 213.893405 
L 225.838017 214.706059 
L 229.01157 215.294371 
L 232.185124 215.685219 
L 236.152066 215.935924 
L 240.119008 215.966629 
L 244.879339 215.772544 
L 250.433058 215.306399 
L 257.573554 214.450186 
L 267.094215 213.059898 
L 302.796694 207.65003 
L 318.664463 205.579099 
L 336.119008 203.533192 
L 357.540496 201.257946 
L 383.722314 198.709188 
L 413.871074 196.000393 
L 444.813223 193.443163 
L 475.755372 191.113174 
L 505.904132 189.063861 
L 536.846281 187.182081 
L 569.375207 185.431521 
L 602.697521 183.859038 
L 638.4 182.394544 
L 677.276033 181.024763 
L 720.119008 179.745199 
L 766.928926 178.575121 
L 818.499174 177.508443 
L 878.003306 176.505206 
L 947.028099 175.573233 
L 993.838017 174.962218 
L 995.424793 175.338211 
L 996.218182 175.253947 
L 996.218182 175.253947 
" style="fill:none;stroke:#bcbd22;stroke-linecap:square;stroke-width:1.5;"/>
   </g>
   <g id="line2d_25">
    <path clip-path="url(#peb76a83d87)" d="M 184.581818 173.599783 
L 186.961983 176.138304 
L 187.755372 176.24273 
L 194.102479 179.014722 
L 199.656198 181.665105 
L 205.209917 184.579409 
L 210.763636 187.766524 
L 217.110744 191.691213 
L 226.631405 197.892428 
L 236.945455 204.56177 
L 243.292562 208.432985 
L 249.639669 212.03322 
L 255.193388 214.927081 
L 260.747107 217.56793 
L 266.300826 219.954444 
L 271.854545 222.0936 
L 277.408264 223.997804 
L 282.961983 225.682871 
L 289.309091 227.362816 
L 295.656198 228.806318 
L 302.796694 230.180321 
L 309.93719 231.32332 
L 317.871074 232.360899 
L 326.598347 233.263374 
L 336.119008 234.011559 
L 346.433058 234.595521 
L 358.333884 235.035898 
L 371.821488 235.299136 
L 386.895868 235.367045 
L 404.350413 235.222291 
L 424.978512 234.823685 
L 449.573554 234.11509 
L 478.135537 233.06326 
L 512.25124 231.576523 
L 552.71405 229.584478 
L 603.490909 226.851335 
L 674.895868 222.764272 
L 865.309091 211.769182 
L 940.680992 207.699774 
L 993.838017 205.027693 
L 994.631405 205.098863 
L 995.424793 204.659908 
L 996.218182 204.357956 
L 996.218182 204.357956 
" style="fill:none;stroke:#17becf;stroke-linecap:square;stroke-width:1.5;"/>
   </g>
   <g id="line2d_26">
    <path clip-path="url(#peb76a83d87)" d="M 184.581818 174.973335 
L 186.168595 175.161263 
L 188.54876 175.065828 
L 198.069421 175.798686 
L 202.036364 175.878047 
L 206.003306 175.70661 
L 209.17686 175.355886 
L 212.350413 174.802458 
L 215.523967 174.046002 
L 218.697521 173.095093 
L 222.664463 171.656519 
L 226.631405 169.976712 
L 231.391736 167.703903 
L 236.945455 164.793963 
L 244.879339 160.363961 
L 260.747107 151.456687 
L 267.887603 147.710379 
L 275.028099 144.224273 
L 281.375207 141.369742 
L 287.722314 138.754462 
L 294.069421 136.378032 
L 300.416529 134.23389 
L 306.763636 132.31132 
L 313.904132 130.396878 
L 321.044628 128.72558 
L 328.185124 127.276237 
L 336.119008 125.900781 
L 344.052893 124.746342 
L 352.780165 123.701625 
L 362.300826 122.79631 
L 372.614876 122.052007 
L 383.722314 121.482164 
L 395.62314 121.092584 
L 409.110744 120.874975 
L 424.185124 120.85369 
L 441.639669 121.050524 
L 463.061157 121.523334 
L 490.036364 122.351412 
L 530.499174 123.839421 
L 644.747107 128.13794 
L 697.904132 129.858947 
L 750.267769 131.329751 
L 804.218182 132.621546 
L 861.342149 133.766258 
L 924.019835 134.794621 
L 993.044628 135.699371 
L 993.838017 135.681209 
L 994.631405 135.517089 
L 996.218182 135.588948 
L 996.218182 135.588948 
" style="fill:none;stroke:#1f77b4;stroke-linecap:square;stroke-width:1.5;"/>
   </g>
   <g id="line2d_27">
    <path clip-path="url(#peb76a83d87)" d="M 184.581818 175.540298 
L 185.375207 175.374315 
L 186.168595 175.670842 
L 186.961983 175.614206 
L 196.482645 178.283532 
L 202.036364 180.246591 
L 213.93719 184.56788 
L 218.697521 186.035789 
L 223.457851 187.245564 
L 227.424793 188.035226 
L 231.391736 188.622652 
L 235.358678 189.014011 
L 240.119008 189.242171 
L 244.879339 189.233065 
L 249.639669 189.017119 
L 255.193388 188.5442 
L 261.540496 187.766914 
L 268.680992 186.659661 
L 277.408264 185.065483 
L 288.515702 182.788932 
L 305.17686 179.109848 
L 351.193388 168.839963 
L 371.028099 164.692951 
L 390.069421 160.939577 
L 409.110744 157.419258 
L 428.152066 154.129748 
L 447.193388 151.062137 
L 467.028099 148.089408 
L 487.656198 145.222437 
L 509.077686 142.469061 
L 531.292562 139.834808 
L 555.094215 137.240398 
L 579.689256 134.78479 
L 605.871074 132.398702 
L 632.846281 130.162475 
L 661.408264 128.016152 
L 691.557025 125.972656 
L 723.292562 124.04212 
L 757.408264 122.191478 
L 793.904132 120.43989 
L 832.780165 118.802033 
L 874.036364 117.288317 
L 918.466116 115.881583 
L 966.86281 114.574841 
L 995.424793 113.766685 
L 996.218182 113.471819 
L 996.218182 113.471819 
" style="fill:none;stroke:#ff7f0e;stroke-linecap:square;stroke-width:1.5;"/>
   </g>
   <g id="line2d_28">
    <path clip-path="url(#peb76a83d87)" d="M 184.581818 203.593335 
L 185.375207 204.022973 
L 194.102479 222.818676 
L 197.276033 228.963899 
L 200.449587 234.647549 
L 203.62314 239.9031 
L 206.796694 244.766965 
L 209.970248 249.272514 
L 213.143802 253.447257 
L 216.317355 257.312674 
L 219.490909 260.885771 
L 222.664463 264.180966 
L 225.838017 267.211768 
L 229.01157 269.991895 
L 232.978512 273.136353 
L 236.945455 275.940619 
L 240.912397 278.434466 
L 244.879339 280.647248 
L 248.846281 282.607206 
L 252.813223 284.340704 
L 257.573554 286.155946 
L 262.333884 287.717473 
L 267.094215 289.058315 
L 272.647934 290.381766 
L 278.201653 291.482837 
L 284.54876 292.510769 
L 291.689256 293.421628 
L 299.62314 294.183472 
L 308.350413 294.776215 
L 317.871074 295.190322 
L 328.978512 295.435422 
L 341.672727 295.478647 
L 356.747107 295.292363 
L 374.995041 294.830544 
L 398.003306 294.017021 
L 431.32562 292.5979 
L 513.044628 288.805727 
L 587.62314 285.470809 
L 655.854545 282.64317 
L 724.08595 280.037892 
L 793.904132 277.594493 
L 866.102479 275.291475 
L 940.680992 273.134053 
L 994.631405 271.611755 
L 996.218182 270.921175 
L 996.218182 270.921175 
" style="fill:none;stroke:#2ca02c;stroke-linecap:square;stroke-width:1.5;"/>
   </g>
   <g id="line2d_29">
    <path clip-path="url(#peb76a83d87)" d="M 184.581818 173.71718 
L 185.375207 172.929186 
L 186.168595 172.855371 
L 186.961983 171.875475 
L 187.755372 171.423619 
L 191.722314 171.594053 
L 195.689256 172.029189 
L 199.656198 172.718939 
L 203.62314 173.632798 
L 208.383471 174.963562 
L 214.730579 177.002696 
L 225.838017 180.87216 
L 239.32562 185.502352 
L 248.846281 188.518124 
L 256.780165 190.812105 
L 264.71405 192.883868 
L 272.647934 194.724869 
L 280.581818 196.336493 
L 288.515702 197.727697 
L 297.242975 199.020275 
L 305.970248 200.085619 
L 315.490909 201.016807 
L 325.804959 201.787962 
L 336.912397 202.382272 
L 348.813223 202.791461 
L 362.300826 203.022451 
L 377.375207 203.04803 
L 394.829752 202.843549 
L 415.457851 202.368398 
L 441.639669 201.528064 
L 480.515702 200.029388 
L 582.069421 196.032492 
L 629.672727 194.428545 
L 676.482645 193.073657 
L 724.08595 191.917082 
L 774.069421 190.924773 
L 827.226446 190.093098 
L 884.350413 189.42379 
L 946.234711 188.922564 
L 993.838017 188.719492 
L 994.631405 188.300851 
L 996.218182 187.891884 
L 996.218182 187.891884 
" style="fill:none;stroke:#d62728;stroke-linecap:square;stroke-width:1.5;"/>
   </g>
   <g id="line2d_30">
    <path clip-path="url(#peb76a83d87)" d="M 184.581818 192.389148 
L 185.375207 190.255235 
L 186.168595 189.816946 
L 186.961983 188.648704 
L 189.342149 186.001173 
L 195.689256 178.874626 
L 211.557025 160.808905 
L 217.110744 154.943459 
L 222.664463 149.409982 
L 228.218182 144.173747 
L 234.565289 138.500156 
L 240.912397 133.12108 
L 247.259504 128.025269 
L 253.606612 123.218232 
L 259.953719 118.710283 
L 265.507438 115.017187 
L 271.061157 111.560018 
L 276.614876 108.335936 
L 282.168595 105.33857 
L 288.515702 102.178861 
L 294.86281 99.286574 
L 301.209917 96.643032 
L 307.557025 94.228748 
L 314.697521 91.762392 
L 321.838017 89.534747 
L 329.771901 87.308976 
L 337.705785 85.315317 
L 346.433058 83.356646 
L 355.953719 81.462282 
L 366.267769 79.653743 
L 377.375207 77.945246 
L 389.276033 76.344385 
L 402.763636 74.76668 
L 417.044628 73.319292 
L 433.705785 71.862986 
L 451.953719 70.49489 
L 473.375207 69.1235 
L 497.17686 67.826934 
L 524.945455 66.541973 
L 557.47438 65.269367 
L 594.763636 64.039531 
L 637.606612 62.851187 
L 687.590083 61.692635 
L 744.71405 60.596363 
L 810.565289 59.562486 
L 885.93719 58.609426 
L 973.209917 57.737125 
L 993.838017 57.545227 
L 996.218182 56.908417 
L 996.218182 56.908417 
" style="fill:none;stroke:#9467bd;stroke-linecap:square;stroke-width:1.5;"/>
   </g>
   <g id="line2d_31">
    <path clip-path="url(#peb76a83d87)" d="M 184.581818 179.818696 
L 185.375207 180.10884 
L 186.168595 181.091427 
L 187.755372 181.928676 
L 194.895868 184.055712 
L 199.656198 185.276059 
L 204.416529 186.258947 
L 208.383471 186.866293 
L 212.350413 187.27764 
L 217.110744 187.535754 
L 222.664463 187.575588 
L 229.01157 187.384608 
L 238.532231 186.847857 
L 266.300826 184.924907 
L 288.515702 183.527516 
L 306.763636 182.601162 
L 323.424793 181.979211 
L 339.292562 181.602366 
L 355.953719 181.431265 
L 373.408264 181.482114 
L 391.656198 181.757754 
L 412.284298 182.298377 
L 435.292562 183.126409 
L 463.854545 184.390017 
L 501.93719 186.319188 
L 676.482645 195.44843 
L 728.052893 197.776788 
L 778.829752 199.846834 
L 830.4 201.72677 
L 883.557025 203.441974 
L 939.094215 205.01061 
L 993.838017 206.380145 
L 996.218182 205.142587 
L 996.218182 205.142587 
" style="fill:none;stroke:#8c564b;stroke-linecap:square;stroke-width:1.5;"/>
   </g>
   <g id="patch_3">
    <path d="M 144 307.584 
L 144 41.472 
" style="fill:none;stroke:#000000;stroke-linecap:square;stroke-linejoin:miter;stroke-width:0.8;"/>
   </g>
   <g id="patch_4">
    <path d="M 1036.8 307.584 
L 1036.8 41.472 
" style="fill:none;stroke:#000000;stroke-linecap:square;stroke-linejoin:miter;stroke-width:0.8;"/>
   </g>
   <g id="patch_5">
    <path d="M 144 307.584 
L 1036.8 307.584 
" style="fill:none;stroke:#000000;stroke-linecap:square;stroke-linejoin:miter;stroke-width:0.8;"/>
   </g>
   <g id="patch_6">
    <path d="M 144 41.472 
L 1036.8 41.472 
" style="fill:none;stroke:#000000;stroke-linecap:square;stroke-linejoin:miter;stroke-width:0.8;"/>
   </g>
   <g id="text_16">
    <!-- 1th layer's shape: torch.Size([1, 32, 1024]). Uniformly sampling 16 channels -->
    <g transform="translate(360.85125 35.472)scale(0.12 -0.12)">
     <defs>
      <path d="M 18.3125 70.21875 
L 18.3125 54.6875 
L 36.8125 54.6875 
L 36.8125 47.703125 
L 18.3125 47.703125 
L 18.3125 18.015625 
Q 18.3125 11.328125 20.140625 9.421875 
Q 21.96875 7.515625 27.59375 7.515625 
L 36.8125 7.515625 
L 36.8125 0 
L 27.59375 0 
Q 17.1875 0 13.234375 3.875 
Q 9.28125 7.765625 9.28125 18.015625 
L 9.28125 47.703125 
L 2.6875 47.703125 
L 2.6875 54.6875 
L 9.28125 54.6875 
L 9.28125 70.21875 
z
" id="DejaVuSans-116"/>
      <path d="M 54.890625 33.015625 
L 54.890625 0 
L 45.90625 0 
L 45.90625 32.71875 
Q 45.90625 40.484375 42.875 44.328125 
Q 39.84375 48.1875 33.796875 48.1875 
Q 26.515625 48.1875 22.3125 43.546875 
Q 18.109375 38.921875 18.109375 30.90625 
L 18.109375 0 
L 9.078125 0 
L 9.078125 75.984375 
L 18.109375 75.984375 
L 18.109375 46.1875 
Q 21.34375 51.125 25.703125 53.5625 
Q 30.078125 56 35.796875 56 
Q 45.21875 56 50.046875 50.171875 
Q 54.890625 44.34375 54.890625 33.015625 
z
" id="DejaVuSans-104"/>
      <path id="DejaVuSans-32"/>
      <path d="M 9.421875 75.984375 
L 18.40625 75.984375 
L 18.40625 0 
L 9.421875 0 
z
" id="DejaVuSans-108"/>
      <path d="M 34.28125 27.484375 
Q 23.390625 27.484375 19.1875 25 
Q 14.984375 22.515625 14.984375 16.5 
Q 14.984375 11.71875 18.140625 8.90625 
Q 21.296875 6.109375 26.703125 6.109375 
Q 34.1875 6.109375 38.703125 11.40625 
Q 43.21875 16.703125 43.21875 25.484375 
L 43.21875 27.484375 
z
M 52.203125 31.203125 
L 52.203125 0 
L 43.21875 0 
L 43.21875 8.296875 
Q 40.140625 3.328125 35.546875 0.953125 
Q 30.953125 -1.421875 24.3125 -1.421875 
Q 15.921875 -1.421875 10.953125 3.296875 
Q 6 8.015625 6 15.921875 
Q 6 25.140625 12.171875 29.828125 
Q 18.359375 34.515625 30.609375 34.515625 
L 43.21875 34.515625 
L 43.21875 35.40625 
Q 43.21875 41.609375 39.140625 45 
Q 35.0625 48.390625 27.6875 48.390625 
Q 23 48.390625 18.546875 47.265625 
Q 14.109375 46.140625 10.015625 43.890625 
L 10.015625 52.203125 
Q 14.9375 54.109375 19.578125 55.046875 
Q 24.21875 56 28.609375 56 
Q 40.484375 56 46.34375 49.84375 
Q 52.203125 43.703125 52.203125 31.203125 
z
" id="DejaVuSans-97"/>
      <path d="M 32.171875 -5.078125 
Q 28.375 -14.84375 24.75 -17.8125 
Q 21.140625 -20.796875 15.09375 -20.796875 
L 7.90625 -20.796875 
L 7.90625 -13.28125 
L 13.1875 -13.28125 
Q 16.890625 -13.28125 18.9375 -11.515625 
Q 21 -9.765625 23.484375 -3.21875 
L 25.09375 0.875 
L 2.984375 54.6875 
L 12.5 54.6875 
L 29.59375 11.921875 
L 46.6875 54.6875 
L 56.203125 54.6875 
z
" id="DejaVuSans-121"/>
      <path d="M 56.203125 29.59375 
L 56.203125 25.203125 
L 14.890625 25.203125 
Q 15.484375 15.921875 20.484375 11.0625 
Q 25.484375 6.203125 34.421875 6.203125 
Q 39.59375 6.203125 44.453125 7.46875 
Q 49.3125 8.734375 54.109375 11.28125 
L 54.109375 2.78125 
Q 49.265625 0.734375 44.1875 -0.34375 
Q 39.109375 -1.421875 33.890625 -1.421875 
Q 20.796875 -1.421875 13.15625 6.1875 
Q 5.515625 13.8125 5.515625 26.8125 
Q 5.515625 40.234375 12.765625 48.109375 
Q 20.015625 56 32.328125 56 
Q 43.359375 56 49.78125 48.890625 
Q 56.203125 41.796875 56.203125 29.59375 
z
M 47.21875 32.234375 
Q 47.125 39.59375 43.09375 43.984375 
Q 39.0625 48.390625 32.421875 48.390625 
Q 24.90625 48.390625 20.390625 44.140625 
Q 15.875 39.890625 15.1875 32.171875 
z
" id="DejaVuSans-101"/>
      <path d="M 41.109375 46.296875 
Q 39.59375 47.171875 37.8125 47.578125 
Q 36.03125 48 33.890625 48 
Q 26.265625 48 22.1875 43.046875 
Q 18.109375 38.09375 18.109375 28.8125 
L 18.109375 0 
L 9.078125 0 
L 9.078125 54.6875 
L 18.109375 54.6875 
L 18.109375 46.1875 
Q 20.953125 51.171875 25.484375 53.578125 
Q 30.03125 56 36.53125 56 
Q 37.453125 56 38.578125 55.875 
Q 39.703125 55.765625 41.0625 55.515625 
z
" id="DejaVuSans-114"/>
      <path d="M 17.921875 72.90625 
L 17.921875 45.796875 
L 9.625 45.796875 
L 9.625 72.90625 
z
" id="DejaVuSans-39"/>
      <path d="M 44.28125 53.078125 
L 44.28125 44.578125 
Q 40.484375 46.53125 36.375 47.5 
Q 32.28125 48.484375 27.875 48.484375 
Q 21.1875 48.484375 17.84375 46.4375 
Q 14.5 44.390625 14.5 40.28125 
Q 14.5 37.15625 16.890625 35.375 
Q 19.28125 33.59375 26.515625 31.984375 
L 29.59375 31.296875 
Q 39.15625 29.25 43.1875 25.515625 
Q 47.21875 21.78125 47.21875 15.09375 
Q 47.21875 7.46875 41.1875 3.015625 
Q 35.15625 -1.421875 24.609375 -1.421875 
Q 20.21875 -1.421875 15.453125 -0.5625 
Q 10.6875 0.296875 5.421875 2 
L 5.421875 11.28125 
Q 10.40625 8.6875 15.234375 7.390625 
Q 20.0625 6.109375 24.8125 6.109375 
Q 31.15625 6.109375 34.5625 8.28125 
Q 37.984375 10.453125 37.984375 14.40625 
Q 37.984375 18.0625 35.515625 20.015625 
Q 33.0625 21.96875 24.703125 23.78125 
L 21.578125 24.515625 
Q 13.234375 26.265625 9.515625 29.90625 
Q 5.8125 33.546875 5.8125 39.890625 
Q 5.8125 47.609375 11.28125 51.796875 
Q 16.75 56 26.8125 56 
Q 31.78125 56 36.171875 55.265625 
Q 40.578125 54.546875 44.28125 53.078125 
z
" id="DejaVuSans-115"/>
      <path d="M 18.109375 8.203125 
L 18.109375 -20.796875 
L 9.078125 -20.796875 
L 9.078125 54.6875 
L 18.109375 54.6875 
L 18.109375 46.390625 
Q 20.953125 51.265625 25.265625 53.625 
Q 29.59375 56 35.59375 56 
Q 45.5625 56 51.78125 48.09375 
Q 58.015625 40.1875 58.015625 27.296875 
Q 58.015625 14.40625 51.78125 6.484375 
Q 45.5625 -1.421875 35.59375 -1.421875 
Q 29.59375 -1.421875 25.265625 0.953125 
Q 20.953125 3.328125 18.109375 8.203125 
z
M 48.6875 27.296875 
Q 48.6875 37.203125 44.609375 42.84375 
Q 40.53125 48.484375 33.40625 48.484375 
Q 26.265625 48.484375 22.1875 42.84375 
Q 18.109375 37.203125 18.109375 27.296875 
Q 18.109375 17.390625 22.1875 11.75 
Q 26.265625 6.109375 33.40625 6.109375 
Q 40.53125 6.109375 44.609375 11.75 
Q 48.6875 17.390625 48.6875 27.296875 
z
" id="DejaVuSans-112"/>
      <path d="M 11.71875 12.40625 
L 22.015625 12.40625 
L 22.015625 0 
L 11.71875 0 
z
M 11.71875 51.703125 
L 22.015625 51.703125 
L 22.015625 39.3125 
L 11.71875 39.3125 
z
" id="DejaVuSans-58"/>
      <path d="M 30.609375 48.390625 
Q 23.390625 48.390625 19.1875 42.75 
Q 14.984375 37.109375 14.984375 27.296875 
Q 14.984375 17.484375 19.15625 11.84375 
Q 23.34375 6.203125 30.609375 6.203125 
Q 37.796875 6.203125 41.984375 11.859375 
Q 46.1875 17.53125 46.1875 27.296875 
Q 46.1875 37.015625 41.984375 42.703125 
Q 37.796875 48.390625 30.609375 48.390625 
z
M 30.609375 56 
Q 42.328125 56 49.015625 48.375 
Q 55.71875 40.765625 55.71875 27.296875 
Q 55.71875 13.875 49.015625 6.21875 
Q 42.328125 -1.421875 30.609375 -1.421875 
Q 18.84375 -1.421875 12.171875 6.21875 
Q 5.515625 13.875 5.515625 27.296875 
Q 5.515625 40.765625 12.171875 48.375 
Q 18.84375 56 30.609375 56 
z
" id="DejaVuSans-111"/>
      <path d="M 48.78125 52.59375 
L 48.78125 44.1875 
Q 44.96875 46.296875 41.140625 47.34375 
Q 37.3125 48.390625 33.40625 48.390625 
Q 24.65625 48.390625 19.8125 42.84375 
Q 14.984375 37.3125 14.984375 27.296875 
Q 14.984375 17.28125 19.8125 11.734375 
Q 24.65625 6.203125 33.40625 6.203125 
Q 37.3125 6.203125 41.140625 7.25 
Q 44.96875 8.296875 48.78125 10.40625 
L 48.78125 2.09375 
Q 45.015625 0.34375 40.984375 -0.53125 
Q 36.96875 -1.421875 32.421875 -1.421875 
Q 20.0625 -1.421875 12.78125 6.34375 
Q 5.515625 14.109375 5.515625 27.296875 
Q 5.515625 40.671875 12.859375 48.328125 
Q 20.21875 56 33.015625 56 
Q 37.15625 56 41.109375 55.140625 
Q 45.0625 54.296875 48.78125 52.59375 
z
" id="DejaVuSans-99"/>
      <path d="M 53.515625 70.515625 
L 53.515625 60.890625 
Q 47.90625 63.578125 42.921875 64.890625 
Q 37.9375 66.21875 33.296875 66.21875 
Q 25.25 66.21875 20.875 63.09375 
Q 16.5 59.96875 16.5 54.203125 
Q 16.5 49.359375 19.40625 46.890625 
Q 22.3125 44.4375 30.421875 42.921875 
L 36.375 41.703125 
Q 47.40625 39.59375 52.65625 34.296875 
Q 57.90625 29 57.90625 20.125 
Q 57.90625 9.515625 50.796875 4.046875 
Q 43.703125 -1.421875 29.984375 -1.421875 
Q 24.8125 -1.421875 18.96875 -0.25 
Q 13.140625 0.921875 6.890625 3.21875 
L 6.890625 13.375 
Q 12.890625 10.015625 18.65625 8.296875 
Q 24.421875 6.59375 29.984375 6.59375 
Q 38.421875 6.59375 43.015625 9.90625 
Q 47.609375 13.234375 47.609375 19.390625 
Q 47.609375 24.75 44.3125 27.78125 
Q 41.015625 30.8125 33.5 32.328125 
L 27.484375 33.5 
Q 16.453125 35.6875 11.515625 40.375 
Q 6.59375 45.0625 6.59375 53.421875 
Q 6.59375 63.09375 13.40625 68.65625 
Q 20.21875 74.21875 32.171875 74.21875 
Q 37.3125 74.21875 42.625 73.28125 
Q 47.953125 72.359375 53.515625 70.515625 
z
" id="DejaVuSans-83"/>
      <path d="M 9.421875 54.6875 
L 18.40625 54.6875 
L 18.40625 0 
L 9.421875 0 
z
M 9.421875 75.984375 
L 18.40625 75.984375 
L 18.40625 64.59375 
L 9.421875 64.59375 
z
" id="DejaVuSans-105"/>
      <path d="M 5.515625 54.6875 
L 48.1875 54.6875 
L 48.1875 46.484375 
L 14.40625 7.171875 
L 48.1875 7.171875 
L 48.1875 0 
L 4.296875 0 
L 4.296875 8.203125 
L 38.09375 47.515625 
L 5.515625 47.515625 
z
" id="DejaVuSans-122"/>
      <path d="M 31 75.875 
Q 24.46875 64.65625 21.28125 53.65625 
Q 18.109375 42.671875 18.109375 31.390625 
Q 18.109375 20.125 21.3125 9.0625 
Q 24.515625 -2 31 -13.1875 
L 23.1875 -13.1875 
Q 15.875 -1.703125 12.234375 9.375 
Q 8.59375 20.453125 8.59375 31.390625 
Q 8.59375 42.28125 12.203125 53.3125 
Q 15.828125 64.359375 23.1875 75.875 
z
" id="DejaVuSans-40"/>
      <path d="M 8.59375 75.984375 
L 29.296875 75.984375 
L 29.296875 69 
L 17.578125 69 
L 17.578125 -6.203125 
L 29.296875 -6.203125 
L 29.296875 -13.1875 
L 8.59375 -13.1875 
z
" id="DejaVuSans-91"/>
      <path d="M 11.71875 12.40625 
L 22.015625 12.40625 
L 22.015625 4 
L 14.015625 -11.625 
L 7.71875 -11.625 
L 11.71875 4 
z
" id="DejaVuSans-44"/>
      <path d="M 40.578125 39.3125 
Q 47.65625 37.796875 51.625 33 
Q 55.609375 28.21875 55.609375 21.1875 
Q 55.609375 10.40625 48.1875 4.484375 
Q 40.765625 -1.421875 27.09375 -1.421875 
Q 22.515625 -1.421875 17.65625 -0.515625 
Q 12.796875 0.390625 7.625 2.203125 
L 7.625 11.71875 
Q 11.71875 9.328125 16.59375 8.109375 
Q 21.484375 6.890625 26.8125 6.890625 
Q 36.078125 6.890625 40.9375 10.546875 
Q 45.796875 14.203125 45.796875 21.1875 
Q 45.796875 27.640625 41.28125 31.265625 
Q 36.765625 34.90625 28.71875 34.90625 
L 20.21875 34.90625 
L 20.21875 43.015625 
L 29.109375 43.015625 
Q 36.375 43.015625 40.234375 45.921875 
Q 44.09375 48.828125 44.09375 54.296875 
Q 44.09375 59.90625 40.109375 62.90625 
Q 36.140625 65.921875 28.71875 65.921875 
Q 24.65625 65.921875 20.015625 65.03125 
Q 15.375 64.15625 9.8125 62.3125 
L 9.8125 71.09375 
Q 15.4375 72.65625 20.34375 73.4375 
Q 25.25 74.21875 29.59375 74.21875 
Q 40.828125 74.21875 47.359375 69.109375 
Q 53.90625 64.015625 53.90625 55.328125 
Q 53.90625 49.265625 50.4375 45.09375 
Q 46.96875 40.921875 40.578125 39.3125 
z
" id="DejaVuSans-51"/>
      <path d="M 30.421875 75.984375 
L 30.421875 -13.1875 
L 9.71875 -13.1875 
L 9.71875 -6.203125 
L 21.390625 -6.203125 
L 21.390625 69 
L 9.71875 69 
L 9.71875 75.984375 
z
" id="DejaVuSans-93"/>
      <path d="M 8.015625 75.875 
L 15.828125 75.875 
Q 23.140625 64.359375 26.78125 53.3125 
Q 30.421875 42.28125 30.421875 31.390625 
Q 30.421875 20.453125 26.78125 9.375 
Q 23.140625 -1.703125 15.828125 -13.1875 
L 8.015625 -13.1875 
Q 14.5 -2 17.703125 9.0625 
Q 20.90625 20.125 20.90625 31.390625 
Q 20.90625 42.671875 17.703125 53.65625 
Q 14.5 64.65625 8.015625 75.875 
z
" id="DejaVuSans-41"/>
      <path d="M 8.6875 72.90625 
L 18.609375 72.90625 
L 18.609375 28.609375 
Q 18.609375 16.890625 22.84375 11.734375 
Q 27.09375 6.59375 36.625 6.59375 
Q 46.09375 6.59375 50.34375 11.734375 
Q 54.59375 16.890625 54.59375 28.609375 
L 54.59375 72.90625 
L 64.5 72.90625 
L 64.5 27.390625 
Q 64.5 13.140625 57.4375 5.859375 
Q 50.390625 -1.421875 36.625 -1.421875 
Q 22.796875 -1.421875 15.734375 5.859375 
Q 8.6875 13.140625 8.6875 27.390625 
z
" id="DejaVuSans-85"/>
      <path d="M 54.890625 33.015625 
L 54.890625 0 
L 45.90625 0 
L 45.90625 32.71875 
Q 45.90625 40.484375 42.875 44.328125 
Q 39.84375 48.1875 33.796875 48.1875 
Q 26.515625 48.1875 22.3125 43.546875 
Q 18.109375 38.921875 18.109375 30.90625 
L 18.109375 0 
L 9.078125 0 
L 9.078125 54.6875 
L 18.109375 54.6875 
L 18.109375 46.1875 
Q 21.34375 51.125 25.703125 53.5625 
Q 30.078125 56 35.796875 56 
Q 45.21875 56 50.046875 50.171875 
Q 54.890625 44.34375 54.890625 33.015625 
z
" id="DejaVuSans-110"/>
      <path d="M 37.109375 75.984375 
L 37.109375 68.5 
L 28.515625 68.5 
Q 23.6875 68.5 21.796875 66.546875 
Q 19.921875 64.59375 19.921875 59.515625 
L 19.921875 54.6875 
L 34.71875 54.6875 
L 34.71875 47.703125 
L 19.921875 47.703125 
L 19.921875 0 
L 10.890625 0 
L 10.890625 47.703125 
L 2.296875 47.703125 
L 2.296875 54.6875 
L 10.890625 54.6875 
L 10.890625 58.5 
Q 10.890625 67.625 15.140625 71.796875 
Q 19.390625 75.984375 28.609375 75.984375 
z
" id="DejaVuSans-102"/>
      <path d="M 52 44.1875 
Q 55.375 50.25 60.0625 53.125 
Q 64.75 56 71.09375 56 
Q 79.640625 56 84.28125 50.015625 
Q 88.921875 44.046875 88.921875 33.015625 
L 88.921875 0 
L 79.890625 0 
L 79.890625 32.71875 
Q 79.890625 40.578125 77.09375 44.375 
Q 74.3125 48.1875 68.609375 48.1875 
Q 61.625 48.1875 57.5625 43.546875 
Q 53.515625 38.921875 53.515625 30.90625 
L 53.515625 0 
L 44.484375 0 
L 44.484375 32.71875 
Q 44.484375 40.625 41.703125 44.40625 
Q 38.921875 48.1875 33.109375 48.1875 
Q 26.21875 48.1875 22.15625 43.53125 
Q 18.109375 38.875 18.109375 30.90625 
L 18.109375 0 
L 9.078125 0 
L 9.078125 54.6875 
L 18.109375 54.6875 
L 18.109375 46.1875 
Q 21.1875 51.21875 25.484375 53.609375 
Q 29.78125 56 35.6875 56 
Q 41.65625 56 45.828125 52.96875 
Q 50 49.953125 52 44.1875 
z
" id="DejaVuSans-109"/>
      <path d="M 45.40625 27.984375 
Q 45.40625 37.75 41.375 43.109375 
Q 37.359375 48.484375 30.078125 48.484375 
Q 22.859375 48.484375 18.828125 43.109375 
Q 14.796875 37.75 14.796875 27.984375 
Q 14.796875 18.265625 18.828125 12.890625 
Q 22.859375 7.515625 30.078125 7.515625 
Q 37.359375 7.515625 41.375 12.890625 
Q 45.40625 18.265625 45.40625 27.984375 
z
M 54.390625 6.78125 
Q 54.390625 -7.171875 48.1875 -13.984375 
Q 42 -20.796875 29.203125 -20.796875 
Q 24.46875 -20.796875 20.265625 -20.09375 
Q 16.0625 -19.390625 12.109375 -17.921875 
L 12.109375 -9.1875 
Q 16.0625 -11.328125 19.921875 -12.34375 
Q 23.78125 -13.375 27.78125 -13.375 
Q 36.625 -13.375 41.015625 -8.765625 
Q 45.40625 -4.15625 45.40625 5.171875 
L 45.40625 9.625 
Q 42.625 4.78125 38.28125 2.390625 
Q 33.9375 0 27.875 0 
Q 17.828125 0 11.671875 7.65625 
Q 5.515625 15.328125 5.515625 27.984375 
Q 5.515625 40.671875 11.671875 48.328125 
Q 17.828125 56 27.875 56 
Q 33.9375 56 38.28125 53.609375 
Q 42.625 51.21875 45.40625 46.390625 
L 45.40625 54.6875 
L 54.390625 54.6875 
z
" id="DejaVuSans-103"/>
     </defs>
     <use xlink:href="#DejaVuSans-49"/>
     <use x="63.623047" xlink:href="#DejaVuSans-116"/>
     <use x="102.832031" xlink:href="#DejaVuSans-104"/>
     <use x="166.210938" xlink:href="#DejaVuSans-32"/>
     <use x="197.998047" xlink:href="#DejaVuSans-108"/>
     <use x="225.78125" xlink:href="#DejaVuSans-97"/>
     <use x="287.060547" xlink:href="#DejaVuSans-121"/>
     <use x="346.240234" xlink:href="#DejaVuSans-101"/>
     <use x="407.763672" xlink:href="#DejaVuSans-114"/>
     <use x="448.876953" xlink:href="#DejaVuSans-39"/>
     <use x="476.367188" xlink:href="#DejaVuSans-115"/>
     <use x="528.466797" xlink:href="#DejaVuSans-32"/>
     <use x="560.253906" xlink:href="#DejaVuSans-115"/>
     <use x="612.353516" xlink:href="#DejaVuSans-104"/>
     <use x="675.732422" xlink:href="#DejaVuSans-97"/>
     <use x="737.011719" xlink:href="#DejaVuSans-112"/>
     <use x="800.488281" xlink:href="#DejaVuSans-101"/>
     <use x="862.011719" xlink:href="#DejaVuSans-58"/>
     <use x="895.703125" xlink:href="#DejaVuSans-32"/>
     <use x="927.490234" xlink:href="#DejaVuSans-116"/>
     <use x="966.699219" xlink:href="#DejaVuSans-111"/>
     <use x="1027.880859" xlink:href="#DejaVuSans-114"/>
     <use x="1066.744141" xlink:href="#DejaVuSans-99"/>
     <use x="1121.724609" xlink:href="#DejaVuSans-104"/>
     <use x="1185.103516" xlink:href="#DejaVuSans-46"/>
     <use x="1216.890625" xlink:href="#DejaVuSans-83"/>
     <use x="1280.367188" xlink:href="#DejaVuSans-105"/>
     <use x="1308.150391" xlink:href="#DejaVuSans-122"/>
     <use x="1360.640625" xlink:href="#DejaVuSans-101"/>
     <use x="1422.164062" xlink:href="#DejaVuSans-40"/>
     <use x="1461.177734" xlink:href="#DejaVuSans-91"/>
     <use x="1500.191406" xlink:href="#DejaVuSans-49"/>
     <use x="1563.814453" xlink:href="#DejaVuSans-44"/>
     <use x="1595.601562" xlink:href="#DejaVuSans-32"/>
     <use x="1627.388672" xlink:href="#DejaVuSans-51"/>
     <use x="1691.011719" xlink:href="#DejaVuSans-50"/>
     <use x="1754.634766" xlink:href="#DejaVuSans-44"/>
     <use x="1786.421875" xlink:href="#DejaVuSans-32"/>
     <use x="1818.208984" xlink:href="#DejaVuSans-49"/>
     <use x="1881.832031" xlink:href="#DejaVuSans-48"/>
     <use x="1945.455078" xlink:href="#DejaVuSans-50"/>
     <use x="2009.078125" xlink:href="#DejaVuSans-52"/>
     <use x="2072.701172" xlink:href="#DejaVuSans-93"/>
     <use x="2111.714844" xlink:href="#DejaVuSans-41"/>
     <use x="2150.728516" xlink:href="#DejaVuSans-46"/>
     <use x="2182.515625" xlink:href="#DejaVuSans-32"/>
     <use x="2214.302734" xlink:href="#DejaVuSans-85"/>
     <use x="2287.496094" xlink:href="#DejaVuSans-110"/>
     <use x="2350.875" xlink:href="#DejaVuSans-105"/>
     <use x="2378.658203" xlink:href="#DejaVuSans-102"/>
     <use x="2413.863281" xlink:href="#DejaVuSans-111"/>
     <use x="2475.044922" xlink:href="#DejaVuSans-114"/>
     <use x="2514.408203" xlink:href="#DejaVuSans-109"/>
     <use x="2611.820312" xlink:href="#DejaVuSans-108"/>
     <use x="2639.603516" xlink:href="#DejaVuSans-121"/>
     <use x="2698.783203" xlink:href="#DejaVuSans-32"/>
     <use x="2730.570312" xlink:href="#DejaVuSans-115"/>
     <use x="2782.669922" xlink:href="#DejaVuSans-97"/>
     <use x="2843.949219" xlink:href="#DejaVuSans-109"/>
     <use x="2941.361328" xlink:href="#DejaVuSans-112"/>
     <use x="3004.837891" xlink:href="#DejaVuSans-108"/>
     <use x="3032.621094" xlink:href="#DejaVuSans-105"/>
     <use x="3060.404297" xlink:href="#DejaVuSans-110"/>
     <use x="3123.783203" xlink:href="#DejaVuSans-103"/>
     <use x="3187.259766" xlink:href="#DejaVuSans-32"/>
     <use x="3219.046875" xlink:href="#DejaVuSans-49"/>
     <use x="3282.669922" xlink:href="#DejaVuSans-54"/>
     <use x="3346.292969" xlink:href="#DejaVuSans-32"/>
     <use x="3378.080078" xlink:href="#DejaVuSans-99"/>
     <use x="3433.060547" xlink:href="#DejaVuSans-104"/>
     <use x="3496.439453" xlink:href="#DejaVuSans-97"/>
     <use x="3557.71875" xlink:href="#DejaVuSans-110"/>
     <use x="3621.097656" xlink:href="#DejaVuSans-110"/>
     <use x="3684.476562" xlink:href="#DejaVuSans-101"/>
     <use x="3746" xlink:href="#DejaVuSans-108"/>
     <use x="3773.783203" xlink:href="#DejaVuSans-115"/>
    </g>
   </g>
  </g>
 </g>
 <defs>
  <clipPath id="peb76a83d87">
   <rect height="266.112" width="892.8" x="144" y="41.472"/>
  </clipPath>
 </defs>
</svg>
