<?xml version="1.0" encoding="utf-8" standalone="no"?>
<!DOCTYPE svg PUBLIC "-//W3C//DTD SVG 1.1//EN"
  "http://www.w3.org/Graphics/SVG/1.1/DTD/svg11.dtd">
<!-- Created with matplotlib (https://matplotlib.org/) -->
<svg height="345.6pt" version="1.1" viewBox="0 0 1152 345.6" width="1152pt" xmlns="http://www.w3.org/2000/svg" xmlns:xlink="http://www.w3.org/1999/xlink">
 <metadata>
  <rdf:RDF xmlns:cc="http://creativecommons.org/ns#" xmlns:dc="http://purl.org/dc/elements/1.1/" xmlns:rdf="http://www.w3.org/1999/02/22-rdf-syntax-ns#">
   <cc:Work>
    <dc:type rdf:resource="http://purl.org/dc/dcmitype/StillImage"/>
    <dc:date>2021-12-24T07:21:36.141242</dc:date>
    <dc:format>image/svg+xml</dc:format>
    <dc:creator>
     <cc:Agent>
      <dc:title>Matplotlib v3.3.3, https://matplotlib.org/</dc:title>
     </cc:Agent>
    </dc:creator>
   </cc:Work>
  </rdf:RDF>
 </metadata>
 <defs>
  <style type="text/css">*{stroke-linecap:butt;stroke-linejoin:round;}</style>
 </defs>
 <g id="figure_1">
  <g id="patch_1">
   <path d="M 0 345.6 
L 1152 345.6 
L 1152 0 
L 0 0 
z
" style="fill:#ffffff;"/>
  </g>
  <g id="axes_1">
   <g id="patch_2">
    <path d="M 144 307.584 
L 1036.8 307.584 
L 1036.8 41.472 
L 144 41.472 
z
" style="fill:#ffffff;"/>
   </g>
   <g id="matplotlib.axis_1">
    <g id="xtick_1">
     <g id="line2d_1">
      <defs>
       <path d="M 0 0 
L 0 3.5 
" id="m04dec853bc" style="stroke:#000000;stroke-width:0.8;"/>
      </defs>
      <g>
       <use style="stroke:#000000;stroke-width:0.8;" x="184.581818" xlink:href="#m04dec853bc" y="307.584"/>
      </g>
     </g>
     <g id="text_1">
      <!-- 0 -->
      <g transform="translate(181.400568 322.182437)scale(0.1 -0.1)">
       <defs>
        <path d="M 31.78125 66.40625 
Q 24.171875 66.40625 20.328125 58.90625 
Q 16.5 51.421875 16.5 36.375 
Q 16.5 21.390625 20.328125 13.890625 
Q 24.171875 6.390625 31.78125 6.390625 
Q 39.453125 6.390625 43.28125 13.890625 
Q 47.125 21.390625 47.125 36.375 
Q 47.125 51.421875 43.28125 58.90625 
Q 39.453125 66.40625 31.78125 66.40625 
z
M 31.78125 74.21875 
Q 44.046875 74.21875 50.515625 64.515625 
Q 56.984375 54.828125 56.984375 36.375 
Q 56.984375 17.96875 50.515625 8.265625 
Q 44.046875 -1.421875 31.78125 -1.421875 
Q 19.53125 -1.421875 13.0625 8.265625 
Q 6.59375 17.96875 6.59375 36.375 
Q 6.59375 54.828125 13.0625 64.515625 
Q 19.53125 74.21875 31.78125 74.21875 
z
" id="DejaVuSans-48"/>
       </defs>
       <use xlink:href="#DejaVuSans-48"/>
      </g>
     </g>
    </g>
    <g id="xtick_2">
     <g id="line2d_2">
      <g>
       <use style="stroke:#000000;stroke-width:0.8;" x="343.259504" xlink:href="#m04dec853bc" y="307.584"/>
      </g>
     </g>
     <g id="text_2">
      <!-- 200 -->
      <g transform="translate(333.715754 322.182437)scale(0.1 -0.1)">
       <defs>
        <path d="M 19.1875 8.296875 
L 53.609375 8.296875 
L 53.609375 0 
L 7.328125 0 
L 7.328125 8.296875 
Q 12.9375 14.109375 22.625 23.890625 
Q 32.328125 33.6875 34.8125 36.53125 
Q 39.546875 41.84375 41.421875 45.53125 
Q 43.3125 49.21875 43.3125 52.78125 
Q 43.3125 58.59375 39.234375 62.25 
Q 35.15625 65.921875 28.609375 65.921875 
Q 23.96875 65.921875 18.8125 64.3125 
Q 13.671875 62.703125 7.8125 59.421875 
L 7.8125 69.390625 
Q 13.765625 71.78125 18.9375 73 
Q 24.125 74.21875 28.421875 74.21875 
Q 39.75 74.21875 46.484375 68.546875 
Q 53.21875 62.890625 53.21875 53.421875 
Q 53.21875 48.921875 51.53125 44.890625 
Q 49.859375 40.875 45.40625 35.40625 
Q 44.1875 33.984375 37.640625 27.21875 
Q 31.109375 20.453125 19.1875 8.296875 
z
" id="DejaVuSans-50"/>
       </defs>
       <use xlink:href="#DejaVuSans-50"/>
       <use x="63.623047" xlink:href="#DejaVuSans-48"/>
       <use x="127.246094" xlink:href="#DejaVuSans-48"/>
      </g>
     </g>
    </g>
    <g id="xtick_3">
     <g id="line2d_3">
      <g>
       <use style="stroke:#000000;stroke-width:0.8;" x="501.93719" xlink:href="#m04dec853bc" y="307.584"/>
      </g>
     </g>
     <g id="text_3">
      <!-- 400 -->
      <g transform="translate(492.39344 322.182437)scale(0.1 -0.1)">
       <defs>
        <path d="M 37.796875 64.3125 
L 12.890625 25.390625 
L 37.796875 25.390625 
z
M 35.203125 72.90625 
L 47.609375 72.90625 
L 47.609375 25.390625 
L 58.015625 25.390625 
L 58.015625 17.1875 
L 47.609375 17.1875 
L 47.609375 0 
L 37.796875 0 
L 37.796875 17.1875 
L 4.890625 17.1875 
L 4.890625 26.703125 
z
" id="DejaVuSans-52"/>
       </defs>
       <use xlink:href="#DejaVuSans-52"/>
       <use x="63.623047" xlink:href="#DejaVuSans-48"/>
       <use x="127.246094" xlink:href="#DejaVuSans-48"/>
      </g>
     </g>
    </g>
    <g id="xtick_4">
     <g id="line2d_4">
      <g>
       <use style="stroke:#000000;stroke-width:0.8;" x="660.614876" xlink:href="#m04dec853bc" y="307.584"/>
      </g>
     </g>
     <g id="text_4">
      <!-- 600 -->
      <g transform="translate(651.071126 322.182437)scale(0.1 -0.1)">
       <defs>
        <path d="M 33.015625 40.375 
Q 26.375 40.375 22.484375 35.828125 
Q 18.609375 31.296875 18.609375 23.390625 
Q 18.609375 15.53125 22.484375 10.953125 
Q 26.375 6.390625 33.015625 6.390625 
Q 39.65625 6.390625 43.53125 10.953125 
Q 47.40625 15.53125 47.40625 23.390625 
Q 47.40625 31.296875 43.53125 35.828125 
Q 39.65625 40.375 33.015625 40.375 
z
M 52.59375 71.296875 
L 52.59375 62.3125 
Q 48.875 64.0625 45.09375 64.984375 
Q 41.3125 65.921875 37.59375 65.921875 
Q 27.828125 65.921875 22.671875 59.328125 
Q 17.53125 52.734375 16.796875 39.40625 
Q 19.671875 43.65625 24.015625 45.921875 
Q 28.375 48.1875 33.59375 48.1875 
Q 44.578125 48.1875 50.953125 41.515625 
Q 57.328125 34.859375 57.328125 23.390625 
Q 57.328125 12.15625 50.6875 5.359375 
Q 44.046875 -1.421875 33.015625 -1.421875 
Q 20.359375 -1.421875 13.671875 8.265625 
Q 6.984375 17.96875 6.984375 36.375 
Q 6.984375 53.65625 15.1875 63.9375 
Q 23.390625 74.21875 37.203125 74.21875 
Q 40.921875 74.21875 44.703125 73.484375 
Q 48.484375 72.75 52.59375 71.296875 
z
" id="DejaVuSans-54"/>
       </defs>
       <use xlink:href="#DejaVuSans-54"/>
       <use x="63.623047" xlink:href="#DejaVuSans-48"/>
       <use x="127.246094" xlink:href="#DejaVuSans-48"/>
      </g>
     </g>
    </g>
    <g id="xtick_5">
     <g id="line2d_5">
      <g>
       <use style="stroke:#000000;stroke-width:0.8;" x="819.292562" xlink:href="#m04dec853bc" y="307.584"/>
      </g>
     </g>
     <g id="text_5">
      <!-- 800 -->
      <g transform="translate(809.748812 322.182437)scale(0.1 -0.1)">
       <defs>
        <path d="M 31.78125 34.625 
Q 24.75 34.625 20.71875 30.859375 
Q 16.703125 27.09375 16.703125 20.515625 
Q 16.703125 13.921875 20.71875 10.15625 
Q 24.75 6.390625 31.78125 6.390625 
Q 38.8125 6.390625 42.859375 10.171875 
Q 46.921875 13.96875 46.921875 20.515625 
Q 46.921875 27.09375 42.890625 30.859375 
Q 38.875 34.625 31.78125 34.625 
z
M 21.921875 38.8125 
Q 15.578125 40.375 12.03125 44.71875 
Q 8.5 49.078125 8.5 55.328125 
Q 8.5 64.0625 14.71875 69.140625 
Q 20.953125 74.21875 31.78125 74.21875 
Q 42.671875 74.21875 48.875 69.140625 
Q 55.078125 64.0625 55.078125 55.328125 
Q 55.078125 49.078125 51.53125 44.71875 
Q 48 40.375 41.703125 38.8125 
Q 48.828125 37.15625 52.796875 32.3125 
Q 56.78125 27.484375 56.78125 20.515625 
Q 56.78125 9.90625 50.3125 4.234375 
Q 43.84375 -1.421875 31.78125 -1.421875 
Q 19.734375 -1.421875 13.25 4.234375 
Q 6.78125 9.90625 6.78125 20.515625 
Q 6.78125 27.484375 10.78125 32.3125 
Q 14.796875 37.15625 21.921875 38.8125 
z
M 18.3125 54.390625 
Q 18.3125 48.734375 21.84375 45.5625 
Q 25.390625 42.390625 31.78125 42.390625 
Q 38.140625 42.390625 41.71875 45.5625 
Q 45.3125 48.734375 45.3125 54.390625 
Q 45.3125 60.0625 41.71875 63.234375 
Q 38.140625 66.40625 31.78125 66.40625 
Q 25.390625 66.40625 21.84375 63.234375 
Q 18.3125 60.0625 18.3125 54.390625 
z
" id="DejaVuSans-56"/>
       </defs>
       <use xlink:href="#DejaVuSans-56"/>
       <use x="63.623047" xlink:href="#DejaVuSans-48"/>
       <use x="127.246094" xlink:href="#DejaVuSans-48"/>
      </g>
     </g>
    </g>
    <g id="xtick_6">
     <g id="line2d_6">
      <g>
       <use style="stroke:#000000;stroke-width:0.8;" x="977.970248" xlink:href="#m04dec853bc" y="307.584"/>
      </g>
     </g>
     <g id="text_6">
      <!-- 1000 -->
      <g transform="translate(965.245248 322.182437)scale(0.1 -0.1)">
       <defs>
        <path d="M 12.40625 8.296875 
L 28.515625 8.296875 
L 28.515625 63.921875 
L 10.984375 60.40625 
L 10.984375 69.390625 
L 28.421875 72.90625 
L 38.28125 72.90625 
L 38.28125 8.296875 
L 54.390625 8.296875 
L 54.390625 0 
L 12.40625 0 
z
" id="DejaVuSans-49"/>
       </defs>
       <use xlink:href="#DejaVuSans-49"/>
       <use x="63.623047" xlink:href="#DejaVuSans-48"/>
       <use x="127.246094" xlink:href="#DejaVuSans-48"/>
       <use x="190.869141" xlink:href="#DejaVuSans-48"/>
      </g>
     </g>
    </g>
   </g>
   <g id="matplotlib.axis_2">
    <g id="ytick_1">
     <g id="line2d_7">
      <defs>
       <path d="M 0 0 
L -3.5 0 
" id="m8984826fb5" style="stroke:#000000;stroke-width:0.8;"/>
      </defs>
      <g>
       <use style="stroke:#000000;stroke-width:0.8;" x="144" xlink:href="#m8984826fb5" y="302.924741"/>
      </g>
     </g>
     <g id="text_7">
      <!-- 0.0 -->
      <g transform="translate(121.096875 306.72396)scale(0.1 -0.1)">
       <defs>
        <path d="M 10.6875 12.40625 
L 21 12.40625 
L 21 0 
L 10.6875 0 
z
" id="DejaVuSans-46"/>
       </defs>
       <use xlink:href="#DejaVuSans-48"/>
       <use x="63.623047" xlink:href="#DejaVuSans-46"/>
       <use x="95.410156" xlink:href="#DejaVuSans-48"/>
      </g>
     </g>
    </g>
    <g id="ytick_2">
     <g id="line2d_8">
      <g>
       <use style="stroke:#000000;stroke-width:0.8;" x="144" xlink:href="#m8984826fb5" y="247.2106"/>
      </g>
     </g>
     <g id="text_8">
      <!-- 0.2 -->
      <g transform="translate(121.096875 251.009819)scale(0.1 -0.1)">
       <use xlink:href="#DejaVuSans-48"/>
       <use x="63.623047" xlink:href="#DejaVuSans-46"/>
       <use x="95.410156" xlink:href="#DejaVuSans-50"/>
      </g>
     </g>
    </g>
    <g id="ytick_3">
     <g id="line2d_9">
      <g>
       <use style="stroke:#000000;stroke-width:0.8;" x="144" xlink:href="#m8984826fb5" y="191.496459"/>
      </g>
     </g>
     <g id="text_9">
      <!-- 0.4 -->
      <g transform="translate(121.096875 195.295678)scale(0.1 -0.1)">
       <use xlink:href="#DejaVuSans-48"/>
       <use x="63.623047" xlink:href="#DejaVuSans-46"/>
       <use x="95.410156" xlink:href="#DejaVuSans-52"/>
      </g>
     </g>
    </g>
    <g id="ytick_4">
     <g id="line2d_10">
      <g>
       <use style="stroke:#000000;stroke-width:0.8;" x="144" xlink:href="#m8984826fb5" y="135.782318"/>
      </g>
     </g>
     <g id="text_10">
      <!-- 0.6 -->
      <g transform="translate(121.096875 139.581536)scale(0.1 -0.1)">
       <use xlink:href="#DejaVuSans-48"/>
       <use x="63.623047" xlink:href="#DejaVuSans-46"/>
       <use x="95.410156" xlink:href="#DejaVuSans-54"/>
      </g>
     </g>
    </g>
    <g id="ytick_5">
     <g id="line2d_11">
      <g>
       <use style="stroke:#000000;stroke-width:0.8;" x="144" xlink:href="#m8984826fb5" y="80.068176"/>
      </g>
     </g>
     <g id="text_11">
      <!-- 0.8 -->
      <g transform="translate(121.096875 83.867395)scale(0.1 -0.1)">
       <use xlink:href="#DejaVuSans-48"/>
       <use x="63.623047" xlink:href="#DejaVuSans-46"/>
       <use x="95.410156" xlink:href="#DejaVuSans-56"/>
      </g>
     </g>
    </g>
   </g>
   <g id="line2d_12">
    <path clip-path="url(#p298e7aa298)" d="M 184.581818 290.343853 
L 185.375207 267.567871 
L 186.168595 262.741559 
L 186.961983 278.020327 
L 187.755372 295.488 
L 188.54876 291.707219 
L 189.342149 280.193338 
L 190.135537 275.290975 
L 190.928926 276.375462 
L 191.722314 274.153216 
L 193.309091 236.169449 
L 194.102479 237.669559 
L 194.895868 248.131359 
L 195.689256 243.856723 
L 197.276033 217.377695 
L 198.069421 226.121792 
L 198.86281 242.887375 
L 199.656198 241.924632 
L 200.449587 224.241576 
L 201.242975 188.245813 
L 202.036364 169.850935 
L 202.829752 182.793364 
L 203.62314 208.456632 
L 204.416529 203.467662 
L 206.003306 132.532522 
L 206.796694 129.359078 
L 207.590083 148.808865 
L 208.383471 160.12028 
L 209.17686 148.843169 
L 209.970248 133.646524 
L 210.763636 140.886978 
L 211.557025 161.490418 
L 212.350413 162.135919 
L 213.143802 146.416345 
L 213.93719 126.374755 
L 214.730579 121.702409 
L 215.523967 122.047592 
L 216.317355 117.178969 
L 217.110744 103.197313 
L 217.904132 96.193568 
L 218.697521 98.983921 
L 219.490909 105.406507 
L 220.284298 105.211392 
L 221.077686 98.714918 
L 221.871074 88.854453 
L 222.664463 81.803103 
L 223.457851 80.083947 
L 224.25124 83.097908 
L 225.044628 82.087764 
L 225.838017 78.222975 
L 226.631405 71.1385 
L 227.424793 69.697413 
L 228.218182 74.741193 
L 229.01157 81.112289 
L 229.804959 77.95809 
L 230.598347 68.808097 
L 231.391736 64.357001 
L 232.185124 68.917086 
L 232.978512 76.886195 
L 233.771901 76.899163 
L 234.565289 66.955627 
L 235.358678 59.325408 
L 236.152066 63.440338 
L 236.945455 78.710555 
L 237.738843 90.18748 
L 238.532231 83.821615 
L 239.32562 71.042545 
L 240.119008 68.370728 
L 240.912397 73.962112 
L 241.705785 76.803855 
L 243.292562 59.22678 
L 244.08595 56.856742 
L 244.879339 62.394727 
L 245.672727 69.593953 
L 246.466116 72.215974 
L 247.259504 72.57356 
L 248.052893 72.746658 
L 248.846281 75.874424 
L 249.639669 76.25147 
L 250.433058 71.023783 
L 251.226446 67.323839 
L 252.019835 65.109084 
L 252.813223 66.093558 
L 254.4 70.988748 
L 255.193388 71.632323 
L 255.986777 70.21591 
L 256.780165 68.166714 
L 257.573554 67.940815 
L 258.366942 70.499143 
L 259.160331 74.167455 
L 259.953719 73.973203 
L 260.747107 67.471865 
L 261.540496 63.170023 
L 262.333884 64.384248 
L 263.127273 66.057477 
L 263.920661 68.56767 
L 264.71405 68.762818 
L 265.507438 68.139632 
L 266.300826 67.802718 
L 267.094215 66.716046 
L 267.887603 64.300231 
L 268.680992 64.277666 
L 269.47438 66.251961 
L 270.267769 67.114561 
L 271.061157 64.853829 
L 271.854545 63.166735 
L 272.647934 63.613784 
L 273.441322 64.577138 
L 274.234711 65.32507 
L 275.028099 64.166186 
L 275.821488 60.962839 
L 276.614876 61.674524 
L 277.408264 62.944871 
L 278.201653 63.740125 
L 280.581818 64.068139 
L 282.168595 66.820253 
L 282.961983 65.417123 
L 283.755372 62.323562 
L 284.54876 60.814199 
L 285.342149 61.48635 
L 286.135537 64.430341 
L 286.928926 69.032601 
L 287.722314 69.913731 
L 289.309091 60.286603 
L 290.102479 57.708898 
L 290.895868 60.783597 
L 291.689256 67.023537 
L 292.482645 69.448567 
L 293.276033 64.958634 
L 294.069421 59.697805 
L 294.86281 58.700263 
L 296.449587 67.354457 
L 297.242975 65.962668 
L 298.036364 61.523676 
L 298.829752 59.709893 
L 299.62314 62.622154 
L 300.416529 66.345094 
L 301.209917 63.619396 
L 302.003306 59.134677 
L 302.796694 57.054165 
L 303.590083 61.74202 
L 304.383471 71.223464 
L 305.17686 75.645685 
L 305.970248 71.033529 
L 306.763636 63.985251 
L 307.557025 60.638727 
L 309.143802 62.95138 
L 309.93719 61.9419 
L 310.730579 60.315777 
L 311.523967 61.537856 
L 312.317355 66.74326 
L 313.110744 71.066804 
L 313.904132 67.871194 
L 314.697521 61.613056 
L 315.490909 57.130893 
L 316.284298 58.31812 
L 317.077686 61.347689 
L 317.871074 61.732157 
L 318.664463 57.639975 
L 319.457851 56.284615 
L 320.25124 60.291751 
L 321.044628 67.5731 
L 321.838017 70.696848 
L 323.424793 59.657922 
L 324.218182 58.960765 
L 325.01157 62.347439 
L 325.804959 64.83392 
L 326.598347 61.030882 
L 327.391736 58.104259 
L 328.185124 58.44632 
L 328.978512 63.54139 
L 329.771901 70.374578 
L 330.565289 71.872169 
L 332.152066 61.667069 
L 332.945455 60.165543 
L 333.738843 63.497057 
L 334.532231 68.082863 
L 335.32562 67.74203 
L 336.119008 61.892005 
L 336.912397 57.662872 
L 337.705785 61.614965 
L 338.499174 73.773971 
L 339.292562 80.581638 
L 340.08595 72.277359 
L 340.879339 59.966991 
L 341.672727 57.204217 
L 342.466116 63.328492 
L 343.259504 72.166527 
L 344.052893 71.745048 
L 344.846281 64.582684 
L 345.639669 60.889382 
L 346.433058 64.416111 
L 347.226446 70.536635 
L 348.019835 71.086612 
L 349.606612 62.886325 
L 350.4 63.798986 
L 351.193388 67.856732 
L 351.986777 67.462832 
L 352.780165 63.422737 
L 353.573554 58.709329 
L 354.366942 58.505547 
L 355.953719 62.990532 
L 357.540496 61.769848 
L 358.333884 63.712363 
L 359.127273 67.16713 
L 359.920661 69.055316 
L 360.71405 67.917801 
L 361.507438 65.885077 
L 362.300826 63.392568 
L 363.094215 62.675619 
L 363.887603 63.053528 
L 364.680992 61.201722 
L 365.47438 62.012932 
L 366.267769 64.594124 
L 367.854545 73.304755 
L 368.647934 73.170694 
L 369.441322 68.72428 
L 370.234711 64.91548 
L 371.028099 63.642177 
L 372.614876 66.18224 
L 373.408264 66.612868 
L 374.201653 65.959845 
L 374.995041 64.770891 
L 375.78843 67.481844 
L 376.581818 73.195118 
L 377.375207 74.939031 
L 378.168595 70.700202 
L 378.961983 61.778682 
L 379.755372 57.092853 
L 380.54876 58.271612 
L 381.342149 65.044942 
L 382.135537 70.283688 
L 382.928926 69.59915 
L 383.722314 66.617285 
L 384.515702 64.788193 
L 385.309091 64.123846 
L 386.102479 62.433149 
L 386.895868 59.61143 
L 387.689256 59.757696 
L 389.276033 71.467461 
L 390.069421 69.663325 
L 390.86281 63.005127 
L 391.656198 58.891593 
L 392.449587 63.396121 
L 393.242975 72.756305 
L 394.036364 73.695334 
L 394.829752 62.887736 
L 395.62314 54.687864 
L 396.416529 54.948416 
L 398.003306 75.36325 
L 398.796694 73.11771 
L 399.590083 64.625306 
L 400.383471 61.180718 
L 401.17686 65.537486 
L 401.970248 71.81193 
L 402.763636 69.648796 
L 403.557025 62.552998 
L 404.350413 56.749613 
L 405.143802 57.712734 
L 406.730579 67.949715 
L 407.523967 68.113846 
L 408.317355 65.564402 
L 409.110744 64.955861 
L 409.904132 66.506917 
L 410.697521 67.322511 
L 411.490909 65.673208 
L 412.284298 63.729697 
L 413.077686 62.620809 
L 413.871074 62.952409 
L 414.664463 62.439575 
L 415.457851 58.097368 
L 416.25124 57.04314 
L 417.044628 58.925365 
L 418.631405 68.802784 
L 419.424793 68.24653 
L 420.218182 63.897316 
L 421.01157 61.631221 
L 421.804959 63.323079 
L 422.598347 66.662 
L 423.391736 67.024965 
L 424.978512 57.749313 
L 425.771901 57.045747 
L 426.565289 61.955432 
L 427.358678 69.666646 
L 428.152066 70.852677 
L 429.738843 61.836215 
L 430.532231 62.608073 
L 431.32562 67.720644 
L 432.119008 71.21297 
L 432.912397 67.652036 
L 433.705785 62.165126 
L 434.499174 59.951184 
L 435.292562 63.031196 
L 436.08595 67.225792 
L 436.879339 66.48583 
L 437.672727 61.896388 
L 438.466116 59.70008 
L 439.259504 63.908706 
L 440.052893 71.754496 
L 440.846281 70.853673 
L 441.639669 62.058577 
L 442.433058 54.698358 
L 443.226446 55.85231 
L 444.813223 72.487036 
L 445.606612 73.014233 
L 446.4 68.737198 
L 447.193388 66.663693 
L 447.986777 67.138903 
L 448.780165 66.925191 
L 449.573554 65.363359 
L 450.366942 65.342089 
L 451.160331 66.97957 
L 451.953719 69.603002 
L 452.747107 68.748522 
L 453.540496 62.648122 
L 454.333884 60.083601 
L 455.127273 61.438115 
L 455.920661 66.364188 
L 456.71405 69.775386 
L 457.507438 67.065114 
L 458.300826 61.29253 
L 459.094215 60.218775 
L 459.887603 63.882721 
L 460.680992 68.207211 
L 461.47438 68.585137 
L 462.267769 65.659111 
L 463.061157 63.888881 
L 463.854545 64.239593 
L 464.647934 66.205984 
L 465.441322 66.063289 
L 466.234711 60.939859 
L 467.028099 57.985689 
L 467.821488 57.218529 
L 468.614876 59.976638 
L 469.408264 63.750585 
L 470.201653 65.847302 
L 470.995041 65.349179 
L 471.78843 64.70939 
L 472.581818 64.922454 
L 473.375207 64.857017 
L 474.168595 63.626154 
L 474.961983 63.918768 
L 477.342149 73.225504 
L 478.135537 72.134099 
L 478.928926 65.443059 
L 479.722314 61.037292 
L 480.515702 58.394117 
L 481.309091 59.323283 
L 482.102479 62.880945 
L 482.895868 67.794831 
L 483.689256 71.060826 
L 484.482645 72.166311 
L 485.276033 71.852444 
L 486.069421 68.050883 
L 486.86281 62.624478 
L 487.656198 59.373925 
L 488.449587 59.107579 
L 489.242975 62.52492 
L 490.036364 68.448602 
L 490.829752 70.191269 
L 491.62314 65.132462 
L 492.416529 61.52708 
L 493.209917 61.604322 
L 494.796694 73.292003 
L 495.590083 71.04404 
L 496.383471 61.977283 
L 497.17686 57.354583 
L 497.970248 60.167402 
L 498.763636 68.974852 
L 499.557025 75.502458 
L 500.350413 71.034459 
L 501.143802 63.562212 
L 501.93719 61.610831 
L 502.730579 66.675781 
L 503.523967 72.612729 
L 504.317355 70.464357 
L 505.110744 64.427751 
L 505.904132 59.761299 
L 506.697521 60.40959 
L 507.490909 63.227307 
L 508.284298 64.421856 
L 509.077686 61.765697 
L 509.871074 60.531597 
L 510.664463 62.40557 
L 511.457851 65.072986 
L 512.25124 64.470755 
L 513.044628 61.442963 
L 513.838017 60.61475 
L 514.631405 63.52741 
L 515.424793 68.405829 
L 516.218182 68.122613 
L 517.01157 61.47398 
L 517.804959 58.738768 
L 518.598347 59.959984 
L 519.391736 64.212063 
L 520.185124 67.399305 
L 520.978512 67.598654 
L 521.771901 67.120439 
L 523.358678 69.205433 
L 524.152066 67.496887 
L 524.945455 63.920097 
L 525.738843 62.689168 
L 526.532231 66.000874 
L 527.32562 71.592407 
L 528.119008 78.363081 
L 528.912397 79.136666 
L 530.499174 61.712846 
L 531.292562 56.992398 
L 532.08595 58.53741 
L 532.879339 63.505144 
L 533.672727 67.644896 
L 534.466116 65.82844 
L 535.259504 62.060138 
L 536.052893 61.054095 
L 536.846281 64.52251 
L 537.639669 69.046781 
L 538.433058 68.432794 
L 539.226446 63.494069 
L 540.019835 60.085777 
L 540.813223 63.298472 
L 541.606612 71.802399 
L 542.4 73.639859 
L 543.986777 58.49052 
L 544.780165 58.08528 
L 546.366942 69.146306 
L 547.160331 66.733381 
L 547.953719 62.418504 
L 548.747107 62.761861 
L 549.540496 67.748772 
L 550.333884 71.809755 
L 551.127273 69.250115 
L 551.920661 64.869055 
L 552.71405 63.075944 
L 554.300826 66.076838 
L 555.887603 58.752168 
L 556.680992 57.602898 
L 557.47438 61.135488 
L 558.267769 66.392864 
L 559.061157 68.471432 
L 559.854545 65.807801 
L 560.647934 62.581108 
L 561.441322 61.16692 
L 562.234711 61.619598 
L 563.821488 61.551454 
L 564.614876 62.056186 
L 565.408264 62.698699 
L 566.201653 64.382455 
L 566.995041 65.22073 
L 567.78843 61.910136 
L 568.581818 59.757646 
L 569.375207 59.096869 
L 570.168595 61.466641 
L 570.961983 65.270891 
L 571.755372 67.347915 
L 572.54876 66.112536 
L 573.342149 64.396469 
L 574.928926 62.202003 
L 575.722314 59.930362 
L 576.515702 59.363531 
L 577.309091 62.531927 
L 578.102479 69.026026 
L 578.895868 78.327149 
L 579.689256 80.905452 
L 580.482645 72.529011 
L 581.276033 62.882556 
L 582.069421 56.15663 
L 582.86281 56.343277 
L 583.656198 60.717496 
L 584.449587 66.206399 
L 585.242975 67.786928 
L 586.036364 66.991973 
L 586.829752 67.940649 
L 587.62314 70.161415 
L 588.416529 71.310685 
L 589.209917 68.543494 
L 590.003306 64.247646 
L 590.796694 61.799237 
L 591.590083 62.875615 
L 592.383471 64.806258 
L 593.17686 62.725996 
L 593.970248 61.211635 
L 594.763636 61.759803 
L 595.557025 67.523304 
L 596.350413 76.156378 
L 597.143802 76.780344 
L 598.730579 60.660445 
L 599.523967 58.818651 
L 601.110744 67.605379 
L 601.904132 66.66454 
L 602.697521 63.648786 
L 603.490909 63.376528 
L 605.077686 72.478834 
L 605.871074 68.795295 
L 606.664463 63.293956 
L 607.457851 60.535051 
L 608.25124 63.800116 
L 609.044628 69.812579 
L 609.838017 70.972526 
L 610.631405 65.174537 
L 611.424793 61.255868 
L 612.218182 63.283246 
L 613.01157 69.137207 
L 613.804959 71.949196 
L 615.391736 62.129144 
L 616.185124 61.98517 
L 616.978512 66.188866 
L 617.771901 68.16492 
L 618.565289 62.189384 
L 619.358678 57.383093 
L 620.152066 56.081796 
L 620.945455 60.23269 
L 621.738843 66.514572 
L 622.532231 69.570275 
L 623.32562 68.2897 
L 624.119008 65.297109 
L 624.912397 63.466423 
L 625.705785 63.915331 
L 626.499174 64.929045 
L 627.292562 64.936501 
L 628.879339 62.854179 
L 629.672727 64.712611 
L 630.466116 68.775337 
L 631.259504 67.539377 
L 632.846281 55.621579 
L 633.639669 55.064595 
L 634.433058 59.530436 
L 635.226446 66.040475 
L 636.019835 66.820187 
L 636.813223 62.083035 
L 637.606612 59.071315 
L 638.4 61.819926 
L 639.193388 66.821964 
L 639.986777 67.133922 
L 641.573554 57.88902 
L 642.366942 59.099227 
L 643.160331 65.284157 
L 643.953719 66.833271 
L 645.540496 59.08425 
L 646.333884 60.248397 
L 647.127273 65.216695 
L 647.920661 67.409915 
L 648.71405 62.570067 
L 649.507438 58.875171 
L 650.300826 60.471756 
L 651.094215 66.334965 
L 651.887603 70.193893 
L 652.680992 66.575376 
L 653.47438 61.599772 
L 654.267769 60.834572 
L 655.061157 64.622417 
L 655.854545 67.77494 
L 656.647934 63.288941 
L 657.441322 58.154868 
L 658.234711 56.641487 
L 659.028099 61.408559 
L 659.821488 67.611588 
L 660.614876 67.548061 
L 661.408264 61.919252 
L 662.201653 60.020655 
L 662.995041 63.976567 
L 663.78843 69.425919 
L 664.581818 69.552409 
L 665.375207 64.600948 
L 666.168595 61.77561 
L 666.961983 63.47074 
L 667.755372 67.778543 
L 668.54876 67.913733 
L 669.342149 62.019408 
L 670.135537 59.983628 
L 670.928926 62.223954 
L 671.722314 67.005705 
L 672.515702 69.089968 
L 673.309091 65.850441 
L 674.102479 61.922058 
L 674.895868 63.014293 
L 675.689256 66.585837 
L 676.482645 66.489134 
L 677.276033 61.639855 
L 678.069421 59.017701 
L 678.86281 61.579565 
L 680.449587 73.692013 
L 681.242975 72.458394 
L 682.036364 64.594124 
L 682.829752 60.430445 
L 683.62314 59.358517 
L 684.416529 61.677147 
L 685.209917 64.81373 
L 686.003306 66.068884 
L 686.796694 64.066512 
L 687.590083 62.869073 
L 688.383471 63.788127 
L 689.17686 65.456027 
L 689.970248 65.850706 
L 690.763636 63.971437 
L 691.557025 61.425479 
L 692.350413 60.770065 
L 693.143802 62.820921 
L 693.93719 64.488157 
L 695.523967 57.867335 
L 696.317355 56.651898 
L 697.110744 61.709791 
L 697.904132 70.960139 
L 698.697521 74.74649 
L 699.490909 69.356879 
L 700.284298 62.688321 
L 701.077686 61.039832 
L 701.871074 64.049244 
L 702.664463 65.377937 
L 703.457851 62.520603 
L 704.25124 60.720485 
L 705.044628 64.455247 
L 705.838017 73.963507 
L 706.631405 78.816373 
L 707.424793 72.299044 
L 708.218182 63.93431 
L 709.01157 59.22404 
L 709.804959 60.71122 
L 710.598347 64.54285 
L 711.391736 66.825417 
L 712.185124 65.004876 
L 712.978512 63.575113 
L 713.771901 65.349495 
L 714.565289 68.493881 
L 715.358678 69.480597 
L 716.152066 66.801607 
L 716.945455 64.786034 
L 717.738843 65.662001 
L 718.532231 69.271285 
L 719.32562 69.58595 
L 720.119008 62.436619 
L 720.912397 57.455985 
L 721.705785 56.338943 
L 722.499174 60.352405 
L 723.292562 66.037702 
L 724.08595 69.256524 
L 724.879339 69.375875 
L 725.672727 69.33908 
L 726.466116 70.680708 
L 727.259504 69.480414 
L 728.846281 60.462291 
L 729.639669 58.963389 
L 730.433058 61.814165 
L 731.226446 67.802951 
L 732.019835 71.860862 
L 732.813223 68.291842 
L 733.606612 62.689234 
L 734.4 58.263276 
L 735.193388 57.850747 
L 735.986777 59.781108 
L 736.780165 62.889364 
L 737.573554 63.231458 
L 738.366942 62.402714 
L 739.160331 62.447412 
L 739.953719 64.119628 
L 740.747107 66.092279 
L 741.540496 65.031194 
L 742.333884 61.205159 
L 743.127273 58.431559 
L 743.920661 60.021552 
L 744.71405 65.804796 
L 745.507438 66.857181 
L 746.300826 61.914304 
L 747.094215 55.586711 
L 747.887603 54.936361 
L 748.680992 59.959486 
L 749.47438 67.66615 
L 750.267769 70.31218 
L 751.854545 62.76993 
L 752.647934 61.555821 
L 753.441322 61.907513 
L 754.234711 63.127168 
L 755.028099 64.636498 
L 755.821488 64.793606 
L 756.614876 64.69237 
L 757.408264 64.020054 
L 758.201653 61.002987 
L 758.995041 60.287433 
L 759.78843 60.40255 
L 760.581818 61.37751 
L 761.375207 61.490152 
L 762.168595 61.387738 
L 762.961983 61.032045 
L 763.755372 63.012383 
L 764.54876 66.519785 
L 765.342149 67.104051 
L 766.928926 61.42078 
L 767.722314 60.394447 
L 768.515702 60.500016 
L 769.309091 60.73239 
L 770.102479 60.208962 
L 770.895868 58.032197 
L 771.689256 60.198137 
L 772.482645 64.197402 
L 773.276033 66.131565 
L 774.069421 64.051668 
L 774.86281 61.247616 
L 775.656198 60.982 
L 776.449587 65.511003 
L 777.242975 71.12266 
L 778.036364 70.149377 
L 778.829752 64.852002 
L 779.62314 61.833625 
L 780.416529 61.715021 
L 781.209917 62.570947 
L 782.796694 66.036689 
L 783.590083 64.50501 
L 784.383471 62.599008 
L 785.17686 59.406901 
L 785.970248 58.743401 
L 786.763636 61.932535 
L 787.557025 67.677241 
L 788.350413 70.769789 
L 789.143802 69.984349 
L 790.730579 67.127861 
L 791.523967 65.860254 
L 793.110744 62.61332 
L 793.904132 62.332545 
L 794.697521 64.286068 
L 795.490909 65.490812 
L 796.284298 62.964796 
L 797.077686 62.133478 
L 797.871074 64.001955 
L 799.457851 75.498158 
L 800.25124 72.331904 
L 801.044628 62.489753 
L 801.838017 57.201693 
L 802.631405 58.750707 
L 803.424793 65.831196 
L 804.218182 71.137305 
L 805.01157 68.009755 
L 805.804959 62.515124 
L 806.598347 61.528889 
L 808.185124 71.406922 
L 808.978512 69.664637 
L 810.565289 58.943049 
L 811.358678 57.716188 
L 812.152066 58.99761 
L 812.945455 62.081358 
L 813.738843 63.106628 
L 814.532231 62.672215 
L 815.32562 62.85056 
L 816.119008 64.625705 
L 816.912397 67.163178 
L 817.705785 68.404584 
L 818.499174 68.755877 
L 819.292562 67.926917 
L 820.08595 68.753304 
L 820.879339 69.042863 
L 821.672727 64.66959 
L 822.466116 61.06248 
L 823.259504 58.717515 
L 824.052893 60.028808 
L 825.639669 67.8298 
L 826.433058 68.886867 
L 827.226446 67.024368 
L 829.606612 58.033027 
L 830.4 57.907782 
L 831.193388 60.20438 
L 831.986777 63.847105 
L 832.780165 68.061294 
L 833.573554 69.302335 
L 835.160331 60.542506 
L 835.953719 57.585796 
L 836.747107 58.120066 
L 838.333884 62.778099 
L 839.127273 62.167334 
L 839.920661 61.41188 
L 840.71405 62.260566 
L 841.507438 64.201321 
L 842.300826 64.937895 
L 843.094215 62.847073 
L 843.887603 60.059276 
L 844.680992 59.728738 
L 845.47438 63.558376 
L 846.267769 68.82603 
L 847.061157 67.450363 
L 847.854545 62.065534 
L 848.647934 57.770483 
L 849.441322 59.946584 
L 850.234711 67.794699 
L 851.028099 73.437239 
L 851.821488 69.467064 
L 852.614876 61.623018 
L 853.408264 57.522883 
L 854.201653 60.277986 
L 854.995041 66.060781 
L 855.78843 69.638253 
L 856.581818 70.585002 
L 857.375207 69.67875 
L 858.961983 72.581447 
L 859.755372 68.248057 
L 860.54876 62.886242 
L 861.342149 58.931492 
L 862.135537 60.088367 
L 863.722314 69.542215 
L 864.515702 70.333616 
L 866.102479 64.494051 
L 866.895868 62.637463 
L 867.689256 61.210655 
L 869.276033 59.491349 
L 870.069421 59.824229 
L 870.86281 63.1273 
L 871.656198 68.128292 
L 872.449587 68.238128 
L 874.036364 59.811045 
L 874.829752 60.662803 
L 875.62314 66.078764 
L 876.416529 70.150091 
L 877.209917 67.030578 
L 878.003306 61.635272 
L 878.796694 59.965114 
L 879.590083 63.736422 
L 880.383471 68.127644 
L 881.17686 67.456788 
L 881.970248 63.158101 
L 882.763636 60.723607 
L 883.557025 65.41362 
L 884.350413 75.679442 
L 885.143802 81.92853 
L 885.93719 76.938299 
L 886.730579 65.477562 
L 887.523967 59.670209 
L 888.317355 60.696775 
L 889.110744 66.612752 
L 889.904132 69.290862 
L 890.697521 67.052312 
L 891.490909 64.468497 
L 893.077686 62.904905 
L 894.664463 59.636801 
L 895.457851 61.536876 
L 896.25124 66.672958 
L 897.044628 69.022473 
L 898.631405 62.056219 
L 899.424793 60.420598 
L 900.218182 62.11533 
L 901.01157 64.827179 
L 901.804959 65.54529 
L 904.185124 59.364727 
L 904.978512 60.252449 
L 906.565289 64.828009 
L 907.358678 65.296112 
L 908.152066 63.73164 
L 908.945455 64.261394 
L 909.738843 67.982557 
L 910.532231 70.23258 
L 911.32562 68.746762 
L 912.119008 62.721463 
L 912.912397 58.518216 
L 913.705785 58.805102 
L 914.499174 63.560651 
L 915.292562 66.156737 
L 916.08595 63.902928 
L 916.879339 60.523245 
L 917.672727 60.23792 
L 919.259504 63.829538 
L 920.052893 63.403576 
L 920.846281 61.554692 
L 921.639669 61.079914 
L 922.433058 61.440439 
L 923.226446 59.146615 
L 924.019835 58.902169 
L 924.813223 60.500431 
L 925.606612 63.327214 
L 926.4 64.906713 
L 927.193388 63.214323 
L 927.986777 59.923571 
L 928.780165 60.552402 
L 929.573554 63.968265 
L 930.366942 65.013411 
L 931.953719 58.090278 
L 932.747107 57.023365 
L 933.540496 60.029655 
L 934.333884 64.395821 
L 935.127273 65.753688 
L 935.920661 62.422174 
L 936.71405 59.908245 
L 937.507438 58.808439 
L 939.094215 60.681515 
L 939.887603 60.834024 
L 940.680992 58.451351 
L 941.47438 57.409775 
L 942.267769 58.220587 
L 943.061157 60.690365 
L 943.854545 62.661439 
L 944.647934 61.945553 
L 945.441322 59.157042 
L 946.234711 57.611565 
L 947.028099 59.35855 
L 947.821488 64.6048 
L 948.614876 68.798068 
L 949.408264 69.671926 
L 950.201653 67.698727 
L 950.995041 65.141761 
L 951.78843 64.195459 
L 952.581818 64.215916 
L 953.375207 61.836082 
L 954.168595 60.196493 
L 954.961983 59.562149 
L 955.755372 59.202837 
L 956.54876 57.616281 
L 957.342149 57.200132 
L 958.135537 58.965829 
L 958.928926 62.904324 
L 959.722314 65.856767 
L 960.515702 63.83877 
L 961.309091 59.097517 
L 962.102479 58.564458 
L 962.895868 61.261098 
L 963.689256 64.806524 
L 964.482645 66.263219 
L 965.276033 65.635783 
L 966.069421 63.889811 
L 966.86281 63.372095 
L 968.449587 65.672893 
L 969.242975 65.836709 
L 970.036364 64.699228 
L 970.829752 62.71786 
L 971.62314 61.1809 
L 972.416529 61.034402 
L 973.209917 61.617439 
L 974.003306 60.759173 
L 974.796694 62.252579 
L 975.590083 65.26141 
L 976.383471 67.758485 
L 977.17686 67.101361 
L 977.970248 62.459981 
L 978.763636 57.008504 
L 979.557025 56.385352 
L 981.143802 60.721017 
L 981.93719 59.812938 
L 982.730579 57.954722 
L 983.523967 58.408762 
L 984.317355 63.437465 
L 985.110744 71.232496 
L 985.904132 72.87431 
L 987.490909 60.355577 
L 988.284298 58.795521 
L 989.871074 64.467933 
L 990.664463 64.381342 
L 991.457851 62.593296 
L 993.044628 67.556297 
L 993.838017 59.322054 
L 994.631405 53.568 
L 995.424793 59.177399 
L 996.218182 101.421537 
L 996.218182 101.421537 
" style="fill:none;stroke:#1f77b4;stroke-linecap:square;stroke-width:1.5;"/>
   </g>
   <g id="patch_3">
    <path d="M 144 307.584 
L 144 41.472 
" style="fill:none;stroke:#000000;stroke-linecap:square;stroke-linejoin:miter;stroke-width:0.8;"/>
   </g>
   <g id="patch_4">
    <path d="M 1036.8 307.584 
L 1036.8 41.472 
" style="fill:none;stroke:#000000;stroke-linecap:square;stroke-linejoin:miter;stroke-width:0.8;"/>
   </g>
   <g id="patch_5">
    <path d="M 144 307.584 
L 1036.8 307.584 
" style="fill:none;stroke:#000000;stroke-linecap:square;stroke-linejoin:miter;stroke-width:0.8;"/>
   </g>
   <g id="patch_6">
    <path d="M 144 41.472 
L 1036.8 41.472 
" style="fill:none;stroke:#000000;stroke-linecap:square;stroke-linejoin:miter;stroke-width:0.8;"/>
   </g>
   <g id="text_12">
    <!-- 12th layer's shape: torch.Size([1, 1, 1024]). Uniformly sampling 16 channels -->
    <g transform="translate(360.85125 35.472)scale(0.12 -0.12)">
     <defs>
      <path d="M 18.3125 70.21875 
L 18.3125 54.6875 
L 36.8125 54.6875 
L 36.8125 47.703125 
L 18.3125 47.703125 
L 18.3125 18.015625 
Q 18.3125 11.328125 20.140625 9.421875 
Q 21.96875 7.515625 27.59375 7.515625 
L 36.8125 7.515625 
L 36.8125 0 
L 27.59375 0 
Q 17.1875 0 13.234375 3.875 
Q 9.28125 7.765625 9.28125 18.015625 
L 9.28125 47.703125 
L 2.6875 47.703125 
L 2.6875 54.6875 
L 9.28125 54.6875 
L 9.28125 70.21875 
z
" id="DejaVuSans-116"/>
      <path d="M 54.890625 33.015625 
L 54.890625 0 
L 45.90625 0 
L 45.90625 32.71875 
Q 45.90625 40.484375 42.875 44.328125 
Q 39.84375 48.1875 33.796875 48.1875 
Q 26.515625 48.1875 22.3125 43.546875 
Q 18.109375 38.921875 18.109375 30.90625 
L 18.109375 0 
L 9.078125 0 
L 9.078125 75.984375 
L 18.109375 75.984375 
L 18.109375 46.1875 
Q 21.34375 51.125 25.703125 53.5625 
Q 30.078125 56 35.796875 56 
Q 45.21875 56 50.046875 50.171875 
Q 54.890625 44.34375 54.890625 33.015625 
z
" id="DejaVuSans-104"/>
      <path id="DejaVuSans-32"/>
      <path d="M 9.421875 75.984375 
L 18.40625 75.984375 
L 18.40625 0 
L 9.421875 0 
z
" id="DejaVuSans-108"/>
      <path d="M 34.28125 27.484375 
Q 23.390625 27.484375 19.1875 25 
Q 14.984375 22.515625 14.984375 16.5 
Q 14.984375 11.71875 18.140625 8.90625 
Q 21.296875 6.109375 26.703125 6.109375 
Q 34.1875 6.109375 38.703125 11.40625 
Q 43.21875 16.703125 43.21875 25.484375 
L 43.21875 27.484375 
z
M 52.203125 31.203125 
L 52.203125 0 
L 43.21875 0 
L 43.21875 8.296875 
Q 40.140625 3.328125 35.546875 0.953125 
Q 30.953125 -1.421875 24.3125 -1.421875 
Q 15.921875 -1.421875 10.953125 3.296875 
Q 6 8.015625 6 15.921875 
Q 6 25.140625 12.171875 29.828125 
Q 18.359375 34.515625 30.609375 34.515625 
L 43.21875 34.515625 
L 43.21875 35.40625 
Q 43.21875 41.609375 39.140625 45 
Q 35.0625 48.390625 27.6875 48.390625 
Q 23 48.390625 18.546875 47.265625 
Q 14.109375 46.140625 10.015625 43.890625 
L 10.015625 52.203125 
Q 14.9375 54.109375 19.578125 55.046875 
Q 24.21875 56 28.609375 56 
Q 40.484375 56 46.34375 49.84375 
Q 52.203125 43.703125 52.203125 31.203125 
z
" id="DejaVuSans-97"/>
      <path d="M 32.171875 -5.078125 
Q 28.375 -14.84375 24.75 -17.8125 
Q 21.140625 -20.796875 15.09375 -20.796875 
L 7.90625 -20.796875 
L 7.90625 -13.28125 
L 13.1875 -13.28125 
Q 16.890625 -13.28125 18.9375 -11.515625 
Q 21 -9.765625 23.484375 -3.21875 
L 25.09375 0.875 
L 2.984375 54.6875 
L 12.5 54.6875 
L 29.59375 11.921875 
L 46.6875 54.6875 
L 56.203125 54.6875 
z
" id="DejaVuSans-121"/>
      <path d="M 56.203125 29.59375 
L 56.203125 25.203125 
L 14.890625 25.203125 
Q 15.484375 15.921875 20.484375 11.0625 
Q 25.484375 6.203125 34.421875 6.203125 
Q 39.59375 6.203125 44.453125 7.46875 
Q 49.3125 8.734375 54.109375 11.28125 
L 54.109375 2.78125 
Q 49.265625 0.734375 44.1875 -0.34375 
Q 39.109375 -1.421875 33.890625 -1.421875 
Q 20.796875 -1.421875 13.15625 6.1875 
Q 5.515625 13.8125 5.515625 26.8125 
Q 5.515625 40.234375 12.765625 48.109375 
Q 20.015625 56 32.328125 56 
Q 43.359375 56 49.78125 48.890625 
Q 56.203125 41.796875 56.203125 29.59375 
z
M 47.21875 32.234375 
Q 47.125 39.59375 43.09375 43.984375 
Q 39.0625 48.390625 32.421875 48.390625 
Q 24.90625 48.390625 20.390625 44.140625 
Q 15.875 39.890625 15.1875 32.171875 
z
" id="DejaVuSans-101"/>
      <path d="M 41.109375 46.296875 
Q 39.59375 47.171875 37.8125 47.578125 
Q 36.03125 48 33.890625 48 
Q 26.265625 48 22.1875 43.046875 
Q 18.109375 38.09375 18.109375 28.8125 
L 18.109375 0 
L 9.078125 0 
L 9.078125 54.6875 
L 18.109375 54.6875 
L 18.109375 46.1875 
Q 20.953125 51.171875 25.484375 53.578125 
Q 30.03125 56 36.53125 56 
Q 37.453125 56 38.578125 55.875 
Q 39.703125 55.765625 41.0625 55.515625 
z
" id="DejaVuSans-114"/>
      <path d="M 17.921875 72.90625 
L 17.921875 45.796875 
L 9.625 45.796875 
L 9.625 72.90625 
z
" id="DejaVuSans-39"/>
      <path d="M 44.28125 53.078125 
L 44.28125 44.578125 
Q 40.484375 46.53125 36.375 47.5 
Q 32.28125 48.484375 27.875 48.484375 
Q 21.1875 48.484375 17.84375 46.4375 
Q 14.5 44.390625 14.5 40.28125 
Q 14.5 37.15625 16.890625 35.375 
Q 19.28125 33.59375 26.515625 31.984375 
L 29.59375 31.296875 
Q 39.15625 29.25 43.1875 25.515625 
Q 47.21875 21.78125 47.21875 15.09375 
Q 47.21875 7.46875 41.1875 3.015625 
Q 35.15625 -1.421875 24.609375 -1.421875 
Q 20.21875 -1.421875 15.453125 -0.5625 
Q 10.6875 0.296875 5.421875 2 
L 5.421875 11.28125 
Q 10.40625 8.6875 15.234375 7.390625 
Q 20.0625 6.109375 24.8125 6.109375 
Q 31.15625 6.109375 34.5625 8.28125 
Q 37.984375 10.453125 37.984375 14.40625 
Q 37.984375 18.0625 35.515625 20.015625 
Q 33.0625 21.96875 24.703125 23.78125 
L 21.578125 24.515625 
Q 13.234375 26.265625 9.515625 29.90625 
Q 5.8125 33.546875 5.8125 39.890625 
Q 5.8125 47.609375 11.28125 51.796875 
Q 16.75 56 26.8125 56 
Q 31.78125 56 36.171875 55.265625 
Q 40.578125 54.546875 44.28125 53.078125 
z
" id="DejaVuSans-115"/>
      <path d="M 18.109375 8.203125 
L 18.109375 -20.796875 
L 9.078125 -20.796875 
L 9.078125 54.6875 
L 18.109375 54.6875 
L 18.109375 46.390625 
Q 20.953125 51.265625 25.265625 53.625 
Q 29.59375 56 35.59375 56 
Q 45.5625 56 51.78125 48.09375 
Q 58.015625 40.1875 58.015625 27.296875 
Q 58.015625 14.40625 51.78125 6.484375 
Q 45.5625 -1.421875 35.59375 -1.421875 
Q 29.59375 -1.421875 25.265625 0.953125 
Q 20.953125 3.328125 18.109375 8.203125 
z
M 48.6875 27.296875 
Q 48.6875 37.203125 44.609375 42.84375 
Q 40.53125 48.484375 33.40625 48.484375 
Q 26.265625 48.484375 22.1875 42.84375 
Q 18.109375 37.203125 18.109375 27.296875 
Q 18.109375 17.390625 22.1875 11.75 
Q 26.265625 6.109375 33.40625 6.109375 
Q 40.53125 6.109375 44.609375 11.75 
Q 48.6875 17.390625 48.6875 27.296875 
z
" id="DejaVuSans-112"/>
      <path d="M 11.71875 12.40625 
L 22.015625 12.40625 
L 22.015625 0 
L 11.71875 0 
z
M 11.71875 51.703125 
L 22.015625 51.703125 
L 22.015625 39.3125 
L 11.71875 39.3125 
z
" id="DejaVuSans-58"/>
      <path d="M 30.609375 48.390625 
Q 23.390625 48.390625 19.1875 42.75 
Q 14.984375 37.109375 14.984375 27.296875 
Q 14.984375 17.484375 19.15625 11.84375 
Q 23.34375 6.203125 30.609375 6.203125 
Q 37.796875 6.203125 41.984375 11.859375 
Q 46.1875 17.53125 46.1875 27.296875 
Q 46.1875 37.015625 41.984375 42.703125 
Q 37.796875 48.390625 30.609375 48.390625 
z
M 30.609375 56 
Q 42.328125 56 49.015625 48.375 
Q 55.71875 40.765625 55.71875 27.296875 
Q 55.71875 13.875 49.015625 6.21875 
Q 42.328125 -1.421875 30.609375 -1.421875 
Q 18.84375 -1.421875 12.171875 6.21875 
Q 5.515625 13.875 5.515625 27.296875 
Q 5.515625 40.765625 12.171875 48.375 
Q 18.84375 56 30.609375 56 
z
" id="DejaVuSans-111"/>
      <path d="M 48.78125 52.59375 
L 48.78125 44.1875 
Q 44.96875 46.296875 41.140625 47.34375 
Q 37.3125 48.390625 33.40625 48.390625 
Q 24.65625 48.390625 19.8125 42.84375 
Q 14.984375 37.3125 14.984375 27.296875 
Q 14.984375 17.28125 19.8125 11.734375 
Q 24.65625 6.203125 33.40625 6.203125 
Q 37.3125 6.203125 41.140625 7.25 
Q 44.96875 8.296875 48.78125 10.40625 
L 48.78125 2.09375 
Q 45.015625 0.34375 40.984375 -0.53125 
Q 36.96875 -1.421875 32.421875 -1.421875 
Q 20.0625 -1.421875 12.78125 6.34375 
Q 5.515625 14.109375 5.515625 27.296875 
Q 5.515625 40.671875 12.859375 48.328125 
Q 20.21875 56 33.015625 56 
Q 37.15625 56 41.109375 55.140625 
Q 45.0625 54.296875 48.78125 52.59375 
z
" id="DejaVuSans-99"/>
      <path d="M 53.515625 70.515625 
L 53.515625 60.890625 
Q 47.90625 63.578125 42.921875 64.890625 
Q 37.9375 66.21875 33.296875 66.21875 
Q 25.25 66.21875 20.875 63.09375 
Q 16.5 59.96875 16.5 54.203125 
Q 16.5 49.359375 19.40625 46.890625 
Q 22.3125 44.4375 30.421875 42.921875 
L 36.375 41.703125 
Q 47.40625 39.59375 52.65625 34.296875 
Q 57.90625 29 57.90625 20.125 
Q 57.90625 9.515625 50.796875 4.046875 
Q 43.703125 -1.421875 29.984375 -1.421875 
Q 24.8125 -1.421875 18.96875 -0.25 
Q 13.140625 0.921875 6.890625 3.21875 
L 6.890625 13.375 
Q 12.890625 10.015625 18.65625 8.296875 
Q 24.421875 6.59375 29.984375 6.59375 
Q 38.421875 6.59375 43.015625 9.90625 
Q 47.609375 13.234375 47.609375 19.390625 
Q 47.609375 24.75 44.3125 27.78125 
Q 41.015625 30.8125 33.5 32.328125 
L 27.484375 33.5 
Q 16.453125 35.6875 11.515625 40.375 
Q 6.59375 45.0625 6.59375 53.421875 
Q 6.59375 63.09375 13.40625 68.65625 
Q 20.21875 74.21875 32.171875 74.21875 
Q 37.3125 74.21875 42.625 73.28125 
Q 47.953125 72.359375 53.515625 70.515625 
z
" id="DejaVuSans-83"/>
      <path d="M 9.421875 54.6875 
L 18.40625 54.6875 
L 18.40625 0 
L 9.421875 0 
z
M 9.421875 75.984375 
L 18.40625 75.984375 
L 18.40625 64.59375 
L 9.421875 64.59375 
z
" id="DejaVuSans-105"/>
      <path d="M 5.515625 54.6875 
L 48.1875 54.6875 
L 48.1875 46.484375 
L 14.40625 7.171875 
L 48.1875 7.171875 
L 48.1875 0 
L 4.296875 0 
L 4.296875 8.203125 
L 38.09375 47.515625 
L 5.515625 47.515625 
z
" id="DejaVuSans-122"/>
      <path d="M 31 75.875 
Q 24.46875 64.65625 21.28125 53.65625 
Q 18.109375 42.671875 18.109375 31.390625 
Q 18.109375 20.125 21.3125 9.0625 
Q 24.515625 -2 31 -13.1875 
L 23.1875 -13.1875 
Q 15.875 -1.703125 12.234375 9.375 
Q 8.59375 20.453125 8.59375 31.390625 
Q 8.59375 42.28125 12.203125 53.3125 
Q 15.828125 64.359375 23.1875 75.875 
z
" id="DejaVuSans-40"/>
      <path d="M 8.59375 75.984375 
L 29.296875 75.984375 
L 29.296875 69 
L 17.578125 69 
L 17.578125 -6.203125 
L 29.296875 -6.203125 
L 29.296875 -13.1875 
L 8.59375 -13.1875 
z
" id="DejaVuSans-91"/>
      <path d="M 11.71875 12.40625 
L 22.015625 12.40625 
L 22.015625 4 
L 14.015625 -11.625 
L 7.71875 -11.625 
L 11.71875 4 
z
" id="DejaVuSans-44"/>
      <path d="M 30.421875 75.984375 
L 30.421875 -13.1875 
L 9.71875 -13.1875 
L 9.71875 -6.203125 
L 21.390625 -6.203125 
L 21.390625 69 
L 9.71875 69 
L 9.71875 75.984375 
z
" id="DejaVuSans-93"/>
      <path d="M 8.015625 75.875 
L 15.828125 75.875 
Q 23.140625 64.359375 26.78125 53.3125 
Q 30.421875 42.28125 30.421875 31.390625 
Q 30.421875 20.453125 26.78125 9.375 
Q 23.140625 -1.703125 15.828125 -13.1875 
L 8.015625 -13.1875 
Q 14.5 -2 17.703125 9.0625 
Q 20.90625 20.125 20.90625 31.390625 
Q 20.90625 42.671875 17.703125 53.65625 
Q 14.5 64.65625 8.015625 75.875 
z
" id="DejaVuSans-41"/>
      <path d="M 8.6875 72.90625 
L 18.609375 72.90625 
L 18.609375 28.609375 
Q 18.609375 16.890625 22.84375 11.734375 
Q 27.09375 6.59375 36.625 6.59375 
Q 46.09375 6.59375 50.34375 11.734375 
Q 54.59375 16.890625 54.59375 28.609375 
L 54.59375 72.90625 
L 64.5 72.90625 
L 64.5 27.390625 
Q 64.5 13.140625 57.4375 5.859375 
Q 50.390625 -1.421875 36.625 -1.421875 
Q 22.796875 -1.421875 15.734375 5.859375 
Q 8.6875 13.140625 8.6875 27.390625 
z
" id="DejaVuSans-85"/>
      <path d="M 54.890625 33.015625 
L 54.890625 0 
L 45.90625 0 
L 45.90625 32.71875 
Q 45.90625 40.484375 42.875 44.328125 
Q 39.84375 48.1875 33.796875 48.1875 
Q 26.515625 48.1875 22.3125 43.546875 
Q 18.109375 38.921875 18.109375 30.90625 
L 18.109375 0 
L 9.078125 0 
L 9.078125 54.6875 
L 18.109375 54.6875 
L 18.109375 46.1875 
Q 21.34375 51.125 25.703125 53.5625 
Q 30.078125 56 35.796875 56 
Q 45.21875 56 50.046875 50.171875 
Q 54.890625 44.34375 54.890625 33.015625 
z
" id="DejaVuSans-110"/>
      <path d="M 37.109375 75.984375 
L 37.109375 68.5 
L 28.515625 68.5 
Q 23.6875 68.5 21.796875 66.546875 
Q 19.921875 64.59375 19.921875 59.515625 
L 19.921875 54.6875 
L 34.71875 54.6875 
L 34.71875 47.703125 
L 19.921875 47.703125 
L 19.921875 0 
L 10.890625 0 
L 10.890625 47.703125 
L 2.296875 47.703125 
L 2.296875 54.6875 
L 10.890625 54.6875 
L 10.890625 58.5 
Q 10.890625 67.625 15.140625 71.796875 
Q 19.390625 75.984375 28.609375 75.984375 
z
" id="DejaVuSans-102"/>
      <path d="M 52 44.1875 
Q 55.375 50.25 60.0625 53.125 
Q 64.75 56 71.09375 56 
Q 79.640625 56 84.28125 50.015625 
Q 88.921875 44.046875 88.921875 33.015625 
L 88.921875 0 
L 79.890625 0 
L 79.890625 32.71875 
Q 79.890625 40.578125 77.09375 44.375 
Q 74.3125 48.1875 68.609375 48.1875 
Q 61.625 48.1875 57.5625 43.546875 
Q 53.515625 38.921875 53.515625 30.90625 
L 53.515625 0 
L 44.484375 0 
L 44.484375 32.71875 
Q 44.484375 40.625 41.703125 44.40625 
Q 38.921875 48.1875 33.109375 48.1875 
Q 26.21875 48.1875 22.15625 43.53125 
Q 18.109375 38.875 18.109375 30.90625 
L 18.109375 0 
L 9.078125 0 
L 9.078125 54.6875 
L 18.109375 54.6875 
L 18.109375 46.1875 
Q 21.1875 51.21875 25.484375 53.609375 
Q 29.78125 56 35.6875 56 
Q 41.65625 56 45.828125 52.96875 
Q 50 49.953125 52 44.1875 
z
" id="DejaVuSans-109"/>
      <path d="M 45.40625 27.984375 
Q 45.40625 37.75 41.375 43.109375 
Q 37.359375 48.484375 30.078125 48.484375 
Q 22.859375 48.484375 18.828125 43.109375 
Q 14.796875 37.75 14.796875 27.984375 
Q 14.796875 18.265625 18.828125 12.890625 
Q 22.859375 7.515625 30.078125 7.515625 
Q 37.359375 7.515625 41.375 12.890625 
Q 45.40625 18.265625 45.40625 27.984375 
z
M 54.390625 6.78125 
Q 54.390625 -7.171875 48.1875 -13.984375 
Q 42 -20.796875 29.203125 -20.796875 
Q 24.46875 -20.796875 20.265625 -20.09375 
Q 16.0625 -19.390625 12.109375 -17.921875 
L 12.109375 -9.1875 
Q 16.0625 -11.328125 19.921875 -12.34375 
Q 23.78125 -13.375 27.78125 -13.375 
Q 36.625 -13.375 41.015625 -8.765625 
Q 45.40625 -4.15625 45.40625 5.171875 
L 45.40625 9.625 
Q 42.625 4.78125 38.28125 2.390625 
Q 33.9375 0 27.875 0 
Q 17.828125 0 11.671875 7.65625 
Q 5.515625 15.328125 5.515625 27.984375 
Q 5.515625 40.671875 11.671875 48.328125 
Q 17.828125 56 27.875 56 
Q 33.9375 56 38.28125 53.609375 
Q 42.625 51.21875 45.40625 46.390625 
L 45.40625 54.6875 
L 54.390625 54.6875 
z
" id="DejaVuSans-103"/>
     </defs>
     <use xlink:href="#DejaVuSans-49"/>
     <use x="63.623047" xlink:href="#DejaVuSans-50"/>
     <use x="127.246094" xlink:href="#DejaVuSans-116"/>
     <use x="166.455078" xlink:href="#DejaVuSans-104"/>
     <use x="229.833984" xlink:href="#DejaVuSans-32"/>
     <use x="261.621094" xlink:href="#DejaVuSans-108"/>
     <use x="289.404297" xlink:href="#DejaVuSans-97"/>
     <use x="350.683594" xlink:href="#DejaVuSans-121"/>
     <use x="409.863281" xlink:href="#DejaVuSans-101"/>
     <use x="471.386719" xlink:href="#DejaVuSans-114"/>
     <use x="512.5" xlink:href="#DejaVuSans-39"/>
     <use x="539.990234" xlink:href="#DejaVuSans-115"/>
     <use x="592.089844" xlink:href="#DejaVuSans-32"/>
     <use x="623.876953" xlink:href="#DejaVuSans-115"/>
     <use x="675.976562" xlink:href="#DejaVuSans-104"/>
     <use x="739.355469" xlink:href="#DejaVuSans-97"/>
     <use x="800.634766" xlink:href="#DejaVuSans-112"/>
     <use x="864.111328" xlink:href="#DejaVuSans-101"/>
     <use x="925.634766" xlink:href="#DejaVuSans-58"/>
     <use x="959.326172" xlink:href="#DejaVuSans-32"/>
     <use x="991.113281" xlink:href="#DejaVuSans-116"/>
     <use x="1030.322266" xlink:href="#DejaVuSans-111"/>
     <use x="1091.503906" xlink:href="#DejaVuSans-114"/>
     <use x="1130.367188" xlink:href="#DejaVuSans-99"/>
     <use x="1185.347656" xlink:href="#DejaVuSans-104"/>
     <use x="1248.726562" xlink:href="#DejaVuSans-46"/>
     <use x="1280.513672" xlink:href="#DejaVuSans-83"/>
     <use x="1343.990234" xlink:href="#DejaVuSans-105"/>
     <use x="1371.773438" xlink:href="#DejaVuSans-122"/>
     <use x="1424.263672" xlink:href="#DejaVuSans-101"/>
     <use x="1485.787109" xlink:href="#DejaVuSans-40"/>
     <use x="1524.800781" xlink:href="#DejaVuSans-91"/>
     <use x="1563.814453" xlink:href="#DejaVuSans-49"/>
     <use x="1627.4375" xlink:href="#DejaVuSans-44"/>
     <use x="1659.224609" xlink:href="#DejaVuSans-32"/>
     <use x="1691.011719" xlink:href="#DejaVuSans-49"/>
     <use x="1754.634766" xlink:href="#DejaVuSans-44"/>
     <use x="1786.421875" xlink:href="#DejaVuSans-32"/>
     <use x="1818.208984" xlink:href="#DejaVuSans-49"/>
     <use x="1881.832031" xlink:href="#DejaVuSans-48"/>
     <use x="1945.455078" xlink:href="#DejaVuSans-50"/>
     <use x="2009.078125" xlink:href="#DejaVuSans-52"/>
     <use x="2072.701172" xlink:href="#DejaVuSans-93"/>
     <use x="2111.714844" xlink:href="#DejaVuSans-41"/>
     <use x="2150.728516" xlink:href="#DejaVuSans-46"/>
     <use x="2182.515625" xlink:href="#DejaVuSans-32"/>
     <use x="2214.302734" xlink:href="#DejaVuSans-85"/>
     <use x="2287.496094" xlink:href="#DejaVuSans-110"/>
     <use x="2350.875" xlink:href="#DejaVuSans-105"/>
     <use x="2378.658203" xlink:href="#DejaVuSans-102"/>
     <use x="2413.863281" xlink:href="#DejaVuSans-111"/>
     <use x="2475.044922" xlink:href="#DejaVuSans-114"/>
     <use x="2514.408203" xlink:href="#DejaVuSans-109"/>
     <use x="2611.820312" xlink:href="#DejaVuSans-108"/>
     <use x="2639.603516" xlink:href="#DejaVuSans-121"/>
     <use x="2698.783203" xlink:href="#DejaVuSans-32"/>
     <use x="2730.570312" xlink:href="#DejaVuSans-115"/>
     <use x="2782.669922" xlink:href="#DejaVuSans-97"/>
     <use x="2843.949219" xlink:href="#DejaVuSans-109"/>
     <use x="2941.361328" xlink:href="#DejaVuSans-112"/>
     <use x="3004.837891" xlink:href="#DejaVuSans-108"/>
     <use x="3032.621094" xlink:href="#DejaVuSans-105"/>
     <use x="3060.404297" xlink:href="#DejaVuSans-110"/>
     <use x="3123.783203" xlink:href="#DejaVuSans-103"/>
     <use x="3187.259766" xlink:href="#DejaVuSans-32"/>
     <use x="3219.046875" xlink:href="#DejaVuSans-49"/>
     <use x="3282.669922" xlink:href="#DejaVuSans-54"/>
     <use x="3346.292969" xlink:href="#DejaVuSans-32"/>
     <use x="3378.080078" xlink:href="#DejaVuSans-99"/>
     <use x="3433.060547" xlink:href="#DejaVuSans-104"/>
     <use x="3496.439453" xlink:href="#DejaVuSans-97"/>
     <use x="3557.71875" xlink:href="#DejaVuSans-110"/>
     <use x="3621.097656" xlink:href="#DejaVuSans-110"/>
     <use x="3684.476562" xlink:href="#DejaVuSans-101"/>
     <use x="3746" xlink:href="#DejaVuSans-108"/>
     <use x="3773.783203" xlink:href="#DejaVuSans-115"/>
    </g>
   </g>
  </g>
 </g>
 <defs>
  <clipPath id="p298e7aa298">
   <rect height="266.112" width="892.8" x="144" y="41.472"/>
  </clipPath>
 </defs>
</svg>
