<?xml version="1.0" encoding="utf-8" standalone="no"?>
<!DOCTYPE svg PUBLIC "-//W3C//DTD SVG 1.1//EN"
  "http://www.w3.org/Graphics/SVG/1.1/DTD/svg11.dtd">
<!-- Created with matplotlib (https://matplotlib.org/) -->
<svg height="345.6pt" version="1.1" viewBox="0 0 1152 345.6" width="1152pt" xmlns="http://www.w3.org/2000/svg" xmlns:xlink="http://www.w3.org/1999/xlink">
 <metadata>
  <rdf:RDF xmlns:cc="http://creativecommons.org/ns#" xmlns:dc="http://purl.org/dc/elements/1.1/" xmlns:rdf="http://www.w3.org/1999/02/22-rdf-syntax-ns#">
   <cc:Work>
    <dc:type rdf:resource="http://purl.org/dc/dcmitype/StillImage"/>
    <dc:date>2021-12-24T07:21:34.167172</dc:date>
    <dc:format>image/svg+xml</dc:format>
    <dc:creator>
     <cc:Agent>
      <dc:title>Matplotlib v3.3.3, https://matplotlib.org/</dc:title>
     </cc:Agent>
    </dc:creator>
   </cc:Work>
  </rdf:RDF>
 </metadata>
 <defs>
  <style type="text/css">*{stroke-linecap:butt;stroke-linejoin:round;}</style>
 </defs>
 <g id="figure_1">
  <g id="patch_1">
   <path d="M 0 345.6 
L 1152 345.6 
L 1152 0 
L 0 0 
z
" style="fill:#ffffff;"/>
  </g>
  <g id="axes_1">
   <g id="patch_2">
    <path d="M 144 307.584 
L 1036.8 307.584 
L 1036.8 41.472 
L 144 41.472 
z
" style="fill:#ffffff;"/>
   </g>
   <g id="matplotlib.axis_1">
    <g id="xtick_1">
     <g id="line2d_1">
      <defs>
       <path d="M 0 0 
L 0 3.5 
" id="m529538fc70" style="stroke:#000000;stroke-width:0.8;"/>
      </defs>
      <g>
       <use style="stroke:#000000;stroke-width:0.8;" x="184.581818" xlink:href="#m529538fc70" y="307.584"/>
      </g>
     </g>
     <g id="text_1">
      <!-- 0 -->
      <g transform="translate(181.400568 322.182437)scale(0.1 -0.1)">
       <defs>
        <path d="M 31.78125 66.40625 
Q 24.171875 66.40625 20.328125 58.90625 
Q 16.5 51.421875 16.5 36.375 
Q 16.5 21.390625 20.328125 13.890625 
Q 24.171875 6.390625 31.78125 6.390625 
Q 39.453125 6.390625 43.28125 13.890625 
Q 47.125 21.390625 47.125 36.375 
Q 47.125 51.421875 43.28125 58.90625 
Q 39.453125 66.40625 31.78125 66.40625 
z
M 31.78125 74.21875 
Q 44.046875 74.21875 50.515625 64.515625 
Q 56.984375 54.828125 56.984375 36.375 
Q 56.984375 17.96875 50.515625 8.265625 
Q 44.046875 -1.421875 31.78125 -1.421875 
Q 19.53125 -1.421875 13.0625 8.265625 
Q 6.59375 17.96875 6.59375 36.375 
Q 6.59375 54.828125 13.0625 64.515625 
Q 19.53125 74.21875 31.78125 74.21875 
z
" id="DejaVuSans-48"/>
       </defs>
       <use xlink:href="#DejaVuSans-48"/>
      </g>
     </g>
    </g>
    <g id="xtick_2">
     <g id="line2d_2">
      <g>
       <use style="stroke:#000000;stroke-width:0.8;" x="343.414766" xlink:href="#m529538fc70" y="307.584"/>
      </g>
     </g>
     <g id="text_2">
      <!-- 100 -->
      <g transform="translate(333.871016 322.182437)scale(0.1 -0.1)">
       <defs>
        <path d="M 12.40625 8.296875 
L 28.515625 8.296875 
L 28.515625 63.921875 
L 10.984375 60.40625 
L 10.984375 69.390625 
L 28.421875 72.90625 
L 38.28125 72.90625 
L 38.28125 8.296875 
L 54.390625 8.296875 
L 54.390625 0 
L 12.40625 0 
z
" id="DejaVuSans-49"/>
       </defs>
       <use xlink:href="#DejaVuSans-49"/>
       <use x="63.623047" xlink:href="#DejaVuSans-48"/>
       <use x="127.246094" xlink:href="#DejaVuSans-48"/>
      </g>
     </g>
    </g>
    <g id="xtick_3">
     <g id="line2d_3">
      <g>
       <use style="stroke:#000000;stroke-width:0.8;" x="502.247714" xlink:href="#m529538fc70" y="307.584"/>
      </g>
     </g>
     <g id="text_3">
      <!-- 200 -->
      <g transform="translate(492.703964 322.182437)scale(0.1 -0.1)">
       <defs>
        <path d="M 19.1875 8.296875 
L 53.609375 8.296875 
L 53.609375 0 
L 7.328125 0 
L 7.328125 8.296875 
Q 12.9375 14.109375 22.625 23.890625 
Q 32.328125 33.6875 34.8125 36.53125 
Q 39.546875 41.84375 41.421875 45.53125 
Q 43.3125 49.21875 43.3125 52.78125 
Q 43.3125 58.59375 39.234375 62.25 
Q 35.15625 65.921875 28.609375 65.921875 
Q 23.96875 65.921875 18.8125 64.3125 
Q 13.671875 62.703125 7.8125 59.421875 
L 7.8125 69.390625 
Q 13.765625 71.78125 18.9375 73 
Q 24.125 74.21875 28.421875 74.21875 
Q 39.75 74.21875 46.484375 68.546875 
Q 53.21875 62.890625 53.21875 53.421875 
Q 53.21875 48.921875 51.53125 44.890625 
Q 49.859375 40.875 45.40625 35.40625 
Q 44.1875 33.984375 37.640625 27.21875 
Q 31.109375 20.453125 19.1875 8.296875 
z
" id="DejaVuSans-50"/>
       </defs>
       <use xlink:href="#DejaVuSans-50"/>
       <use x="63.623047" xlink:href="#DejaVuSans-48"/>
       <use x="127.246094" xlink:href="#DejaVuSans-48"/>
      </g>
     </g>
    </g>
    <g id="xtick_4">
     <g id="line2d_4">
      <g>
       <use style="stroke:#000000;stroke-width:0.8;" x="661.080662" xlink:href="#m529538fc70" y="307.584"/>
      </g>
     </g>
     <g id="text_4">
      <!-- 300 -->
      <g transform="translate(651.536912 322.182437)scale(0.1 -0.1)">
       <defs>
        <path d="M 40.578125 39.3125 
Q 47.65625 37.796875 51.625 33 
Q 55.609375 28.21875 55.609375 21.1875 
Q 55.609375 10.40625 48.1875 4.484375 
Q 40.765625 -1.421875 27.09375 -1.421875 
Q 22.515625 -1.421875 17.65625 -0.515625 
Q 12.796875 0.390625 7.625 2.203125 
L 7.625 11.71875 
Q 11.71875 9.328125 16.59375 8.109375 
Q 21.484375 6.890625 26.8125 6.890625 
Q 36.078125 6.890625 40.9375 10.546875 
Q 45.796875 14.203125 45.796875 21.1875 
Q 45.796875 27.640625 41.28125 31.265625 
Q 36.765625 34.90625 28.71875 34.90625 
L 20.21875 34.90625 
L 20.21875 43.015625 
L 29.109375 43.015625 
Q 36.375 43.015625 40.234375 45.921875 
Q 44.09375 48.828125 44.09375 54.296875 
Q 44.09375 59.90625 40.109375 62.90625 
Q 36.140625 65.921875 28.71875 65.921875 
Q 24.65625 65.921875 20.015625 65.03125 
Q 15.375 64.15625 9.8125 62.3125 
L 9.8125 71.09375 
Q 15.4375 72.65625 20.34375 73.4375 
Q 25.25 74.21875 29.59375 74.21875 
Q 40.828125 74.21875 47.359375 69.109375 
Q 53.90625 64.015625 53.90625 55.328125 
Q 53.90625 49.265625 50.4375 45.09375 
Q 46.96875 40.921875 40.578125 39.3125 
z
" id="DejaVuSans-51"/>
       </defs>
       <use xlink:href="#DejaVuSans-51"/>
       <use x="63.623047" xlink:href="#DejaVuSans-48"/>
       <use x="127.246094" xlink:href="#DejaVuSans-48"/>
      </g>
     </g>
    </g>
    <g id="xtick_5">
     <g id="line2d_5">
      <g>
       <use style="stroke:#000000;stroke-width:0.8;" x="819.91361" xlink:href="#m529538fc70" y="307.584"/>
      </g>
     </g>
     <g id="text_5">
      <!-- 400 -->
      <g transform="translate(810.36986 322.182437)scale(0.1 -0.1)">
       <defs>
        <path d="M 37.796875 64.3125 
L 12.890625 25.390625 
L 37.796875 25.390625 
z
M 35.203125 72.90625 
L 47.609375 72.90625 
L 47.609375 25.390625 
L 58.015625 25.390625 
L 58.015625 17.1875 
L 47.609375 17.1875 
L 47.609375 0 
L 37.796875 0 
L 37.796875 17.1875 
L 4.890625 17.1875 
L 4.890625 26.703125 
z
" id="DejaVuSans-52"/>
       </defs>
       <use xlink:href="#DejaVuSans-52"/>
       <use x="63.623047" xlink:href="#DejaVuSans-48"/>
       <use x="127.246094" xlink:href="#DejaVuSans-48"/>
      </g>
     </g>
    </g>
    <g id="xtick_6">
     <g id="line2d_6">
      <g>
       <use style="stroke:#000000;stroke-width:0.8;" x="978.746558" xlink:href="#m529538fc70" y="307.584"/>
      </g>
     </g>
     <g id="text_6">
      <!-- 500 -->
      <g transform="translate(969.202808 322.182437)scale(0.1 -0.1)">
       <defs>
        <path d="M 10.796875 72.90625 
L 49.515625 72.90625 
L 49.515625 64.59375 
L 19.828125 64.59375 
L 19.828125 46.734375 
Q 21.96875 47.46875 24.109375 47.828125 
Q 26.265625 48.1875 28.421875 48.1875 
Q 40.625 48.1875 47.75 41.5 
Q 54.890625 34.8125 54.890625 23.390625 
Q 54.890625 11.625 47.5625 5.09375 
Q 40.234375 -1.421875 26.90625 -1.421875 
Q 22.3125 -1.421875 17.546875 -0.640625 
Q 12.796875 0.140625 7.71875 1.703125 
L 7.71875 11.625 
Q 12.109375 9.234375 16.796875 8.0625 
Q 21.484375 6.890625 26.703125 6.890625 
Q 35.15625 6.890625 40.078125 11.328125 
Q 45.015625 15.765625 45.015625 23.390625 
Q 45.015625 31 40.078125 35.4375 
Q 35.15625 39.890625 26.703125 39.890625 
Q 22.75 39.890625 18.8125 39.015625 
Q 14.890625 38.140625 10.796875 36.28125 
z
" id="DejaVuSans-53"/>
       </defs>
       <use xlink:href="#DejaVuSans-53"/>
       <use x="63.623047" xlink:href="#DejaVuSans-48"/>
       <use x="127.246094" xlink:href="#DejaVuSans-48"/>
      </g>
     </g>
    </g>
   </g>
   <g id="matplotlib.axis_2">
    <g id="ytick_1">
     <g id="line2d_7">
      <defs>
       <path d="M 0 0 
L -3.5 0 
" id="mf1510be596" style="stroke:#000000;stroke-width:0.8;"/>
      </defs>
      <g>
       <use style="stroke:#000000;stroke-width:0.8;" x="144" xlink:href="#mf1510be596" y="285.29691"/>
      </g>
     </g>
     <g id="text_7">
      <!-- −0.3 -->
      <g transform="translate(112.717187 289.096129)scale(0.1 -0.1)">
       <defs>
        <path d="M 10.59375 35.5 
L 73.1875 35.5 
L 73.1875 27.203125 
L 10.59375 27.203125 
z
" id="DejaVuSans-8722"/>
        <path d="M 10.6875 12.40625 
L 21 12.40625 
L 21 0 
L 10.6875 0 
z
" id="DejaVuSans-46"/>
       </defs>
       <use xlink:href="#DejaVuSans-8722"/>
       <use x="83.789062" xlink:href="#DejaVuSans-48"/>
       <use x="147.412109" xlink:href="#DejaVuSans-46"/>
       <use x="179.199219" xlink:href="#DejaVuSans-51"/>
      </g>
     </g>
    </g>
    <g id="ytick_2">
     <g id="line2d_8">
      <g>
       <use style="stroke:#000000;stroke-width:0.8;" x="144" xlink:href="#mf1510be596" y="245.396922"/>
      </g>
     </g>
     <g id="text_8">
      <!-- −0.2 -->
      <g transform="translate(112.717187 249.196141)scale(0.1 -0.1)">
       <use xlink:href="#DejaVuSans-8722"/>
       <use x="83.789062" xlink:href="#DejaVuSans-48"/>
       <use x="147.412109" xlink:href="#DejaVuSans-46"/>
       <use x="179.199219" xlink:href="#DejaVuSans-50"/>
      </g>
     </g>
    </g>
    <g id="ytick_3">
     <g id="line2d_9">
      <g>
       <use style="stroke:#000000;stroke-width:0.8;" x="144" xlink:href="#mf1510be596" y="205.496934"/>
      </g>
     </g>
     <g id="text_9">
      <!-- −0.1 -->
      <g transform="translate(112.717187 209.296153)scale(0.1 -0.1)">
       <use xlink:href="#DejaVuSans-8722"/>
       <use x="83.789062" xlink:href="#DejaVuSans-48"/>
       <use x="147.412109" xlink:href="#DejaVuSans-46"/>
       <use x="179.199219" xlink:href="#DejaVuSans-49"/>
      </g>
     </g>
    </g>
    <g id="ytick_4">
     <g id="line2d_10">
      <g>
       <use style="stroke:#000000;stroke-width:0.8;" x="144" xlink:href="#mf1510be596" y="165.596946"/>
      </g>
     </g>
     <g id="text_10">
      <!-- 0.0 -->
      <g transform="translate(121.096875 169.396165)scale(0.1 -0.1)">
       <use xlink:href="#DejaVuSans-48"/>
       <use x="63.623047" xlink:href="#DejaVuSans-46"/>
       <use x="95.410156" xlink:href="#DejaVuSans-48"/>
      </g>
     </g>
    </g>
    <g id="ytick_5">
     <g id="line2d_11">
      <g>
       <use style="stroke:#000000;stroke-width:0.8;" x="144" xlink:href="#mf1510be596" y="125.696958"/>
      </g>
     </g>
     <g id="text_11">
      <!-- 0.1 -->
      <g transform="translate(121.096875 129.496177)scale(0.1 -0.1)">
       <use xlink:href="#DejaVuSans-48"/>
       <use x="63.623047" xlink:href="#DejaVuSans-46"/>
       <use x="95.410156" xlink:href="#DejaVuSans-49"/>
      </g>
     </g>
    </g>
    <g id="ytick_6">
     <g id="line2d_12">
      <g>
       <use style="stroke:#000000;stroke-width:0.8;" x="144" xlink:href="#mf1510be596" y="85.79697"/>
      </g>
     </g>
     <g id="text_12">
      <!-- 0.2 -->
      <g transform="translate(121.096875 89.596189)scale(0.1 -0.1)">
       <use xlink:href="#DejaVuSans-48"/>
       <use x="63.623047" xlink:href="#DejaVuSans-46"/>
       <use x="95.410156" xlink:href="#DejaVuSans-50"/>
      </g>
     </g>
    </g>
    <g id="ytick_7">
     <g id="line2d_13">
      <g>
       <use style="stroke:#000000;stroke-width:0.8;" x="144" xlink:href="#mf1510be596" y="45.896982"/>
      </g>
     </g>
     <g id="text_13">
      <!-- 0.3 -->
      <g transform="translate(121.096875 49.696201)scale(0.1 -0.1)">
       <use xlink:href="#DejaVuSans-48"/>
       <use x="63.623047" xlink:href="#DejaVuSans-46"/>
       <use x="95.410156" xlink:href="#DejaVuSans-51"/>
      </g>
     </g>
    </g>
   </g>
   <g id="line2d_14">
    <path clip-path="url(#p4ce75bf591)" d="M 184.581818 168.56437 
L 186.170148 163.560892 
L 187.758477 163.720877 
L 194.111795 162.205622 
L 197.288454 161.793593 
L 200.465113 161.670502 
L 203.641772 161.818247 
L 206.818431 162.208516 
L 209.99509 162.807242 
L 214.760078 164.018264 
L 219.525067 165.505004 
L 225.878385 167.754016 
L 238.58502 172.595703 
L 251.291656 177.336457 
L 260.821633 180.645705 
L 270.35161 183.695708 
L 279.881587 186.476076 
L 289.411564 188.990807 
L 298.941541 191.25142 
L 308.471518 193.273398 
L 318.001494 195.074021 
L 327.531471 196.671325 
L 338.649778 198.301524 
L 349.768084 199.706166 
L 362.47472 201.067798 
L 375.181356 202.202764 
L 389.476321 203.247277 
L 405.359616 204.165055 
L 422.83124 204.932466 
L 441.891194 205.538631 
L 464.127806 206.010768 
L 489.541078 206.321587 
L 521.307668 206.47363 
L 562.604234 206.428218 
L 622.960754 206.115315 
L 923.155026 204.278978 
L 993.041523 204.011787 
L 994.629852 204.985298 
L 996.218182 219.075685 
L 996.218182 219.075685 
" style="fill:none;stroke:#1f77b4;stroke-linecap:square;stroke-width:1.5;"/>
   </g>
   <g id="line2d_15">
    <path clip-path="url(#p4ce75bf591)" d="M 184.581818 164.067509 
L 186.170148 165.916827 
L 187.758477 166.520774 
L 189.346807 167.320917 
L 200.465113 171.566995 
L 213.171749 176.690025 
L 222.701726 180.444217 
L 229.055044 182.736753 
L 235.408362 184.804634 
L 241.761679 186.637585 
L 248.114997 188.245876 
L 254.468315 189.648669 
L 262.409963 191.145277 
L 270.35161 192.39177 
L 278.293257 193.420266 
L 287.823234 194.403653 
L 297.353211 195.148944 
L 306.883188 195.688236 
L 318.001494 196.093711 
L 330.70813 196.308729 
L 343.414766 196.305697 
L 357.709731 196.093649 
L 375.181356 195.603413 
L 395.829639 194.787988 
L 422.83124 193.475009 
L 464.127806 191.205746 
L 551.485928 186.370176 
L 597.547483 184.067472 
L 642.020708 182.062046 
L 686.493933 180.272645 
L 732.555488 178.635708 
L 781.793702 177.108882 
L 834.208575 175.709405 
L 889.800107 174.446648 
L 951.744956 173.268177 
L 993.041523 172.592307 
L 994.629852 183.34621 
L 996.218182 146.62221 
L 996.218182 146.62221 
" style="fill:none;stroke:#ff7f0e;stroke-linecap:square;stroke-width:1.5;"/>
   </g>
   <g id="line2d_16">
    <path clip-path="url(#p4ce75bf591)" d="M 184.581818 169.276936 
L 186.170148 166.45427 
L 187.758477 165.113767 
L 197.288454 165.983854 
L 208.40676 167.249491 
L 214.760078 167.715062 
L 221.113396 167.935719 
L 227.466714 167.951993 
L 235.408362 167.757247 
L 244.938338 167.295568 
L 256.056645 166.531144 
L 270.35161 165.299001 
L 287.823234 163.549197 
L 313.236506 160.751022 
L 418.066252 148.950255 
L 453.0095 145.357302 
L 486.364419 142.152849 
L 519.719338 139.174225 
L 553.074257 136.419798 
L 586.429176 133.883612 
L 621.372425 131.451411 
L 657.904003 129.142015 
L 694.435581 127.056535 
L 732.555488 125.102199 
L 772.263725 123.288393 
L 813.560292 121.621111 
L 858.033517 120.050898 
L 905.683402 118.599631 
L 956.509945 117.283167 
L 993.041523 116.46067 
L 994.629852 108.621813 
L 996.218182 118.752595 
L 996.218182 118.752595 
" style="fill:none;stroke:#2ca02c;stroke-linecap:square;stroke-width:1.5;"/>
   </g>
   <g id="line2d_17">
    <path clip-path="url(#p4ce75bf591)" d="M 184.581818 162.990526 
L 190.935136 178.744313 
L 195.700125 189.417763 
L 200.465113 199.516404 
L 203.641772 205.84206 
L 206.818431 211.807286 
L 209.99509 217.400095 
L 213.171749 222.620958 
L 216.348408 227.479361 
L 219.525067 231.99055 
L 222.701726 236.173074 
L 225.878385 240.047036 
L 229.055044 243.633292 
L 232.231703 246.951979 
L 235.408362 250.022772 
L 238.58502 252.864061 
L 241.761679 255.493343 
L 246.526668 259.07464 
L 251.291656 262.26466 
L 256.056645 265.107566 
L 260.821633 267.642545 
L 265.586622 269.904106 
L 270.35161 271.922981 
L 275.116598 273.726151 
L 279.881587 275.337648 
L 286.234905 277.224365 
L 292.588223 278.851225 
L 298.941541 280.255555 
L 306.883188 281.745596 
L 314.824835 282.988812 
L 322.766483 284.027752 
L 332.29646 285.053861 
L 343.414766 286.007529 
L 356.121402 286.849301 
L 370.416367 287.559879 
L 387.887991 288.183925 
L 408.536275 288.683174 
L 433.949546 289.065521 
L 465.716136 289.315865 
L 507.012702 289.406059 
L 557.839246 289.284318 
L 619.784095 288.910211 
L 702.377228 288.176779 
L 838.973563 286.705062 
L 993.041523 284.974773 
L 994.629852 295.488 
L 996.218182 223.937049 
L 996.218182 223.937049 
" style="fill:none;stroke:#d62728;stroke-linecap:square;stroke-width:1.5;"/>
   </g>
   <g id="line2d_18">
    <path clip-path="url(#p4ce75bf591)" d="M 184.581818 168.877957 
L 186.170148 165.047608 
L 187.758477 165.75638 
L 189.346807 165.459266 
L 192.523466 165.088552 
L 195.700125 164.462624 
L 198.876783 163.571701 
L 202.053442 162.411265 
L 205.230101 160.994806 
L 208.40676 159.348449 
L 211.583419 157.504908 
L 216.348408 154.4454 
L 222.701726 149.984377 
L 232.231703 142.891377 
L 244.938338 133.420932 
L 252.879986 127.778442 
L 259.233304 123.501505 
L 265.586622 119.467638 
L 271.93994 115.693042 
L 278.293257 112.183977 
L 284.646575 108.9393 
L 290.999893 105.952 
L 297.353211 103.211191 
L 303.706529 100.703276 
L 310.059847 98.413058 
L 316.413165 96.324638 
L 324.354812 93.973442 
L 332.29646 91.881936 
L 340.238107 90.021314 
L 348.179754 88.364863 
L 357.709731 86.6127 
L 367.239708 85.082592 
L 378.358015 83.535402 
L 389.476321 82.203192 
L 402.182957 80.897737 
L 416.477922 79.653735 
L 432.361217 78.492799 
L 451.421171 77.336863 
L 473.657783 76.232641 
L 499.071055 75.203441 
L 529.249315 74.20725 
L 567.369223 73.186474 
L 613.430777 72.185854 
L 670.610639 71.173509 
L 742.085465 70.143839 
L 826.266928 69.161615 
L 924.743355 68.242532 
L 993.041523 67.754134 
L 994.629852 54.894907 
L 996.218182 108.309933 
L 996.218182 108.309933 
" style="fill:none;stroke:#9467bd;stroke-linecap:square;stroke-width:1.5;"/>
   </g>
   <g id="line2d_19">
    <path clip-path="url(#p4ce75bf591)" d="M 184.581818 179.613093 
L 186.170148 163.394209 
L 187.758477 165.224614 
L 189.346807 164.828477 
L 202.053442 165.006757 
L 209.99509 165.451473 
L 222.701726 166.434092 
L 244.938338 168.179374 
L 259.233304 169.049575 
L 275.116598 169.779503 
L 295.764882 170.490127 
L 325.943142 171.28646 
L 359.298061 171.945701 
L 391.06465 172.348669 
L 424.419569 172.538947 
L 462.539477 172.516825 
L 510.189361 172.249298 
L 591.194165 171.527546 
L 719.848853 170.410652 
L 811.971962 169.851365 
L 908.86006 169.495782 
L 993.041523 169.383153 
L 994.629852 147.220437 
L 996.218182 231.613572 
L 996.218182 231.613572 
" style="fill:none;stroke:#8c564b;stroke-linecap:square;stroke-width:1.5;"/>
   </g>
   <g id="line2d_20">
    <path clip-path="url(#p4ce75bf591)" d="M 184.581818 170.305337 
L 186.170148 182.851373 
L 187.758477 180.622936 
L 197.288454 184.581343 
L 205.230101 188.16423 
L 213.171749 192.035402 
L 224.290055 197.770559 
L 243.350009 207.651455 
L 251.291656 211.528588 
L 259.233304 215.167025 
L 267.174951 218.532385 
L 275.116598 221.611443 
L 283.058246 224.406832 
L 290.999893 226.932679 
L 298.941541 229.209716 
L 306.883188 231.262005 
L 316.413165 233.463355 
L 325.943142 235.418993 
L 337.061448 237.440692 
L 348.179754 239.232577 
L 360.88639 241.054951 
L 375.181356 242.879204 
L 392.65298 244.861948 
L 411.712934 246.794148 
L 433.949546 248.824581 
L 459.362818 250.92472 
L 489.541078 253.18439 
L 522.895997 255.444685 
L 557.839246 257.587881 
L 595.959153 259.698199 
L 635.66739 261.673362 
L 678.552286 263.580508 
L 723.025511 265.339936 
L 772.263725 267.061248 
L 824.678598 268.667584 
L 881.858459 270.192799 
L 943.803309 271.619056 
L 993.041523 272.651276 
L 994.629852 271.41309 
L 996.218182 236.016867 
L 996.218182 236.016867 
" style="fill:none;stroke:#e377c2;stroke-linecap:square;stroke-width:1.5;"/>
   </g>
   <g id="line2d_21">
    <path clip-path="url(#p4ce75bf591)" d="M 184.581818 160.172712 
L 186.170148 166.102409 
L 187.758477 166.352537 
L 189.346807 165.889885 
L 221.113396 162.21435 
L 229.055044 161.541633 
L 236.996691 161.115991 
L 244.938338 160.908012 
L 254.468315 160.869255 
L 268.763281 161.059944 
L 295.764882 161.704186 
L 329.119801 162.692751 
L 354.533072 163.656722 
L 379.946344 164.841855 
L 408.536275 166.407839 
L 445.067853 168.654338 
L 605.48913 178.82034 
L 651.550685 181.370886 
L 697.61224 183.698391 
L 745.262124 185.877494 
L 794.500338 187.900292 
L 845.326881 189.765141 
L 899.330084 191.523507 
L 956.509945 193.16392 
L 993.041523 194.079295 
L 994.629852 193.034128 
L 996.218182 180.938857 
L 996.218182 180.938857 
" style="fill:none;stroke:#7f7f7f;stroke-linecap:square;stroke-width:1.5;"/>
   </g>
   <g id="line2d_22">
    <path clip-path="url(#p4ce75bf591)" d="M 184.581818 168.774825 
L 186.170148 165.37368 
L 187.758477 164.998712 
L 189.346807 165.299246 
L 195.700125 165.47439 
L 211.583419 166.082343 
L 217.936737 166.069786 
L 224.290055 165.84192 
L 230.643373 165.416488 
L 238.58502 164.663602 
L 249.703327 163.338508 
L 302.1182 156.678933 
L 318.001494 155.038173 
L 335.473119 153.448184 
L 356.121402 151.801469 
L 379.946344 150.136982 
L 406.947945 148.474884 
L 438.714535 146.74735 
L 473.657783 145.069226 
L 511.777691 143.45584 
L 553.074257 141.924314 
L 597.547483 140.489821 
L 646.785696 139.123064 
L 700.788899 137.849007 
L 761.145419 136.655439 
L 827.855257 135.566046 
L 904.095072 134.555535 
L 988.276534 133.665303 
L 993.041523 133.621157 
L 994.629852 143.446645 
L 996.218182 115.748552 
L 996.218182 115.748552 
" style="fill:none;stroke:#bcbd22;stroke-linecap:square;stroke-width:1.5;"/>
   </g>
   <g id="line2d_23">
    <path clip-path="url(#p4ce75bf591)" d="M 184.581818 164.443142 
L 186.170148 167.225208 
L 187.758477 168.480749 
L 192.523466 171.23594 
L 195.700125 172.847145 
L 198.876783 174.280319 
L 202.053442 175.525472 
L 205.230101 176.581683 
L 208.40676 177.454794 
L 211.583419 178.154705 
L 214.760078 178.693368 
L 219.525067 179.226095 
L 224.290055 179.464151 
L 229.055044 179.445051 
L 233.820032 179.203276 
L 238.58502 178.771102 
L 244.938338 177.94996 
L 251.291656 176.907666 
L 259.233304 175.37938 
L 270.35161 172.980025 
L 311.648176 163.776001 
L 324.354812 161.253176 
L 337.061448 158.946754 
L 349.768084 156.860714 
L 362.47472 154.98839 
L 376.769685 153.121413 
L 391.06465 151.485832 
L 406.947945 149.909744 
L 422.83124 148.555043 
L 440.302864 147.283149 
L 459.362818 146.11383 
L 481.599431 144.983934 
L 505.424373 143.995282 
L 534.014304 143.041657 
L 567.369223 142.168054 
L 605.48913 141.396951 
L 651.550685 140.692746 
L 707.142217 140.072133 
L 775.440384 139.54318 
L 859.621847 139.128807 
L 962.863263 138.854271 
L 993.041523 138.800571 
L 994.629852 137.181811 
L 996.218182 78.077109 
L 996.218182 78.077109 
" style="fill:none;stroke:#17becf;stroke-linecap:square;stroke-width:1.5;"/>
   </g>
   <g id="line2d_24">
    <path clip-path="url(#p4ce75bf591)" d="M 184.581818 167.77299 
L 186.170148 165.999546 
L 187.758477 165.542533 
L 189.346807 165.75445 
L 197.288454 165.54318 
L 202.053442 165.188198 
L 206.818431 164.645518 
L 213.171749 163.682692 
L 221.113396 162.219979 
L 232.231703 159.916311 
L 268.763281 152.141888 
L 281.469916 149.752738 
L 294.176552 147.610751 
L 306.883188 145.711732 
L 319.589824 144.033273 
L 333.884789 142.37234 
L 349.768084 140.760428 
L 367.239708 139.214581 
L 387.887991 137.626111 
L 411.712934 136.037086 
L 438.714535 134.473147 
L 468.892795 132.949392 
L 503.836043 131.410223 
L 543.54428 129.888358 
L 588.017506 128.40973 
L 637.25572 126.995462 
L 692.847251 125.625744 
L 754.792101 124.328319 
L 824.678598 123.096101 
L 902.506743 121.951295 
L 993.041523 120.823291 
L 994.629852 129.723363 
L 996.218182 96.349835 
L 996.218182 96.349835 
" style="fill:none;stroke:#1f77b4;stroke-linecap:square;stroke-width:1.5;"/>
   </g>
   <g id="line2d_25">
    <path clip-path="url(#p4ce75bf591)" d="M 184.581818 163.48361 
L 186.170148 165.002884 
L 187.758477 165.508869 
L 189.346807 165.172903 
L 200.465113 164.918561 
L 209.99509 165.038777 
L 259.233304 166.014794 
L 275.116598 166.04382 
L 292.588223 165.839394 
L 313.236506 165.361621 
L 348.179754 164.288749 
L 400.594627 162.717763 
L 441.891194 161.723891 
L 487.952749 160.849283 
L 545.13261 159.999097 
L 619.784095 159.123321 
L 716.672194 158.215167 
L 834.208575 157.345249 
L 959.686604 156.648343 
L 993.041523 156.471898 
L 994.629852 155.36888 
L 996.218182 177.06081 
L 996.218182 177.06081 
" style="fill:none;stroke:#ff7f0e;stroke-linecap:square;stroke-width:1.5;"/>
   </g>
   <g id="line2d_26">
    <path clip-path="url(#p4ce75bf591)" d="M 184.581818 169.048695 
L 186.170148 160.947258 
L 187.758477 162.097713 
L 189.346807 161.472681 
L 192.523466 160.553931 
L 195.700125 159.401669 
L 198.876783 158.033252 
L 203.641772 155.660528 
L 209.99509 152.115088 
L 224.290055 143.662866 
L 235.408362 137.238591 
L 244.938338 132.013474 
L 252.879986 127.909583 
L 260.821633 124.060406 
L 268.763281 120.479897 
L 276.704928 117.172559 
L 284.646575 114.134817 
L 292.588223 111.356337 
L 300.52987 108.822327 
L 308.471518 106.514718 
L 316.413165 104.413759 
L 325.943142 102.136846 
L 335.473119 100.094142 
L 346.591425 97.964085 
L 357.709731 96.06298 
L 370.416367 94.120238 
L 384.711333 92.169772 
L 400.594627 90.230503 
L 419.654581 88.144247 
L 441.891194 85.957505 
L 467.304465 83.699737 
L 495.894396 81.393198 
L 527.660986 79.06063 
L 562.604234 76.728977 
L 599.135812 74.520159 
L 637.25572 72.438208 
L 676.963957 70.48798 
L 719.848853 68.607999 
L 764.322078 66.881622 
L 811.971962 65.257806 
L 862.798506 63.754923 
L 916.801708 62.386933 
L 973.981569 61.163705 
L 993.041523 60.812548 
L 994.629852 53.568 
L 996.218182 114.956167 
L 996.218182 114.956167 
" style="fill:none;stroke:#2ca02c;stroke-linecap:square;stroke-width:1.5;"/>
   </g>
   <g id="line2d_27">
    <path clip-path="url(#p4ce75bf591)" d="M 184.581818 162.931683 
L 186.170148 172.780269 
L 187.758477 171.56023 
L 189.346807 172.135716 
L 192.523466 172.918502 
L 214.760078 179.095578 
L 225.878385 181.813357 
L 238.58502 184.664824 
L 251.291656 187.274545 
L 262.409963 189.342588 
L 273.528269 191.203041 
L 286.234905 193.091039 
L 298.941541 194.759976 
L 314.824835 196.603629 
L 333.884789 198.563488 
L 357.709731 200.776771 
L 394.241309 203.923888 
L 451.421171 208.609719 
L 503.836043 212.700357 
L 549.897598 216.075174 
L 592.782494 218.994011 
L 634.079061 221.585752 
L 675.375627 223.959749 
L 718.260523 226.200126 
L 762.733748 228.29278 
L 808.795303 230.229005 
L 856.445188 232.004409 
L 907.271731 233.667139 
L 959.686604 235.158339 
L 993.041523 235.989493 
L 994.629852 252.964767 
L 996.218182 195.934123 
L 996.218182 195.934123 
" style="fill:none;stroke:#d62728;stroke-linecap:square;stroke-width:1.5;"/>
   </g>
   <g id="line2d_28">
    <path clip-path="url(#p4ce75bf591)" d="M 184.581818 162.47319 
L 186.170148 167.316364 
L 187.758477 166.185393 
L 189.346807 166.518185 
L 194.111795 166.406396 
L 200.465113 166.398304 
L 205.230101 166.638926 
L 208.40676 166.974362 
L 211.583419 167.466536 
L 214.760078 168.116505 
L 219.525067 169.36698 
L 224.290055 170.899072 
L 229.055044 172.646914 
L 235.408362 175.202172 
L 248.114997 180.63068 
L 260.821633 185.95949 
L 270.35161 189.682548 
L 278.293257 192.551863 
L 286.234905 195.193583 
L 294.176552 197.606173 
L 302.1182 199.796 
L 310.059847 201.774249 
L 318.001494 203.554894 
L 327.531471 205.452209 
L 337.061448 207.113542 
L 346.591425 208.564625 
L 357.709731 210.023915 
L 368.828038 211.264338 
L 381.534674 212.452802 
L 395.829639 213.543866 
L 411.712934 214.504529 
L 429.184558 215.314062 
L 448.244512 215.962815 
L 470.481124 216.479597 
L 495.894396 216.830676 
L 526.072656 217.005767 
L 562.604234 216.973851 
L 608.665789 216.689689 
L 672.198968 216.052717 
L 832.620246 214.121572 
L 953.333286 212.818632 
L 993.041523 212.418692 
L 994.629852 227.368227 
L 996.218182 170.563365 
L 996.218182 170.563365 
" style="fill:none;stroke:#9467bd;stroke-linecap:square;stroke-width:1.5;"/>
   </g>
   <g id="line2d_29">
    <path clip-path="url(#p4ce75bf591)" d="M 184.581818 169.090421 
L 186.170148 167.257282 
L 187.758477 166.798636 
L 189.346807 167.050499 
L 190.935136 167.133218 
L 197.288454 168.063526 
L 203.641772 169.229759 
L 211.583419 170.920925 
L 219.525067 172.847863 
L 227.466714 175.024614 
L 236.996691 177.910735 
L 260.821633 185.310909 
L 268.763281 187.519584 
L 276.704928 189.518265 
L 284.646575 191.29567 
L 292.588223 192.856183 
L 300.52987 194.213739 
L 310.059847 195.602049 
L 319.589824 196.762643 
L 330.70813 197.87716 
L 343.414766 198.898785 
L 357.709731 199.804413 
L 375.181356 200.661499 
L 395.829639 201.438117 
L 422.83124 202.217214 
L 457.774489 202.995922 
L 502.247714 203.764585 
L 554.662587 204.447362 
L 613.430777 204.985046 
L 680.140616 205.365249 
L 759.557089 205.587694 
L 862.798506 205.644403 
L 991.453193 205.530212 
L 993.041523 205.496991 
L 994.629852 202.390774 
L 996.218182 183.829624 
L 996.218182 183.829624 
" style="fill:none;stroke:#8c564b;stroke-linecap:square;stroke-width:1.5;"/>
   </g>
   <g id="patch_3">
    <path d="M 144 307.584 
L 144 41.472 
" style="fill:none;stroke:#000000;stroke-linecap:square;stroke-linejoin:miter;stroke-width:0.8;"/>
   </g>
   <g id="patch_4">
    <path d="M 1036.8 307.584 
L 1036.8 41.472 
" style="fill:none;stroke:#000000;stroke-linecap:square;stroke-linejoin:miter;stroke-width:0.8;"/>
   </g>
   <g id="patch_5">
    <path d="M 144 307.584 
L 1036.8 307.584 
" style="fill:none;stroke:#000000;stroke-linecap:square;stroke-linejoin:miter;stroke-width:0.8;"/>
   </g>
   <g id="patch_6">
    <path d="M 144 41.472 
L 1036.8 41.472 
" style="fill:none;stroke:#000000;stroke-linecap:square;stroke-linejoin:miter;stroke-width:0.8;"/>
   </g>
   <g id="text_14">
    <!-- 2th layer's shape: torch.Size([1, 64, 512]). Uniformly sampling 16 channels -->
    <g transform="translate(364.66875 35.472)scale(0.12 -0.12)">
     <defs>
      <path d="M 18.3125 70.21875 
L 18.3125 54.6875 
L 36.8125 54.6875 
L 36.8125 47.703125 
L 18.3125 47.703125 
L 18.3125 18.015625 
Q 18.3125 11.328125 20.140625 9.421875 
Q 21.96875 7.515625 27.59375 7.515625 
L 36.8125 7.515625 
L 36.8125 0 
L 27.59375 0 
Q 17.1875 0 13.234375 3.875 
Q 9.28125 7.765625 9.28125 18.015625 
L 9.28125 47.703125 
L 2.6875 47.703125 
L 2.6875 54.6875 
L 9.28125 54.6875 
L 9.28125 70.21875 
z
" id="DejaVuSans-116"/>
      <path d="M 54.890625 33.015625 
L 54.890625 0 
L 45.90625 0 
L 45.90625 32.71875 
Q 45.90625 40.484375 42.875 44.328125 
Q 39.84375 48.1875 33.796875 48.1875 
Q 26.515625 48.1875 22.3125 43.546875 
Q 18.109375 38.921875 18.109375 30.90625 
L 18.109375 0 
L 9.078125 0 
L 9.078125 75.984375 
L 18.109375 75.984375 
L 18.109375 46.1875 
Q 21.34375 51.125 25.703125 53.5625 
Q 30.078125 56 35.796875 56 
Q 45.21875 56 50.046875 50.171875 
Q 54.890625 44.34375 54.890625 33.015625 
z
" id="DejaVuSans-104"/>
      <path id="DejaVuSans-32"/>
      <path d="M 9.421875 75.984375 
L 18.40625 75.984375 
L 18.40625 0 
L 9.421875 0 
z
" id="DejaVuSans-108"/>
      <path d="M 34.28125 27.484375 
Q 23.390625 27.484375 19.1875 25 
Q 14.984375 22.515625 14.984375 16.5 
Q 14.984375 11.71875 18.140625 8.90625 
Q 21.296875 6.109375 26.703125 6.109375 
Q 34.1875 6.109375 38.703125 11.40625 
Q 43.21875 16.703125 43.21875 25.484375 
L 43.21875 27.484375 
z
M 52.203125 31.203125 
L 52.203125 0 
L 43.21875 0 
L 43.21875 8.296875 
Q 40.140625 3.328125 35.546875 0.953125 
Q 30.953125 -1.421875 24.3125 -1.421875 
Q 15.921875 -1.421875 10.953125 3.296875 
Q 6 8.015625 6 15.921875 
Q 6 25.140625 12.171875 29.828125 
Q 18.359375 34.515625 30.609375 34.515625 
L 43.21875 34.515625 
L 43.21875 35.40625 
Q 43.21875 41.609375 39.140625 45 
Q 35.0625 48.390625 27.6875 48.390625 
Q 23 48.390625 18.546875 47.265625 
Q 14.109375 46.140625 10.015625 43.890625 
L 10.015625 52.203125 
Q 14.9375 54.109375 19.578125 55.046875 
Q 24.21875 56 28.609375 56 
Q 40.484375 56 46.34375 49.84375 
Q 52.203125 43.703125 52.203125 31.203125 
z
" id="DejaVuSans-97"/>
      <path d="M 32.171875 -5.078125 
Q 28.375 -14.84375 24.75 -17.8125 
Q 21.140625 -20.796875 15.09375 -20.796875 
L 7.90625 -20.796875 
L 7.90625 -13.28125 
L 13.1875 -13.28125 
Q 16.890625 -13.28125 18.9375 -11.515625 
Q 21 -9.765625 23.484375 -3.21875 
L 25.09375 0.875 
L 2.984375 54.6875 
L 12.5 54.6875 
L 29.59375 11.921875 
L 46.6875 54.6875 
L 56.203125 54.6875 
z
" id="DejaVuSans-121"/>
      <path d="M 56.203125 29.59375 
L 56.203125 25.203125 
L 14.890625 25.203125 
Q 15.484375 15.921875 20.484375 11.0625 
Q 25.484375 6.203125 34.421875 6.203125 
Q 39.59375 6.203125 44.453125 7.46875 
Q 49.3125 8.734375 54.109375 11.28125 
L 54.109375 2.78125 
Q 49.265625 0.734375 44.1875 -0.34375 
Q 39.109375 -1.421875 33.890625 -1.421875 
Q 20.796875 -1.421875 13.15625 6.1875 
Q 5.515625 13.8125 5.515625 26.8125 
Q 5.515625 40.234375 12.765625 48.109375 
Q 20.015625 56 32.328125 56 
Q 43.359375 56 49.78125 48.890625 
Q 56.203125 41.796875 56.203125 29.59375 
z
M 47.21875 32.234375 
Q 47.125 39.59375 43.09375 43.984375 
Q 39.0625 48.390625 32.421875 48.390625 
Q 24.90625 48.390625 20.390625 44.140625 
Q 15.875 39.890625 15.1875 32.171875 
z
" id="DejaVuSans-101"/>
      <path d="M 41.109375 46.296875 
Q 39.59375 47.171875 37.8125 47.578125 
Q 36.03125 48 33.890625 48 
Q 26.265625 48 22.1875 43.046875 
Q 18.109375 38.09375 18.109375 28.8125 
L 18.109375 0 
L 9.078125 0 
L 9.078125 54.6875 
L 18.109375 54.6875 
L 18.109375 46.1875 
Q 20.953125 51.171875 25.484375 53.578125 
Q 30.03125 56 36.53125 56 
Q 37.453125 56 38.578125 55.875 
Q 39.703125 55.765625 41.0625 55.515625 
z
" id="DejaVuSans-114"/>
      <path d="M 17.921875 72.90625 
L 17.921875 45.796875 
L 9.625 45.796875 
L 9.625 72.90625 
z
" id="DejaVuSans-39"/>
      <path d="M 44.28125 53.078125 
L 44.28125 44.578125 
Q 40.484375 46.53125 36.375 47.5 
Q 32.28125 48.484375 27.875 48.484375 
Q 21.1875 48.484375 17.84375 46.4375 
Q 14.5 44.390625 14.5 40.28125 
Q 14.5 37.15625 16.890625 35.375 
Q 19.28125 33.59375 26.515625 31.984375 
L 29.59375 31.296875 
Q 39.15625 29.25 43.1875 25.515625 
Q 47.21875 21.78125 47.21875 15.09375 
Q 47.21875 7.46875 41.1875 3.015625 
Q 35.15625 -1.421875 24.609375 -1.421875 
Q 20.21875 -1.421875 15.453125 -0.5625 
Q 10.6875 0.296875 5.421875 2 
L 5.421875 11.28125 
Q 10.40625 8.6875 15.234375 7.390625 
Q 20.0625 6.109375 24.8125 6.109375 
Q 31.15625 6.109375 34.5625 8.28125 
Q 37.984375 10.453125 37.984375 14.40625 
Q 37.984375 18.0625 35.515625 20.015625 
Q 33.0625 21.96875 24.703125 23.78125 
L 21.578125 24.515625 
Q 13.234375 26.265625 9.515625 29.90625 
Q 5.8125 33.546875 5.8125 39.890625 
Q 5.8125 47.609375 11.28125 51.796875 
Q 16.75 56 26.8125 56 
Q 31.78125 56 36.171875 55.265625 
Q 40.578125 54.546875 44.28125 53.078125 
z
" id="DejaVuSans-115"/>
      <path d="M 18.109375 8.203125 
L 18.109375 -20.796875 
L 9.078125 -20.796875 
L 9.078125 54.6875 
L 18.109375 54.6875 
L 18.109375 46.390625 
Q 20.953125 51.265625 25.265625 53.625 
Q 29.59375 56 35.59375 56 
Q 45.5625 56 51.78125 48.09375 
Q 58.015625 40.1875 58.015625 27.296875 
Q 58.015625 14.40625 51.78125 6.484375 
Q 45.5625 -1.421875 35.59375 -1.421875 
Q 29.59375 -1.421875 25.265625 0.953125 
Q 20.953125 3.328125 18.109375 8.203125 
z
M 48.6875 27.296875 
Q 48.6875 37.203125 44.609375 42.84375 
Q 40.53125 48.484375 33.40625 48.484375 
Q 26.265625 48.484375 22.1875 42.84375 
Q 18.109375 37.203125 18.109375 27.296875 
Q 18.109375 17.390625 22.1875 11.75 
Q 26.265625 6.109375 33.40625 6.109375 
Q 40.53125 6.109375 44.609375 11.75 
Q 48.6875 17.390625 48.6875 27.296875 
z
" id="DejaVuSans-112"/>
      <path d="M 11.71875 12.40625 
L 22.015625 12.40625 
L 22.015625 0 
L 11.71875 0 
z
M 11.71875 51.703125 
L 22.015625 51.703125 
L 22.015625 39.3125 
L 11.71875 39.3125 
z
" id="DejaVuSans-58"/>
      <path d="M 30.609375 48.390625 
Q 23.390625 48.390625 19.1875 42.75 
Q 14.984375 37.109375 14.984375 27.296875 
Q 14.984375 17.484375 19.15625 11.84375 
Q 23.34375 6.203125 30.609375 6.203125 
Q 37.796875 6.203125 41.984375 11.859375 
Q 46.1875 17.53125 46.1875 27.296875 
Q 46.1875 37.015625 41.984375 42.703125 
Q 37.796875 48.390625 30.609375 48.390625 
z
M 30.609375 56 
Q 42.328125 56 49.015625 48.375 
Q 55.71875 40.765625 55.71875 27.296875 
Q 55.71875 13.875 49.015625 6.21875 
Q 42.328125 -1.421875 30.609375 -1.421875 
Q 18.84375 -1.421875 12.171875 6.21875 
Q 5.515625 13.875 5.515625 27.296875 
Q 5.515625 40.765625 12.171875 48.375 
Q 18.84375 56 30.609375 56 
z
" id="DejaVuSans-111"/>
      <path d="M 48.78125 52.59375 
L 48.78125 44.1875 
Q 44.96875 46.296875 41.140625 47.34375 
Q 37.3125 48.390625 33.40625 48.390625 
Q 24.65625 48.390625 19.8125 42.84375 
Q 14.984375 37.3125 14.984375 27.296875 
Q 14.984375 17.28125 19.8125 11.734375 
Q 24.65625 6.203125 33.40625 6.203125 
Q 37.3125 6.203125 41.140625 7.25 
Q 44.96875 8.296875 48.78125 10.40625 
L 48.78125 2.09375 
Q 45.015625 0.34375 40.984375 -0.53125 
Q 36.96875 -1.421875 32.421875 -1.421875 
Q 20.0625 -1.421875 12.78125 6.34375 
Q 5.515625 14.109375 5.515625 27.296875 
Q 5.515625 40.671875 12.859375 48.328125 
Q 20.21875 56 33.015625 56 
Q 37.15625 56 41.109375 55.140625 
Q 45.0625 54.296875 48.78125 52.59375 
z
" id="DejaVuSans-99"/>
      <path d="M 53.515625 70.515625 
L 53.515625 60.890625 
Q 47.90625 63.578125 42.921875 64.890625 
Q 37.9375 66.21875 33.296875 66.21875 
Q 25.25 66.21875 20.875 63.09375 
Q 16.5 59.96875 16.5 54.203125 
Q 16.5 49.359375 19.40625 46.890625 
Q 22.3125 44.4375 30.421875 42.921875 
L 36.375 41.703125 
Q 47.40625 39.59375 52.65625 34.296875 
Q 57.90625 29 57.90625 20.125 
Q 57.90625 9.515625 50.796875 4.046875 
Q 43.703125 -1.421875 29.984375 -1.421875 
Q 24.8125 -1.421875 18.96875 -0.25 
Q 13.140625 0.921875 6.890625 3.21875 
L 6.890625 13.375 
Q 12.890625 10.015625 18.65625 8.296875 
Q 24.421875 6.59375 29.984375 6.59375 
Q 38.421875 6.59375 43.015625 9.90625 
Q 47.609375 13.234375 47.609375 19.390625 
Q 47.609375 24.75 44.3125 27.78125 
Q 41.015625 30.8125 33.5 32.328125 
L 27.484375 33.5 
Q 16.453125 35.6875 11.515625 40.375 
Q 6.59375 45.0625 6.59375 53.421875 
Q 6.59375 63.09375 13.40625 68.65625 
Q 20.21875 74.21875 32.171875 74.21875 
Q 37.3125 74.21875 42.625 73.28125 
Q 47.953125 72.359375 53.515625 70.515625 
z
" id="DejaVuSans-83"/>
      <path d="M 9.421875 54.6875 
L 18.40625 54.6875 
L 18.40625 0 
L 9.421875 0 
z
M 9.421875 75.984375 
L 18.40625 75.984375 
L 18.40625 64.59375 
L 9.421875 64.59375 
z
" id="DejaVuSans-105"/>
      <path d="M 5.515625 54.6875 
L 48.1875 54.6875 
L 48.1875 46.484375 
L 14.40625 7.171875 
L 48.1875 7.171875 
L 48.1875 0 
L 4.296875 0 
L 4.296875 8.203125 
L 38.09375 47.515625 
L 5.515625 47.515625 
z
" id="DejaVuSans-122"/>
      <path d="M 31 75.875 
Q 24.46875 64.65625 21.28125 53.65625 
Q 18.109375 42.671875 18.109375 31.390625 
Q 18.109375 20.125 21.3125 9.0625 
Q 24.515625 -2 31 -13.1875 
L 23.1875 -13.1875 
Q 15.875 -1.703125 12.234375 9.375 
Q 8.59375 20.453125 8.59375 31.390625 
Q 8.59375 42.28125 12.203125 53.3125 
Q 15.828125 64.359375 23.1875 75.875 
z
" id="DejaVuSans-40"/>
      <path d="M 8.59375 75.984375 
L 29.296875 75.984375 
L 29.296875 69 
L 17.578125 69 
L 17.578125 -6.203125 
L 29.296875 -6.203125 
L 29.296875 -13.1875 
L 8.59375 -13.1875 
z
" id="DejaVuSans-91"/>
      <path d="M 11.71875 12.40625 
L 22.015625 12.40625 
L 22.015625 4 
L 14.015625 -11.625 
L 7.71875 -11.625 
L 11.71875 4 
z
" id="DejaVuSans-44"/>
      <path d="M 33.015625 40.375 
Q 26.375 40.375 22.484375 35.828125 
Q 18.609375 31.296875 18.609375 23.390625 
Q 18.609375 15.53125 22.484375 10.953125 
Q 26.375 6.390625 33.015625 6.390625 
Q 39.65625 6.390625 43.53125 10.953125 
Q 47.40625 15.53125 47.40625 23.390625 
Q 47.40625 31.296875 43.53125 35.828125 
Q 39.65625 40.375 33.015625 40.375 
z
M 52.59375 71.296875 
L 52.59375 62.3125 
Q 48.875 64.0625 45.09375 64.984375 
Q 41.3125 65.921875 37.59375 65.921875 
Q 27.828125 65.921875 22.671875 59.328125 
Q 17.53125 52.734375 16.796875 39.40625 
Q 19.671875 43.65625 24.015625 45.921875 
Q 28.375 48.1875 33.59375 48.1875 
Q 44.578125 48.1875 50.953125 41.515625 
Q 57.328125 34.859375 57.328125 23.390625 
Q 57.328125 12.15625 50.6875 5.359375 
Q 44.046875 -1.421875 33.015625 -1.421875 
Q 20.359375 -1.421875 13.671875 8.265625 
Q 6.984375 17.96875 6.984375 36.375 
Q 6.984375 53.65625 15.1875 63.9375 
Q 23.390625 74.21875 37.203125 74.21875 
Q 40.921875 74.21875 44.703125 73.484375 
Q 48.484375 72.75 52.59375 71.296875 
z
" id="DejaVuSans-54"/>
      <path d="M 30.421875 75.984375 
L 30.421875 -13.1875 
L 9.71875 -13.1875 
L 9.71875 -6.203125 
L 21.390625 -6.203125 
L 21.390625 69 
L 9.71875 69 
L 9.71875 75.984375 
z
" id="DejaVuSans-93"/>
      <path d="M 8.015625 75.875 
L 15.828125 75.875 
Q 23.140625 64.359375 26.78125 53.3125 
Q 30.421875 42.28125 30.421875 31.390625 
Q 30.421875 20.453125 26.78125 9.375 
Q 23.140625 -1.703125 15.828125 -13.1875 
L 8.015625 -13.1875 
Q 14.5 -2 17.703125 9.0625 
Q 20.90625 20.125 20.90625 31.390625 
Q 20.90625 42.671875 17.703125 53.65625 
Q 14.5 64.65625 8.015625 75.875 
z
" id="DejaVuSans-41"/>
      <path d="M 8.6875 72.90625 
L 18.609375 72.90625 
L 18.609375 28.609375 
Q 18.609375 16.890625 22.84375 11.734375 
Q 27.09375 6.59375 36.625 6.59375 
Q 46.09375 6.59375 50.34375 11.734375 
Q 54.59375 16.890625 54.59375 28.609375 
L 54.59375 72.90625 
L 64.5 72.90625 
L 64.5 27.390625 
Q 64.5 13.140625 57.4375 5.859375 
Q 50.390625 -1.421875 36.625 -1.421875 
Q 22.796875 -1.421875 15.734375 5.859375 
Q 8.6875 13.140625 8.6875 27.390625 
z
" id="DejaVuSans-85"/>
      <path d="M 54.890625 33.015625 
L 54.890625 0 
L 45.90625 0 
L 45.90625 32.71875 
Q 45.90625 40.484375 42.875 44.328125 
Q 39.84375 48.1875 33.796875 48.1875 
Q 26.515625 48.1875 22.3125 43.546875 
Q 18.109375 38.921875 18.109375 30.90625 
L 18.109375 0 
L 9.078125 0 
L 9.078125 54.6875 
L 18.109375 54.6875 
L 18.109375 46.1875 
Q 21.34375 51.125 25.703125 53.5625 
Q 30.078125 56 35.796875 56 
Q 45.21875 56 50.046875 50.171875 
Q 54.890625 44.34375 54.890625 33.015625 
z
" id="DejaVuSans-110"/>
      <path d="M 37.109375 75.984375 
L 37.109375 68.5 
L 28.515625 68.5 
Q 23.6875 68.5 21.796875 66.546875 
Q 19.921875 64.59375 19.921875 59.515625 
L 19.921875 54.6875 
L 34.71875 54.6875 
L 34.71875 47.703125 
L 19.921875 47.703125 
L 19.921875 0 
L 10.890625 0 
L 10.890625 47.703125 
L 2.296875 47.703125 
L 2.296875 54.6875 
L 10.890625 54.6875 
L 10.890625 58.5 
Q 10.890625 67.625 15.140625 71.796875 
Q 19.390625 75.984375 28.609375 75.984375 
z
" id="DejaVuSans-102"/>
      <path d="M 52 44.1875 
Q 55.375 50.25 60.0625 53.125 
Q 64.75 56 71.09375 56 
Q 79.640625 56 84.28125 50.015625 
Q 88.921875 44.046875 88.921875 33.015625 
L 88.921875 0 
L 79.890625 0 
L 79.890625 32.71875 
Q 79.890625 40.578125 77.09375 44.375 
Q 74.3125 48.1875 68.609375 48.1875 
Q 61.625 48.1875 57.5625 43.546875 
Q 53.515625 38.921875 53.515625 30.90625 
L 53.515625 0 
L 44.484375 0 
L 44.484375 32.71875 
Q 44.484375 40.625 41.703125 44.40625 
Q 38.921875 48.1875 33.109375 48.1875 
Q 26.21875 48.1875 22.15625 43.53125 
Q 18.109375 38.875 18.109375 30.90625 
L 18.109375 0 
L 9.078125 0 
L 9.078125 54.6875 
L 18.109375 54.6875 
L 18.109375 46.1875 
Q 21.1875 51.21875 25.484375 53.609375 
Q 29.78125 56 35.6875 56 
Q 41.65625 56 45.828125 52.96875 
Q 50 49.953125 52 44.1875 
z
" id="DejaVuSans-109"/>
      <path d="M 45.40625 27.984375 
Q 45.40625 37.75 41.375 43.109375 
Q 37.359375 48.484375 30.078125 48.484375 
Q 22.859375 48.484375 18.828125 43.109375 
Q 14.796875 37.75 14.796875 27.984375 
Q 14.796875 18.265625 18.828125 12.890625 
Q 22.859375 7.515625 30.078125 7.515625 
Q 37.359375 7.515625 41.375 12.890625 
Q 45.40625 18.265625 45.40625 27.984375 
z
M 54.390625 6.78125 
Q 54.390625 -7.171875 48.1875 -13.984375 
Q 42 -20.796875 29.203125 -20.796875 
Q 24.46875 -20.796875 20.265625 -20.09375 
Q 16.0625 -19.390625 12.109375 -17.921875 
L 12.109375 -9.1875 
Q 16.0625 -11.328125 19.921875 -12.34375 
Q 23.78125 -13.375 27.78125 -13.375 
Q 36.625 -13.375 41.015625 -8.765625 
Q 45.40625 -4.15625 45.40625 5.171875 
L 45.40625 9.625 
Q 42.625 4.78125 38.28125 2.390625 
Q 33.9375 0 27.875 0 
Q 17.828125 0 11.671875 7.65625 
Q 5.515625 15.328125 5.515625 27.984375 
Q 5.515625 40.671875 11.671875 48.328125 
Q 17.828125 56 27.875 56 
Q 33.9375 56 38.28125 53.609375 
Q 42.625 51.21875 45.40625 46.390625 
L 45.40625 54.6875 
L 54.390625 54.6875 
z
" id="DejaVuSans-103"/>
     </defs>
     <use xlink:href="#DejaVuSans-50"/>
     <use x="63.623047" xlink:href="#DejaVuSans-116"/>
     <use x="102.832031" xlink:href="#DejaVuSans-104"/>
     <use x="166.210938" xlink:href="#DejaVuSans-32"/>
     <use x="197.998047" xlink:href="#DejaVuSans-108"/>
     <use x="225.78125" xlink:href="#DejaVuSans-97"/>
     <use x="287.060547" xlink:href="#DejaVuSans-121"/>
     <use x="346.240234" xlink:href="#DejaVuSans-101"/>
     <use x="407.763672" xlink:href="#DejaVuSans-114"/>
     <use x="448.876953" xlink:href="#DejaVuSans-39"/>
     <use x="476.367188" xlink:href="#DejaVuSans-115"/>
     <use x="528.466797" xlink:href="#DejaVuSans-32"/>
     <use x="560.253906" xlink:href="#DejaVuSans-115"/>
     <use x="612.353516" xlink:href="#DejaVuSans-104"/>
     <use x="675.732422" xlink:href="#DejaVuSans-97"/>
     <use x="737.011719" xlink:href="#DejaVuSans-112"/>
     <use x="800.488281" xlink:href="#DejaVuSans-101"/>
     <use x="862.011719" xlink:href="#DejaVuSans-58"/>
     <use x="895.703125" xlink:href="#DejaVuSans-32"/>
     <use x="927.490234" xlink:href="#DejaVuSans-116"/>
     <use x="966.699219" xlink:href="#DejaVuSans-111"/>
     <use x="1027.880859" xlink:href="#DejaVuSans-114"/>
     <use x="1066.744141" xlink:href="#DejaVuSans-99"/>
     <use x="1121.724609" xlink:href="#DejaVuSans-104"/>
     <use x="1185.103516" xlink:href="#DejaVuSans-46"/>
     <use x="1216.890625" xlink:href="#DejaVuSans-83"/>
     <use x="1280.367188" xlink:href="#DejaVuSans-105"/>
     <use x="1308.150391" xlink:href="#DejaVuSans-122"/>
     <use x="1360.640625" xlink:href="#DejaVuSans-101"/>
     <use x="1422.164062" xlink:href="#DejaVuSans-40"/>
     <use x="1461.177734" xlink:href="#DejaVuSans-91"/>
     <use x="1500.191406" xlink:href="#DejaVuSans-49"/>
     <use x="1563.814453" xlink:href="#DejaVuSans-44"/>
     <use x="1595.601562" xlink:href="#DejaVuSans-32"/>
     <use x="1627.388672" xlink:href="#DejaVuSans-54"/>
     <use x="1691.011719" xlink:href="#DejaVuSans-52"/>
     <use x="1754.634766" xlink:href="#DejaVuSans-44"/>
     <use x="1786.421875" xlink:href="#DejaVuSans-32"/>
     <use x="1818.208984" xlink:href="#DejaVuSans-53"/>
     <use x="1881.832031" xlink:href="#DejaVuSans-49"/>
     <use x="1945.455078" xlink:href="#DejaVuSans-50"/>
     <use x="2009.078125" xlink:href="#DejaVuSans-93"/>
     <use x="2048.091797" xlink:href="#DejaVuSans-41"/>
     <use x="2087.105469" xlink:href="#DejaVuSans-46"/>
     <use x="2118.892578" xlink:href="#DejaVuSans-32"/>
     <use x="2150.679688" xlink:href="#DejaVuSans-85"/>
     <use x="2223.873047" xlink:href="#DejaVuSans-110"/>
     <use x="2287.251953" xlink:href="#DejaVuSans-105"/>
     <use x="2315.035156" xlink:href="#DejaVuSans-102"/>
     <use x="2350.240234" xlink:href="#DejaVuSans-111"/>
     <use x="2411.421875" xlink:href="#DejaVuSans-114"/>
     <use x="2450.785156" xlink:href="#DejaVuSans-109"/>
     <use x="2548.197266" xlink:href="#DejaVuSans-108"/>
     <use x="2575.980469" xlink:href="#DejaVuSans-121"/>
     <use x="2635.160156" xlink:href="#DejaVuSans-32"/>
     <use x="2666.947266" xlink:href="#DejaVuSans-115"/>
     <use x="2719.046875" xlink:href="#DejaVuSans-97"/>
     <use x="2780.326172" xlink:href="#DejaVuSans-109"/>
     <use x="2877.738281" xlink:href="#DejaVuSans-112"/>
     <use x="2941.214844" xlink:href="#DejaVuSans-108"/>
     <use x="2968.998047" xlink:href="#DejaVuSans-105"/>
     <use x="2996.78125" xlink:href="#DejaVuSans-110"/>
     <use x="3060.160156" xlink:href="#DejaVuSans-103"/>
     <use x="3123.636719" xlink:href="#DejaVuSans-32"/>
     <use x="3155.423828" xlink:href="#DejaVuSans-49"/>
     <use x="3219.046875" xlink:href="#DejaVuSans-54"/>
     <use x="3282.669922" xlink:href="#DejaVuSans-32"/>
     <use x="3314.457031" xlink:href="#DejaVuSans-99"/>
     <use x="3369.4375" xlink:href="#DejaVuSans-104"/>
     <use x="3432.816406" xlink:href="#DejaVuSans-97"/>
     <use x="3494.095703" xlink:href="#DejaVuSans-110"/>
     <use x="3557.474609" xlink:href="#DejaVuSans-110"/>
     <use x="3620.853516" xlink:href="#DejaVuSans-101"/>
     <use x="3682.376953" xlink:href="#DejaVuSans-108"/>
     <use x="3710.160156" xlink:href="#DejaVuSans-115"/>
    </g>
   </g>
  </g>
 </g>
 <defs>
  <clipPath id="p4ce75bf591">
   <rect height="266.112" width="892.8" x="144" y="41.472"/>
  </clipPath>
 </defs>
</svg>
