<?xml version="1.0" encoding="utf-8" standalone="no"?>
<!DOCTYPE svg PUBLIC "-//W3C//DTD SVG 1.1//EN"
  "http://www.w3.org/Graphics/SVG/1.1/DTD/svg11.dtd">
<!-- Created with matplotlib (https://matplotlib.org/) -->
<svg height="345.6pt" version="1.1" viewBox="0 0 1152 345.6" width="1152pt" xmlns="http://www.w3.org/2000/svg" xmlns:xlink="http://www.w3.org/1999/xlink">
 <metadata>
  <rdf:RDF xmlns:cc="http://creativecommons.org/ns#" xmlns:dc="http://purl.org/dc/elements/1.1/" xmlns:rdf="http://www.w3.org/1999/02/22-rdf-syntax-ns#">
   <cc:Work>
    <dc:type rdf:resource="http://purl.org/dc/dcmitype/StillImage"/>
    <dc:date>2021-12-24T07:21:34.559631</dc:date>
    <dc:format>image/svg+xml</dc:format>
    <dc:creator>
     <cc:Agent>
      <dc:title>Matplotlib v3.3.3, https://matplotlib.org/</dc:title>
     </cc:Agent>
    </dc:creator>
   </cc:Work>
  </rdf:RDF>
 </metadata>
 <defs>
  <style type="text/css">*{stroke-linecap:butt;stroke-linejoin:round;}</style>
 </defs>
 <g id="figure_1">
  <g id="patch_1">
   <path d="M 0 345.6 
L 1152 345.6 
L 1152 0 
L 0 0 
z
" style="fill:#ffffff;"/>
  </g>
  <g id="axes_1">
   <g id="patch_2">
    <path d="M 144 307.584 
L 1036.8 307.584 
L 1036.8 41.472 
L 144 41.472 
z
" style="fill:#ffffff;"/>
   </g>
   <g id="matplotlib.axis_1">
    <g id="xtick_1">
     <g id="line2d_1">
      <defs>
       <path d="M 0 0 
L 0 3.5 
" id="mfaa5c89ce7" style="stroke:#000000;stroke-width:0.8;"/>
      </defs>
      <g>
       <use style="stroke:#000000;stroke-width:0.8;" x="184.581818" xlink:href="#mfaa5c89ce7" y="307.584"/>
      </g>
     </g>
     <g id="text_1">
      <!-- 0 -->
      <g transform="translate(181.400568 322.182437)scale(0.1 -0.1)">
       <defs>
        <path d="M 31.78125 66.40625 
Q 24.171875 66.40625 20.328125 58.90625 
Q 16.5 51.421875 16.5 36.375 
Q 16.5 21.390625 20.328125 13.890625 
Q 24.171875 6.390625 31.78125 6.390625 
Q 39.453125 6.390625 43.28125 13.890625 
Q 47.125 21.390625 47.125 36.375 
Q 47.125 51.421875 43.28125 58.90625 
Q 39.453125 66.40625 31.78125 66.40625 
z
M 31.78125 74.21875 
Q 44.046875 74.21875 50.515625 64.515625 
Q 56.984375 54.828125 56.984375 36.375 
Q 56.984375 17.96875 50.515625 8.265625 
Q 44.046875 -1.421875 31.78125 -1.421875 
Q 19.53125 -1.421875 13.0625 8.265625 
Q 6.59375 17.96875 6.59375 36.375 
Q 6.59375 54.828125 13.0625 64.515625 
Q 19.53125 74.21875 31.78125 74.21875 
z
" id="DejaVuSans-48"/>
       </defs>
       <use xlink:href="#DejaVuSans-48"/>
      </g>
     </g>
    </g>
    <g id="xtick_2">
     <g id="line2d_2">
      <g>
       <use style="stroke:#000000;stroke-width:0.8;" x="313.412987" xlink:href="#mfaa5c89ce7" y="307.584"/>
      </g>
     </g>
     <g id="text_2">
      <!-- 10 -->
      <g transform="translate(307.050487 322.182437)scale(0.1 -0.1)">
       <defs>
        <path d="M 12.40625 8.296875 
L 28.515625 8.296875 
L 28.515625 63.921875 
L 10.984375 60.40625 
L 10.984375 69.390625 
L 28.421875 72.90625 
L 38.28125 72.90625 
L 38.28125 8.296875 
L 54.390625 8.296875 
L 54.390625 0 
L 12.40625 0 
z
" id="DejaVuSans-49"/>
       </defs>
       <use xlink:href="#DejaVuSans-49"/>
       <use x="63.623047" xlink:href="#DejaVuSans-48"/>
      </g>
     </g>
    </g>
    <g id="xtick_3">
     <g id="line2d_3">
      <g>
       <use style="stroke:#000000;stroke-width:0.8;" x="442.244156" xlink:href="#mfaa5c89ce7" y="307.584"/>
      </g>
     </g>
     <g id="text_3">
      <!-- 20 -->
      <g transform="translate(435.881656 322.182437)scale(0.1 -0.1)">
       <defs>
        <path d="M 19.1875 8.296875 
L 53.609375 8.296875 
L 53.609375 0 
L 7.328125 0 
L 7.328125 8.296875 
Q 12.9375 14.109375 22.625 23.890625 
Q 32.328125 33.6875 34.8125 36.53125 
Q 39.546875 41.84375 41.421875 45.53125 
Q 43.3125 49.21875 43.3125 52.78125 
Q 43.3125 58.59375 39.234375 62.25 
Q 35.15625 65.921875 28.609375 65.921875 
Q 23.96875 65.921875 18.8125 64.3125 
Q 13.671875 62.703125 7.8125 59.421875 
L 7.8125 69.390625 
Q 13.765625 71.78125 18.9375 73 
Q 24.125 74.21875 28.421875 74.21875 
Q 39.75 74.21875 46.484375 68.546875 
Q 53.21875 62.890625 53.21875 53.421875 
Q 53.21875 48.921875 51.53125 44.890625 
Q 49.859375 40.875 45.40625 35.40625 
Q 44.1875 33.984375 37.640625 27.21875 
Q 31.109375 20.453125 19.1875 8.296875 
z
" id="DejaVuSans-50"/>
       </defs>
       <use xlink:href="#DejaVuSans-50"/>
       <use x="63.623047" xlink:href="#DejaVuSans-48"/>
      </g>
     </g>
    </g>
    <g id="xtick_4">
     <g id="line2d_4">
      <g>
       <use style="stroke:#000000;stroke-width:0.8;" x="571.075325" xlink:href="#mfaa5c89ce7" y="307.584"/>
      </g>
     </g>
     <g id="text_4">
      <!-- 30 -->
      <g transform="translate(564.712825 322.182437)scale(0.1 -0.1)">
       <defs>
        <path d="M 40.578125 39.3125 
Q 47.65625 37.796875 51.625 33 
Q 55.609375 28.21875 55.609375 21.1875 
Q 55.609375 10.40625 48.1875 4.484375 
Q 40.765625 -1.421875 27.09375 -1.421875 
Q 22.515625 -1.421875 17.65625 -0.515625 
Q 12.796875 0.390625 7.625 2.203125 
L 7.625 11.71875 
Q 11.71875 9.328125 16.59375 8.109375 
Q 21.484375 6.890625 26.8125 6.890625 
Q 36.078125 6.890625 40.9375 10.546875 
Q 45.796875 14.203125 45.796875 21.1875 
Q 45.796875 27.640625 41.28125 31.265625 
Q 36.765625 34.90625 28.71875 34.90625 
L 20.21875 34.90625 
L 20.21875 43.015625 
L 29.109375 43.015625 
Q 36.375 43.015625 40.234375 45.921875 
Q 44.09375 48.828125 44.09375 54.296875 
Q 44.09375 59.90625 40.109375 62.90625 
Q 36.140625 65.921875 28.71875 65.921875 
Q 24.65625 65.921875 20.015625 65.03125 
Q 15.375 64.15625 9.8125 62.3125 
L 9.8125 71.09375 
Q 15.4375 72.65625 20.34375 73.4375 
Q 25.25 74.21875 29.59375 74.21875 
Q 40.828125 74.21875 47.359375 69.109375 
Q 53.90625 64.015625 53.90625 55.328125 
Q 53.90625 49.265625 50.4375 45.09375 
Q 46.96875 40.921875 40.578125 39.3125 
z
" id="DejaVuSans-51"/>
       </defs>
       <use xlink:href="#DejaVuSans-51"/>
       <use x="63.623047" xlink:href="#DejaVuSans-48"/>
      </g>
     </g>
    </g>
    <g id="xtick_5">
     <g id="line2d_5">
      <g>
       <use style="stroke:#000000;stroke-width:0.8;" x="699.906494" xlink:href="#mfaa5c89ce7" y="307.584"/>
      </g>
     </g>
     <g id="text_5">
      <!-- 40 -->
      <g transform="translate(693.543994 322.182437)scale(0.1 -0.1)">
       <defs>
        <path d="M 37.796875 64.3125 
L 12.890625 25.390625 
L 37.796875 25.390625 
z
M 35.203125 72.90625 
L 47.609375 72.90625 
L 47.609375 25.390625 
L 58.015625 25.390625 
L 58.015625 17.1875 
L 47.609375 17.1875 
L 47.609375 0 
L 37.796875 0 
L 37.796875 17.1875 
L 4.890625 17.1875 
L 4.890625 26.703125 
z
" id="DejaVuSans-52"/>
       </defs>
       <use xlink:href="#DejaVuSans-52"/>
       <use x="63.623047" xlink:href="#DejaVuSans-48"/>
      </g>
     </g>
    </g>
    <g id="xtick_6">
     <g id="line2d_6">
      <g>
       <use style="stroke:#000000;stroke-width:0.8;" x="828.737662" xlink:href="#mfaa5c89ce7" y="307.584"/>
      </g>
     </g>
     <g id="text_6">
      <!-- 50 -->
      <g transform="translate(822.375162 322.182437)scale(0.1 -0.1)">
       <defs>
        <path d="M 10.796875 72.90625 
L 49.515625 72.90625 
L 49.515625 64.59375 
L 19.828125 64.59375 
L 19.828125 46.734375 
Q 21.96875 47.46875 24.109375 47.828125 
Q 26.265625 48.1875 28.421875 48.1875 
Q 40.625 48.1875 47.75 41.5 
Q 54.890625 34.8125 54.890625 23.390625 
Q 54.890625 11.625 47.5625 5.09375 
Q 40.234375 -1.421875 26.90625 -1.421875 
Q 22.3125 -1.421875 17.546875 -0.640625 
Q 12.796875 0.140625 7.71875 1.703125 
L 7.71875 11.625 
Q 12.109375 9.234375 16.796875 8.0625 
Q 21.484375 6.890625 26.703125 6.890625 
Q 35.15625 6.890625 40.078125 11.328125 
Q 45.015625 15.765625 45.015625 23.390625 
Q 45.015625 31 40.078125 35.4375 
Q 35.15625 39.890625 26.703125 39.890625 
Q 22.75 39.890625 18.8125 39.015625 
Q 14.890625 38.140625 10.796875 36.28125 
z
" id="DejaVuSans-53"/>
       </defs>
       <use xlink:href="#DejaVuSans-53"/>
       <use x="63.623047" xlink:href="#DejaVuSans-48"/>
      </g>
     </g>
    </g>
    <g id="xtick_7">
     <g id="line2d_7">
      <g>
       <use style="stroke:#000000;stroke-width:0.8;" x="957.568831" xlink:href="#mfaa5c89ce7" y="307.584"/>
      </g>
     </g>
     <g id="text_7">
      <!-- 60 -->
      <g transform="translate(951.206331 322.182437)scale(0.1 -0.1)">
       <defs>
        <path d="M 33.015625 40.375 
Q 26.375 40.375 22.484375 35.828125 
Q 18.609375 31.296875 18.609375 23.390625 
Q 18.609375 15.53125 22.484375 10.953125 
Q 26.375 6.390625 33.015625 6.390625 
Q 39.65625 6.390625 43.53125 10.953125 
Q 47.40625 15.53125 47.40625 23.390625 
Q 47.40625 31.296875 43.53125 35.828125 
Q 39.65625 40.375 33.015625 40.375 
z
M 52.59375 71.296875 
L 52.59375 62.3125 
Q 48.875 64.0625 45.09375 64.984375 
Q 41.3125 65.921875 37.59375 65.921875 
Q 27.828125 65.921875 22.671875 59.328125 
Q 17.53125 52.734375 16.796875 39.40625 
Q 19.671875 43.65625 24.015625 45.921875 
Q 28.375 48.1875 33.59375 48.1875 
Q 44.578125 48.1875 50.953125 41.515625 
Q 57.328125 34.859375 57.328125 23.390625 
Q 57.328125 12.15625 50.6875 5.359375 
Q 44.046875 -1.421875 33.015625 -1.421875 
Q 20.359375 -1.421875 13.671875 8.265625 
Q 6.984375 17.96875 6.984375 36.375 
Q 6.984375 53.65625 15.1875 63.9375 
Q 23.390625 74.21875 37.203125 74.21875 
Q 40.921875 74.21875 44.703125 73.484375 
Q 48.484375 72.75 52.59375 71.296875 
z
" id="DejaVuSans-54"/>
       </defs>
       <use xlink:href="#DejaVuSans-54"/>
       <use x="63.623047" xlink:href="#DejaVuSans-48"/>
      </g>
     </g>
    </g>
   </g>
   <g id="matplotlib.axis_2">
    <g id="ytick_1">
     <g id="line2d_8">
      <defs>
       <path d="M 0 0 
L -3.5 0 
" id="me7dc3088b0" style="stroke:#000000;stroke-width:0.8;"/>
      </defs>
      <g>
       <use style="stroke:#000000;stroke-width:0.8;" x="144" xlink:href="#me7dc3088b0" y="296.253465"/>
      </g>
     </g>
     <g id="text_8">
      <!-- −0.4 -->
      <g transform="translate(112.717187 300.052683)scale(0.1 -0.1)">
       <defs>
        <path d="M 10.59375 35.5 
L 73.1875 35.5 
L 73.1875 27.203125 
L 10.59375 27.203125 
z
" id="DejaVuSans-8722"/>
        <path d="M 10.6875 12.40625 
L 21 12.40625 
L 21 0 
L 10.6875 0 
z
" id="DejaVuSans-46"/>
       </defs>
       <use xlink:href="#DejaVuSans-8722"/>
       <use x="83.789062" xlink:href="#DejaVuSans-48"/>
       <use x="147.412109" xlink:href="#DejaVuSans-46"/>
       <use x="179.199219" xlink:href="#DejaVuSans-52"/>
      </g>
     </g>
    </g>
    <g id="ytick_2">
     <g id="line2d_9">
      <g>
       <use style="stroke:#000000;stroke-width:0.8;" x="144" xlink:href="#me7dc3088b0" y="266.434235"/>
      </g>
     </g>
     <g id="text_9">
      <!-- −0.3 -->
      <g transform="translate(112.717187 270.233454)scale(0.1 -0.1)">
       <use xlink:href="#DejaVuSans-8722"/>
       <use x="83.789062" xlink:href="#DejaVuSans-48"/>
       <use x="147.412109" xlink:href="#DejaVuSans-46"/>
       <use x="179.199219" xlink:href="#DejaVuSans-51"/>
      </g>
     </g>
    </g>
    <g id="ytick_3">
     <g id="line2d_10">
      <g>
       <use style="stroke:#000000;stroke-width:0.8;" x="144" xlink:href="#me7dc3088b0" y="236.615006"/>
      </g>
     </g>
     <g id="text_10">
      <!-- −0.2 -->
      <g transform="translate(112.717187 240.414224)scale(0.1 -0.1)">
       <use xlink:href="#DejaVuSans-8722"/>
       <use x="83.789062" xlink:href="#DejaVuSans-48"/>
       <use x="147.412109" xlink:href="#DejaVuSans-46"/>
       <use x="179.199219" xlink:href="#DejaVuSans-50"/>
      </g>
     </g>
    </g>
    <g id="ytick_4">
     <g id="line2d_11">
      <g>
       <use style="stroke:#000000;stroke-width:0.8;" x="144" xlink:href="#me7dc3088b0" y="206.795776"/>
      </g>
     </g>
     <g id="text_11">
      <!-- −0.1 -->
      <g transform="translate(112.717187 210.594995)scale(0.1 -0.1)">
       <use xlink:href="#DejaVuSans-8722"/>
       <use x="83.789062" xlink:href="#DejaVuSans-48"/>
       <use x="147.412109" xlink:href="#DejaVuSans-46"/>
       <use x="179.199219" xlink:href="#DejaVuSans-49"/>
      </g>
     </g>
    </g>
    <g id="ytick_5">
     <g id="line2d_12">
      <g>
       <use style="stroke:#000000;stroke-width:0.8;" x="144" xlink:href="#me7dc3088b0" y="176.976546"/>
      </g>
     </g>
     <g id="text_12">
      <!-- 0.0 -->
      <g transform="translate(121.096875 180.775765)scale(0.1 -0.1)">
       <use xlink:href="#DejaVuSans-48"/>
       <use x="63.623047" xlink:href="#DejaVuSans-46"/>
       <use x="95.410156" xlink:href="#DejaVuSans-48"/>
      </g>
     </g>
    </g>
    <g id="ytick_6">
     <g id="line2d_13">
      <g>
       <use style="stroke:#000000;stroke-width:0.8;" x="144" xlink:href="#me7dc3088b0" y="147.157317"/>
      </g>
     </g>
     <g id="text_13">
      <!-- 0.1 -->
      <g transform="translate(121.096875 150.956535)scale(0.1 -0.1)">
       <use xlink:href="#DejaVuSans-48"/>
       <use x="63.623047" xlink:href="#DejaVuSans-46"/>
       <use x="95.410156" xlink:href="#DejaVuSans-49"/>
      </g>
     </g>
    </g>
    <g id="ytick_7">
     <g id="line2d_14">
      <g>
       <use style="stroke:#000000;stroke-width:0.8;" x="144" xlink:href="#me7dc3088b0" y="117.338087"/>
      </g>
     </g>
     <g id="text_14">
      <!-- 0.2 -->
      <g transform="translate(121.096875 121.137306)scale(0.1 -0.1)">
       <use xlink:href="#DejaVuSans-48"/>
       <use x="63.623047" xlink:href="#DejaVuSans-46"/>
       <use x="95.410156" xlink:href="#DejaVuSans-50"/>
      </g>
     </g>
    </g>
    <g id="ytick_8">
     <g id="line2d_15">
      <g>
       <use style="stroke:#000000;stroke-width:0.8;" x="144" xlink:href="#me7dc3088b0" y="87.518858"/>
      </g>
     </g>
     <g id="text_15">
      <!-- 0.3 -->
      <g transform="translate(121.096875 91.318076)scale(0.1 -0.1)">
       <use xlink:href="#DejaVuSans-48"/>
       <use x="63.623047" xlink:href="#DejaVuSans-46"/>
       <use x="95.410156" xlink:href="#DejaVuSans-51"/>
      </g>
     </g>
    </g>
    <g id="ytick_9">
     <g id="line2d_16">
      <g>
       <use style="stroke:#000000;stroke-width:0.8;" x="144" xlink:href="#me7dc3088b0" y="57.699628"/>
      </g>
     </g>
     <g id="text_16">
      <!-- 0.4 -->
      <g transform="translate(121.096875 61.498847)scale(0.1 -0.1)">
       <use xlink:href="#DejaVuSans-48"/>
       <use x="63.623047" xlink:href="#DejaVuSans-46"/>
       <use x="95.410156" xlink:href="#DejaVuSans-52"/>
      </g>
     </g>
    </g>
   </g>
   <g id="line2d_17">
    <path clip-path="url(#pc1c0028243)" d="M 184.581818 160.278545 
L 197.464935 162.73184 
L 210.348052 169.906893 
L 223.231169 174.948548 
L 236.114286 178.159348 
L 248.997403 180.140947 
L 261.880519 181.383667 
L 274.763636 182.184025 
L 287.646753 182.712758 
L 300.52987 183.070239 
L 313.412987 183.317187 
L 326.296104 183.491463 
L 339.179221 183.617013 
L 352.062338 183.709552 
L 364.945455 183.77931 
L 377.828571 183.833 
L 390.711688 183.875386 
L 403.594805 183.909535 
L 416.477922 183.93758 
L 429.361039 183.961182 
L 442.244156 183.981316 
L 455.127273 183.998878 
L 468.01039 184.014295 
L 480.893506 184.028109 
L 493.776623 184.040603 
L 506.65974 184.052091 
L 519.542857 184.062625 
L 532.425974 184.07242 
L 545.309091 184.081526 
L 558.192208 184.090116 
L 571.075325 184.098315 
L 583.958442 184.105995 
L 596.841558 184.113241 
L 609.724675 184.120215 
L 622.607792 184.126846 
L 635.490909 184.133133 
L 648.374026 184.139167 
L 661.257143 184.144914 
L 674.14026 184.150451 
L 687.023377 184.155665 
L 699.906494 184.160683 
L 712.78961 184.165506 
L 725.672727 184.17014 
L 738.555844 184.174505 
L 751.438961 184.178643 
L 764.322078 184.182684 
L 777.205195 184.186474 
L 790.088312 184.190067 
L 802.971429 184.193556 
L 815.854545 184.196805 
L 828.737662 184.199947 
L 841.620779 184.202824 
L 854.503896 184.205611 
L 867.387013 184.20829 
L 880.27013 184.210786 
L 893.153247 184.213116 
L 906.036364 184.215297 
L 918.919481 184.217404 
L 931.802597 184.219342 
L 944.685714 184.221126 
L 957.568831 184.222779 
L 970.451948 184.120409 
L 983.335065 192.170132 
L 996.218182 183.495103 
" style="fill:none;stroke:#1f77b4;stroke-linecap:square;stroke-width:1.5;"/>
   </g>
   <g id="line2d_18">
    <path clip-path="url(#pc1c0028243)" d="M 184.581818 185.649461 
L 197.464935 209.613437 
L 210.348052 223.631736 
L 223.231169 232.904154 
L 236.114286 238.798023 
L 248.997403 242.554852 
L 261.880519 244.994716 
L 274.763636 246.618272 
L 287.646753 247.727281 
L 300.52987 248.505842 
L 313.412987 249.068058 
L 326.296104 249.48581 
L 339.179221 249.805264 
L 352.062338 250.056366 
L 364.945455 250.258883 
L 377.828571 250.426236 
L 390.711688 250.567527 
L 403.594805 250.689019 
L 416.477922 250.795341 
L 429.361039 250.889728 
L 442.244156 250.974588 
L 455.127273 251.051664 
L 468.01039 251.122487 
L 480.893506 251.18793 
L 493.776623 251.248907 
L 506.65974 251.306071 
L 519.542857 251.359885 
L 532.425974 251.410793 
L 545.309091 251.459164 
L 558.192208 251.505176 
L 571.075325 251.549112 
L 583.958442 251.591156 
L 596.841558 251.63136 
L 609.724675 251.669964 
L 622.607792 251.707076 
L 635.490909 251.742659 
L 648.374026 251.776819 
L 661.257143 251.809692 
L 674.14026 251.841356 
L 687.023377 251.871828 
L 699.906494 251.901075 
L 712.78961 251.929264 
L 725.672727 251.956316 
L 738.555844 251.982318 
L 751.438961 252.007273 
L 764.322078 252.031205 
L 777.205195 252.054275 
L 790.088312 252.076341 
L 802.971429 252.097492 
L 815.854545 252.117834 
L 828.737662 252.137278 
L 841.620779 252.155842 
L 854.503896 252.173687 
L 867.387013 252.190599 
L 880.27013 252.2068 
L 893.153247 252.222334 
L 906.036364 252.237121 
L 918.919481 252.251136 
L 931.802597 252.264555 
L 944.685714 252.277245 
L 957.568831 252.289287 
L 970.451948 252.283351 
L 983.335065 250.962671 
L 996.218182 295.488 
" style="fill:none;stroke:#ff7f0e;stroke-linecap:square;stroke-width:1.5;"/>
   </g>
   <g id="line2d_19">
    <path clip-path="url(#pc1c0028243)" d="M 184.581818 200.315056 
L 197.464935 201.432059 
L 210.348052 208.859837 
L 223.231169 214.837816 
L 236.114286 218.753581 
L 248.997403 221.202074 
L 261.880519 222.727422 
L 274.763636 223.696463 
L 287.646753 224.329236 
L 300.52987 224.754355 
L 313.412987 225.04846 
L 326.296104 225.257656 
L 339.179221 225.410607 
L 352.062338 225.525167 
L 364.945455 225.613173 
L 377.828571 225.68201 
L 390.711688 225.736962 
L 403.594805 225.781361 
L 416.477922 225.81793 
L 429.361039 225.848225 
L 442.244156 225.873632 
L 455.127273 225.895196 
L 468.01039 225.913463 
L 480.893506 225.929193 
L 493.776623 225.942865 
L 506.65974 225.954667 
L 519.542857 225.965011 
L 532.425974 225.974045 
L 545.309091 225.982052 
L 558.192208 225.989201 
L 571.075325 225.995515 
L 583.958442 226.001154 
L 596.841558 226.00617 
L 609.724675 226.010587 
L 622.607792 226.0146 
L 635.490909 226.018163 
L 648.374026 226.021274 
L 661.257143 226.024162 
L 674.14026 226.026615 
L 687.023377 226.028832 
L 699.906494 226.030774 
L 712.78961 226.032435 
L 725.672727 226.033862 
L 738.555844 226.035048 
L 751.438961 226.03603 
L 764.322078 226.036826 
L 777.205195 226.037354 
L 790.088312 226.037696 
L 802.971429 226.037941 
L 815.854545 226.037994 
L 828.737662 226.037781 
L 841.620779 226.037501 
L 854.503896 226.037114 
L 867.387013 226.03655 
L 880.27013 226.035799 
L 893.153247 226.034897 
L 906.036364 226.033915 
L 918.919481 226.0328 
L 931.802597 226.031613 
L 944.685714 226.030214 
L 957.568831 226.028707 
L 970.451948 225.982216 
L 983.335065 227.987883 
L 996.218182 177.421563 
" style="fill:none;stroke:#2ca02c;stroke-linecap:square;stroke-width:1.5;"/>
   </g>
   <g id="line2d_20">
    <path clip-path="url(#pc1c0028243)" d="M 184.581818 173.076109 
L 197.464935 175.37714 
L 210.348052 172.630887 
L 223.231169 171.303887 
L 236.114286 170.396152 
L 248.997403 169.777557 
L 261.880519 169.332529 
L 274.763636 169.000702 
L 287.646753 168.747696 
L 300.52987 168.551212 
L 313.412987 168.39613 
L 326.296104 168.271963 
L 339.179221 168.171224 
L 352.062338 168.08855 
L 364.945455 168.020115 
L 377.828571 167.96316 
L 390.711688 167.915253 
L 403.594805 167.874906 
L 416.477922 167.840844 
L 429.361039 167.811879 
L 442.244156 167.787378 
L 455.127273 167.766271 
L 468.01039 167.748411 
L 480.893506 167.733097 
L 493.776623 167.720026 
L 506.65974 167.708766 
L 519.542857 167.699084 
L 532.425974 167.690766 
L 545.309091 167.683663 
L 558.192208 167.677564 
L 571.075325 167.672303 
L 583.958442 167.667773 
L 596.841558 167.663977 
L 609.724675 167.660659 
L 622.607792 167.657882 
L 635.490909 167.655498 
L 648.374026 167.653563 
L 661.257143 167.651916 
L 674.14026 167.65056 
L 687.023377 167.649454 
L 699.906494 167.648602 
L 712.78961 167.647974 
L 725.672727 167.64751 
L 738.555844 167.647186 
L 751.438961 167.646981 
L 764.322078 167.64701 
L 777.205195 167.647022 
L 790.088312 167.64731 
L 802.971429 167.647508 
L 815.854545 167.647949 
L 828.737662 167.648339 
L 841.620779 167.648914 
L 854.503896 167.649434 
L 867.387013 167.650083 
L 880.27013 167.650772 
L 893.153247 167.651464 
L 906.036364 167.65223 
L 918.919481 167.652973 
L 931.802597 167.653904 
L 944.685714 167.654655 
L 957.568831 167.655514 
L 970.451948 167.727909 
L 983.335065 161.869444 
L 996.218182 190.918424 
" style="fill:none;stroke:#d62728;stroke-linecap:square;stroke-width:1.5;"/>
   </g>
   <g id="line2d_21">
    <path clip-path="url(#pc1c0028243)" d="M 184.581818 153.031124 
L 197.464935 157.344717 
L 210.348052 163.074132 
L 223.231169 167.665904 
L 236.114286 170.703471 
L 248.997403 172.571362 
L 261.880519 173.713384 
L 274.763636 174.42079 
L 287.646753 174.865185 
L 300.52987 175.147433 
L 313.412987 175.327529 
L 326.296104 175.442407 
L 339.179221 175.514836 
L 352.062338 175.559301 
L 364.945455 175.584959 
L 377.828571 175.597723 
L 390.711688 175.601551 
L 403.594805 175.59906 
L 416.477922 175.592009 
L 429.361039 175.581666 
L 442.244156 175.568893 
L 455.127273 175.554409 
L 468.01039 175.538688 
L 480.893506 175.521997 
L 493.776623 175.504745 
L 506.65974 175.487113 
L 519.542857 175.469258 
L 532.425974 175.451338 
L 545.309091 175.433465 
L 558.192208 175.415763 
L 571.075325 175.398219 
L 583.958442 175.380975 
L 596.841558 175.363987 
L 609.724675 175.347439 
L 622.607792 175.331201 
L 635.490909 175.315335 
L 648.374026 175.299921 
L 661.257143 175.284902 
L 674.14026 175.270334 
L 687.023377 175.256165 
L 699.906494 175.242496 
L 712.78961 175.22922 
L 725.672727 175.216403 
L 738.555844 175.204018 
L 751.438961 175.192007 
L 764.322078 175.18047 
L 777.205195 175.169336 
L 790.088312 175.158571 
L 802.971429 175.148199 
L 815.854545 175.138241 
L 828.737662 175.128728 
L 841.620779 175.119468 
L 854.503896 175.110639 
L 867.387013 175.102161 
L 880.27013 175.094007 
L 893.153247 175.086143 
L 906.036364 175.078669 
L 918.919481 175.071488 
L 931.802597 175.064658 
L 944.685714 175.058055 
L 957.568831 175.051779 
L 970.451948 175.040413 
L 983.335065 167.650111 
L 996.218182 243.341865 
" style="fill:none;stroke:#9467bd;stroke-linecap:square;stroke-width:1.5;"/>
   </g>
   <g id="line2d_22">
    <path clip-path="url(#pc1c0028243)" d="M 184.581818 169.564666 
L 197.464935 178.004858 
L 210.348052 179.345571 
L 223.231169 180.656276 
L 236.114286 181.650991 
L 248.997403 182.346888 
L 261.880519 182.811459 
L 274.763636 183.119602 
L 287.646753 183.326795 
L 300.52987 183.469656 
L 313.412987 183.571538 
L 326.296104 183.646775 
L 339.179221 183.704939 
L 352.062338 183.751704 
L 364.945455 183.790848 
L 377.828571 183.824838 
L 390.711688 183.855288 
L 403.594805 183.88296 
L 416.477922 183.908844 
L 429.361039 183.933297 
L 442.244156 183.956597 
L 455.127273 183.978841 
L 468.01039 184.000343 
L 480.893506 184.021151 
L 493.776623 184.041312 
L 506.65974 184.060832 
L 519.542857 184.079757 
L 532.425974 184.098099 
L 545.309091 184.115971 
L 558.192208 184.133402 
L 571.075325 184.15011 
L 583.958442 184.166497 
L 596.841558 184.182378 
L 609.724675 184.197721 
L 622.607792 184.212692 
L 635.490909 184.227114 
L 648.374026 184.241124 
L 661.257143 184.254611 
L 674.14026 184.267689 
L 687.023377 184.280434 
L 699.906494 184.292699 
L 712.78961 184.304522 
L 725.672727 184.315932 
L 738.555844 184.326951 
L 751.438961 184.337619 
L 764.322078 184.347798 
L 777.205195 184.357701 
L 790.088312 184.367224 
L 802.971429 184.376371 
L 815.854545 184.385203 
L 828.737662 184.393647 
L 841.620779 184.401828 
L 854.503896 184.409646 
L 867.387013 184.417164 
L 880.27013 184.424388 
L 893.153247 184.431333 
L 906.036364 184.43797 
L 918.919481 184.444316 
L 931.802597 184.450424 
L 944.685714 184.456265 
L 957.568831 184.461816 
L 970.451948 184.436079 
L 983.335065 184.925984 
L 996.218182 247.747569 
" style="fill:none;stroke:#8c564b;stroke-linecap:square;stroke-width:1.5;"/>
   </g>
   <g id="line2d_23">
    <path clip-path="url(#pc1c0028243)" d="M 184.581818 171.439708 
L 197.464935 175.008856 
L 210.348052 174.774365 
L 223.231169 174.936393 
L 236.114286 175.11017 
L 248.997403 175.222027 
L 261.880519 175.270821 
L 274.763636 175.277321 
L 287.646753 175.260541 
L 300.52987 175.233075 
L 313.412987 175.202019 
L 326.296104 175.171094 
L 339.179221 175.141996 
L 352.062338 175.115241 
L 364.945455 175.09085 
L 377.828571 175.06869 
L 390.711688 175.048467 
L 403.594805 175.029866 
L 416.477922 175.012717 
L 429.361039 174.996727 
L 442.244156 174.981802 
L 455.127273 174.967761 
L 468.01039 174.954535 
L 480.893506 174.942057 
L 493.776623 174.930164 
L 506.65974 174.918985 
L 519.542857 174.908296 
L 532.425974 174.898224 
L 545.309091 174.88859 
L 558.192208 174.879379 
L 571.075325 174.870668 
L 583.958442 174.862362 
L 596.841558 174.854423 
L 609.724675 174.846908 
L 622.607792 174.839712 
L 635.490909 174.832814 
L 648.374026 174.826289 
L 661.257143 174.819956 
L 674.14026 174.813984 
L 687.023377 174.808186 
L 699.906494 174.802635 
L 712.78961 174.797333 
L 725.672727 174.792294 
L 738.555844 174.787325 
L 751.438961 174.782586 
L 764.322078 174.778018 
L 777.205195 174.773598 
L 790.088312 174.769299 
L 802.971429 174.765205 
L 815.854545 174.761188 
L 828.737662 174.757334 
L 841.620779 174.753511 
L 854.503896 174.74983 
L 867.387013 174.746223 
L 880.27013 174.742688 
L 893.153247 174.739258 
L 906.036364 174.735887 
L 918.919481 174.732601 
L 931.802597 174.729333 
L 944.685714 174.726186 
L 957.568831 174.723107 
L 970.451948 174.728869 
L 983.335065 162.04854 
L 996.218182 183.5832 
" style="fill:none;stroke:#e377c2;stroke-linecap:square;stroke-width:1.5;"/>
   </g>
   <g id="line2d_24">
    <path clip-path="url(#pc1c0028243)" d="M 184.581818 178.351998 
L 197.464935 202.41042 
L 210.348052 220.895759 
L 223.231169 233.284483 
L 236.114286 241.27882 
L 248.997403 246.388783 
L 261.880519 249.708056 
L 274.763636 251.914316 
L 287.646753 253.416483 
L 300.52987 254.463955 
L 313.412987 255.212279 
L 326.296104 255.75968 
L 339.179221 256.16986 
L 352.062338 256.484303 
L 364.945455 256.730548 
L 377.828571 256.927444 
L 390.711688 257.087656 
L 403.594805 257.220354 
L 416.477922 257.331768 
L 429.361039 257.426519 
L 442.244156 257.50826 
L 455.127273 257.579533 
L 468.01039 257.642247 
L 480.893506 257.69795 
L 493.776623 257.747894 
L 506.65974 257.792932 
L 519.542857 257.834016 
L 532.425974 257.871545 
L 545.309091 257.906159 
L 558.192208 257.938107 
L 571.075325 257.967896 
L 583.958442 257.995578 
L 596.841558 258.02159 
L 609.724675 258.04594 
L 622.607792 258.068815 
L 635.490909 258.090401 
L 648.374026 258.110814 
L 661.257143 258.130018 
L 674.14026 258.148245 
L 687.023377 258.165503 
L 699.906494 258.181828 
L 712.78961 258.197282 
L 725.672727 258.211866 
L 738.555844 258.225694 
L 751.438961 258.238793 
L 764.322078 258.251181 
L 777.205195 258.262832 
L 790.088312 258.273851 
L 802.971429 258.284284 
L 815.854545 258.294024 
L 828.737662 258.303204 
L 841.620779 258.311834 
L 854.503896 258.319921 
L 867.387013 258.327412 
L 880.27013 258.334451 
L 893.153247 258.341036 
L 906.036364 258.347034 
L 918.919481 258.352651 
L 931.802597 258.357743 
L 944.685714 258.362488 
L 957.568831 258.36679 
L 970.451948 258.561136 
L 983.335065 261.749719 
L 996.218182 255.170804 
" style="fill:none;stroke:#7f7f7f;stroke-linecap:square;stroke-width:1.5;"/>
   </g>
   <g id="line2d_25">
    <path clip-path="url(#pc1c0028243)" d="M 184.581818 201.428002 
L 197.464935 198.357549 
L 210.348052 189.971475 
L 223.231169 183.164544 
L 236.114286 178.696933 
L 248.997403 175.961718 
L 261.880519 174.296598 
L 274.763636 173.266082 
L 287.646753 172.613842 
L 300.52987 172.190713 
L 313.412987 171.908999 
L 326.296104 171.716359 
L 339.179221 171.580669 
L 352.062338 171.482297 
L 364.945455 171.40893 
L 377.828571 171.352899 
L 390.711688 171.308947 
L 403.594805 171.273866 
L 416.477922 171.245483 
L 429.361039 171.222152 
L 442.244156 171.202798 
L 455.127273 171.186651 
L 468.01039 171.173133 
L 480.893506 171.161779 
L 493.776623 171.152193 
L 506.65974 171.144039 
L 519.542857 171.137166 
L 532.425974 171.131404 
L 545.309091 171.126524 
L 558.192208 171.122443 
L 571.075325 171.11897 
L 583.958442 171.116104 
L 596.841558 171.113818 
L 609.724675 171.111866 
L 622.607792 171.110348 
L 635.490909 171.109166 
L 648.374026 171.108208 
L 661.257143 171.107575 
L 674.14026 171.107175 
L 687.023377 171.106863 
L 699.906494 171.106827 
L 712.78961 171.106923 
L 725.672727 171.107119 
L 738.555844 171.107441 
L 751.438961 171.107892 
L 764.322078 171.108417 
L 777.205195 171.109051 
L 790.088312 171.109704 
L 802.971429 171.110475 
L 815.854545 171.111285 
L 828.737662 171.112067 
L 841.620779 171.112998 
L 854.503896 171.113936 
L 867.387013 171.114846 
L 880.27013 171.115826 
L 893.153247 171.116845 
L 906.036364 171.117856 
L 918.919481 171.118835 
L 931.802597 171.119908 
L 944.685714 171.120958 
L 957.568831 171.122048 
L 970.451948 171.151817 
L 983.335065 177.497247 
L 996.218182 78.740619 
" style="fill:none;stroke:#bcbd22;stroke-linecap:square;stroke-width:1.5;"/>
   </g>
   <g id="line2d_26">
    <path clip-path="url(#pc1c0028243)" d="M 184.581818 148.58638 
L 197.464935 124.951636 
L 210.348052 101.020649 
L 223.231169 84.916703 
L 236.114286 74.858526 
L 248.997403 68.582438 
L 261.880519 64.568634 
L 274.763636 61.918014 
L 287.646753 60.110621 
L 300.52987 58.840285 
L 313.412987 57.921548 
L 326.296104 57.238853 
L 339.179221 56.718379 
L 352.062338 56.312224 
L 364.945455 55.988326 
L 377.828571 55.724814 
L 390.711688 55.506714 
L 403.594805 55.323414 
L 416.477922 55.167068 
L 429.361039 55.032157 
L 442.244156 54.914407 
L 455.127273 54.810627 
L 468.01039 54.718124 
L 480.893506 54.634979 
L 493.776623 54.559867 
L 506.65974 54.491448 
L 519.542857 54.428742 
L 532.425974 54.370924 
L 545.309091 54.317372 
L 558.192208 54.267517 
L 571.075325 54.220968 
L 583.958442 54.177512 
L 596.841558 54.136561 
L 609.724675 54.098019 
L 622.607792 54.06169 
L 635.490909 54.027378 
L 648.374026 53.994941 
L 661.257143 53.964112 
L 674.14026 53.935088 
L 687.023377 53.90753 
L 699.906494 53.881394 
L 712.78961 53.8566 
L 725.672727 53.833085 
L 738.555844 53.810877 
L 751.438961 53.789788 
L 764.322078 53.769891 
L 777.205195 53.751033 
L 790.088312 53.733295 
L 802.971429 53.716428 
L 815.854545 53.700591 
L 828.737662 53.685715 
L 841.620779 53.671674 
L 854.503896 53.658539 
L 867.387013 53.646266 
L 880.27013 53.634758 
L 893.153247 53.624076 
L 906.036364 53.614105 
L 918.919481 53.604774 
L 931.802597 53.596251 
L 944.685714 53.588369 
L 957.568831 53.581135 
L 970.451948 53.568 
L 983.335065 55.406977 
L 996.218182 88.947073 
" style="fill:none;stroke:#17becf;stroke-linecap:square;stroke-width:1.5;"/>
   </g>
   <g id="line2d_27">
    <path clip-path="url(#pc1c0028243)" d="M 184.581818 165.672048 
L 197.464935 160.404239 
L 210.348052 149.854709 
L 223.231169 143.21827 
L 236.114286 139.10879 
L 248.997403 136.569353 
L 261.880519 134.963113 
L 274.763636 133.918841 
L 287.646753 133.220638 
L 300.52987 132.740315 
L 313.412987 132.399731 
L 326.296104 132.150927 
L 339.179221 131.96338 
L 352.062338 131.817827 
L 364.945455 131.701667 
L 377.828571 131.606596 
L 390.711688 131.526957 
L 403.594805 131.459141 
L 416.477922 131.400222 
L 429.361039 131.348443 
L 442.244156 131.302293 
L 455.127273 131.260845 
L 468.01039 131.223085 
L 480.893506 131.188617 
L 493.776623 131.15666 
L 506.65974 131.127161 
L 519.542857 131.099567 
L 532.425974 131.07372 
L 545.309091 131.049365 
L 558.192208 131.026384 
L 571.075325 131.004691 
L 583.958442 130.984061 
L 596.841558 130.964581 
L 609.724675 130.945949 
L 622.607792 130.92822 
L 635.490909 130.911282 
L 648.374026 130.895175 
L 661.257143 130.879752 
L 674.14026 130.865079 
L 687.023377 130.850994 
L 699.906494 130.837628 
L 712.78961 130.824782 
L 725.672727 130.81262 
L 738.555844 130.801023 
L 751.438961 130.789928 
L 764.322078 130.77941 
L 777.205195 130.769399 
L 790.088312 130.759904 
L 802.971429 130.750755 
L 815.854545 130.742219 
L 828.737662 130.734101 
L 841.620779 130.726445 
L 854.503896 130.719153 
L 867.387013 130.712235 
L 880.27013 130.705783 
L 893.153247 130.6997 
L 906.036364 130.693977 
L 918.919481 130.688547 
L 931.802597 130.683588 
L 944.685714 130.67886 
L 957.568831 130.674595 
L 970.451948 130.663388 
L 983.335065 129.408467 
L 996.218182 80.243212 
" style="fill:none;stroke:#1f77b4;stroke-linecap:square;stroke-width:1.5;"/>
   </g>
   <g id="line2d_28">
    <path clip-path="url(#pc1c0028243)" d="M 184.581818 180.543571 
L 197.464935 204.734147 
L 210.348052 218.740482 
L 223.231169 226.597295 
L 236.114286 231.246357 
L 248.997403 234.098911 
L 261.880519 235.933005 
L 274.763636 237.156561 
L 287.646753 237.997303 
L 300.52987 238.590769 
L 313.412987 239.020816 
L 326.296104 239.340724 
L 339.179221 239.585014 
L 352.062338 239.776027 
L 364.945455 239.92904 
L 377.828571 240.05434 
L 390.711688 240.158774 
L 403.594805 240.247504 
L 416.477922 240.323998 
L 429.361039 240.3908 
L 442.244156 240.450026 
L 455.127273 240.50308 
L 468.01039 240.551122 
L 480.893506 240.594832 
L 493.776623 240.634987 
L 506.65974 240.672254 
L 519.542857 240.706749 
L 532.425974 240.739212 
L 545.309091 240.769494 
L 558.192208 240.798021 
L 571.075325 240.825214 
L 583.958442 240.850897 
L 596.841558 240.875283 
L 609.724675 240.898477 
L 622.607792 240.920539 
L 635.490909 240.941507 
L 648.374026 240.96152 
L 661.257143 240.980605 
L 674.14026 240.998823 
L 687.023377 241.016094 
L 699.906494 241.032611 
L 712.78961 241.048345 
L 725.672727 241.063359 
L 738.555844 241.077667 
L 751.438961 241.091228 
L 764.322078 241.104087 
L 777.205195 241.116307 
L 790.088312 241.127868 
L 802.971429 241.138786 
L 815.854545 241.149112 
L 828.737662 241.158897 
L 841.620779 241.168006 
L 854.503896 241.176639 
L 867.387013 241.184682 
L 880.27013 241.192151 
L 893.153247 241.19923 
L 906.036364 241.20573 
L 918.919481 241.211818 
L 931.802597 241.21735 
L 944.685714 241.222415 
L 957.568831 241.227125 
L 970.451948 241.294487 
L 983.335065 248.589338 
L 996.218182 173.835806 
" style="fill:none;stroke:#ff7f0e;stroke-linecap:square;stroke-width:1.5;"/>
   </g>
   <g id="line2d_29">
    <path clip-path="url(#pc1c0028243)" d="M 184.581818 179.508831 
L 197.464935 185.310719 
L 210.348052 192.469129 
L 223.231169 196.858056 
L 236.114286 199.544813 
L 248.997403 201.244765 
L 261.880519 202.359134 
L 274.763636 203.112075 
L 287.646753 203.635058 
L 300.52987 204.008233 
L 313.412987 204.28185 
L 326.296104 204.488222 
L 339.179221 204.648213 
L 352.062338 204.775633 
L 364.945455 204.879811 
L 377.828571 204.966957 
L 390.711688 205.041353 
L 403.594805 205.106187 
L 416.477922 205.163454 
L 429.361039 205.214753 
L 442.244156 205.261273 
L 455.127273 205.303894 
L 468.01039 205.343241 
L 480.893506 205.379799 
L 493.776623 205.414029 
L 506.65974 205.446212 
L 519.542857 205.476561 
L 532.425974 205.505312 
L 545.309091 205.532632 
L 558.192208 205.558613 
L 571.075325 205.583443 
L 583.958442 205.60707 
L 596.841558 205.629703 
L 609.724675 205.651409 
L 622.607792 205.672135 
L 635.490909 205.692062 
L 648.374026 205.711137 
L 661.257143 205.729442 
L 674.14026 205.746947 
L 687.023377 205.763772 
L 699.906494 205.779921 
L 712.78961 205.795387 
L 725.672727 205.810228 
L 738.555844 205.824456 
L 751.438961 205.838075 
L 764.322078 205.85112 
L 777.205195 205.863571 
L 790.088312 205.875564 
L 802.971429 205.886954 
L 815.854545 205.897878 
L 828.737662 205.908378 
L 841.620779 205.918329 
L 854.503896 205.92786 
L 867.387013 205.936934 
L 880.27013 205.945587 
L 893.153247 205.953821 
L 906.036364 205.961666 
L 918.919481 205.969133 
L 931.802597 205.97624 
L 944.685714 205.982948 
L 957.568831 205.989342 
L 970.451948 205.91541 
L 983.335065 213.124476 
L 996.218182 206.139076 
" style="fill:none;stroke:#2ca02c;stroke-linecap:square;stroke-width:1.5;"/>
   </g>
   <g id="line2d_30">
    <path clip-path="url(#pc1c0028243)" d="M 184.581818 182.873233 
L 197.464935 183.833396 
L 210.348052 186.013872 
L 223.231169 187.669087 
L 236.114286 189.027094 
L 248.997403 190.077301 
L 261.880519 190.872143 
L 274.763636 191.471893 
L 287.646753 191.926232 
L 300.52987 192.273025 
L 313.412987 192.540338 
L 326.296104 192.748586 
L 339.179221 192.912728 
L 352.062338 193.043512 
L 364.945455 193.148828 
L 377.828571 193.234399 
L 390.711688 193.304629 
L 403.594805 193.362569 
L 416.477922 193.410757 
L 429.361039 193.451006 
L 442.244156 193.484815 
L 455.127273 193.513352 
L 468.01039 193.53746 
L 480.893506 193.558019 
L 493.776623 193.575508 
L 506.65974 193.590435 
L 519.542857 193.603276 
L 532.425974 193.614282 
L 545.309091 193.623737 
L 558.192208 193.631921 
L 571.075325 193.638974 
L 583.958442 193.644996 
L 596.841558 193.650285 
L 609.724675 193.654859 
L 622.607792 193.658789 
L 635.490909 193.662192 
L 648.374026 193.665181 
L 661.257143 193.667845 
L 674.14026 193.670021 
L 687.023377 193.671992 
L 699.906494 193.673672 
L 712.78961 193.675134 
L 725.672727 193.67642 
L 738.555844 193.677533 
L 751.438961 193.678479 
L 764.322078 193.679271 
L 777.205195 193.680017 
L 790.088312 193.680568 
L 802.971429 193.681136 
L 815.854545 193.681534 
L 828.737662 193.681927 
L 841.620779 193.682255 
L 854.503896 193.682477 
L 867.387013 193.682696 
L 880.27013 193.682866 
L 893.153247 193.683019 
L 906.036364 193.683088 
L 918.919481 193.68315 
L 931.802597 193.683154 
L 944.685714 193.683218 
L 957.568831 193.683194 
L 970.451948 193.733621 
L 983.335065 194.80673 
L 996.218182 152.714051 
" style="fill:none;stroke:#d62728;stroke-linecap:square;stroke-width:1.5;"/>
   </g>
   <g id="line2d_31">
    <path clip-path="url(#pc1c0028243)" d="M 184.581818 182.581747 
L 197.464935 184.078371 
L 210.348052 183.709966 
L 223.231169 183.028828 
L 236.114286 182.570009 
L 248.997403 182.26565 
L 261.880519 182.073799 
L 274.763636 181.955749 
L 287.646753 181.884283 
L 300.52987 181.842135 
L 313.412987 181.818467 
L 326.296104 181.806462 
L 339.179221 181.801775 
L 352.062338 181.801726 
L 364.945455 181.804576 
L 377.828571 181.809171 
L 390.711688 181.814811 
L 403.594805 181.821041 
L 416.477922 181.827555 
L 429.361039 181.834243 
L 442.244156 181.840854 
L 455.127273 181.847384 
L 468.01039 181.853859 
L 480.893506 181.860044 
L 493.776623 181.866099 
L 506.65974 181.871937 
L 519.542857 181.877468 
L 532.425974 181.882894 
L 545.309091 181.888019 
L 558.192208 181.892937 
L 571.075325 181.89765 
L 583.958442 181.902263 
L 596.841558 181.906544 
L 609.724675 181.910761 
L 622.607792 181.91475 
L 635.490909 181.918584 
L 648.374026 181.922304 
L 661.257143 181.925761 
L 674.14026 181.929222 
L 687.023377 181.932378 
L 699.906494 181.935544 
L 712.78961 181.938501 
L 725.672727 181.941382 
L 738.555844 181.944221 
L 751.438961 181.946929 
L 764.322078 181.949528 
L 777.205195 181.95205 
L 790.088312 181.954494 
L 802.971429 181.956877 
L 815.854545 181.959095 
L 828.737662 181.961364 
L 841.620779 181.963452 
L 854.503896 181.965611 
L 867.387013 181.967583 
L 880.27013 181.96957 
L 893.153247 181.971468 
L 906.036364 181.973382 
L 918.919481 181.975195 
L 931.802597 181.976913 
L 944.685714 181.97866 
L 957.568831 181.980371 
L 970.451948 182.085899 
L 983.335065 164.724107 
L 996.218182 86.566835 
" style="fill:none;stroke:#9467bd;stroke-linecap:square;stroke-width:1.5;"/>
   </g>
   <g id="line2d_32">
    <path clip-path="url(#pc1c0028243)" d="M 184.581818 180.628343 
L 197.464935 184.188422 
L 210.348052 188.379524 
L 223.231169 192.0369 
L 236.114286 194.470846 
L 248.997403 195.964463 
L 261.880519 196.869095 
L 274.763636 197.421676 
L 287.646753 197.762403 
L 300.52987 197.973483 
L 313.412987 198.103268 
L 326.296104 198.181181 
L 339.179221 198.225518 
L 352.062338 198.247639 
L 364.945455 198.254886 
L 377.828571 198.25194 
L 390.711688 198.242143 
L 403.594805 198.227444 
L 416.477922 198.209426 
L 429.361039 198.189075 
L 442.244156 198.167162 
L 455.127273 198.144245 
L 468.01039 198.120675 
L 480.893506 198.096761 
L 493.776623 198.072822 
L 506.65974 198.04895 
L 519.542857 198.02524 
L 532.425974 198.001952 
L 545.309091 197.979004 
L 558.192208 197.956496 
L 571.075325 197.934574 
L 583.958442 197.913179 
L 596.841558 197.892302 
L 609.724675 197.872046 
L 622.607792 197.852378 
L 635.490909 197.833182 
L 648.374026 197.814746 
L 661.257143 197.796753 
L 674.14026 197.779328 
L 687.023377 197.762545 
L 699.906494 197.746149 
L 712.78961 197.730439 
L 725.672727 197.71511 
L 738.555844 197.700362 
L 751.438961 197.686125 
L 764.322078 197.672295 
L 777.205195 197.658945 
L 790.088312 197.646032 
L 802.971429 197.633566 
L 815.854545 197.621447 
L 828.737662 197.609836 
L 841.620779 197.598472 
L 854.503896 197.587524 
L 867.387013 197.576973 
L 880.27013 197.566722 
L 893.153247 197.556764 
L 906.036364 197.547238 
L 918.919481 197.537871 
L 931.802597 197.528837 
L 944.685714 197.520102 
L 957.568831 197.511677 
L 970.451948 197.394908 
L 983.335065 177.174293 
L 996.218182 156.37991 
" style="fill:none;stroke:#8c564b;stroke-linecap:square;stroke-width:1.5;"/>
   </g>
   <g id="patch_3">
    <path d="M 144 307.584 
L 144 41.472 
" style="fill:none;stroke:#000000;stroke-linecap:square;stroke-linejoin:miter;stroke-width:0.8;"/>
   </g>
   <g id="patch_4">
    <path d="M 1036.8 307.584 
L 1036.8 41.472 
" style="fill:none;stroke:#000000;stroke-linecap:square;stroke-linejoin:miter;stroke-width:0.8;"/>
   </g>
   <g id="patch_5">
    <path d="M 144 307.584 
L 1036.8 307.584 
" style="fill:none;stroke:#000000;stroke-linecap:square;stroke-linejoin:miter;stroke-width:0.8;"/>
   </g>
   <g id="patch_6">
    <path d="M 144 41.472 
L 1036.8 41.472 
" style="fill:none;stroke:#000000;stroke-linecap:square;stroke-linejoin:miter;stroke-width:0.8;"/>
   </g>
   <g id="text_17">
    <!-- 4th layer's shape: torch.Size([1, 256, 64]). Uniformly sampling 16 channels -->
    <g transform="translate(364.66875 35.472)scale(0.12 -0.12)">
     <defs>
      <path d="M 18.3125 70.21875 
L 18.3125 54.6875 
L 36.8125 54.6875 
L 36.8125 47.703125 
L 18.3125 47.703125 
L 18.3125 18.015625 
Q 18.3125 11.328125 20.140625 9.421875 
Q 21.96875 7.515625 27.59375 7.515625 
L 36.8125 7.515625 
L 36.8125 0 
L 27.59375 0 
Q 17.1875 0 13.234375 3.875 
Q 9.28125 7.765625 9.28125 18.015625 
L 9.28125 47.703125 
L 2.6875 47.703125 
L 2.6875 54.6875 
L 9.28125 54.6875 
L 9.28125 70.21875 
z
" id="DejaVuSans-116"/>
      <path d="M 54.890625 33.015625 
L 54.890625 0 
L 45.90625 0 
L 45.90625 32.71875 
Q 45.90625 40.484375 42.875 44.328125 
Q 39.84375 48.1875 33.796875 48.1875 
Q 26.515625 48.1875 22.3125 43.546875 
Q 18.109375 38.921875 18.109375 30.90625 
L 18.109375 0 
L 9.078125 0 
L 9.078125 75.984375 
L 18.109375 75.984375 
L 18.109375 46.1875 
Q 21.34375 51.125 25.703125 53.5625 
Q 30.078125 56 35.796875 56 
Q 45.21875 56 50.046875 50.171875 
Q 54.890625 44.34375 54.890625 33.015625 
z
" id="DejaVuSans-104"/>
      <path id="DejaVuSans-32"/>
      <path d="M 9.421875 75.984375 
L 18.40625 75.984375 
L 18.40625 0 
L 9.421875 0 
z
" id="DejaVuSans-108"/>
      <path d="M 34.28125 27.484375 
Q 23.390625 27.484375 19.1875 25 
Q 14.984375 22.515625 14.984375 16.5 
Q 14.984375 11.71875 18.140625 8.90625 
Q 21.296875 6.109375 26.703125 6.109375 
Q 34.1875 6.109375 38.703125 11.40625 
Q 43.21875 16.703125 43.21875 25.484375 
L 43.21875 27.484375 
z
M 52.203125 31.203125 
L 52.203125 0 
L 43.21875 0 
L 43.21875 8.296875 
Q 40.140625 3.328125 35.546875 0.953125 
Q 30.953125 -1.421875 24.3125 -1.421875 
Q 15.921875 -1.421875 10.953125 3.296875 
Q 6 8.015625 6 15.921875 
Q 6 25.140625 12.171875 29.828125 
Q 18.359375 34.515625 30.609375 34.515625 
L 43.21875 34.515625 
L 43.21875 35.40625 
Q 43.21875 41.609375 39.140625 45 
Q 35.0625 48.390625 27.6875 48.390625 
Q 23 48.390625 18.546875 47.265625 
Q 14.109375 46.140625 10.015625 43.890625 
L 10.015625 52.203125 
Q 14.9375 54.109375 19.578125 55.046875 
Q 24.21875 56 28.609375 56 
Q 40.484375 56 46.34375 49.84375 
Q 52.203125 43.703125 52.203125 31.203125 
z
" id="DejaVuSans-97"/>
      <path d="M 32.171875 -5.078125 
Q 28.375 -14.84375 24.75 -17.8125 
Q 21.140625 -20.796875 15.09375 -20.796875 
L 7.90625 -20.796875 
L 7.90625 -13.28125 
L 13.1875 -13.28125 
Q 16.890625 -13.28125 18.9375 -11.515625 
Q 21 -9.765625 23.484375 -3.21875 
L 25.09375 0.875 
L 2.984375 54.6875 
L 12.5 54.6875 
L 29.59375 11.921875 
L 46.6875 54.6875 
L 56.203125 54.6875 
z
" id="DejaVuSans-121"/>
      <path d="M 56.203125 29.59375 
L 56.203125 25.203125 
L 14.890625 25.203125 
Q 15.484375 15.921875 20.484375 11.0625 
Q 25.484375 6.203125 34.421875 6.203125 
Q 39.59375 6.203125 44.453125 7.46875 
Q 49.3125 8.734375 54.109375 11.28125 
L 54.109375 2.78125 
Q 49.265625 0.734375 44.1875 -0.34375 
Q 39.109375 -1.421875 33.890625 -1.421875 
Q 20.796875 -1.421875 13.15625 6.1875 
Q 5.515625 13.8125 5.515625 26.8125 
Q 5.515625 40.234375 12.765625 48.109375 
Q 20.015625 56 32.328125 56 
Q 43.359375 56 49.78125 48.890625 
Q 56.203125 41.796875 56.203125 29.59375 
z
M 47.21875 32.234375 
Q 47.125 39.59375 43.09375 43.984375 
Q 39.0625 48.390625 32.421875 48.390625 
Q 24.90625 48.390625 20.390625 44.140625 
Q 15.875 39.890625 15.1875 32.171875 
z
" id="DejaVuSans-101"/>
      <path d="M 41.109375 46.296875 
Q 39.59375 47.171875 37.8125 47.578125 
Q 36.03125 48 33.890625 48 
Q 26.265625 48 22.1875 43.046875 
Q 18.109375 38.09375 18.109375 28.8125 
L 18.109375 0 
L 9.078125 0 
L 9.078125 54.6875 
L 18.109375 54.6875 
L 18.109375 46.1875 
Q 20.953125 51.171875 25.484375 53.578125 
Q 30.03125 56 36.53125 56 
Q 37.453125 56 38.578125 55.875 
Q 39.703125 55.765625 41.0625 55.515625 
z
" id="DejaVuSans-114"/>
      <path d="M 17.921875 72.90625 
L 17.921875 45.796875 
L 9.625 45.796875 
L 9.625 72.90625 
z
" id="DejaVuSans-39"/>
      <path d="M 44.28125 53.078125 
L 44.28125 44.578125 
Q 40.484375 46.53125 36.375 47.5 
Q 32.28125 48.484375 27.875 48.484375 
Q 21.1875 48.484375 17.84375 46.4375 
Q 14.5 44.390625 14.5 40.28125 
Q 14.5 37.15625 16.890625 35.375 
Q 19.28125 33.59375 26.515625 31.984375 
L 29.59375 31.296875 
Q 39.15625 29.25 43.1875 25.515625 
Q 47.21875 21.78125 47.21875 15.09375 
Q 47.21875 7.46875 41.1875 3.015625 
Q 35.15625 -1.421875 24.609375 -1.421875 
Q 20.21875 -1.421875 15.453125 -0.5625 
Q 10.6875 0.296875 5.421875 2 
L 5.421875 11.28125 
Q 10.40625 8.6875 15.234375 7.390625 
Q 20.0625 6.109375 24.8125 6.109375 
Q 31.15625 6.109375 34.5625 8.28125 
Q 37.984375 10.453125 37.984375 14.40625 
Q 37.984375 18.0625 35.515625 20.015625 
Q 33.0625 21.96875 24.703125 23.78125 
L 21.578125 24.515625 
Q 13.234375 26.265625 9.515625 29.90625 
Q 5.8125 33.546875 5.8125 39.890625 
Q 5.8125 47.609375 11.28125 51.796875 
Q 16.75 56 26.8125 56 
Q 31.78125 56 36.171875 55.265625 
Q 40.578125 54.546875 44.28125 53.078125 
z
" id="DejaVuSans-115"/>
      <path d="M 18.109375 8.203125 
L 18.109375 -20.796875 
L 9.078125 -20.796875 
L 9.078125 54.6875 
L 18.109375 54.6875 
L 18.109375 46.390625 
Q 20.953125 51.265625 25.265625 53.625 
Q 29.59375 56 35.59375 56 
Q 45.5625 56 51.78125 48.09375 
Q 58.015625 40.1875 58.015625 27.296875 
Q 58.015625 14.40625 51.78125 6.484375 
Q 45.5625 -1.421875 35.59375 -1.421875 
Q 29.59375 -1.421875 25.265625 0.953125 
Q 20.953125 3.328125 18.109375 8.203125 
z
M 48.6875 27.296875 
Q 48.6875 37.203125 44.609375 42.84375 
Q 40.53125 48.484375 33.40625 48.484375 
Q 26.265625 48.484375 22.1875 42.84375 
Q 18.109375 37.203125 18.109375 27.296875 
Q 18.109375 17.390625 22.1875 11.75 
Q 26.265625 6.109375 33.40625 6.109375 
Q 40.53125 6.109375 44.609375 11.75 
Q 48.6875 17.390625 48.6875 27.296875 
z
" id="DejaVuSans-112"/>
      <path d="M 11.71875 12.40625 
L 22.015625 12.40625 
L 22.015625 0 
L 11.71875 0 
z
M 11.71875 51.703125 
L 22.015625 51.703125 
L 22.015625 39.3125 
L 11.71875 39.3125 
z
" id="DejaVuSans-58"/>
      <path d="M 30.609375 48.390625 
Q 23.390625 48.390625 19.1875 42.75 
Q 14.984375 37.109375 14.984375 27.296875 
Q 14.984375 17.484375 19.15625 11.84375 
Q 23.34375 6.203125 30.609375 6.203125 
Q 37.796875 6.203125 41.984375 11.859375 
Q 46.1875 17.53125 46.1875 27.296875 
Q 46.1875 37.015625 41.984375 42.703125 
Q 37.796875 48.390625 30.609375 48.390625 
z
M 30.609375 56 
Q 42.328125 56 49.015625 48.375 
Q 55.71875 40.765625 55.71875 27.296875 
Q 55.71875 13.875 49.015625 6.21875 
Q 42.328125 -1.421875 30.609375 -1.421875 
Q 18.84375 -1.421875 12.171875 6.21875 
Q 5.515625 13.875 5.515625 27.296875 
Q 5.515625 40.765625 12.171875 48.375 
Q 18.84375 56 30.609375 56 
z
" id="DejaVuSans-111"/>
      <path d="M 48.78125 52.59375 
L 48.78125 44.1875 
Q 44.96875 46.296875 41.140625 47.34375 
Q 37.3125 48.390625 33.40625 48.390625 
Q 24.65625 48.390625 19.8125 42.84375 
Q 14.984375 37.3125 14.984375 27.296875 
Q 14.984375 17.28125 19.8125 11.734375 
Q 24.65625 6.203125 33.40625 6.203125 
Q 37.3125 6.203125 41.140625 7.25 
Q 44.96875 8.296875 48.78125 10.40625 
L 48.78125 2.09375 
Q 45.015625 0.34375 40.984375 -0.53125 
Q 36.96875 -1.421875 32.421875 -1.421875 
Q 20.0625 -1.421875 12.78125 6.34375 
Q 5.515625 14.109375 5.515625 27.296875 
Q 5.515625 40.671875 12.859375 48.328125 
Q 20.21875 56 33.015625 56 
Q 37.15625 56 41.109375 55.140625 
Q 45.0625 54.296875 48.78125 52.59375 
z
" id="DejaVuSans-99"/>
      <path d="M 53.515625 70.515625 
L 53.515625 60.890625 
Q 47.90625 63.578125 42.921875 64.890625 
Q 37.9375 66.21875 33.296875 66.21875 
Q 25.25 66.21875 20.875 63.09375 
Q 16.5 59.96875 16.5 54.203125 
Q 16.5 49.359375 19.40625 46.890625 
Q 22.3125 44.4375 30.421875 42.921875 
L 36.375 41.703125 
Q 47.40625 39.59375 52.65625 34.296875 
Q 57.90625 29 57.90625 20.125 
Q 57.90625 9.515625 50.796875 4.046875 
Q 43.703125 -1.421875 29.984375 -1.421875 
Q 24.8125 -1.421875 18.96875 -0.25 
Q 13.140625 0.921875 6.890625 3.21875 
L 6.890625 13.375 
Q 12.890625 10.015625 18.65625 8.296875 
Q 24.421875 6.59375 29.984375 6.59375 
Q 38.421875 6.59375 43.015625 9.90625 
Q 47.609375 13.234375 47.609375 19.390625 
Q 47.609375 24.75 44.3125 27.78125 
Q 41.015625 30.8125 33.5 32.328125 
L 27.484375 33.5 
Q 16.453125 35.6875 11.515625 40.375 
Q 6.59375 45.0625 6.59375 53.421875 
Q 6.59375 63.09375 13.40625 68.65625 
Q 20.21875 74.21875 32.171875 74.21875 
Q 37.3125 74.21875 42.625 73.28125 
Q 47.953125 72.359375 53.515625 70.515625 
z
" id="DejaVuSans-83"/>
      <path d="M 9.421875 54.6875 
L 18.40625 54.6875 
L 18.40625 0 
L 9.421875 0 
z
M 9.421875 75.984375 
L 18.40625 75.984375 
L 18.40625 64.59375 
L 9.421875 64.59375 
z
" id="DejaVuSans-105"/>
      <path d="M 5.515625 54.6875 
L 48.1875 54.6875 
L 48.1875 46.484375 
L 14.40625 7.171875 
L 48.1875 7.171875 
L 48.1875 0 
L 4.296875 0 
L 4.296875 8.203125 
L 38.09375 47.515625 
L 5.515625 47.515625 
z
" id="DejaVuSans-122"/>
      <path d="M 31 75.875 
Q 24.46875 64.65625 21.28125 53.65625 
Q 18.109375 42.671875 18.109375 31.390625 
Q 18.109375 20.125 21.3125 9.0625 
Q 24.515625 -2 31 -13.1875 
L 23.1875 -13.1875 
Q 15.875 -1.703125 12.234375 9.375 
Q 8.59375 20.453125 8.59375 31.390625 
Q 8.59375 42.28125 12.203125 53.3125 
Q 15.828125 64.359375 23.1875 75.875 
z
" id="DejaVuSans-40"/>
      <path d="M 8.59375 75.984375 
L 29.296875 75.984375 
L 29.296875 69 
L 17.578125 69 
L 17.578125 -6.203125 
L 29.296875 -6.203125 
L 29.296875 -13.1875 
L 8.59375 -13.1875 
z
" id="DejaVuSans-91"/>
      <path d="M 11.71875 12.40625 
L 22.015625 12.40625 
L 22.015625 4 
L 14.015625 -11.625 
L 7.71875 -11.625 
L 11.71875 4 
z
" id="DejaVuSans-44"/>
      <path d="M 30.421875 75.984375 
L 30.421875 -13.1875 
L 9.71875 -13.1875 
L 9.71875 -6.203125 
L 21.390625 -6.203125 
L 21.390625 69 
L 9.71875 69 
L 9.71875 75.984375 
z
" id="DejaVuSans-93"/>
      <path d="M 8.015625 75.875 
L 15.828125 75.875 
Q 23.140625 64.359375 26.78125 53.3125 
Q 30.421875 42.28125 30.421875 31.390625 
Q 30.421875 20.453125 26.78125 9.375 
Q 23.140625 -1.703125 15.828125 -13.1875 
L 8.015625 -13.1875 
Q 14.5 -2 17.703125 9.0625 
Q 20.90625 20.125 20.90625 31.390625 
Q 20.90625 42.671875 17.703125 53.65625 
Q 14.5 64.65625 8.015625 75.875 
z
" id="DejaVuSans-41"/>
      <path d="M 8.6875 72.90625 
L 18.609375 72.90625 
L 18.609375 28.609375 
Q 18.609375 16.890625 22.84375 11.734375 
Q 27.09375 6.59375 36.625 6.59375 
Q 46.09375 6.59375 50.34375 11.734375 
Q 54.59375 16.890625 54.59375 28.609375 
L 54.59375 72.90625 
L 64.5 72.90625 
L 64.5 27.390625 
Q 64.5 13.140625 57.4375 5.859375 
Q 50.390625 -1.421875 36.625 -1.421875 
Q 22.796875 -1.421875 15.734375 5.859375 
Q 8.6875 13.140625 8.6875 27.390625 
z
" id="DejaVuSans-85"/>
      <path d="M 54.890625 33.015625 
L 54.890625 0 
L 45.90625 0 
L 45.90625 32.71875 
Q 45.90625 40.484375 42.875 44.328125 
Q 39.84375 48.1875 33.796875 48.1875 
Q 26.515625 48.1875 22.3125 43.546875 
Q 18.109375 38.921875 18.109375 30.90625 
L 18.109375 0 
L 9.078125 0 
L 9.078125 54.6875 
L 18.109375 54.6875 
L 18.109375 46.1875 
Q 21.34375 51.125 25.703125 53.5625 
Q 30.078125 56 35.796875 56 
Q 45.21875 56 50.046875 50.171875 
Q 54.890625 44.34375 54.890625 33.015625 
z
" id="DejaVuSans-110"/>
      <path d="M 37.109375 75.984375 
L 37.109375 68.5 
L 28.515625 68.5 
Q 23.6875 68.5 21.796875 66.546875 
Q 19.921875 64.59375 19.921875 59.515625 
L 19.921875 54.6875 
L 34.71875 54.6875 
L 34.71875 47.703125 
L 19.921875 47.703125 
L 19.921875 0 
L 10.890625 0 
L 10.890625 47.703125 
L 2.296875 47.703125 
L 2.296875 54.6875 
L 10.890625 54.6875 
L 10.890625 58.5 
Q 10.890625 67.625 15.140625 71.796875 
Q 19.390625 75.984375 28.609375 75.984375 
z
" id="DejaVuSans-102"/>
      <path d="M 52 44.1875 
Q 55.375 50.25 60.0625 53.125 
Q 64.75 56 71.09375 56 
Q 79.640625 56 84.28125 50.015625 
Q 88.921875 44.046875 88.921875 33.015625 
L 88.921875 0 
L 79.890625 0 
L 79.890625 32.71875 
Q 79.890625 40.578125 77.09375 44.375 
Q 74.3125 48.1875 68.609375 48.1875 
Q 61.625 48.1875 57.5625 43.546875 
Q 53.515625 38.921875 53.515625 30.90625 
L 53.515625 0 
L 44.484375 0 
L 44.484375 32.71875 
Q 44.484375 40.625 41.703125 44.40625 
Q 38.921875 48.1875 33.109375 48.1875 
Q 26.21875 48.1875 22.15625 43.53125 
Q 18.109375 38.875 18.109375 30.90625 
L 18.109375 0 
L 9.078125 0 
L 9.078125 54.6875 
L 18.109375 54.6875 
L 18.109375 46.1875 
Q 21.1875 51.21875 25.484375 53.609375 
Q 29.78125 56 35.6875 56 
Q 41.65625 56 45.828125 52.96875 
Q 50 49.953125 52 44.1875 
z
" id="DejaVuSans-109"/>
      <path d="M 45.40625 27.984375 
Q 45.40625 37.75 41.375 43.109375 
Q 37.359375 48.484375 30.078125 48.484375 
Q 22.859375 48.484375 18.828125 43.109375 
Q 14.796875 37.75 14.796875 27.984375 
Q 14.796875 18.265625 18.828125 12.890625 
Q 22.859375 7.515625 30.078125 7.515625 
Q 37.359375 7.515625 41.375 12.890625 
Q 45.40625 18.265625 45.40625 27.984375 
z
M 54.390625 6.78125 
Q 54.390625 -7.171875 48.1875 -13.984375 
Q 42 -20.796875 29.203125 -20.796875 
Q 24.46875 -20.796875 20.265625 -20.09375 
Q 16.0625 -19.390625 12.109375 -17.921875 
L 12.109375 -9.1875 
Q 16.0625 -11.328125 19.921875 -12.34375 
Q 23.78125 -13.375 27.78125 -13.375 
Q 36.625 -13.375 41.015625 -8.765625 
Q 45.40625 -4.15625 45.40625 5.171875 
L 45.40625 9.625 
Q 42.625 4.78125 38.28125 2.390625 
Q 33.9375 0 27.875 0 
Q 17.828125 0 11.671875 7.65625 
Q 5.515625 15.328125 5.515625 27.984375 
Q 5.515625 40.671875 11.671875 48.328125 
Q 17.828125 56 27.875 56 
Q 33.9375 56 38.28125 53.609375 
Q 42.625 51.21875 45.40625 46.390625 
L 45.40625 54.6875 
L 54.390625 54.6875 
z
" id="DejaVuSans-103"/>
     </defs>
     <use xlink:href="#DejaVuSans-52"/>
     <use x="63.623047" xlink:href="#DejaVuSans-116"/>
     <use x="102.832031" xlink:href="#DejaVuSans-104"/>
     <use x="166.210938" xlink:href="#DejaVuSans-32"/>
     <use x="197.998047" xlink:href="#DejaVuSans-108"/>
     <use x="225.78125" xlink:href="#DejaVuSans-97"/>
     <use x="287.060547" xlink:href="#DejaVuSans-121"/>
     <use x="346.240234" xlink:href="#DejaVuSans-101"/>
     <use x="407.763672" xlink:href="#DejaVuSans-114"/>
     <use x="448.876953" xlink:href="#DejaVuSans-39"/>
     <use x="476.367188" xlink:href="#DejaVuSans-115"/>
     <use x="528.466797" xlink:href="#DejaVuSans-32"/>
     <use x="560.253906" xlink:href="#DejaVuSans-115"/>
     <use x="612.353516" xlink:href="#DejaVuSans-104"/>
     <use x="675.732422" xlink:href="#DejaVuSans-97"/>
     <use x="737.011719" xlink:href="#DejaVuSans-112"/>
     <use x="800.488281" xlink:href="#DejaVuSans-101"/>
     <use x="862.011719" xlink:href="#DejaVuSans-58"/>
     <use x="895.703125" xlink:href="#DejaVuSans-32"/>
     <use x="927.490234" xlink:href="#DejaVuSans-116"/>
     <use x="966.699219" xlink:href="#DejaVuSans-111"/>
     <use x="1027.880859" xlink:href="#DejaVuSans-114"/>
     <use x="1066.744141" xlink:href="#DejaVuSans-99"/>
     <use x="1121.724609" xlink:href="#DejaVuSans-104"/>
     <use x="1185.103516" xlink:href="#DejaVuSans-46"/>
     <use x="1216.890625" xlink:href="#DejaVuSans-83"/>
     <use x="1280.367188" xlink:href="#DejaVuSans-105"/>
     <use x="1308.150391" xlink:href="#DejaVuSans-122"/>
     <use x="1360.640625" xlink:href="#DejaVuSans-101"/>
     <use x="1422.164062" xlink:href="#DejaVuSans-40"/>
     <use x="1461.177734" xlink:href="#DejaVuSans-91"/>
     <use x="1500.191406" xlink:href="#DejaVuSans-49"/>
     <use x="1563.814453" xlink:href="#DejaVuSans-44"/>
     <use x="1595.601562" xlink:href="#DejaVuSans-32"/>
     <use x="1627.388672" xlink:href="#DejaVuSans-50"/>
     <use x="1691.011719" xlink:href="#DejaVuSans-53"/>
     <use x="1754.634766" xlink:href="#DejaVuSans-54"/>
     <use x="1818.257812" xlink:href="#DejaVuSans-44"/>
     <use x="1850.044922" xlink:href="#DejaVuSans-32"/>
     <use x="1881.832031" xlink:href="#DejaVuSans-54"/>
     <use x="1945.455078" xlink:href="#DejaVuSans-52"/>
     <use x="2009.078125" xlink:href="#DejaVuSans-93"/>
     <use x="2048.091797" xlink:href="#DejaVuSans-41"/>
     <use x="2087.105469" xlink:href="#DejaVuSans-46"/>
     <use x="2118.892578" xlink:href="#DejaVuSans-32"/>
     <use x="2150.679688" xlink:href="#DejaVuSans-85"/>
     <use x="2223.873047" xlink:href="#DejaVuSans-110"/>
     <use x="2287.251953" xlink:href="#DejaVuSans-105"/>
     <use x="2315.035156" xlink:href="#DejaVuSans-102"/>
     <use x="2350.240234" xlink:href="#DejaVuSans-111"/>
     <use x="2411.421875" xlink:href="#DejaVuSans-114"/>
     <use x="2450.785156" xlink:href="#DejaVuSans-109"/>
     <use x="2548.197266" xlink:href="#DejaVuSans-108"/>
     <use x="2575.980469" xlink:href="#DejaVuSans-121"/>
     <use x="2635.160156" xlink:href="#DejaVuSans-32"/>
     <use x="2666.947266" xlink:href="#DejaVuSans-115"/>
     <use x="2719.046875" xlink:href="#DejaVuSans-97"/>
     <use x="2780.326172" xlink:href="#DejaVuSans-109"/>
     <use x="2877.738281" xlink:href="#DejaVuSans-112"/>
     <use x="2941.214844" xlink:href="#DejaVuSans-108"/>
     <use x="2968.998047" xlink:href="#DejaVuSans-105"/>
     <use x="2996.78125" xlink:href="#DejaVuSans-110"/>
     <use x="3060.160156" xlink:href="#DejaVuSans-103"/>
     <use x="3123.636719" xlink:href="#DejaVuSans-32"/>
     <use x="3155.423828" xlink:href="#DejaVuSans-49"/>
     <use x="3219.046875" xlink:href="#DejaVuSans-54"/>
     <use x="3282.669922" xlink:href="#DejaVuSans-32"/>
     <use x="3314.457031" xlink:href="#DejaVuSans-99"/>
     <use x="3369.4375" xlink:href="#DejaVuSans-104"/>
     <use x="3432.816406" xlink:href="#DejaVuSans-97"/>
     <use x="3494.095703" xlink:href="#DejaVuSans-110"/>
     <use x="3557.474609" xlink:href="#DejaVuSans-110"/>
     <use x="3620.853516" xlink:href="#DejaVuSans-101"/>
     <use x="3682.376953" xlink:href="#DejaVuSans-108"/>
     <use x="3710.160156" xlink:href="#DejaVuSans-115"/>
    </g>
   </g>
  </g>
 </g>
 <defs>
  <clipPath id="pc1c0028243">
   <rect height="266.112" width="892.8" x="144" y="41.472"/>
  </clipPath>
 </defs>
</svg>
