<?xml version="1.0" encoding="utf-8" standalone="no"?>
<!DOCTYPE svg PUBLIC "-//W3C//DTD SVG 1.1//EN"
  "http://www.w3.org/Graphics/SVG/1.1/DTD/svg11.dtd">
<!-- Created with matplotlib (https://matplotlib.org/) -->
<svg height="345.6pt" version="1.1" viewBox="0 0 1152 345.6" width="1152pt" xmlns="http://www.w3.org/2000/svg" xmlns:xlink="http://www.w3.org/1999/xlink">
 <metadata>
  <rdf:RDF xmlns:cc="http://creativecommons.org/ns#" xmlns:dc="http://purl.org/dc/elements/1.1/" xmlns:rdf="http://www.w3.org/1999/02/22-rdf-syntax-ns#">
   <cc:Work>
    <dc:type rdf:resource="http://purl.org/dc/dcmitype/StillImage"/>
    <dc:date>2021-12-24T07:21:35.251226</dc:date>
    <dc:format>image/svg+xml</dc:format>
    <dc:creator>
     <cc:Agent>
      <dc:title>Matplotlib v3.3.3, https://matplotlib.org/</dc:title>
     </cc:Agent>
    </dc:creator>
   </cc:Work>
  </rdf:RDF>
 </metadata>
 <defs>
  <style type="text/css">*{stroke-linecap:butt;stroke-linejoin:round;}</style>
 </defs>
 <g id="figure_1">
  <g id="patch_1">
   <path d="M 0 345.6 
L 1152 345.6 
L 1152 0 
L 0 0 
z
" style="fill:#ffffff;"/>
  </g>
  <g id="axes_1">
   <g id="patch_2">
    <path d="M 144 307.584 
L 1036.8 307.584 
L 1036.8 41.472 
L 144 41.472 
z
" style="fill:#ffffff;"/>
   </g>
   <g id="matplotlib.axis_1">
    <g id="xtick_1">
     <g id="line2d_1">
      <defs>
       <path d="M 0 0 
L 0 3.5 
" id="mbc1f51b8cb" style="stroke:#000000;stroke-width:0.8;"/>
      </defs>
      <g>
       <use style="stroke:#000000;stroke-width:0.8;" x="184.581818" xlink:href="#mbc1f51b8cb" y="307.584"/>
      </g>
     </g>
     <g id="text_1">
      <!-- 0 -->
      <g transform="translate(181.400568 322.182437)scale(0.1 -0.1)">
       <defs>
        <path d="M 31.78125 66.40625 
Q 24.171875 66.40625 20.328125 58.90625 
Q 16.5 51.421875 16.5 36.375 
Q 16.5 21.390625 20.328125 13.890625 
Q 24.171875 6.390625 31.78125 6.390625 
Q 39.453125 6.390625 43.28125 13.890625 
Q 47.125 21.390625 47.125 36.375 
Q 47.125 51.421875 43.28125 58.90625 
Q 39.453125 66.40625 31.78125 66.40625 
z
M 31.78125 74.21875 
Q 44.046875 74.21875 50.515625 64.515625 
Q 56.984375 54.828125 56.984375 36.375 
Q 56.984375 17.96875 50.515625 8.265625 
Q 44.046875 -1.421875 31.78125 -1.421875 
Q 19.53125 -1.421875 13.0625 8.265625 
Q 6.59375 17.96875 6.59375 36.375 
Q 6.59375 54.828125 13.0625 64.515625 
Q 19.53125 74.21875 31.78125 74.21875 
z
" id="DejaVuSans-48"/>
       </defs>
       <use xlink:href="#DejaVuSans-48"/>
      </g>
     </g>
    </g>
    <g id="xtick_2">
     <g id="line2d_2">
      <g>
       <use style="stroke:#000000;stroke-width:0.8;" x="313.412987" xlink:href="#mbc1f51b8cb" y="307.584"/>
      </g>
     </g>
     <g id="text_2">
      <!-- 10 -->
      <g transform="translate(307.050487 322.182437)scale(0.1 -0.1)">
       <defs>
        <path d="M 12.40625 8.296875 
L 28.515625 8.296875 
L 28.515625 63.921875 
L 10.984375 60.40625 
L 10.984375 69.390625 
L 28.421875 72.90625 
L 38.28125 72.90625 
L 38.28125 8.296875 
L 54.390625 8.296875 
L 54.390625 0 
L 12.40625 0 
z
" id="DejaVuSans-49"/>
       </defs>
       <use xlink:href="#DejaVuSans-49"/>
       <use x="63.623047" xlink:href="#DejaVuSans-48"/>
      </g>
     </g>
    </g>
    <g id="xtick_3">
     <g id="line2d_3">
      <g>
       <use style="stroke:#000000;stroke-width:0.8;" x="442.244156" xlink:href="#mbc1f51b8cb" y="307.584"/>
      </g>
     </g>
     <g id="text_3">
      <!-- 20 -->
      <g transform="translate(435.881656 322.182437)scale(0.1 -0.1)">
       <defs>
        <path d="M 19.1875 8.296875 
L 53.609375 8.296875 
L 53.609375 0 
L 7.328125 0 
L 7.328125 8.296875 
Q 12.9375 14.109375 22.625 23.890625 
Q 32.328125 33.6875 34.8125 36.53125 
Q 39.546875 41.84375 41.421875 45.53125 
Q 43.3125 49.21875 43.3125 52.78125 
Q 43.3125 58.59375 39.234375 62.25 
Q 35.15625 65.921875 28.609375 65.921875 
Q 23.96875 65.921875 18.8125 64.3125 
Q 13.671875 62.703125 7.8125 59.421875 
L 7.8125 69.390625 
Q 13.765625 71.78125 18.9375 73 
Q 24.125 74.21875 28.421875 74.21875 
Q 39.75 74.21875 46.484375 68.546875 
Q 53.21875 62.890625 53.21875 53.421875 
Q 53.21875 48.921875 51.53125 44.890625 
Q 49.859375 40.875 45.40625 35.40625 
Q 44.1875 33.984375 37.640625 27.21875 
Q 31.109375 20.453125 19.1875 8.296875 
z
" id="DejaVuSans-50"/>
       </defs>
       <use xlink:href="#DejaVuSans-50"/>
       <use x="63.623047" xlink:href="#DejaVuSans-48"/>
      </g>
     </g>
    </g>
    <g id="xtick_4">
     <g id="line2d_4">
      <g>
       <use style="stroke:#000000;stroke-width:0.8;" x="571.075325" xlink:href="#mbc1f51b8cb" y="307.584"/>
      </g>
     </g>
     <g id="text_4">
      <!-- 30 -->
      <g transform="translate(564.712825 322.182437)scale(0.1 -0.1)">
       <defs>
        <path d="M 40.578125 39.3125 
Q 47.65625 37.796875 51.625 33 
Q 55.609375 28.21875 55.609375 21.1875 
Q 55.609375 10.40625 48.1875 4.484375 
Q 40.765625 -1.421875 27.09375 -1.421875 
Q 22.515625 -1.421875 17.65625 -0.515625 
Q 12.796875 0.390625 7.625 2.203125 
L 7.625 11.71875 
Q 11.71875 9.328125 16.59375 8.109375 
Q 21.484375 6.890625 26.8125 6.890625 
Q 36.078125 6.890625 40.9375 10.546875 
Q 45.796875 14.203125 45.796875 21.1875 
Q 45.796875 27.640625 41.28125 31.265625 
Q 36.765625 34.90625 28.71875 34.90625 
L 20.21875 34.90625 
L 20.21875 43.015625 
L 29.109375 43.015625 
Q 36.375 43.015625 40.234375 45.921875 
Q 44.09375 48.828125 44.09375 54.296875 
Q 44.09375 59.90625 40.109375 62.90625 
Q 36.140625 65.921875 28.71875 65.921875 
Q 24.65625 65.921875 20.015625 65.03125 
Q 15.375 64.15625 9.8125 62.3125 
L 9.8125 71.09375 
Q 15.4375 72.65625 20.34375 73.4375 
Q 25.25 74.21875 29.59375 74.21875 
Q 40.828125 74.21875 47.359375 69.109375 
Q 53.90625 64.015625 53.90625 55.328125 
Q 53.90625 49.265625 50.4375 45.09375 
Q 46.96875 40.921875 40.578125 39.3125 
z
" id="DejaVuSans-51"/>
       </defs>
       <use xlink:href="#DejaVuSans-51"/>
       <use x="63.623047" xlink:href="#DejaVuSans-48"/>
      </g>
     </g>
    </g>
    <g id="xtick_5">
     <g id="line2d_5">
      <g>
       <use style="stroke:#000000;stroke-width:0.8;" x="699.906494" xlink:href="#mbc1f51b8cb" y="307.584"/>
      </g>
     </g>
     <g id="text_5">
      <!-- 40 -->
      <g transform="translate(693.543994 322.182437)scale(0.1 -0.1)">
       <defs>
        <path d="M 37.796875 64.3125 
L 12.890625 25.390625 
L 37.796875 25.390625 
z
M 35.203125 72.90625 
L 47.609375 72.90625 
L 47.609375 25.390625 
L 58.015625 25.390625 
L 58.015625 17.1875 
L 47.609375 17.1875 
L 47.609375 0 
L 37.796875 0 
L 37.796875 17.1875 
L 4.890625 17.1875 
L 4.890625 26.703125 
z
" id="DejaVuSans-52"/>
       </defs>
       <use xlink:href="#DejaVuSans-52"/>
       <use x="63.623047" xlink:href="#DejaVuSans-48"/>
      </g>
     </g>
    </g>
    <g id="xtick_6">
     <g id="line2d_6">
      <g>
       <use style="stroke:#000000;stroke-width:0.8;" x="828.737662" xlink:href="#mbc1f51b8cb" y="307.584"/>
      </g>
     </g>
     <g id="text_6">
      <!-- 50 -->
      <g transform="translate(822.375162 322.182437)scale(0.1 -0.1)">
       <defs>
        <path d="M 10.796875 72.90625 
L 49.515625 72.90625 
L 49.515625 64.59375 
L 19.828125 64.59375 
L 19.828125 46.734375 
Q 21.96875 47.46875 24.109375 47.828125 
Q 26.265625 48.1875 28.421875 48.1875 
Q 40.625 48.1875 47.75 41.5 
Q 54.890625 34.8125 54.890625 23.390625 
Q 54.890625 11.625 47.5625 5.09375 
Q 40.234375 -1.421875 26.90625 -1.421875 
Q 22.3125 -1.421875 17.546875 -0.640625 
Q 12.796875 0.140625 7.71875 1.703125 
L 7.71875 11.625 
Q 12.109375 9.234375 16.796875 8.0625 
Q 21.484375 6.890625 26.703125 6.890625 
Q 35.15625 6.890625 40.078125 11.328125 
Q 45.015625 15.765625 45.015625 23.390625 
Q 45.015625 31 40.078125 35.4375 
Q 35.15625 39.890625 26.703125 39.890625 
Q 22.75 39.890625 18.8125 39.015625 
Q 14.890625 38.140625 10.796875 36.28125 
z
" id="DejaVuSans-53"/>
       </defs>
       <use xlink:href="#DejaVuSans-53"/>
       <use x="63.623047" xlink:href="#DejaVuSans-48"/>
      </g>
     </g>
    </g>
    <g id="xtick_7">
     <g id="line2d_7">
      <g>
       <use style="stroke:#000000;stroke-width:0.8;" x="957.568831" xlink:href="#mbc1f51b8cb" y="307.584"/>
      </g>
     </g>
     <g id="text_7">
      <!-- 60 -->
      <g transform="translate(951.206331 322.182437)scale(0.1 -0.1)">
       <defs>
        <path d="M 33.015625 40.375 
Q 26.375 40.375 22.484375 35.828125 
Q 18.609375 31.296875 18.609375 23.390625 
Q 18.609375 15.53125 22.484375 10.953125 
Q 26.375 6.390625 33.015625 6.390625 
Q 39.65625 6.390625 43.53125 10.953125 
Q 47.40625 15.53125 47.40625 23.390625 
Q 47.40625 31.296875 43.53125 35.828125 
Q 39.65625 40.375 33.015625 40.375 
z
M 52.59375 71.296875 
L 52.59375 62.3125 
Q 48.875 64.0625 45.09375 64.984375 
Q 41.3125 65.921875 37.59375 65.921875 
Q 27.828125 65.921875 22.671875 59.328125 
Q 17.53125 52.734375 16.796875 39.40625 
Q 19.671875 43.65625 24.015625 45.921875 
Q 28.375 48.1875 33.59375 48.1875 
Q 44.578125 48.1875 50.953125 41.515625 
Q 57.328125 34.859375 57.328125 23.390625 
Q 57.328125 12.15625 50.6875 5.359375 
Q 44.046875 -1.421875 33.015625 -1.421875 
Q 20.359375 -1.421875 13.671875 8.265625 
Q 6.984375 17.96875 6.984375 36.375 
Q 6.984375 53.65625 15.1875 63.9375 
Q 23.390625 74.21875 37.203125 74.21875 
Q 40.921875 74.21875 44.703125 73.484375 
Q 48.484375 72.75 52.59375 71.296875 
z
" id="DejaVuSans-54"/>
       </defs>
       <use xlink:href="#DejaVuSans-54"/>
       <use x="63.623047" xlink:href="#DejaVuSans-48"/>
      </g>
     </g>
    </g>
   </g>
   <g id="matplotlib.axis_2">
    <g id="ytick_1">
     <g id="line2d_8">
      <defs>
       <path d="M 0 0 
L -3.5 0 
" id="meb8026c4b4" style="stroke:#000000;stroke-width:0.8;"/>
      </defs>
      <g>
       <use style="stroke:#000000;stroke-width:0.8;" x="144" xlink:href="#meb8026c4b4" y="293.912757"/>
      </g>
     </g>
     <g id="text_8">
      <!-- −0.6 -->
      <g transform="translate(112.717187 297.711975)scale(0.1 -0.1)">
       <defs>
        <path d="M 10.59375 35.5 
L 73.1875 35.5 
L 73.1875 27.203125 
L 10.59375 27.203125 
z
" id="DejaVuSans-8722"/>
        <path d="M 10.6875 12.40625 
L 21 12.40625 
L 21 0 
L 10.6875 0 
z
" id="DejaVuSans-46"/>
       </defs>
       <use xlink:href="#DejaVuSans-8722"/>
       <use x="83.789062" xlink:href="#DejaVuSans-48"/>
       <use x="147.412109" xlink:href="#DejaVuSans-46"/>
       <use x="179.199219" xlink:href="#DejaVuSans-54"/>
      </g>
     </g>
    </g>
    <g id="ytick_2">
     <g id="line2d_9">
      <g>
       <use style="stroke:#000000;stroke-width:0.8;" x="144" xlink:href="#meb8026c4b4" y="258.556217"/>
      </g>
     </g>
     <g id="text_9">
      <!-- −0.4 -->
      <g transform="translate(112.717187 262.355435)scale(0.1 -0.1)">
       <use xlink:href="#DejaVuSans-8722"/>
       <use x="83.789062" xlink:href="#DejaVuSans-48"/>
       <use x="147.412109" xlink:href="#DejaVuSans-46"/>
       <use x="179.199219" xlink:href="#DejaVuSans-52"/>
      </g>
     </g>
    </g>
    <g id="ytick_3">
     <g id="line2d_10">
      <g>
       <use style="stroke:#000000;stroke-width:0.8;" x="144" xlink:href="#meb8026c4b4" y="223.199677"/>
      </g>
     </g>
     <g id="text_10">
      <!-- −0.2 -->
      <g transform="translate(112.717187 226.998896)scale(0.1 -0.1)">
       <use xlink:href="#DejaVuSans-8722"/>
       <use x="83.789062" xlink:href="#DejaVuSans-48"/>
       <use x="147.412109" xlink:href="#DejaVuSans-46"/>
       <use x="179.199219" xlink:href="#DejaVuSans-50"/>
      </g>
     </g>
    </g>
    <g id="ytick_4">
     <g id="line2d_11">
      <g>
       <use style="stroke:#000000;stroke-width:0.8;" x="144" xlink:href="#meb8026c4b4" y="187.843137"/>
      </g>
     </g>
     <g id="text_11">
      <!-- 0.0 -->
      <g transform="translate(121.096875 191.642356)scale(0.1 -0.1)">
       <use xlink:href="#DejaVuSans-48"/>
       <use x="63.623047" xlink:href="#DejaVuSans-46"/>
       <use x="95.410156" xlink:href="#DejaVuSans-48"/>
      </g>
     </g>
    </g>
    <g id="ytick_5">
     <g id="line2d_12">
      <g>
       <use style="stroke:#000000;stroke-width:0.8;" x="144" xlink:href="#meb8026c4b4" y="152.486597"/>
      </g>
     </g>
     <g id="text_12">
      <!-- 0.2 -->
      <g transform="translate(121.096875 156.285816)scale(0.1 -0.1)">
       <use xlink:href="#DejaVuSans-48"/>
       <use x="63.623047" xlink:href="#DejaVuSans-46"/>
       <use x="95.410156" xlink:href="#DejaVuSans-50"/>
      </g>
     </g>
    </g>
    <g id="ytick_6">
     <g id="line2d_13">
      <g>
       <use style="stroke:#000000;stroke-width:0.8;" x="144" xlink:href="#meb8026c4b4" y="117.130057"/>
      </g>
     </g>
     <g id="text_13">
      <!-- 0.4 -->
      <g transform="translate(121.096875 120.929276)scale(0.1 -0.1)">
       <use xlink:href="#DejaVuSans-48"/>
       <use x="63.623047" xlink:href="#DejaVuSans-46"/>
       <use x="95.410156" xlink:href="#DejaVuSans-52"/>
      </g>
     </g>
    </g>
    <g id="ytick_7">
     <g id="line2d_14">
      <g>
       <use style="stroke:#000000;stroke-width:0.8;" x="144" xlink:href="#meb8026c4b4" y="81.773517"/>
      </g>
     </g>
     <g id="text_14">
      <!-- 0.6 -->
      <g transform="translate(121.096875 85.572736)scale(0.1 -0.1)">
       <use xlink:href="#DejaVuSans-48"/>
       <use x="63.623047" xlink:href="#DejaVuSans-46"/>
       <use x="95.410156" xlink:href="#DejaVuSans-54"/>
      </g>
     </g>
    </g>
    <g id="ytick_8">
     <g id="line2d_15">
      <g>
       <use style="stroke:#000000;stroke-width:0.8;" x="144" xlink:href="#meb8026c4b4" y="46.416977"/>
      </g>
     </g>
     <g id="text_15">
      <!-- 0.8 -->
      <g transform="translate(121.096875 50.216196)scale(0.1 -0.1)">
       <defs>
        <path d="M 31.78125 34.625 
Q 24.75 34.625 20.71875 30.859375 
Q 16.703125 27.09375 16.703125 20.515625 
Q 16.703125 13.921875 20.71875 10.15625 
Q 24.75 6.390625 31.78125 6.390625 
Q 38.8125 6.390625 42.859375 10.171875 
Q 46.921875 13.96875 46.921875 20.515625 
Q 46.921875 27.09375 42.890625 30.859375 
Q 38.875 34.625 31.78125 34.625 
z
M 21.921875 38.8125 
Q 15.578125 40.375 12.03125 44.71875 
Q 8.5 49.078125 8.5 55.328125 
Q 8.5 64.0625 14.71875 69.140625 
Q 20.953125 74.21875 31.78125 74.21875 
Q 42.671875 74.21875 48.875 69.140625 
Q 55.078125 64.0625 55.078125 55.328125 
Q 55.078125 49.078125 51.53125 44.71875 
Q 48 40.375 41.703125 38.8125 
Q 48.828125 37.15625 52.796875 32.3125 
Q 56.78125 27.484375 56.78125 20.515625 
Q 56.78125 9.90625 50.3125 4.234375 
Q 43.84375 -1.421875 31.78125 -1.421875 
Q 19.734375 -1.421875 13.25 4.234375 
Q 6.78125 9.90625 6.78125 20.515625 
Q 6.78125 27.484375 10.78125 32.3125 
Q 14.796875 37.15625 21.921875 38.8125 
z
M 18.3125 54.390625 
Q 18.3125 48.734375 21.84375 45.5625 
Q 25.390625 42.390625 31.78125 42.390625 
Q 38.140625 42.390625 41.71875 45.5625 
Q 45.3125 48.734375 45.3125 54.390625 
Q 45.3125 60.0625 41.71875 63.234375 
Q 38.140625 66.40625 31.78125 66.40625 
Q 25.390625 66.40625 21.84375 63.234375 
Q 18.3125 60.0625 18.3125 54.390625 
z
" id="DejaVuSans-56"/>
       </defs>
       <use xlink:href="#DejaVuSans-48"/>
       <use x="63.623047" xlink:href="#DejaVuSans-46"/>
       <use x="95.410156" xlink:href="#DejaVuSans-56"/>
      </g>
     </g>
    </g>
   </g>
   <g id="line2d_16">
    <path clip-path="url(#p8730f835b6)" d="M 184.581818 168.321169 
L 197.464935 157.727295 
L 210.348052 139.027636 
L 223.231169 138.720797 
L 236.114286 139.020671 
L 248.997403 122.96842 
L 261.880519 126.035888 
L 274.763636 124.856489 
L 287.646753 122.267721 
L 300.52987 100.57015 
L 313.412987 115.018859 
L 326.296104 122.147171 
L 339.179221 118.129961 
L 352.062338 121.052459 
L 364.945455 121.148025 
L 377.828571 123.654963 
L 390.711688 126.876082 
L 403.594805 102.571756 
L 416.477922 110.409755 
L 429.361039 125.966907 
L 442.244156 109.267073 
L 455.127273 122.372022 
L 468.01039 117.947216 
L 480.893506 125.781533 
L 493.776623 129.977173 
L 506.65974 106.064368 
L 519.542857 113.646717 
L 532.425974 133.26014 
L 545.309091 112.739828 
L 558.192208 121.213603 
L 571.075325 117.798944 
L 583.958442 129.825255 
L 596.841558 131.236738 
L 609.724675 103.81553 
L 622.607792 112.278742 
L 635.490909 126.814898 
L 648.374026 104.651304 
L 661.257143 118.713267 
L 674.14026 119.046449 
L 687.023377 132.40209 
L 699.906494 129.856123 
L 712.78961 103.787444 
L 725.672727 116.710997 
L 738.555844 126.400281 
L 751.438961 107.152889 
L 764.322078 116.309397 
L 777.205195 111.817624 
L 790.088312 128.601543 
L 802.971429 129.95553 
L 815.854545 102.937355 
L 828.737662 115.357695 
L 841.620779 130.632821 
L 854.503896 110.207923 
L 867.387013 121.975596 
L 880.27013 129.816757 
L 893.153247 136.179561 
L 906.036364 119.744419 
L 918.919481 108.691639 
L 931.802597 101.213195 
L 944.685714 131.419756 
L 957.568831 92.93776 
L 970.451948 103.107297 
L 983.335065 112.415903 
L 996.218182 147.833993 
" style="fill:none;stroke:#1f77b4;stroke-linecap:square;stroke-width:1.5;"/>
   </g>
   <g id="line2d_17">
    <path clip-path="url(#p8730f835b6)" d="M 184.581818 100.058649 
L 197.464935 90.669793 
L 210.348052 81.084631 
L 223.231169 76.586387 
L 236.114286 77.587346 
L 248.997403 72.77064 
L 261.880519 72.008895 
L 274.763636 74.772873 
L 287.646753 75.621519 
L 300.52987 72.147373 
L 313.412987 63.138937 
L 326.296104 68.577161 
L 339.179221 80.360682 
L 352.062338 60.206828 
L 364.945455 76.174683 
L 377.828571 70.456742 
L 390.711688 62.474132 
L 403.594805 65.51865 
L 416.477922 62.26339 
L 429.361039 58.389373 
L 442.244156 70.664343 
L 455.127273 57.327995 
L 468.01039 72.348167 
L 480.893506 70.401212 
L 493.776623 70.74177 
L 506.65974 66.213032 
L 519.542857 71.648 
L 532.425974 64.190958 
L 545.309091 76.437709 
L 558.192208 60.229546 
L 571.075325 71.905863 
L 583.958442 72.14221 
L 596.841558 67.818281 
L 609.724675 65.257984 
L 622.607792 71.388409 
L 635.490909 60.592569 
L 648.374026 67.264263 
L 661.257143 55.975183 
L 674.14026 71.446173 
L 687.023377 75.812303 
L 699.906494 72.177382 
L 712.78961 70.322078 
L 725.672727 74.547001 
L 738.555844 72.035427 
L 751.438961 80.852015 
L 764.322078 66.928636 
L 777.205195 83.887281 
L 790.088312 80.283814 
L 802.971429 74.141155 
L 815.854545 77.872648 
L 828.737662 74.9488 
L 841.620779 67.440748 
L 854.503896 81.356561 
L 867.387013 75.184114 
L 880.27013 79.970652 
L 893.153247 78.333065 
L 906.036364 84.38344 
L 918.919481 86.31223 
L 931.802597 91.060202 
L 944.685714 97.416679 
L 957.568831 103.956316 
L 970.451948 105.021419 
L 983.335065 112.983735 
L 996.218182 118.420262 
" style="fill:none;stroke:#ff7f0e;stroke-linecap:square;stroke-width:1.5;"/>
   </g>
   <g id="line2d_18">
    <path clip-path="url(#p8730f835b6)" d="M 184.581818 253.373107 
L 197.464935 253.381852 
L 210.348052 262.230768 
L 223.231169 262.727554 
L 236.114286 259.124751 
L 248.997403 248.855154 
L 261.880519 258.650277 
L 274.763636 239.331639 
L 287.646753 239.561316 
L 300.52987 235.078988 
L 313.412987 243.74546 
L 326.296104 264.556963 
L 339.179221 258.187099 
L 352.062338 242.419032 
L 364.945455 251.101483 
L 377.828571 230.134452 
L 390.711688 236.862103 
L 403.594805 232.540034 
L 416.477922 242.13559 
L 429.361039 265.057632 
L 442.244156 252.165896 
L 455.127273 245.890196 
L 468.01039 249.462041 
L 480.893506 229.825837 
L 493.776623 235.791199 
L 506.65974 231.893295 
L 519.542857 238.78211 
L 532.425974 267.216525 
L 545.309091 254.865108 
L 558.192208 240.816597 
L 571.075325 250.563587 
L 583.958442 228.411431 
L 596.841558 233.153012 
L 609.724675 234.426933 
L 622.607792 242.555566 
L 635.490909 262.571753 
L 648.374026 256.521425 
L 661.257143 239.315886 
L 674.14026 248.010376 
L 687.023377 229.919412 
L 699.906494 225.502923 
L 712.78961 227.690703 
L 725.672727 239.746958 
L 738.555844 256.100369 
L 751.438961 240.930234 
L 764.322078 236.723045 
L 777.205195 247.321831 
L 790.088312 222.210368 
L 802.971429 229.295796 
L 815.854545 225.63584 
L 828.737662 237.113422 
L 841.620779 248.643627 
L 854.503896 230.161641 
L 867.387013 229.463597 
L 880.27013 230.55524 
L 893.153247 209.609252 
L 906.036364 209.222627 
L 918.919481 219.729828 
L 931.802597 219.395242 
L 944.685714 211.248751 
L 957.568831 186.357977 
L 970.451948 167.100286 
L 983.335065 178.819849 
L 996.218182 150.127415 
" style="fill:none;stroke:#2ca02c;stroke-linecap:square;stroke-width:1.5;"/>
   </g>
   <g id="line2d_19">
    <path clip-path="url(#p8730f835b6)" d="M 184.581818 168.234199 
L 197.464935 166.36241 
L 210.348052 181.735681 
L 223.231169 187.741621 
L 236.114286 180.624273 
L 248.997403 173.132011 
L 261.880519 178.279727 
L 274.763636 207.560048 
L 287.646753 189.812605 
L 300.52987 168.895378 
L 313.412987 202.671497 
L 326.296104 202.814612 
L 339.179221 184.382505 
L 352.062338 193.154979 
L 364.945455 191.824823 
L 377.828571 215.172055 
L 390.711688 210.042072 
L 403.594805 174.002167 
L 416.477922 202.022717 
L 429.361039 202.774689 
L 442.244156 184.05178 
L 455.127273 194.145817 
L 468.01039 193.585812 
L 480.893506 219.921935 
L 493.776623 210.326349 
L 506.65974 182.513826 
L 519.542857 204.581416 
L 532.425974 205.407284 
L 545.309091 190.9319 
L 558.192208 193.433456 
L 571.075325 191.872893 
L 583.958442 223.30675 
L 596.841558 206.806121 
L 609.724675 177.786217 
L 622.607792 201.326619 
L 635.490909 201.582146 
L 648.374026 190.129889 
L 661.257143 197.109487 
L 674.14026 197.070062 
L 687.023377 227.880728 
L 699.906494 212.030849 
L 712.78961 179.429716 
L 725.672727 199.732316 
L 738.555844 204.269045 
L 751.438961 188.934916 
L 764.322078 190.66762 
L 777.205195 189.127146 
L 790.088312 220.346152 
L 802.971429 214.106694 
L 815.854545 180.237598 
L 828.737662 195.706762 
L 841.620779 203.147391 
L 854.503896 193.396191 
L 867.387013 189.486351 
L 880.27013 198.717454 
L 893.153247 225.354864 
L 906.036364 206.689739 
L 918.919481 172.364728 
L 931.802597 192.523234 
L 944.685714 204.790415 
L 957.568831 207.607192 
L 970.451948 202.075285 
L 983.335065 232.347564 
L 996.218182 255.794884 
" style="fill:none;stroke:#d62728;stroke-linecap:square;stroke-width:1.5;"/>
   </g>
   <g id="line2d_20">
    <path clip-path="url(#p8730f835b6)" d="M 184.581818 131.891938 
L 197.464935 107.059536 
L 210.348052 90.144962 
L 223.231169 80.286669 
L 236.114286 98.390135 
L 248.997403 91.86654 
L 261.880519 81.681272 
L 274.763636 96.762832 
L 287.646753 95.270088 
L 300.52987 91.567425 
L 313.412987 86.183245 
L 326.296104 79.993043 
L 339.179221 99.971839 
L 352.062338 85.932073 
L 364.945455 86.39896 
L 377.828571 94.699411 
L 390.711688 87.778652 
L 403.594805 88.933052 
L 416.477922 84.806735 
L 429.361039 77.531721 
L 442.244156 94.175012 
L 455.127273 84.703493 
L 468.01039 85.915488 
L 480.893506 94.30544 
L 493.776623 95.158732 
L 506.65974 92.942301 
L 519.542857 92.729906 
L 532.425974 79.733094 
L 545.309091 97.047607 
L 558.192208 82.849949 
L 571.075325 84.517682 
L 583.958442 94.606263 
L 596.841558 91.764278 
L 609.724675 93.797922 
L 622.607792 86.588227 
L 635.490909 76.162344 
L 648.374026 92.252397 
L 661.257143 83.15232 
L 674.14026 82.846735 
L 687.023377 94.459987 
L 699.906494 93.677178 
L 712.78961 96.026628 
L 725.672727 87.619806 
L 738.555844 77.765728 
L 751.438961 90.294083 
L 764.322078 81.989144 
L 777.205195 86.33245 
L 790.088312 96.331698 
L 802.971429 94.317863 
L 815.854545 97.029757 
L 828.737662 84.178389 
L 841.620779 79.258694 
L 854.503896 90.61578 
L 867.387013 74.35688 
L 880.27013 82.933392 
L 893.153247 86.706432 
L 906.036364 83.410436 
L 918.919481 84.163162 
L 931.802597 82.084557 
L 944.685714 83.439803 
L 957.568831 80.275458 
L 970.451948 85.316371 
L 983.335065 80.822458 
L 996.218182 102.011052 
" style="fill:none;stroke:#9467bd;stroke-linecap:square;stroke-width:1.5;"/>
   </g>
   <g id="line2d_21">
    <path clip-path="url(#p8730f835b6)" d="M 184.581818 198.399243 
L 197.464935 232.00385 
L 210.348052 243.978582 
L 223.231169 242.002286 
L 236.114286 233.434246 
L 248.997403 256.514402 
L 261.880519 238.308632 
L 274.763636 231.314088 
L 287.646753 225.147136 
L 300.52987 247.152827 
L 313.412987 229.773118 
L 326.296104 248.438871 
L 339.179221 249.167799 
L 352.062338 244.400697 
L 364.945455 237.638111 
L 377.828571 232.143835 
L 390.711688 207.588762 
L 403.594805 239.170311 
L 416.477922 232.396904 
L 429.361039 238.021354 
L 442.244156 246.482437 
L 455.127273 248.039142 
L 468.01039 237.013715 
L 480.893506 232.368933 
L 493.776623 209.65913 
L 506.65974 235.349643 
L 519.542857 236.652505 
L 532.425974 238.932806 
L 545.309091 246.142917 
L 558.192208 251.865594 
L 571.075325 239.723233 
L 583.958442 230.259817 
L 596.841558 208.768019 
L 609.724675 241.811528 
L 622.607792 239.053945 
L 635.490909 227.799008 
L 648.374026 248.363046 
L 661.257143 238.116488 
L 674.14026 238.027218 
L 687.023377 236.297811 
L 699.906494 200.517379 
L 712.78961 245.379132 
L 725.672727 231.789059 
L 738.555844 232.740744 
L 751.438961 243.035172 
L 764.322078 247.813269 
L 777.205195 250.170601 
L 790.088312 226.857031 
L 802.971429 204.8775 
L 815.854545 241.838455 
L 828.737662 231.209858 
L 841.620779 216.405849 
L 854.503896 234.413398 
L 867.387013 242.681795 
L 880.27013 215.501083 
L 893.153247 204.529437 
L 906.036364 213.787292 
L 918.919481 231.693335 
L 931.802597 222.141869 
L 944.685714 200.74568 
L 957.568831 216.042699 
L 970.451948 222.718078 
L 983.335065 180.901706 
L 996.218182 125.852658 
" style="fill:none;stroke:#8c564b;stroke-linecap:square;stroke-width:1.5;"/>
   </g>
   <g id="line2d_22">
    <path clip-path="url(#p8730f835b6)" d="M 184.581818 177.268046 
L 197.464935 157.103817 
L 210.348052 171.903029 
L 223.231169 146.311492 
L 236.114286 138.005604 
L 248.997403 122.107831 
L 261.880519 126.440543 
L 274.763636 104.945789 
L 287.646753 130.744809 
L 300.52987 128.281817 
L 313.412987 127.954999 
L 326.296104 108.343731 
L 339.179221 124.343892 
L 352.062338 114.188918 
L 364.945455 118.667862 
L 377.828571 100.519661 
L 390.711688 134.891162 
L 403.594805 122.598975 
L 416.477922 119.494712 
L 429.361039 110.792214 
L 442.244156 123.895656 
L 455.127273 114.913067 
L 468.01039 114.472038 
L 480.893506 93.957316 
L 493.776623 124.18062 
L 506.65974 116.815182 
L 519.542857 116.794234 
L 532.425974 99.880936 
L 545.309091 115.806221 
L 558.192208 106.120672 
L 571.075325 112.85218 
L 583.958442 94.622817 
L 596.841558 123.449079 
L 609.724675 120.798764 
L 622.607792 115.039275 
L 635.490909 101.118251 
L 648.374026 121.543819 
L 661.257143 112.76635 
L 674.14026 109.329558 
L 687.023377 89.67229 
L 699.906494 118.955688 
L 712.78961 113.786423 
L 725.672727 107.472789 
L 738.555844 93.75412 
L 751.438961 111.11193 
L 764.322078 100.40859 
L 777.205195 105.830381 
L 790.088312 88.994651 
L 802.971429 120.564066 
L 815.854545 110.97254 
L 828.737662 110.757995 
L 841.620779 95.597243 
L 854.503896 118.445688 
L 867.387013 102.349165 
L 880.27013 108.826592 
L 893.153247 88.66522 
L 906.036364 110.317092 
L 918.919481 98.484484 
L 931.802597 102.707552 
L 944.685714 89.774637 
L 957.568831 113.289094 
L 970.451948 118.080674 
L 983.335065 100.29235 
L 996.218182 87.092921 
" style="fill:none;stroke:#e377c2;stroke-linecap:square;stroke-width:1.5;"/>
   </g>
   <g id="line2d_23">
    <path clip-path="url(#p8730f835b6)" d="M 184.581818 132.337451 
L 197.464935 135.269274 
L 210.348052 121.034604 
L 223.231169 111.495237 
L 236.114286 130.871365 
L 248.997403 123.274185 
L 261.880519 125.452297 
L 274.763636 129.310856 
L 287.646753 131.189858 
L 300.52987 132.068402 
L 313.412987 121.752052 
L 326.296104 104.427076 
L 339.179221 140.703473 
L 352.062338 129.528125 
L 364.945455 123.559634 
L 377.828571 136.833497 
L 390.711688 131.723424 
L 403.594805 146.968509 
L 416.477922 127.559506 
L 429.361039 111.624832 
L 442.244156 149.431639 
L 455.127273 128.77217 
L 468.01039 130.847372 
L 480.893506 137.882721 
L 493.776623 136.720245 
L 506.65974 143.589276 
L 519.542857 134.350763 
L 532.425974 111.794537 
L 545.309091 138.320757 
L 558.192208 129.146626 
L 571.075325 124.745376 
L 583.958442 138.737377 
L 596.841558 139.133603 
L 609.724675 135.352696 
L 622.607792 129.477411 
L 635.490909 116.743862 
L 648.374026 136.451434 
L 661.257143 130.814723 
L 674.14026 127.341378 
L 687.023377 132.836892 
L 699.906494 141.945109 
L 712.78961 143.171671 
L 725.672727 139.006636 
L 738.555844 124.486074 
L 751.438961 155.729148 
L 764.322078 140.313681 
L 777.205195 128.844317 
L 790.088312 142.569156 
L 802.971429 138.041003 
L 815.854545 150.134246 
L 828.737662 146.82054 
L 841.620779 135.143341 
L 854.503896 145.740119 
L 867.387013 136.449516 
L 880.27013 132.044741 
L 893.153247 157.995298 
L 906.036364 160.717241 
L 918.919481 160.096903 
L 931.802597 156.800386 
L 944.685714 181.694594 
L 957.568831 193.011805 
L 970.451948 202.577746 
L 983.335065 184.894715 
L 996.218182 221.994877 
" style="fill:none;stroke:#7f7f7f;stroke-linecap:square;stroke-width:1.5;"/>
   </g>
   <g id="line2d_24">
    <path clip-path="url(#p8730f835b6)" d="M 184.581818 234.352152 
L 197.464935 210.594468 
L 210.348052 231.139241 
L 223.231169 225.249519 
L 236.114286 232.710471 
L 248.997403 222.47705 
L 261.880519 248.845523 
L 274.763636 218.313338 
L 287.646753 228.337653 
L 300.52987 240.588311 
L 313.412987 239.433448 
L 326.296104 226.073513 
L 339.179221 232.807739 
L 352.062338 236.153374 
L 364.945455 239.613537 
L 377.828571 212.044629 
L 390.711688 247.605815 
L 403.594805 248.119571 
L 416.477922 234.541002 
L 429.361039 234.163206 
L 442.244156 243.209513 
L 455.127273 242.188302 
L 468.01039 242.334072 
L 480.893506 215.704204 
L 493.776623 239.279254 
L 506.65974 247.173311 
L 519.542857 230.306294 
L 532.425974 229.172623 
L 545.309091 240.831638 
L 558.192208 232.632396 
L 571.075325 242.697458 
L 583.958442 216.922323 
L 596.841558 237.656724 
L 609.724675 245.386677 
L 622.607792 232.268931 
L 635.490909 230.07531 
L 648.374026 250.370079 
L 661.257143 247.627817 
L 674.14026 241.561462 
L 687.023377 218.058712 
L 699.906494 234.778903 
L 712.78961 238.741821 
L 725.672727 229.385232 
L 738.555844 221.949659 
L 751.438961 237.076474 
L 764.322078 231.618572 
L 777.205195 239.340301 
L 790.088312 214.342414 
L 802.971429 235.730406 
L 815.854545 240.985506 
L 828.737662 231.051807 
L 841.620779 222.857441 
L 854.503896 239.598021 
L 867.387013 231.578373 
L 880.27013 242.042933 
L 893.153247 212.331878 
L 906.036364 232.520514 
L 918.919481 239.274328 
L 931.802597 239.209283 
L 944.685714 218.152078 
L 957.568831 235.835392 
L 970.451948 222.159481 
L 983.335065 237.516692 
L 996.218182 220.737085 
" style="fill:none;stroke:#bcbd22;stroke-linecap:square;stroke-width:1.5;"/>
   </g>
   <g id="line2d_25">
    <path clip-path="url(#p8730f835b6)" d="M 184.581818 199.349837 
L 197.464935 193.675935 
L 210.348052 179.808443 
L 223.231169 174.262748 
L 236.114286 166.55795 
L 248.997403 176.471206 
L 261.880519 163.72347 
L 274.763636 151.768198 
L 287.646753 148.505655 
L 300.52987 152.029082 
L 313.412987 154.693462 
L 326.296104 167.461804 
L 339.179221 151.453057 
L 352.062338 164.365259 
L 364.945455 165.976414 
L 377.828571 157.327403 
L 390.711688 147.269554 
L 403.594805 161.035522 
L 416.477922 152.110523 
L 429.361039 169.984447 
L 442.244156 145.865808 
L 455.127273 161.871072 
L 468.01039 163.775476 
L 480.893506 155.835222 
L 493.776623 141.691439 
L 506.65974 156.238576 
L 519.542857 149.475861 
L 532.425974 173.632403 
L 545.309091 148.99561 
L 558.192208 166.039672 
L 571.075325 167.286767 
L 583.958442 157.091718 
L 596.841558 150.401982 
L 609.724675 165.264717 
L 622.607792 153.577586 
L 635.490909 176.161183 
L 648.374026 145.391579 
L 661.257143 159.71485 
L 674.14026 162.449604 
L 687.023377 151.095 
L 699.906494 142.570115 
L 712.78961 163.707156 
L 725.672727 154.503244 
L 738.555844 172.187 
L 751.438961 147.032277 
L 764.322078 165.381944 
L 777.205195 160.776713 
L 790.088312 148.749324 
L 802.971429 144.144835 
L 815.854545 160.873527 
L 828.737662 155.605258 
L 841.620779 166.405813 
L 854.503896 148.819944 
L 867.387013 171.036796 
L 880.27013 166.660797 
L 893.153247 159.449524 
L 906.036364 147.861315 
L 918.919481 169.320663 
L 931.802597 147.526229 
L 944.685714 145.778829 
L 957.568831 138.433525 
L 970.451948 149.301944 
L 983.335065 140.207182 
L 996.218182 136.967249 
" style="fill:none;stroke:#17becf;stroke-linecap:square;stroke-width:1.5;"/>
   </g>
   <g id="line2d_26">
    <path clip-path="url(#p8730f835b6)" d="M 184.581818 162.772107 
L 197.464935 115.791111 
L 210.348052 95.628559 
L 223.231169 77.026279 
L 236.114286 87.1031 
L 248.997403 76.381589 
L 261.880519 71.070948 
L 274.763636 63.112952 
L 287.646753 73.195769 
L 300.52987 65.947845 
L 313.412987 63.928996 
L 326.296104 53.568 
L 339.179221 74.538908 
L 352.062338 71.447174 
L 364.945455 64.998961 
L 377.828571 62.069108 
L 390.711688 83.619818 
L 403.594805 70.23736 
L 416.477922 61.499411 
L 429.361039 57.471057 
L 442.244156 76.355478 
L 455.127273 73.985206 
L 468.01039 66.414448 
L 480.893506 63.503751 
L 493.776623 81.041039 
L 506.65974 65.453868 
L 519.542857 60.97066 
L 532.425974 55.873184 
L 545.309091 75.260698 
L 558.192208 69.657885 
L 571.075325 63.842813 
L 583.958442 67.947971 
L 596.841558 82.565658 
L 609.724675 69.144603 
L 622.607792 62.775028 
L 635.490909 58.416801 
L 648.374026 74.189162 
L 661.257143 77.281002 
L 674.14026 64.86769 
L 687.023377 63.384872 
L 699.906494 81.58981 
L 712.78961 67.844265 
L 725.672727 64.616276 
L 738.555844 57.324961 
L 751.438961 76.029061 
L 764.322078 70.986346 
L 777.205195 63.043766 
L 790.088312 67.919468 
L 802.971429 81.221191 
L 815.854545 65.300785 
L 828.737662 64.670015 
L 841.620779 61.455829 
L 854.503896 76.797456 
L 867.387013 72.968168 
L 880.27013 78.166716 
L 893.153247 72.550194 
L 906.036364 81.421944 
L 918.919481 76.081746 
L 931.802597 74.123474 
L 944.685714 74.598021 
L 957.568831 81.310451 
L 970.451948 90.239459 
L 983.335065 82.281948 
L 996.218182 90.644388 
" style="fill:none;stroke:#1f77b4;stroke-linecap:square;stroke-width:1.5;"/>
   </g>
   <g id="line2d_27">
    <path clip-path="url(#p8730f835b6)" d="M 184.581818 219.826313 
L 197.464935 208.506363 
L 210.348052 233.472565 
L 223.231169 252.13782 
L 236.114286 275.798631 
L 248.997403 268.256075 
L 261.880519 280.935548 
L 274.763636 293.136653 
L 287.646753 270.801594 
L 300.52987 246.562203 
L 313.412987 274.413965 
L 326.296104 277.72761 
L 339.179221 282.580216 
L 352.062338 280.662753 
L 364.945455 277.559081 
L 377.828571 295.488 
L 390.711688 277.012091 
L 403.594805 256.163049 
L 416.477922 269.620563 
L 429.361039 285.120988 
L 442.244156 283.053646 
L 455.127273 274.887306 
L 468.01039 277.658635 
L 480.893506 292.580475 
L 493.776623 270.359116 
L 506.65974 254.533033 
L 519.542857 263.539203 
L 532.425974 281.549501 
L 545.309091 281.332922 
L 558.192208 271.883235 
L 571.075325 277.94048 
L 583.958442 292.996204 
L 596.841558 269.550539 
L 609.724675 251.547407 
L 622.607792 262.923111 
L 635.490909 287.798773 
L 648.374026 284.94995 
L 661.257143 277.850209 
L 674.14026 275.210452 
L 687.023377 289.055456 
L 699.906494 266.037163 
L 712.78961 246.032726 
L 725.672727 261.077823 
L 738.555844 281.623755 
L 751.438961 279.494108 
L 764.322078 276.522865 
L 777.205195 275.561916 
L 790.088312 292.076708 
L 802.971429 268.286807 
L 815.854545 252.331997 
L 828.737662 265.290338 
L 841.620779 284.692255 
L 854.503896 275.645744 
L 867.387013 267.572251 
L 880.27013 272.629818 
L 893.153247 290.82718 
L 906.036364 265.051336 
L 918.919481 256.060355 
L 931.802597 264.102073 
L 944.685714 273.500059 
L 957.568831 260.842509 
L 970.451948 244.605969 
L 983.335065 259.021382 
L 996.218182 274.500454 
" style="fill:none;stroke:#ff7f0e;stroke-linecap:square;stroke-width:1.5;"/>
   </g>
   <g id="line2d_28">
    <path clip-path="url(#p8730f835b6)" d="M 184.581818 130.446347 
L 197.464935 148.845314 
L 210.348052 149.69823 
L 223.231169 149.303585 
L 236.114286 205.96127 
L 248.997403 225.522132 
L 261.880519 190.588489 
L 274.763636 186.169813 
L 287.646753 180.487372 
L 300.52987 174.716836 
L 313.412987 162.604913 
L 326.296104 163.2113 
L 339.179221 198.545424 
L 352.062338 214.392223 
L 364.945455 179.75249 
L 377.828571 166.761065 
L 390.711688 161.312855 
L 403.594805 170.460471 
L 416.477922 169.93244 
L 429.361039 168.706086 
L 442.244156 205.523312 
L 455.127273 223.696769 
L 468.01039 190.248829 
L 480.893506 175.472365 
L 493.776623 183.320943 
L 506.65974 189.449202 
L 519.542857 194.699285 
L 532.425974 177.536896 
L 545.309091 205.941943 
L 558.192208 215.48316 
L 571.075325 188.919903 
L 583.958442 168.291955 
L 596.841558 166.861416 
L 609.724675 177.825308 
L 622.607792 177.016068 
L 635.490909 167.962216 
L 648.374026 203.259745 
L 661.257143 218.399028 
L 674.14026 196.191391 
L 687.023377 177.088592 
L 699.906494 173.314585 
L 712.78961 188.553745 
L 725.672727 186.41214 
L 738.555844 189.401069 
L 751.438961 203.647957 
L 764.322078 225.376333 
L 777.205195 206.230302 
L 790.088312 177.83416 
L 802.971429 182.522994 
L 815.854545 194.89496 
L 828.737662 187.291312 
L 841.620779 192.367803 
L 854.503896 191.63306 
L 867.387013 193.499192 
L 880.27013 160.829079 
L 893.153247 158.860921 
L 906.036364 184.810634 
L 918.919481 195.461943 
L 931.802597 216.148341 
L 944.685714 213.182736 
L 957.568831 188.637983 
L 970.451948 195.878554 
L 983.335065 178.70763 
L 996.218182 146.270555 
" style="fill:none;stroke:#2ca02c;stroke-linecap:square;stroke-width:1.5;"/>
   </g>
   <g id="line2d_29">
    <path clip-path="url(#p8730f835b6)" d="M 184.581818 193.884484 
L 197.464935 199.74442 
L 210.348052 194.69039 
L 223.231169 189.748806 
L 236.114286 164.345642 
L 248.997403 146.168082 
L 261.880519 156.388992 
L 274.763636 154.115962 
L 287.646753 140.451042 
L 300.52987 144.120366 
L 313.412987 145.598867 
L 326.296104 157.679757 
L 339.179221 152.352059 
L 352.062338 133.175922 
L 364.945455 142.397465 
L 377.828571 138.735559 
L 390.711688 130.305108 
L 403.594805 130.936974 
L 416.477922 150.809248 
L 429.361039 160.016869 
L 442.244156 151.617062 
L 455.127273 139.657184 
L 468.01039 137.976074 
L 480.893506 141.957959 
L 493.776623 137.380345 
L 506.65974 135.762067 
L 519.542857 151.261143 
L 532.425974 158.861756 
L 545.309091 153.959992 
L 558.192208 140.320751 
L 571.075325 138.711319 
L 583.958442 137.821537 
L 596.841558 133.337719 
L 609.724675 134.909433 
L 622.607792 150.064959 
L 635.490909 153.232863 
L 648.374026 151.427044 
L 661.257143 136.112456 
L 674.14026 144.261028 
L 687.023377 144.994468 
L 699.906494 132.54197 
L 712.78961 133.424776 
L 725.672727 149.7928 
L 738.555844 156.036775 
L 751.438961 146.607293 
L 764.322078 136.295927 
L 777.205195 141.267933 
L 790.088312 142.024295 
L 802.971429 135.650416 
L 815.854545 130.028763 
L 828.737662 148.881928 
L 841.620779 151.386437 
L 854.503896 147.370744 
L 867.387013 134.811792 
L 880.27013 133.983288 
L 893.153247 131.4272 
L 906.036364 121.803252 
L 918.919481 123.311117 
L 931.802597 140.684991 
L 944.685714 142.711491 
L 957.568831 153.349914 
L 970.451948 139.612955 
L 983.335065 142.769571 
L 996.218182 127.454509 
" style="fill:none;stroke:#d62728;stroke-linecap:square;stroke-width:1.5;"/>
   </g>
   <g id="line2d_30">
    <path clip-path="url(#p8730f835b6)" d="M 184.581818 218.619879 
L 197.464935 213.14599 
L 210.348052 245.706925 
L 223.231169 229.879927 
L 236.114286 198.586233 
L 248.997403 217.507547 
L 261.880519 227.331637 
L 274.763636 222.272647 
L 287.646753 207.446247 
L 300.52987 202.673984 
L 313.412987 229.935381 
L 326.296104 217.004375 
L 339.179221 195.169895 
L 352.062338 211.013514 
L 364.945455 211.191171 
L 377.828571 224.631497 
L 390.711688 209.769112 
L 403.594805 203.633009 
L 416.477922 218.02518 
L 429.361039 224.099185 
L 442.244156 195.262802 
L 455.127273 206.742449 
L 468.01039 210.430279 
L 480.893506 221.52328 
L 493.776623 198.52976 
L 506.65974 193.457576 
L 519.542857 208.575766 
L 532.425974 225.929 
L 545.309091 188.66279 
L 558.192208 199.18467 
L 571.075325 211.727171 
L 583.958442 224.105878 
L 596.841558 199.815258 
L 609.724675 198.054304 
L 622.607792 212.54176 
L 635.490909 230.949244 
L 648.374026 196.959436 
L 661.257143 207.562327 
L 674.14026 211.011448 
L 687.023377 215.311732 
L 699.906494 190.611327 
L 712.78961 189.974809 
L 725.672727 213.621183 
L 738.555844 219.45186 
L 751.438961 184.583291 
L 764.322078 206.363801 
L 777.205195 210.458321 
L 790.088312 215.135457 
L 802.971429 193.853046 
L 815.854545 188.591113 
L 828.737662 214.709012 
L 841.620779 221.454117 
L 854.503896 182.249077 
L 867.387013 204.173202 
L 880.27013 207.486086 
L 893.153247 210.790942 
L 906.036364 190.997405 
L 918.919481 193.976413 
L 931.802597 206.289986 
L 944.685714 211.180097 
L 957.568831 191.830169 
L 970.451948 185.560414 
L 983.335065 196.88273 
L 996.218182 198.866728 
" style="fill:none;stroke:#9467bd;stroke-linecap:square;stroke-width:1.5;"/>
   </g>
   <g id="line2d_31">
    <path clip-path="url(#p8730f835b6)" d="M 184.581818 201.974143 
L 197.464935 185.625934 
L 210.348052 193.698251 
L 223.231169 165.637629 
L 236.114286 202.432091 
L 248.997403 200.176563 
L 261.880519 195.584687 
L 274.763636 200.19792 
L 287.646753 194.155306 
L 300.52987 215.270967 
L 313.412987 224.684585 
L 326.296104 216.48366 
L 339.179221 215.054264 
L 352.062338 221.773322 
L 364.945455 225.530672 
L 377.828571 208.531245 
L 390.711688 220.62776 
L 403.594805 224.606487 
L 416.477922 235.487384 
L 429.361039 222.927847 
L 442.244156 218.55465 
L 455.127273 234.683232 
L 468.01039 226.930414 
L 480.893506 223.506975 
L 493.776623 227.898146 
L 506.65974 239.697196 
L 519.542857 245.872473 
L 532.425974 229.250827 
L 545.309091 226.162941 
L 558.192208 232.674244 
L 571.075325 227.089263 
L 583.958442 219.977723 
L 596.841558 224.497958 
L 609.724675 233.921412 
L 622.607792 240.836691 
L 635.490909 218.344277 
L 648.374026 218.401928 
L 661.257143 232.927255 
L 674.14026 233.189497 
L 687.023377 232.68034 
L 699.906494 229.269106 
L 712.78961 237.029331 
L 725.672727 241.92487 
L 738.555844 230.5421 
L 751.438961 220.496587 
L 764.322078 227.763775 
L 777.205195 224.537248 
L 790.088312 220.069583 
L 802.971429 231.866531 
L 815.854545 234.916133 
L 828.737662 236.181935 
L 841.620779 224.50419 
L 854.503896 222.511915 
L 867.387013 215.875758 
L 880.27013 220.480426 
L 893.153247 213.277561 
L 906.036364 210.668061 
L 918.919481 208.280752 
L 931.802597 232.401882 
L 944.685714 226.76966 
L 957.568831 212.480579 
L 970.451948 201.400092 
L 983.335065 228.296229 
L 996.218182 231.307758 
" style="fill:none;stroke:#8c564b;stroke-linecap:square;stroke-width:1.5;"/>
   </g>
   <g id="patch_3">
    <path d="M 144 307.584 
L 144 41.472 
" style="fill:none;stroke:#000000;stroke-linecap:square;stroke-linejoin:miter;stroke-width:0.8;"/>
   </g>
   <g id="patch_4">
    <path d="M 1036.8 307.584 
L 1036.8 41.472 
" style="fill:none;stroke:#000000;stroke-linecap:square;stroke-linejoin:miter;stroke-width:0.8;"/>
   </g>
   <g id="patch_5">
    <path d="M 144 307.584 
L 1036.8 307.584 
" style="fill:none;stroke:#000000;stroke-linecap:square;stroke-linejoin:miter;stroke-width:0.8;"/>
   </g>
   <g id="patch_6">
    <path d="M 144 41.472 
L 1036.8 41.472 
" style="fill:none;stroke:#000000;stroke-linecap:square;stroke-linejoin:miter;stroke-width:0.8;"/>
   </g>
   <g id="text_16">
    <!-- 8th layer's shape: torch.Size([1, 256, 64]). Uniformly sampling 16 channels -->
    <g transform="translate(364.66875 35.472)scale(0.12 -0.12)">
     <defs>
      <path d="M 18.3125 70.21875 
L 18.3125 54.6875 
L 36.8125 54.6875 
L 36.8125 47.703125 
L 18.3125 47.703125 
L 18.3125 18.015625 
Q 18.3125 11.328125 20.140625 9.421875 
Q 21.96875 7.515625 27.59375 7.515625 
L 36.8125 7.515625 
L 36.8125 0 
L 27.59375 0 
Q 17.1875 0 13.234375 3.875 
Q 9.28125 7.765625 9.28125 18.015625 
L 9.28125 47.703125 
L 2.6875 47.703125 
L 2.6875 54.6875 
L 9.28125 54.6875 
L 9.28125 70.21875 
z
" id="DejaVuSans-116"/>
      <path d="M 54.890625 33.015625 
L 54.890625 0 
L 45.90625 0 
L 45.90625 32.71875 
Q 45.90625 40.484375 42.875 44.328125 
Q 39.84375 48.1875 33.796875 48.1875 
Q 26.515625 48.1875 22.3125 43.546875 
Q 18.109375 38.921875 18.109375 30.90625 
L 18.109375 0 
L 9.078125 0 
L 9.078125 75.984375 
L 18.109375 75.984375 
L 18.109375 46.1875 
Q 21.34375 51.125 25.703125 53.5625 
Q 30.078125 56 35.796875 56 
Q 45.21875 56 50.046875 50.171875 
Q 54.890625 44.34375 54.890625 33.015625 
z
" id="DejaVuSans-104"/>
      <path id="DejaVuSans-32"/>
      <path d="M 9.421875 75.984375 
L 18.40625 75.984375 
L 18.40625 0 
L 9.421875 0 
z
" id="DejaVuSans-108"/>
      <path d="M 34.28125 27.484375 
Q 23.390625 27.484375 19.1875 25 
Q 14.984375 22.515625 14.984375 16.5 
Q 14.984375 11.71875 18.140625 8.90625 
Q 21.296875 6.109375 26.703125 6.109375 
Q 34.1875 6.109375 38.703125 11.40625 
Q 43.21875 16.703125 43.21875 25.484375 
L 43.21875 27.484375 
z
M 52.203125 31.203125 
L 52.203125 0 
L 43.21875 0 
L 43.21875 8.296875 
Q 40.140625 3.328125 35.546875 0.953125 
Q 30.953125 -1.421875 24.3125 -1.421875 
Q 15.921875 -1.421875 10.953125 3.296875 
Q 6 8.015625 6 15.921875 
Q 6 25.140625 12.171875 29.828125 
Q 18.359375 34.515625 30.609375 34.515625 
L 43.21875 34.515625 
L 43.21875 35.40625 
Q 43.21875 41.609375 39.140625 45 
Q 35.0625 48.390625 27.6875 48.390625 
Q 23 48.390625 18.546875 47.265625 
Q 14.109375 46.140625 10.015625 43.890625 
L 10.015625 52.203125 
Q 14.9375 54.109375 19.578125 55.046875 
Q 24.21875 56 28.609375 56 
Q 40.484375 56 46.34375 49.84375 
Q 52.203125 43.703125 52.203125 31.203125 
z
" id="DejaVuSans-97"/>
      <path d="M 32.171875 -5.078125 
Q 28.375 -14.84375 24.75 -17.8125 
Q 21.140625 -20.796875 15.09375 -20.796875 
L 7.90625 -20.796875 
L 7.90625 -13.28125 
L 13.1875 -13.28125 
Q 16.890625 -13.28125 18.9375 -11.515625 
Q 21 -9.765625 23.484375 -3.21875 
L 25.09375 0.875 
L 2.984375 54.6875 
L 12.5 54.6875 
L 29.59375 11.921875 
L 46.6875 54.6875 
L 56.203125 54.6875 
z
" id="DejaVuSans-121"/>
      <path d="M 56.203125 29.59375 
L 56.203125 25.203125 
L 14.890625 25.203125 
Q 15.484375 15.921875 20.484375 11.0625 
Q 25.484375 6.203125 34.421875 6.203125 
Q 39.59375 6.203125 44.453125 7.46875 
Q 49.3125 8.734375 54.109375 11.28125 
L 54.109375 2.78125 
Q 49.265625 0.734375 44.1875 -0.34375 
Q 39.109375 -1.421875 33.890625 -1.421875 
Q 20.796875 -1.421875 13.15625 6.1875 
Q 5.515625 13.8125 5.515625 26.8125 
Q 5.515625 40.234375 12.765625 48.109375 
Q 20.015625 56 32.328125 56 
Q 43.359375 56 49.78125 48.890625 
Q 56.203125 41.796875 56.203125 29.59375 
z
M 47.21875 32.234375 
Q 47.125 39.59375 43.09375 43.984375 
Q 39.0625 48.390625 32.421875 48.390625 
Q 24.90625 48.390625 20.390625 44.140625 
Q 15.875 39.890625 15.1875 32.171875 
z
" id="DejaVuSans-101"/>
      <path d="M 41.109375 46.296875 
Q 39.59375 47.171875 37.8125 47.578125 
Q 36.03125 48 33.890625 48 
Q 26.265625 48 22.1875 43.046875 
Q 18.109375 38.09375 18.109375 28.8125 
L 18.109375 0 
L 9.078125 0 
L 9.078125 54.6875 
L 18.109375 54.6875 
L 18.109375 46.1875 
Q 20.953125 51.171875 25.484375 53.578125 
Q 30.03125 56 36.53125 56 
Q 37.453125 56 38.578125 55.875 
Q 39.703125 55.765625 41.0625 55.515625 
z
" id="DejaVuSans-114"/>
      <path d="M 17.921875 72.90625 
L 17.921875 45.796875 
L 9.625 45.796875 
L 9.625 72.90625 
z
" id="DejaVuSans-39"/>
      <path d="M 44.28125 53.078125 
L 44.28125 44.578125 
Q 40.484375 46.53125 36.375 47.5 
Q 32.28125 48.484375 27.875 48.484375 
Q 21.1875 48.484375 17.84375 46.4375 
Q 14.5 44.390625 14.5 40.28125 
Q 14.5 37.15625 16.890625 35.375 
Q 19.28125 33.59375 26.515625 31.984375 
L 29.59375 31.296875 
Q 39.15625 29.25 43.1875 25.515625 
Q 47.21875 21.78125 47.21875 15.09375 
Q 47.21875 7.46875 41.1875 3.015625 
Q 35.15625 -1.421875 24.609375 -1.421875 
Q 20.21875 -1.421875 15.453125 -0.5625 
Q 10.6875 0.296875 5.421875 2 
L 5.421875 11.28125 
Q 10.40625 8.6875 15.234375 7.390625 
Q 20.0625 6.109375 24.8125 6.109375 
Q 31.15625 6.109375 34.5625 8.28125 
Q 37.984375 10.453125 37.984375 14.40625 
Q 37.984375 18.0625 35.515625 20.015625 
Q 33.0625 21.96875 24.703125 23.78125 
L 21.578125 24.515625 
Q 13.234375 26.265625 9.515625 29.90625 
Q 5.8125 33.546875 5.8125 39.890625 
Q 5.8125 47.609375 11.28125 51.796875 
Q 16.75 56 26.8125 56 
Q 31.78125 56 36.171875 55.265625 
Q 40.578125 54.546875 44.28125 53.078125 
z
" id="DejaVuSans-115"/>
      <path d="M 18.109375 8.203125 
L 18.109375 -20.796875 
L 9.078125 -20.796875 
L 9.078125 54.6875 
L 18.109375 54.6875 
L 18.109375 46.390625 
Q 20.953125 51.265625 25.265625 53.625 
Q 29.59375 56 35.59375 56 
Q 45.5625 56 51.78125 48.09375 
Q 58.015625 40.1875 58.015625 27.296875 
Q 58.015625 14.40625 51.78125 6.484375 
Q 45.5625 -1.421875 35.59375 -1.421875 
Q 29.59375 -1.421875 25.265625 0.953125 
Q 20.953125 3.328125 18.109375 8.203125 
z
M 48.6875 27.296875 
Q 48.6875 37.203125 44.609375 42.84375 
Q 40.53125 48.484375 33.40625 48.484375 
Q 26.265625 48.484375 22.1875 42.84375 
Q 18.109375 37.203125 18.109375 27.296875 
Q 18.109375 17.390625 22.1875 11.75 
Q 26.265625 6.109375 33.40625 6.109375 
Q 40.53125 6.109375 44.609375 11.75 
Q 48.6875 17.390625 48.6875 27.296875 
z
" id="DejaVuSans-112"/>
      <path d="M 11.71875 12.40625 
L 22.015625 12.40625 
L 22.015625 0 
L 11.71875 0 
z
M 11.71875 51.703125 
L 22.015625 51.703125 
L 22.015625 39.3125 
L 11.71875 39.3125 
z
" id="DejaVuSans-58"/>
      <path d="M 30.609375 48.390625 
Q 23.390625 48.390625 19.1875 42.75 
Q 14.984375 37.109375 14.984375 27.296875 
Q 14.984375 17.484375 19.15625 11.84375 
Q 23.34375 6.203125 30.609375 6.203125 
Q 37.796875 6.203125 41.984375 11.859375 
Q 46.1875 17.53125 46.1875 27.296875 
Q 46.1875 37.015625 41.984375 42.703125 
Q 37.796875 48.390625 30.609375 48.390625 
z
M 30.609375 56 
Q 42.328125 56 49.015625 48.375 
Q 55.71875 40.765625 55.71875 27.296875 
Q 55.71875 13.875 49.015625 6.21875 
Q 42.328125 -1.421875 30.609375 -1.421875 
Q 18.84375 -1.421875 12.171875 6.21875 
Q 5.515625 13.875 5.515625 27.296875 
Q 5.515625 40.765625 12.171875 48.375 
Q 18.84375 56 30.609375 56 
z
" id="DejaVuSans-111"/>
      <path d="M 48.78125 52.59375 
L 48.78125 44.1875 
Q 44.96875 46.296875 41.140625 47.34375 
Q 37.3125 48.390625 33.40625 48.390625 
Q 24.65625 48.390625 19.8125 42.84375 
Q 14.984375 37.3125 14.984375 27.296875 
Q 14.984375 17.28125 19.8125 11.734375 
Q 24.65625 6.203125 33.40625 6.203125 
Q 37.3125 6.203125 41.140625 7.25 
Q 44.96875 8.296875 48.78125 10.40625 
L 48.78125 2.09375 
Q 45.015625 0.34375 40.984375 -0.53125 
Q 36.96875 -1.421875 32.421875 -1.421875 
Q 20.0625 -1.421875 12.78125 6.34375 
Q 5.515625 14.109375 5.515625 27.296875 
Q 5.515625 40.671875 12.859375 48.328125 
Q 20.21875 56 33.015625 56 
Q 37.15625 56 41.109375 55.140625 
Q 45.0625 54.296875 48.78125 52.59375 
z
" id="DejaVuSans-99"/>
      <path d="M 53.515625 70.515625 
L 53.515625 60.890625 
Q 47.90625 63.578125 42.921875 64.890625 
Q 37.9375 66.21875 33.296875 66.21875 
Q 25.25 66.21875 20.875 63.09375 
Q 16.5 59.96875 16.5 54.203125 
Q 16.5 49.359375 19.40625 46.890625 
Q 22.3125 44.4375 30.421875 42.921875 
L 36.375 41.703125 
Q 47.40625 39.59375 52.65625 34.296875 
Q 57.90625 29 57.90625 20.125 
Q 57.90625 9.515625 50.796875 4.046875 
Q 43.703125 -1.421875 29.984375 -1.421875 
Q 24.8125 -1.421875 18.96875 -0.25 
Q 13.140625 0.921875 6.890625 3.21875 
L 6.890625 13.375 
Q 12.890625 10.015625 18.65625 8.296875 
Q 24.421875 6.59375 29.984375 6.59375 
Q 38.421875 6.59375 43.015625 9.90625 
Q 47.609375 13.234375 47.609375 19.390625 
Q 47.609375 24.75 44.3125 27.78125 
Q 41.015625 30.8125 33.5 32.328125 
L 27.484375 33.5 
Q 16.453125 35.6875 11.515625 40.375 
Q 6.59375 45.0625 6.59375 53.421875 
Q 6.59375 63.09375 13.40625 68.65625 
Q 20.21875 74.21875 32.171875 74.21875 
Q 37.3125 74.21875 42.625 73.28125 
Q 47.953125 72.359375 53.515625 70.515625 
z
" id="DejaVuSans-83"/>
      <path d="M 9.421875 54.6875 
L 18.40625 54.6875 
L 18.40625 0 
L 9.421875 0 
z
M 9.421875 75.984375 
L 18.40625 75.984375 
L 18.40625 64.59375 
L 9.421875 64.59375 
z
" id="DejaVuSans-105"/>
      <path d="M 5.515625 54.6875 
L 48.1875 54.6875 
L 48.1875 46.484375 
L 14.40625 7.171875 
L 48.1875 7.171875 
L 48.1875 0 
L 4.296875 0 
L 4.296875 8.203125 
L 38.09375 47.515625 
L 5.515625 47.515625 
z
" id="DejaVuSans-122"/>
      <path d="M 31 75.875 
Q 24.46875 64.65625 21.28125 53.65625 
Q 18.109375 42.671875 18.109375 31.390625 
Q 18.109375 20.125 21.3125 9.0625 
Q 24.515625 -2 31 -13.1875 
L 23.1875 -13.1875 
Q 15.875 -1.703125 12.234375 9.375 
Q 8.59375 20.453125 8.59375 31.390625 
Q 8.59375 42.28125 12.203125 53.3125 
Q 15.828125 64.359375 23.1875 75.875 
z
" id="DejaVuSans-40"/>
      <path d="M 8.59375 75.984375 
L 29.296875 75.984375 
L 29.296875 69 
L 17.578125 69 
L 17.578125 -6.203125 
L 29.296875 -6.203125 
L 29.296875 -13.1875 
L 8.59375 -13.1875 
z
" id="DejaVuSans-91"/>
      <path d="M 11.71875 12.40625 
L 22.015625 12.40625 
L 22.015625 4 
L 14.015625 -11.625 
L 7.71875 -11.625 
L 11.71875 4 
z
" id="DejaVuSans-44"/>
      <path d="M 30.421875 75.984375 
L 30.421875 -13.1875 
L 9.71875 -13.1875 
L 9.71875 -6.203125 
L 21.390625 -6.203125 
L 21.390625 69 
L 9.71875 69 
L 9.71875 75.984375 
z
" id="DejaVuSans-93"/>
      <path d="M 8.015625 75.875 
L 15.828125 75.875 
Q 23.140625 64.359375 26.78125 53.3125 
Q 30.421875 42.28125 30.421875 31.390625 
Q 30.421875 20.453125 26.78125 9.375 
Q 23.140625 -1.703125 15.828125 -13.1875 
L 8.015625 -13.1875 
Q 14.5 -2 17.703125 9.0625 
Q 20.90625 20.125 20.90625 31.390625 
Q 20.90625 42.671875 17.703125 53.65625 
Q 14.5 64.65625 8.015625 75.875 
z
" id="DejaVuSans-41"/>
      <path d="M 8.6875 72.90625 
L 18.609375 72.90625 
L 18.609375 28.609375 
Q 18.609375 16.890625 22.84375 11.734375 
Q 27.09375 6.59375 36.625 6.59375 
Q 46.09375 6.59375 50.34375 11.734375 
Q 54.59375 16.890625 54.59375 28.609375 
L 54.59375 72.90625 
L 64.5 72.90625 
L 64.5 27.390625 
Q 64.5 13.140625 57.4375 5.859375 
Q 50.390625 -1.421875 36.625 -1.421875 
Q 22.796875 -1.421875 15.734375 5.859375 
Q 8.6875 13.140625 8.6875 27.390625 
z
" id="DejaVuSans-85"/>
      <path d="M 54.890625 33.015625 
L 54.890625 0 
L 45.90625 0 
L 45.90625 32.71875 
Q 45.90625 40.484375 42.875 44.328125 
Q 39.84375 48.1875 33.796875 48.1875 
Q 26.515625 48.1875 22.3125 43.546875 
Q 18.109375 38.921875 18.109375 30.90625 
L 18.109375 0 
L 9.078125 0 
L 9.078125 54.6875 
L 18.109375 54.6875 
L 18.109375 46.1875 
Q 21.34375 51.125 25.703125 53.5625 
Q 30.078125 56 35.796875 56 
Q 45.21875 56 50.046875 50.171875 
Q 54.890625 44.34375 54.890625 33.015625 
z
" id="DejaVuSans-110"/>
      <path d="M 37.109375 75.984375 
L 37.109375 68.5 
L 28.515625 68.5 
Q 23.6875 68.5 21.796875 66.546875 
Q 19.921875 64.59375 19.921875 59.515625 
L 19.921875 54.6875 
L 34.71875 54.6875 
L 34.71875 47.703125 
L 19.921875 47.703125 
L 19.921875 0 
L 10.890625 0 
L 10.890625 47.703125 
L 2.296875 47.703125 
L 2.296875 54.6875 
L 10.890625 54.6875 
L 10.890625 58.5 
Q 10.890625 67.625 15.140625 71.796875 
Q 19.390625 75.984375 28.609375 75.984375 
z
" id="DejaVuSans-102"/>
      <path d="M 52 44.1875 
Q 55.375 50.25 60.0625 53.125 
Q 64.75 56 71.09375 56 
Q 79.640625 56 84.28125 50.015625 
Q 88.921875 44.046875 88.921875 33.015625 
L 88.921875 0 
L 79.890625 0 
L 79.890625 32.71875 
Q 79.890625 40.578125 77.09375 44.375 
Q 74.3125 48.1875 68.609375 48.1875 
Q 61.625 48.1875 57.5625 43.546875 
Q 53.515625 38.921875 53.515625 30.90625 
L 53.515625 0 
L 44.484375 0 
L 44.484375 32.71875 
Q 44.484375 40.625 41.703125 44.40625 
Q 38.921875 48.1875 33.109375 48.1875 
Q 26.21875 48.1875 22.15625 43.53125 
Q 18.109375 38.875 18.109375 30.90625 
L 18.109375 0 
L 9.078125 0 
L 9.078125 54.6875 
L 18.109375 54.6875 
L 18.109375 46.1875 
Q 21.1875 51.21875 25.484375 53.609375 
Q 29.78125 56 35.6875 56 
Q 41.65625 56 45.828125 52.96875 
Q 50 49.953125 52 44.1875 
z
" id="DejaVuSans-109"/>
      <path d="M 45.40625 27.984375 
Q 45.40625 37.75 41.375 43.109375 
Q 37.359375 48.484375 30.078125 48.484375 
Q 22.859375 48.484375 18.828125 43.109375 
Q 14.796875 37.75 14.796875 27.984375 
Q 14.796875 18.265625 18.828125 12.890625 
Q 22.859375 7.515625 30.078125 7.515625 
Q 37.359375 7.515625 41.375 12.890625 
Q 45.40625 18.265625 45.40625 27.984375 
z
M 54.390625 6.78125 
Q 54.390625 -7.171875 48.1875 -13.984375 
Q 42 -20.796875 29.203125 -20.796875 
Q 24.46875 -20.796875 20.265625 -20.09375 
Q 16.0625 -19.390625 12.109375 -17.921875 
L 12.109375 -9.1875 
Q 16.0625 -11.328125 19.921875 -12.34375 
Q 23.78125 -13.375 27.78125 -13.375 
Q 36.625 -13.375 41.015625 -8.765625 
Q 45.40625 -4.15625 45.40625 5.171875 
L 45.40625 9.625 
Q 42.625 4.78125 38.28125 2.390625 
Q 33.9375 0 27.875 0 
Q 17.828125 0 11.671875 7.65625 
Q 5.515625 15.328125 5.515625 27.984375 
Q 5.515625 40.671875 11.671875 48.328125 
Q 17.828125 56 27.875 56 
Q 33.9375 56 38.28125 53.609375 
Q 42.625 51.21875 45.40625 46.390625 
L 45.40625 54.6875 
L 54.390625 54.6875 
z
" id="DejaVuSans-103"/>
     </defs>
     <use xlink:href="#DejaVuSans-56"/>
     <use x="63.623047" xlink:href="#DejaVuSans-116"/>
     <use x="102.832031" xlink:href="#DejaVuSans-104"/>
     <use x="166.210938" xlink:href="#DejaVuSans-32"/>
     <use x="197.998047" xlink:href="#DejaVuSans-108"/>
     <use x="225.78125" xlink:href="#DejaVuSans-97"/>
     <use x="287.060547" xlink:href="#DejaVuSans-121"/>
     <use x="346.240234" xlink:href="#DejaVuSans-101"/>
     <use x="407.763672" xlink:href="#DejaVuSans-114"/>
     <use x="448.876953" xlink:href="#DejaVuSans-39"/>
     <use x="476.367188" xlink:href="#DejaVuSans-115"/>
     <use x="528.466797" xlink:href="#DejaVuSans-32"/>
     <use x="560.253906" xlink:href="#DejaVuSans-115"/>
     <use x="612.353516" xlink:href="#DejaVuSans-104"/>
     <use x="675.732422" xlink:href="#DejaVuSans-97"/>
     <use x="737.011719" xlink:href="#DejaVuSans-112"/>
     <use x="800.488281" xlink:href="#DejaVuSans-101"/>
     <use x="862.011719" xlink:href="#DejaVuSans-58"/>
     <use x="895.703125" xlink:href="#DejaVuSans-32"/>
     <use x="927.490234" xlink:href="#DejaVuSans-116"/>
     <use x="966.699219" xlink:href="#DejaVuSans-111"/>
     <use x="1027.880859" xlink:href="#DejaVuSans-114"/>
     <use x="1066.744141" xlink:href="#DejaVuSans-99"/>
     <use x="1121.724609" xlink:href="#DejaVuSans-104"/>
     <use x="1185.103516" xlink:href="#DejaVuSans-46"/>
     <use x="1216.890625" xlink:href="#DejaVuSans-83"/>
     <use x="1280.367188" xlink:href="#DejaVuSans-105"/>
     <use x="1308.150391" xlink:href="#DejaVuSans-122"/>
     <use x="1360.640625" xlink:href="#DejaVuSans-101"/>
     <use x="1422.164062" xlink:href="#DejaVuSans-40"/>
     <use x="1461.177734" xlink:href="#DejaVuSans-91"/>
     <use x="1500.191406" xlink:href="#DejaVuSans-49"/>
     <use x="1563.814453" xlink:href="#DejaVuSans-44"/>
     <use x="1595.601562" xlink:href="#DejaVuSans-32"/>
     <use x="1627.388672" xlink:href="#DejaVuSans-50"/>
     <use x="1691.011719" xlink:href="#DejaVuSans-53"/>
     <use x="1754.634766" xlink:href="#DejaVuSans-54"/>
     <use x="1818.257812" xlink:href="#DejaVuSans-44"/>
     <use x="1850.044922" xlink:href="#DejaVuSans-32"/>
     <use x="1881.832031" xlink:href="#DejaVuSans-54"/>
     <use x="1945.455078" xlink:href="#DejaVuSans-52"/>
     <use x="2009.078125" xlink:href="#DejaVuSans-93"/>
     <use x="2048.091797" xlink:href="#DejaVuSans-41"/>
     <use x="2087.105469" xlink:href="#DejaVuSans-46"/>
     <use x="2118.892578" xlink:href="#DejaVuSans-32"/>
     <use x="2150.679688" xlink:href="#DejaVuSans-85"/>
     <use x="2223.873047" xlink:href="#DejaVuSans-110"/>
     <use x="2287.251953" xlink:href="#DejaVuSans-105"/>
     <use x="2315.035156" xlink:href="#DejaVuSans-102"/>
     <use x="2350.240234" xlink:href="#DejaVuSans-111"/>
     <use x="2411.421875" xlink:href="#DejaVuSans-114"/>
     <use x="2450.785156" xlink:href="#DejaVuSans-109"/>
     <use x="2548.197266" xlink:href="#DejaVuSans-108"/>
     <use x="2575.980469" xlink:href="#DejaVuSans-121"/>
     <use x="2635.160156" xlink:href="#DejaVuSans-32"/>
     <use x="2666.947266" xlink:href="#DejaVuSans-115"/>
     <use x="2719.046875" xlink:href="#DejaVuSans-97"/>
     <use x="2780.326172" xlink:href="#DejaVuSans-109"/>
     <use x="2877.738281" xlink:href="#DejaVuSans-112"/>
     <use x="2941.214844" xlink:href="#DejaVuSans-108"/>
     <use x="2968.998047" xlink:href="#DejaVuSans-105"/>
     <use x="2996.78125" xlink:href="#DejaVuSans-110"/>
     <use x="3060.160156" xlink:href="#DejaVuSans-103"/>
     <use x="3123.636719" xlink:href="#DejaVuSans-32"/>
     <use x="3155.423828" xlink:href="#DejaVuSans-49"/>
     <use x="3219.046875" xlink:href="#DejaVuSans-54"/>
     <use x="3282.669922" xlink:href="#DejaVuSans-32"/>
     <use x="3314.457031" xlink:href="#DejaVuSans-99"/>
     <use x="3369.4375" xlink:href="#DejaVuSans-104"/>
     <use x="3432.816406" xlink:href="#DejaVuSans-97"/>
     <use x="3494.095703" xlink:href="#DejaVuSans-110"/>
     <use x="3557.474609" xlink:href="#DejaVuSans-110"/>
     <use x="3620.853516" xlink:href="#DejaVuSans-101"/>
     <use x="3682.376953" xlink:href="#DejaVuSans-108"/>
     <use x="3710.160156" xlink:href="#DejaVuSans-115"/>
    </g>
   </g>
  </g>
 </g>
 <defs>
  <clipPath id="p8730f835b6">
   <rect height="266.112" width="892.8" x="144" y="41.472"/>
  </clipPath>
 </defs>
</svg>
