<?xml version="1.0" encoding="utf-8" standalone="no"?>
<!DOCTYPE svg PUBLIC "-//W3C//DTD SVG 1.1//EN"
  "http://www.w3.org/Graphics/SVG/1.1/DTD/svg11.dtd">
<!-- Created with matplotlib (https://matplotlib.org/) -->
<svg height="345.6pt" version="1.1" viewBox="0 0 1152 345.6" width="1152pt" xmlns="http://www.w3.org/2000/svg" xmlns:xlink="http://www.w3.org/1999/xlink">
 <metadata>
  <rdf:RDF xmlns:cc="http://creativecommons.org/ns#" xmlns:dc="http://purl.org/dc/elements/1.1/" xmlns:rdf="http://www.w3.org/1999/02/22-rdf-syntax-ns#">
   <cc:Work>
    <dc:type rdf:resource="http://purl.org/dc/dcmitype/StillImage"/>
    <dc:date>2021-12-24T07:14:20.147410</dc:date>
    <dc:format>image/svg+xml</dc:format>
    <dc:creator>
     <cc:Agent>
      <dc:title>Matplotlib v3.3.3, https://matplotlib.org/</dc:title>
     </cc:Agent>
    </dc:creator>
   </cc:Work>
  </rdf:RDF>
 </metadata>
 <defs>
  <style type="text/css">*{stroke-linecap:butt;stroke-linejoin:round;}</style>
 </defs>
 <g id="figure_1">
  <g id="patch_1">
   <path d="M 0 345.6 
L 1152 345.6 
L 1152 0 
L 0 0 
z
" style="fill:#ffffff;"/>
  </g>
  <g id="axes_1">
   <g id="patch_2">
    <path d="M 144 307.584 
L 1036.8 307.584 
L 1036.8 41.472 
L 144 41.472 
z
" style="fill:#ffffff;"/>
   </g>
   <g id="matplotlib.axis_1">
    <g id="xtick_1">
     <g id="line2d_1">
      <defs>
       <path d="M 0 0 
L 0 3.5 
" id="m9666391692" style="stroke:#000000;stroke-width:0.8;"/>
      </defs>
      <g>
       <use style="stroke:#000000;stroke-width:0.8;" x="184.581818" xlink:href="#m9666391692" y="307.584"/>
      </g>
     </g>
     <g id="text_1">
      <!-- 0 -->
      <g transform="translate(181.400568 322.182437)scale(0.1 -0.1)">
       <defs>
        <path d="M 31.78125 66.40625 
Q 24.171875 66.40625 20.328125 58.90625 
Q 16.5 51.421875 16.5 36.375 
Q 16.5 21.390625 20.328125 13.890625 
Q 24.171875 6.390625 31.78125 6.390625 
Q 39.453125 6.390625 43.28125 13.890625 
Q 47.125 21.390625 47.125 36.375 
Q 47.125 51.421875 43.28125 58.90625 
Q 39.453125 66.40625 31.78125 66.40625 
z
M 31.78125 74.21875 
Q 44.046875 74.21875 50.515625 64.515625 
Q 56.984375 54.828125 56.984375 36.375 
Q 56.984375 17.96875 50.515625 8.265625 
Q 44.046875 -1.421875 31.78125 -1.421875 
Q 19.53125 -1.421875 13.0625 8.265625 
Q 6.59375 17.96875 6.59375 36.375 
Q 6.59375 54.828125 13.0625 64.515625 
Q 19.53125 74.21875 31.78125 74.21875 
z
" id="DejaVuSans-48"/>
       </defs>
       <use xlink:href="#DejaVuSans-48"/>
      </g>
     </g>
    </g>
    <g id="xtick_2">
     <g id="line2d_2">
      <g>
       <use style="stroke:#000000;stroke-width:0.8;" x="343.259504" xlink:href="#m9666391692" y="307.584"/>
      </g>
     </g>
     <g id="text_2">
      <!-- 200 -->
      <g transform="translate(333.715754 322.182437)scale(0.1 -0.1)">
       <defs>
        <path d="M 19.1875 8.296875 
L 53.609375 8.296875 
L 53.609375 0 
L 7.328125 0 
L 7.328125 8.296875 
Q 12.9375 14.109375 22.625 23.890625 
Q 32.328125 33.6875 34.8125 36.53125 
Q 39.546875 41.84375 41.421875 45.53125 
Q 43.3125 49.21875 43.3125 52.78125 
Q 43.3125 58.59375 39.234375 62.25 
Q 35.15625 65.921875 28.609375 65.921875 
Q 23.96875 65.921875 18.8125 64.3125 
Q 13.671875 62.703125 7.8125 59.421875 
L 7.8125 69.390625 
Q 13.765625 71.78125 18.9375 73 
Q 24.125 74.21875 28.421875 74.21875 
Q 39.75 74.21875 46.484375 68.546875 
Q 53.21875 62.890625 53.21875 53.421875 
Q 53.21875 48.921875 51.53125 44.890625 
Q 49.859375 40.875 45.40625 35.40625 
Q 44.1875 33.984375 37.640625 27.21875 
Q 31.109375 20.453125 19.1875 8.296875 
z
" id="DejaVuSans-50"/>
       </defs>
       <use xlink:href="#DejaVuSans-50"/>
       <use x="63.623047" xlink:href="#DejaVuSans-48"/>
       <use x="127.246094" xlink:href="#DejaVuSans-48"/>
      </g>
     </g>
    </g>
    <g id="xtick_3">
     <g id="line2d_3">
      <g>
       <use style="stroke:#000000;stroke-width:0.8;" x="501.93719" xlink:href="#m9666391692" y="307.584"/>
      </g>
     </g>
     <g id="text_3">
      <!-- 400 -->
      <g transform="translate(492.39344 322.182437)scale(0.1 -0.1)">
       <defs>
        <path d="M 37.796875 64.3125 
L 12.890625 25.390625 
L 37.796875 25.390625 
z
M 35.203125 72.90625 
L 47.609375 72.90625 
L 47.609375 25.390625 
L 58.015625 25.390625 
L 58.015625 17.1875 
L 47.609375 17.1875 
L 47.609375 0 
L 37.796875 0 
L 37.796875 17.1875 
L 4.890625 17.1875 
L 4.890625 26.703125 
z
" id="DejaVuSans-52"/>
       </defs>
       <use xlink:href="#DejaVuSans-52"/>
       <use x="63.623047" xlink:href="#DejaVuSans-48"/>
       <use x="127.246094" xlink:href="#DejaVuSans-48"/>
      </g>
     </g>
    </g>
    <g id="xtick_4">
     <g id="line2d_4">
      <g>
       <use style="stroke:#000000;stroke-width:0.8;" x="660.614876" xlink:href="#m9666391692" y="307.584"/>
      </g>
     </g>
     <g id="text_4">
      <!-- 600 -->
      <g transform="translate(651.071126 322.182437)scale(0.1 -0.1)">
       <defs>
        <path d="M 33.015625 40.375 
Q 26.375 40.375 22.484375 35.828125 
Q 18.609375 31.296875 18.609375 23.390625 
Q 18.609375 15.53125 22.484375 10.953125 
Q 26.375 6.390625 33.015625 6.390625 
Q 39.65625 6.390625 43.53125 10.953125 
Q 47.40625 15.53125 47.40625 23.390625 
Q 47.40625 31.296875 43.53125 35.828125 
Q 39.65625 40.375 33.015625 40.375 
z
M 52.59375 71.296875 
L 52.59375 62.3125 
Q 48.875 64.0625 45.09375 64.984375 
Q 41.3125 65.921875 37.59375 65.921875 
Q 27.828125 65.921875 22.671875 59.328125 
Q 17.53125 52.734375 16.796875 39.40625 
Q 19.671875 43.65625 24.015625 45.921875 
Q 28.375 48.1875 33.59375 48.1875 
Q 44.578125 48.1875 50.953125 41.515625 
Q 57.328125 34.859375 57.328125 23.390625 
Q 57.328125 12.15625 50.6875 5.359375 
Q 44.046875 -1.421875 33.015625 -1.421875 
Q 20.359375 -1.421875 13.671875 8.265625 
Q 6.984375 17.96875 6.984375 36.375 
Q 6.984375 53.65625 15.1875 63.9375 
Q 23.390625 74.21875 37.203125 74.21875 
Q 40.921875 74.21875 44.703125 73.484375 
Q 48.484375 72.75 52.59375 71.296875 
z
" id="DejaVuSans-54"/>
       </defs>
       <use xlink:href="#DejaVuSans-54"/>
       <use x="63.623047" xlink:href="#DejaVuSans-48"/>
       <use x="127.246094" xlink:href="#DejaVuSans-48"/>
      </g>
     </g>
    </g>
    <g id="xtick_5">
     <g id="line2d_5">
      <g>
       <use style="stroke:#000000;stroke-width:0.8;" x="819.292562" xlink:href="#m9666391692" y="307.584"/>
      </g>
     </g>
     <g id="text_5">
      <!-- 800 -->
      <g transform="translate(809.748812 322.182437)scale(0.1 -0.1)">
       <defs>
        <path d="M 31.78125 34.625 
Q 24.75 34.625 20.71875 30.859375 
Q 16.703125 27.09375 16.703125 20.515625 
Q 16.703125 13.921875 20.71875 10.15625 
Q 24.75 6.390625 31.78125 6.390625 
Q 38.8125 6.390625 42.859375 10.171875 
Q 46.921875 13.96875 46.921875 20.515625 
Q 46.921875 27.09375 42.890625 30.859375 
Q 38.875 34.625 31.78125 34.625 
z
M 21.921875 38.8125 
Q 15.578125 40.375 12.03125 44.71875 
Q 8.5 49.078125 8.5 55.328125 
Q 8.5 64.0625 14.71875 69.140625 
Q 20.953125 74.21875 31.78125 74.21875 
Q 42.671875 74.21875 48.875 69.140625 
Q 55.078125 64.0625 55.078125 55.328125 
Q 55.078125 49.078125 51.53125 44.71875 
Q 48 40.375 41.703125 38.8125 
Q 48.828125 37.15625 52.796875 32.3125 
Q 56.78125 27.484375 56.78125 20.515625 
Q 56.78125 9.90625 50.3125 4.234375 
Q 43.84375 -1.421875 31.78125 -1.421875 
Q 19.734375 -1.421875 13.25 4.234375 
Q 6.78125 9.90625 6.78125 20.515625 
Q 6.78125 27.484375 10.78125 32.3125 
Q 14.796875 37.15625 21.921875 38.8125 
z
M 18.3125 54.390625 
Q 18.3125 48.734375 21.84375 45.5625 
Q 25.390625 42.390625 31.78125 42.390625 
Q 38.140625 42.390625 41.71875 45.5625 
Q 45.3125 48.734375 45.3125 54.390625 
Q 45.3125 60.0625 41.71875 63.234375 
Q 38.140625 66.40625 31.78125 66.40625 
Q 25.390625 66.40625 21.84375 63.234375 
Q 18.3125 60.0625 18.3125 54.390625 
z
" id="DejaVuSans-56"/>
       </defs>
       <use xlink:href="#DejaVuSans-56"/>
       <use x="63.623047" xlink:href="#DejaVuSans-48"/>
       <use x="127.246094" xlink:href="#DejaVuSans-48"/>
      </g>
     </g>
    </g>
    <g id="xtick_6">
     <g id="line2d_6">
      <g>
       <use style="stroke:#000000;stroke-width:0.8;" x="977.970248" xlink:href="#m9666391692" y="307.584"/>
      </g>
     </g>
     <g id="text_6">
      <!-- 1000 -->
      <g transform="translate(965.245248 322.182437)scale(0.1 -0.1)">
       <defs>
        <path d="M 12.40625 8.296875 
L 28.515625 8.296875 
L 28.515625 63.921875 
L 10.984375 60.40625 
L 10.984375 69.390625 
L 28.421875 72.90625 
L 38.28125 72.90625 
L 38.28125 8.296875 
L 54.390625 8.296875 
L 54.390625 0 
L 12.40625 0 
z
" id="DejaVuSans-49"/>
       </defs>
       <use xlink:href="#DejaVuSans-49"/>
       <use x="63.623047" xlink:href="#DejaVuSans-48"/>
       <use x="127.246094" xlink:href="#DejaVuSans-48"/>
       <use x="190.869141" xlink:href="#DejaVuSans-48"/>
      </g>
     </g>
    </g>
   </g>
   <g id="matplotlib.axis_2">
    <g id="ytick_1">
     <g id="line2d_7">
      <defs>
       <path d="M 0 0 
L -3.5 0 
" id="mdca6b806d5" style="stroke:#000000;stroke-width:0.8;"/>
      </defs>
      <g>
       <use style="stroke:#000000;stroke-width:0.8;" x="144" xlink:href="#mdca6b806d5" y="284.729474"/>
      </g>
     </g>
     <g id="text_7">
      <!-- −0.15 -->
      <g transform="translate(106.354687 288.528693)scale(0.1 -0.1)">
       <defs>
        <path d="M 10.59375 35.5 
L 73.1875 35.5 
L 73.1875 27.203125 
L 10.59375 27.203125 
z
" id="DejaVuSans-8722"/>
        <path d="M 10.6875 12.40625 
L 21 12.40625 
L 21 0 
L 10.6875 0 
z
" id="DejaVuSans-46"/>
        <path d="M 10.796875 72.90625 
L 49.515625 72.90625 
L 49.515625 64.59375 
L 19.828125 64.59375 
L 19.828125 46.734375 
Q 21.96875 47.46875 24.109375 47.828125 
Q 26.265625 48.1875 28.421875 48.1875 
Q 40.625 48.1875 47.75 41.5 
Q 54.890625 34.8125 54.890625 23.390625 
Q 54.890625 11.625 47.5625 5.09375 
Q 40.234375 -1.421875 26.90625 -1.421875 
Q 22.3125 -1.421875 17.546875 -0.640625 
Q 12.796875 0.140625 7.71875 1.703125 
L 7.71875 11.625 
Q 12.109375 9.234375 16.796875 8.0625 
Q 21.484375 6.890625 26.703125 6.890625 
Q 35.15625 6.890625 40.078125 11.328125 
Q 45.015625 15.765625 45.015625 23.390625 
Q 45.015625 31 40.078125 35.4375 
Q 35.15625 39.890625 26.703125 39.890625 
Q 22.75 39.890625 18.8125 39.015625 
Q 14.890625 38.140625 10.796875 36.28125 
z
" id="DejaVuSans-53"/>
       </defs>
       <use xlink:href="#DejaVuSans-8722"/>
       <use x="83.789062" xlink:href="#DejaVuSans-48"/>
       <use x="147.412109" xlink:href="#DejaVuSans-46"/>
       <use x="179.199219" xlink:href="#DejaVuSans-49"/>
       <use x="242.822266" xlink:href="#DejaVuSans-53"/>
      </g>
     </g>
    </g>
    <g id="ytick_2">
     <g id="line2d_8">
      <g>
       <use style="stroke:#000000;stroke-width:0.8;" x="144" xlink:href="#mdca6b806d5" y="244.429931"/>
      </g>
     </g>
     <g id="text_8">
      <!-- −0.10 -->
      <g transform="translate(106.354687 248.22915)scale(0.1 -0.1)">
       <use xlink:href="#DejaVuSans-8722"/>
       <use x="83.789062" xlink:href="#DejaVuSans-48"/>
       <use x="147.412109" xlink:href="#DejaVuSans-46"/>
       <use x="179.199219" xlink:href="#DejaVuSans-49"/>
       <use x="242.822266" xlink:href="#DejaVuSans-48"/>
      </g>
     </g>
    </g>
    <g id="ytick_3">
     <g id="line2d_9">
      <g>
       <use style="stroke:#000000;stroke-width:0.8;" x="144" xlink:href="#mdca6b806d5" y="204.130388"/>
      </g>
     </g>
     <g id="text_9">
      <!-- −0.05 -->
      <g transform="translate(106.354687 207.929607)scale(0.1 -0.1)">
       <use xlink:href="#DejaVuSans-8722"/>
       <use x="83.789062" xlink:href="#DejaVuSans-48"/>
       <use x="147.412109" xlink:href="#DejaVuSans-46"/>
       <use x="179.199219" xlink:href="#DejaVuSans-48"/>
       <use x="242.822266" xlink:href="#DejaVuSans-53"/>
      </g>
     </g>
    </g>
    <g id="ytick_4">
     <g id="line2d_10">
      <g>
       <use style="stroke:#000000;stroke-width:0.8;" x="144" xlink:href="#mdca6b806d5" y="163.830845"/>
      </g>
     </g>
     <g id="text_10">
      <!-- 0.00 -->
      <g transform="translate(114.734375 167.630064)scale(0.1 -0.1)">
       <use xlink:href="#DejaVuSans-48"/>
       <use x="63.623047" xlink:href="#DejaVuSans-46"/>
       <use x="95.410156" xlink:href="#DejaVuSans-48"/>
       <use x="159.033203" xlink:href="#DejaVuSans-48"/>
      </g>
     </g>
    </g>
    <g id="ytick_5">
     <g id="line2d_11">
      <g>
       <use style="stroke:#000000;stroke-width:0.8;" x="144" xlink:href="#mdca6b806d5" y="123.531302"/>
      </g>
     </g>
     <g id="text_11">
      <!-- 0.05 -->
      <g transform="translate(114.734375 127.330521)scale(0.1 -0.1)">
       <use xlink:href="#DejaVuSans-48"/>
       <use x="63.623047" xlink:href="#DejaVuSans-46"/>
       <use x="95.410156" xlink:href="#DejaVuSans-48"/>
       <use x="159.033203" xlink:href="#DejaVuSans-53"/>
      </g>
     </g>
    </g>
    <g id="ytick_6">
     <g id="line2d_12">
      <g>
       <use style="stroke:#000000;stroke-width:0.8;" x="144" xlink:href="#mdca6b806d5" y="83.231759"/>
      </g>
     </g>
     <g id="text_12">
      <!-- 0.10 -->
      <g transform="translate(114.734375 87.030978)scale(0.1 -0.1)">
       <use xlink:href="#DejaVuSans-48"/>
       <use x="63.623047" xlink:href="#DejaVuSans-46"/>
       <use x="95.410156" xlink:href="#DejaVuSans-49"/>
       <use x="159.033203" xlink:href="#DejaVuSans-48"/>
      </g>
     </g>
    </g>
    <g id="ytick_7">
     <g id="line2d_13">
      <g>
       <use style="stroke:#000000;stroke-width:0.8;" x="144" xlink:href="#mdca6b806d5" y="42.932216"/>
      </g>
     </g>
     <g id="text_13">
      <!-- 0.15 -->
      <g transform="translate(114.734375 46.731435)scale(0.1 -0.1)">
       <use xlink:href="#DejaVuSans-48"/>
       <use x="63.623047" xlink:href="#DejaVuSans-46"/>
       <use x="95.410156" xlink:href="#DejaVuSans-49"/>
       <use x="159.033203" xlink:href="#DejaVuSans-53"/>
      </g>
     </g>
    </g>
   </g>
   <g id="line2d_14">
    <path clip-path="url(#pac656cf394)" d="M 184.581818 86.348513 
L 185.375207 134.511966 
L 186.168595 135.243087 
L 186.961983 162.687524 
L 187.755372 137.999143 
L 188.54876 168.15556 
L 189.342149 188.315076 
L 190.135537 189.993456 
L 190.928926 133.336693 
L 191.722314 109.196273 
L 192.515702 210.200665 
L 193.309091 141.565532 
L 194.102479 157.336526 
L 194.895868 159.887354 
L 195.689256 167.020439 
L 196.482645 177.721377 
L 197.276033 105.652717 
L 198.069421 154.650454 
L 198.86281 131.924393 
L 199.656198 140.064179 
L 200.449587 184.911249 
L 201.242975 143.767493 
L 202.036364 229.414168 
L 202.829752 92.422317 
L 203.62314 203.703808 
L 204.416529 127.993625 
L 205.209917 171.902028 
L 206.003306 195.54052 
L 206.796694 110.111678 
L 207.590083 149.684151 
L 208.383471 132.254949 
L 209.17686 196.759171 
L 209.970248 153.693624 
L 210.763636 121.890243 
L 211.557025 158.654327 
L 212.350413 172.962592 
L 213.143802 106.458073 
L 213.93719 289.844179 
L 214.730579 121.07394 
L 215.523967 184.353007 
L 216.317355 127.98672 
L 217.110744 160.172833 
L 217.904132 96.371229 
L 218.697521 148.745207 
L 219.490909 177.983225 
L 220.284298 148.585026 
L 221.077686 184.257799 
L 221.871074 210.556146 
L 222.664463 132.470064 
L 223.457851 165.733173 
L 224.25124 174.198144 
L 225.044628 153.964583 
L 225.838017 195.033684 
L 226.631405 151.048858 
L 227.424793 167.562452 
L 228.218182 169.335552 
L 229.01157 187.33662 
L 229.804959 238.18422 
L 230.598347 166.91754 
L 231.391736 181.022449 
L 232.185124 201.954531 
L 232.978512 143.577609 
L 233.771901 160.101965 
L 234.565289 142.386311 
L 235.358678 215.974971 
L 236.152066 194.198056 
L 236.945455 198.273972 
L 237.738843 120.071791 
L 238.532231 182.076507 
L 239.32562 203.301436 
L 240.119008 129.981515 
L 241.705785 177.040047 
L 242.499174 161.399195 
L 243.292562 201.924133 
L 244.08595 120.723773 
L 244.879339 193.117916 
L 245.672727 157.957389 
L 246.466116 164.212505 
L 247.259504 143.206543 
L 248.052893 153.903319 
L 248.846281 255.052918 
L 249.639669 143.59926 
L 250.433058 111.021703 
L 251.226446 176.073027 
L 252.019835 122.16948 
L 252.813223 174.701598 
L 253.606612 178.487134 
L 255.193388 135.838544 
L 255.986777 234.34253 
L 256.780165 154.258727 
L 257.573554 140.039794 
L 258.366942 139.653304 
L 259.160331 157.010695 
L 259.953719 152.674544 
L 260.747107 155.296572 
L 261.540496 115.269666 
L 262.333884 193.906682 
L 263.127273 101.432453 
L 263.920661 166.782594 
L 264.71405 190.196888 
L 265.507438 111.662705 
L 266.300826 161.563893 
L 267.094215 201.995345 
L 267.887603 136.855895 
L 268.680992 190.117185 
L 269.47438 146.394867 
L 270.267769 137.411982 
L 271.061157 157.247168 
L 271.854545 140.091614 
L 272.647934 139.81452 
L 273.441322 202.373366 
L 274.234711 159.256626 
L 275.028099 182.414034 
L 275.821488 146.041608 
L 276.614876 169.772959 
L 277.408264 131.261147 
L 278.201653 138.611579 
L 278.995041 139.363997 
L 279.78843 165.582421 
L 280.581818 140.91051 
L 281.375207 174.336499 
L 282.168595 200.396253 
L 282.961983 180.349644 
L 283.755372 146.733858 
L 284.54876 184.027832 
L 285.342149 159.68539 
L 286.135537 159.649518 
L 286.928926 193.053658 
L 287.722314 192.4878 
L 288.515702 112.833129 
L 289.309091 97.355068 
L 290.102479 158.165346 
L 290.895868 169.098345 
L 291.689256 200.972007 
L 292.482645 178.176771 
L 293.276033 206.288922 
L 294.069421 170.836041 
L 294.86281 268.198833 
L 295.656198 189.737747 
L 296.449587 136.787181 
L 297.242975 187.262751 
L 298.036364 86.116458 
L 298.829752 178.308821 
L 299.62314 151.162954 
L 300.416529 197.158213 
L 301.209917 144.434655 
L 302.003306 139.601444 
L 302.796694 117.004149 
L 303.590083 167.432281 
L 304.383471 147.004889 
L 305.17686 201.864133 
L 305.970248 151.466521 
L 306.763636 155.250685 
L 307.557025 197.583494 
L 308.350413 185.120694 
L 309.143802 117.097101 
L 309.93719 137.909772 
L 310.730579 200.980966 
L 311.523967 231.115443 
L 312.317355 150.060799 
L 313.110744 197.911303 
L 313.904132 184.05645 
L 314.697521 160.159341 
L 315.490909 187.305362 
L 316.284298 196.111332 
L 317.077686 162.961422 
L 317.871074 135.947074 
L 318.664463 192.068819 
L 319.457851 170.827976 
L 320.25124 226.171883 
L 321.044628 170.901937 
L 321.838017 164.831957 
L 322.631405 203.841541 
L 323.424793 133.858461 
L 324.218182 152.86523 
L 325.01157 117.695179 
L 325.804959 159.337576 
L 326.598347 139.800338 
L 327.391736 247.710735 
L 328.185124 151.903427 
L 328.978512 173.403181 
L 329.771901 177.725219 
L 330.565289 139.242514 
L 331.358678 223.197209 
L 332.152066 146.99822 
L 332.945455 194.003584 
L 333.738843 198.651273 
L 334.532231 144.456134 
L 335.32562 203.72061 
L 336.119008 148.366963 
L 336.912397 135.987605 
L 337.705785 198.798125 
L 338.499174 112.795892 
L 339.292562 200.466029 
L 340.08595 141.252769 
L 340.879339 172.009321 
L 341.672727 159.839473 
L 342.466116 130.573194 
L 343.259504 161.355238 
L 344.052893 163.79712 
L 344.846281 229.596591 
L 345.639669 190.359842 
L 346.433058 181.474288 
L 347.226446 194.917503 
L 348.019835 148.009602 
L 348.813223 182.348569 
L 349.606612 199.874034 
L 350.4 205.592598 
L 351.193388 116.374466 
L 351.986777 147.044489 
L 352.780165 95.698844 
L 353.573554 186.943199 
L 354.366942 181.957397 
L 355.160331 168.863806 
L 355.953719 163.667067 
L 356.747107 212.548638 
L 357.540496 181.084059 
L 358.333884 125.730522 
L 359.127273 224.278331 
L 359.920661 143.116009 
L 360.71405 196.632535 
L 361.507438 53.568 
L 362.300826 138.990392 
L 363.094215 172.740252 
L 363.887603 199.903357 
L 364.680992 211.549978 
L 365.47438 161.656365 
L 366.267769 133.857128 
L 367.061157 152.499806 
L 367.854545 181.083831 
L 368.647934 146.282582 
L 369.441322 155.485454 
L 370.234711 188.807225 
L 371.028099 197.021675 
L 371.821488 140.627425 
L 372.614876 184.582794 
L 373.408264 187.807813 
L 374.201653 183.572659 
L 374.995041 183.291558 
L 375.78843 182.124836 
L 376.581818 176.017373 
L 377.375207 198.670922 
L 378.168595 145.020849 
L 378.961983 137.679044 
L 379.755372 235.92757 
L 380.54876 144.732532 
L 381.342149 178.168907 
L 382.135537 203.237989 
L 382.928926 106.042094 
L 383.722314 157.203568 
L 384.515702 182.142428 
L 385.309091 213.383849 
L 386.102479 144.819627 
L 386.895868 132.648671 
L 387.689256 195.163649 
L 388.482645 178.439554 
L 389.276033 181.738868 
L 390.069421 197.736666 
L 390.86281 151.817816 
L 391.656198 154.157256 
L 392.449587 147.30612 
L 393.242975 146.17864 
L 394.036364 172.18697 
L 394.829752 226.542896 
L 395.62314 155.413293 
L 396.416529 122.281661 
L 397.209917 99.583027 
L 398.003306 125.021008 
L 398.796694 175.402108 
L 399.590083 196.164939 
L 400.383471 168.886103 
L 401.17686 225.909238 
L 401.970248 147.817985 
L 402.763636 154.261349 
L 403.557025 182.18542 
L 404.350413 158.10199 
L 405.143802 197.410637 
L 405.93719 140.756507 
L 406.730579 166.403709 
L 407.523967 166.577253 
L 408.317355 203.574092 
L 409.110744 162.079906 
L 409.904132 157.751566 
L 410.697521 178.83836 
L 411.490909 171.399746 
L 412.284298 146.643562 
L 413.077686 198.339572 
L 413.871074 217.793688 
L 414.664463 184.360543 
L 415.457851 116.174508 
L 416.25124 160.843257 
L 417.044628 119.210725 
L 417.838017 133.329124 
L 418.631405 163.716473 
L 419.424793 172.583926 
L 420.218182 150.370485 
L 421.01157 182.502759 
L 421.804959 122.682298 
L 422.598347 136.804107 
L 423.391736 131.830962 
L 424.185124 171.539391 
L 425.771901 221.640465 
L 426.565289 198.82434 
L 427.358678 204.692502 
L 428.152066 179.581413 
L 428.945455 181.635887 
L 429.738843 147.421117 
L 430.532231 137.242524 
L 431.32562 174.316663 
L 432.119008 220.205828 
L 432.912397 219.326952 
L 433.705785 163.066327 
L 434.499174 193.13824 
L 435.292562 174.148984 
L 436.08595 131.371011 
L 436.879339 197.537657 
L 437.672727 132.917198 
L 438.466116 170.161321 
L 439.259504 124.853451 
L 440.052893 207.518956 
L 440.846281 111.463006 
L 441.639669 144.313567 
L 442.433058 162.176085 
L 443.226446 150.741408 
L 444.019835 132.91252 
L 444.813223 193.399158 
L 445.606612 175.77956 
L 446.4 143.445049 
L 447.193388 161.840572 
L 447.986777 227.270324 
L 448.780165 136.857243 
L 449.573554 156.887347 
L 450.366942 171.397725 
L 451.160331 149.592778 
L 451.953719 160.423598 
L 452.747107 167.020573 
L 453.540496 201.237777 
L 454.333884 136.541158 
L 455.127273 158.338727 
L 455.920661 134.519761 
L 456.71405 140.643727 
L 457.507438 163.970068 
L 458.300826 120.539528 
L 459.094215 127.662735 
L 459.887603 141.225292 
L 460.680992 159.651123 
L 461.47438 235.674257 
L 462.267769 154.896849 
L 463.061157 160.400504 
L 463.854545 180.17162 
L 464.647934 114.007276 
L 465.441322 139.929227 
L 466.234711 213.03491 
L 467.028099 129.539107 
L 467.821488 181.532158 
L 468.614876 165.180097 
L 469.408264 77.521208 
L 470.201653 163.039279 
L 470.995041 172.511406 
L 471.78843 110.644396 
L 472.581818 116.898552 
L 473.375207 191.981312 
L 474.168595 208.312151 
L 474.961983 154.37662 
L 475.755372 126.32942 
L 476.54876 88.399615 
L 477.342149 137.003944 
L 478.135537 156.244716 
L 478.928926 200.951926 
L 479.722314 223.546429 
L 480.515702 173.400207 
L 481.309091 145.479112 
L 482.102479 177.784393 
L 482.895868 134.194465 
L 483.689256 150.690319 
L 484.482645 109.133543 
L 485.276033 162.705681 
L 486.069421 202.839911 
L 486.86281 162.37707 
L 487.656198 89.784679 
L 488.449587 186.950535 
L 489.242975 97.329192 
L 490.036364 175.643706 
L 490.829752 142.928121 
L 491.62314 237.520507 
L 492.416529 186.773188 
L 493.209917 201.222317 
L 494.003306 91.130164 
L 494.796694 201.23176 
L 496.383471 221.145326 
L 497.17686 111.128516 
L 497.970248 157.369343 
L 498.763636 215.141529 
L 499.557025 174.625249 
L 500.350413 108.449965 
L 501.143802 156.84714 
L 501.93719 192.795529 
L 502.730579 195.951641 
L 503.523967 147.661793 
L 504.317355 159.647519 
L 505.110744 180.686653 
L 505.904132 142.276653 
L 506.697521 191.559511 
L 507.490909 117.610507 
L 508.284298 213.057886 
L 509.077686 158.393624 
L 509.871074 126.590774 
L 510.664463 193.777288 
L 511.457851 123.824191 
L 512.25124 196.598745 
L 513.044628 153.078438 
L 513.838017 227.026607 
L 514.631405 186.104322 
L 515.424793 134.562379 
L 516.218182 190.927123 
L 517.01157 91.597655 
L 517.804959 165.04516 
L 518.598347 214.706754 
L 519.391736 170.537192 
L 520.185124 161.199044 
L 520.978512 108.212751 
L 521.771901 147.892052 
L 522.565289 159.542703 
L 523.358678 131.294965 
L 524.152066 160.020833 
L 524.945455 207.291918 
L 525.738843 182.052332 
L 526.532231 108.648584 
L 527.32562 137.913864 
L 528.119008 144.834689 
L 528.912397 217.853697 
L 529.705785 139.049155 
L 530.499174 194.886529 
L 531.292562 110.442379 
L 532.08595 183.539493 
L 532.879339 141.317417 
L 533.672727 141.873816 
L 534.466116 177.794148 
L 535.259504 189.646397 
L 536.052893 152.04982 
L 536.846281 107.655004 
L 537.639669 132.916417 
L 538.433058 209.478861 
L 539.226446 177.220868 
L 540.019835 168.563119 
L 540.813223 210.742484 
L 541.606612 168.952569 
L 542.4 144.254939 
L 543.193388 169.708855 
L 543.986777 181.654006 
L 544.780165 112.762047 
L 545.573554 163.783242 
L 546.366942 194.507063 
L 547.160331 145.937502 
L 547.953719 58.135179 
L 548.747107 175.281165 
L 549.540496 222.382202 
L 550.333884 216.081856 
L 551.127273 82.829416 
L 551.920661 177.247124 
L 552.71405 173.936085 
L 553.507438 128.673649 
L 554.300826 194.389405 
L 555.094215 168.664993 
L 555.887603 121.350481 
L 556.680992 132.586035 
L 557.47438 147.684027 
L 558.267769 227.127252 
L 559.061157 215.649609 
L 559.854545 171.83286 
L 560.647934 145.667954 
L 561.441322 178.142276 
L 562.234711 94.487423 
L 563.028099 151.713702 
L 563.821488 295.488 
L 564.614876 112.009224 
L 565.408264 154.611583 
L 566.201653 172.890779 
L 566.995041 194.185517 
L 567.78843 202.065298 
L 568.581818 182.687749 
L 569.375207 148.259326 
L 570.168595 127.020271 
L 570.961983 186.302972 
L 571.755372 137.302467 
L 572.54876 146.946892 
L 573.342149 158.083435 
L 574.135537 202.492105 
L 574.928926 125.08459 
L 575.722314 168.653568 
L 576.515702 135.043553 
L 577.309091 145.584391 
L 578.102479 179.299869 
L 578.895868 179.867073 
L 579.689256 124.083264 
L 580.482645 124.043396 
L 581.276033 211.117034 
L 582.069421 138.965784 
L 582.86281 130.451462 
L 583.656198 192.672244 
L 584.449587 187.882552 
L 585.242975 191.136731 
L 586.036364 114.797457 
L 586.829752 102.473816 
L 587.62314 117.654999 
L 588.416529 144.759983 
L 589.209917 208.538805 
L 590.003306 194.142749 
L 590.796694 147.921615 
L 591.590083 167.620703 
L 592.383471 178.854057 
L 593.17686 127.948527 
L 593.970248 158.033518 
L 594.763636 156.710608 
L 595.557025 175.609222 
L 596.350413 187.657229 
L 597.143802 165.653964 
L 597.93719 194.962892 
L 598.730579 149.550613 
L 599.523967 227.441883 
L 600.317355 156.049858 
L 601.110744 122.332753 
L 601.904132 131.589975 
L 602.697521 108.933303 
L 605.077686 196.657219 
L 605.871074 144.905408 
L 606.664463 209.608535 
L 607.457851 74.729413 
L 608.25124 153.806245 
L 609.044628 156.456505 
L 609.838017 171.109375 
L 610.631405 147.409014 
L 611.424793 197.770919 
L 612.218182 177.256983 
L 613.01157 192.595418 
L 613.804959 141.900143 
L 614.598347 138.552519 
L 615.391736 148.102801 
L 616.185124 188.957642 
L 616.978512 178.494955 
L 617.771901 130.659965 
L 618.565289 124.902371 
L 619.358678 147.454722 
L 620.945455 204.714616 
L 621.738843 127.888524 
L 622.532231 178.114171 
L 623.32562 113.419287 
L 624.119008 208.91558 
L 624.912397 87.801471 
L 625.705785 163.472646 
L 626.499174 186.933058 
L 627.292562 128.224275 
L 628.08595 194.905628 
L 628.879339 184.122271 
L 629.672727 168.454852 
L 630.466116 198.361965 
L 631.259504 164.591776 
L 632.052893 124.412217 
L 632.846281 148.192069 
L 633.639669 139.863285 
L 634.433058 155.239344 
L 635.226446 138.669304 
L 636.813223 148.898058 
L 637.606612 159.836439 
L 638.4 151.999237 
L 639.193388 133.391604 
L 639.986777 162.679931 
L 640.780165 160.275259 
L 641.573554 147.691071 
L 642.366942 144.742657 
L 643.160331 108.308827 
L 643.953719 161.978329 
L 644.747107 171.420634 
L 645.540496 154.128592 
L 646.333884 177.348187 
L 647.127273 178.338941 
L 647.920661 166.637136 
L 648.71405 240.05882 
L 649.507438 170.449218 
L 650.300826 138.361382 
L 651.094215 134.230912 
L 651.887603 154.081896 
L 652.680992 121.366211 
L 653.47438 151.437033 
L 654.267769 150.251858 
L 655.854545 205.323728 
L 656.647934 140.92839 
L 657.441322 182.512987 
L 658.234711 204.20236 
L 659.028099 208.406897 
L 659.821488 171.693212 
L 660.614876 227.615473 
L 661.408264 115.695535 
L 662.201653 195.7663 
L 662.995041 110.559172 
L 663.78843 205.838966 
L 664.581818 240.041508 
L 665.375207 206.803811 
L 666.168595 143.030571 
L 666.961983 155.496202 
L 667.755372 131.609494 
L 668.54876 194.058566 
L 669.342149 180.214827 
L 670.135537 158.72704 
L 670.928926 155.568373 
L 671.722314 242.605223 
L 672.515702 119.868221 
L 673.309091 132.59754 
L 674.102479 118.530131 
L 674.895868 143.248328 
L 675.689256 120.44574 
L 676.482645 211.741012 
L 677.276033 133.641089 
L 678.069421 161.362532 
L 678.86281 169.760904 
L 679.656198 173.274345 
L 680.449587 173.718589 
L 681.242975 129.433519 
L 682.036364 195.343994 
L 682.829752 166.818047 
L 683.62314 165.615661 
L 684.416529 184.838922 
L 685.209917 144.961546 
L 686.003306 215.497169 
L 686.796694 175.583565 
L 687.590083 179.366157 
L 688.383471 182.563471 
L 689.17686 182.071581 
L 689.970248 186.504768 
L 690.763636 137.877876 
L 691.557025 185.801937 
L 692.350413 175.818017 
L 693.143802 208.8196 
L 693.93719 181.842497 
L 694.730579 235.811371 
L 695.523967 132.998306 
L 697.110744 138.81963 
L 697.904132 112.517141 
L 698.697521 148.113435 
L 699.490909 203.281724 
L 700.284298 140.629665 
L 701.077686 200.40617 
L 701.871074 167.370121 
L 702.664463 113.741491 
L 703.457851 118.753815 
L 704.25124 150.652235 
L 705.044628 135.755361 
L 705.838017 97.54295 
L 706.631405 202.103692 
L 707.424793 125.381965 
L 708.218182 180.301081 
L 709.01157 164.051616 
L 709.804959 206.319917 
L 710.598347 182.046637 
L 711.391736 177.638196 
L 712.185124 156.114483 
L 712.978512 173.809543 
L 713.771901 156.891036 
L 714.565289 185.101113 
L 715.358678 150.943628 
L 716.152066 170.101741 
L 716.945455 229.740702 
L 717.738843 232.571284 
L 718.532231 191.497701 
L 719.32562 189.103599 
L 720.119008 125.15436 
L 720.912397 199.203661 
L 721.705785 182.939485 
L 722.499174 144.942026 
L 723.292562 180.443471 
L 724.08595 174.414472 
L 724.879339 178.555852 
L 725.672727 143.921132 
L 726.466116 138.806147 
L 727.259504 219.726873 
L 728.052893 244.842633 
L 728.846281 156.599465 
L 729.639669 129.705145 
L 730.433058 156.73391 
L 731.226446 160.056945 
L 732.019835 147.43574 
L 732.813223 164.873425 
L 733.606612 84.80032 
L 734.4 111.73416 
L 735.193388 125.493789 
L 735.986777 131.34648 
L 736.780165 131.262571 
L 737.573554 208.78293 
L 738.366942 97.551856 
L 739.160331 139.014513 
L 739.953719 174.401735 
L 740.747107 198.639479 
L 741.540496 137.263944 
L 742.333884 129.477248 
L 743.127273 147.625169 
L 743.920661 159.231007 
L 744.71405 179.097689 
L 745.507438 166.562955 
L 746.300826 126.319196 
L 747.094215 145.245958 
L 747.887603 180.137783 
L 748.680992 159.960406 
L 749.47438 214.559953 
L 750.267769 164.943392 
L 751.061157 150.40385 
L 751.854545 201.131523 
L 752.647934 185.356354 
L 753.441322 198.961953 
L 754.234711 142.190396 
L 755.028099 184.894505 
L 755.821488 93.366355 
L 756.614876 116.92117 
L 757.408264 171.436321 
L 758.201653 162.960447 
L 758.995041 161.923527 
L 759.78843 178.938354 
L 760.581818 174.928107 
L 761.375207 197.806794 
L 762.961983 113.072523 
L 763.755372 162.137759 
L 764.54876 125.0323 
L 765.342149 151.138789 
L 766.135537 137.455021 
L 766.928926 174.895757 
L 767.722314 142.233769 
L 768.515702 185.645983 
L 769.309091 164.39309 
L 770.102479 219.637614 
L 770.895868 142.622978 
L 771.689256 116.002213 
L 772.482645 210.705802 
L 773.276033 197.181405 
L 774.069421 129.4425 
L 774.86281 166.507203 
L 775.656198 197.723263 
L 776.449587 208.442345 
L 778.829752 84.483065 
L 779.62314 144.668821 
L 780.416529 139.213467 
L 781.209917 154.311491 
L 782.003306 153.28532 
L 782.796694 120.922509 
L 783.590083 138.476395 
L 784.383471 98.038497 
L 785.17686 126.056125 
L 785.970248 198.087028 
L 786.763636 140.783668 
L 787.557025 149.065201 
L 788.350413 160.40777 
L 789.143802 157.722028 
L 789.93719 142.583203 
L 791.523967 183.845614 
L 792.317355 150.416228 
L 793.110744 152.281115 
L 794.697521 128.440981 
L 795.490909 222.913119 
L 796.284298 158.40225 
L 797.077686 187.028909 
L 797.871074 128.51422 
L 798.664463 154.7363 
L 799.457851 151.651103 
L 800.25124 142.394757 
L 801.044628 153.579827 
L 801.838017 219.794467 
L 802.631405 138.00888 
L 803.424793 168.54714 
L 804.218182 145.020383 
L 805.01157 196.642477 
L 805.804959 162.982906 
L 806.598347 153.238874 
L 807.391736 189.645686 
L 808.185124 162.017663 
L 808.978512 182.379871 
L 809.771901 121.079119 
L 810.565289 177.38258 
L 811.358678 168.796277 
L 812.152066 228.982942 
L 812.945455 213.722632 
L 813.738843 155.408032 
L 814.532231 185.362871 
L 815.32562 170.408528 
L 816.119008 116.023134 
L 816.912397 195.131678 
L 817.705785 186.351815 
L 818.499174 210.424319 
L 819.292562 193.743299 
L 820.08595 136.20569 
L 820.879339 163.101458 
L 821.672727 202.593023 
L 822.466116 202.515798 
L 823.259504 183.089905 
L 824.052893 167.578927 
L 824.846281 160.966621 
L 825.639669 162.591449 
L 826.433058 130.682205 
L 827.226446 107.053599 
L 828.019835 177.43572 
L 828.813223 145.67675 
L 829.606612 176.6541 
L 830.4 144.23227 
L 831.193388 138.646008 
L 831.986777 216.902897 
L 832.780165 128.236264 
L 833.573554 177.657633 
L 834.366942 175.432415 
L 835.160331 192.278982 
L 835.953719 106.232426 
L 836.747107 193.889118 
L 837.540496 201.56922 
L 838.333884 178.572205 
L 839.127273 98.899982 
L 839.920661 124.49107 
L 840.71405 170.956715 
L 841.507438 194.875617 
L 842.300826 159.883825 
L 843.094215 149.14512 
L 843.887603 159.303349 
L 844.680992 226.949237 
L 845.47438 148.418492 
L 846.267769 174.718774 
L 847.061157 123.421526 
L 847.854545 172.849783 
L 848.647934 170.016873 
L 849.441322 149.732901 
L 850.234711 118.515944 
L 851.028099 222.945643 
L 851.821488 114.857599 
L 852.614876 172.671111 
L 853.408264 172.087673 
L 854.201653 120.134766 
L 854.995041 212.263876 
L 855.78843 145.285914 
L 857.375207 253.729334 
L 858.168595 196.818252 
L 858.961983 178.764403 
L 859.755372 177.21647 
L 860.54876 158.624132 
L 862.135537 236.846254 
L 862.928926 93.651855 
L 863.722314 133.209175 
L 864.515702 130.913605 
L 865.309091 199.082709 
L 866.102479 208.551842 
L 866.895868 111.002234 
L 867.689256 213.036616 
L 868.482645 267.657929 
L 869.276033 188.460121 
L 870.069421 159.247834 
L 870.86281 180.403749 
L 871.656198 128.856636 
L 872.449587 121.759671 
L 873.242975 162.023346 
L 874.036364 150.456395 
L 874.829752 162.31051 
L 875.62314 224.91134 
L 876.416529 177.895924 
L 877.209917 149.690632 
L 878.003306 197.261636 
L 878.796694 130.268603 
L 879.590083 208.216499 
L 880.383471 135.095193 
L 881.17686 150.022974 
L 881.970248 104.72305 
L 882.763636 159.455365 
L 883.557025 86.556392 
L 885.143802 144.879026 
L 885.93719 133.098993 
L 886.730579 179.629061 
L 887.523967 144.325027 
L 888.317355 141.045623 
L 889.110744 99.203678 
L 889.904132 225.08944 
L 890.697521 221.712544 
L 891.490909 135.766927 
L 892.284298 114.407381 
L 893.077686 125.754107 
L 893.871074 93.404644 
L 894.664463 230.125052 
L 895.457851 164.929862 
L 896.25124 173.41182 
L 897.044628 171.424808 
L 898.631405 139.379287 
L 899.424793 175.117535 
L 900.218182 101.897002 
L 901.01157 198.439284 
L 901.804959 127.252863 
L 902.598347 148.63075 
L 903.391736 159.793747 
L 904.185124 140.090423 
L 904.978512 180.976122 
L 905.771901 156.070867 
L 906.565289 165.931466 
L 907.358678 159.301463 
L 908.152066 157.087105 
L 908.945455 139.853376 
L 909.738843 149.656591 
L 910.532231 182.306097 
L 911.32562 198.776698 
L 912.119008 181.159256 
L 912.912397 204.548719 
L 913.705785 134.139914 
L 914.499174 107.062949 
L 915.292562 105.165698 
L 916.08595 118.495641 
L 916.879339 219.806333 
L 917.672727 174.396602 
L 918.466116 159.641961 
L 919.259504 168.188515 
L 920.052893 133.664487 
L 920.846281 168.705168 
L 921.639669 222.618305 
L 922.433058 139.582641 
L 923.226446 149.318549 
L 924.019835 138.051468 
L 924.813223 133.477603 
L 925.606612 155.692853 
L 926.4 194.60198 
L 927.193388 138.009198 
L 927.986777 145.536466 
L 928.780165 203.247582 
L 929.573554 138.728702 
L 930.366942 204.049822 
L 931.160331 182.703945 
L 931.953719 172.119968 
L 932.747107 118.764586 
L 933.540496 191.380475 
L 934.333884 137.508826 
L 935.127273 151.89653 
L 935.920661 139.040898 
L 936.71405 177.449143 
L 937.507438 137.076336 
L 938.300826 169.929088 
L 939.094215 183.314447 
L 939.887603 178.455445 
L 940.680992 143.959833 
L 941.47438 211.115152 
L 942.267769 133.225118 
L 943.061157 76.037456 
L 943.854545 204.570076 
L 944.647934 168.23239 
L 945.441322 161.801067 
L 946.234711 171.141269 
L 947.028099 131.774878 
L 947.821488 200.715283 
L 948.614876 115.06306 
L 949.408264 96.914456 
L 950.995041 183.525413 
L 951.78843 101.459536 
L 952.581818 150.954514 
L 953.375207 151.946943 
L 954.168595 188.488402 
L 954.961983 197.095658 
L 955.755372 129.079278 
L 956.54876 148.923679 
L 957.342149 200.85873 
L 958.135537 195.242868 
L 958.928926 192.647542 
L 959.722314 162.642253 
L 960.515702 168.111235 
L 961.309091 199.992221 
L 962.102479 219.111231 
L 962.895868 131.195052 
L 963.689256 210.447274 
L 964.482645 125.748817 
L 965.276033 123.26194 
L 966.069421 157.087746 
L 967.656198 185.689768 
L 968.449587 147.571851 
L 969.242975 182.856604 
L 970.036364 131.583267 
L 970.829752 255.321755 
L 971.62314 139.877777 
L 972.416529 202.024674 
L 973.209917 119.830527 
L 974.003306 157.546005 
L 975.590083 141.642848 
L 976.383471 222.366199 
L 977.17686 110.269372 
L 977.970248 148.148724 
L 978.763636 139.440011 
L 979.557025 183.076267 
L 980.350413 179.840042 
L 981.143802 193.116357 
L 981.93719 123.127729 
L 982.730579 175.580853 
L 983.523967 115.223534 
L 984.317355 139.849213 
L 985.110744 181.512054 
L 985.904132 175.107025 
L 986.697521 154.906537 
L 987.490909 210.141095 
L 988.284298 81.398743 
L 989.077686 165.98429 
L 989.871074 229.511673 
L 990.664463 197.267091 
L 992.25124 158.625635 
L 993.044628 203.160872 
L 993.838017 150.606944 
L 994.631405 220.535556 
L 995.424793 129.095315 
L 996.218182 148.101926 
L 996.218182 148.101926 
" style="fill:none;stroke:#1f77b4;stroke-linecap:square;stroke-width:1.5;"/>
   </g>
   <g id="patch_3">
    <path d="M 144 307.584 
L 144 41.472 
" style="fill:none;stroke:#000000;stroke-linecap:square;stroke-linejoin:miter;stroke-width:0.8;"/>
   </g>
   <g id="patch_4">
    <path d="M 1036.8 307.584 
L 1036.8 41.472 
" style="fill:none;stroke:#000000;stroke-linecap:square;stroke-linejoin:miter;stroke-width:0.8;"/>
   </g>
   <g id="patch_5">
    <path d="M 144 307.584 
L 1036.8 307.584 
" style="fill:none;stroke:#000000;stroke-linecap:square;stroke-linejoin:miter;stroke-width:0.8;"/>
   </g>
   <g id="patch_6">
    <path d="M 144 41.472 
L 1036.8 41.472 
" style="fill:none;stroke:#000000;stroke-linecap:square;stroke-linejoin:miter;stroke-width:0.8;"/>
   </g>
   <g id="text_14">
    <!-- Transpose of the compressed signal -->
    <g transform="translate(482.84625 35.472)scale(0.12 -0.12)">
     <defs>
      <path d="M -0.296875 72.90625 
L 61.375 72.90625 
L 61.375 64.59375 
L 35.5 64.59375 
L 35.5 0 
L 25.59375 0 
L 25.59375 64.59375 
L -0.296875 64.59375 
z
" id="DejaVuSans-84"/>
      <path d="M 41.109375 46.296875 
Q 39.59375 47.171875 37.8125 47.578125 
Q 36.03125 48 33.890625 48 
Q 26.265625 48 22.1875 43.046875 
Q 18.109375 38.09375 18.109375 28.8125 
L 18.109375 0 
L 9.078125 0 
L 9.078125 54.6875 
L 18.109375 54.6875 
L 18.109375 46.1875 
Q 20.953125 51.171875 25.484375 53.578125 
Q 30.03125 56 36.53125 56 
Q 37.453125 56 38.578125 55.875 
Q 39.703125 55.765625 41.0625 55.515625 
z
" id="DejaVuSans-114"/>
      <path d="M 34.28125 27.484375 
Q 23.390625 27.484375 19.1875 25 
Q 14.984375 22.515625 14.984375 16.5 
Q 14.984375 11.71875 18.140625 8.90625 
Q 21.296875 6.109375 26.703125 6.109375 
Q 34.1875 6.109375 38.703125 11.40625 
Q 43.21875 16.703125 43.21875 25.484375 
L 43.21875 27.484375 
z
M 52.203125 31.203125 
L 52.203125 0 
L 43.21875 0 
L 43.21875 8.296875 
Q 40.140625 3.328125 35.546875 0.953125 
Q 30.953125 -1.421875 24.3125 -1.421875 
Q 15.921875 -1.421875 10.953125 3.296875 
Q 6 8.015625 6 15.921875 
Q 6 25.140625 12.171875 29.828125 
Q 18.359375 34.515625 30.609375 34.515625 
L 43.21875 34.515625 
L 43.21875 35.40625 
Q 43.21875 41.609375 39.140625 45 
Q 35.0625 48.390625 27.6875 48.390625 
Q 23 48.390625 18.546875 47.265625 
Q 14.109375 46.140625 10.015625 43.890625 
L 10.015625 52.203125 
Q 14.9375 54.109375 19.578125 55.046875 
Q 24.21875 56 28.609375 56 
Q 40.484375 56 46.34375 49.84375 
Q 52.203125 43.703125 52.203125 31.203125 
z
" id="DejaVuSans-97"/>
      <path d="M 54.890625 33.015625 
L 54.890625 0 
L 45.90625 0 
L 45.90625 32.71875 
Q 45.90625 40.484375 42.875 44.328125 
Q 39.84375 48.1875 33.796875 48.1875 
Q 26.515625 48.1875 22.3125 43.546875 
Q 18.109375 38.921875 18.109375 30.90625 
L 18.109375 0 
L 9.078125 0 
L 9.078125 54.6875 
L 18.109375 54.6875 
L 18.109375 46.1875 
Q 21.34375 51.125 25.703125 53.5625 
Q 30.078125 56 35.796875 56 
Q 45.21875 56 50.046875 50.171875 
Q 54.890625 44.34375 54.890625 33.015625 
z
" id="DejaVuSans-110"/>
      <path d="M 44.28125 53.078125 
L 44.28125 44.578125 
Q 40.484375 46.53125 36.375 47.5 
Q 32.28125 48.484375 27.875 48.484375 
Q 21.1875 48.484375 17.84375 46.4375 
Q 14.5 44.390625 14.5 40.28125 
Q 14.5 37.15625 16.890625 35.375 
Q 19.28125 33.59375 26.515625 31.984375 
L 29.59375 31.296875 
Q 39.15625 29.25 43.1875 25.515625 
Q 47.21875 21.78125 47.21875 15.09375 
Q 47.21875 7.46875 41.1875 3.015625 
Q 35.15625 -1.421875 24.609375 -1.421875 
Q 20.21875 -1.421875 15.453125 -0.5625 
Q 10.6875 0.296875 5.421875 2 
L 5.421875 11.28125 
Q 10.40625 8.6875 15.234375 7.390625 
Q 20.0625 6.109375 24.8125 6.109375 
Q 31.15625 6.109375 34.5625 8.28125 
Q 37.984375 10.453125 37.984375 14.40625 
Q 37.984375 18.0625 35.515625 20.015625 
Q 33.0625 21.96875 24.703125 23.78125 
L 21.578125 24.515625 
Q 13.234375 26.265625 9.515625 29.90625 
Q 5.8125 33.546875 5.8125 39.890625 
Q 5.8125 47.609375 11.28125 51.796875 
Q 16.75 56 26.8125 56 
Q 31.78125 56 36.171875 55.265625 
Q 40.578125 54.546875 44.28125 53.078125 
z
" id="DejaVuSans-115"/>
      <path d="M 18.109375 8.203125 
L 18.109375 -20.796875 
L 9.078125 -20.796875 
L 9.078125 54.6875 
L 18.109375 54.6875 
L 18.109375 46.390625 
Q 20.953125 51.265625 25.265625 53.625 
Q 29.59375 56 35.59375 56 
Q 45.5625 56 51.78125 48.09375 
Q 58.015625 40.1875 58.015625 27.296875 
Q 58.015625 14.40625 51.78125 6.484375 
Q 45.5625 -1.421875 35.59375 -1.421875 
Q 29.59375 -1.421875 25.265625 0.953125 
Q 20.953125 3.328125 18.109375 8.203125 
z
M 48.6875 27.296875 
Q 48.6875 37.203125 44.609375 42.84375 
Q 40.53125 48.484375 33.40625 48.484375 
Q 26.265625 48.484375 22.1875 42.84375 
Q 18.109375 37.203125 18.109375 27.296875 
Q 18.109375 17.390625 22.1875 11.75 
Q 26.265625 6.109375 33.40625 6.109375 
Q 40.53125 6.109375 44.609375 11.75 
Q 48.6875 17.390625 48.6875 27.296875 
z
" id="DejaVuSans-112"/>
      <path d="M 30.609375 48.390625 
Q 23.390625 48.390625 19.1875 42.75 
Q 14.984375 37.109375 14.984375 27.296875 
Q 14.984375 17.484375 19.15625 11.84375 
Q 23.34375 6.203125 30.609375 6.203125 
Q 37.796875 6.203125 41.984375 11.859375 
Q 46.1875 17.53125 46.1875 27.296875 
Q 46.1875 37.015625 41.984375 42.703125 
Q 37.796875 48.390625 30.609375 48.390625 
z
M 30.609375 56 
Q 42.328125 56 49.015625 48.375 
Q 55.71875 40.765625 55.71875 27.296875 
Q 55.71875 13.875 49.015625 6.21875 
Q 42.328125 -1.421875 30.609375 -1.421875 
Q 18.84375 -1.421875 12.171875 6.21875 
Q 5.515625 13.875 5.515625 27.296875 
Q 5.515625 40.765625 12.171875 48.375 
Q 18.84375 56 30.609375 56 
z
" id="DejaVuSans-111"/>
      <path d="M 56.203125 29.59375 
L 56.203125 25.203125 
L 14.890625 25.203125 
Q 15.484375 15.921875 20.484375 11.0625 
Q 25.484375 6.203125 34.421875 6.203125 
Q 39.59375 6.203125 44.453125 7.46875 
Q 49.3125 8.734375 54.109375 11.28125 
L 54.109375 2.78125 
Q 49.265625 0.734375 44.1875 -0.34375 
Q 39.109375 -1.421875 33.890625 -1.421875 
Q 20.796875 -1.421875 13.15625 6.1875 
Q 5.515625 13.8125 5.515625 26.8125 
Q 5.515625 40.234375 12.765625 48.109375 
Q 20.015625 56 32.328125 56 
Q 43.359375 56 49.78125 48.890625 
Q 56.203125 41.796875 56.203125 29.59375 
z
M 47.21875 32.234375 
Q 47.125 39.59375 43.09375 43.984375 
Q 39.0625 48.390625 32.421875 48.390625 
Q 24.90625 48.390625 20.390625 44.140625 
Q 15.875 39.890625 15.1875 32.171875 
z
" id="DejaVuSans-101"/>
      <path id="DejaVuSans-32"/>
      <path d="M 37.109375 75.984375 
L 37.109375 68.5 
L 28.515625 68.5 
Q 23.6875 68.5 21.796875 66.546875 
Q 19.921875 64.59375 19.921875 59.515625 
L 19.921875 54.6875 
L 34.71875 54.6875 
L 34.71875 47.703125 
L 19.921875 47.703125 
L 19.921875 0 
L 10.890625 0 
L 10.890625 47.703125 
L 2.296875 47.703125 
L 2.296875 54.6875 
L 10.890625 54.6875 
L 10.890625 58.5 
Q 10.890625 67.625 15.140625 71.796875 
Q 19.390625 75.984375 28.609375 75.984375 
z
" id="DejaVuSans-102"/>
      <path d="M 18.3125 70.21875 
L 18.3125 54.6875 
L 36.8125 54.6875 
L 36.8125 47.703125 
L 18.3125 47.703125 
L 18.3125 18.015625 
Q 18.3125 11.328125 20.140625 9.421875 
Q 21.96875 7.515625 27.59375 7.515625 
L 36.8125 7.515625 
L 36.8125 0 
L 27.59375 0 
Q 17.1875 0 13.234375 3.875 
Q 9.28125 7.765625 9.28125 18.015625 
L 9.28125 47.703125 
L 2.6875 47.703125 
L 2.6875 54.6875 
L 9.28125 54.6875 
L 9.28125 70.21875 
z
" id="DejaVuSans-116"/>
      <path d="M 54.890625 33.015625 
L 54.890625 0 
L 45.90625 0 
L 45.90625 32.71875 
Q 45.90625 40.484375 42.875 44.328125 
Q 39.84375 48.1875 33.796875 48.1875 
Q 26.515625 48.1875 22.3125 43.546875 
Q 18.109375 38.921875 18.109375 30.90625 
L 18.109375 0 
L 9.078125 0 
L 9.078125 75.984375 
L 18.109375 75.984375 
L 18.109375 46.1875 
Q 21.34375 51.125 25.703125 53.5625 
Q 30.078125 56 35.796875 56 
Q 45.21875 56 50.046875 50.171875 
Q 54.890625 44.34375 54.890625 33.015625 
z
" id="DejaVuSans-104"/>
      <path d="M 48.78125 52.59375 
L 48.78125 44.1875 
Q 44.96875 46.296875 41.140625 47.34375 
Q 37.3125 48.390625 33.40625 48.390625 
Q 24.65625 48.390625 19.8125 42.84375 
Q 14.984375 37.3125 14.984375 27.296875 
Q 14.984375 17.28125 19.8125 11.734375 
Q 24.65625 6.203125 33.40625 6.203125 
Q 37.3125 6.203125 41.140625 7.25 
Q 44.96875 8.296875 48.78125 10.40625 
L 48.78125 2.09375 
Q 45.015625 0.34375 40.984375 -0.53125 
Q 36.96875 -1.421875 32.421875 -1.421875 
Q 20.0625 -1.421875 12.78125 6.34375 
Q 5.515625 14.109375 5.515625 27.296875 
Q 5.515625 40.671875 12.859375 48.328125 
Q 20.21875 56 33.015625 56 
Q 37.15625 56 41.109375 55.140625 
Q 45.0625 54.296875 48.78125 52.59375 
z
" id="DejaVuSans-99"/>
      <path d="M 52 44.1875 
Q 55.375 50.25 60.0625 53.125 
Q 64.75 56 71.09375 56 
Q 79.640625 56 84.28125 50.015625 
Q 88.921875 44.046875 88.921875 33.015625 
L 88.921875 0 
L 79.890625 0 
L 79.890625 32.71875 
Q 79.890625 40.578125 77.09375 44.375 
Q 74.3125 48.1875 68.609375 48.1875 
Q 61.625 48.1875 57.5625 43.546875 
Q 53.515625 38.921875 53.515625 30.90625 
L 53.515625 0 
L 44.484375 0 
L 44.484375 32.71875 
Q 44.484375 40.625 41.703125 44.40625 
Q 38.921875 48.1875 33.109375 48.1875 
Q 26.21875 48.1875 22.15625 43.53125 
Q 18.109375 38.875 18.109375 30.90625 
L 18.109375 0 
L 9.078125 0 
L 9.078125 54.6875 
L 18.109375 54.6875 
L 18.109375 46.1875 
Q 21.1875 51.21875 25.484375 53.609375 
Q 29.78125 56 35.6875 56 
Q 41.65625 56 45.828125 52.96875 
Q 50 49.953125 52 44.1875 
z
" id="DejaVuSans-109"/>
      <path d="M 45.40625 46.390625 
L 45.40625 75.984375 
L 54.390625 75.984375 
L 54.390625 0 
L 45.40625 0 
L 45.40625 8.203125 
Q 42.578125 3.328125 38.25 0.953125 
Q 33.9375 -1.421875 27.875 -1.421875 
Q 17.96875 -1.421875 11.734375 6.484375 
Q 5.515625 14.40625 5.515625 27.296875 
Q 5.515625 40.1875 11.734375 48.09375 
Q 17.96875 56 27.875 56 
Q 33.9375 56 38.25 53.625 
Q 42.578125 51.265625 45.40625 46.390625 
z
M 14.796875 27.296875 
Q 14.796875 17.390625 18.875 11.75 
Q 22.953125 6.109375 30.078125 6.109375 
Q 37.203125 6.109375 41.296875 11.75 
Q 45.40625 17.390625 45.40625 27.296875 
Q 45.40625 37.203125 41.296875 42.84375 
Q 37.203125 48.484375 30.078125 48.484375 
Q 22.953125 48.484375 18.875 42.84375 
Q 14.796875 37.203125 14.796875 27.296875 
z
" id="DejaVuSans-100"/>
      <path d="M 9.421875 54.6875 
L 18.40625 54.6875 
L 18.40625 0 
L 9.421875 0 
z
M 9.421875 75.984375 
L 18.40625 75.984375 
L 18.40625 64.59375 
L 9.421875 64.59375 
z
" id="DejaVuSans-105"/>
      <path d="M 45.40625 27.984375 
Q 45.40625 37.75 41.375 43.109375 
Q 37.359375 48.484375 30.078125 48.484375 
Q 22.859375 48.484375 18.828125 43.109375 
Q 14.796875 37.75 14.796875 27.984375 
Q 14.796875 18.265625 18.828125 12.890625 
Q 22.859375 7.515625 30.078125 7.515625 
Q 37.359375 7.515625 41.375 12.890625 
Q 45.40625 18.265625 45.40625 27.984375 
z
M 54.390625 6.78125 
Q 54.390625 -7.171875 48.1875 -13.984375 
Q 42 -20.796875 29.203125 -20.796875 
Q 24.46875 -20.796875 20.265625 -20.09375 
Q 16.0625 -19.390625 12.109375 -17.921875 
L 12.109375 -9.1875 
Q 16.0625 -11.328125 19.921875 -12.34375 
Q 23.78125 -13.375 27.78125 -13.375 
Q 36.625 -13.375 41.015625 -8.765625 
Q 45.40625 -4.15625 45.40625 5.171875 
L 45.40625 9.625 
Q 42.625 4.78125 38.28125 2.390625 
Q 33.9375 0 27.875 0 
Q 17.828125 0 11.671875 7.65625 
Q 5.515625 15.328125 5.515625 27.984375 
Q 5.515625 40.671875 11.671875 48.328125 
Q 17.828125 56 27.875 56 
Q 33.9375 56 38.28125 53.609375 
Q 42.625 51.21875 45.40625 46.390625 
L 45.40625 54.6875 
L 54.390625 54.6875 
z
" id="DejaVuSans-103"/>
      <path d="M 9.421875 75.984375 
L 18.40625 75.984375 
L 18.40625 0 
L 9.421875 0 
z
" id="DejaVuSans-108"/>
     </defs>
     <use xlink:href="#DejaVuSans-84"/>
     <use x="46.333984" xlink:href="#DejaVuSans-114"/>
     <use x="87.447266" xlink:href="#DejaVuSans-97"/>
     <use x="148.726562" xlink:href="#DejaVuSans-110"/>
     <use x="212.105469" xlink:href="#DejaVuSans-115"/>
     <use x="264.205078" xlink:href="#DejaVuSans-112"/>
     <use x="327.681641" xlink:href="#DejaVuSans-111"/>
     <use x="388.863281" xlink:href="#DejaVuSans-115"/>
     <use x="440.962891" xlink:href="#DejaVuSans-101"/>
     <use x="502.486328" xlink:href="#DejaVuSans-32"/>
     <use x="534.273438" xlink:href="#DejaVuSans-111"/>
     <use x="595.455078" xlink:href="#DejaVuSans-102"/>
     <use x="630.660156" xlink:href="#DejaVuSans-32"/>
     <use x="662.447266" xlink:href="#DejaVuSans-116"/>
     <use x="701.65625" xlink:href="#DejaVuSans-104"/>
     <use x="765.035156" xlink:href="#DejaVuSans-101"/>
     <use x="826.558594" xlink:href="#DejaVuSans-32"/>
     <use x="858.345703" xlink:href="#DejaVuSans-99"/>
     <use x="913.326172" xlink:href="#DejaVuSans-111"/>
     <use x="974.507812" xlink:href="#DejaVuSans-109"/>
     <use x="1071.919922" xlink:href="#DejaVuSans-112"/>
     <use x="1135.396484" xlink:href="#DejaVuSans-114"/>
     <use x="1174.259766" xlink:href="#DejaVuSans-101"/>
     <use x="1235.783203" xlink:href="#DejaVuSans-115"/>
     <use x="1287.882812" xlink:href="#DejaVuSans-115"/>
     <use x="1339.982422" xlink:href="#DejaVuSans-101"/>
     <use x="1401.505859" xlink:href="#DejaVuSans-100"/>
     <use x="1464.982422" xlink:href="#DejaVuSans-32"/>
     <use x="1496.769531" xlink:href="#DejaVuSans-115"/>
     <use x="1548.869141" xlink:href="#DejaVuSans-105"/>
     <use x="1576.652344" xlink:href="#DejaVuSans-103"/>
     <use x="1640.128906" xlink:href="#DejaVuSans-110"/>
     <use x="1703.507812" xlink:href="#DejaVuSans-97"/>
     <use x="1764.787109" xlink:href="#DejaVuSans-108"/>
    </g>
   </g>
  </g>
 </g>
 <defs>
  <clipPath id="pac656cf394">
   <rect height="266.112" width="892.8" x="144" y="41.472"/>
  </clipPath>
 </defs>
</svg>
