<?xml version="1.0" encoding="utf-8" standalone="no"?>
<!DOCTYPE svg PUBLIC "-//W3C//DTD SVG 1.1//EN"
  "http://www.w3.org/Graphics/SVG/1.1/DTD/svg11.dtd">
<!-- Created with matplotlib (https://matplotlib.org/) -->
<svg height="345.6pt" version="1.1" viewBox="0 0 1152 345.6" width="1152pt" xmlns="http://www.w3.org/2000/svg" xmlns:xlink="http://www.w3.org/1999/xlink">
 <metadata>
  <rdf:RDF xmlns:cc="http://creativecommons.org/ns#" xmlns:dc="http://purl.org/dc/elements/1.1/" xmlns:rdf="http://www.w3.org/1999/02/22-rdf-syntax-ns#">
   <cc:Work>
    <dc:type rdf:resource="http://purl.org/dc/dcmitype/StillImage"/>
    <dc:date>2021-12-24T07:21:36.282427</dc:date>
    <dc:format>image/svg+xml</dc:format>
    <dc:creator>
     <cc:Agent>
      <dc:title>Matplotlib v3.3.3, https://matplotlib.org/</dc:title>
     </cc:Agent>
    </dc:creator>
   </cc:Work>
  </rdf:RDF>
 </metadata>
 <defs>
  <style type="text/css">*{stroke-linecap:butt;stroke-linejoin:round;}</style>
 </defs>
 <g id="figure_1">
  <g id="patch_1">
   <path d="M 0 345.6 
L 1152 345.6 
L 1152 0 
L 0 0 
z
" style="fill:#ffffff;"/>
  </g>
  <g id="axes_1">
   <g id="patch_2">
    <path d="M 144 307.584 
L 1036.8 307.584 
L 1036.8 41.472 
L 144 41.472 
z
" style="fill:#ffffff;"/>
   </g>
   <g id="matplotlib.axis_1">
    <g id="xtick_1">
     <g id="line2d_1">
      <defs>
       <path d="M 0 0 
L 0 3.5 
" id="m20887f407b" style="stroke:#000000;stroke-width:0.8;"/>
      </defs>
      <g>
       <use style="stroke:#000000;stroke-width:0.8;" x="184.581818" xlink:href="#m20887f407b" y="307.584"/>
      </g>
     </g>
     <g id="text_1">
      <!-- 0 -->
      <g transform="translate(181.400568 322.182437)scale(0.1 -0.1)">
       <defs>
        <path d="M 31.78125 66.40625 
Q 24.171875 66.40625 20.328125 58.90625 
Q 16.5 51.421875 16.5 36.375 
Q 16.5 21.390625 20.328125 13.890625 
Q 24.171875 6.390625 31.78125 6.390625 
Q 39.453125 6.390625 43.28125 13.890625 
Q 47.125 21.390625 47.125 36.375 
Q 47.125 51.421875 43.28125 58.90625 
Q 39.453125 66.40625 31.78125 66.40625 
z
M 31.78125 74.21875 
Q 44.046875 74.21875 50.515625 64.515625 
Q 56.984375 54.828125 56.984375 36.375 
Q 56.984375 17.96875 50.515625 8.265625 
Q 44.046875 -1.421875 31.78125 -1.421875 
Q 19.53125 -1.421875 13.0625 8.265625 
Q 6.59375 17.96875 6.59375 36.375 
Q 6.59375 54.828125 13.0625 64.515625 
Q 19.53125 74.21875 31.78125 74.21875 
z
" id="DejaVuSans-48"/>
       </defs>
       <use xlink:href="#DejaVuSans-48"/>
      </g>
     </g>
    </g>
    <g id="xtick_2">
     <g id="line2d_2">
      <g>
       <use style="stroke:#000000;stroke-width:0.8;" x="343.259504" xlink:href="#m20887f407b" y="307.584"/>
      </g>
     </g>
     <g id="text_2">
      <!-- 200 -->
      <g transform="translate(333.715754 322.182437)scale(0.1 -0.1)">
       <defs>
        <path d="M 19.1875 8.296875 
L 53.609375 8.296875 
L 53.609375 0 
L 7.328125 0 
L 7.328125 8.296875 
Q 12.9375 14.109375 22.625 23.890625 
Q 32.328125 33.6875 34.8125 36.53125 
Q 39.546875 41.84375 41.421875 45.53125 
Q 43.3125 49.21875 43.3125 52.78125 
Q 43.3125 58.59375 39.234375 62.25 
Q 35.15625 65.921875 28.609375 65.921875 
Q 23.96875 65.921875 18.8125 64.3125 
Q 13.671875 62.703125 7.8125 59.421875 
L 7.8125 69.390625 
Q 13.765625 71.78125 18.9375 73 
Q 24.125 74.21875 28.421875 74.21875 
Q 39.75 74.21875 46.484375 68.546875 
Q 53.21875 62.890625 53.21875 53.421875 
Q 53.21875 48.921875 51.53125 44.890625 
Q 49.859375 40.875 45.40625 35.40625 
Q 44.1875 33.984375 37.640625 27.21875 
Q 31.109375 20.453125 19.1875 8.296875 
z
" id="DejaVuSans-50"/>
       </defs>
       <use xlink:href="#DejaVuSans-50"/>
       <use x="63.623047" xlink:href="#DejaVuSans-48"/>
       <use x="127.246094" xlink:href="#DejaVuSans-48"/>
      </g>
     </g>
    </g>
    <g id="xtick_3">
     <g id="line2d_3">
      <g>
       <use style="stroke:#000000;stroke-width:0.8;" x="501.93719" xlink:href="#m20887f407b" y="307.584"/>
      </g>
     </g>
     <g id="text_3">
      <!-- 400 -->
      <g transform="translate(492.39344 322.182437)scale(0.1 -0.1)">
       <defs>
        <path d="M 37.796875 64.3125 
L 12.890625 25.390625 
L 37.796875 25.390625 
z
M 35.203125 72.90625 
L 47.609375 72.90625 
L 47.609375 25.390625 
L 58.015625 25.390625 
L 58.015625 17.1875 
L 47.609375 17.1875 
L 47.609375 0 
L 37.796875 0 
L 37.796875 17.1875 
L 4.890625 17.1875 
L 4.890625 26.703125 
z
" id="DejaVuSans-52"/>
       </defs>
       <use xlink:href="#DejaVuSans-52"/>
       <use x="63.623047" xlink:href="#DejaVuSans-48"/>
       <use x="127.246094" xlink:href="#DejaVuSans-48"/>
      </g>
     </g>
    </g>
    <g id="xtick_4">
     <g id="line2d_4">
      <g>
       <use style="stroke:#000000;stroke-width:0.8;" x="660.614876" xlink:href="#m20887f407b" y="307.584"/>
      </g>
     </g>
     <g id="text_4">
      <!-- 600 -->
      <g transform="translate(651.071126 322.182437)scale(0.1 -0.1)">
       <defs>
        <path d="M 33.015625 40.375 
Q 26.375 40.375 22.484375 35.828125 
Q 18.609375 31.296875 18.609375 23.390625 
Q 18.609375 15.53125 22.484375 10.953125 
Q 26.375 6.390625 33.015625 6.390625 
Q 39.65625 6.390625 43.53125 10.953125 
Q 47.40625 15.53125 47.40625 23.390625 
Q 47.40625 31.296875 43.53125 35.828125 
Q 39.65625 40.375 33.015625 40.375 
z
M 52.59375 71.296875 
L 52.59375 62.3125 
Q 48.875 64.0625 45.09375 64.984375 
Q 41.3125 65.921875 37.59375 65.921875 
Q 27.828125 65.921875 22.671875 59.328125 
Q 17.53125 52.734375 16.796875 39.40625 
Q 19.671875 43.65625 24.015625 45.921875 
Q 28.375 48.1875 33.59375 48.1875 
Q 44.578125 48.1875 50.953125 41.515625 
Q 57.328125 34.859375 57.328125 23.390625 
Q 57.328125 12.15625 50.6875 5.359375 
Q 44.046875 -1.421875 33.015625 -1.421875 
Q 20.359375 -1.421875 13.671875 8.265625 
Q 6.984375 17.96875 6.984375 36.375 
Q 6.984375 53.65625 15.1875 63.9375 
Q 23.390625 74.21875 37.203125 74.21875 
Q 40.921875 74.21875 44.703125 73.484375 
Q 48.484375 72.75 52.59375 71.296875 
z
" id="DejaVuSans-54"/>
       </defs>
       <use xlink:href="#DejaVuSans-54"/>
       <use x="63.623047" xlink:href="#DejaVuSans-48"/>
       <use x="127.246094" xlink:href="#DejaVuSans-48"/>
      </g>
     </g>
    </g>
    <g id="xtick_5">
     <g id="line2d_5">
      <g>
       <use style="stroke:#000000;stroke-width:0.8;" x="819.292562" xlink:href="#m20887f407b" y="307.584"/>
      </g>
     </g>
     <g id="text_5">
      <!-- 800 -->
      <g transform="translate(809.748812 322.182437)scale(0.1 -0.1)">
       <defs>
        <path d="M 31.78125 34.625 
Q 24.75 34.625 20.71875 30.859375 
Q 16.703125 27.09375 16.703125 20.515625 
Q 16.703125 13.921875 20.71875 10.15625 
Q 24.75 6.390625 31.78125 6.390625 
Q 38.8125 6.390625 42.859375 10.171875 
Q 46.921875 13.96875 46.921875 20.515625 
Q 46.921875 27.09375 42.890625 30.859375 
Q 38.875 34.625 31.78125 34.625 
z
M 21.921875 38.8125 
Q 15.578125 40.375 12.03125 44.71875 
Q 8.5 49.078125 8.5 55.328125 
Q 8.5 64.0625 14.71875 69.140625 
Q 20.953125 74.21875 31.78125 74.21875 
Q 42.671875 74.21875 48.875 69.140625 
Q 55.078125 64.0625 55.078125 55.328125 
Q 55.078125 49.078125 51.53125 44.71875 
Q 48 40.375 41.703125 38.8125 
Q 48.828125 37.15625 52.796875 32.3125 
Q 56.78125 27.484375 56.78125 20.515625 
Q 56.78125 9.90625 50.3125 4.234375 
Q 43.84375 -1.421875 31.78125 -1.421875 
Q 19.734375 -1.421875 13.25 4.234375 
Q 6.78125 9.90625 6.78125 20.515625 
Q 6.78125 27.484375 10.78125 32.3125 
Q 14.796875 37.15625 21.921875 38.8125 
z
M 18.3125 54.390625 
Q 18.3125 48.734375 21.84375 45.5625 
Q 25.390625 42.390625 31.78125 42.390625 
Q 38.140625 42.390625 41.71875 45.5625 
Q 45.3125 48.734375 45.3125 54.390625 
Q 45.3125 60.0625 41.71875 63.234375 
Q 38.140625 66.40625 31.78125 66.40625 
Q 25.390625 66.40625 21.84375 63.234375 
Q 18.3125 60.0625 18.3125 54.390625 
z
" id="DejaVuSans-56"/>
       </defs>
       <use xlink:href="#DejaVuSans-56"/>
       <use x="63.623047" xlink:href="#DejaVuSans-48"/>
       <use x="127.246094" xlink:href="#DejaVuSans-48"/>
      </g>
     </g>
    </g>
    <g id="xtick_6">
     <g id="line2d_6">
      <g>
       <use style="stroke:#000000;stroke-width:0.8;" x="977.970248" xlink:href="#m20887f407b" y="307.584"/>
      </g>
     </g>
     <g id="text_6">
      <!-- 1000 -->
      <g transform="translate(965.245248 322.182437)scale(0.1 -0.1)">
       <defs>
        <path d="M 12.40625 8.296875 
L 28.515625 8.296875 
L 28.515625 63.921875 
L 10.984375 60.40625 
L 10.984375 69.390625 
L 28.421875 72.90625 
L 38.28125 72.90625 
L 38.28125 8.296875 
L 54.390625 8.296875 
L 54.390625 0 
L 12.40625 0 
z
" id="DejaVuSans-49"/>
       </defs>
       <use xlink:href="#DejaVuSans-49"/>
       <use x="63.623047" xlink:href="#DejaVuSans-48"/>
       <use x="127.246094" xlink:href="#DejaVuSans-48"/>
       <use x="190.869141" xlink:href="#DejaVuSans-48"/>
      </g>
     </g>
    </g>
   </g>
   <g id="matplotlib.axis_2">
    <g id="ytick_1">
     <g id="line2d_7">
      <defs>
       <path d="M 0 0 
L -3.5 0 
" id="m87df2aa5fc" style="stroke:#000000;stroke-width:0.8;"/>
      </defs>
      <g>
       <use style="stroke:#000000;stroke-width:0.8;" x="144" xlink:href="#m87df2aa5fc" y="305.47217"/>
      </g>
     </g>
     <g id="text_7">
      <!-- −0.8 -->
      <g transform="translate(112.717187 309.271388)scale(0.1 -0.1)">
       <defs>
        <path d="M 10.59375 35.5 
L 73.1875 35.5 
L 73.1875 27.203125 
L 10.59375 27.203125 
z
" id="DejaVuSans-8722"/>
        <path d="M 10.6875 12.40625 
L 21 12.40625 
L 21 0 
L 10.6875 0 
z
" id="DejaVuSans-46"/>
       </defs>
       <use xlink:href="#DejaVuSans-8722"/>
       <use x="83.789062" xlink:href="#DejaVuSans-48"/>
       <use x="147.412109" xlink:href="#DejaVuSans-46"/>
       <use x="179.199219" xlink:href="#DejaVuSans-56"/>
      </g>
     </g>
    </g>
    <g id="ytick_2">
     <g id="line2d_8">
      <g>
       <use style="stroke:#000000;stroke-width:0.8;" x="144" xlink:href="#m87df2aa5fc" y="273.363868"/>
      </g>
     </g>
     <g id="text_8">
      <!-- −0.6 -->
      <g transform="translate(112.717187 277.163087)scale(0.1 -0.1)">
       <use xlink:href="#DejaVuSans-8722"/>
       <use x="83.789062" xlink:href="#DejaVuSans-48"/>
       <use x="147.412109" xlink:href="#DejaVuSans-46"/>
       <use x="179.199219" xlink:href="#DejaVuSans-54"/>
      </g>
     </g>
    </g>
    <g id="ytick_3">
     <g id="line2d_9">
      <g>
       <use style="stroke:#000000;stroke-width:0.8;" x="144" xlink:href="#m87df2aa5fc" y="241.255566"/>
      </g>
     </g>
     <g id="text_9">
      <!-- −0.4 -->
      <g transform="translate(112.717187 245.054785)scale(0.1 -0.1)">
       <use xlink:href="#DejaVuSans-8722"/>
       <use x="83.789062" xlink:href="#DejaVuSans-48"/>
       <use x="147.412109" xlink:href="#DejaVuSans-46"/>
       <use x="179.199219" xlink:href="#DejaVuSans-52"/>
      </g>
     </g>
    </g>
    <g id="ytick_4">
     <g id="line2d_10">
      <g>
       <use style="stroke:#000000;stroke-width:0.8;" x="144" xlink:href="#m87df2aa5fc" y="209.147265"/>
      </g>
     </g>
     <g id="text_10">
      <!-- −0.2 -->
      <g transform="translate(112.717187 212.946484)scale(0.1 -0.1)">
       <use xlink:href="#DejaVuSans-8722"/>
       <use x="83.789062" xlink:href="#DejaVuSans-48"/>
       <use x="147.412109" xlink:href="#DejaVuSans-46"/>
       <use x="179.199219" xlink:href="#DejaVuSans-50"/>
      </g>
     </g>
    </g>
    <g id="ytick_5">
     <g id="line2d_11">
      <g>
       <use style="stroke:#000000;stroke-width:0.8;" x="144" xlink:href="#m87df2aa5fc" y="177.038963"/>
      </g>
     </g>
     <g id="text_11">
      <!-- 0.0 -->
      <g transform="translate(121.096875 180.838182)scale(0.1 -0.1)">
       <use xlink:href="#DejaVuSans-48"/>
       <use x="63.623047" xlink:href="#DejaVuSans-46"/>
       <use x="95.410156" xlink:href="#DejaVuSans-48"/>
      </g>
     </g>
    </g>
    <g id="ytick_6">
     <g id="line2d_12">
      <g>
       <use style="stroke:#000000;stroke-width:0.8;" x="144" xlink:href="#m87df2aa5fc" y="144.930662"/>
      </g>
     </g>
     <g id="text_12">
      <!-- 0.2 -->
      <g transform="translate(121.096875 148.729881)scale(0.1 -0.1)">
       <use xlink:href="#DejaVuSans-48"/>
       <use x="63.623047" xlink:href="#DejaVuSans-46"/>
       <use x="95.410156" xlink:href="#DejaVuSans-50"/>
      </g>
     </g>
    </g>
    <g id="ytick_7">
     <g id="line2d_13">
      <g>
       <use style="stroke:#000000;stroke-width:0.8;" x="144" xlink:href="#m87df2aa5fc" y="112.82236"/>
      </g>
     </g>
     <g id="text_13">
      <!-- 0.4 -->
      <g transform="translate(121.096875 116.621579)scale(0.1 -0.1)">
       <use xlink:href="#DejaVuSans-48"/>
       <use x="63.623047" xlink:href="#DejaVuSans-46"/>
       <use x="95.410156" xlink:href="#DejaVuSans-52"/>
      </g>
     </g>
    </g>
    <g id="ytick_8">
     <g id="line2d_14">
      <g>
       <use style="stroke:#000000;stroke-width:0.8;" x="144" xlink:href="#m87df2aa5fc" y="80.714059"/>
      </g>
     </g>
     <g id="text_14">
      <!-- 0.6 -->
      <g transform="translate(121.096875 84.513277)scale(0.1 -0.1)">
       <use xlink:href="#DejaVuSans-48"/>
       <use x="63.623047" xlink:href="#DejaVuSans-46"/>
       <use x="95.410156" xlink:href="#DejaVuSans-54"/>
      </g>
     </g>
    </g>
    <g id="ytick_9">
     <g id="line2d_15">
      <g>
       <use style="stroke:#000000;stroke-width:0.8;" x="144" xlink:href="#m87df2aa5fc" y="48.605757"/>
      </g>
     </g>
     <g id="text_15">
      <!-- 0.8 -->
      <g transform="translate(121.096875 52.404976)scale(0.1 -0.1)">
       <use xlink:href="#DejaVuSans-48"/>
       <use x="63.623047" xlink:href="#DejaVuSans-46"/>
       <use x="95.410156" xlink:href="#DejaVuSans-56"/>
      </g>
     </g>
    </g>
   </g>
   <g id="line2d_16">
    <path clip-path="url(#p7329d8e166)" d="M 184.581818 118.48863 
L 185.375207 107.482492 
L 186.168595 159.325129 
L 186.961983 166.235979 
L 187.755372 159.459111 
L 188.54876 138.232195 
L 189.342149 242.421658 
L 190.135537 204.586357 
L 190.928926 211.890663 
L 191.722314 229.119778 
L 192.515702 239.987275 
L 193.309091 160.110157 
L 194.102479 158.75689 
L 194.895868 178.674013 
L 195.689256 217.38516 
L 196.482645 154.559908 
L 197.276033 260.456834 
L 198.069421 95.231549 
L 198.86281 103.949089 
L 199.656198 188.301905 
L 200.449587 228.187076 
L 201.242975 138.440043 
L 202.036364 165.36203 
L 202.829752 224.899903 
L 203.62314 192.079179 
L 204.416529 255.084427 
L 205.209917 172.566629 
L 206.003306 208.876144 
L 206.796694 220.512703 
L 207.590083 165.210277 
L 208.383471 244.126508 
L 209.17686 187.874274 
L 209.970248 143.058057 
L 210.763636 263.689124 
L 211.557025 164.80342 
L 212.350413 142.903345 
L 213.143802 141.652564 
L 213.93719 180.034687 
L 214.730579 263.937833 
L 215.523967 196.613773 
L 216.317355 214.327567 
L 217.110744 187.475063 
L 217.904132 215.996959 
L 218.697521 238.364609 
L 219.490909 148.579948 
L 220.284298 181.164518 
L 221.077686 137.418409 
L 221.871074 213.431835 
L 222.664463 115.864245 
L 224.25124 250.004278 
L 225.044628 204.046586 
L 225.838017 85.777195 
L 226.631405 217.36961 
L 227.424793 225.741412 
L 228.218182 179.875986 
L 229.01157 191.74296 
L 229.804959 118.831541 
L 230.598347 187.376797 
L 231.391736 141.516442 
L 232.185124 153.940769 
L 232.978512 205.800697 
L 234.565289 109.008129 
L 235.358678 173.579396 
L 236.152066 210.925735 
L 236.945455 181.93586 
L 237.738843 201.686239 
L 238.532231 162.186117 
L 239.32562 94.351276 
L 240.119008 230.934964 
L 240.912397 108.648487 
L 241.705785 87.959295 
L 242.499174 96.396912 
L 243.292562 158.347867 
L 244.08595 182.181368 
L 244.879339 155.032733 
L 245.672727 151.806569 
L 246.466116 232.87969 
L 247.259504 200.937783 
L 248.846281 207.704171 
L 249.639669 156.531222 
L 250.433058 279.241652 
L 251.226446 217.905174 
L 252.019835 253.652165 
L 252.813223 177.637197 
L 253.606612 248.664362 
L 254.4 272.59659 
L 255.193388 223.840717 
L 255.986777 254.682433 
L 256.780165 247.599483 
L 257.573554 178.617915 
L 258.366942 277.200302 
L 259.160331 131.769185 
L 259.953719 67.708255 
L 260.747107 122.652656 
L 261.540496 139.69708 
L 262.333884 141.835349 
L 263.127273 100.584497 
L 263.920661 137.555595 
L 264.71405 96.308877 
L 265.507438 142.434248 
L 266.300826 227.448678 
L 267.094215 111.267528 
L 267.887603 217.729736 
L 268.680992 274.691631 
L 269.47438 168.865736 
L 270.267769 115.855748 
L 271.061157 121.452266 
L 271.854545 243.10478 
L 272.647934 138.288058 
L 273.441322 179.0107 
L 274.234711 209.081136 
L 275.028099 142.642618 
L 275.821488 103.814869 
L 276.614876 267.595609 
L 277.408264 158.302805 
L 278.201653 130.793877 
L 278.995041 74.186041 
L 279.78843 255.498173 
L 280.581818 192.156709 
L 281.375207 218.982091 
L 282.168595 108.636473 
L 282.961983 148.354215 
L 283.755372 213.966776 
L 284.54876 124.284786 
L 285.342149 101.017964 
L 286.135537 99.904929 
L 286.928926 295.297242 
L 287.722314 107.35721 
L 288.515702 99.668187 
L 289.309091 239.900455 
L 290.102479 114.732982 
L 290.895868 243.409798 
L 291.689256 201.074762 
L 292.482645 207.218689 
L 293.276033 181.292583 
L 294.069421 182.306941 
L 294.86281 254.218283 
L 295.656198 138.48968 
L 296.449587 223.080574 
L 298.036364 150.882876 
L 298.829752 194.449271 
L 299.62314 133.227552 
L 300.416529 259.402223 
L 301.209917 190.44083 
L 302.003306 170.103974 
L 302.796694 155.461114 
L 303.590083 109.784612 
L 304.383471 185.941616 
L 305.17686 176.901139 
L 305.970248 252.05889 
L 306.763636 141.847803 
L 307.557025 161.09507 
L 308.350413 238.313563 
L 309.143802 186.799535 
L 309.93719 285.978155 
L 310.730579 111.214324 
L 311.523967 122.688339 
L 312.317355 238.999815 
L 313.110744 120.442313 
L 313.904132 279.668411 
L 314.697521 143.420967 
L 315.490909 166.484708 
L 316.284298 92.197051 
L 317.077686 160.337733 
L 317.871074 72.924127 
L 318.664463 103.841758 
L 319.457851 258.787394 
L 320.25124 157.331752 
L 321.044628 187.173703 
L 321.838017 138.392033 
L 322.631405 70.960726 
L 323.424793 167.985472 
L 324.218182 159.553617 
L 325.01157 76.421374 
L 325.804959 180.351375 
L 326.598347 149.513322 
L 327.391736 72.209216 
L 328.185124 232.842543 
L 328.978512 246.89095 
L 329.771901 199.20732 
L 330.565289 70.618586 
L 331.358678 272.875144 
L 332.152066 208.349003 
L 332.945455 98.427631 
L 333.738843 128.702334 
L 334.532231 203.782182 
L 335.32562 140.215228 
L 336.119008 230.304533 
L 336.912397 144.358946 
L 337.705785 232.554975 
L 338.499174 225.436485 
L 339.292562 231.469848 
L 340.08595 212.825721 
L 340.879339 111.033235 
L 341.672727 119.791601 
L 342.466116 195.806184 
L 343.259504 169.862071 
L 344.052893 274.713218 
L 344.846281 181.239637 
L 345.639669 243.911056 
L 346.433058 233.889508 
L 347.226446 172.837248 
L 348.019835 158.36251 
L 348.813223 150.843969 
L 349.606612 256.781555 
L 350.4 189.491396 
L 351.193388 171.965804 
L 351.986777 128.169043 
L 352.780165 67.176543 
L 353.573554 239.845735 
L 354.366942 187.621178 
L 355.160331 200.346844 
L 355.953719 257.117035 
L 356.747107 178.900626 
L 357.540496 231.115789 
L 358.333884 247.175642 
L 359.127273 120.222833 
L 359.920661 178.439294 
L 360.71405 120.035003 
L 361.507438 116.789727 
L 362.300826 121.891905 
L 363.094215 141.599652 
L 363.887603 253.714565 
L 364.680992 248.082551 
L 365.47438 176.601093 
L 366.267769 231.928754 
L 367.061157 211.032436 
L 367.854545 131.252138 
L 368.647934 200.341507 
L 369.441322 228.014733 
L 370.234711 143.451143 
L 371.028099 205.013667 
L 371.821488 146.017857 
L 372.614876 120.810457 
L 373.408264 114.902205 
L 374.201653 253.999736 
L 374.995041 218.87719 
L 375.78843 146.718197 
L 376.581818 192.339535 
L 377.375207 221.96206 
L 378.168595 260.670185 
L 378.961983 265.325264 
L 379.755372 202.007851 
L 380.54876 236.058997 
L 381.342149 163.852896 
L 382.135537 135.130112 
L 382.928926 167.91269 
L 383.722314 121.436032 
L 384.515702 178.218462 
L 385.309091 197.352145 
L 386.102479 122.025665 
L 386.895868 225.064753 
L 387.689256 108.361421 
L 388.482645 71.628711 
L 389.276033 244.446864 
L 390.069421 191.816285 
L 390.86281 236.336393 
L 391.656198 113.437465 
L 392.449587 170.06921 
L 393.242975 186.891176 
L 394.036364 139.731576 
L 394.829752 228.444401 
L 395.62314 263.337319 
L 396.416529 168.529073 
L 397.209917 256.793263 
L 398.003306 170.020803 
L 398.796694 165.446974 
L 399.590083 72.879918 
L 400.383471 208.127851 
L 401.17686 235.467358 
L 401.970248 169.98696 
L 402.763636 188.056731 
L 403.557025 164.751181 
L 404.350413 115.843763 
L 405.143802 198.802383 
L 405.93719 184.652908 
L 406.730579 223.92504 
L 407.523967 270.568551 
L 408.317355 137.597048 
L 409.110744 132.61901 
L 409.904132 71.75796 
L 410.697521 108.834274 
L 411.490909 176.442244 
L 412.284298 107.090057 
L 413.077686 166.559967 
L 413.871074 266.698217 
L 414.664463 159.979734 
L 415.457851 231.821973 
L 416.25124 157.785054 
L 417.044628 210.925591 
L 417.838017 185.80792 
L 418.631405 71.093889 
L 419.424793 146.712784 
L 420.218182 75.648465 
L 421.01157 245.231155 
L 421.804959 226.756972 
L 422.598347 111.96708 
L 423.391736 131.846082 
L 424.185124 161.403367 
L 424.978512 97.289769 
L 425.771901 157.498262 
L 426.565289 200.356446 
L 427.358678 216.71852 
L 428.152066 142.801346 
L 428.945455 125.475684 
L 429.738843 217.295073 
L 431.32562 130.06279 
L 432.119008 158.721644 
L 432.912397 158.037505 
L 433.705785 100.169699 
L 434.499174 130.444288 
L 435.292562 240.408054 
L 436.08595 170.904654 
L 436.879339 179.652344 
L 437.672727 151.962553 
L 438.466116 129.646676 
L 439.259504 155.929642 
L 440.052893 165.434439 
L 440.846281 183.280055 
L 441.639669 170.456332 
L 443.226446 233.417488 
L 444.019835 257.735338 
L 444.813223 225.676012 
L 445.606612 234.012949 
L 446.4 249.626938 
L 447.193388 81.923981 
L 448.780165 158.958732 
L 449.573554 208.868757 
L 450.366942 266.352364 
L 451.160331 185.089721 
L 451.953719 142.779302 
L 452.747107 275.800795 
L 453.540496 161.806546 
L 454.333884 75.054784 
L 455.127273 253.065685 
L 455.920661 97.710476 
L 456.71405 87.20384 
L 457.507438 248.510564 
L 458.300826 106.163767 
L 459.094215 179.748664 
L 459.887603 239.991529 
L 460.680992 154.650469 
L 461.47438 193.408302 
L 462.267769 166.950098 
L 463.061157 131.128793 
L 463.854545 197.815498 
L 464.647934 95.424461 
L 465.441322 91.665731 
L 466.234711 239.880442 
L 467.028099 146.011312 
L 467.821488 272.887354 
L 468.614876 274.645642 
L 470.201653 121.944711 
L 470.995041 97.553635 
L 471.78843 188.341209 
L 472.581818 157.213296 
L 473.375207 200.555496 
L 474.168595 206.629137 
L 474.961983 232.633393 
L 475.755372 167.325544 
L 476.54876 199.082884 
L 477.342149 64.628074 
L 478.135537 206.168097 
L 478.928926 107.815317 
L 479.722314 105.152087 
L 480.515702 141.374625 
L 481.309091 100.334583 
L 482.102479 246.313182 
L 482.895868 110.060941 
L 483.689256 149.762657 
L 484.482645 182.259482 
L 485.276033 118.964273 
L 486.069421 144.345224 
L 486.86281 108.050232 
L 487.656198 157.416988 
L 488.449587 144.457002 
L 489.242975 110.447391 
L 490.036364 183.941826 
L 490.829752 146.36433 
L 491.62314 130.633596 
L 492.416529 209.801133 
L 493.209917 111.046517 
L 494.003306 164.177476 
L 494.796694 165.33503 
L 495.590083 226.566524 
L 496.383471 194.701717 
L 497.17686 248.026304 
L 497.970248 273.459371 
L 498.763636 237.518669 
L 499.557025 142.568085 
L 500.350413 226.886268 
L 501.143802 192.698261 
L 501.93719 192.630465 
L 502.730579 85.253024 
L 503.523967 176.918629 
L 504.317355 124.369568 
L 505.110744 175.032034 
L 505.904132 115.669564 
L 506.697521 273.603557 
L 507.490909 68.476379 
L 508.284298 225.551945 
L 509.077686 109.900741 
L 509.871074 255.379019 
L 510.664463 189.735716 
L 511.457851 199.518973 
L 512.25124 146.885832 
L 513.044628 72.571891 
L 513.838017 149.766856 
L 514.631405 123.210889 
L 515.424793 270.784945 
L 516.218182 127.913019 
L 517.01157 211.028953 
L 517.804959 190.039717 
L 518.598347 199.163515 
L 519.391736 199.47403 
L 520.185124 189.343079 
L 520.978512 207.360517 
L 521.771901 106.058464 
L 522.565289 139.794835 
L 523.358678 185.425289 
L 524.152066 84.532017 
L 524.945455 290.601752 
L 525.738843 165.140439 
L 526.532231 193.608121 
L 527.32562 193.821755 
L 528.119008 147.903588 
L 528.912397 120.69938 
L 529.705785 278.451614 
L 531.292562 133.821702 
L 532.08595 176.135452 
L 532.879339 100.302972 
L 533.672727 169.57431 
L 534.466116 250.907718 
L 535.259504 108.335484 
L 536.052893 169.942278 
L 536.846281 213.881629 
L 537.639669 128.55 
L 538.433058 109.219547 
L 539.226446 262.609959 
L 540.019835 183.733128 
L 540.813223 183.938935 
L 541.606612 239.289689 
L 542.4 161.023718 
L 543.193388 235.02659 
L 543.986777 204.637209 
L 544.780165 128.706276 
L 545.573554 219.457283 
L 546.366942 198.272314 
L 547.160331 138.686718 
L 547.953719 160.949826 
L 548.747107 142.881049 
L 549.540496 135.405604 
L 550.333884 225.530338 
L 551.127273 177.581033 
L 551.920661 190.182196 
L 552.71405 84.585297 
L 553.507438 189.869101 
L 554.300826 235.802848 
L 555.094215 161.351654 
L 555.887603 160.862254 
L 556.680992 97.155037 
L 558.267769 168.220499 
L 559.061157 123.958937 
L 559.854545 152.949954 
L 560.647934 146.110878 
L 561.441322 168.221776 
L 562.234711 178.889798 
L 563.028099 179.103941 
L 563.821488 201.104198 
L 564.614876 103.798243 
L 565.408264 229.751338 
L 566.201653 237.799319 
L 566.995041 71.962096 
L 567.78843 136.534151 
L 569.375207 292.08051 
L 570.168595 211.177163 
L 570.961983 206.804401 
L 571.755372 203.060563 
L 572.54876 222.659226 
L 573.342149 138.533011 
L 574.135537 175.493169 
L 574.928926 203.826204 
L 575.722314 209.07638 
L 576.515702 126.463911 
L 577.309091 173.444227 
L 578.102479 138.172355 
L 578.895868 198.421476 
L 579.689256 202.629691 
L 580.482645 172.489115 
L 581.276033 211.376868 
L 582.069421 106.424628 
L 582.86281 72.366693 
L 583.656198 241.29959 
L 584.449587 126.356312 
L 585.242975 124.907945 
L 586.036364 238.688582 
L 586.829752 113.174265 
L 587.62314 230.197919 
L 588.416529 128.494806 
L 589.209917 149.698452 
L 590.003306 161.784939 
L 590.796694 159.305155 
L 591.590083 139.265816 
L 592.383471 159.654704 
L 593.17686 231.000507 
L 593.970248 74.263694 
L 594.763636 166.908508 
L 595.557025 221.189099 
L 596.350413 154.334666 
L 597.143802 162.075529 
L 597.93719 162.791751 
L 598.730579 79.943213 
L 599.523967 194.62929 
L 600.317355 223.152542 
L 601.110744 191.036935 
L 601.904132 141.016394 
L 603.490909 206.245573 
L 604.284298 75.570037 
L 605.077686 60.208794 
L 605.871074 168.200835 
L 606.664463 182.135036 
L 607.457851 202.729228 
L 608.25124 170.38915 
L 609.044628 149.246617 
L 609.838017 161.961357 
L 610.631405 102.826628 
L 611.424793 169.443413 
L 612.218182 127.033535 
L 613.01157 249.710724 
L 613.804959 117.810713 
L 614.598347 130.904596 
L 615.391736 204.475376 
L 616.185124 238.357767 
L 617.771901 141.059488 
L 618.565289 269.866979 
L 619.358678 131.427442 
L 620.152066 200.286456 
L 620.945455 133.651957 
L 621.738843 78.498731 
L 622.532231 242.463661 
L 623.32562 209.026079 
L 624.119008 133.550152 
L 624.912397 126.492469 
L 625.705785 87.972931 
L 626.499174 224.188307 
L 627.292562 236.709618 
L 628.08595 169.822906 
L 628.879339 147.819067 
L 629.672727 249.232694 
L 630.466116 146.583348 
L 631.259504 179.230895 
L 632.052893 134.533374 
L 632.846281 133.50991 
L 633.639669 275.060067 
L 634.433058 148.56602 
L 635.226446 168.495233 
L 636.019835 220.415664 
L 636.813223 138.810455 
L 637.606612 99.572846 
L 639.193388 250.402593 
L 639.986777 195.861213 
L 640.780165 246.11761 
L 641.573554 81.576367 
L 642.366942 280.581171 
L 643.160331 83.052034 
L 643.953719 114.73402 
L 644.747107 246.958191 
L 645.540496 143.386803 
L 646.333884 124.74841 
L 647.127273 120.395549 
L 647.920661 221.680258 
L 648.71405 198.836118 
L 649.507438 224.110415 
L 650.300826 173.794704 
L 651.887603 118.026968 
L 652.680992 260.318791 
L 653.47438 202.798379 
L 654.267769 205.720537 
L 655.061157 249.994053 
L 655.854545 203.940661 
L 656.647934 180.886671 
L 657.441322 243.152305 
L 658.234711 77.067445 
L 659.028099 115.770091 
L 659.821488 190.18281 
L 660.614876 159.945466 
L 661.408264 243.05284 
L 662.201653 135.214477 
L 662.995041 194.717825 
L 663.78843 114.161199 
L 664.581818 166.672994 
L 665.375207 73.484412 
L 666.168595 150.501123 
L 666.961983 202.49751 
L 667.755372 115.501158 
L 668.54876 241.959168 
L 669.342149 279.943836 
L 670.135537 159.786321 
L 670.928926 190.832937 
L 671.722314 115.321012 
L 672.515702 183.594501 
L 674.102479 197.675212 
L 674.895868 215.400014 
L 675.689256 111.967616 
L 676.482645 172.883324 
L 677.276033 194.601768 
L 678.069421 251.646169 
L 678.86281 180.17996 
L 679.656198 220.986049 
L 680.449587 164.49293 
L 681.242975 149.753789 
L 682.036364 252.133036 
L 682.829752 80.243833 
L 683.62314 146.392645 
L 684.416529 109.019229 
L 685.209917 144.252495 
L 686.003306 231.973815 
L 686.796694 259.288035 
L 687.590083 223.048699 
L 688.383471 266.877129 
L 689.17686 270.538581 
L 689.970248 143.691112 
L 690.763636 181.263837 
L 691.557025 60.406548 
L 692.350413 219.441748 
L 693.143802 278.886086 
L 693.93719 103.538989 
L 694.730579 198.355595 
L 695.523967 171.737442 
L 697.110744 199.084896 
L 697.904132 259.898481 
L 698.697521 95.887649 
L 699.490909 283.098196 
L 700.284298 175.479725 
L 701.077686 147.39382 
L 701.871074 106.821608 
L 702.664463 165.792283 
L 703.457851 198.042186 
L 704.25124 197.549458 
L 705.044628 216.82777 
L 705.838017 168.67854 
L 706.631405 234.505949 
L 707.424793 198.499071 
L 708.218182 179.951919 
L 709.01157 168.297007 
L 709.804959 127.734762 
L 710.598347 157.393526 
L 711.391736 224.367253 
L 712.185124 140.526929 
L 712.978512 174.915257 
L 713.771901 53.568 
L 714.565289 157.693954 
L 715.358678 223.188297 
L 716.152066 187.427865 
L 716.945455 181.661325 
L 717.738843 208.342884 
L 718.532231 295.488 
L 719.32562 186.327779 
L 720.119008 251.6679 
L 720.912397 181.161171 
L 721.705785 140.180772 
L 722.499174 214.193887 
L 723.292562 207.172586 
L 724.08595 221.850907 
L 724.879339 243.791635 
L 725.672727 202.31855 
L 726.466116 88.237237 
L 727.259504 197.961895 
L 728.052893 232.857337 
L 728.846281 158.899069 
L 729.639669 259.963493 
L 730.433058 83.830952 
L 731.226446 117.873481 
L 732.019835 142.715759 
L 732.813223 154.906481 
L 733.606612 288.895347 
L 734.4 158.174942 
L 735.986777 115.769201 
L 736.780165 219.237105 
L 737.573554 207.446781 
L 738.366942 207.275417 
L 739.160331 120.49245 
L 739.953719 205.049022 
L 740.747107 265.676734 
L 741.540496 124.525887 
L 742.333884 197.835814 
L 743.127273 256.040726 
L 743.920661 170.666338 
L 744.71405 103.561089 
L 745.507438 97.580725 
L 746.300826 76.620897 
L 747.094215 138.38695 
L 747.887603 161.349114 
L 748.680992 193.097542 
L 749.47438 186.989836 
L 750.267769 162.338478 
L 751.061157 186.519988 
L 751.854545 143.414555 
L 752.647934 275.755801 
L 754.234711 114.343924 
L 755.028099 286.012403 
L 755.821488 193.975175 
L 756.614876 222.770614 
L 757.408264 121.223949 
L 758.201653 232.170439 
L 758.995041 178.279453 
L 759.78843 150.97604 
L 760.581818 164.095557 
L 761.375207 226.61991 
L 762.168595 171.640839 
L 762.961983 211.450959 
L 763.755372 205.30206 
L 764.54876 254.858565 
L 765.342149 217.861755 
L 766.135537 109.972241 
L 766.928926 177.956169 
L 767.722314 197.255773 
L 768.515702 124.058417 
L 769.309091 172.398108 
L 770.102479 248.246124 
L 770.895868 138.427998 
L 771.689256 288.286547 
L 772.482645 189.192013 
L 773.276033 139.390474 
L 774.069421 192.123588 
L 774.86281 171.870522 
L 775.656198 243.249005 
L 776.449587 200.064706 
L 777.242975 164.546388 
L 778.036364 134.830913 
L 778.829752 245.897599 
L 779.62314 151.681459 
L 780.416529 214.737075 
L 781.209917 182.688795 
L 782.003306 207.510674 
L 782.796694 106.638409 
L 783.590083 165.798695 
L 784.383471 68.072356 
L 785.970248 182.862304 
L 786.763636 256.15 
L 787.557025 145.104877 
L 788.350413 195.687066 
L 789.143802 158.827471 
L 789.93719 264.559838 
L 790.730579 137.981926 
L 791.523967 170.81813 
L 792.317355 175.834672 
L 793.110744 172.78463 
L 793.904132 235.320689 
L 794.697521 157.393622 
L 795.490909 263.784633 
L 796.284298 257.349515 
L 797.077686 220.611197 
L 797.871074 231.845633 
L 798.664463 195.651552 
L 799.457851 195.2114 
L 800.25124 174.369656 
L 801.044628 183.434322 
L 801.838017 230.767085 
L 802.631405 80.816692 
L 803.424793 248.795711 
L 804.218182 126.909248 
L 805.01157 214.570794 
L 805.804959 271.940117 
L 806.598347 254.704652 
L 807.391736 270.768103 
L 808.185124 190.022381 
L 808.978512 209.574835 
L 809.771901 203.310252 
L 810.565289 91.012186 
L 811.358678 238.66143 
L 812.152066 188.476232 
L 812.945455 230.585675 
L 813.738843 263.25337 
L 814.532231 86.058792 
L 815.32562 247.516419 
L 816.119008 115.354915 
L 816.912397 116.656216 
L 818.499174 205.851843 
L 819.292562 181.842106 
L 820.08595 256.400847 
L 820.879339 89.627826 
L 821.672727 198.194975 
L 822.466116 161.006436 
L 823.259504 110.279809 
L 824.052893 240.203205 
L 824.846281 215.722423 
L 825.639669 133.203782 
L 826.433058 234.70433 
L 827.226446 176.646979 
L 828.019835 185.277322 
L 828.813223 266.926773 
L 829.606612 134.125073 
L 830.4 112.077344 
L 831.193388 273.342868 
L 831.986777 176.719764 
L 832.780165 226.843552 
L 833.573554 215.121676 
L 834.366942 241.613573 
L 835.160331 256.118819 
L 835.953719 229.559599 
L 836.747107 153.238319 
L 837.540496 179.316365 
L 838.333884 172.842881 
L 839.127273 227.681258 
L 839.920661 180.485755 
L 840.71405 161.621567 
L 841.507438 222.682909 
L 842.300826 263.017006 
L 843.094215 253.773543 
L 843.887603 253.040662 
L 844.680992 203.134017 
L 845.47438 255.687046 
L 846.267769 223.11528 
L 847.061157 228.61928 
L 847.854545 198.262939 
L 848.647934 206.122723 
L 849.441322 110.559277 
L 850.234711 112.276925 
L 851.028099 142.13573 
L 851.821488 180.029615 
L 852.614876 139.085364 
L 853.408264 244.858557 
L 854.201653 124.356458 
L 854.995041 260.091517 
L 855.78843 199.443918 
L 856.581818 279.950515 
L 857.375207 185.199293 
L 858.168595 158.540844 
L 858.961983 126.024195 
L 859.755372 178.325955 
L 860.54876 206.533497 
L 861.342149 219.939308 
L 862.135537 199.370074 
L 862.928926 78.038653 
L 863.722314 73.944452 
L 864.515702 245.589171 
L 865.309091 232.11058 
L 866.102479 216.221543 
L 866.895868 135.710019 
L 867.689256 170.076914 
L 868.482645 129.532403 
L 869.276033 218.400529 
L 870.069421 158.359246 
L 870.86281 201.61205 
L 871.656198 98.043277 
L 872.449587 174.092686 
L 873.242975 128.337572 
L 874.036364 225.623588 
L 874.829752 114.931032 
L 875.62314 181.926969 
L 876.416529 132.005894 
L 877.209917 223.523165 
L 878.003306 275.606008 
L 878.796694 188.704287 
L 879.590083 248.921424 
L 880.383471 108.23289 
L 881.17686 272.871086 
L 881.970248 211.925063 
L 882.763636 142.290466 
L 883.557025 185.419911 
L 884.350413 153.846131 
L 885.143802 265.210168 
L 885.93719 107.178762 
L 886.730579 218.020596 
L 887.523967 270.001931 
L 888.317355 280.706582 
L 889.110744 146.020862 
L 889.904132 249.21381 
L 890.697521 171.336633 
L 891.490909 222.467348 
L 892.284298 85.362541 
L 893.077686 222.639901 
L 893.871074 154.115035 
L 894.664463 259.669686 
L 895.457851 137.220297 
L 896.25124 184.294402 
L 897.044628 257.465769 
L 897.838017 186.604599 
L 898.631405 143.144295 
L 899.424793 72.373918 
L 900.218182 213.927208 
L 901.01157 185.314552 
L 901.804959 178.847208 
L 902.598347 170.846299 
L 903.391736 180.342534 
L 904.185124 213.141934 
L 904.978512 101.00539 
L 905.771901 240.796374 
L 906.565289 219.578767 
L 907.358678 257.656632 
L 908.152066 169.022428 
L 908.945455 136.802887 
L 909.738843 138.258399 
L 910.532231 175.800469 
L 911.32562 189.00455 
L 912.119008 194.314821 
L 912.912397 224.288696 
L 913.705785 184.471114 
L 914.499174 172.90341 
L 915.292562 193.437154 
L 916.08595 156.831218 
L 916.879339 126.742312 
L 917.672727 132.205212 
L 918.466116 202.662181 
L 919.259504 261.700471 
L 920.052893 240.4068 
L 920.846281 115.659028 
L 921.639669 82.858472 
L 922.433058 231.878301 
L 923.226446 145.59789 
L 924.019835 255.092107 
L 924.813223 196.493415 
L 925.606612 153.809676 
L 926.4 72.579584 
L 927.193388 111.517839 
L 927.986777 200.837641 
L 928.780165 170.482733 
L 929.573554 96.443743 
L 930.366942 241.221971 
L 931.953719 118.503481 
L 932.747107 103.286922 
L 933.540496 248.02441 
L 934.333884 223.312751 
L 935.127273 222.835511 
L 935.920661 171.340247 
L 936.71405 156.609334 
L 937.507438 222.042502 
L 938.300826 208.705559 
L 939.094215 147.711366 
L 939.887603 145.88519 
L 940.680992 159.031346 
L 941.47438 96.951131 
L 942.267769 279.014301 
L 943.854545 76.378791 
L 944.647934 131.347684 
L 945.441322 259.972488 
L 946.234711 149.027154 
L 947.028099 90.50454 
L 947.821488 133.304913 
L 948.614876 220.289023 
L 949.408264 162.965487 
L 950.201653 164.4616 
L 950.995041 256.501303 
L 951.78843 188.811393 
L 952.581818 169.823301 
L 953.375207 181.869108 
L 954.168595 277.625923 
L 954.961983 102.893602 
L 955.755372 235.101563 
L 956.54876 89.33599 
L 957.342149 108.313389 
L 958.135537 175.180342 
L 958.928926 258.362884 
L 959.722314 164.72761 
L 960.515702 253.850622 
L 961.309091 177.067311 
L 962.102479 222.106199 
L 962.895868 116.660335 
L 963.689256 168.818362 
L 964.482645 235.215698 
L 965.276033 153.362649 
L 966.069421 235.93192 
L 966.86281 140.89443 
L 967.656198 140.937265 
L 968.449587 217.935312 
L 969.242975 130.078608 
L 970.036364 247.761572 
L 970.829752 150.842722 
L 971.62314 157.339455 
L 972.416529 171.367152 
L 973.209917 238.148693 
L 974.003306 174.539752 
L 974.796694 147.464789 
L 975.590083 214.880761 
L 976.383471 168.335158 
L 977.17686 176.42124 
L 977.970248 145.386568 
L 978.763636 74.802774 
L 979.557025 161.573402 
L 980.350413 202.808876 
L 981.143802 214.768988 
L 981.93719 208.988893 
L 982.730579 219.328657 
L 984.317355 147.748087 
L 985.110744 175.417508 
L 985.904132 197.996807 
L 986.697521 120.702299 
L 987.490909 136.81391 
L 989.077686 214.053101 
L 989.871074 194.067975 
L 990.664463 89.780108 
L 991.457851 274.625882 
L 992.25124 218.167461 
L 993.044628 196.753111 
L 993.838017 119.020295 
L 994.631405 150.667997 
L 995.424793 109.123488 
L 996.218182 230.791868 
L 996.218182 230.791868 
" style="fill:none;stroke:#1f77b4;stroke-linecap:square;stroke-width:1.5;"/>
   </g>
   <g id="patch_3">
    <path d="M 144 307.584 
L 144 41.472 
" style="fill:none;stroke:#000000;stroke-linecap:square;stroke-linejoin:miter;stroke-width:0.8;"/>
   </g>
   <g id="patch_4">
    <path d="M 1036.8 307.584 
L 1036.8 41.472 
" style="fill:none;stroke:#000000;stroke-linecap:square;stroke-linejoin:miter;stroke-width:0.8;"/>
   </g>
   <g id="patch_5">
    <path d="M 144 307.584 
L 1036.8 307.584 
" style="fill:none;stroke:#000000;stroke-linecap:square;stroke-linejoin:miter;stroke-width:0.8;"/>
   </g>
   <g id="patch_6">
    <path d="M 144 41.472 
L 1036.8 41.472 
" style="fill:none;stroke:#000000;stroke-linecap:square;stroke-linejoin:miter;stroke-width:0.8;"/>
   </g>
   <g id="text_16">
    <!-- Transpose of the compressed signal -->
    <g transform="translate(482.84625 35.472)scale(0.12 -0.12)">
     <defs>
      <path d="M -0.296875 72.90625 
L 61.375 72.90625 
L 61.375 64.59375 
L 35.5 64.59375 
L 35.5 0 
L 25.59375 0 
L 25.59375 64.59375 
L -0.296875 64.59375 
z
" id="DejaVuSans-84"/>
      <path d="M 41.109375 46.296875 
Q 39.59375 47.171875 37.8125 47.578125 
Q 36.03125 48 33.890625 48 
Q 26.265625 48 22.1875 43.046875 
Q 18.109375 38.09375 18.109375 28.8125 
L 18.109375 0 
L 9.078125 0 
L 9.078125 54.6875 
L 18.109375 54.6875 
L 18.109375 46.1875 
Q 20.953125 51.171875 25.484375 53.578125 
Q 30.03125 56 36.53125 56 
Q 37.453125 56 38.578125 55.875 
Q 39.703125 55.765625 41.0625 55.515625 
z
" id="DejaVuSans-114"/>
      <path d="M 34.28125 27.484375 
Q 23.390625 27.484375 19.1875 25 
Q 14.984375 22.515625 14.984375 16.5 
Q 14.984375 11.71875 18.140625 8.90625 
Q 21.296875 6.109375 26.703125 6.109375 
Q 34.1875 6.109375 38.703125 11.40625 
Q 43.21875 16.703125 43.21875 25.484375 
L 43.21875 27.484375 
z
M 52.203125 31.203125 
L 52.203125 0 
L 43.21875 0 
L 43.21875 8.296875 
Q 40.140625 3.328125 35.546875 0.953125 
Q 30.953125 -1.421875 24.3125 -1.421875 
Q 15.921875 -1.421875 10.953125 3.296875 
Q 6 8.015625 6 15.921875 
Q 6 25.140625 12.171875 29.828125 
Q 18.359375 34.515625 30.609375 34.515625 
L 43.21875 34.515625 
L 43.21875 35.40625 
Q 43.21875 41.609375 39.140625 45 
Q 35.0625 48.390625 27.6875 48.390625 
Q 23 48.390625 18.546875 47.265625 
Q 14.109375 46.140625 10.015625 43.890625 
L 10.015625 52.203125 
Q 14.9375 54.109375 19.578125 55.046875 
Q 24.21875 56 28.609375 56 
Q 40.484375 56 46.34375 49.84375 
Q 52.203125 43.703125 52.203125 31.203125 
z
" id="DejaVuSans-97"/>
      <path d="M 54.890625 33.015625 
L 54.890625 0 
L 45.90625 0 
L 45.90625 32.71875 
Q 45.90625 40.484375 42.875 44.328125 
Q 39.84375 48.1875 33.796875 48.1875 
Q 26.515625 48.1875 22.3125 43.546875 
Q 18.109375 38.921875 18.109375 30.90625 
L 18.109375 0 
L 9.078125 0 
L 9.078125 54.6875 
L 18.109375 54.6875 
L 18.109375 46.1875 
Q 21.34375 51.125 25.703125 53.5625 
Q 30.078125 56 35.796875 56 
Q 45.21875 56 50.046875 50.171875 
Q 54.890625 44.34375 54.890625 33.015625 
z
" id="DejaVuSans-110"/>
      <path d="M 44.28125 53.078125 
L 44.28125 44.578125 
Q 40.484375 46.53125 36.375 47.5 
Q 32.28125 48.484375 27.875 48.484375 
Q 21.1875 48.484375 17.84375 46.4375 
Q 14.5 44.390625 14.5 40.28125 
Q 14.5 37.15625 16.890625 35.375 
Q 19.28125 33.59375 26.515625 31.984375 
L 29.59375 31.296875 
Q 39.15625 29.25 43.1875 25.515625 
Q 47.21875 21.78125 47.21875 15.09375 
Q 47.21875 7.46875 41.1875 3.015625 
Q 35.15625 -1.421875 24.609375 -1.421875 
Q 20.21875 -1.421875 15.453125 -0.5625 
Q 10.6875 0.296875 5.421875 2 
L 5.421875 11.28125 
Q 10.40625 8.6875 15.234375 7.390625 
Q 20.0625 6.109375 24.8125 6.109375 
Q 31.15625 6.109375 34.5625 8.28125 
Q 37.984375 10.453125 37.984375 14.40625 
Q 37.984375 18.0625 35.515625 20.015625 
Q 33.0625 21.96875 24.703125 23.78125 
L 21.578125 24.515625 
Q 13.234375 26.265625 9.515625 29.90625 
Q 5.8125 33.546875 5.8125 39.890625 
Q 5.8125 47.609375 11.28125 51.796875 
Q 16.75 56 26.8125 56 
Q 31.78125 56 36.171875 55.265625 
Q 40.578125 54.546875 44.28125 53.078125 
z
" id="DejaVuSans-115"/>
      <path d="M 18.109375 8.203125 
L 18.109375 -20.796875 
L 9.078125 -20.796875 
L 9.078125 54.6875 
L 18.109375 54.6875 
L 18.109375 46.390625 
Q 20.953125 51.265625 25.265625 53.625 
Q 29.59375 56 35.59375 56 
Q 45.5625 56 51.78125 48.09375 
Q 58.015625 40.1875 58.015625 27.296875 
Q 58.015625 14.40625 51.78125 6.484375 
Q 45.5625 -1.421875 35.59375 -1.421875 
Q 29.59375 -1.421875 25.265625 0.953125 
Q 20.953125 3.328125 18.109375 8.203125 
z
M 48.6875 27.296875 
Q 48.6875 37.203125 44.609375 42.84375 
Q 40.53125 48.484375 33.40625 48.484375 
Q 26.265625 48.484375 22.1875 42.84375 
Q 18.109375 37.203125 18.109375 27.296875 
Q 18.109375 17.390625 22.1875 11.75 
Q 26.265625 6.109375 33.40625 6.109375 
Q 40.53125 6.109375 44.609375 11.75 
Q 48.6875 17.390625 48.6875 27.296875 
z
" id="DejaVuSans-112"/>
      <path d="M 30.609375 48.390625 
Q 23.390625 48.390625 19.1875 42.75 
Q 14.984375 37.109375 14.984375 27.296875 
Q 14.984375 17.484375 19.15625 11.84375 
Q 23.34375 6.203125 30.609375 6.203125 
Q 37.796875 6.203125 41.984375 11.859375 
Q 46.1875 17.53125 46.1875 27.296875 
Q 46.1875 37.015625 41.984375 42.703125 
Q 37.796875 48.390625 30.609375 48.390625 
z
M 30.609375 56 
Q 42.328125 56 49.015625 48.375 
Q 55.71875 40.765625 55.71875 27.296875 
Q 55.71875 13.875 49.015625 6.21875 
Q 42.328125 -1.421875 30.609375 -1.421875 
Q 18.84375 -1.421875 12.171875 6.21875 
Q 5.515625 13.875 5.515625 27.296875 
Q 5.515625 40.765625 12.171875 48.375 
Q 18.84375 56 30.609375 56 
z
" id="DejaVuSans-111"/>
      <path d="M 56.203125 29.59375 
L 56.203125 25.203125 
L 14.890625 25.203125 
Q 15.484375 15.921875 20.484375 11.0625 
Q 25.484375 6.203125 34.421875 6.203125 
Q 39.59375 6.203125 44.453125 7.46875 
Q 49.3125 8.734375 54.109375 11.28125 
L 54.109375 2.78125 
Q 49.265625 0.734375 44.1875 -0.34375 
Q 39.109375 -1.421875 33.890625 -1.421875 
Q 20.796875 -1.421875 13.15625 6.1875 
Q 5.515625 13.8125 5.515625 26.8125 
Q 5.515625 40.234375 12.765625 48.109375 
Q 20.015625 56 32.328125 56 
Q 43.359375 56 49.78125 48.890625 
Q 56.203125 41.796875 56.203125 29.59375 
z
M 47.21875 32.234375 
Q 47.125 39.59375 43.09375 43.984375 
Q 39.0625 48.390625 32.421875 48.390625 
Q 24.90625 48.390625 20.390625 44.140625 
Q 15.875 39.890625 15.1875 32.171875 
z
" id="DejaVuSans-101"/>
      <path id="DejaVuSans-32"/>
      <path d="M 37.109375 75.984375 
L 37.109375 68.5 
L 28.515625 68.5 
Q 23.6875 68.5 21.796875 66.546875 
Q 19.921875 64.59375 19.921875 59.515625 
L 19.921875 54.6875 
L 34.71875 54.6875 
L 34.71875 47.703125 
L 19.921875 47.703125 
L 19.921875 0 
L 10.890625 0 
L 10.890625 47.703125 
L 2.296875 47.703125 
L 2.296875 54.6875 
L 10.890625 54.6875 
L 10.890625 58.5 
Q 10.890625 67.625 15.140625 71.796875 
Q 19.390625 75.984375 28.609375 75.984375 
z
" id="DejaVuSans-102"/>
      <path d="M 18.3125 70.21875 
L 18.3125 54.6875 
L 36.8125 54.6875 
L 36.8125 47.703125 
L 18.3125 47.703125 
L 18.3125 18.015625 
Q 18.3125 11.328125 20.140625 9.421875 
Q 21.96875 7.515625 27.59375 7.515625 
L 36.8125 7.515625 
L 36.8125 0 
L 27.59375 0 
Q 17.1875 0 13.234375 3.875 
Q 9.28125 7.765625 9.28125 18.015625 
L 9.28125 47.703125 
L 2.6875 47.703125 
L 2.6875 54.6875 
L 9.28125 54.6875 
L 9.28125 70.21875 
z
" id="DejaVuSans-116"/>
      <path d="M 54.890625 33.015625 
L 54.890625 0 
L 45.90625 0 
L 45.90625 32.71875 
Q 45.90625 40.484375 42.875 44.328125 
Q 39.84375 48.1875 33.796875 48.1875 
Q 26.515625 48.1875 22.3125 43.546875 
Q 18.109375 38.921875 18.109375 30.90625 
L 18.109375 0 
L 9.078125 0 
L 9.078125 75.984375 
L 18.109375 75.984375 
L 18.109375 46.1875 
Q 21.34375 51.125 25.703125 53.5625 
Q 30.078125 56 35.796875 56 
Q 45.21875 56 50.046875 50.171875 
Q 54.890625 44.34375 54.890625 33.015625 
z
" id="DejaVuSans-104"/>
      <path d="M 48.78125 52.59375 
L 48.78125 44.1875 
Q 44.96875 46.296875 41.140625 47.34375 
Q 37.3125 48.390625 33.40625 48.390625 
Q 24.65625 48.390625 19.8125 42.84375 
Q 14.984375 37.3125 14.984375 27.296875 
Q 14.984375 17.28125 19.8125 11.734375 
Q 24.65625 6.203125 33.40625 6.203125 
Q 37.3125 6.203125 41.140625 7.25 
Q 44.96875 8.296875 48.78125 10.40625 
L 48.78125 2.09375 
Q 45.015625 0.34375 40.984375 -0.53125 
Q 36.96875 -1.421875 32.421875 -1.421875 
Q 20.0625 -1.421875 12.78125 6.34375 
Q 5.515625 14.109375 5.515625 27.296875 
Q 5.515625 40.671875 12.859375 48.328125 
Q 20.21875 56 33.015625 56 
Q 37.15625 56 41.109375 55.140625 
Q 45.0625 54.296875 48.78125 52.59375 
z
" id="DejaVuSans-99"/>
      <path d="M 52 44.1875 
Q 55.375 50.25 60.0625 53.125 
Q 64.75 56 71.09375 56 
Q 79.640625 56 84.28125 50.015625 
Q 88.921875 44.046875 88.921875 33.015625 
L 88.921875 0 
L 79.890625 0 
L 79.890625 32.71875 
Q 79.890625 40.578125 77.09375 44.375 
Q 74.3125 48.1875 68.609375 48.1875 
Q 61.625 48.1875 57.5625 43.546875 
Q 53.515625 38.921875 53.515625 30.90625 
L 53.515625 0 
L 44.484375 0 
L 44.484375 32.71875 
Q 44.484375 40.625 41.703125 44.40625 
Q 38.921875 48.1875 33.109375 48.1875 
Q 26.21875 48.1875 22.15625 43.53125 
Q 18.109375 38.875 18.109375 30.90625 
L 18.109375 0 
L 9.078125 0 
L 9.078125 54.6875 
L 18.109375 54.6875 
L 18.109375 46.1875 
Q 21.1875 51.21875 25.484375 53.609375 
Q 29.78125 56 35.6875 56 
Q 41.65625 56 45.828125 52.96875 
Q 50 49.953125 52 44.1875 
z
" id="DejaVuSans-109"/>
      <path d="M 45.40625 46.390625 
L 45.40625 75.984375 
L 54.390625 75.984375 
L 54.390625 0 
L 45.40625 0 
L 45.40625 8.203125 
Q 42.578125 3.328125 38.25 0.953125 
Q 33.9375 -1.421875 27.875 -1.421875 
Q 17.96875 -1.421875 11.734375 6.484375 
Q 5.515625 14.40625 5.515625 27.296875 
Q 5.515625 40.1875 11.734375 48.09375 
Q 17.96875 56 27.875 56 
Q 33.9375 56 38.25 53.625 
Q 42.578125 51.265625 45.40625 46.390625 
z
M 14.796875 27.296875 
Q 14.796875 17.390625 18.875 11.75 
Q 22.953125 6.109375 30.078125 6.109375 
Q 37.203125 6.109375 41.296875 11.75 
Q 45.40625 17.390625 45.40625 27.296875 
Q 45.40625 37.203125 41.296875 42.84375 
Q 37.203125 48.484375 30.078125 48.484375 
Q 22.953125 48.484375 18.875 42.84375 
Q 14.796875 37.203125 14.796875 27.296875 
z
" id="DejaVuSans-100"/>
      <path d="M 9.421875 54.6875 
L 18.40625 54.6875 
L 18.40625 0 
L 9.421875 0 
z
M 9.421875 75.984375 
L 18.40625 75.984375 
L 18.40625 64.59375 
L 9.421875 64.59375 
z
" id="DejaVuSans-105"/>
      <path d="M 45.40625 27.984375 
Q 45.40625 37.75 41.375 43.109375 
Q 37.359375 48.484375 30.078125 48.484375 
Q 22.859375 48.484375 18.828125 43.109375 
Q 14.796875 37.75 14.796875 27.984375 
Q 14.796875 18.265625 18.828125 12.890625 
Q 22.859375 7.515625 30.078125 7.515625 
Q 37.359375 7.515625 41.375 12.890625 
Q 45.40625 18.265625 45.40625 27.984375 
z
M 54.390625 6.78125 
Q 54.390625 -7.171875 48.1875 -13.984375 
Q 42 -20.796875 29.203125 -20.796875 
Q 24.46875 -20.796875 20.265625 -20.09375 
Q 16.0625 -19.390625 12.109375 -17.921875 
L 12.109375 -9.1875 
Q 16.0625 -11.328125 19.921875 -12.34375 
Q 23.78125 -13.375 27.78125 -13.375 
Q 36.625 -13.375 41.015625 -8.765625 
Q 45.40625 -4.15625 45.40625 5.171875 
L 45.40625 9.625 
Q 42.625 4.78125 38.28125 2.390625 
Q 33.9375 0 27.875 0 
Q 17.828125 0 11.671875 7.65625 
Q 5.515625 15.328125 5.515625 27.984375 
Q 5.515625 40.671875 11.671875 48.328125 
Q 17.828125 56 27.875 56 
Q 33.9375 56 38.28125 53.609375 
Q 42.625 51.21875 45.40625 46.390625 
L 45.40625 54.6875 
L 54.390625 54.6875 
z
" id="DejaVuSans-103"/>
      <path d="M 9.421875 75.984375 
L 18.40625 75.984375 
L 18.40625 0 
L 9.421875 0 
z
" id="DejaVuSans-108"/>
     </defs>
     <use xlink:href="#DejaVuSans-84"/>
     <use x="46.333984" xlink:href="#DejaVuSans-114"/>
     <use x="87.447266" xlink:href="#DejaVuSans-97"/>
     <use x="148.726562" xlink:href="#DejaVuSans-110"/>
     <use x="212.105469" xlink:href="#DejaVuSans-115"/>
     <use x="264.205078" xlink:href="#DejaVuSans-112"/>
     <use x="327.681641" xlink:href="#DejaVuSans-111"/>
     <use x="388.863281" xlink:href="#DejaVuSans-115"/>
     <use x="440.962891" xlink:href="#DejaVuSans-101"/>
     <use x="502.486328" xlink:href="#DejaVuSans-32"/>
     <use x="534.273438" xlink:href="#DejaVuSans-111"/>
     <use x="595.455078" xlink:href="#DejaVuSans-102"/>
     <use x="630.660156" xlink:href="#DejaVuSans-32"/>
     <use x="662.447266" xlink:href="#DejaVuSans-116"/>
     <use x="701.65625" xlink:href="#DejaVuSans-104"/>
     <use x="765.035156" xlink:href="#DejaVuSans-101"/>
     <use x="826.558594" xlink:href="#DejaVuSans-32"/>
     <use x="858.345703" xlink:href="#DejaVuSans-99"/>
     <use x="913.326172" xlink:href="#DejaVuSans-111"/>
     <use x="974.507812" xlink:href="#DejaVuSans-109"/>
     <use x="1071.919922" xlink:href="#DejaVuSans-112"/>
     <use x="1135.396484" xlink:href="#DejaVuSans-114"/>
     <use x="1174.259766" xlink:href="#DejaVuSans-101"/>
     <use x="1235.783203" xlink:href="#DejaVuSans-115"/>
     <use x="1287.882812" xlink:href="#DejaVuSans-115"/>
     <use x="1339.982422" xlink:href="#DejaVuSans-101"/>
     <use x="1401.505859" xlink:href="#DejaVuSans-100"/>
     <use x="1464.982422" xlink:href="#DejaVuSans-32"/>
     <use x="1496.769531" xlink:href="#DejaVuSans-115"/>
     <use x="1548.869141" xlink:href="#DejaVuSans-105"/>
     <use x="1576.652344" xlink:href="#DejaVuSans-103"/>
     <use x="1640.128906" xlink:href="#DejaVuSans-110"/>
     <use x="1703.507812" xlink:href="#DejaVuSans-97"/>
     <use x="1764.787109" xlink:href="#DejaVuSans-108"/>
    </g>
   </g>
  </g>
 </g>
 <defs>
  <clipPath id="p7329d8e166">
   <rect height="266.112" width="892.8" x="144" y="41.472"/>
  </clipPath>
 </defs>
</svg>
