<?xml version="1.0" encoding="utf-8" standalone="no"?>
<!DOCTYPE svg PUBLIC "-//W3C//DTD SVG 1.1//EN"
  "http://www.w3.org/Graphics/SVG/1.1/DTD/svg11.dtd">
<!-- Created with matplotlib (https://matplotlib.org/) -->
<svg height="345.6pt" version="1.1" viewBox="0 0 1152 345.6" width="1152pt" xmlns="http://www.w3.org/2000/svg" xmlns:xlink="http://www.w3.org/1999/xlink">
 <metadata>
  <rdf:RDF xmlns:cc="http://creativecommons.org/ns#" xmlns:dc="http://purl.org/dc/elements/1.1/" xmlns:rdf="http://www.w3.org/1999/02/22-rdf-syntax-ns#">
   <cc:Work>
    <dc:type rdf:resource="http://purl.org/dc/dcmitype/StillImage"/>
    <dc:date>2021-12-24T07:22:21.484821</dc:date>
    <dc:format>image/svg+xml</dc:format>
    <dc:creator>
     <cc:Agent>
      <dc:title>Matplotlib v3.3.3, https://matplotlib.org/</dc:title>
     </cc:Agent>
    </dc:creator>
   </cc:Work>
  </rdf:RDF>
 </metadata>
 <defs>
  <style type="text/css">*{stroke-linecap:butt;stroke-linejoin:round;}</style>
 </defs>
 <g id="figure_1">
  <g id="patch_1">
   <path d="M 0 345.6 
L 1152 345.6 
L 1152 0 
L 0 0 
z
" style="fill:#ffffff;"/>
  </g>
  <g id="axes_1">
   <g id="patch_2">
    <path d="M 144 307.584 
L 1036.8 307.584 
L 1036.8 41.472 
L 144 41.472 
z
" style="fill:#ffffff;"/>
   </g>
   <g id="matplotlib.axis_1">
    <g id="xtick_1">
     <g id="line2d_1">
      <defs>
       <path d="M 0 0 
L 0 3.5 
" id="m349bac98b6" style="stroke:#000000;stroke-width:0.8;"/>
      </defs>
      <g>
       <use style="stroke:#000000;stroke-width:0.8;" x="184.581818" xlink:href="#m349bac98b6" y="307.584"/>
      </g>
     </g>
     <g id="text_1">
      <!-- 0 -->
      <g transform="translate(181.400568 322.182437)scale(0.1 -0.1)">
       <defs>
        <path d="M 31.78125 66.40625 
Q 24.171875 66.40625 20.328125 58.90625 
Q 16.5 51.421875 16.5 36.375 
Q 16.5 21.390625 20.328125 13.890625 
Q 24.171875 6.390625 31.78125 6.390625 
Q 39.453125 6.390625 43.28125 13.890625 
Q 47.125 21.390625 47.125 36.375 
Q 47.125 51.421875 43.28125 58.90625 
Q 39.453125 66.40625 31.78125 66.40625 
z
M 31.78125 74.21875 
Q 44.046875 74.21875 50.515625 64.515625 
Q 56.984375 54.828125 56.984375 36.375 
Q 56.984375 17.96875 50.515625 8.265625 
Q 44.046875 -1.421875 31.78125 -1.421875 
Q 19.53125 -1.421875 13.0625 8.265625 
Q 6.59375 17.96875 6.59375 36.375 
Q 6.59375 54.828125 13.0625 64.515625 
Q 19.53125 74.21875 31.78125 74.21875 
z
" id="DejaVuSans-48"/>
       </defs>
       <use xlink:href="#DejaVuSans-48"/>
      </g>
     </g>
    </g>
    <g id="xtick_2">
     <g id="line2d_2">
      <g>
       <use style="stroke:#000000;stroke-width:0.8;" x="343.259504" xlink:href="#m349bac98b6" y="307.584"/>
      </g>
     </g>
     <g id="text_2">
      <!-- 200 -->
      <g transform="translate(333.715754 322.182437)scale(0.1 -0.1)">
       <defs>
        <path d="M 19.1875 8.296875 
L 53.609375 8.296875 
L 53.609375 0 
L 7.328125 0 
L 7.328125 8.296875 
Q 12.9375 14.109375 22.625 23.890625 
Q 32.328125 33.6875 34.8125 36.53125 
Q 39.546875 41.84375 41.421875 45.53125 
Q 43.3125 49.21875 43.3125 52.78125 
Q 43.3125 58.59375 39.234375 62.25 
Q 35.15625 65.921875 28.609375 65.921875 
Q 23.96875 65.921875 18.8125 64.3125 
Q 13.671875 62.703125 7.8125 59.421875 
L 7.8125 69.390625 
Q 13.765625 71.78125 18.9375 73 
Q 24.125 74.21875 28.421875 74.21875 
Q 39.75 74.21875 46.484375 68.546875 
Q 53.21875 62.890625 53.21875 53.421875 
Q 53.21875 48.921875 51.53125 44.890625 
Q 49.859375 40.875 45.40625 35.40625 
Q 44.1875 33.984375 37.640625 27.21875 
Q 31.109375 20.453125 19.1875 8.296875 
z
" id="DejaVuSans-50"/>
       </defs>
       <use xlink:href="#DejaVuSans-50"/>
       <use x="63.623047" xlink:href="#DejaVuSans-48"/>
       <use x="127.246094" xlink:href="#DejaVuSans-48"/>
      </g>
     </g>
    </g>
    <g id="xtick_3">
     <g id="line2d_3">
      <g>
       <use style="stroke:#000000;stroke-width:0.8;" x="501.93719" xlink:href="#m349bac98b6" y="307.584"/>
      </g>
     </g>
     <g id="text_3">
      <!-- 400 -->
      <g transform="translate(492.39344 322.182437)scale(0.1 -0.1)">
       <defs>
        <path d="M 37.796875 64.3125 
L 12.890625 25.390625 
L 37.796875 25.390625 
z
M 35.203125 72.90625 
L 47.609375 72.90625 
L 47.609375 25.390625 
L 58.015625 25.390625 
L 58.015625 17.1875 
L 47.609375 17.1875 
L 47.609375 0 
L 37.796875 0 
L 37.796875 17.1875 
L 4.890625 17.1875 
L 4.890625 26.703125 
z
" id="DejaVuSans-52"/>
       </defs>
       <use xlink:href="#DejaVuSans-52"/>
       <use x="63.623047" xlink:href="#DejaVuSans-48"/>
       <use x="127.246094" xlink:href="#DejaVuSans-48"/>
      </g>
     </g>
    </g>
    <g id="xtick_4">
     <g id="line2d_4">
      <g>
       <use style="stroke:#000000;stroke-width:0.8;" x="660.614876" xlink:href="#m349bac98b6" y="307.584"/>
      </g>
     </g>
     <g id="text_4">
      <!-- 600 -->
      <g transform="translate(651.071126 322.182437)scale(0.1 -0.1)">
       <defs>
        <path d="M 33.015625 40.375 
Q 26.375 40.375 22.484375 35.828125 
Q 18.609375 31.296875 18.609375 23.390625 
Q 18.609375 15.53125 22.484375 10.953125 
Q 26.375 6.390625 33.015625 6.390625 
Q 39.65625 6.390625 43.53125 10.953125 
Q 47.40625 15.53125 47.40625 23.390625 
Q 47.40625 31.296875 43.53125 35.828125 
Q 39.65625 40.375 33.015625 40.375 
z
M 52.59375 71.296875 
L 52.59375 62.3125 
Q 48.875 64.0625 45.09375 64.984375 
Q 41.3125 65.921875 37.59375 65.921875 
Q 27.828125 65.921875 22.671875 59.328125 
Q 17.53125 52.734375 16.796875 39.40625 
Q 19.671875 43.65625 24.015625 45.921875 
Q 28.375 48.1875 33.59375 48.1875 
Q 44.578125 48.1875 50.953125 41.515625 
Q 57.328125 34.859375 57.328125 23.390625 
Q 57.328125 12.15625 50.6875 5.359375 
Q 44.046875 -1.421875 33.015625 -1.421875 
Q 20.359375 -1.421875 13.671875 8.265625 
Q 6.984375 17.96875 6.984375 36.375 
Q 6.984375 53.65625 15.1875 63.9375 
Q 23.390625 74.21875 37.203125 74.21875 
Q 40.921875 74.21875 44.703125 73.484375 
Q 48.484375 72.75 52.59375 71.296875 
z
" id="DejaVuSans-54"/>
       </defs>
       <use xlink:href="#DejaVuSans-54"/>
       <use x="63.623047" xlink:href="#DejaVuSans-48"/>
       <use x="127.246094" xlink:href="#DejaVuSans-48"/>
      </g>
     </g>
    </g>
    <g id="xtick_5">
     <g id="line2d_5">
      <g>
       <use style="stroke:#000000;stroke-width:0.8;" x="819.292562" xlink:href="#m349bac98b6" y="307.584"/>
      </g>
     </g>
     <g id="text_5">
      <!-- 800 -->
      <g transform="translate(809.748812 322.182437)scale(0.1 -0.1)">
       <defs>
        <path d="M 31.78125 34.625 
Q 24.75 34.625 20.71875 30.859375 
Q 16.703125 27.09375 16.703125 20.515625 
Q 16.703125 13.921875 20.71875 10.15625 
Q 24.75 6.390625 31.78125 6.390625 
Q 38.8125 6.390625 42.859375 10.171875 
Q 46.921875 13.96875 46.921875 20.515625 
Q 46.921875 27.09375 42.890625 30.859375 
Q 38.875 34.625 31.78125 34.625 
z
M 21.921875 38.8125 
Q 15.578125 40.375 12.03125 44.71875 
Q 8.5 49.078125 8.5 55.328125 
Q 8.5 64.0625 14.71875 69.140625 
Q 20.953125 74.21875 31.78125 74.21875 
Q 42.671875 74.21875 48.875 69.140625 
Q 55.078125 64.0625 55.078125 55.328125 
Q 55.078125 49.078125 51.53125 44.71875 
Q 48 40.375 41.703125 38.8125 
Q 48.828125 37.15625 52.796875 32.3125 
Q 56.78125 27.484375 56.78125 20.515625 
Q 56.78125 9.90625 50.3125 4.234375 
Q 43.84375 -1.421875 31.78125 -1.421875 
Q 19.734375 -1.421875 13.25 4.234375 
Q 6.78125 9.90625 6.78125 20.515625 
Q 6.78125 27.484375 10.78125 32.3125 
Q 14.796875 37.15625 21.921875 38.8125 
z
M 18.3125 54.390625 
Q 18.3125 48.734375 21.84375 45.5625 
Q 25.390625 42.390625 31.78125 42.390625 
Q 38.140625 42.390625 41.71875 45.5625 
Q 45.3125 48.734375 45.3125 54.390625 
Q 45.3125 60.0625 41.71875 63.234375 
Q 38.140625 66.40625 31.78125 66.40625 
Q 25.390625 66.40625 21.84375 63.234375 
Q 18.3125 60.0625 18.3125 54.390625 
z
" id="DejaVuSans-56"/>
       </defs>
       <use xlink:href="#DejaVuSans-56"/>
       <use x="63.623047" xlink:href="#DejaVuSans-48"/>
       <use x="127.246094" xlink:href="#DejaVuSans-48"/>
      </g>
     </g>
    </g>
    <g id="xtick_6">
     <g id="line2d_6">
      <g>
       <use style="stroke:#000000;stroke-width:0.8;" x="977.970248" xlink:href="#m349bac98b6" y="307.584"/>
      </g>
     </g>
     <g id="text_6">
      <!-- 1000 -->
      <g transform="translate(965.245248 322.182437)scale(0.1 -0.1)">
       <defs>
        <path d="M 12.40625 8.296875 
L 28.515625 8.296875 
L 28.515625 63.921875 
L 10.984375 60.40625 
L 10.984375 69.390625 
L 28.421875 72.90625 
L 38.28125 72.90625 
L 38.28125 8.296875 
L 54.390625 8.296875 
L 54.390625 0 
L 12.40625 0 
z
" id="DejaVuSans-49"/>
       </defs>
       <use xlink:href="#DejaVuSans-49"/>
       <use x="63.623047" xlink:href="#DejaVuSans-48"/>
       <use x="127.246094" xlink:href="#DejaVuSans-48"/>
       <use x="190.869141" xlink:href="#DejaVuSans-48"/>
      </g>
     </g>
    </g>
   </g>
   <g id="matplotlib.axis_2">
    <g id="ytick_1">
     <g id="line2d_7">
      <defs>
       <path d="M 0 0 
L -3.5 0 
" id="mcd1f337d5c" style="stroke:#000000;stroke-width:0.8;"/>
      </defs>
      <g>
       <use style="stroke:#000000;stroke-width:0.8;" x="144" xlink:href="#mcd1f337d5c" y="293.55468"/>
      </g>
     </g>
     <g id="text_7">
      <!-- −0.001 -->
      <g transform="translate(99.992188 297.353899)scale(0.1 -0.1)">
       <defs>
        <path d="M 10.59375 35.5 
L 73.1875 35.5 
L 73.1875 27.203125 
L 10.59375 27.203125 
z
" id="DejaVuSans-8722"/>
        <path d="M 10.6875 12.40625 
L 21 12.40625 
L 21 0 
L 10.6875 0 
z
" id="DejaVuSans-46"/>
       </defs>
       <use xlink:href="#DejaVuSans-8722"/>
       <use x="83.789062" xlink:href="#DejaVuSans-48"/>
       <use x="147.412109" xlink:href="#DejaVuSans-46"/>
       <use x="179.199219" xlink:href="#DejaVuSans-48"/>
       <use x="242.822266" xlink:href="#DejaVuSans-48"/>
       <use x="306.445312" xlink:href="#DejaVuSans-49"/>
      </g>
     </g>
    </g>
    <g id="ytick_2">
     <g id="line2d_8">
      <g>
       <use style="stroke:#000000;stroke-width:0.8;" x="144" xlink:href="#mcd1f337d5c" y="252.838896"/>
      </g>
     </g>
     <g id="text_8">
      <!-- 0.000 -->
      <g transform="translate(108.371875 256.638115)scale(0.1 -0.1)">
       <use xlink:href="#DejaVuSans-48"/>
       <use x="63.623047" xlink:href="#DejaVuSans-46"/>
       <use x="95.410156" xlink:href="#DejaVuSans-48"/>
       <use x="159.033203" xlink:href="#DejaVuSans-48"/>
       <use x="222.65625" xlink:href="#DejaVuSans-48"/>
      </g>
     </g>
    </g>
    <g id="ytick_3">
     <g id="line2d_9">
      <g>
       <use style="stroke:#000000;stroke-width:0.8;" x="144" xlink:href="#mcd1f337d5c" y="212.123112"/>
      </g>
     </g>
     <g id="text_9">
      <!-- 0.001 -->
      <g transform="translate(108.371875 215.922331)scale(0.1 -0.1)">
       <use xlink:href="#DejaVuSans-48"/>
       <use x="63.623047" xlink:href="#DejaVuSans-46"/>
       <use x="95.410156" xlink:href="#DejaVuSans-48"/>
       <use x="159.033203" xlink:href="#DejaVuSans-48"/>
       <use x="222.65625" xlink:href="#DejaVuSans-49"/>
      </g>
     </g>
    </g>
    <g id="ytick_4">
     <g id="line2d_10">
      <g>
       <use style="stroke:#000000;stroke-width:0.8;" x="144" xlink:href="#mcd1f337d5c" y="171.407329"/>
      </g>
     </g>
     <g id="text_10">
      <!-- 0.002 -->
      <g transform="translate(108.371875 175.206547)scale(0.1 -0.1)">
       <use xlink:href="#DejaVuSans-48"/>
       <use x="63.623047" xlink:href="#DejaVuSans-46"/>
       <use x="95.410156" xlink:href="#DejaVuSans-48"/>
       <use x="159.033203" xlink:href="#DejaVuSans-48"/>
       <use x="222.65625" xlink:href="#DejaVuSans-50"/>
      </g>
     </g>
    </g>
    <g id="ytick_5">
     <g id="line2d_11">
      <g>
       <use style="stroke:#000000;stroke-width:0.8;" x="144" xlink:href="#mcd1f337d5c" y="130.691545"/>
      </g>
     </g>
     <g id="text_11">
      <!-- 0.003 -->
      <g transform="translate(108.371875 134.490763)scale(0.1 -0.1)">
       <defs>
        <path d="M 40.578125 39.3125 
Q 47.65625 37.796875 51.625 33 
Q 55.609375 28.21875 55.609375 21.1875 
Q 55.609375 10.40625 48.1875 4.484375 
Q 40.765625 -1.421875 27.09375 -1.421875 
Q 22.515625 -1.421875 17.65625 -0.515625 
Q 12.796875 0.390625 7.625 2.203125 
L 7.625 11.71875 
Q 11.71875 9.328125 16.59375 8.109375 
Q 21.484375 6.890625 26.8125 6.890625 
Q 36.078125 6.890625 40.9375 10.546875 
Q 45.796875 14.203125 45.796875 21.1875 
Q 45.796875 27.640625 41.28125 31.265625 
Q 36.765625 34.90625 28.71875 34.90625 
L 20.21875 34.90625 
L 20.21875 43.015625 
L 29.109375 43.015625 
Q 36.375 43.015625 40.234375 45.921875 
Q 44.09375 48.828125 44.09375 54.296875 
Q 44.09375 59.90625 40.109375 62.90625 
Q 36.140625 65.921875 28.71875 65.921875 
Q 24.65625 65.921875 20.015625 65.03125 
Q 15.375 64.15625 9.8125 62.3125 
L 9.8125 71.09375 
Q 15.4375 72.65625 20.34375 73.4375 
Q 25.25 74.21875 29.59375 74.21875 
Q 40.828125 74.21875 47.359375 69.109375 
Q 53.90625 64.015625 53.90625 55.328125 
Q 53.90625 49.265625 50.4375 45.09375 
Q 46.96875 40.921875 40.578125 39.3125 
z
" id="DejaVuSans-51"/>
       </defs>
       <use xlink:href="#DejaVuSans-48"/>
       <use x="63.623047" xlink:href="#DejaVuSans-46"/>
       <use x="95.410156" xlink:href="#DejaVuSans-48"/>
       <use x="159.033203" xlink:href="#DejaVuSans-48"/>
       <use x="222.65625" xlink:href="#DejaVuSans-51"/>
      </g>
     </g>
    </g>
    <g id="ytick_6">
     <g id="line2d_12">
      <g>
       <use style="stroke:#000000;stroke-width:0.8;" x="144" xlink:href="#mcd1f337d5c" y="89.975761"/>
      </g>
     </g>
     <g id="text_12">
      <!-- 0.004 -->
      <g transform="translate(108.371875 93.774979)scale(0.1 -0.1)">
       <use xlink:href="#DejaVuSans-48"/>
       <use x="63.623047" xlink:href="#DejaVuSans-46"/>
       <use x="95.410156" xlink:href="#DejaVuSans-48"/>
       <use x="159.033203" xlink:href="#DejaVuSans-48"/>
       <use x="222.65625" xlink:href="#DejaVuSans-52"/>
      </g>
     </g>
    </g>
    <g id="ytick_7">
     <g id="line2d_13">
      <g>
       <use style="stroke:#000000;stroke-width:0.8;" x="144" xlink:href="#mcd1f337d5c" y="49.259977"/>
      </g>
     </g>
     <g id="text_13">
      <!-- 0.005 -->
      <g transform="translate(108.371875 53.059196)scale(0.1 -0.1)">
       <defs>
        <path d="M 10.796875 72.90625 
L 49.515625 72.90625 
L 49.515625 64.59375 
L 19.828125 64.59375 
L 19.828125 46.734375 
Q 21.96875 47.46875 24.109375 47.828125 
Q 26.265625 48.1875 28.421875 48.1875 
Q 40.625 48.1875 47.75 41.5 
Q 54.890625 34.8125 54.890625 23.390625 
Q 54.890625 11.625 47.5625 5.09375 
Q 40.234375 -1.421875 26.90625 -1.421875 
Q 22.3125 -1.421875 17.546875 -0.640625 
Q 12.796875 0.140625 7.71875 1.703125 
L 7.71875 11.625 
Q 12.109375 9.234375 16.796875 8.0625 
Q 21.484375 6.890625 26.703125 6.890625 
Q 35.15625 6.890625 40.078125 11.328125 
Q 45.015625 15.765625 45.015625 23.390625 
Q 45.015625 31 40.078125 35.4375 
Q 35.15625 39.890625 26.703125 39.890625 
Q 22.75 39.890625 18.8125 39.015625 
Q 14.890625 38.140625 10.796875 36.28125 
z
" id="DejaVuSans-53"/>
       </defs>
       <use xlink:href="#DejaVuSans-48"/>
       <use x="63.623047" xlink:href="#DejaVuSans-46"/>
       <use x="95.410156" xlink:href="#DejaVuSans-48"/>
       <use x="159.033203" xlink:href="#DejaVuSans-48"/>
       <use x="222.65625" xlink:href="#DejaVuSans-53"/>
      </g>
     </g>
    </g>
   </g>
   <g id="line2d_14">
    <path clip-path="url(#p9725e096ef)" d="M 184.581818 241.555998 
L 185.375207 283.373422 
L 186.168595 288.872791 
L 187.755372 201.524417 
L 188.54876 178.080764 
L 189.342149 162.442323 
L 190.135537 154.880809 
L 190.928926 169.377824 
L 191.722314 189.930261 
L 192.515702 217.02994 
L 193.309091 205.480974 
L 194.102479 154.176852 
L 194.895868 137.44778 
L 195.689256 161.027034 
L 196.482645 202.865418 
L 197.276033 231.581363 
L 198.069421 171.28311 
L 198.86281 142.689756 
L 199.656198 171.665595 
L 200.449587 188.087244 
L 201.242975 189.811269 
L 202.036364 165.542283 
L 202.829752 167.406246 
L 203.62314 214.256755 
L 204.416529 250.795091 
L 205.209917 234.174223 
L 206.003306 178.349234 
L 206.796694 149.341316 
L 207.590083 164.024241 
L 208.383471 152.141009 
L 209.17686 124.478599 
L 209.970248 161.729796 
L 210.763636 186.356559 
L 211.557025 189.272205 
L 213.143802 148.299932 
L 213.93719 169.185894 
L 214.730579 207.386805 
L 215.523967 221.832105 
L 216.317355 192.08947 
L 217.110744 152.699441 
L 217.904132 172.284783 
L 218.697521 224.231745 
L 219.490909 213.021623 
L 221.077686 102.517628 
L 221.871074 97.634882 
L 222.664463 180.860597 
L 223.457851 226.512339 
L 224.25124 222.438341 
L 225.044628 212.539306 
L 225.838017 200.12623 
L 226.631405 215.69085 
L 227.424793 200.50114 
L 228.218182 175.712409 
L 229.01157 177.787835 
L 229.804959 199.658587 
L 230.598347 202.859237 
L 231.391736 182.184249 
L 232.185124 173.704656 
L 232.978512 195.840422 
L 233.771901 201.131552 
L 234.565289 184.74851 
L 235.358678 207.397915 
L 237.738843 217.682403 
L 239.32562 177.145516 
L 240.119008 177.017083 
L 240.912397 192.078473 
L 241.705785 217.810419 
L 242.499174 204.992836 
L 243.292562 186.137654 
L 244.08595 172.107983 
L 244.879339 163.342087 
L 245.672727 162.263059 
L 246.466116 173.26978 
L 247.259504 167.453645 
L 248.052893 190.490346 
L 248.846281 188.392453 
L 250.433058 199.726785 
L 251.226446 200.561792 
L 252.019835 213.921944 
L 252.813223 207.69966 
L 253.606612 205.665694 
L 254.4 194.403007 
L 255.193388 187.329308 
L 255.986777 191.704264 
L 256.780165 190.288046 
L 257.573554 178.615178 
L 258.366942 194.527155 
L 259.160331 172.790098 
L 259.953719 158.542452 
L 260.747107 213.551452 
L 261.540496 226.716574 
L 262.333884 187.893702 
L 263.127273 172.859244 
L 263.920661 169.711326 
L 264.71405 184.644402 
L 265.507438 187.15247 
L 266.300826 191.951215 
L 267.094215 200.679703 
L 267.887603 206.089218 
L 268.680992 209.728274 
L 270.267769 169.23136 
L 271.061157 172.3457 
L 271.854545 171.3531 
L 272.647934 155.205779 
L 273.441322 188.747247 
L 274.234711 189.858214 
L 275.028099 189.068369 
L 275.821488 201.701938 
L 276.614876 190.701312 
L 277.408264 188.615629 
L 278.201653 196.980658 
L 278.995041 199.908287 
L 280.581818 175.8347 
L 281.375207 181.808277 
L 282.168595 185.238506 
L 282.961983 170.472466 
L 283.755372 170.846561 
L 284.54876 161.639226 
L 285.342149 158.899236 
L 286.135537 212.188076 
L 286.928926 197.471848 
L 287.722314 161.98107 
L 288.515702 173.366167 
L 289.309091 179.145065 
L 290.102479 183.295552 
L 290.895868 191.798855 
L 291.689256 191.312101 
L 292.482645 183.198478 
L 293.276033 187.938827 
L 294.069421 187.957028 
L 294.86281 170.415283 
L 295.656198 158.797422 
L 296.449587 173.440413 
L 298.036364 145.496579 
L 298.829752 197.818604 
L 299.62314 212.430553 
L 300.416529 192.819852 
L 301.209917 193.353418 
L 302.003306 178.740824 
L 302.796694 170.09255 
L 303.590083 170.27701 
L 304.383471 174.463497 
L 305.17686 183.02803 
L 305.970248 186.684316 
L 306.763636 178.96982 
L 307.557025 161.861472 
L 308.350413 165.520384 
L 309.143802 172.088056 
L 309.93719 159.464929 
L 310.730579 144.974816 
L 311.523967 182.793616 
L 312.317355 192.680801 
L 313.110744 183.536872 
L 313.904132 176.840724 
L 314.697521 162.707646 
L 315.490909 165.950505 
L 316.284298 190.711228 
L 317.077686 203.947072 
L 317.871074 198.128273 
L 318.664463 188.025454 
L 319.457851 182.932055 
L 320.25124 190.327463 
L 321.044628 198.940263 
L 321.838017 199.405948 
L 322.631405 168.763196 
L 323.424793 147.612953 
L 324.218182 196.687943 
L 325.01157 226.989801 
L 325.804959 217.640919 
L 326.598347 203.044891 
L 327.391736 194.096584 
L 328.185124 195.814409 
L 328.978512 182.089773 
L 329.771901 183.768845 
L 330.565289 189.373318 
L 332.152066 214.315435 
L 332.945455 188.359236 
L 333.738843 179.384963 
L 334.532231 200.224764 
L 335.32562 184.098441 
L 336.119008 180.511206 
L 336.912397 207.356716 
L 337.705785 178.604939 
L 338.499174 178.403056 
L 339.292562 203.511453 
L 340.08595 189.498509 
L 340.879339 181.518136 
L 342.466116 182.908455 
L 343.259504 198.248687 
L 344.052893 220.653585 
L 344.846281 190.913927 
L 345.639669 168.769965 
L 346.433058 178.628696 
L 347.226446 200.561868 
L 348.019835 195.39847 
L 348.813223 164.198993 
L 349.606612 183.419511 
L 350.4 198.067128 
L 351.193388 198.194329 
L 351.986777 206.554623 
L 352.780165 192.032818 
L 353.573554 187.220176 
L 354.366942 198.903026 
L 355.160331 201.221971 
L 355.953719 202.237869 
L 356.747107 191.63345 
L 357.540496 185.290873 
L 358.333884 189.996279 
L 359.127273 200.338124 
L 359.920661 199.301504 
L 360.71405 191.123565 
L 361.507438 178.58634 
L 362.300826 200.164016 
L 363.094215 196.837682 
L 363.887603 198.427705 
L 364.680992 190.454778 
L 365.47438 172.12408 
L 366.267769 175.18611 
L 367.061157 173.101342 
L 367.854545 188.887663 
L 368.647934 218.187377 
L 369.441322 219.053419 
L 370.234711 206.150401 
L 371.028099 179.231522 
L 371.821488 175.351553 
L 372.614876 201.606267 
L 373.408264 189.837737 
L 374.201653 153.427306 
L 375.78843 191.170775 
L 376.581818 186.856717 
L 377.375207 185.533842 
L 378.168595 175.058644 
L 378.961983 177.530077 
L 379.755372 198.651601 
L 380.54876 202.860659 
L 381.342149 186.392885 
L 382.135537 179.208599 
L 382.928926 183.013222 
L 383.722314 189.907301 
L 384.515702 176.053685 
L 385.309091 178.103174 
L 386.102479 164.730549 
L 386.895868 161.499587 
L 387.689256 200.91469 
L 388.482645 195.2955 
L 389.276033 171.651052 
L 390.069421 180.515927 
L 390.86281 182.007658 
L 391.656198 181.820809 
L 392.449587 179.22699 
L 393.242975 191.61995 
L 394.036364 207.336543 
L 395.62314 175.73262 
L 396.416529 152.715158 
L 397.209917 161.494714 
L 398.003306 201.785493 
L 398.796694 201.834296 
L 399.590083 163.661142 
L 400.383471 176.770459 
L 401.17686 196.901899 
L 401.970248 206.042425 
L 402.763636 185.642178 
L 403.557025 159.822833 
L 404.350413 167.385276 
L 405.143802 182.801541 
L 405.93719 203.152298 
L 406.730579 211.479777 
L 407.523967 196.415548 
L 408.317355 201.898873 
L 409.110744 201.707986 
L 409.904132 179.195972 
L 410.697521 170.352242 
L 411.490909 166.712423 
L 412.284298 166.640565 
L 413.077686 198.586777 
L 413.871074 183.583892 
L 414.664463 174.865785 
L 415.457851 197.773309 
L 416.25124 203.187449 
L 417.044628 199.209966 
L 417.838017 189.518455 
L 418.631405 187.550739 
L 419.424793 190.804131 
L 420.218182 187.716656 
L 421.01157 174.341476 
L 421.804959 169.558037 
L 422.598347 176.022496 
L 423.391736 195.504266 
L 424.978512 152.410608 
L 425.771901 197.659721 
L 426.565289 227.325123 
L 427.358678 226.633777 
L 428.152066 210.37412 
L 428.945455 188.417916 
L 429.738843 195.669633 
L 430.532231 192.469931 
L 431.32562 185.130094 
L 432.119008 187.050239 
L 432.912397 203.70598 
L 433.705785 210.997175 
L 434.499174 199.737668 
L 435.292562 190.091206 
L 436.08595 201.589487 
L 436.879339 202.963288 
L 437.672727 182.95585 
L 438.466116 198.176052 
L 439.259504 196.866558 
L 440.052893 201.473074 
L 440.846281 211.140663 
L 441.639669 189.734369 
L 442.433058 163.732431 
L 443.226446 166.355448 
L 444.813223 219.280159 
L 446.4 165.470653 
L 447.193388 164.367678 
L 447.986777 173.427369 
L 448.780165 174.904065 
L 449.573554 173.477556 
L 450.366942 154.448071 
L 451.160331 184.123316 
L 451.953719 206.548063 
L 452.747107 211.177938 
L 453.540496 192.168812 
L 454.333884 184.339078 
L 455.127273 208.201165 
L 455.920661 210.454812 
L 456.71405 205.639227 
L 457.507438 188.309618 
L 458.300826 179.363501 
L 459.094215 192.533408 
L 459.887603 200.620075 
L 460.680992 189.631739 
L 461.47438 206.091777 
L 462.267769 185.765891 
L 463.061157 161.728488 
L 463.854545 206.436561 
L 464.647934 218.177973 
L 465.441322 192.972782 
L 466.234711 193.564137 
L 467.028099 179.427547 
L 467.821488 168.659865 
L 468.614876 161.526093 
L 470.201653 189.767984 
L 470.995041 191.166565 
L 471.78843 195.020071 
L 472.581818 184.961087 
L 473.375207 171.679056 
L 474.168595 172.251357 
L 474.961983 166.051447 
L 475.755372 153.121864 
L 476.54876 195.138039 
L 477.342149 196.321109 
L 478.135537 182.499626 
L 478.928926 184.971496 
L 479.722314 178.791333 
L 480.515702 187.486693 
L 481.309091 192.252462 
L 482.102479 184.116624 
L 482.895868 180.740487 
L 483.689256 188.689268 
L 484.482645 195.300846 
L 485.276033 181.896838 
L 486.069421 163.098303 
L 486.86281 181.364998 
L 487.656198 182.041766 
L 488.449587 164.990971 
L 489.242975 201.720442 
L 490.829752 176.24825 
L 491.62314 198.253597 
L 492.416529 179.847861 
L 493.209917 149.762346 
L 494.003306 164.603651 
L 494.796694 195.3469 
L 495.590083 189.224446 
L 496.383471 168.181624 
L 497.17686 157.502869 
L 497.970248 160.720786 
L 498.763636 170.887609 
L 499.557025 185.528837 
L 501.143802 141.550663 
L 501.93719 199.004328 
L 502.730579 220.450924 
L 503.523967 194.370244 
L 504.317355 195.448562 
L 505.110744 198.78303 
L 505.904132 208.50581 
L 506.697521 197.140925 
L 507.490909 177.139847 
L 508.284298 190.123684 
L 509.077686 217.620973 
L 509.871074 215.440164 
L 510.664463 174.563377 
L 511.457851 160.868312 
L 512.25124 176.7759 
L 513.044628 181.497621 
L 513.838017 169.674184 
L 514.631405 191.566199 
L 515.424793 188.389818 
L 516.218182 195.878588 
L 517.01157 215.213502 
L 517.804959 201.443156 
L 518.598347 180.71692 
L 519.391736 194.588983 
L 520.185124 211.823783 
L 520.978512 210.439152 
L 522.565289 186.637694 
L 523.358678 191.715356 
L 524.152066 197.56223 
L 524.945455 190.774762 
L 525.738843 158.42638 
L 526.532231 148.253822 
L 527.32562 210.995147 
L 528.119008 247.252061 
L 528.912397 228.683685 
L 529.705785 197.661882 
L 530.499174 189.719125 
L 531.292562 204.048962 
L 532.08595 186.328081 
L 532.879339 174.987014 
L 533.672727 173.619469 
L 534.466116 186.811157 
L 535.259504 213.558486 
L 536.052893 197.660953 
L 536.846281 185.637799 
L 537.639669 198.613056 
L 538.433058 175.425761 
L 539.226446 179.233285 
L 540.019835 222.513365 
L 540.813223 206.518069 
L 541.606612 203.270872 
L 542.4 208.258234 
L 543.193388 177.186185 
L 543.986777 169.529673 
L 544.780165 184.315606 
L 545.573554 195.165796 
L 546.366942 203.689409 
L 547.160331 215.735481 
L 547.953719 186.606126 
L 548.747107 177.11465 
L 550.333884 207.832625 
L 551.127273 192.585054 
L 551.920661 161.387933 
L 552.71405 187.945557 
L 553.507438 209.467028 
L 554.300826 204.523696 
L 555.094215 204.715189 
L 555.887603 190.787996 
L 556.680992 193.985972 
L 557.47438 208.088582 
L 558.267769 204.124327 
L 559.061157 200.922236 
L 559.854545 190.973005 
L 560.647934 188.453352 
L 561.441322 195.510276 
L 562.234711 205.108832 
L 563.028099 201.348585 
L 563.821488 199.697056 
L 564.614876 192.871935 
L 565.408264 209.710774 
L 566.201653 194.225112 
L 566.995041 192.563611 
L 567.78843 189.13816 
L 568.581818 175.890423 
L 569.375207 179.337166 
L 570.168595 170.253955 
L 570.961983 176.292464 
L 571.755372 204.784734 
L 572.54876 213.879588 
L 573.342149 209.640434 
L 574.135537 184.040007 
L 574.928926 174.598812 
L 575.722314 193.717616 
L 576.515702 183.318929 
L 577.309091 159.006833 
L 578.102479 187.592185 
L 578.895868 207.692417 
L 580.482645 177.836372 
L 581.276033 163.420391 
L 582.069421 170.761925 
L 582.86281 200.235248 
L 583.656198 208.172668 
L 584.449587 190.620866 
L 585.242975 182.263122 
L 586.036364 188.020316 
L 586.829752 198.823433 
L 587.62314 184.286693 
L 588.416529 178.374356 
L 589.209917 155.877609 
L 590.003306 151.272083 
L 590.796694 202.050077 
L 591.590083 212.295009 
L 592.383471 179.67755 
L 593.17686 167.902157 
L 593.970248 163.029706 
L 594.763636 176.384836 
L 595.557025 186.832581 
L 596.350413 193.081326 
L 597.143802 196.986535 
L 597.93719 181.844149 
L 598.730579 182.242266 
L 599.523967 175.48757 
L 600.317355 174.419017 
L 601.110744 192.641517 
L 601.904132 194.097532 
L 602.697521 175.653203 
L 603.490909 198.682372 
L 604.284298 207.71898 
L 605.077686 210.190893 
L 605.871074 197.932495 
L 606.664463 179.79402 
L 607.457851 187.852863 
L 608.25124 190.043337 
L 609.044628 198.178232 
L 609.838017 210.980699 
L 610.631405 205.911034 
L 611.424793 215.620244 
L 612.218182 210.673343 
L 613.01157 184.469692 
L 613.804959 177.090817 
L 614.598347 173.347169 
L 615.391736 171.464868 
L 616.185124 206.552594 
L 616.978512 194.317086 
L 617.771901 186.039708 
L 618.565289 202.659268 
L 619.358678 199.146413 
L 620.945455 176.660492 
L 621.738843 182.171053 
L 622.532231 199.384486 
L 623.32562 211.0186 
L 624.119008 195.143423 
L 624.912397 169.592885 
L 625.705785 162.081197 
L 626.499174 191.197678 
L 627.292562 184.998362 
L 628.08595 169.278285 
L 628.879339 202.35904 
L 629.672727 207.343387 
L 630.466116 208.301633 
L 631.259504 213.804185 
L 632.052893 196.982667 
L 632.846281 190.342972 
L 633.639669 175.865927 
L 634.433058 173.170886 
L 635.226446 184.745514 
L 636.019835 206.136295 
L 636.813223 201.933 
L 637.606612 180.051622 
L 638.4 174.243966 
L 639.193388 200.938011 
L 639.986777 209.712538 
L 640.780165 185.185968 
L 641.573554 199.810436 
L 642.366942 202.07609 
L 643.160331 209.197197 
L 643.953719 221.455147 
L 644.747107 196.538483 
L 645.540496 159.797768 
L 646.333884 155.743166 
L 647.127273 186.328707 
L 647.920661 231.60948 
L 648.71405 221.605289 
L 649.507438 199.063559 
L 650.300826 184.320782 
L 651.094215 184.799644 
L 651.887603 193.601772 
L 652.680992 197.818907 
L 653.47438 167.799774 
L 655.854545 212.605722 
L 656.647934 204.141107 
L 657.441322 186.547085 
L 659.028099 189.919075 
L 659.821488 206.755293 
L 660.614876 201.685007 
L 661.408264 187.699005 
L 662.995041 200.890668 
L 663.78843 192.003241 
L 664.581818 211.35305 
L 666.168595 161.164132 
L 666.961983 211.805279 
L 667.755372 227.027853 
L 668.54876 188.966005 
L 669.342149 179.428893 
L 670.135537 178.972778 
L 670.928926 192.148695 
L 671.722314 192.40615 
L 672.515702 196.362328 
L 673.309091 202.574348 
L 674.102479 210.601068 
L 674.895868 221.818681 
L 675.689256 206.478329 
L 676.482645 180.473704 
L 677.276033 177.678513 
L 678.069421 179.93811 
L 678.86281 172.846447 
L 679.656198 207.683506 
L 681.242975 177.441668 
L 682.036364 190.631066 
L 682.829752 186.940804 
L 683.62314 190.401122 
L 684.416529 197.45287 
L 685.209917 199.53514 
L 686.003306 197.39017 
L 686.796694 196.751738 
L 687.590083 200.140961 
L 688.383471 196.167838 
L 689.17686 187.416163 
L 689.970248 200.88864 
L 690.763636 188.916861 
L 691.557025 163.516479 
L 692.350413 206.560235 
L 693.143802 203.264673 
L 693.93719 181.169982 
L 694.730579 185.257049 
L 695.523967 168.979868 
L 696.317355 159.627509 
L 697.904132 213.012542 
L 698.697521 196.260722 
L 699.490909 172.260457 
L 700.284298 169.421014 
L 701.871074 194.650811 
L 702.664463 211.197087 
L 703.457851 181.570673 
L 704.25124 145.835712 
L 705.044628 193.867645 
L 705.838017 214.31809 
L 706.631405 195.447273 
L 707.424793 199.581098 
L 708.218182 184.134825 
L 709.01157 171.674392 
L 709.804959 168.752541 
L 710.598347 181.243887 
L 711.391736 206.09847 
L 712.185124 217.148439 
L 712.978512 202.412621 
L 713.771901 170.046345 
L 714.565289 172.794724 
L 715.358678 190.681783 
L 716.152066 183.741163 
L 716.945455 161.549015 
L 717.738843 187.884507 
L 718.532231 192.978962 
L 719.32562 190.4511 
L 720.119008 197.900055 
L 720.912397 193.584651 
L 721.705785 190.541405 
L 722.499174 201.393481 
L 723.292562 201.269693 
L 724.08595 199.508407 
L 724.879339 209.318231 
L 725.672727 202.180748 
L 726.466116 180.108235 
L 727.259504 168.507675 
L 728.052893 181.217249 
L 728.846281 180.10378 
L 729.639669 181.968885 
L 730.433058 220.993059 
L 731.226446 222.040584 
L 732.019835 214.513091 
L 732.813223 223.072886 
L 733.606612 213.055106 
L 735.193388 160.336301 
L 735.986777 182.841508 
L 736.780165 209.699114 
L 737.573554 221.040876 
L 738.366942 218.384196 
L 739.160331 186.390117 
L 739.953719 192.706283 
L 740.747107 227.429061 
L 741.540496 195.252537 
L 742.333884 171.262766 
L 743.127273 211.307262 
L 743.920661 219.332222 
L 744.71405 223.417973 
L 745.507438 217.678705 
L 746.300826 186.317615 
L 747.094215 189.636347 
L 747.887603 208.169767 
L 748.680992 209.625816 
L 749.47438 209.52275 
L 750.267769 224.226588 
L 751.854545 183.652242 
L 752.647934 174.819428 
L 753.441322 177.001351 
L 754.234711 182.815116 
L 755.028099 183.464597 
L 755.821488 208.703712 
L 756.614876 197.443143 
L 757.408264 179.466699 
L 758.201653 193.614039 
L 758.995041 188.761884 
L 759.78843 185.157472 
L 761.375207 202.224146 
L 762.168595 217.580475 
L 762.961983 213.940563 
L 763.755372 192.88041 
L 764.54876 181.53755 
L 765.342149 198.712348 
L 766.135537 212.527968 
L 766.928926 206.996272 
L 767.722314 179.77343 
L 768.515702 195.089635 
L 770.102479 205.771793 
L 770.895868 191.230877 
L 771.689256 170.949664 
L 772.482645 180.307692 
L 773.276033 180.375834 
L 774.069421 182.027604 
L 774.86281 195.217291 
L 775.656198 195.544859 
L 776.449587 205.6532 
L 777.242975 198.378201 
L 778.036364 179.926203 
L 778.829752 177.305423 
L 779.62314 166.6206 
L 780.416529 158.06404 
L 781.209917 191.816089 
L 782.003306 196.630874 
L 782.796694 178.073009 
L 783.590083 181.43822 
L 784.383471 177.296455 
L 785.17686 176.039996 
L 785.970248 180.272768 
L 786.763636 176.162704 
L 787.557025 174.805758 
L 788.350413 185.615616 
L 789.143802 180.239778 
L 789.93719 164.281695 
L 790.730579 152.144289 
L 791.523967 175.588796 
L 792.317355 164.67458 
L 793.110744 146.530028 
L 793.904132 179.1911 
L 794.697521 185.07877 
L 795.490909 167.88187 
L 796.284298 169.000013 
L 797.077686 163.612018 
L 797.871074 171.390887 
L 798.664463 189.702459 
L 799.457851 210.738204 
L 800.25124 210.553991 
L 801.044628 177.565608 
L 801.838017 173.178944 
L 802.631405 177.54115 
L 803.424793 183.418847 
L 804.218182 195.694508 
L 805.01157 185.794141 
L 805.804959 163.014918 
L 806.598347 192.887539 
L 807.391736 212.309476 
L 808.185124 218.398492 
L 808.978512 210.190475 
L 809.771901 197.643188 
L 810.565289 204.626135 
L 811.358678 193.207541 
L 812.152066 185.977899 
L 812.945455 199.373053 
L 814.532231 208.801715 
L 815.32562 185.963944 
L 816.119008 155.62717 
L 816.912397 164.660568 
L 817.705785 176.219223 
L 818.499174 176.718187 
L 819.292562 201.895858 
L 820.08595 183.306492 
L 820.879339 181.810325 
L 821.672727 209.7577 
L 822.466116 209.935049 
L 823.259504 198.495619 
L 824.052893 195.404461 
L 824.846281 208.924613 
L 825.639669 215.511453 
L 826.433058 205.888661 
L 827.226446 185.702982 
L 828.019835 177.294066 
L 828.813223 184.310961 
L 829.606612 207.291172 
L 830.4 187.279141 
L 831.193388 163.719254 
L 831.986777 203.321628 
L 832.780165 221.579599 
L 833.573554 217.889955 
L 834.366942 208.846878 
L 835.160331 188.482114 
L 835.953719 190.429258 
L 836.747107 180.409127 
L 837.540496 173.730972 
L 838.333884 183.256969 
L 839.127273 205.964387 
L 839.920661 206.641023 
L 840.71405 189.17735 
L 841.507438 187.198562 
L 842.300826 214.492121 
L 843.094215 223.390823 
L 843.887603 195.573602 
L 844.680992 200.626976 
L 845.47438 197.168966 
L 846.267769 207.9603 
L 847.061157 227.915682 
L 847.854545 209.820608 
L 848.647934 177.314107 
L 849.441322 169.99705 
L 850.234711 189.413342 
L 851.028099 224.019092 
L 851.821488 212.925611 
L 852.614876 192.611352 
L 853.408264 178.746796 
L 854.201653 170.105784 
L 854.995041 167.587842 
L 855.78843 176.09115 
L 856.581818 163.449134 
L 857.375207 187.592678 
L 858.168595 198.138758 
L 858.961983 205.854079 
L 859.755372 204.007516 
L 860.54876 197.395971 
L 861.342149 202.361865 
L 862.135537 199.073171 
L 862.928926 209.460657 
L 863.722314 209.252711 
L 864.515702 202.136458 
L 865.309091 197.956195 
L 866.102479 186.660389 
L 866.895868 180.183013 
L 867.689256 219.490555 
L 868.482645 210.444271 
L 869.276033 180.834338 
L 870.069421 217.242783 
L 870.86281 226.960963 
L 871.656198 204.758437 
L 872.449587 209.848593 
L 873.242975 201.310987 
L 874.036364 191.062837 
L 874.829752 184.792364 
L 876.416529 217.080885 
L 877.209917 222.762193 
L 878.003306 218.763486 
L 878.796694 190.832191 
L 879.590083 169.742003 
L 880.383471 182.992708 
L 881.17686 191.669796 
L 881.970248 179.853625 
L 882.763636 207.313544 
L 883.557025 194.260358 
L 884.350413 185.995986 
L 885.143802 206.174176 
L 885.93719 200.655946 
L 886.730579 190.684362 
L 887.523967 189.700203 
L 888.317355 190.924885 
L 889.110744 193.211542 
L 889.904132 194.111278 
L 890.697521 189.376086 
L 891.490909 177.991539 
L 892.284298 170.524037 
L 893.077686 193.310303 
L 893.871074 187.279842 
L 894.664463 161.497729 
L 895.457851 204.612769 
L 896.25124 211.880264 
L 897.044628 194.873304 
L 897.838017 191.480956 
L 898.631405 166.00693 
L 899.424793 154.445872 
L 901.01157 219.832286 
L 901.804959 203.667624 
L 902.598347 170.416781 
L 903.391736 172.698788 
L 904.185124 195.149092 
L 904.978512 205.692997 
L 905.771901 208.48795 
L 906.565289 173.58447 
L 907.358678 146.401206 
L 908.152066 205.121213 
L 908.945455 230.805188 
L 909.738843 202.031193 
L 910.532231 194.834531 
L 911.32562 189.946301 
L 912.119008 198.401844 
L 912.912397 198.159443 
L 913.705785 192.621287 
L 915.292562 219.628999 
L 916.08595 206.145585 
L 916.879339 165.96664 
L 917.672727 159.322105 
L 918.466116 183.007174 
L 919.259504 192.799167 
L 920.052893 176.680817 
L 920.846281 189.555085 
L 921.639669 179.42622 
L 922.433058 184.001234 
L 923.226446 208.877858 
L 924.019835 207.581673 
L 924.813223 195.81896 
L 926.4 207.706391 
L 927.193388 200.854721 
L 927.986777 190.780071 
L 928.780165 182.251329 
L 929.573554 184.26085 
L 931.160331 203.16885 
L 931.953719 185.663963 
L 932.747107 176.205553 
L 933.540496 222.451518 
L 934.333884 232.399685 
L 935.127273 206.749909 
L 935.920661 193.871418 
L 936.71405 205.685375 
L 937.507438 232.252576 
L 938.300826 210.297276 
L 939.094215 174.783784 
L 939.887603 159.512898 
L 941.47438 218.575253 
L 943.061157 180.364173 
L 943.854545 193.744577 
L 944.647934 202.268318 
L 946.234711 235.534946 
L 947.028099 174.274321 
L 947.821488 158.511168 
L 948.614876 195.062238 
L 949.408264 191.191498 
L 950.201653 172.093535 
L 950.995041 162.512209 
L 951.78843 190.855587 
L 952.581818 232.081256 
L 953.375207 246.859764 
L 954.961983 147.390972 
L 955.755372 165.545923 
L 956.54876 219.750626 
L 957.342149 209.288375 
L 958.135537 140.670437 
L 958.928926 142.362189 
L 960.515702 206.466214 
L 961.309091 224.761765 
L 962.102479 201.34011 
L 962.895868 171.284096 
L 963.689256 183.75599 
L 964.482645 207.981762 
L 965.276033 211.150977 
L 966.86281 156.478956 
L 967.656198 151.409314 
L 968.449587 187.552123 
L 969.242975 253.19096 
L 970.036364 253.929348 
L 970.829752 183.291893 
L 971.62314 158.422607 
L 972.416529 153.251966 
L 974.003306 240.689953 
L 974.796694 210.54434 
L 975.590083 154.938788 
L 976.383471 144.02751 
L 977.17686 196.189832 
L 977.970248 231.818929 
L 979.557025 165.618425 
L 980.350413 155.796992 
L 981.143802 176.836761 
L 981.93719 209.932262 
L 982.730579 189.70208 
L 983.523967 150.606757 
L 984.317355 171.438817 
L 985.110744 187.902386 
L 985.904132 177.670076 
L 986.697521 182.078909 
L 987.490909 201.891422 
L 988.284298 199.394781 
L 989.077686 174.943482 
L 989.871074 154.045025 
L 990.664463 171.425792 
L 991.457851 221.193957 
L 992.25124 190.98933 
L 993.044628 79.479021 
L 993.838017 53.568 
L 994.631405 153.238069 
L 995.424793 286.577202 
L 996.218182 295.488 
L 996.218182 295.488 
" style="fill:none;stroke:#1f77b4;stroke-linecap:square;stroke-width:1.5;"/>
   </g>
   <g id="patch_3">
    <path d="M 144 307.584 
L 144 41.472 
" style="fill:none;stroke:#000000;stroke-linecap:square;stroke-linejoin:miter;stroke-width:0.8;"/>
   </g>
   <g id="patch_4">
    <path d="M 1036.8 307.584 
L 1036.8 41.472 
" style="fill:none;stroke:#000000;stroke-linecap:square;stroke-linejoin:miter;stroke-width:0.8;"/>
   </g>
   <g id="patch_5">
    <path d="M 144 307.584 
L 1036.8 307.584 
" style="fill:none;stroke:#000000;stroke-linecap:square;stroke-linejoin:miter;stroke-width:0.8;"/>
   </g>
   <g id="patch_6">
    <path d="M 144 41.472 
L 1036.8 41.472 
" style="fill:none;stroke:#000000;stroke-linecap:square;stroke-linejoin:miter;stroke-width:0.8;"/>
   </g>
   <g id="text_14">
    <!-- 12th layer's shape: torch.Size([1, 1, 1024]). Uniformly sampling 16 channels -->
    <g transform="translate(360.85125 35.472)scale(0.12 -0.12)">
     <defs>
      <path d="M 18.3125 70.21875 
L 18.3125 54.6875 
L 36.8125 54.6875 
L 36.8125 47.703125 
L 18.3125 47.703125 
L 18.3125 18.015625 
Q 18.3125 11.328125 20.140625 9.421875 
Q 21.96875 7.515625 27.59375 7.515625 
L 36.8125 7.515625 
L 36.8125 0 
L 27.59375 0 
Q 17.1875 0 13.234375 3.875 
Q 9.28125 7.765625 9.28125 18.015625 
L 9.28125 47.703125 
L 2.6875 47.703125 
L 2.6875 54.6875 
L 9.28125 54.6875 
L 9.28125 70.21875 
z
" id="DejaVuSans-116"/>
      <path d="M 54.890625 33.015625 
L 54.890625 0 
L 45.90625 0 
L 45.90625 32.71875 
Q 45.90625 40.484375 42.875 44.328125 
Q 39.84375 48.1875 33.796875 48.1875 
Q 26.515625 48.1875 22.3125 43.546875 
Q 18.109375 38.921875 18.109375 30.90625 
L 18.109375 0 
L 9.078125 0 
L 9.078125 75.984375 
L 18.109375 75.984375 
L 18.109375 46.1875 
Q 21.34375 51.125 25.703125 53.5625 
Q 30.078125 56 35.796875 56 
Q 45.21875 56 50.046875 50.171875 
Q 54.890625 44.34375 54.890625 33.015625 
z
" id="DejaVuSans-104"/>
      <path id="DejaVuSans-32"/>
      <path d="M 9.421875 75.984375 
L 18.40625 75.984375 
L 18.40625 0 
L 9.421875 0 
z
" id="DejaVuSans-108"/>
      <path d="M 34.28125 27.484375 
Q 23.390625 27.484375 19.1875 25 
Q 14.984375 22.515625 14.984375 16.5 
Q 14.984375 11.71875 18.140625 8.90625 
Q 21.296875 6.109375 26.703125 6.109375 
Q 34.1875 6.109375 38.703125 11.40625 
Q 43.21875 16.703125 43.21875 25.484375 
L 43.21875 27.484375 
z
M 52.203125 31.203125 
L 52.203125 0 
L 43.21875 0 
L 43.21875 8.296875 
Q 40.140625 3.328125 35.546875 0.953125 
Q 30.953125 -1.421875 24.3125 -1.421875 
Q 15.921875 -1.421875 10.953125 3.296875 
Q 6 8.015625 6 15.921875 
Q 6 25.140625 12.171875 29.828125 
Q 18.359375 34.515625 30.609375 34.515625 
L 43.21875 34.515625 
L 43.21875 35.40625 
Q 43.21875 41.609375 39.140625 45 
Q 35.0625 48.390625 27.6875 48.390625 
Q 23 48.390625 18.546875 47.265625 
Q 14.109375 46.140625 10.015625 43.890625 
L 10.015625 52.203125 
Q 14.9375 54.109375 19.578125 55.046875 
Q 24.21875 56 28.609375 56 
Q 40.484375 56 46.34375 49.84375 
Q 52.203125 43.703125 52.203125 31.203125 
z
" id="DejaVuSans-97"/>
      <path d="M 32.171875 -5.078125 
Q 28.375 -14.84375 24.75 -17.8125 
Q 21.140625 -20.796875 15.09375 -20.796875 
L 7.90625 -20.796875 
L 7.90625 -13.28125 
L 13.1875 -13.28125 
Q 16.890625 -13.28125 18.9375 -11.515625 
Q 21 -9.765625 23.484375 -3.21875 
L 25.09375 0.875 
L 2.984375 54.6875 
L 12.5 54.6875 
L 29.59375 11.921875 
L 46.6875 54.6875 
L 56.203125 54.6875 
z
" id="DejaVuSans-121"/>
      <path d="M 56.203125 29.59375 
L 56.203125 25.203125 
L 14.890625 25.203125 
Q 15.484375 15.921875 20.484375 11.0625 
Q 25.484375 6.203125 34.421875 6.203125 
Q 39.59375 6.203125 44.453125 7.46875 
Q 49.3125 8.734375 54.109375 11.28125 
L 54.109375 2.78125 
Q 49.265625 0.734375 44.1875 -0.34375 
Q 39.109375 -1.421875 33.890625 -1.421875 
Q 20.796875 -1.421875 13.15625 6.1875 
Q 5.515625 13.8125 5.515625 26.8125 
Q 5.515625 40.234375 12.765625 48.109375 
Q 20.015625 56 32.328125 56 
Q 43.359375 56 49.78125 48.890625 
Q 56.203125 41.796875 56.203125 29.59375 
z
M 47.21875 32.234375 
Q 47.125 39.59375 43.09375 43.984375 
Q 39.0625 48.390625 32.421875 48.390625 
Q 24.90625 48.390625 20.390625 44.140625 
Q 15.875 39.890625 15.1875 32.171875 
z
" id="DejaVuSans-101"/>
      <path d="M 41.109375 46.296875 
Q 39.59375 47.171875 37.8125 47.578125 
Q 36.03125 48 33.890625 48 
Q 26.265625 48 22.1875 43.046875 
Q 18.109375 38.09375 18.109375 28.8125 
L 18.109375 0 
L 9.078125 0 
L 9.078125 54.6875 
L 18.109375 54.6875 
L 18.109375 46.1875 
Q 20.953125 51.171875 25.484375 53.578125 
Q 30.03125 56 36.53125 56 
Q 37.453125 56 38.578125 55.875 
Q 39.703125 55.765625 41.0625 55.515625 
z
" id="DejaVuSans-114"/>
      <path d="M 17.921875 72.90625 
L 17.921875 45.796875 
L 9.625 45.796875 
L 9.625 72.90625 
z
" id="DejaVuSans-39"/>
      <path d="M 44.28125 53.078125 
L 44.28125 44.578125 
Q 40.484375 46.53125 36.375 47.5 
Q 32.28125 48.484375 27.875 48.484375 
Q 21.1875 48.484375 17.84375 46.4375 
Q 14.5 44.390625 14.5 40.28125 
Q 14.5 37.15625 16.890625 35.375 
Q 19.28125 33.59375 26.515625 31.984375 
L 29.59375 31.296875 
Q 39.15625 29.25 43.1875 25.515625 
Q 47.21875 21.78125 47.21875 15.09375 
Q 47.21875 7.46875 41.1875 3.015625 
Q 35.15625 -1.421875 24.609375 -1.421875 
Q 20.21875 -1.421875 15.453125 -0.5625 
Q 10.6875 0.296875 5.421875 2 
L 5.421875 11.28125 
Q 10.40625 8.6875 15.234375 7.390625 
Q 20.0625 6.109375 24.8125 6.109375 
Q 31.15625 6.109375 34.5625 8.28125 
Q 37.984375 10.453125 37.984375 14.40625 
Q 37.984375 18.0625 35.515625 20.015625 
Q 33.0625 21.96875 24.703125 23.78125 
L 21.578125 24.515625 
Q 13.234375 26.265625 9.515625 29.90625 
Q 5.8125 33.546875 5.8125 39.890625 
Q 5.8125 47.609375 11.28125 51.796875 
Q 16.75 56 26.8125 56 
Q 31.78125 56 36.171875 55.265625 
Q 40.578125 54.546875 44.28125 53.078125 
z
" id="DejaVuSans-115"/>
      <path d="M 18.109375 8.203125 
L 18.109375 -20.796875 
L 9.078125 -20.796875 
L 9.078125 54.6875 
L 18.109375 54.6875 
L 18.109375 46.390625 
Q 20.953125 51.265625 25.265625 53.625 
Q 29.59375 56 35.59375 56 
Q 45.5625 56 51.78125 48.09375 
Q 58.015625 40.1875 58.015625 27.296875 
Q 58.015625 14.40625 51.78125 6.484375 
Q 45.5625 -1.421875 35.59375 -1.421875 
Q 29.59375 -1.421875 25.265625 0.953125 
Q 20.953125 3.328125 18.109375 8.203125 
z
M 48.6875 27.296875 
Q 48.6875 37.203125 44.609375 42.84375 
Q 40.53125 48.484375 33.40625 48.484375 
Q 26.265625 48.484375 22.1875 42.84375 
Q 18.109375 37.203125 18.109375 27.296875 
Q 18.109375 17.390625 22.1875 11.75 
Q 26.265625 6.109375 33.40625 6.109375 
Q 40.53125 6.109375 44.609375 11.75 
Q 48.6875 17.390625 48.6875 27.296875 
z
" id="DejaVuSans-112"/>
      <path d="M 11.71875 12.40625 
L 22.015625 12.40625 
L 22.015625 0 
L 11.71875 0 
z
M 11.71875 51.703125 
L 22.015625 51.703125 
L 22.015625 39.3125 
L 11.71875 39.3125 
z
" id="DejaVuSans-58"/>
      <path d="M 30.609375 48.390625 
Q 23.390625 48.390625 19.1875 42.75 
Q 14.984375 37.109375 14.984375 27.296875 
Q 14.984375 17.484375 19.15625 11.84375 
Q 23.34375 6.203125 30.609375 6.203125 
Q 37.796875 6.203125 41.984375 11.859375 
Q 46.1875 17.53125 46.1875 27.296875 
Q 46.1875 37.015625 41.984375 42.703125 
Q 37.796875 48.390625 30.609375 48.390625 
z
M 30.609375 56 
Q 42.328125 56 49.015625 48.375 
Q 55.71875 40.765625 55.71875 27.296875 
Q 55.71875 13.875 49.015625 6.21875 
Q 42.328125 -1.421875 30.609375 -1.421875 
Q 18.84375 -1.421875 12.171875 6.21875 
Q 5.515625 13.875 5.515625 27.296875 
Q 5.515625 40.765625 12.171875 48.375 
Q 18.84375 56 30.609375 56 
z
" id="DejaVuSans-111"/>
      <path d="M 48.78125 52.59375 
L 48.78125 44.1875 
Q 44.96875 46.296875 41.140625 47.34375 
Q 37.3125 48.390625 33.40625 48.390625 
Q 24.65625 48.390625 19.8125 42.84375 
Q 14.984375 37.3125 14.984375 27.296875 
Q 14.984375 17.28125 19.8125 11.734375 
Q 24.65625 6.203125 33.40625 6.203125 
Q 37.3125 6.203125 41.140625 7.25 
Q 44.96875 8.296875 48.78125 10.40625 
L 48.78125 2.09375 
Q 45.015625 0.34375 40.984375 -0.53125 
Q 36.96875 -1.421875 32.421875 -1.421875 
Q 20.0625 -1.421875 12.78125 6.34375 
Q 5.515625 14.109375 5.515625 27.296875 
Q 5.515625 40.671875 12.859375 48.328125 
Q 20.21875 56 33.015625 56 
Q 37.15625 56 41.109375 55.140625 
Q 45.0625 54.296875 48.78125 52.59375 
z
" id="DejaVuSans-99"/>
      <path d="M 53.515625 70.515625 
L 53.515625 60.890625 
Q 47.90625 63.578125 42.921875 64.890625 
Q 37.9375 66.21875 33.296875 66.21875 
Q 25.25 66.21875 20.875 63.09375 
Q 16.5 59.96875 16.5 54.203125 
Q 16.5 49.359375 19.40625 46.890625 
Q 22.3125 44.4375 30.421875 42.921875 
L 36.375 41.703125 
Q 47.40625 39.59375 52.65625 34.296875 
Q 57.90625 29 57.90625 20.125 
Q 57.90625 9.515625 50.796875 4.046875 
Q 43.703125 -1.421875 29.984375 -1.421875 
Q 24.8125 -1.421875 18.96875 -0.25 
Q 13.140625 0.921875 6.890625 3.21875 
L 6.890625 13.375 
Q 12.890625 10.015625 18.65625 8.296875 
Q 24.421875 6.59375 29.984375 6.59375 
Q 38.421875 6.59375 43.015625 9.90625 
Q 47.609375 13.234375 47.609375 19.390625 
Q 47.609375 24.75 44.3125 27.78125 
Q 41.015625 30.8125 33.5 32.328125 
L 27.484375 33.5 
Q 16.453125 35.6875 11.515625 40.375 
Q 6.59375 45.0625 6.59375 53.421875 
Q 6.59375 63.09375 13.40625 68.65625 
Q 20.21875 74.21875 32.171875 74.21875 
Q 37.3125 74.21875 42.625 73.28125 
Q 47.953125 72.359375 53.515625 70.515625 
z
" id="DejaVuSans-83"/>
      <path d="M 9.421875 54.6875 
L 18.40625 54.6875 
L 18.40625 0 
L 9.421875 0 
z
M 9.421875 75.984375 
L 18.40625 75.984375 
L 18.40625 64.59375 
L 9.421875 64.59375 
z
" id="DejaVuSans-105"/>
      <path d="M 5.515625 54.6875 
L 48.1875 54.6875 
L 48.1875 46.484375 
L 14.40625 7.171875 
L 48.1875 7.171875 
L 48.1875 0 
L 4.296875 0 
L 4.296875 8.203125 
L 38.09375 47.515625 
L 5.515625 47.515625 
z
" id="DejaVuSans-122"/>
      <path d="M 31 75.875 
Q 24.46875 64.65625 21.28125 53.65625 
Q 18.109375 42.671875 18.109375 31.390625 
Q 18.109375 20.125 21.3125 9.0625 
Q 24.515625 -2 31 -13.1875 
L 23.1875 -13.1875 
Q 15.875 -1.703125 12.234375 9.375 
Q 8.59375 20.453125 8.59375 31.390625 
Q 8.59375 42.28125 12.203125 53.3125 
Q 15.828125 64.359375 23.1875 75.875 
z
" id="DejaVuSans-40"/>
      <path d="M 8.59375 75.984375 
L 29.296875 75.984375 
L 29.296875 69 
L 17.578125 69 
L 17.578125 -6.203125 
L 29.296875 -6.203125 
L 29.296875 -13.1875 
L 8.59375 -13.1875 
z
" id="DejaVuSans-91"/>
      <path d="M 11.71875 12.40625 
L 22.015625 12.40625 
L 22.015625 4 
L 14.015625 -11.625 
L 7.71875 -11.625 
L 11.71875 4 
z
" id="DejaVuSans-44"/>
      <path d="M 30.421875 75.984375 
L 30.421875 -13.1875 
L 9.71875 -13.1875 
L 9.71875 -6.203125 
L 21.390625 -6.203125 
L 21.390625 69 
L 9.71875 69 
L 9.71875 75.984375 
z
" id="DejaVuSans-93"/>
      <path d="M 8.015625 75.875 
L 15.828125 75.875 
Q 23.140625 64.359375 26.78125 53.3125 
Q 30.421875 42.28125 30.421875 31.390625 
Q 30.421875 20.453125 26.78125 9.375 
Q 23.140625 -1.703125 15.828125 -13.1875 
L 8.015625 -13.1875 
Q 14.5 -2 17.703125 9.0625 
Q 20.90625 20.125 20.90625 31.390625 
Q 20.90625 42.671875 17.703125 53.65625 
Q 14.5 64.65625 8.015625 75.875 
z
" id="DejaVuSans-41"/>
      <path d="M 8.6875 72.90625 
L 18.609375 72.90625 
L 18.609375 28.609375 
Q 18.609375 16.890625 22.84375 11.734375 
Q 27.09375 6.59375 36.625 6.59375 
Q 46.09375 6.59375 50.34375 11.734375 
Q 54.59375 16.890625 54.59375 28.609375 
L 54.59375 72.90625 
L 64.5 72.90625 
L 64.5 27.390625 
Q 64.5 13.140625 57.4375 5.859375 
Q 50.390625 -1.421875 36.625 -1.421875 
Q 22.796875 -1.421875 15.734375 5.859375 
Q 8.6875 13.140625 8.6875 27.390625 
z
" id="DejaVuSans-85"/>
      <path d="M 54.890625 33.015625 
L 54.890625 0 
L 45.90625 0 
L 45.90625 32.71875 
Q 45.90625 40.484375 42.875 44.328125 
Q 39.84375 48.1875 33.796875 48.1875 
Q 26.515625 48.1875 22.3125 43.546875 
Q 18.109375 38.921875 18.109375 30.90625 
L 18.109375 0 
L 9.078125 0 
L 9.078125 54.6875 
L 18.109375 54.6875 
L 18.109375 46.1875 
Q 21.34375 51.125 25.703125 53.5625 
Q 30.078125 56 35.796875 56 
Q 45.21875 56 50.046875 50.171875 
Q 54.890625 44.34375 54.890625 33.015625 
z
" id="DejaVuSans-110"/>
      <path d="M 37.109375 75.984375 
L 37.109375 68.5 
L 28.515625 68.5 
Q 23.6875 68.5 21.796875 66.546875 
Q 19.921875 64.59375 19.921875 59.515625 
L 19.921875 54.6875 
L 34.71875 54.6875 
L 34.71875 47.703125 
L 19.921875 47.703125 
L 19.921875 0 
L 10.890625 0 
L 10.890625 47.703125 
L 2.296875 47.703125 
L 2.296875 54.6875 
L 10.890625 54.6875 
L 10.890625 58.5 
Q 10.890625 67.625 15.140625 71.796875 
Q 19.390625 75.984375 28.609375 75.984375 
z
" id="DejaVuSans-102"/>
      <path d="M 52 44.1875 
Q 55.375 50.25 60.0625 53.125 
Q 64.75 56 71.09375 56 
Q 79.640625 56 84.28125 50.015625 
Q 88.921875 44.046875 88.921875 33.015625 
L 88.921875 0 
L 79.890625 0 
L 79.890625 32.71875 
Q 79.890625 40.578125 77.09375 44.375 
Q 74.3125 48.1875 68.609375 48.1875 
Q 61.625 48.1875 57.5625 43.546875 
Q 53.515625 38.921875 53.515625 30.90625 
L 53.515625 0 
L 44.484375 0 
L 44.484375 32.71875 
Q 44.484375 40.625 41.703125 44.40625 
Q 38.921875 48.1875 33.109375 48.1875 
Q 26.21875 48.1875 22.15625 43.53125 
Q 18.109375 38.875 18.109375 30.90625 
L 18.109375 0 
L 9.078125 0 
L 9.078125 54.6875 
L 18.109375 54.6875 
L 18.109375 46.1875 
Q 21.1875 51.21875 25.484375 53.609375 
Q 29.78125 56 35.6875 56 
Q 41.65625 56 45.828125 52.96875 
Q 50 49.953125 52 44.1875 
z
" id="DejaVuSans-109"/>
      <path d="M 45.40625 27.984375 
Q 45.40625 37.75 41.375 43.109375 
Q 37.359375 48.484375 30.078125 48.484375 
Q 22.859375 48.484375 18.828125 43.109375 
Q 14.796875 37.75 14.796875 27.984375 
Q 14.796875 18.265625 18.828125 12.890625 
Q 22.859375 7.515625 30.078125 7.515625 
Q 37.359375 7.515625 41.375 12.890625 
Q 45.40625 18.265625 45.40625 27.984375 
z
M 54.390625 6.78125 
Q 54.390625 -7.171875 48.1875 -13.984375 
Q 42 -20.796875 29.203125 -20.796875 
Q 24.46875 -20.796875 20.265625 -20.09375 
Q 16.0625 -19.390625 12.109375 -17.921875 
L 12.109375 -9.1875 
Q 16.0625 -11.328125 19.921875 -12.34375 
Q 23.78125 -13.375 27.78125 -13.375 
Q 36.625 -13.375 41.015625 -8.765625 
Q 45.40625 -4.15625 45.40625 5.171875 
L 45.40625 9.625 
Q 42.625 4.78125 38.28125 2.390625 
Q 33.9375 0 27.875 0 
Q 17.828125 0 11.671875 7.65625 
Q 5.515625 15.328125 5.515625 27.984375 
Q 5.515625 40.671875 11.671875 48.328125 
Q 17.828125 56 27.875 56 
Q 33.9375 56 38.28125 53.609375 
Q 42.625 51.21875 45.40625 46.390625 
L 45.40625 54.6875 
L 54.390625 54.6875 
z
" id="DejaVuSans-103"/>
     </defs>
     <use xlink:href="#DejaVuSans-49"/>
     <use x="63.623047" xlink:href="#DejaVuSans-50"/>
     <use x="127.246094" xlink:href="#DejaVuSans-116"/>
     <use x="166.455078" xlink:href="#DejaVuSans-104"/>
     <use x="229.833984" xlink:href="#DejaVuSans-32"/>
     <use x="261.621094" xlink:href="#DejaVuSans-108"/>
     <use x="289.404297" xlink:href="#DejaVuSans-97"/>
     <use x="350.683594" xlink:href="#DejaVuSans-121"/>
     <use x="409.863281" xlink:href="#DejaVuSans-101"/>
     <use x="471.386719" xlink:href="#DejaVuSans-114"/>
     <use x="512.5" xlink:href="#DejaVuSans-39"/>
     <use x="539.990234" xlink:href="#DejaVuSans-115"/>
     <use x="592.089844" xlink:href="#DejaVuSans-32"/>
     <use x="623.876953" xlink:href="#DejaVuSans-115"/>
     <use x="675.976562" xlink:href="#DejaVuSans-104"/>
     <use x="739.355469" xlink:href="#DejaVuSans-97"/>
     <use x="800.634766" xlink:href="#DejaVuSans-112"/>
     <use x="864.111328" xlink:href="#DejaVuSans-101"/>
     <use x="925.634766" xlink:href="#DejaVuSans-58"/>
     <use x="959.326172" xlink:href="#DejaVuSans-32"/>
     <use x="991.113281" xlink:href="#DejaVuSans-116"/>
     <use x="1030.322266" xlink:href="#DejaVuSans-111"/>
     <use x="1091.503906" xlink:href="#DejaVuSans-114"/>
     <use x="1130.367188" xlink:href="#DejaVuSans-99"/>
     <use x="1185.347656" xlink:href="#DejaVuSans-104"/>
     <use x="1248.726562" xlink:href="#DejaVuSans-46"/>
     <use x="1280.513672" xlink:href="#DejaVuSans-83"/>
     <use x="1343.990234" xlink:href="#DejaVuSans-105"/>
     <use x="1371.773438" xlink:href="#DejaVuSans-122"/>
     <use x="1424.263672" xlink:href="#DejaVuSans-101"/>
     <use x="1485.787109" xlink:href="#DejaVuSans-40"/>
     <use x="1524.800781" xlink:href="#DejaVuSans-91"/>
     <use x="1563.814453" xlink:href="#DejaVuSans-49"/>
     <use x="1627.4375" xlink:href="#DejaVuSans-44"/>
     <use x="1659.224609" xlink:href="#DejaVuSans-32"/>
     <use x="1691.011719" xlink:href="#DejaVuSans-49"/>
     <use x="1754.634766" xlink:href="#DejaVuSans-44"/>
     <use x="1786.421875" xlink:href="#DejaVuSans-32"/>
     <use x="1818.208984" xlink:href="#DejaVuSans-49"/>
     <use x="1881.832031" xlink:href="#DejaVuSans-48"/>
     <use x="1945.455078" xlink:href="#DejaVuSans-50"/>
     <use x="2009.078125" xlink:href="#DejaVuSans-52"/>
     <use x="2072.701172" xlink:href="#DejaVuSans-93"/>
     <use x="2111.714844" xlink:href="#DejaVuSans-41"/>
     <use x="2150.728516" xlink:href="#DejaVuSans-46"/>
     <use x="2182.515625" xlink:href="#DejaVuSans-32"/>
     <use x="2214.302734" xlink:href="#DejaVuSans-85"/>
     <use x="2287.496094" xlink:href="#DejaVuSans-110"/>
     <use x="2350.875" xlink:href="#DejaVuSans-105"/>
     <use x="2378.658203" xlink:href="#DejaVuSans-102"/>
     <use x="2413.863281" xlink:href="#DejaVuSans-111"/>
     <use x="2475.044922" xlink:href="#DejaVuSans-114"/>
     <use x="2514.408203" xlink:href="#DejaVuSans-109"/>
     <use x="2611.820312" xlink:href="#DejaVuSans-108"/>
     <use x="2639.603516" xlink:href="#DejaVuSans-121"/>
     <use x="2698.783203" xlink:href="#DejaVuSans-32"/>
     <use x="2730.570312" xlink:href="#DejaVuSans-115"/>
     <use x="2782.669922" xlink:href="#DejaVuSans-97"/>
     <use x="2843.949219" xlink:href="#DejaVuSans-109"/>
     <use x="2941.361328" xlink:href="#DejaVuSans-112"/>
     <use x="3004.837891" xlink:href="#DejaVuSans-108"/>
     <use x="3032.621094" xlink:href="#DejaVuSans-105"/>
     <use x="3060.404297" xlink:href="#DejaVuSans-110"/>
     <use x="3123.783203" xlink:href="#DejaVuSans-103"/>
     <use x="3187.259766" xlink:href="#DejaVuSans-32"/>
     <use x="3219.046875" xlink:href="#DejaVuSans-49"/>
     <use x="3282.669922" xlink:href="#DejaVuSans-54"/>
     <use x="3346.292969" xlink:href="#DejaVuSans-32"/>
     <use x="3378.080078" xlink:href="#DejaVuSans-99"/>
     <use x="3433.060547" xlink:href="#DejaVuSans-104"/>
     <use x="3496.439453" xlink:href="#DejaVuSans-97"/>
     <use x="3557.71875" xlink:href="#DejaVuSans-110"/>
     <use x="3621.097656" xlink:href="#DejaVuSans-110"/>
     <use x="3684.476562" xlink:href="#DejaVuSans-101"/>
     <use x="3746" xlink:href="#DejaVuSans-108"/>
     <use x="3773.783203" xlink:href="#DejaVuSans-115"/>
    </g>
   </g>
  </g>
 </g>
 <defs>
  <clipPath id="p9725e096ef">
   <rect height="266.112" width="892.8" x="144" y="41.472"/>
  </clipPath>
 </defs>
</svg>
