<?xml version="1.0" encoding="utf-8" standalone="no"?>
<!DOCTYPE svg PUBLIC "-//W3C//DTD SVG 1.1//EN"
  "http://www.w3.org/Graphics/SVG/1.1/DTD/svg11.dtd">
<!-- Created with matplotlib (https://matplotlib.org/) -->
<svg height="345.6pt" version="1.1" viewBox="0 0 1152 345.6" width="1152pt" xmlns="http://www.w3.org/2000/svg" xmlns:xlink="http://www.w3.org/1999/xlink">
 <metadata>
  <rdf:RDF xmlns:cc="http://creativecommons.org/ns#" xmlns:dc="http://purl.org/dc/elements/1.1/" xmlns:rdf="http://www.w3.org/1999/02/22-rdf-syntax-ns#">
   <cc:Work>
    <dc:type rdf:resource="http://purl.org/dc/dcmitype/StillImage"/>
    <dc:date>2021-12-24T07:22:19.910456</dc:date>
    <dc:format>image/svg+xml</dc:format>
    <dc:creator>
     <cc:Agent>
      <dc:title>Matplotlib v3.3.3, https://matplotlib.org/</dc:title>
     </cc:Agent>
    </dc:creator>
   </cc:Work>
  </rdf:RDF>
 </metadata>
 <defs>
  <style type="text/css">*{stroke-linecap:butt;stroke-linejoin:round;}</style>
 </defs>
 <g id="figure_1">
  <g id="patch_1">
   <path d="M 0 345.6 
L 1152 345.6 
L 1152 0 
L 0 0 
z
" style="fill:#ffffff;"/>
  </g>
  <g id="axes_1">
   <g id="patch_2">
    <path d="M 144 307.584 
L 1036.8 307.584 
L 1036.8 41.472 
L 144 41.472 
z
" style="fill:#ffffff;"/>
   </g>
   <g id="matplotlib.axis_1">
    <g id="xtick_1">
     <g id="line2d_1">
      <defs>
       <path d="M 0 0 
L 0 3.5 
" id="m2b69d26a11" style="stroke:#000000;stroke-width:0.8;"/>
      </defs>
      <g>
       <use style="stroke:#000000;stroke-width:0.8;" x="184.581818" xlink:href="#m2b69d26a11" y="307.584"/>
      </g>
     </g>
     <g id="text_1">
      <!-- 0 -->
      <g transform="translate(181.400568 322.182437)scale(0.1 -0.1)">
       <defs>
        <path d="M 31.78125 66.40625 
Q 24.171875 66.40625 20.328125 58.90625 
Q 16.5 51.421875 16.5 36.375 
Q 16.5 21.390625 20.328125 13.890625 
Q 24.171875 6.390625 31.78125 6.390625 
Q 39.453125 6.390625 43.28125 13.890625 
Q 47.125 21.390625 47.125 36.375 
Q 47.125 51.421875 43.28125 58.90625 
Q 39.453125 66.40625 31.78125 66.40625 
z
M 31.78125 74.21875 
Q 44.046875 74.21875 50.515625 64.515625 
Q 56.984375 54.828125 56.984375 36.375 
Q 56.984375 17.96875 50.515625 8.265625 
Q 44.046875 -1.421875 31.78125 -1.421875 
Q 19.53125 -1.421875 13.0625 8.265625 
Q 6.59375 17.96875 6.59375 36.375 
Q 6.59375 54.828125 13.0625 64.515625 
Q 19.53125 74.21875 31.78125 74.21875 
z
" id="DejaVuSans-48"/>
       </defs>
       <use xlink:href="#DejaVuSans-48"/>
      </g>
     </g>
    </g>
    <g id="xtick_2">
     <g id="line2d_2">
      <g>
       <use style="stroke:#000000;stroke-width:0.8;" x="313.412987" xlink:href="#m2b69d26a11" y="307.584"/>
      </g>
     </g>
     <g id="text_2">
      <!-- 10 -->
      <g transform="translate(307.050487 322.182437)scale(0.1 -0.1)">
       <defs>
        <path d="M 12.40625 8.296875 
L 28.515625 8.296875 
L 28.515625 63.921875 
L 10.984375 60.40625 
L 10.984375 69.390625 
L 28.421875 72.90625 
L 38.28125 72.90625 
L 38.28125 8.296875 
L 54.390625 8.296875 
L 54.390625 0 
L 12.40625 0 
z
" id="DejaVuSans-49"/>
       </defs>
       <use xlink:href="#DejaVuSans-49"/>
       <use x="63.623047" xlink:href="#DejaVuSans-48"/>
      </g>
     </g>
    </g>
    <g id="xtick_3">
     <g id="line2d_3">
      <g>
       <use style="stroke:#000000;stroke-width:0.8;" x="442.244156" xlink:href="#m2b69d26a11" y="307.584"/>
      </g>
     </g>
     <g id="text_3">
      <!-- 20 -->
      <g transform="translate(435.881656 322.182437)scale(0.1 -0.1)">
       <defs>
        <path d="M 19.1875 8.296875 
L 53.609375 8.296875 
L 53.609375 0 
L 7.328125 0 
L 7.328125 8.296875 
Q 12.9375 14.109375 22.625 23.890625 
Q 32.328125 33.6875 34.8125 36.53125 
Q 39.546875 41.84375 41.421875 45.53125 
Q 43.3125 49.21875 43.3125 52.78125 
Q 43.3125 58.59375 39.234375 62.25 
Q 35.15625 65.921875 28.609375 65.921875 
Q 23.96875 65.921875 18.8125 64.3125 
Q 13.671875 62.703125 7.8125 59.421875 
L 7.8125 69.390625 
Q 13.765625 71.78125 18.9375 73 
Q 24.125 74.21875 28.421875 74.21875 
Q 39.75 74.21875 46.484375 68.546875 
Q 53.21875 62.890625 53.21875 53.421875 
Q 53.21875 48.921875 51.53125 44.890625 
Q 49.859375 40.875 45.40625 35.40625 
Q 44.1875 33.984375 37.640625 27.21875 
Q 31.109375 20.453125 19.1875 8.296875 
z
" id="DejaVuSans-50"/>
       </defs>
       <use xlink:href="#DejaVuSans-50"/>
       <use x="63.623047" xlink:href="#DejaVuSans-48"/>
      </g>
     </g>
    </g>
    <g id="xtick_4">
     <g id="line2d_4">
      <g>
       <use style="stroke:#000000;stroke-width:0.8;" x="571.075325" xlink:href="#m2b69d26a11" y="307.584"/>
      </g>
     </g>
     <g id="text_4">
      <!-- 30 -->
      <g transform="translate(564.712825 322.182437)scale(0.1 -0.1)">
       <defs>
        <path d="M 40.578125 39.3125 
Q 47.65625 37.796875 51.625 33 
Q 55.609375 28.21875 55.609375 21.1875 
Q 55.609375 10.40625 48.1875 4.484375 
Q 40.765625 -1.421875 27.09375 -1.421875 
Q 22.515625 -1.421875 17.65625 -0.515625 
Q 12.796875 0.390625 7.625 2.203125 
L 7.625 11.71875 
Q 11.71875 9.328125 16.59375 8.109375 
Q 21.484375 6.890625 26.8125 6.890625 
Q 36.078125 6.890625 40.9375 10.546875 
Q 45.796875 14.203125 45.796875 21.1875 
Q 45.796875 27.640625 41.28125 31.265625 
Q 36.765625 34.90625 28.71875 34.90625 
L 20.21875 34.90625 
L 20.21875 43.015625 
L 29.109375 43.015625 
Q 36.375 43.015625 40.234375 45.921875 
Q 44.09375 48.828125 44.09375 54.296875 
Q 44.09375 59.90625 40.109375 62.90625 
Q 36.140625 65.921875 28.71875 65.921875 
Q 24.65625 65.921875 20.015625 65.03125 
Q 15.375 64.15625 9.8125 62.3125 
L 9.8125 71.09375 
Q 15.4375 72.65625 20.34375 73.4375 
Q 25.25 74.21875 29.59375 74.21875 
Q 40.828125 74.21875 47.359375 69.109375 
Q 53.90625 64.015625 53.90625 55.328125 
Q 53.90625 49.265625 50.4375 45.09375 
Q 46.96875 40.921875 40.578125 39.3125 
z
" id="DejaVuSans-51"/>
       </defs>
       <use xlink:href="#DejaVuSans-51"/>
       <use x="63.623047" xlink:href="#DejaVuSans-48"/>
      </g>
     </g>
    </g>
    <g id="xtick_5">
     <g id="line2d_5">
      <g>
       <use style="stroke:#000000;stroke-width:0.8;" x="699.906494" xlink:href="#m2b69d26a11" y="307.584"/>
      </g>
     </g>
     <g id="text_5">
      <!-- 40 -->
      <g transform="translate(693.543994 322.182437)scale(0.1 -0.1)">
       <defs>
        <path d="M 37.796875 64.3125 
L 12.890625 25.390625 
L 37.796875 25.390625 
z
M 35.203125 72.90625 
L 47.609375 72.90625 
L 47.609375 25.390625 
L 58.015625 25.390625 
L 58.015625 17.1875 
L 47.609375 17.1875 
L 47.609375 0 
L 37.796875 0 
L 37.796875 17.1875 
L 4.890625 17.1875 
L 4.890625 26.703125 
z
" id="DejaVuSans-52"/>
       </defs>
       <use xlink:href="#DejaVuSans-52"/>
       <use x="63.623047" xlink:href="#DejaVuSans-48"/>
      </g>
     </g>
    </g>
    <g id="xtick_6">
     <g id="line2d_6">
      <g>
       <use style="stroke:#000000;stroke-width:0.8;" x="828.737662" xlink:href="#m2b69d26a11" y="307.584"/>
      </g>
     </g>
     <g id="text_6">
      <!-- 50 -->
      <g transform="translate(822.375162 322.182437)scale(0.1 -0.1)">
       <defs>
        <path d="M 10.796875 72.90625 
L 49.515625 72.90625 
L 49.515625 64.59375 
L 19.828125 64.59375 
L 19.828125 46.734375 
Q 21.96875 47.46875 24.109375 47.828125 
Q 26.265625 48.1875 28.421875 48.1875 
Q 40.625 48.1875 47.75 41.5 
Q 54.890625 34.8125 54.890625 23.390625 
Q 54.890625 11.625 47.5625 5.09375 
Q 40.234375 -1.421875 26.90625 -1.421875 
Q 22.3125 -1.421875 17.546875 -0.640625 
Q 12.796875 0.140625 7.71875 1.703125 
L 7.71875 11.625 
Q 12.109375 9.234375 16.796875 8.0625 
Q 21.484375 6.890625 26.703125 6.890625 
Q 35.15625 6.890625 40.078125 11.328125 
Q 45.015625 15.765625 45.015625 23.390625 
Q 45.015625 31 40.078125 35.4375 
Q 35.15625 39.890625 26.703125 39.890625 
Q 22.75 39.890625 18.8125 39.015625 
Q 14.890625 38.140625 10.796875 36.28125 
z
" id="DejaVuSans-53"/>
       </defs>
       <use xlink:href="#DejaVuSans-53"/>
       <use x="63.623047" xlink:href="#DejaVuSans-48"/>
      </g>
     </g>
    </g>
    <g id="xtick_7">
     <g id="line2d_7">
      <g>
       <use style="stroke:#000000;stroke-width:0.8;" x="957.568831" xlink:href="#m2b69d26a11" y="307.584"/>
      </g>
     </g>
     <g id="text_7">
      <!-- 60 -->
      <g transform="translate(951.206331 322.182437)scale(0.1 -0.1)">
       <defs>
        <path d="M 33.015625 40.375 
Q 26.375 40.375 22.484375 35.828125 
Q 18.609375 31.296875 18.609375 23.390625 
Q 18.609375 15.53125 22.484375 10.953125 
Q 26.375 6.390625 33.015625 6.390625 
Q 39.65625 6.390625 43.53125 10.953125 
Q 47.40625 15.53125 47.40625 23.390625 
Q 47.40625 31.296875 43.53125 35.828125 
Q 39.65625 40.375 33.015625 40.375 
z
M 52.59375 71.296875 
L 52.59375 62.3125 
Q 48.875 64.0625 45.09375 64.984375 
Q 41.3125 65.921875 37.59375 65.921875 
Q 27.828125 65.921875 22.671875 59.328125 
Q 17.53125 52.734375 16.796875 39.40625 
Q 19.671875 43.65625 24.015625 45.921875 
Q 28.375 48.1875 33.59375 48.1875 
Q 44.578125 48.1875 50.953125 41.515625 
Q 57.328125 34.859375 57.328125 23.390625 
Q 57.328125 12.15625 50.6875 5.359375 
Q 44.046875 -1.421875 33.015625 -1.421875 
Q 20.359375 -1.421875 13.671875 8.265625 
Q 6.984375 17.96875 6.984375 36.375 
Q 6.984375 53.65625 15.1875 63.9375 
Q 23.390625 74.21875 37.203125 74.21875 
Q 40.921875 74.21875 44.703125 73.484375 
Q 48.484375 72.75 52.59375 71.296875 
z
" id="DejaVuSans-54"/>
       </defs>
       <use xlink:href="#DejaVuSans-54"/>
       <use x="63.623047" xlink:href="#DejaVuSans-48"/>
      </g>
     </g>
    </g>
   </g>
   <g id="matplotlib.axis_2">
    <g id="ytick_1">
     <g id="line2d_8">
      <defs>
       <path d="M 0 0 
L -3.5 0 
" id="mf7a3580ad4" style="stroke:#000000;stroke-width:0.8;"/>
      </defs>
      <g>
       <use style="stroke:#000000;stroke-width:0.8;" x="144" xlink:href="#mf7a3580ad4" y="276.057501"/>
      </g>
     </g>
     <g id="text_8">
      <!-- −0.002 -->
      <g transform="translate(99.992188 279.85672)scale(0.1 -0.1)">
       <defs>
        <path d="M 10.59375 35.5 
L 73.1875 35.5 
L 73.1875 27.203125 
L 10.59375 27.203125 
z
" id="DejaVuSans-8722"/>
        <path d="M 10.6875 12.40625 
L 21 12.40625 
L 21 0 
L 10.6875 0 
z
" id="DejaVuSans-46"/>
       </defs>
       <use xlink:href="#DejaVuSans-8722"/>
       <use x="83.789062" xlink:href="#DejaVuSans-48"/>
       <use x="147.412109" xlink:href="#DejaVuSans-46"/>
       <use x="179.199219" xlink:href="#DejaVuSans-48"/>
       <use x="242.822266" xlink:href="#DejaVuSans-48"/>
       <use x="306.445312" xlink:href="#DejaVuSans-50"/>
      </g>
     </g>
    </g>
    <g id="ytick_2">
     <g id="line2d_9">
      <g>
       <use style="stroke:#000000;stroke-width:0.8;" x="144" xlink:href="#mf7a3580ad4" y="238.27218"/>
      </g>
     </g>
     <g id="text_9">
      <!-- −0.001 -->
      <g transform="translate(99.992188 242.071399)scale(0.1 -0.1)">
       <use xlink:href="#DejaVuSans-8722"/>
       <use x="83.789062" xlink:href="#DejaVuSans-48"/>
       <use x="147.412109" xlink:href="#DejaVuSans-46"/>
       <use x="179.199219" xlink:href="#DejaVuSans-48"/>
       <use x="242.822266" xlink:href="#DejaVuSans-48"/>
       <use x="306.445312" xlink:href="#DejaVuSans-49"/>
      </g>
     </g>
    </g>
    <g id="ytick_3">
     <g id="line2d_10">
      <g>
       <use style="stroke:#000000;stroke-width:0.8;" x="144" xlink:href="#mf7a3580ad4" y="200.486859"/>
      </g>
     </g>
     <g id="text_10">
      <!-- 0.000 -->
      <g transform="translate(108.371875 204.286077)scale(0.1 -0.1)">
       <use xlink:href="#DejaVuSans-48"/>
       <use x="63.623047" xlink:href="#DejaVuSans-46"/>
       <use x="95.410156" xlink:href="#DejaVuSans-48"/>
       <use x="159.033203" xlink:href="#DejaVuSans-48"/>
       <use x="222.65625" xlink:href="#DejaVuSans-48"/>
      </g>
     </g>
    </g>
    <g id="ytick_4">
     <g id="line2d_11">
      <g>
       <use style="stroke:#000000;stroke-width:0.8;" x="144" xlink:href="#mf7a3580ad4" y="162.701537"/>
      </g>
     </g>
     <g id="text_11">
      <!-- 0.001 -->
      <g transform="translate(108.371875 166.500756)scale(0.1 -0.1)">
       <use xlink:href="#DejaVuSans-48"/>
       <use x="63.623047" xlink:href="#DejaVuSans-46"/>
       <use x="95.410156" xlink:href="#DejaVuSans-48"/>
       <use x="159.033203" xlink:href="#DejaVuSans-48"/>
       <use x="222.65625" xlink:href="#DejaVuSans-49"/>
      </g>
     </g>
    </g>
    <g id="ytick_5">
     <g id="line2d_12">
      <g>
       <use style="stroke:#000000;stroke-width:0.8;" x="144" xlink:href="#mf7a3580ad4" y="124.916216"/>
      </g>
     </g>
     <g id="text_12">
      <!-- 0.002 -->
      <g transform="translate(108.371875 128.715435)scale(0.1 -0.1)">
       <use xlink:href="#DejaVuSans-48"/>
       <use x="63.623047" xlink:href="#DejaVuSans-46"/>
       <use x="95.410156" xlink:href="#DejaVuSans-48"/>
       <use x="159.033203" xlink:href="#DejaVuSans-48"/>
       <use x="222.65625" xlink:href="#DejaVuSans-50"/>
      </g>
     </g>
    </g>
    <g id="ytick_6">
     <g id="line2d_13">
      <g>
       <use style="stroke:#000000;stroke-width:0.8;" x="144" xlink:href="#mf7a3580ad4" y="87.130895"/>
      </g>
     </g>
     <g id="text_13">
      <!-- 0.003 -->
      <g transform="translate(108.371875 90.930113)scale(0.1 -0.1)">
       <use xlink:href="#DejaVuSans-48"/>
       <use x="63.623047" xlink:href="#DejaVuSans-46"/>
       <use x="95.410156" xlink:href="#DejaVuSans-48"/>
       <use x="159.033203" xlink:href="#DejaVuSans-48"/>
       <use x="222.65625" xlink:href="#DejaVuSans-51"/>
      </g>
     </g>
    </g>
    <g id="ytick_7">
     <g id="line2d_14">
      <g>
       <use style="stroke:#000000;stroke-width:0.8;" x="144" xlink:href="#mf7a3580ad4" y="49.345573"/>
      </g>
     </g>
     <g id="text_14">
      <!-- 0.004 -->
      <g transform="translate(108.371875 53.144792)scale(0.1 -0.1)">
       <use xlink:href="#DejaVuSans-48"/>
       <use x="63.623047" xlink:href="#DejaVuSans-46"/>
       <use x="95.410156" xlink:href="#DejaVuSans-48"/>
       <use x="159.033203" xlink:href="#DejaVuSans-48"/>
       <use x="222.65625" xlink:href="#DejaVuSans-52"/>
      </g>
     </g>
    </g>
   </g>
   <g id="line2d_15">
    <path clip-path="url(#pc9025be674)" d="M 184.581818 160.988972 
L 197.464935 214.298074 
L 210.348052 211.687235 
L 223.231169 211.889368 
L 236.114286 211.889368 
L 248.997403 211.889368 
L 261.880519 211.889368 
L 274.763636 211.889368 
L 287.646753 211.889368 
L 300.52987 211.889368 
L 313.412987 211.889368 
L 326.296104 211.889368 
L 339.179221 211.889368 
L 352.062338 211.889368 
L 364.945455 211.889368 
L 377.828571 211.889368 
L 390.711688 211.889368 
L 403.594805 211.889368 
L 416.477922 211.889368 
L 429.361039 211.889368 
L 442.244156 211.889368 
L 455.127273 211.889368 
L 468.01039 211.889368 
L 480.893506 211.889368 
L 493.776623 211.889368 
L 506.65974 211.889368 
L 519.542857 211.889368 
L 532.425974 211.889368 
L 545.309091 211.889368 
L 558.192208 211.889368 
L 571.075325 211.889368 
L 583.958442 211.889368 
L 596.841558 211.889368 
L 609.724675 211.889368 
L 622.607792 211.889368 
L 635.490909 211.889368 
L 648.374026 211.889368 
L 661.257143 211.889368 
L 674.14026 211.889368 
L 687.023377 211.889368 
L 699.906494 211.889368 
L 712.78961 211.889368 
L 725.672727 211.889368 
L 738.555844 211.889368 
L 751.438961 211.889368 
L 764.322078 211.889368 
L 777.205195 211.889368 
L 790.088312 211.889368 
L 802.971429 211.889368 
L 815.854545 211.889368 
L 828.737662 211.889368 
L 841.620779 211.889368 
L 854.503896 211.889368 
L 867.387013 211.889368 
L 880.27013 211.889368 
L 893.153247 211.889368 
L 906.036364 211.889368 
L 918.919481 211.889368 
L 931.802597 211.889368 
L 944.685714 211.889368 
L 957.568831 211.889368 
L 970.451948 210.393075 
L 983.335065 223.58874 
L 996.218182 197.551845 
" style="fill:none;stroke:#1f77b4;stroke-linecap:square;stroke-width:1.5;"/>
   </g>
   <g id="line2d_16">
    <path clip-path="url(#pc9025be674)" d="M 184.581818 218.803702 
L 197.464935 252.070211 
L 210.348052 246.744516 
L 223.231169 246.884221 
L 236.114286 246.884221 
L 248.997403 246.884221 
L 261.880519 246.884221 
L 274.763636 246.884221 
L 287.646753 246.884221 
L 300.52987 246.884221 
L 313.412987 246.884221 
L 326.296104 246.884221 
L 339.179221 246.884221 
L 352.062338 246.884221 
L 364.945455 246.884221 
L 377.828571 246.884221 
L 390.711688 246.884221 
L 403.594805 246.884221 
L 416.477922 246.884221 
L 429.361039 246.884221 
L 442.244156 246.884221 
L 455.127273 246.884221 
L 468.01039 246.884221 
L 480.893506 246.884221 
L 493.776623 246.884221 
L 506.65974 246.884221 
L 519.542857 246.884221 
L 532.425974 246.884221 
L 545.309091 246.884221 
L 558.192208 246.884221 
L 571.075325 246.884221 
L 583.958442 246.884221 
L 596.841558 246.884221 
L 609.724675 246.884221 
L 622.607792 246.884221 
L 635.490909 246.884221 
L 648.374026 246.884221 
L 661.257143 246.884221 
L 674.14026 246.884221 
L 687.023377 246.884221 
L 699.906494 246.884221 
L 712.78961 246.884221 
L 725.672727 246.884221 
L 738.555844 246.884221 
L 751.438961 246.884221 
L 764.322078 246.884221 
L 777.205195 246.884221 
L 790.088312 246.884221 
L 802.971429 246.884221 
L 815.854545 246.884221 
L 828.737662 246.884221 
L 841.620779 246.884221 
L 854.503896 246.884221 
L 867.387013 246.884221 
L 880.27013 246.884221 
L 893.153247 246.884221 
L 906.036364 246.884221 
L 918.919481 246.884221 
L 931.802597 246.884221 
L 944.685714 246.884221 
L 957.568831 246.884221 
L 970.451948 246.385363 
L 983.335065 254.924489 
L 996.218182 216.50866 
" style="fill:none;stroke:#ff7f0e;stroke-linecap:square;stroke-width:1.5;"/>
   </g>
   <g id="line2d_17">
    <path clip-path="url(#pc9025be674)" d="M 184.581818 189.665729 
L 197.464935 238.171599 
L 210.348052 223.951552 
L 223.231169 224.322177 
L 236.114286 224.322177 
L 248.997403 224.322177 
L 261.880519 224.322177 
L 274.763636 224.322177 
L 287.646753 224.322177 
L 300.52987 224.322177 
L 313.412987 224.322177 
L 326.296104 224.322177 
L 339.179221 224.322177 
L 352.062338 224.322177 
L 364.945455 224.322177 
L 377.828571 224.322177 
L 390.711688 224.322177 
L 403.594805 224.322177 
L 416.477922 224.322177 
L 429.361039 224.322177 
L 442.244156 224.322177 
L 455.127273 224.322177 
L 468.01039 224.322177 
L 480.893506 224.322177 
L 493.776623 224.322177 
L 506.65974 224.322177 
L 519.542857 224.322177 
L 532.425974 224.322177 
L 545.309091 224.322177 
L 558.192208 224.322177 
L 571.075325 224.322177 
L 583.958442 224.322177 
L 596.841558 224.322177 
L 609.724675 224.322177 
L 622.607792 224.322177 
L 635.490909 224.322177 
L 648.374026 224.322177 
L 661.257143 224.322177 
L 674.14026 224.322177 
L 687.023377 224.322177 
L 699.906494 224.322177 
L 712.78961 224.322177 
L 725.672727 224.322177 
L 738.555844 224.322177 
L 751.438961 224.322177 
L 764.322078 224.322177 
L 777.205195 224.322177 
L 790.088312 224.322177 
L 802.971429 224.322177 
L 815.854545 224.322177 
L 828.737662 224.322177 
L 841.620779 224.322177 
L 854.503896 224.322177 
L 867.387013 224.322177 
L 880.27013 224.322177 
L 893.153247 224.322177 
L 906.036364 224.322177 
L 918.919481 224.322177 
L 931.802597 224.322177 
L 944.685714 224.322177 
L 957.568831 224.322177 
L 970.451948 223.427428 
L 983.335065 238.270765 
L 996.218182 147.550214 
" style="fill:none;stroke:#2ca02c;stroke-linecap:square;stroke-width:1.5;"/>
   </g>
   <g id="line2d_18">
    <path clip-path="url(#pc9025be674)" d="M 184.581818 174.444018 
L 197.464935 196.891956 
L 210.348052 192.504286 
L 223.231169 193.555245 
L 236.114286 193.555245 
L 248.997403 193.555245 
L 261.880519 193.555245 
L 274.763636 193.555245 
L 287.646753 193.555245 
L 300.52987 193.555245 
L 313.412987 193.555245 
L 326.296104 193.555245 
L 339.179221 193.555245 
L 352.062338 193.555245 
L 364.945455 193.555245 
L 377.828571 193.555245 
L 390.711688 193.555245 
L 403.594805 193.555245 
L 416.477922 193.555245 
L 429.361039 193.555245 
L 442.244156 193.555245 
L 455.127273 193.555245 
L 468.01039 193.555245 
L 480.893506 193.555245 
L 493.776623 193.555245 
L 506.65974 193.555245 
L 519.542857 193.555245 
L 532.425974 193.555245 
L 545.309091 193.555245 
L 558.192208 193.555245 
L 571.075325 193.555245 
L 583.958442 193.555245 
L 596.841558 193.555245 
L 609.724675 193.555245 
L 622.607792 193.555245 
L 635.490909 193.555245 
L 648.374026 193.555245 
L 661.257143 193.555245 
L 674.14026 193.555245 
L 687.023377 193.555245 
L 699.906494 193.555245 
L 712.78961 193.555245 
L 725.672727 193.555245 
L 738.555844 193.555245 
L 751.438961 193.555245 
L 764.322078 193.555245 
L 777.205195 193.555245 
L 790.088312 193.555245 
L 802.971429 193.555245 
L 815.854545 193.555245 
L 828.737662 193.555245 
L 841.620779 193.555245 
L 854.503896 193.555245 
L 867.387013 193.555245 
L 880.27013 193.555245 
L 893.153247 193.555245 
L 906.036364 193.555245 
L 918.919481 193.555245 
L 931.802597 193.555245 
L 944.685714 193.555245 
L 957.568831 193.555245 
L 970.451948 194.840043 
L 983.335065 201.32101 
L 996.218182 193.782504 
" style="fill:none;stroke:#d62728;stroke-linecap:square;stroke-width:1.5;"/>
   </g>
   <g id="line2d_19">
    <path clip-path="url(#pc9025be674)" d="M 184.581818 178.888659 
L 197.464935 187.73656 
L 210.348052 182.764943 
L 223.231169 182.123142 
L 236.114286 182.123142 
L 248.997403 182.123142 
L 261.880519 182.123142 
L 274.763636 182.123142 
L 287.646753 182.123142 
L 300.52987 182.123142 
L 313.412987 182.123142 
L 326.296104 182.123142 
L 339.179221 182.123142 
L 352.062338 182.123142 
L 364.945455 182.123142 
L 377.828571 182.123142 
L 390.711688 182.123142 
L 403.594805 182.123142 
L 416.477922 182.123142 
L 429.361039 182.123142 
L 442.244156 182.123142 
L 455.127273 182.123142 
L 468.01039 182.123142 
L 480.893506 182.123142 
L 493.776623 182.123142 
L 506.65974 182.123142 
L 519.542857 182.123142 
L 532.425974 182.123142 
L 545.309091 182.123142 
L 558.192208 182.123142 
L 571.075325 182.123142 
L 583.958442 182.123142 
L 596.841558 182.123142 
L 609.724675 182.123142 
L 622.607792 182.123142 
L 635.490909 182.123142 
L 648.374026 182.123142 
L 661.257143 182.123142 
L 674.14026 182.123142 
L 687.023377 182.123142 
L 699.906494 182.123142 
L 712.78961 182.123142 
L 725.672727 182.123142 
L 738.555844 182.123142 
L 751.438961 182.123142 
L 764.322078 182.123142 
L 777.205195 182.123142 
L 790.088312 182.123142 
L 802.971429 182.123142 
L 815.854545 182.123142 
L 828.737662 182.123142 
L 841.620779 182.123142 
L 854.503896 182.123142 
L 867.387013 182.123142 
L 880.27013 182.123142 
L 893.153247 182.123142 
L 906.036364 182.123142 
L 918.919481 182.123142 
L 931.802597 182.123142 
L 944.685714 182.123142 
L 957.568831 182.123142 
L 970.451948 181.8526 
L 983.335065 183.262534 
L 996.218182 163.154162 
" style="fill:none;stroke:#9467bd;stroke-linecap:square;stroke-width:1.5;"/>
   </g>
   <g id="line2d_20">
    <path clip-path="url(#pc9025be674)" d="M 184.581818 154.578008 
L 197.464935 217.764479 
L 210.348052 206.847114 
L 223.231169 207.86685 
L 236.114286 207.86685 
L 248.997403 207.86685 
L 261.880519 207.86685 
L 274.763636 207.86685 
L 287.646753 207.86685 
L 300.52987 207.86685 
L 313.412987 207.86685 
L 326.296104 207.86685 
L 339.179221 207.86685 
L 352.062338 207.86685 
L 364.945455 207.86685 
L 377.828571 207.86685 
L 390.711688 207.86685 
L 403.594805 207.86685 
L 416.477922 207.86685 
L 429.361039 207.86685 
L 442.244156 207.86685 
L 455.127273 207.86685 
L 468.01039 207.86685 
L 480.893506 207.86685 
L 493.776623 207.86685 
L 506.65974 207.86685 
L 519.542857 207.86685 
L 532.425974 207.86685 
L 545.309091 207.86685 
L 558.192208 207.86685 
L 571.075325 207.86685 
L 583.958442 207.86685 
L 596.841558 207.86685 
L 609.724675 207.86685 
L 622.607792 207.86685 
L 635.490909 207.86685 
L 648.374026 207.86685 
L 661.257143 207.86685 
L 674.14026 207.86685 
L 687.023377 207.86685 
L 699.906494 207.86685 
L 712.78961 207.86685 
L 725.672727 207.86685 
L 738.555844 207.86685 
L 751.438961 207.86685 
L 764.322078 207.86685 
L 777.205195 207.86685 
L 790.088312 207.86685 
L 802.971429 207.86685 
L 815.854545 207.86685 
L 828.737662 207.86685 
L 841.620779 207.86685 
L 854.503896 207.86685 
L 867.387013 207.86685 
L 880.27013 207.86685 
L 893.153247 207.86685 
L 906.036364 207.86685 
L 918.919481 207.86685 
L 931.802597 207.86685 
L 944.685714 207.86685 
L 957.568831 207.86685 
L 970.451948 208.105722 
L 983.335065 196.934765 
L 996.218182 181.788747 
" style="fill:none;stroke:#8c564b;stroke-linecap:square;stroke-width:1.5;"/>
   </g>
   <g id="line2d_21">
    <path clip-path="url(#pc9025be674)" d="M 184.581818 123.24125 
L 197.464935 195.122411 
L 210.348052 186.320538 
L 223.231169 186.424543 
L 236.114286 186.424543 
L 248.997403 186.424543 
L 261.880519 186.424543 
L 274.763636 186.424543 
L 287.646753 186.424543 
L 300.52987 186.424543 
L 313.412987 186.424543 
L 326.296104 186.424543 
L 339.179221 186.424543 
L 352.062338 186.424543 
L 364.945455 186.424543 
L 377.828571 186.424543 
L 390.711688 186.424543 
L 403.594805 186.424543 
L 416.477922 186.424543 
L 429.361039 186.424543 
L 442.244156 186.424543 
L 455.127273 186.424543 
L 468.01039 186.424543 
L 480.893506 186.424543 
L 493.776623 186.424543 
L 506.65974 186.424543 
L 519.542857 186.424543 
L 532.425974 186.424543 
L 545.309091 186.424543 
L 558.192208 186.424543 
L 571.075325 186.424543 
L 583.958442 186.424543 
L 596.841558 186.424543 
L 609.724675 186.424543 
L 622.607792 186.424543 
L 635.490909 186.424543 
L 648.374026 186.424543 
L 661.257143 186.424543 
L 674.14026 186.424543 
L 687.023377 186.424543 
L 699.906494 186.424543 
L 712.78961 186.424543 
L 725.672727 186.424543 
L 738.555844 186.424543 
L 751.438961 186.424543 
L 764.322078 186.424543 
L 777.205195 186.424543 
L 790.088312 186.424543 
L 802.971429 186.424543 
L 815.854545 186.424543 
L 828.737662 186.424543 
L 841.620779 186.424543 
L 854.503896 186.424543 
L 867.387013 186.424543 
L 880.27013 186.424543 
L 893.153247 186.424543 
L 906.036364 186.424543 
L 918.919481 186.424543 
L 931.802597 186.424543 
L 944.685714 186.424543 
L 957.568831 186.424543 
L 970.451948 186.709831 
L 983.335065 168.209459 
L 996.218182 225.821617 
" style="fill:none;stroke:#e377c2;stroke-linecap:square;stroke-width:1.5;"/>
   </g>
   <g id="line2d_22">
    <path clip-path="url(#pc9025be674)" d="M 184.581818 251.898834 
L 197.464935 236.765097 
L 210.348052 233.7293 
L 223.231169 233.798396 
L 236.114286 233.798396 
L 248.997403 233.798396 
L 261.880519 233.798396 
L 274.763636 233.798396 
L 287.646753 233.798396 
L 300.52987 233.798396 
L 313.412987 233.798396 
L 326.296104 233.798396 
L 339.179221 233.798396 
L 352.062338 233.798396 
L 364.945455 233.798396 
L 377.828571 233.798396 
L 390.711688 233.798396 
L 403.594805 233.798396 
L 416.477922 233.798396 
L 429.361039 233.798396 
L 442.244156 233.798396 
L 455.127273 233.798396 
L 468.01039 233.798396 
L 480.893506 233.798396 
L 493.776623 233.798396 
L 506.65974 233.798396 
L 519.542857 233.798396 
L 532.425974 233.798396 
L 545.309091 233.798396 
L 558.192208 233.798396 
L 571.075325 233.798396 
L 583.958442 233.798396 
L 596.841558 233.798396 
L 609.724675 233.798396 
L 622.607792 233.798396 
L 635.490909 233.798396 
L 648.374026 233.798396 
L 661.257143 233.798396 
L 674.14026 233.798396 
L 687.023377 233.798396 
L 699.906494 233.798396 
L 712.78961 233.798396 
L 725.672727 233.798396 
L 738.555844 233.798396 
L 751.438961 233.798396 
L 764.322078 233.798396 
L 777.205195 233.798396 
L 790.088312 233.798396 
L 802.971429 233.798396 
L 815.854545 233.798396 
L 828.737662 233.798396 
L 841.620779 233.798396 
L 854.503896 233.798396 
L 867.387013 233.798396 
L 880.27013 233.798396 
L 893.153247 233.798396 
L 906.036364 233.798396 
L 918.919481 233.798396 
L 931.802597 233.798396 
L 944.685714 233.798396 
L 957.568831 233.798396 
L 970.451948 237.388245 
L 983.335065 253.482376 
L 996.218182 207.805918 
" style="fill:none;stroke:#7f7f7f;stroke-linecap:square;stroke-width:1.5;"/>
   </g>
   <g id="line2d_23">
    <path clip-path="url(#pc9025be674)" d="M 184.581818 195.617222 
L 197.464935 224.120677 
L 210.348052 207.47073 
L 223.231169 208.063054 
L 236.114286 208.063054 
L 248.997403 208.063054 
L 261.880519 208.063054 
L 274.763636 208.063054 
L 287.646753 208.063054 
L 300.52987 208.063054 
L 313.412987 208.063054 
L 326.296104 208.063054 
L 339.179221 208.063054 
L 352.062338 208.063054 
L 364.945455 208.063054 
L 377.828571 208.063054 
L 390.711688 208.063054 
L 403.594805 208.063054 
L 416.477922 208.063054 
L 429.361039 208.063054 
L 442.244156 208.063054 
L 455.127273 208.063054 
L 468.01039 208.063054 
L 480.893506 208.063054 
L 493.776623 208.063054 
L 506.65974 208.063054 
L 519.542857 208.063054 
L 532.425974 208.063054 
L 545.309091 208.063054 
L 558.192208 208.063054 
L 571.075325 208.063054 
L 583.958442 208.063054 
L 596.841558 208.063054 
L 609.724675 208.063054 
L 622.607792 208.063054 
L 635.490909 208.063054 
L 648.374026 208.063054 
L 661.257143 208.063054 
L 674.14026 208.063054 
L 687.023377 208.063054 
L 699.906494 208.063054 
L 712.78961 208.063054 
L 725.672727 208.063054 
L 738.555844 208.063054 
L 751.438961 208.063054 
L 764.322078 208.063054 
L 777.205195 208.063054 
L 790.088312 208.063054 
L 802.971429 208.063054 
L 815.854545 208.063054 
L 828.737662 208.063054 
L 841.620779 208.063054 
L 854.503896 208.063054 
L 867.387013 208.063054 
L 880.27013 208.063054 
L 893.153247 208.063054 
L 906.036364 208.063054 
L 918.919481 208.063054 
L 931.802597 208.063054 
L 944.685714 208.063054 
L 957.568831 208.063054 
L 970.451948 208.041799 
L 983.335065 191.623402 
L 996.218182 183.575094 
" style="fill:none;stroke:#bcbd22;stroke-linecap:square;stroke-width:1.5;"/>
   </g>
   <g id="line2d_24">
    <path clip-path="url(#pc9025be674)" d="M 184.581818 175.427447 
L 197.464935 217.389157 
L 210.348052 233.701517 
L 223.231169 233.687688 
L 236.114286 233.687688 
L 248.997403 233.687688 
L 261.880519 233.687688 
L 274.763636 233.687688 
L 287.646753 233.687688 
L 300.52987 233.687688 
L 313.412987 233.687688 
L 326.296104 233.687688 
L 339.179221 233.687688 
L 352.062338 233.687688 
L 364.945455 233.687688 
L 377.828571 233.687688 
L 390.711688 233.687688 
L 403.594805 233.687688 
L 416.477922 233.687688 
L 429.361039 233.687688 
L 442.244156 233.687688 
L 455.127273 233.687688 
L 468.01039 233.687688 
L 480.893506 233.687688 
L 493.776623 233.687688 
L 506.65974 233.687688 
L 519.542857 233.687688 
L 532.425974 233.687688 
L 545.309091 233.687688 
L 558.192208 233.687688 
L 571.075325 233.687688 
L 583.958442 233.687688 
L 596.841558 233.687688 
L 609.724675 233.687688 
L 622.607792 233.687688 
L 635.490909 233.687688 
L 648.374026 233.687688 
L 661.257143 233.687688 
L 674.14026 233.687688 
L 687.023377 233.687688 
L 699.906494 233.687688 
L 712.78961 233.687688 
L 725.672727 233.687688 
L 738.555844 233.687688 
L 751.438961 233.687688 
L 764.322078 233.687688 
L 777.205195 233.687688 
L 790.088312 233.687688 
L 802.971429 233.687688 
L 815.854545 233.687688 
L 828.737662 233.687688 
L 841.620779 233.687688 
L 854.503896 233.687688 
L 867.387013 233.687688 
L 880.27013 233.687688 
L 893.153247 233.687688 
L 906.036364 233.687688 
L 918.919481 233.687688 
L 931.802597 233.687688 
L 944.685714 233.687688 
L 957.568831 233.687688 
L 970.451948 233.279973 
L 983.335065 239.366733 
L 996.218182 287.097624 
" style="fill:none;stroke:#17becf;stroke-linecap:square;stroke-width:1.5;"/>
   </g>
   <g id="line2d_25">
    <path clip-path="url(#pc9025be674)" d="M 184.581818 175.828379 
L 197.464935 266.884716 
L 210.348052 243.585881 
L 223.231169 244.621493 
L 236.114286 244.621493 
L 248.997403 244.621493 
L 261.880519 244.621493 
L 274.763636 244.621493 
L 287.646753 244.621493 
L 300.52987 244.621493 
L 313.412987 244.621493 
L 326.296104 244.621493 
L 339.179221 244.621493 
L 352.062338 244.621493 
L 364.945455 244.621493 
L 377.828571 244.621493 
L 390.711688 244.621493 
L 403.594805 244.621493 
L 416.477922 244.621493 
L 429.361039 244.621493 
L 442.244156 244.621493 
L 455.127273 244.621493 
L 468.01039 244.621493 
L 480.893506 244.621493 
L 493.776623 244.621493 
L 506.65974 244.621493 
L 519.542857 244.621493 
L 532.425974 244.621493 
L 545.309091 244.621493 
L 558.192208 244.621493 
L 571.075325 244.621493 
L 583.958442 244.621493 
L 596.841558 244.621493 
L 609.724675 244.621493 
L 622.607792 244.621493 
L 635.490909 244.621493 
L 648.374026 244.621493 
L 661.257143 244.621493 
L 674.14026 244.621493 
L 687.023377 244.621493 
L 699.906494 244.621493 
L 712.78961 244.621493 
L 725.672727 244.621493 
L 738.555844 244.621493 
L 751.438961 244.621493 
L 764.322078 244.621493 
L 777.205195 244.621493 
L 790.088312 244.621493 
L 802.971429 244.621493 
L 815.854545 244.621493 
L 828.737662 244.621493 
L 841.620779 244.621493 
L 854.503896 244.621493 
L 867.387013 244.621493 
L 880.27013 244.621493 
L 893.153247 244.621493 
L 906.036364 244.621493 
L 918.919481 244.621493 
L 931.802597 244.621493 
L 944.685714 244.621493 
L 957.568831 244.621493 
L 970.451948 244.50832 
L 983.335065 253.310137 
L 996.218182 253.645109 
" style="fill:none;stroke:#1f77b4;stroke-linecap:square;stroke-width:1.5;"/>
   </g>
   <g id="line2d_26">
    <path clip-path="url(#pc9025be674)" d="M 184.581818 53.568 
L 197.464935 137.247091 
L 210.348052 149.98385 
L 223.231169 149.616251 
L 236.114286 149.616251 
L 248.997403 149.616251 
L 261.880519 149.616251 
L 274.763636 149.616251 
L 287.646753 149.616251 
L 300.52987 149.616251 
L 313.412987 149.616251 
L 326.296104 149.616251 
L 339.179221 149.616251 
L 352.062338 149.616251 
L 364.945455 149.616251 
L 377.828571 149.616251 
L 390.711688 149.616251 
L 403.594805 149.616251 
L 416.477922 149.616251 
L 429.361039 149.616251 
L 442.244156 149.616251 
L 455.127273 149.616251 
L 468.01039 149.616251 
L 480.893506 149.616251 
L 493.776623 149.616251 
L 506.65974 149.616251 
L 519.542857 149.616251 
L 532.425974 149.616251 
L 545.309091 149.616251 
L 558.192208 149.616251 
L 571.075325 149.616251 
L 583.958442 149.616251 
L 596.841558 149.616251 
L 609.724675 149.616251 
L 622.607792 149.616251 
L 635.490909 149.616251 
L 648.374026 149.616251 
L 661.257143 149.616251 
L 674.14026 149.616251 
L 687.023377 149.616251 
L 699.906494 149.616251 
L 712.78961 149.616251 
L 725.672727 149.616251 
L 738.555844 149.616251 
L 751.438961 149.616251 
L 764.322078 149.616251 
L 777.205195 149.616251 
L 790.088312 149.616251 
L 802.971429 149.616251 
L 815.854545 149.616251 
L 828.737662 149.616251 
L 841.620779 149.616251 
L 854.503896 149.616251 
L 867.387013 149.616251 
L 880.27013 149.616251 
L 893.153247 149.616251 
L 906.036364 149.616251 
L 918.919481 149.616251 
L 931.802597 149.616251 
L 944.685714 149.616251 
L 957.568831 149.616251 
L 970.451948 150.755996 
L 983.335065 160.12336 
L 996.218182 165.597635 
" style="fill:none;stroke:#ff7f0e;stroke-linecap:square;stroke-width:1.5;"/>
   </g>
   <g id="line2d_27">
    <path clip-path="url(#pc9025be674)" d="M 184.581818 215.758754 
L 197.464935 201.714016 
L 210.348052 201.820713 
L 223.231169 202.380802 
L 236.114286 202.380802 
L 248.997403 202.380802 
L 261.880519 202.380802 
L 274.763636 202.380802 
L 287.646753 202.380802 
L 300.52987 202.380802 
L 313.412987 202.380802 
L 326.296104 202.380802 
L 339.179221 202.380802 
L 352.062338 202.380802 
L 364.945455 202.380802 
L 377.828571 202.380802 
L 390.711688 202.380802 
L 403.594805 202.380802 
L 416.477922 202.380802 
L 429.361039 202.380802 
L 442.244156 202.380802 
L 455.127273 202.380802 
L 468.01039 202.380802 
L 480.893506 202.380802 
L 493.776623 202.380802 
L 506.65974 202.380802 
L 519.542857 202.380802 
L 532.425974 202.380802 
L 545.309091 202.380802 
L 558.192208 202.380802 
L 571.075325 202.380802 
L 583.958442 202.380802 
L 596.841558 202.380802 
L 609.724675 202.380802 
L 622.607792 202.380802 
L 635.490909 202.380802 
L 648.374026 202.380802 
L 661.257143 202.380802 
L 674.14026 202.380802 
L 687.023377 202.380802 
L 699.906494 202.380802 
L 712.78961 202.380802 
L 725.672727 202.380802 
L 738.555844 202.380802 
L 751.438961 202.380802 
L 764.322078 202.380802 
L 777.205195 202.380802 
L 790.088312 202.380802 
L 802.971429 202.380802 
L 815.854545 202.380802 
L 828.737662 202.380802 
L 841.620779 202.380802 
L 854.503896 202.380802 
L 867.387013 202.380802 
L 880.27013 202.380802 
L 893.153247 202.380802 
L 906.036364 202.380802 
L 918.919481 202.380802 
L 931.802597 202.380802 
L 944.685714 202.380802 
L 957.568831 202.380802 
L 970.451948 200.737554 
L 983.335065 221.705213 
L 996.218182 207.33757 
" style="fill:none;stroke:#2ca02c;stroke-linecap:square;stroke-width:1.5;"/>
   </g>
   <g id="line2d_28">
    <path clip-path="url(#pc9025be674)" d="M 184.581818 295.488 
L 197.464935 208.357808 
L 210.348052 207.670541 
L 223.231169 207.894949 
L 236.114286 207.894949 
L 248.997403 207.894949 
L 261.880519 207.894949 
L 274.763636 207.894949 
L 287.646753 207.894949 
L 300.52987 207.894949 
L 313.412987 207.894949 
L 326.296104 207.894949 
L 339.179221 207.894949 
L 352.062338 207.894949 
L 364.945455 207.894949 
L 377.828571 207.894949 
L 390.711688 207.894949 
L 403.594805 207.894949 
L 416.477922 207.894949 
L 429.361039 207.894949 
L 442.244156 207.894949 
L 455.127273 207.894949 
L 468.01039 207.894949 
L 480.893506 207.894949 
L 493.776623 207.894949 
L 506.65974 207.894949 
L 519.542857 207.894949 
L 532.425974 207.894949 
L 545.309091 207.894949 
L 558.192208 207.894949 
L 571.075325 207.894949 
L 583.958442 207.894949 
L 596.841558 207.894949 
L 609.724675 207.894949 
L 622.607792 207.894949 
L 635.490909 207.894949 
L 648.374026 207.894949 
L 661.257143 207.894949 
L 674.14026 207.894949 
L 687.023377 207.894949 
L 699.906494 207.894949 
L 712.78961 207.894949 
L 725.672727 207.894949 
L 738.555844 207.894949 
L 751.438961 207.894949 
L 764.322078 207.894949 
L 777.205195 207.894949 
L 790.088312 207.894949 
L 802.971429 207.894949 
L 815.854545 207.894949 
L 828.737662 207.894949 
L 841.620779 207.894949 
L 854.503896 207.894949 
L 867.387013 207.894949 
L 880.27013 207.894949 
L 893.153247 207.894949 
L 906.036364 207.894949 
L 918.919481 207.894949 
L 931.802597 207.894949 
L 944.685714 207.894949 
L 957.568831 207.894949 
L 970.451948 209.486502 
L 983.335065 178.684837 
L 996.218182 256.81896 
" style="fill:none;stroke:#d62728;stroke-linecap:square;stroke-width:1.5;"/>
   </g>
   <g id="line2d_29">
    <path clip-path="url(#pc9025be674)" d="M 184.581818 157.392173 
L 197.464935 190.515047 
L 210.348052 195.967119 
L 223.231169 194.322851 
L 236.114286 194.322851 
L 248.997403 194.322851 
L 261.880519 194.322851 
L 274.763636 194.322851 
L 287.646753 194.322851 
L 300.52987 194.322851 
L 313.412987 194.322851 
L 326.296104 194.322851 
L 339.179221 194.322851 
L 352.062338 194.322851 
L 364.945455 194.322851 
L 377.828571 194.322851 
L 390.711688 194.322851 
L 403.594805 194.322851 
L 416.477922 194.322851 
L 429.361039 194.322851 
L 442.244156 194.322851 
L 455.127273 194.322851 
L 468.01039 194.322851 
L 480.893506 194.322851 
L 493.776623 194.322851 
L 506.65974 194.322851 
L 519.542857 194.322851 
L 532.425974 194.322851 
L 545.309091 194.322851 
L 558.192208 194.322851 
L 571.075325 194.322851 
L 583.958442 194.322851 
L 596.841558 194.322851 
L 609.724675 194.322851 
L 622.607792 194.322851 
L 635.490909 194.322851 
L 648.374026 194.322851 
L 661.257143 194.322851 
L 674.14026 194.322851 
L 687.023377 194.322851 
L 699.906494 194.322851 
L 712.78961 194.322851 
L 725.672727 194.322851 
L 738.555844 194.322851 
L 751.438961 194.322851 
L 764.322078 194.322851 
L 777.205195 194.322851 
L 790.088312 194.322851 
L 802.971429 194.322851 
L 815.854545 194.322851 
L 828.737662 194.322851 
L 841.620779 194.322851 
L 854.503896 194.322851 
L 867.387013 194.322851 
L 880.27013 194.322851 
L 893.153247 194.322851 
L 906.036364 194.322851 
L 918.919481 194.322851 
L 931.802597 194.322851 
L 944.685714 194.322851 
L 957.568831 194.322851 
L 970.451948 195.063907 
L 983.335065 197.487552 
L 996.218182 166.230953 
" style="fill:none;stroke:#9467bd;stroke-linecap:square;stroke-width:1.5;"/>
   </g>
   <g id="line2d_30">
    <path clip-path="url(#pc9025be674)" d="M 184.581818 140.960224 
L 197.464935 217.604557 
L 210.348052 205.553139 
L 223.231169 204.64185 
L 236.114286 204.64185 
L 248.997403 204.64185 
L 261.880519 204.64185 
L 274.763636 204.64185 
L 287.646753 204.64185 
L 300.52987 204.64185 
L 313.412987 204.64185 
L 326.296104 204.64185 
L 339.179221 204.64185 
L 352.062338 204.64185 
L 364.945455 204.64185 
L 377.828571 204.64185 
L 390.711688 204.64185 
L 403.594805 204.64185 
L 416.477922 204.64185 
L 429.361039 204.64185 
L 442.244156 204.64185 
L 455.127273 204.64185 
L 468.01039 204.64185 
L 480.893506 204.64185 
L 493.776623 204.64185 
L 506.65974 204.64185 
L 519.542857 204.64185 
L 532.425974 204.64185 
L 545.309091 204.64185 
L 558.192208 204.64185 
L 571.075325 204.64185 
L 583.958442 204.64185 
L 596.841558 204.64185 
L 609.724675 204.64185 
L 622.607792 204.64185 
L 635.490909 204.64185 
L 648.374026 204.64185 
L 661.257143 204.64185 
L 674.14026 204.64185 
L 687.023377 204.64185 
L 699.906494 204.64185 
L 712.78961 204.64185 
L 725.672727 204.64185 
L 738.555844 204.64185 
L 751.438961 204.64185 
L 764.322078 204.64185 
L 777.205195 204.64185 
L 790.088312 204.64185 
L 802.971429 204.64185 
L 815.854545 204.64185 
L 828.737662 204.64185 
L 841.620779 204.64185 
L 854.503896 204.64185 
L 867.387013 204.64185 
L 880.27013 204.64185 
L 893.153247 204.64185 
L 906.036364 204.64185 
L 918.919481 204.64185 
L 931.802597 204.64185 
L 944.685714 204.64185 
L 957.568831 204.64185 
L 970.451948 202.92597 
L 983.335065 183.017539 
L 996.218182 210.168279 
" style="fill:none;stroke:#8c564b;stroke-linecap:square;stroke-width:1.5;"/>
   </g>
   <g id="patch_3">
    <path d="M 144 307.584 
L 144 41.472 
" style="fill:none;stroke:#000000;stroke-linecap:square;stroke-linejoin:miter;stroke-width:0.8;"/>
   </g>
   <g id="patch_4">
    <path d="M 1036.8 307.584 
L 1036.8 41.472 
" style="fill:none;stroke:#000000;stroke-linecap:square;stroke-linejoin:miter;stroke-width:0.8;"/>
   </g>
   <g id="patch_5">
    <path d="M 144 307.584 
L 1036.8 307.584 
" style="fill:none;stroke:#000000;stroke-linecap:square;stroke-linejoin:miter;stroke-width:0.8;"/>
   </g>
   <g id="patch_6">
    <path d="M 144 41.472 
L 1036.8 41.472 
" style="fill:none;stroke:#000000;stroke-linecap:square;stroke-linejoin:miter;stroke-width:0.8;"/>
   </g>
   <g id="text_15">
    <!-- 4th layer's shape: torch.Size([1, 256, 64]). Uniformly sampling 16 channels -->
    <g transform="translate(364.66875 35.472)scale(0.12 -0.12)">
     <defs>
      <path d="M 18.3125 70.21875 
L 18.3125 54.6875 
L 36.8125 54.6875 
L 36.8125 47.703125 
L 18.3125 47.703125 
L 18.3125 18.015625 
Q 18.3125 11.328125 20.140625 9.421875 
Q 21.96875 7.515625 27.59375 7.515625 
L 36.8125 7.515625 
L 36.8125 0 
L 27.59375 0 
Q 17.1875 0 13.234375 3.875 
Q 9.28125 7.765625 9.28125 18.015625 
L 9.28125 47.703125 
L 2.6875 47.703125 
L 2.6875 54.6875 
L 9.28125 54.6875 
L 9.28125 70.21875 
z
" id="DejaVuSans-116"/>
      <path d="M 54.890625 33.015625 
L 54.890625 0 
L 45.90625 0 
L 45.90625 32.71875 
Q 45.90625 40.484375 42.875 44.328125 
Q 39.84375 48.1875 33.796875 48.1875 
Q 26.515625 48.1875 22.3125 43.546875 
Q 18.109375 38.921875 18.109375 30.90625 
L 18.109375 0 
L 9.078125 0 
L 9.078125 75.984375 
L 18.109375 75.984375 
L 18.109375 46.1875 
Q 21.34375 51.125 25.703125 53.5625 
Q 30.078125 56 35.796875 56 
Q 45.21875 56 50.046875 50.171875 
Q 54.890625 44.34375 54.890625 33.015625 
z
" id="DejaVuSans-104"/>
      <path id="DejaVuSans-32"/>
      <path d="M 9.421875 75.984375 
L 18.40625 75.984375 
L 18.40625 0 
L 9.421875 0 
z
" id="DejaVuSans-108"/>
      <path d="M 34.28125 27.484375 
Q 23.390625 27.484375 19.1875 25 
Q 14.984375 22.515625 14.984375 16.5 
Q 14.984375 11.71875 18.140625 8.90625 
Q 21.296875 6.109375 26.703125 6.109375 
Q 34.1875 6.109375 38.703125 11.40625 
Q 43.21875 16.703125 43.21875 25.484375 
L 43.21875 27.484375 
z
M 52.203125 31.203125 
L 52.203125 0 
L 43.21875 0 
L 43.21875 8.296875 
Q 40.140625 3.328125 35.546875 0.953125 
Q 30.953125 -1.421875 24.3125 -1.421875 
Q 15.921875 -1.421875 10.953125 3.296875 
Q 6 8.015625 6 15.921875 
Q 6 25.140625 12.171875 29.828125 
Q 18.359375 34.515625 30.609375 34.515625 
L 43.21875 34.515625 
L 43.21875 35.40625 
Q 43.21875 41.609375 39.140625 45 
Q 35.0625 48.390625 27.6875 48.390625 
Q 23 48.390625 18.546875 47.265625 
Q 14.109375 46.140625 10.015625 43.890625 
L 10.015625 52.203125 
Q 14.9375 54.109375 19.578125 55.046875 
Q 24.21875 56 28.609375 56 
Q 40.484375 56 46.34375 49.84375 
Q 52.203125 43.703125 52.203125 31.203125 
z
" id="DejaVuSans-97"/>
      <path d="M 32.171875 -5.078125 
Q 28.375 -14.84375 24.75 -17.8125 
Q 21.140625 -20.796875 15.09375 -20.796875 
L 7.90625 -20.796875 
L 7.90625 -13.28125 
L 13.1875 -13.28125 
Q 16.890625 -13.28125 18.9375 -11.515625 
Q 21 -9.765625 23.484375 -3.21875 
L 25.09375 0.875 
L 2.984375 54.6875 
L 12.5 54.6875 
L 29.59375 11.921875 
L 46.6875 54.6875 
L 56.203125 54.6875 
z
" id="DejaVuSans-121"/>
      <path d="M 56.203125 29.59375 
L 56.203125 25.203125 
L 14.890625 25.203125 
Q 15.484375 15.921875 20.484375 11.0625 
Q 25.484375 6.203125 34.421875 6.203125 
Q 39.59375 6.203125 44.453125 7.46875 
Q 49.3125 8.734375 54.109375 11.28125 
L 54.109375 2.78125 
Q 49.265625 0.734375 44.1875 -0.34375 
Q 39.109375 -1.421875 33.890625 -1.421875 
Q 20.796875 -1.421875 13.15625 6.1875 
Q 5.515625 13.8125 5.515625 26.8125 
Q 5.515625 40.234375 12.765625 48.109375 
Q 20.015625 56 32.328125 56 
Q 43.359375 56 49.78125 48.890625 
Q 56.203125 41.796875 56.203125 29.59375 
z
M 47.21875 32.234375 
Q 47.125 39.59375 43.09375 43.984375 
Q 39.0625 48.390625 32.421875 48.390625 
Q 24.90625 48.390625 20.390625 44.140625 
Q 15.875 39.890625 15.1875 32.171875 
z
" id="DejaVuSans-101"/>
      <path d="M 41.109375 46.296875 
Q 39.59375 47.171875 37.8125 47.578125 
Q 36.03125 48 33.890625 48 
Q 26.265625 48 22.1875 43.046875 
Q 18.109375 38.09375 18.109375 28.8125 
L 18.109375 0 
L 9.078125 0 
L 9.078125 54.6875 
L 18.109375 54.6875 
L 18.109375 46.1875 
Q 20.953125 51.171875 25.484375 53.578125 
Q 30.03125 56 36.53125 56 
Q 37.453125 56 38.578125 55.875 
Q 39.703125 55.765625 41.0625 55.515625 
z
" id="DejaVuSans-114"/>
      <path d="M 17.921875 72.90625 
L 17.921875 45.796875 
L 9.625 45.796875 
L 9.625 72.90625 
z
" id="DejaVuSans-39"/>
      <path d="M 44.28125 53.078125 
L 44.28125 44.578125 
Q 40.484375 46.53125 36.375 47.5 
Q 32.28125 48.484375 27.875 48.484375 
Q 21.1875 48.484375 17.84375 46.4375 
Q 14.5 44.390625 14.5 40.28125 
Q 14.5 37.15625 16.890625 35.375 
Q 19.28125 33.59375 26.515625 31.984375 
L 29.59375 31.296875 
Q 39.15625 29.25 43.1875 25.515625 
Q 47.21875 21.78125 47.21875 15.09375 
Q 47.21875 7.46875 41.1875 3.015625 
Q 35.15625 -1.421875 24.609375 -1.421875 
Q 20.21875 -1.421875 15.453125 -0.5625 
Q 10.6875 0.296875 5.421875 2 
L 5.421875 11.28125 
Q 10.40625 8.6875 15.234375 7.390625 
Q 20.0625 6.109375 24.8125 6.109375 
Q 31.15625 6.109375 34.5625 8.28125 
Q 37.984375 10.453125 37.984375 14.40625 
Q 37.984375 18.0625 35.515625 20.015625 
Q 33.0625 21.96875 24.703125 23.78125 
L 21.578125 24.515625 
Q 13.234375 26.265625 9.515625 29.90625 
Q 5.8125 33.546875 5.8125 39.890625 
Q 5.8125 47.609375 11.28125 51.796875 
Q 16.75 56 26.8125 56 
Q 31.78125 56 36.171875 55.265625 
Q 40.578125 54.546875 44.28125 53.078125 
z
" id="DejaVuSans-115"/>
      <path d="M 18.109375 8.203125 
L 18.109375 -20.796875 
L 9.078125 -20.796875 
L 9.078125 54.6875 
L 18.109375 54.6875 
L 18.109375 46.390625 
Q 20.953125 51.265625 25.265625 53.625 
Q 29.59375 56 35.59375 56 
Q 45.5625 56 51.78125 48.09375 
Q 58.015625 40.1875 58.015625 27.296875 
Q 58.015625 14.40625 51.78125 6.484375 
Q 45.5625 -1.421875 35.59375 -1.421875 
Q 29.59375 -1.421875 25.265625 0.953125 
Q 20.953125 3.328125 18.109375 8.203125 
z
M 48.6875 27.296875 
Q 48.6875 37.203125 44.609375 42.84375 
Q 40.53125 48.484375 33.40625 48.484375 
Q 26.265625 48.484375 22.1875 42.84375 
Q 18.109375 37.203125 18.109375 27.296875 
Q 18.109375 17.390625 22.1875 11.75 
Q 26.265625 6.109375 33.40625 6.109375 
Q 40.53125 6.109375 44.609375 11.75 
Q 48.6875 17.390625 48.6875 27.296875 
z
" id="DejaVuSans-112"/>
      <path d="M 11.71875 12.40625 
L 22.015625 12.40625 
L 22.015625 0 
L 11.71875 0 
z
M 11.71875 51.703125 
L 22.015625 51.703125 
L 22.015625 39.3125 
L 11.71875 39.3125 
z
" id="DejaVuSans-58"/>
      <path d="M 30.609375 48.390625 
Q 23.390625 48.390625 19.1875 42.75 
Q 14.984375 37.109375 14.984375 27.296875 
Q 14.984375 17.484375 19.15625 11.84375 
Q 23.34375 6.203125 30.609375 6.203125 
Q 37.796875 6.203125 41.984375 11.859375 
Q 46.1875 17.53125 46.1875 27.296875 
Q 46.1875 37.015625 41.984375 42.703125 
Q 37.796875 48.390625 30.609375 48.390625 
z
M 30.609375 56 
Q 42.328125 56 49.015625 48.375 
Q 55.71875 40.765625 55.71875 27.296875 
Q 55.71875 13.875 49.015625 6.21875 
Q 42.328125 -1.421875 30.609375 -1.421875 
Q 18.84375 -1.421875 12.171875 6.21875 
Q 5.515625 13.875 5.515625 27.296875 
Q 5.515625 40.765625 12.171875 48.375 
Q 18.84375 56 30.609375 56 
z
" id="DejaVuSans-111"/>
      <path d="M 48.78125 52.59375 
L 48.78125 44.1875 
Q 44.96875 46.296875 41.140625 47.34375 
Q 37.3125 48.390625 33.40625 48.390625 
Q 24.65625 48.390625 19.8125 42.84375 
Q 14.984375 37.3125 14.984375 27.296875 
Q 14.984375 17.28125 19.8125 11.734375 
Q 24.65625 6.203125 33.40625 6.203125 
Q 37.3125 6.203125 41.140625 7.25 
Q 44.96875 8.296875 48.78125 10.40625 
L 48.78125 2.09375 
Q 45.015625 0.34375 40.984375 -0.53125 
Q 36.96875 -1.421875 32.421875 -1.421875 
Q 20.0625 -1.421875 12.78125 6.34375 
Q 5.515625 14.109375 5.515625 27.296875 
Q 5.515625 40.671875 12.859375 48.328125 
Q 20.21875 56 33.015625 56 
Q 37.15625 56 41.109375 55.140625 
Q 45.0625 54.296875 48.78125 52.59375 
z
" id="DejaVuSans-99"/>
      <path d="M 53.515625 70.515625 
L 53.515625 60.890625 
Q 47.90625 63.578125 42.921875 64.890625 
Q 37.9375 66.21875 33.296875 66.21875 
Q 25.25 66.21875 20.875 63.09375 
Q 16.5 59.96875 16.5 54.203125 
Q 16.5 49.359375 19.40625 46.890625 
Q 22.3125 44.4375 30.421875 42.921875 
L 36.375 41.703125 
Q 47.40625 39.59375 52.65625 34.296875 
Q 57.90625 29 57.90625 20.125 
Q 57.90625 9.515625 50.796875 4.046875 
Q 43.703125 -1.421875 29.984375 -1.421875 
Q 24.8125 -1.421875 18.96875 -0.25 
Q 13.140625 0.921875 6.890625 3.21875 
L 6.890625 13.375 
Q 12.890625 10.015625 18.65625 8.296875 
Q 24.421875 6.59375 29.984375 6.59375 
Q 38.421875 6.59375 43.015625 9.90625 
Q 47.609375 13.234375 47.609375 19.390625 
Q 47.609375 24.75 44.3125 27.78125 
Q 41.015625 30.8125 33.5 32.328125 
L 27.484375 33.5 
Q 16.453125 35.6875 11.515625 40.375 
Q 6.59375 45.0625 6.59375 53.421875 
Q 6.59375 63.09375 13.40625 68.65625 
Q 20.21875 74.21875 32.171875 74.21875 
Q 37.3125 74.21875 42.625 73.28125 
Q 47.953125 72.359375 53.515625 70.515625 
z
" id="DejaVuSans-83"/>
      <path d="M 9.421875 54.6875 
L 18.40625 54.6875 
L 18.40625 0 
L 9.421875 0 
z
M 9.421875 75.984375 
L 18.40625 75.984375 
L 18.40625 64.59375 
L 9.421875 64.59375 
z
" id="DejaVuSans-105"/>
      <path d="M 5.515625 54.6875 
L 48.1875 54.6875 
L 48.1875 46.484375 
L 14.40625 7.171875 
L 48.1875 7.171875 
L 48.1875 0 
L 4.296875 0 
L 4.296875 8.203125 
L 38.09375 47.515625 
L 5.515625 47.515625 
z
" id="DejaVuSans-122"/>
      <path d="M 31 75.875 
Q 24.46875 64.65625 21.28125 53.65625 
Q 18.109375 42.671875 18.109375 31.390625 
Q 18.109375 20.125 21.3125 9.0625 
Q 24.515625 -2 31 -13.1875 
L 23.1875 -13.1875 
Q 15.875 -1.703125 12.234375 9.375 
Q 8.59375 20.453125 8.59375 31.390625 
Q 8.59375 42.28125 12.203125 53.3125 
Q 15.828125 64.359375 23.1875 75.875 
z
" id="DejaVuSans-40"/>
      <path d="M 8.59375 75.984375 
L 29.296875 75.984375 
L 29.296875 69 
L 17.578125 69 
L 17.578125 -6.203125 
L 29.296875 -6.203125 
L 29.296875 -13.1875 
L 8.59375 -13.1875 
z
" id="DejaVuSans-91"/>
      <path d="M 11.71875 12.40625 
L 22.015625 12.40625 
L 22.015625 4 
L 14.015625 -11.625 
L 7.71875 -11.625 
L 11.71875 4 
z
" id="DejaVuSans-44"/>
      <path d="M 30.421875 75.984375 
L 30.421875 -13.1875 
L 9.71875 -13.1875 
L 9.71875 -6.203125 
L 21.390625 -6.203125 
L 21.390625 69 
L 9.71875 69 
L 9.71875 75.984375 
z
" id="DejaVuSans-93"/>
      <path d="M 8.015625 75.875 
L 15.828125 75.875 
Q 23.140625 64.359375 26.78125 53.3125 
Q 30.421875 42.28125 30.421875 31.390625 
Q 30.421875 20.453125 26.78125 9.375 
Q 23.140625 -1.703125 15.828125 -13.1875 
L 8.015625 -13.1875 
Q 14.5 -2 17.703125 9.0625 
Q 20.90625 20.125 20.90625 31.390625 
Q 20.90625 42.671875 17.703125 53.65625 
Q 14.5 64.65625 8.015625 75.875 
z
" id="DejaVuSans-41"/>
      <path d="M 8.6875 72.90625 
L 18.609375 72.90625 
L 18.609375 28.609375 
Q 18.609375 16.890625 22.84375 11.734375 
Q 27.09375 6.59375 36.625 6.59375 
Q 46.09375 6.59375 50.34375 11.734375 
Q 54.59375 16.890625 54.59375 28.609375 
L 54.59375 72.90625 
L 64.5 72.90625 
L 64.5 27.390625 
Q 64.5 13.140625 57.4375 5.859375 
Q 50.390625 -1.421875 36.625 -1.421875 
Q 22.796875 -1.421875 15.734375 5.859375 
Q 8.6875 13.140625 8.6875 27.390625 
z
" id="DejaVuSans-85"/>
      <path d="M 54.890625 33.015625 
L 54.890625 0 
L 45.90625 0 
L 45.90625 32.71875 
Q 45.90625 40.484375 42.875 44.328125 
Q 39.84375 48.1875 33.796875 48.1875 
Q 26.515625 48.1875 22.3125 43.546875 
Q 18.109375 38.921875 18.109375 30.90625 
L 18.109375 0 
L 9.078125 0 
L 9.078125 54.6875 
L 18.109375 54.6875 
L 18.109375 46.1875 
Q 21.34375 51.125 25.703125 53.5625 
Q 30.078125 56 35.796875 56 
Q 45.21875 56 50.046875 50.171875 
Q 54.890625 44.34375 54.890625 33.015625 
z
" id="DejaVuSans-110"/>
      <path d="M 37.109375 75.984375 
L 37.109375 68.5 
L 28.515625 68.5 
Q 23.6875 68.5 21.796875 66.546875 
Q 19.921875 64.59375 19.921875 59.515625 
L 19.921875 54.6875 
L 34.71875 54.6875 
L 34.71875 47.703125 
L 19.921875 47.703125 
L 19.921875 0 
L 10.890625 0 
L 10.890625 47.703125 
L 2.296875 47.703125 
L 2.296875 54.6875 
L 10.890625 54.6875 
L 10.890625 58.5 
Q 10.890625 67.625 15.140625 71.796875 
Q 19.390625 75.984375 28.609375 75.984375 
z
" id="DejaVuSans-102"/>
      <path d="M 52 44.1875 
Q 55.375 50.25 60.0625 53.125 
Q 64.75 56 71.09375 56 
Q 79.640625 56 84.28125 50.015625 
Q 88.921875 44.046875 88.921875 33.015625 
L 88.921875 0 
L 79.890625 0 
L 79.890625 32.71875 
Q 79.890625 40.578125 77.09375 44.375 
Q 74.3125 48.1875 68.609375 48.1875 
Q 61.625 48.1875 57.5625 43.546875 
Q 53.515625 38.921875 53.515625 30.90625 
L 53.515625 0 
L 44.484375 0 
L 44.484375 32.71875 
Q 44.484375 40.625 41.703125 44.40625 
Q 38.921875 48.1875 33.109375 48.1875 
Q 26.21875 48.1875 22.15625 43.53125 
Q 18.109375 38.875 18.109375 30.90625 
L 18.109375 0 
L 9.078125 0 
L 9.078125 54.6875 
L 18.109375 54.6875 
L 18.109375 46.1875 
Q 21.1875 51.21875 25.484375 53.609375 
Q 29.78125 56 35.6875 56 
Q 41.65625 56 45.828125 52.96875 
Q 50 49.953125 52 44.1875 
z
" id="DejaVuSans-109"/>
      <path d="M 45.40625 27.984375 
Q 45.40625 37.75 41.375 43.109375 
Q 37.359375 48.484375 30.078125 48.484375 
Q 22.859375 48.484375 18.828125 43.109375 
Q 14.796875 37.75 14.796875 27.984375 
Q 14.796875 18.265625 18.828125 12.890625 
Q 22.859375 7.515625 30.078125 7.515625 
Q 37.359375 7.515625 41.375 12.890625 
Q 45.40625 18.265625 45.40625 27.984375 
z
M 54.390625 6.78125 
Q 54.390625 -7.171875 48.1875 -13.984375 
Q 42 -20.796875 29.203125 -20.796875 
Q 24.46875 -20.796875 20.265625 -20.09375 
Q 16.0625 -19.390625 12.109375 -17.921875 
L 12.109375 -9.1875 
Q 16.0625 -11.328125 19.921875 -12.34375 
Q 23.78125 -13.375 27.78125 -13.375 
Q 36.625 -13.375 41.015625 -8.765625 
Q 45.40625 -4.15625 45.40625 5.171875 
L 45.40625 9.625 
Q 42.625 4.78125 38.28125 2.390625 
Q 33.9375 0 27.875 0 
Q 17.828125 0 11.671875 7.65625 
Q 5.515625 15.328125 5.515625 27.984375 
Q 5.515625 40.671875 11.671875 48.328125 
Q 17.828125 56 27.875 56 
Q 33.9375 56 38.28125 53.609375 
Q 42.625 51.21875 45.40625 46.390625 
L 45.40625 54.6875 
L 54.390625 54.6875 
z
" id="DejaVuSans-103"/>
     </defs>
     <use xlink:href="#DejaVuSans-52"/>
     <use x="63.623047" xlink:href="#DejaVuSans-116"/>
     <use x="102.832031" xlink:href="#DejaVuSans-104"/>
     <use x="166.210938" xlink:href="#DejaVuSans-32"/>
     <use x="197.998047" xlink:href="#DejaVuSans-108"/>
     <use x="225.78125" xlink:href="#DejaVuSans-97"/>
     <use x="287.060547" xlink:href="#DejaVuSans-121"/>
     <use x="346.240234" xlink:href="#DejaVuSans-101"/>
     <use x="407.763672" xlink:href="#DejaVuSans-114"/>
     <use x="448.876953" xlink:href="#DejaVuSans-39"/>
     <use x="476.367188" xlink:href="#DejaVuSans-115"/>
     <use x="528.466797" xlink:href="#DejaVuSans-32"/>
     <use x="560.253906" xlink:href="#DejaVuSans-115"/>
     <use x="612.353516" xlink:href="#DejaVuSans-104"/>
     <use x="675.732422" xlink:href="#DejaVuSans-97"/>
     <use x="737.011719" xlink:href="#DejaVuSans-112"/>
     <use x="800.488281" xlink:href="#DejaVuSans-101"/>
     <use x="862.011719" xlink:href="#DejaVuSans-58"/>
     <use x="895.703125" xlink:href="#DejaVuSans-32"/>
     <use x="927.490234" xlink:href="#DejaVuSans-116"/>
     <use x="966.699219" xlink:href="#DejaVuSans-111"/>
     <use x="1027.880859" xlink:href="#DejaVuSans-114"/>
     <use x="1066.744141" xlink:href="#DejaVuSans-99"/>
     <use x="1121.724609" xlink:href="#DejaVuSans-104"/>
     <use x="1185.103516" xlink:href="#DejaVuSans-46"/>
     <use x="1216.890625" xlink:href="#DejaVuSans-83"/>
     <use x="1280.367188" xlink:href="#DejaVuSans-105"/>
     <use x="1308.150391" xlink:href="#DejaVuSans-122"/>
     <use x="1360.640625" xlink:href="#DejaVuSans-101"/>
     <use x="1422.164062" xlink:href="#DejaVuSans-40"/>
     <use x="1461.177734" xlink:href="#DejaVuSans-91"/>
     <use x="1500.191406" xlink:href="#DejaVuSans-49"/>
     <use x="1563.814453" xlink:href="#DejaVuSans-44"/>
     <use x="1595.601562" xlink:href="#DejaVuSans-32"/>
     <use x="1627.388672" xlink:href="#DejaVuSans-50"/>
     <use x="1691.011719" xlink:href="#DejaVuSans-53"/>
     <use x="1754.634766" xlink:href="#DejaVuSans-54"/>
     <use x="1818.257812" xlink:href="#DejaVuSans-44"/>
     <use x="1850.044922" xlink:href="#DejaVuSans-32"/>
     <use x="1881.832031" xlink:href="#DejaVuSans-54"/>
     <use x="1945.455078" xlink:href="#DejaVuSans-52"/>
     <use x="2009.078125" xlink:href="#DejaVuSans-93"/>
     <use x="2048.091797" xlink:href="#DejaVuSans-41"/>
     <use x="2087.105469" xlink:href="#DejaVuSans-46"/>
     <use x="2118.892578" xlink:href="#DejaVuSans-32"/>
     <use x="2150.679688" xlink:href="#DejaVuSans-85"/>
     <use x="2223.873047" xlink:href="#DejaVuSans-110"/>
     <use x="2287.251953" xlink:href="#DejaVuSans-105"/>
     <use x="2315.035156" xlink:href="#DejaVuSans-102"/>
     <use x="2350.240234" xlink:href="#DejaVuSans-111"/>
     <use x="2411.421875" xlink:href="#DejaVuSans-114"/>
     <use x="2450.785156" xlink:href="#DejaVuSans-109"/>
     <use x="2548.197266" xlink:href="#DejaVuSans-108"/>
     <use x="2575.980469" xlink:href="#DejaVuSans-121"/>
     <use x="2635.160156" xlink:href="#DejaVuSans-32"/>
     <use x="2666.947266" xlink:href="#DejaVuSans-115"/>
     <use x="2719.046875" xlink:href="#DejaVuSans-97"/>
     <use x="2780.326172" xlink:href="#DejaVuSans-109"/>
     <use x="2877.738281" xlink:href="#DejaVuSans-112"/>
     <use x="2941.214844" xlink:href="#DejaVuSans-108"/>
     <use x="2968.998047" xlink:href="#DejaVuSans-105"/>
     <use x="2996.78125" xlink:href="#DejaVuSans-110"/>
     <use x="3060.160156" xlink:href="#DejaVuSans-103"/>
     <use x="3123.636719" xlink:href="#DejaVuSans-32"/>
     <use x="3155.423828" xlink:href="#DejaVuSans-49"/>
     <use x="3219.046875" xlink:href="#DejaVuSans-54"/>
     <use x="3282.669922" xlink:href="#DejaVuSans-32"/>
     <use x="3314.457031" xlink:href="#DejaVuSans-99"/>
     <use x="3369.4375" xlink:href="#DejaVuSans-104"/>
     <use x="3432.816406" xlink:href="#DejaVuSans-97"/>
     <use x="3494.095703" xlink:href="#DejaVuSans-110"/>
     <use x="3557.474609" xlink:href="#DejaVuSans-110"/>
     <use x="3620.853516" xlink:href="#DejaVuSans-101"/>
     <use x="3682.376953" xlink:href="#DejaVuSans-108"/>
     <use x="3710.160156" xlink:href="#DejaVuSans-115"/>
    </g>
   </g>
  </g>
 </g>
 <defs>
  <clipPath id="pc9025be674">
   <rect height="266.112" width="892.8" x="144" y="41.472"/>
  </clipPath>
 </defs>
</svg>
