<?xml version="1.0" encoding="utf-8" standalone="no"?>
<!DOCTYPE svg PUBLIC "-//W3C//DTD SVG 1.1//EN"
  "http://www.w3.org/Graphics/SVG/1.1/DTD/svg11.dtd">
<!-- Created with matplotlib (https://matplotlib.org/) -->
<svg height="345.6pt" version="1.1" viewBox="0 0 1152 345.6" width="1152pt" xmlns="http://www.w3.org/2000/svg" xmlns:xlink="http://www.w3.org/1999/xlink">
 <metadata>
  <rdf:RDF xmlns:cc="http://creativecommons.org/ns#" xmlns:dc="http://purl.org/dc/elements/1.1/" xmlns:rdf="http://www.w3.org/1999/02/22-rdf-syntax-ns#">
   <cc:Work>
    <dc:type rdf:resource="http://purl.org/dc/dcmitype/StillImage"/>
    <dc:date>2021-12-24T07:22:20.591354</dc:date>
    <dc:format>image/svg+xml</dc:format>
    <dc:creator>
     <cc:Agent>
      <dc:title>Matplotlib v3.3.3, https://matplotlib.org/</dc:title>
     </cc:Agent>
    </dc:creator>
   </cc:Work>
  </rdf:RDF>
 </metadata>
 <defs>
  <style type="text/css">*{stroke-linecap:butt;stroke-linejoin:round;}</style>
 </defs>
 <g id="figure_1">
  <g id="patch_1">
   <path d="M 0 345.6 
L 1152 345.6 
L 1152 0 
L 0 0 
z
" style="fill:#ffffff;"/>
  </g>
  <g id="axes_1">
   <g id="patch_2">
    <path d="M 144 307.584 
L 1036.8 307.584 
L 1036.8 41.472 
L 144 41.472 
z
" style="fill:#ffffff;"/>
   </g>
   <g id="matplotlib.axis_1">
    <g id="xtick_1">
     <g id="line2d_1">
      <defs>
       <path d="M 0 0 
L 0 3.5 
" id="m004b53ba91" style="stroke:#000000;stroke-width:0.8;"/>
      </defs>
      <g>
       <use style="stroke:#000000;stroke-width:0.8;" x="184.581818" xlink:href="#m004b53ba91" y="307.584"/>
      </g>
     </g>
     <g id="text_1">
      <!-- 0 -->
      <g transform="translate(181.400568 322.182437)scale(0.1 -0.1)">
       <defs>
        <path d="M 31.78125 66.40625 
Q 24.171875 66.40625 20.328125 58.90625 
Q 16.5 51.421875 16.5 36.375 
Q 16.5 21.390625 20.328125 13.890625 
Q 24.171875 6.390625 31.78125 6.390625 
Q 39.453125 6.390625 43.28125 13.890625 
Q 47.125 21.390625 47.125 36.375 
Q 47.125 51.421875 43.28125 58.90625 
Q 39.453125 66.40625 31.78125 66.40625 
z
M 31.78125 74.21875 
Q 44.046875 74.21875 50.515625 64.515625 
Q 56.984375 54.828125 56.984375 36.375 
Q 56.984375 17.96875 50.515625 8.265625 
Q 44.046875 -1.421875 31.78125 -1.421875 
Q 19.53125 -1.421875 13.0625 8.265625 
Q 6.59375 17.96875 6.59375 36.375 
Q 6.59375 54.828125 13.0625 64.515625 
Q 19.53125 74.21875 31.78125 74.21875 
z
" id="DejaVuSans-48"/>
       </defs>
       <use xlink:href="#DejaVuSans-48"/>
      </g>
     </g>
    </g>
    <g id="xtick_2">
     <g id="line2d_2">
      <g>
       <use style="stroke:#000000;stroke-width:0.8;" x="313.412987" xlink:href="#m004b53ba91" y="307.584"/>
      </g>
     </g>
     <g id="text_2">
      <!-- 10 -->
      <g transform="translate(307.050487 322.182437)scale(0.1 -0.1)">
       <defs>
        <path d="M 12.40625 8.296875 
L 28.515625 8.296875 
L 28.515625 63.921875 
L 10.984375 60.40625 
L 10.984375 69.390625 
L 28.421875 72.90625 
L 38.28125 72.90625 
L 38.28125 8.296875 
L 54.390625 8.296875 
L 54.390625 0 
L 12.40625 0 
z
" id="DejaVuSans-49"/>
       </defs>
       <use xlink:href="#DejaVuSans-49"/>
       <use x="63.623047" xlink:href="#DejaVuSans-48"/>
      </g>
     </g>
    </g>
    <g id="xtick_3">
     <g id="line2d_3">
      <g>
       <use style="stroke:#000000;stroke-width:0.8;" x="442.244156" xlink:href="#m004b53ba91" y="307.584"/>
      </g>
     </g>
     <g id="text_3">
      <!-- 20 -->
      <g transform="translate(435.881656 322.182437)scale(0.1 -0.1)">
       <defs>
        <path d="M 19.1875 8.296875 
L 53.609375 8.296875 
L 53.609375 0 
L 7.328125 0 
L 7.328125 8.296875 
Q 12.9375 14.109375 22.625 23.890625 
Q 32.328125 33.6875 34.8125 36.53125 
Q 39.546875 41.84375 41.421875 45.53125 
Q 43.3125 49.21875 43.3125 52.78125 
Q 43.3125 58.59375 39.234375 62.25 
Q 35.15625 65.921875 28.609375 65.921875 
Q 23.96875 65.921875 18.8125 64.3125 
Q 13.671875 62.703125 7.8125 59.421875 
L 7.8125 69.390625 
Q 13.765625 71.78125 18.9375 73 
Q 24.125 74.21875 28.421875 74.21875 
Q 39.75 74.21875 46.484375 68.546875 
Q 53.21875 62.890625 53.21875 53.421875 
Q 53.21875 48.921875 51.53125 44.890625 
Q 49.859375 40.875 45.40625 35.40625 
Q 44.1875 33.984375 37.640625 27.21875 
Q 31.109375 20.453125 19.1875 8.296875 
z
" id="DejaVuSans-50"/>
       </defs>
       <use xlink:href="#DejaVuSans-50"/>
       <use x="63.623047" xlink:href="#DejaVuSans-48"/>
      </g>
     </g>
    </g>
    <g id="xtick_4">
     <g id="line2d_4">
      <g>
       <use style="stroke:#000000;stroke-width:0.8;" x="571.075325" xlink:href="#m004b53ba91" y="307.584"/>
      </g>
     </g>
     <g id="text_4">
      <!-- 30 -->
      <g transform="translate(564.712825 322.182437)scale(0.1 -0.1)">
       <defs>
        <path d="M 40.578125 39.3125 
Q 47.65625 37.796875 51.625 33 
Q 55.609375 28.21875 55.609375 21.1875 
Q 55.609375 10.40625 48.1875 4.484375 
Q 40.765625 -1.421875 27.09375 -1.421875 
Q 22.515625 -1.421875 17.65625 -0.515625 
Q 12.796875 0.390625 7.625 2.203125 
L 7.625 11.71875 
Q 11.71875 9.328125 16.59375 8.109375 
Q 21.484375 6.890625 26.8125 6.890625 
Q 36.078125 6.890625 40.9375 10.546875 
Q 45.796875 14.203125 45.796875 21.1875 
Q 45.796875 27.640625 41.28125 31.265625 
Q 36.765625 34.90625 28.71875 34.90625 
L 20.21875 34.90625 
L 20.21875 43.015625 
L 29.109375 43.015625 
Q 36.375 43.015625 40.234375 45.921875 
Q 44.09375 48.828125 44.09375 54.296875 
Q 44.09375 59.90625 40.109375 62.90625 
Q 36.140625 65.921875 28.71875 65.921875 
Q 24.65625 65.921875 20.015625 65.03125 
Q 15.375 64.15625 9.8125 62.3125 
L 9.8125 71.09375 
Q 15.4375 72.65625 20.34375 73.4375 
Q 25.25 74.21875 29.59375 74.21875 
Q 40.828125 74.21875 47.359375 69.109375 
Q 53.90625 64.015625 53.90625 55.328125 
Q 53.90625 49.265625 50.4375 45.09375 
Q 46.96875 40.921875 40.578125 39.3125 
z
" id="DejaVuSans-51"/>
       </defs>
       <use xlink:href="#DejaVuSans-51"/>
       <use x="63.623047" xlink:href="#DejaVuSans-48"/>
      </g>
     </g>
    </g>
    <g id="xtick_5">
     <g id="line2d_5">
      <g>
       <use style="stroke:#000000;stroke-width:0.8;" x="699.906494" xlink:href="#m004b53ba91" y="307.584"/>
      </g>
     </g>
     <g id="text_5">
      <!-- 40 -->
      <g transform="translate(693.543994 322.182437)scale(0.1 -0.1)">
       <defs>
        <path d="M 37.796875 64.3125 
L 12.890625 25.390625 
L 37.796875 25.390625 
z
M 35.203125 72.90625 
L 47.609375 72.90625 
L 47.609375 25.390625 
L 58.015625 25.390625 
L 58.015625 17.1875 
L 47.609375 17.1875 
L 47.609375 0 
L 37.796875 0 
L 37.796875 17.1875 
L 4.890625 17.1875 
L 4.890625 26.703125 
z
" id="DejaVuSans-52"/>
       </defs>
       <use xlink:href="#DejaVuSans-52"/>
       <use x="63.623047" xlink:href="#DejaVuSans-48"/>
      </g>
     </g>
    </g>
    <g id="xtick_6">
     <g id="line2d_6">
      <g>
       <use style="stroke:#000000;stroke-width:0.8;" x="828.737662" xlink:href="#m004b53ba91" y="307.584"/>
      </g>
     </g>
     <g id="text_6">
      <!-- 50 -->
      <g transform="translate(822.375162 322.182437)scale(0.1 -0.1)">
       <defs>
        <path d="M 10.796875 72.90625 
L 49.515625 72.90625 
L 49.515625 64.59375 
L 19.828125 64.59375 
L 19.828125 46.734375 
Q 21.96875 47.46875 24.109375 47.828125 
Q 26.265625 48.1875 28.421875 48.1875 
Q 40.625 48.1875 47.75 41.5 
Q 54.890625 34.8125 54.890625 23.390625 
Q 54.890625 11.625 47.5625 5.09375 
Q 40.234375 -1.421875 26.90625 -1.421875 
Q 22.3125 -1.421875 17.546875 -0.640625 
Q 12.796875 0.140625 7.71875 1.703125 
L 7.71875 11.625 
Q 12.109375 9.234375 16.796875 8.0625 
Q 21.484375 6.890625 26.703125 6.890625 
Q 35.15625 6.890625 40.078125 11.328125 
Q 45.015625 15.765625 45.015625 23.390625 
Q 45.015625 31 40.078125 35.4375 
Q 35.15625 39.890625 26.703125 39.890625 
Q 22.75 39.890625 18.8125 39.015625 
Q 14.890625 38.140625 10.796875 36.28125 
z
" id="DejaVuSans-53"/>
       </defs>
       <use xlink:href="#DejaVuSans-53"/>
       <use x="63.623047" xlink:href="#DejaVuSans-48"/>
      </g>
     </g>
    </g>
    <g id="xtick_7">
     <g id="line2d_7">
      <g>
       <use style="stroke:#000000;stroke-width:0.8;" x="957.568831" xlink:href="#m004b53ba91" y="307.584"/>
      </g>
     </g>
     <g id="text_7">
      <!-- 60 -->
      <g transform="translate(951.206331 322.182437)scale(0.1 -0.1)">
       <defs>
        <path d="M 33.015625 40.375 
Q 26.375 40.375 22.484375 35.828125 
Q 18.609375 31.296875 18.609375 23.390625 
Q 18.609375 15.53125 22.484375 10.953125 
Q 26.375 6.390625 33.015625 6.390625 
Q 39.65625 6.390625 43.53125 10.953125 
Q 47.40625 15.53125 47.40625 23.390625 
Q 47.40625 31.296875 43.53125 35.828125 
Q 39.65625 40.375 33.015625 40.375 
z
M 52.59375 71.296875 
L 52.59375 62.3125 
Q 48.875 64.0625 45.09375 64.984375 
Q 41.3125 65.921875 37.59375 65.921875 
Q 27.828125 65.921875 22.671875 59.328125 
Q 17.53125 52.734375 16.796875 39.40625 
Q 19.671875 43.65625 24.015625 45.921875 
Q 28.375 48.1875 33.59375 48.1875 
Q 44.578125 48.1875 50.953125 41.515625 
Q 57.328125 34.859375 57.328125 23.390625 
Q 57.328125 12.15625 50.6875 5.359375 
Q 44.046875 -1.421875 33.015625 -1.421875 
Q 20.359375 -1.421875 13.671875 8.265625 
Q 6.984375 17.96875 6.984375 36.375 
Q 6.984375 53.65625 15.1875 63.9375 
Q 23.390625 74.21875 37.203125 74.21875 
Q 40.921875 74.21875 44.703125 73.484375 
Q 48.484375 72.75 52.59375 71.296875 
z
" id="DejaVuSans-54"/>
       </defs>
       <use xlink:href="#DejaVuSans-54"/>
       <use x="63.623047" xlink:href="#DejaVuSans-48"/>
      </g>
     </g>
    </g>
   </g>
   <g id="matplotlib.axis_2">
    <g id="ytick_1">
     <g id="line2d_8">
      <defs>
       <path d="M 0 0 
L -3.5 0 
" id="m13c55e1512" style="stroke:#000000;stroke-width:0.8;"/>
      </defs>
      <g>
       <use style="stroke:#000000;stroke-width:0.8;" x="144" xlink:href="#m13c55e1512" y="304.567895"/>
      </g>
     </g>
     <g id="text_8">
      <!-- −0.0075 -->
      <g transform="translate(93.629687 308.367114)scale(0.1 -0.1)">
       <defs>
        <path d="M 10.59375 35.5 
L 73.1875 35.5 
L 73.1875 27.203125 
L 10.59375 27.203125 
z
" id="DejaVuSans-8722"/>
        <path d="M 10.6875 12.40625 
L 21 12.40625 
L 21 0 
L 10.6875 0 
z
" id="DejaVuSans-46"/>
        <path d="M 8.203125 72.90625 
L 55.078125 72.90625 
L 55.078125 68.703125 
L 28.609375 0 
L 18.3125 0 
L 43.21875 64.59375 
L 8.203125 64.59375 
z
" id="DejaVuSans-55"/>
       </defs>
       <use xlink:href="#DejaVuSans-8722"/>
       <use x="83.789062" xlink:href="#DejaVuSans-48"/>
       <use x="147.412109" xlink:href="#DejaVuSans-46"/>
       <use x="179.199219" xlink:href="#DejaVuSans-48"/>
       <use x="242.822266" xlink:href="#DejaVuSans-48"/>
       <use x="306.445312" xlink:href="#DejaVuSans-55"/>
       <use x="370.068359" xlink:href="#DejaVuSans-53"/>
      </g>
     </g>
    </g>
    <g id="ytick_2">
     <g id="line2d_9">
      <g>
       <use style="stroke:#000000;stroke-width:0.8;" x="144" xlink:href="#m13c55e1512" y="272.394599"/>
      </g>
     </g>
     <g id="text_9">
      <!-- −0.0050 -->
      <g transform="translate(93.629687 276.193818)scale(0.1 -0.1)">
       <use xlink:href="#DejaVuSans-8722"/>
       <use x="83.789062" xlink:href="#DejaVuSans-48"/>
       <use x="147.412109" xlink:href="#DejaVuSans-46"/>
       <use x="179.199219" xlink:href="#DejaVuSans-48"/>
       <use x="242.822266" xlink:href="#DejaVuSans-48"/>
       <use x="306.445312" xlink:href="#DejaVuSans-53"/>
       <use x="370.068359" xlink:href="#DejaVuSans-48"/>
      </g>
     </g>
    </g>
    <g id="ytick_3">
     <g id="line2d_10">
      <g>
       <use style="stroke:#000000;stroke-width:0.8;" x="144" xlink:href="#m13c55e1512" y="240.221302"/>
      </g>
     </g>
     <g id="text_10">
      <!-- −0.0025 -->
      <g transform="translate(93.629687 244.020521)scale(0.1 -0.1)">
       <use xlink:href="#DejaVuSans-8722"/>
       <use x="83.789062" xlink:href="#DejaVuSans-48"/>
       <use x="147.412109" xlink:href="#DejaVuSans-46"/>
       <use x="179.199219" xlink:href="#DejaVuSans-48"/>
       <use x="242.822266" xlink:href="#DejaVuSans-48"/>
       <use x="306.445312" xlink:href="#DejaVuSans-50"/>
       <use x="370.068359" xlink:href="#DejaVuSans-53"/>
      </g>
     </g>
    </g>
    <g id="ytick_4">
     <g id="line2d_11">
      <g>
       <use style="stroke:#000000;stroke-width:0.8;" x="144" xlink:href="#m13c55e1512" y="208.048006"/>
      </g>
     </g>
     <g id="text_11">
      <!-- 0.0000 -->
      <g transform="translate(102.009375 211.847225)scale(0.1 -0.1)">
       <use xlink:href="#DejaVuSans-48"/>
       <use x="63.623047" xlink:href="#DejaVuSans-46"/>
       <use x="95.410156" xlink:href="#DejaVuSans-48"/>
       <use x="159.033203" xlink:href="#DejaVuSans-48"/>
       <use x="222.65625" xlink:href="#DejaVuSans-48"/>
       <use x="286.279297" xlink:href="#DejaVuSans-48"/>
      </g>
     </g>
    </g>
    <g id="ytick_5">
     <g id="line2d_12">
      <g>
       <use style="stroke:#000000;stroke-width:0.8;" x="144" xlink:href="#m13c55e1512" y="175.87471"/>
      </g>
     </g>
     <g id="text_12">
      <!-- 0.0025 -->
      <g transform="translate(102.009375 179.673928)scale(0.1 -0.1)">
       <use xlink:href="#DejaVuSans-48"/>
       <use x="63.623047" xlink:href="#DejaVuSans-46"/>
       <use x="95.410156" xlink:href="#DejaVuSans-48"/>
       <use x="159.033203" xlink:href="#DejaVuSans-48"/>
       <use x="222.65625" xlink:href="#DejaVuSans-50"/>
       <use x="286.279297" xlink:href="#DejaVuSans-53"/>
      </g>
     </g>
    </g>
    <g id="ytick_6">
     <g id="line2d_13">
      <g>
       <use style="stroke:#000000;stroke-width:0.8;" x="144" xlink:href="#m13c55e1512" y="143.701413"/>
      </g>
     </g>
     <g id="text_13">
      <!-- 0.0050 -->
      <g transform="translate(102.009375 147.500632)scale(0.1 -0.1)">
       <use xlink:href="#DejaVuSans-48"/>
       <use x="63.623047" xlink:href="#DejaVuSans-46"/>
       <use x="95.410156" xlink:href="#DejaVuSans-48"/>
       <use x="159.033203" xlink:href="#DejaVuSans-48"/>
       <use x="222.65625" xlink:href="#DejaVuSans-53"/>
       <use x="286.279297" xlink:href="#DejaVuSans-48"/>
      </g>
     </g>
    </g>
    <g id="ytick_7">
     <g id="line2d_14">
      <g>
       <use style="stroke:#000000;stroke-width:0.8;" x="144" xlink:href="#m13c55e1512" y="111.528117"/>
      </g>
     </g>
     <g id="text_14">
      <!-- 0.0075 -->
      <g transform="translate(102.009375 115.327335)scale(0.1 -0.1)">
       <use xlink:href="#DejaVuSans-48"/>
       <use x="63.623047" xlink:href="#DejaVuSans-46"/>
       <use x="95.410156" xlink:href="#DejaVuSans-48"/>
       <use x="159.033203" xlink:href="#DejaVuSans-48"/>
       <use x="222.65625" xlink:href="#DejaVuSans-55"/>
       <use x="286.279297" xlink:href="#DejaVuSans-53"/>
      </g>
     </g>
    </g>
    <g id="ytick_8">
     <g id="line2d_15">
      <g>
       <use style="stroke:#000000;stroke-width:0.8;" x="144" xlink:href="#m13c55e1512" y="79.35482"/>
      </g>
     </g>
     <g id="text_15">
      <!-- 0.0100 -->
      <g transform="translate(102.009375 83.154039)scale(0.1 -0.1)">
       <use xlink:href="#DejaVuSans-48"/>
       <use x="63.623047" xlink:href="#DejaVuSans-46"/>
       <use x="95.410156" xlink:href="#DejaVuSans-48"/>
       <use x="159.033203" xlink:href="#DejaVuSans-49"/>
       <use x="222.65625" xlink:href="#DejaVuSans-48"/>
       <use x="286.279297" xlink:href="#DejaVuSans-48"/>
      </g>
     </g>
    </g>
    <g id="ytick_9">
     <g id="line2d_16">
      <g>
       <use style="stroke:#000000;stroke-width:0.8;" x="144" xlink:href="#m13c55e1512" y="47.181524"/>
      </g>
     </g>
     <g id="text_16">
      <!-- 0.0125 -->
      <g transform="translate(102.009375 50.980742)scale(0.1 -0.1)">
       <use xlink:href="#DejaVuSans-48"/>
       <use x="63.623047" xlink:href="#DejaVuSans-46"/>
       <use x="95.410156" xlink:href="#DejaVuSans-48"/>
       <use x="159.033203" xlink:href="#DejaVuSans-49"/>
       <use x="222.65625" xlink:href="#DejaVuSans-50"/>
       <use x="286.279297" xlink:href="#DejaVuSans-53"/>
      </g>
     </g>
    </g>
   </g>
   <g id="line2d_17">
    <path clip-path="url(#p35f962d162)" d="M 184.581818 201.951373 
L 197.464935 210.040521 
L 210.348052 214.733845 
L 223.231169 221.227914 
L 236.114286 192.648964 
L 248.997403 230.726489 
L 261.880519 223.267122 
L 274.763636 202.948182 
L 287.646753 244.389537 
L 300.52987 225.184845 
L 313.412987 225.238348 
L 326.296104 203.279556 
L 339.179221 225.353313 
L 352.062338 208.361211 
L 364.945455 195.891993 
L 377.828571 213.550159 
L 390.711688 186.388239 
L 403.594805 174.40185 
L 416.477922 242.530456 
L 429.361039 207.031493 
L 442.244156 197.138435 
L 455.127273 223.068498 
L 468.01039 230.519429 
L 480.893506 198.867652 
L 493.776623 242.747585 
L 506.65974 230.107465 
L 519.542857 228.039446 
L 532.425974 206.803817 
L 545.309091 230.077022 
L 558.192208 208.585387 
L 571.075325 195.760632 
L 583.958442 216.648694 
L 596.841558 172.172756 
L 609.724675 174.652823 
L 622.607792 241.389255 
L 635.490909 211.607887 
L 648.374026 193.037581 
L 661.257143 224.862389 
L 674.14026 231.588003 
L 687.023377 203.944463 
L 699.906494 242.292762 
L 712.78961 237.382291 
L 725.672727 224.313453 
L 738.555844 212.799053 
L 751.438961 223.397908 
L 764.322078 213.949084 
L 777.205195 189.729016 
L 790.088312 221.109162 
L 802.971429 175.205734 
L 815.854545 181.418546 
L 828.737662 239.181735 
L 841.620779 214.278062 
L 854.503896 192.727589 
L 867.387013 229.961818 
L 880.27013 230.74557 
L 893.153247 206.412946 
L 906.036364 231.110264 
L 918.919481 232.541182 
L 931.802597 221.415895 
L 944.685714 210.989628 
L 957.568831 219.863008 
L 970.451948 195.274694 
L 983.335065 217.779501 
L 996.218182 226.41767 
" style="fill:none;stroke:#1f77b4;stroke-linecap:square;stroke-width:1.5;"/>
   </g>
   <g id="line2d_18">
    <path clip-path="url(#p35f962d162)" d="M 184.581818 228.463181 
L 197.464935 231.612663 
L 210.348052 205.540918 
L 223.231169 230.097901 
L 236.114286 219.351354 
L 248.997403 223.512776 
L 261.880519 253.407162 
L 274.763636 279.708753 
L 287.646753 280.275768 
L 300.52987 280.524827 
L 313.412987 276.32039 
L 326.296104 263.831057 
L 339.179221 216.840785 
L 352.062338 228.426302 
L 364.945455 225.259335 
L 377.828571 207.662984 
L 390.711688 213.367794 
L 403.594805 240.745089 
L 416.477922 207.656368 
L 429.361039 225.924683 
L 442.244156 207.285334 
L 455.127273 229.937787 
L 468.01039 245.138599 
L 480.893506 287.316523 
L 493.776623 265.417096 
L 506.65974 287.767908 
L 519.542857 267.559856 
L 532.425974 264.842039 
L 545.309091 214.904375 
L 558.192208 233.314806 
L 571.075325 220.778986 
L 583.958442 199.148124 
L 596.841558 214.300223 
L 609.724675 243.383481 
L 622.607792 213.945848 
L 635.490909 221.709743 
L 648.374026 209.077811 
L 661.257143 223.54914 
L 674.14026 252.451859 
L 687.023377 285.66174 
L 699.906494 275.616081 
L 712.78961 285.960886 
L 725.672727 288.890499 
L 738.555844 256.362391 
L 751.438961 224.873823 
L 764.322078 230.565435 
L 777.205195 224.643989 
L 790.088312 209.697593 
L 802.971429 212.410364 
L 815.854545 249.407476 
L 828.737662 207.303947 
L 841.620779 226.295874 
L 854.503896 213.142257 
L 867.387013 224.801718 
L 880.27013 240.760894 
L 893.153247 269.300916 
L 906.036364 263.902544 
L 918.919481 289.244748 
L 931.802597 275.215472 
L 944.685714 277.290549 
L 957.568831 229.811436 
L 970.451948 239.188375 
L 983.335065 211.997284 
L 996.218182 249.611481 
" style="fill:none;stroke:#ff7f0e;stroke-linecap:square;stroke-width:1.5;"/>
   </g>
   <g id="line2d_19">
    <path clip-path="url(#p35f962d162)" d="M 184.581818 93.652119 
L 197.464935 109.528868 
L 210.348052 114.212083 
L 223.231169 90.064671 
L 236.114286 122.122001 
L 248.997403 136.063208 
L 261.880519 107.615582 
L 274.763636 121.883544 
L 287.646753 131.265501 
L 300.52987 111.572159 
L 313.412987 119.390388 
L 326.296104 88.706847 
L 339.179221 88.011725 
L 352.062338 103.235259 
L 364.945455 108.956555 
L 377.828571 84.673275 
L 390.711688 70.131164 
L 403.594805 102.712907 
L 416.477922 116.529531 
L 429.361039 89.413811 
L 442.244156 121.516116 
L 455.127273 133.099322 
L 468.01039 106.386842 
L 480.893506 116.068683 
L 493.776623 124.63685 
L 506.65974 105.632164 
L 519.542857 124.24689 
L 532.425974 92.265949 
L 545.309091 85.87029 
L 558.192208 99.952326 
L 571.075325 107.356864 
L 583.958442 78.890158 
L 596.841558 53.568 
L 609.724675 101.328967 
L 622.607792 119.233552 
L 635.490909 88.808819 
L 648.374026 119.551503 
L 661.257143 134.898536 
L 674.14026 105.595848 
L 687.023377 120.480343 
L 699.906494 132.864491 
L 712.78961 106.488959 
L 725.672727 122.077319 
L 738.555844 86.944992 
L 751.438961 81.328461 
L 764.322078 101.038283 
L 777.205195 107.677164 
L 790.088312 84.239173 
L 802.971429 59.983136 
L 815.854545 99.939813 
L 828.737662 116.387263 
L 841.620779 81.874796 
L 854.503896 115.884622 
L 867.387013 130.436932 
L 880.27013 104.885972 
L 893.153247 117.228213 
L 906.036364 119.768261 
L 918.919481 105.478139 
L 931.802597 121.310068 
L 944.685714 94.922712 
L 957.568831 93.308902 
L 970.451948 97.790575 
L 983.335065 102.092562 
L 996.218182 87.117056 
" style="fill:none;stroke:#2ca02c;stroke-linecap:square;stroke-width:1.5;"/>
   </g>
   <g id="line2d_20">
    <path clip-path="url(#p35f962d162)" d="M 184.581818 201.320121 
L 197.464935 180.552766 
L 210.348052 190.771752 
L 223.231169 189.997299 
L 236.114286 181.191877 
L 248.997403 196.759598 
L 261.880519 198.121149 
L 274.763636 190.085273 
L 287.646753 200.031394 
L 300.52987 205.426972 
L 313.412987 207.408844 
L 326.296104 209.024104 
L 339.179221 221.346666 
L 352.062338 207.817837 
L 364.945455 187.85684 
L 377.828571 215.971563 
L 390.711688 208.920885 
L 403.594805 191.879306 
L 416.477922 195.809246 
L 429.361039 185.830052 
L 442.244156 180.107292 
L 455.127273 196.456078 
L 468.01039 202.311177 
L 480.893506 185.947989 
L 493.776623 207.286544 
L 506.65974 205.57751 
L 519.542857 204.987392 
L 532.425974 206.377517 
L 545.309091 226.113287 
L 558.192208 208.036979 
L 571.075325 189.142065 
L 583.958442 218.69941 
L 596.841558 210.107496 
L 609.724675 189.883437 
L 622.607792 192.415487 
L 635.490909 184.00021 
L 648.374026 175.401334 
L 661.257143 194.451147 
L 674.14026 199.327847 
L 687.023377 185.350011 
L 699.906494 203.253668 
L 712.78961 210.906688 
L 725.672727 204.992186 
L 738.555844 209.418522 
L 751.438961 222.628345 
L 764.322078 204.967736 
L 777.205195 187.923 
L 790.088312 214.047892 
L 802.971429 211.898943 
L 815.854545 192.994386 
L 828.737662 195.404712 
L 841.620779 186.244221 
L 854.503896 172.88953 
L 867.387013 193.947422 
L 880.27013 200.125792 
L 893.153247 187.521823 
L 906.036364 204.885372 
L 918.919481 209.081395 
L 931.802597 204.676105 
L 944.685714 206.786749 
L 957.568831 201.526847 
L 970.451948 204.425177 
L 983.335065 210.900888 
L 996.218182 221.60771 
" style="fill:none;stroke:#d62728;stroke-linecap:square;stroke-width:1.5;"/>
   </g>
   <g id="line2d_21">
    <path clip-path="url(#p35f962d162)" d="M 184.581818 190.06286 
L 197.464935 190.395408 
L 210.348052 177.699923 
L 223.231169 216.136867 
L 236.114286 180.472007 
L 248.997403 170.432982 
L 261.880519 211.354442 
L 274.763636 196.997702 
L 287.646753 220.500084 
L 300.52987 216.541304 
L 313.412987 203.429998 
L 326.296104 208.801462 
L 339.179221 200.889771 
L 352.062338 199.130374 
L 364.945455 198.342783 
L 377.828571 204.092484 
L 390.711688 204.212746 
L 403.594805 190.383422 
L 416.477922 181.320361 
L 429.361039 215.101273 
L 442.244156 178.021131 
L 455.127273 174.252139 
L 468.01039 210.055863 
L 480.893506 207.886226 
L 493.776623 215.953608 
L 506.65974 221.792383 
L 519.542857 196.490332 
L 532.425974 211.219917 
L 545.309091 200.692537 
L 558.192208 206.177287 
L 571.075325 202.864811 
L 583.958442 211.089251 
L 596.841558 208.977265 
L 609.724675 192.903104 
L 622.607792 180.926782 
L 635.490909 217.590921 
L 648.374026 181.526356 
L 661.257143 169.467584 
L 674.14026 215.070781 
L 687.023377 208.127973 
L 699.906494 223.109537 
L 712.78961 222.288149 
L 725.672727 205.721024 
L 738.555844 211.996073 
L 751.438961 198.492099 
L 764.322078 203.661845 
L 777.205195 196.754133 
L 790.088312 206.824719 
L 802.971429 206.451971 
L 815.854545 193.796309 
L 828.737662 180.96782 
L 841.620779 214.904303 
L 854.503896 176.677687 
L 867.387013 169.174155 
L 880.27013 210.618366 
L 893.153247 205.201932 
L 906.036364 220.01786 
L 918.919481 220.44404 
L 931.802597 200.860526 
L 944.685714 211.463438 
L 957.568831 208.977193 
L 970.451948 202.355571 
L 983.335065 183.037994 
L 996.218182 200.051721 
" style="fill:none;stroke:#9467bd;stroke-linecap:square;stroke-width:1.5;"/>
   </g>
   <g id="line2d_22">
    <path clip-path="url(#p35f962d162)" d="M 184.581818 153.57247 
L 197.464935 167.127294 
L 210.348052 152.788146 
L 223.231169 125.32487 
L 236.114286 226.250886 
L 248.997403 136.811575 
L 261.880519 139.754767 
L 274.763636 188.536685 
L 287.646753 163.649957 
L 300.52987 182.106157 
L 313.412987 166.659777 
L 326.296104 165.431684 
L 339.179221 132.721953 
L 352.062338 167.717202 
L 364.945455 167.888136 
L 377.828571 108.318795 
L 390.711688 137.719818 
L 403.594805 191.424133 
L 416.477922 136.202389 
L 429.361039 124.900357 
L 442.244156 216.509387 
L 455.127273 145.862566 
L 468.01039 131.228867 
L 480.893506 192.983701 
L 493.776623 154.525502 
L 506.65974 183.98702 
L 519.542857 162.111092 
L 532.425974 164.599936 
L 545.309091 118.197341 
L 558.192208 171.460123 
L 571.075325 168.56641 
L 583.958442 94.54487 
L 596.841558 137.254499 
L 609.724675 198.32393 
L 622.607792 143.885368 
L 635.490909 116.30352 
L 648.374026 225.339571 
L 661.257143 140.962473 
L 674.14026 135.853 
L 687.023377 192.303956 
L 699.906494 169.11776 
L 712.78961 176.127844 
L 725.672727 171.376398 
L 738.555844 150.226901 
L 751.438961 129.691183 
L 764.322078 166.616557 
L 777.205195 177.337788 
L 790.088312 99.655313 
L 802.971429 135.983696 
L 815.854545 192.77435 
L 828.737662 137.322822 
L 841.620779 113.10602 
L 854.503896 221.009119 
L 867.387013 143.815978 
L 880.27013 135.771535 
L 893.153247 182.058317 
L 906.036364 158.951985 
L 918.919481 180.020985 
L 931.802597 165.955923 
L 944.685714 152.696888 
L 957.568831 142.055681 
L 970.451948 172.103564 
L 983.335065 126.161685 
L 996.218182 104.009497 
" style="fill:none;stroke:#8c564b;stroke-linecap:square;stroke-width:1.5;"/>
   </g>
   <g id="line2d_23">
    <path clip-path="url(#p35f962d162)" d="M 184.581818 229.134821 
L 197.464935 223.00421 
L 210.348052 229.562799 
L 223.231169 220.394732 
L 236.114286 214.69017 
L 248.997403 230.01115 
L 261.880519 197.537168 
L 274.763636 192.374832 
L 287.646753 199.375213 
L 300.52987 189.246146 
L 313.412987 210.290059 
L 326.296104 230.387541 
L 339.179221 202.719499 
L 352.062338 198.736483 
L 364.945455 216.072864 
L 377.828571 218.833024 
L 390.711688 220.960062 
L 403.594805 218.490144 
L 416.477922 224.466244 
L 429.361039 206.31898 
L 442.244156 214.649755 
L 455.127273 227.79643 
L 468.01039 203.661414 
L 480.893506 191.792818 
L 493.776623 204.690008 
L 506.65974 185.148271 
L 519.542857 210.470752 
L 532.425974 229.096611 
L 545.309091 200.325997 
L 558.192208 194.870831 
L 571.075325 218.118258 
L 583.958442 220.521299 
L 596.841558 223.545856 
L 609.724675 220.430401 
L 622.607792 224.4603 
L 635.490909 208.992175 
L 648.374026 215.283068 
L 661.257143 231.094108 
L 674.14026 202.519725 
L 687.023377 192.476805 
L 699.906494 203.52545 
L 712.78961 183.749761 
L 725.672727 206.780133 
L 738.555844 229.706958 
L 751.438961 198.770522 
L 764.322078 193.152209 
L 777.205195 214.547303 
L 790.088312 214.105806 
L 802.971429 222.637933 
L 815.854545 214.858926 
L 828.737662 226.835099 
L 841.620779 199.165132 
L 854.503896 211.272821 
L 867.387013 226.365605 
L 880.27013 207.05043 
L 893.153247 195.534826 
L 906.036364 206.543444 
L 918.919481 180.67938 
L 931.802597 211.507833 
L 944.685714 218.959351 
L 957.568831 199.026675 
L 970.451948 202.728464 
L 983.335065 205.388954 
L 996.218182 172.172948 
" style="fill:none;stroke:#e377c2;stroke-linecap:square;stroke-width:1.5;"/>
   </g>
   <g id="line2d_24">
    <path clip-path="url(#p35f962d162)" d="M 184.581818 248.229267 
L 197.464935 239.621599 
L 210.348052 235.688942 
L 223.231169 240.535271 
L 236.114286 215.617799 
L 248.997403 223.754212 
L 261.880519 216.675637 
L 274.763636 193.282324 
L 287.646753 222.732331 
L 300.52987 213.226599 
L 313.412987 233.168692 
L 326.296104 230.488938 
L 339.179221 221.766638 
L 352.062338 227.326215 
L 364.945455 221.200875 
L 377.828571 241.213164 
L 390.711688 237.912957 
L 403.594805 216.326284 
L 416.477922 244.161668 
L 429.361039 230.183883 
L 442.244156 213.930914 
L 455.127273 220.304937 
L 468.01039 219.282863 
L 480.893506 199.468604 
L 493.776623 220.464679 
L 506.65974 220.570823 
L 519.542857 232.687452 
L 532.425974 235.204204 
L 545.309091 221.492506 
L 558.192208 229.743922 
L 571.075325 227.421812 
L 583.958442 251.080201 
L 596.841558 239.827075 
L 609.724675 219.780165 
L 622.607792 244.962389 
L 635.490909 230.97152 
L 648.374026 214.614902 
L 661.257143 222.680937 
L 674.14026 220.319751 
L 687.023377 195.792514 
L 699.906494 214.713806 
L 712.78961 218.171234 
L 725.672727 233.950525 
L 738.555844 236.616037 
L 751.438961 220.799025 
L 764.322078 231.013182 
L 777.205195 223.827755 
L 790.088312 249.918343 
L 802.971429 238.061913 
L 815.854545 223.428974 
L 828.737662 244.407083 
L 841.620779 236.030477 
L 854.503896 213.741064 
L 867.387013 222.556048 
L 880.27013 220.154878 
L 893.153247 204.87842 
L 906.036364 219.861474 
L 918.919481 219.198677 
L 931.802597 232.843024 
L 944.685714 236.100521 
L 957.568831 222.573403 
L 970.451948 213.332263 
L 983.335065 228.520974 
L 996.218182 240.546345 
" style="fill:none;stroke:#7f7f7f;stroke-linecap:square;stroke-width:1.5;"/>
   </g>
   <g id="line2d_25">
    <path clip-path="url(#p35f962d162)" d="M 184.581818 176.36806 
L 197.464935 172.245508 
L 210.348052 205.7967 
L 223.231169 166.322862 
L 236.114286 159.956728 
L 248.997403 234.715586 
L 261.880519 145.414932 
L 274.763636 164.292074 
L 287.646753 161.797504 
L 300.52987 143.12007 
L 313.412987 178.642887 
L 326.296104 179.941425 
L 339.179221 178.475708 
L 352.062338 161.446695 
L 364.945455 206.694095 
L 377.828571 218.89901 
L 390.711688 173.739996 
L 403.594805 184.255092 
L 416.477922 200.249002 
L 429.361039 157.30511 
L 442.244156 169.573796 
L 455.127273 230.626705 
L 468.01039 150.450382 
L 480.893506 156.857098 
L 493.776623 173.398659 
L 506.65974 131.777485 
L 519.542857 183.923521 
L 532.425974 183.651811 
L 545.309091 186.028656 
L 558.192208 155.092727 
L 571.075325 212.44475 
L 583.958442 227.692276 
L 596.841558 171.612653 
L 609.724675 177.199286 
L 622.607792 197.659408 
L 635.490909 158.200711 
L 648.374026 160.82751 
L 661.257143 239.581951 
L 674.14026 146.087371 
L 687.023377 153.104664 
L 699.906494 168.19735 
L 712.78961 133.902955 
L 725.672727 174.142652 
L 738.555844 180.795094 
L 751.438961 182.243816 
L 764.322078 153.119934 
L 777.205195 209.794148 
L 790.088312 217.663272 
L 802.971429 174.508877 
L 815.854545 174.171992 
L 828.737662 201.724859 
L 841.620779 153.673723 
L 854.503896 168.337631 
L 867.387013 232.007297 
L 880.27013 152.166309 
L 893.153247 162.530324 
L 906.036364 175.61636 
L 918.919481 134.815566 
L 931.802597 185.839107 
L 944.685714 173.364746 
L 957.568831 166.127942 
L 970.451948 167.557798 
L 983.335065 203.898325 
L 996.218182 180.712892 
" style="fill:none;stroke:#bcbd22;stroke-linecap:square;stroke-width:1.5;"/>
   </g>
   <g id="line2d_26">
    <path clip-path="url(#p35f962d162)" d="M 184.581818 227.430561 
L 197.464935 244.159092 
L 210.348052 211.775205 
L 223.231169 238.142946 
L 236.114286 244.480147 
L 248.997403 203.771141 
L 261.880519 235.658427 
L 274.763636 248.750477 
L 287.646753 228.590202 
L 300.52987 238.660021 
L 313.412987 205.168205 
L 326.296104 197.05552 
L 339.179221 230.485486 
L 352.062338 239.937078 
L 364.945455 228.790527 
L 377.828571 188.43014 
L 390.711688 225.932282 
L 403.594805 231.03925 
L 416.477922 219.912413 
L 429.361039 254.666193 
L 442.244156 242.270913 
L 455.127273 203.247387 
L 468.01039 229.889342 
L 480.893506 251.05658 
L 493.776623 224.794083 
L 506.65974 239.282868 
L 519.542857 206.227542 
L 532.425974 195.144987 
L 545.309091 226.139451 
L 558.192208 242.063315 
L 571.075325 225.995014 
L 583.958442 177.25258 
L 596.841558 214.841307 
L 609.724675 231.608306 
L 622.607792 220.472242 
L 635.490909 260.538368 
L 648.374026 250.692033 
L 661.257143 202.535689 
L 674.14026 229.136595 
L 687.023377 254.779992 
L 699.906494 227.558134 
L 712.78961 238.904031 
L 725.672727 207.343044 
L 738.555844 198.972321 
L 751.438961 227.37206 
L 764.322078 245.306573 
L 777.205195 224.098014 
L 790.088312 188.056542 
L 802.971429 219.173519 
L 815.854545 232.55862 
L 828.737662 220.415107 
L 841.620779 260.134949 
L 854.503896 247.736022 
L 867.387013 206.378871 
L 880.27013 233.158217 
L 893.153247 253.079958 
L 906.036364 226.311719 
L 918.919481 239.683935 
L 931.802597 207.669816 
L 944.685714 205.33448 
L 957.568831 243.393872 
L 970.451948 227.589572 
L 983.335065 222.468578 
L 996.218182 213.792721 
" style="fill:none;stroke:#17becf;stroke-linecap:square;stroke-width:1.5;"/>
   </g>
   <g id="line2d_27">
    <path clip-path="url(#p35f962d162)" d="M 184.581818 237.907755 
L 197.464935 235.710708 
L 210.348052 250.919502 
L 223.231169 248.747157 
L 236.114286 198.308337 
L 248.997403 257.308477 
L 261.880519 229.127725 
L 274.763636 224.975458 
L 287.646753 252.260472 
L 300.52987 224.778131 
L 313.412987 240.925659 
L 326.296104 243.682183 
L 339.179221 257.948182 
L 352.062338 231.356684 
L 364.945455 238.602886 
L 377.828571 254.103073 
L 390.711688 244.278335 
L 403.594805 224.361947 
L 416.477922 268.822197 
L 429.361039 253.082883 
L 442.244156 211.715062 
L 455.127273 251.735346 
L 468.01039 236.390402 
L 480.893506 218.643582 
L 493.776623 256.333925 
L 506.65974 221.534119 
L 519.542857 241.769671 
L 532.425974 242.866265 
L 545.309091 266.950939 
L 558.192208 228.6741 
L 571.075325 235.78437 
L 583.958442 253.4539 
L 596.841558 236.862771 
L 609.724675 219.331788 
L 622.607792 265.565758 
L 635.490909 259.683126 
L 648.374026 209.713581 
L 661.257143 257.999213 
L 674.14026 236.392799 
L 687.023377 223.274145 
L 699.906494 254.481967 
L 712.78961 227.361045 
L 725.672727 233.68258 
L 738.555844 250.995131 
L 751.438961 263.007912 
L 764.322078 232.767276 
L 777.205195 231.877093 
L 790.088312 253.715204 
L 802.971429 240.444373 
L 815.854545 220.638252 
L 828.737662 271.856467 
L 841.620779 258.442358 
L 854.503896 215.147393 
L 867.387013 255.565883 
L 880.27013 240.099865 
L 893.153247 226.592969 
L 906.036364 257.744335 
L 918.919481 225.406145 
L 931.802597 246.221144 
L 944.685714 246.976077 
L 957.568831 256.702332 
L 970.451948 232.2531 
L 983.335065 253.322038 
L 996.218182 218.602232 
" style="fill:none;stroke:#1f77b4;stroke-linecap:square;stroke-width:1.5;"/>
   </g>
   <g id="line2d_28">
    <path clip-path="url(#p35f962d162)" d="M 184.581818 182.137433 
L 197.464935 185.474802 
L 210.348052 171.675074 
L 223.231169 183.804702 
L 236.114286 158.851921 
L 248.997403 193.47354 
L 261.880519 182.718486 
L 274.763636 168.56072 
L 287.646753 153.446077 
L 300.52987 153.354699 
L 313.412987 131.712853 
L 326.296104 156.96836 
L 339.179221 151.195124 
L 352.062338 166.644909 
L 364.945455 186.484337 
L 377.828571 177.883754 
L 390.711688 187.820092 
L 403.594805 169.673371 
L 416.477922 166.780006 
L 429.361039 176.257503 
L 442.244156 157.085548 
L 455.127273 187.060813 
L 468.01039 186.905291 
L 480.893506 163.766456 
L 493.776623 160.023436 
L 506.65974 152.98922 
L 519.542857 134.963545 
L 532.425974 155.832321 
L 545.309091 149.968746 
L 558.192208 164.479299 
L 571.075325 189.445273 
L 583.958442 180.035259 
L 596.841558 188.919087 
L 609.724675 170.813853 
L 622.607792 164.278878 
L 635.490909 183.258262 
L 648.374026 159.292717 
L 661.257143 193.993638 
L 674.14026 183.834379 
L 687.023377 165.782106 
L 699.906494 151.976345 
L 712.78961 152.630956 
L 725.672727 125.098177 
L 738.555844 157.917763 
L 751.438961 140.799512 
L 764.322078 165.011472 
L 777.205195 183.64453 
L 790.088312 181.829262 
L 802.971429 185.40476 
L 815.854545 171.248058 
L 828.737662 166.09502 
L 841.620779 177.977049 
L 854.503896 152.86843 
L 867.387013 192.714645 
L 880.27013 181.787361 
L 893.153247 168.537971 
L 906.036364 160.692218 
L 918.919481 152.676189 
L 931.802597 136.458279 
L 944.685714 154.045052 
L 957.568831 156.066823 
L 970.451948 156.391816 
L 983.335065 187.841882 
L 996.218182 175.633493 
" style="fill:none;stroke:#ff7f0e;stroke-linecap:square;stroke-width:1.5;"/>
   </g>
   <g id="line2d_29">
    <path clip-path="url(#p35f962d162)" d="M 184.581818 217.347244 
L 197.464935 208.99649 
L 210.348052 217.388378 
L 223.231169 220.521203 
L 236.114286 226.378957 
L 248.997403 218.554446 
L 261.880519 197.556584 
L 274.763636 225.663054 
L 287.646753 229.409157 
L 300.52987 259.756788 
L 313.412987 288.041675 
L 326.296104 234.218125 
L 339.179221 223.362047 
L 352.062338 242.074462 
L 364.945455 253.940648 
L 377.828571 240.546897 
L 390.711688 194.840975 
L 403.594805 230.294845 
L 416.477922 203.943636 
L 429.361039 224.168693 
L 442.244156 213.710225 
L 455.127273 221.615992 
L 468.01039 188.236886 
L 480.893506 227.69749 
L 493.776623 218.295763 
L 506.65974 261.128276 
L 519.542857 288.657609 
L 532.425974 241.555865 
L 545.309091 222.759802 
L 558.192208 246.298171 
L 571.075325 260.570226 
L 583.958442 245.180609 
L 596.841558 201.077787 
L 609.724675 231.679056 
L 622.607792 202.230826 
L 635.490909 212.076316 
L 648.374026 207.771812 
L 661.257143 211.250984 
L 674.14026 183.780264 
L 687.023377 217.454035 
L 699.906494 223.936691 
L 712.78961 253.960232 
L 725.672727 295.488 
L 738.555844 224.819708 
L 751.438961 224.320681 
L 764.322078 233.007356 
L 777.205195 263.229931 
L 790.088312 242.266047 
L 802.971429 200.754478 
L 815.854545 234.750218 
L 828.737662 201.219503 
L 841.620779 217.284153 
L 854.503896 206.681732 
L 867.387013 205.94242 
L 880.27013 179.845673 
L 893.153247 216.880757 
L 906.036364 221.081535 
L 918.919481 258.231081 
L 931.802597 288.453754 
L 944.685714 243.083151 
L 957.568831 199.492911 
L 970.451948 223.742035 
L 983.335065 203.106114 
L 996.218182 227.618553 
" style="fill:none;stroke:#2ca02c;stroke-linecap:square;stroke-width:1.5;"/>
   </g>
   <g id="line2d_30">
    <path clip-path="url(#p35f962d162)" d="M 184.581818 161.456691 
L 197.464935 160.318372 
L 210.348052 173.560954 
L 223.231169 156.646747 
L 236.114286 156.802505 
L 248.997403 175.709505 
L 261.880519 173.833597 
L 274.763636 173.063368 
L 287.646753 183.751199 
L 300.52987 184.40201 
L 313.412987 184.731945 
L 326.296104 184.604515 
L 339.179221 164.983642 
L 352.062338 167.363693 
L 364.945455 160.624479 
L 377.828571 160.938013 
L 390.711688 142.846843 
L 403.594805 153.441738 
L 416.477922 170.403425 
L 429.361039 150.789829 
L 442.244156 153.848082 
L 455.127273 172.657638 
L 468.01039 168.912539 
L 480.893506 165.859098 
L 493.776623 177.936202 
L 506.65974 184.984837 
L 519.542857 184.965614 
L 532.425974 182.36712 
L 545.309091 164.796908 
L 558.192208 166.659243 
L 571.075325 159.270041 
L 583.958442 157.692151 
L 596.841558 139.651692 
L 609.724675 152.692993 
L 622.607792 169.430548 
L 635.490909 145.420493 
L 648.374026 148.078143 
L 661.257143 168.886602 
L 674.14026 170.889215 
L 687.023377 166.623958 
L 699.906494 181.248448 
L 712.78961 186.634946 
L 725.672727 184.446116 
L 738.555844 180.395996 
L 751.438961 165.611145 
L 764.322078 165.755594 
L 777.205195 162.364987 
L 790.088312 158.471627 
L 802.971429 142.696216 
L 815.854545 152.945257 
L 828.737662 170.255045 
L 841.620779 146.385642 
L 854.503896 147.917639 
L 867.387013 166.735947 
L 880.27013 169.058426 
L 893.153247 162.671765 
L 906.036364 176.178902 
L 918.919481 183.438667 
L 931.802597 178.942501 
L 944.685714 178.876772 
L 957.568831 163.065026 
L 970.451948 158.695274 
L 983.335065 160.319091 
L 996.218182 162.029732 
" style="fill:none;stroke:#d62728;stroke-linecap:square;stroke-width:1.5;"/>
   </g>
   <g id="line2d_31">
    <path clip-path="url(#p35f962d162)" d="M 184.581818 223.743521 
L 197.464935 225.315582 
L 210.348052 230.115328 
L 223.231169 188.556024 
L 236.114286 215.567796 
L 248.997403 247.893967 
L 261.880519 186.051686 
L 274.763636 203.664003 
L 287.646753 195.422019 
L 300.52987 182.845532 
L 313.412987 213.000697 
L 326.296104 198.575638 
L 339.179221 181.357516 
L 352.062338 196.307697 
L 364.945455 203.406075 
L 377.828571 188.834183 
L 390.711688 193.462537 
L 403.594805 210.986128 
L 416.477922 231.267896 
L 429.361039 187.815706 
L 442.244156 214.216696 
L 455.127273 240.667399 
L 468.01039 191.66443 
L 480.893506 194.143601 
L 493.776623 199.128408 
L 506.65974 176.176745 
L 519.542857 220.180479 
L 532.425974 204.917972 
L 545.309091 178.240394 
L 558.192208 190.292286 
L 571.075325 205.267805 
L 583.958442 180.579757 
L 596.841558 180.142577 
L 609.724675 211.244344 
L 622.607792 233.328194 
L 635.490909 190.260165 
L 648.374026 212.218332 
L 661.257143 248.77959 
L 674.14026 188.872151 
L 687.023377 199.025189 
L 699.906494 197.348996 
L 712.78961 176.296887 
L 725.672727 208.796332 
L 738.555844 206.081188 
L 751.438961 171.8084 
L 764.322078 191.641226 
L 777.205195 204.239402 
L 790.088312 184.155828 
L 802.971429 185.899951 
L 815.854545 207.92283 
L 828.737662 233.147694 
L 841.620779 185.088439 
L 854.503896 205.3576 
L 867.387013 240.454776 
L 880.27013 189.79369 
L 893.153247 196.374384 
L 906.036364 194.467543 
L 918.919481 176.528492 
L 931.802597 220.346454 
L 944.685714 208.037651 
L 957.568831 184.634862 
L 970.451948 194.890727 
L 983.335065 213.35935 
L 996.218182 187.111871 
" style="fill:none;stroke:#9467bd;stroke-linecap:square;stroke-width:1.5;"/>
   </g>
   <g id="line2d_32">
    <path clip-path="url(#p35f962d162)" d="M 184.581818 212.287878 
L 197.464935 175.804721 
L 210.348052 205.963089 
L 223.231169 211.058479 
L 236.114286 197.504268 
L 248.997403 222.25091 
L 261.880519 204.182195 
L 274.763636 208.547387 
L 287.646753 207.394033 
L 300.52987 213.211791 
L 313.412987 236.014156 
L 326.296104 243.353439 
L 339.179221 243.777375 
L 352.062338 224.023733 
L 364.945455 228.905798 
L 377.828571 245.629007 
L 390.711688 206.057798 
L 403.594805 218.026455 
L 416.477922 200.991216 
L 429.361039 225.52392 
L 442.244156 192.140953 
L 455.127273 224.060602 
L 468.01039 204.015956 
L 480.893506 201.55913 
L 493.776623 213.828378 
L 506.65974 208.385736 
L 519.542857 235.561392 
L 532.425974 239.494694 
L 545.309091 249.037317 
L 558.192208 228.256491 
L 571.075325 234.333473 
L 583.958442 253.370238 
L 596.841558 214.244955 
L 609.724675 214.163891 
L 622.607792 198.198545 
L 635.490909 221.300429 
L 648.374026 183.287404 
L 661.257143 219.739546 
L 674.14026 201.567814 
L 687.023377 196.352565 
L 699.906494 213.860793 
L 712.78961 210.865605 
L 725.672727 241.062887 
L 738.555844 236.238833 
L 751.438961 251.915227 
L 764.322078 220.905133 
L 777.205195 239.003064 
L 790.088312 240.24266 
L 802.971429 218.250659 
L 815.854545 213.041675 
L 828.737662 205.867582 
L 841.620779 224.196676 
L 854.503896 191.792276 
L 867.387013 218.351561 
L 880.27013 207.335175 
L 893.153247 200.388394 
L 906.036364 217.972664 
L 918.919481 209.168928 
L 931.802597 233.186939 
L 944.685714 238.36801 
L 957.568831 219.786718 
L 970.451948 231.584206 
L 983.335065 238.528301 
L 996.218182 252.15864 
" style="fill:none;stroke:#8c564b;stroke-linecap:square;stroke-width:1.5;"/>
   </g>
   <g id="patch_3">
    <path d="M 144 307.584 
L 144 41.472 
" style="fill:none;stroke:#000000;stroke-linecap:square;stroke-linejoin:miter;stroke-width:0.8;"/>
   </g>
   <g id="patch_4">
    <path d="M 1036.8 307.584 
L 1036.8 41.472 
" style="fill:none;stroke:#000000;stroke-linecap:square;stroke-linejoin:miter;stroke-width:0.8;"/>
   </g>
   <g id="patch_5">
    <path d="M 144 307.584 
L 1036.8 307.584 
" style="fill:none;stroke:#000000;stroke-linecap:square;stroke-linejoin:miter;stroke-width:0.8;"/>
   </g>
   <g id="patch_6">
    <path d="M 144 41.472 
L 1036.8 41.472 
" style="fill:none;stroke:#000000;stroke-linecap:square;stroke-linejoin:miter;stroke-width:0.8;"/>
   </g>
   <g id="text_17">
    <!-- 8th layer's shape: torch.Size([1, 256, 64]). Uniformly sampling 16 channels -->
    <g transform="translate(364.66875 35.472)scale(0.12 -0.12)">
     <defs>
      <path d="M 31.78125 34.625 
Q 24.75 34.625 20.71875 30.859375 
Q 16.703125 27.09375 16.703125 20.515625 
Q 16.703125 13.921875 20.71875 10.15625 
Q 24.75 6.390625 31.78125 6.390625 
Q 38.8125 6.390625 42.859375 10.171875 
Q 46.921875 13.96875 46.921875 20.515625 
Q 46.921875 27.09375 42.890625 30.859375 
Q 38.875 34.625 31.78125 34.625 
z
M 21.921875 38.8125 
Q 15.578125 40.375 12.03125 44.71875 
Q 8.5 49.078125 8.5 55.328125 
Q 8.5 64.0625 14.71875 69.140625 
Q 20.953125 74.21875 31.78125 74.21875 
Q 42.671875 74.21875 48.875 69.140625 
Q 55.078125 64.0625 55.078125 55.328125 
Q 55.078125 49.078125 51.53125 44.71875 
Q 48 40.375 41.703125 38.8125 
Q 48.828125 37.15625 52.796875 32.3125 
Q 56.78125 27.484375 56.78125 20.515625 
Q 56.78125 9.90625 50.3125 4.234375 
Q 43.84375 -1.421875 31.78125 -1.421875 
Q 19.734375 -1.421875 13.25 4.234375 
Q 6.78125 9.90625 6.78125 20.515625 
Q 6.78125 27.484375 10.78125 32.3125 
Q 14.796875 37.15625 21.921875 38.8125 
z
M 18.3125 54.390625 
Q 18.3125 48.734375 21.84375 45.5625 
Q 25.390625 42.390625 31.78125 42.390625 
Q 38.140625 42.390625 41.71875 45.5625 
Q 45.3125 48.734375 45.3125 54.390625 
Q 45.3125 60.0625 41.71875 63.234375 
Q 38.140625 66.40625 31.78125 66.40625 
Q 25.390625 66.40625 21.84375 63.234375 
Q 18.3125 60.0625 18.3125 54.390625 
z
" id="DejaVuSans-56"/>
      <path d="M 18.3125 70.21875 
L 18.3125 54.6875 
L 36.8125 54.6875 
L 36.8125 47.703125 
L 18.3125 47.703125 
L 18.3125 18.015625 
Q 18.3125 11.328125 20.140625 9.421875 
Q 21.96875 7.515625 27.59375 7.515625 
L 36.8125 7.515625 
L 36.8125 0 
L 27.59375 0 
Q 17.1875 0 13.234375 3.875 
Q 9.28125 7.765625 9.28125 18.015625 
L 9.28125 47.703125 
L 2.6875 47.703125 
L 2.6875 54.6875 
L 9.28125 54.6875 
L 9.28125 70.21875 
z
" id="DejaVuSans-116"/>
      <path d="M 54.890625 33.015625 
L 54.890625 0 
L 45.90625 0 
L 45.90625 32.71875 
Q 45.90625 40.484375 42.875 44.328125 
Q 39.84375 48.1875 33.796875 48.1875 
Q 26.515625 48.1875 22.3125 43.546875 
Q 18.109375 38.921875 18.109375 30.90625 
L 18.109375 0 
L 9.078125 0 
L 9.078125 75.984375 
L 18.109375 75.984375 
L 18.109375 46.1875 
Q 21.34375 51.125 25.703125 53.5625 
Q 30.078125 56 35.796875 56 
Q 45.21875 56 50.046875 50.171875 
Q 54.890625 44.34375 54.890625 33.015625 
z
" id="DejaVuSans-104"/>
      <path id="DejaVuSans-32"/>
      <path d="M 9.421875 75.984375 
L 18.40625 75.984375 
L 18.40625 0 
L 9.421875 0 
z
" id="DejaVuSans-108"/>
      <path d="M 34.28125 27.484375 
Q 23.390625 27.484375 19.1875 25 
Q 14.984375 22.515625 14.984375 16.5 
Q 14.984375 11.71875 18.140625 8.90625 
Q 21.296875 6.109375 26.703125 6.109375 
Q 34.1875 6.109375 38.703125 11.40625 
Q 43.21875 16.703125 43.21875 25.484375 
L 43.21875 27.484375 
z
M 52.203125 31.203125 
L 52.203125 0 
L 43.21875 0 
L 43.21875 8.296875 
Q 40.140625 3.328125 35.546875 0.953125 
Q 30.953125 -1.421875 24.3125 -1.421875 
Q 15.921875 -1.421875 10.953125 3.296875 
Q 6 8.015625 6 15.921875 
Q 6 25.140625 12.171875 29.828125 
Q 18.359375 34.515625 30.609375 34.515625 
L 43.21875 34.515625 
L 43.21875 35.40625 
Q 43.21875 41.609375 39.140625 45 
Q 35.0625 48.390625 27.6875 48.390625 
Q 23 48.390625 18.546875 47.265625 
Q 14.109375 46.140625 10.015625 43.890625 
L 10.015625 52.203125 
Q 14.9375 54.109375 19.578125 55.046875 
Q 24.21875 56 28.609375 56 
Q 40.484375 56 46.34375 49.84375 
Q 52.203125 43.703125 52.203125 31.203125 
z
" id="DejaVuSans-97"/>
      <path d="M 32.171875 -5.078125 
Q 28.375 -14.84375 24.75 -17.8125 
Q 21.140625 -20.796875 15.09375 -20.796875 
L 7.90625 -20.796875 
L 7.90625 -13.28125 
L 13.1875 -13.28125 
Q 16.890625 -13.28125 18.9375 -11.515625 
Q 21 -9.765625 23.484375 -3.21875 
L 25.09375 0.875 
L 2.984375 54.6875 
L 12.5 54.6875 
L 29.59375 11.921875 
L 46.6875 54.6875 
L 56.203125 54.6875 
z
" id="DejaVuSans-121"/>
      <path d="M 56.203125 29.59375 
L 56.203125 25.203125 
L 14.890625 25.203125 
Q 15.484375 15.921875 20.484375 11.0625 
Q 25.484375 6.203125 34.421875 6.203125 
Q 39.59375 6.203125 44.453125 7.46875 
Q 49.3125 8.734375 54.109375 11.28125 
L 54.109375 2.78125 
Q 49.265625 0.734375 44.1875 -0.34375 
Q 39.109375 -1.421875 33.890625 -1.421875 
Q 20.796875 -1.421875 13.15625 6.1875 
Q 5.515625 13.8125 5.515625 26.8125 
Q 5.515625 40.234375 12.765625 48.109375 
Q 20.015625 56 32.328125 56 
Q 43.359375 56 49.78125 48.890625 
Q 56.203125 41.796875 56.203125 29.59375 
z
M 47.21875 32.234375 
Q 47.125 39.59375 43.09375 43.984375 
Q 39.0625 48.390625 32.421875 48.390625 
Q 24.90625 48.390625 20.390625 44.140625 
Q 15.875 39.890625 15.1875 32.171875 
z
" id="DejaVuSans-101"/>
      <path d="M 41.109375 46.296875 
Q 39.59375 47.171875 37.8125 47.578125 
Q 36.03125 48 33.890625 48 
Q 26.265625 48 22.1875 43.046875 
Q 18.109375 38.09375 18.109375 28.8125 
L 18.109375 0 
L 9.078125 0 
L 9.078125 54.6875 
L 18.109375 54.6875 
L 18.109375 46.1875 
Q 20.953125 51.171875 25.484375 53.578125 
Q 30.03125 56 36.53125 56 
Q 37.453125 56 38.578125 55.875 
Q 39.703125 55.765625 41.0625 55.515625 
z
" id="DejaVuSans-114"/>
      <path d="M 17.921875 72.90625 
L 17.921875 45.796875 
L 9.625 45.796875 
L 9.625 72.90625 
z
" id="DejaVuSans-39"/>
      <path d="M 44.28125 53.078125 
L 44.28125 44.578125 
Q 40.484375 46.53125 36.375 47.5 
Q 32.28125 48.484375 27.875 48.484375 
Q 21.1875 48.484375 17.84375 46.4375 
Q 14.5 44.390625 14.5 40.28125 
Q 14.5 37.15625 16.890625 35.375 
Q 19.28125 33.59375 26.515625 31.984375 
L 29.59375 31.296875 
Q 39.15625 29.25 43.1875 25.515625 
Q 47.21875 21.78125 47.21875 15.09375 
Q 47.21875 7.46875 41.1875 3.015625 
Q 35.15625 -1.421875 24.609375 -1.421875 
Q 20.21875 -1.421875 15.453125 -0.5625 
Q 10.6875 0.296875 5.421875 2 
L 5.421875 11.28125 
Q 10.40625 8.6875 15.234375 7.390625 
Q 20.0625 6.109375 24.8125 6.109375 
Q 31.15625 6.109375 34.5625 8.28125 
Q 37.984375 10.453125 37.984375 14.40625 
Q 37.984375 18.0625 35.515625 20.015625 
Q 33.0625 21.96875 24.703125 23.78125 
L 21.578125 24.515625 
Q 13.234375 26.265625 9.515625 29.90625 
Q 5.8125 33.546875 5.8125 39.890625 
Q 5.8125 47.609375 11.28125 51.796875 
Q 16.75 56 26.8125 56 
Q 31.78125 56 36.171875 55.265625 
Q 40.578125 54.546875 44.28125 53.078125 
z
" id="DejaVuSans-115"/>
      <path d="M 18.109375 8.203125 
L 18.109375 -20.796875 
L 9.078125 -20.796875 
L 9.078125 54.6875 
L 18.109375 54.6875 
L 18.109375 46.390625 
Q 20.953125 51.265625 25.265625 53.625 
Q 29.59375 56 35.59375 56 
Q 45.5625 56 51.78125 48.09375 
Q 58.015625 40.1875 58.015625 27.296875 
Q 58.015625 14.40625 51.78125 6.484375 
Q 45.5625 -1.421875 35.59375 -1.421875 
Q 29.59375 -1.421875 25.265625 0.953125 
Q 20.953125 3.328125 18.109375 8.203125 
z
M 48.6875 27.296875 
Q 48.6875 37.203125 44.609375 42.84375 
Q 40.53125 48.484375 33.40625 48.484375 
Q 26.265625 48.484375 22.1875 42.84375 
Q 18.109375 37.203125 18.109375 27.296875 
Q 18.109375 17.390625 22.1875 11.75 
Q 26.265625 6.109375 33.40625 6.109375 
Q 40.53125 6.109375 44.609375 11.75 
Q 48.6875 17.390625 48.6875 27.296875 
z
" id="DejaVuSans-112"/>
      <path d="M 11.71875 12.40625 
L 22.015625 12.40625 
L 22.015625 0 
L 11.71875 0 
z
M 11.71875 51.703125 
L 22.015625 51.703125 
L 22.015625 39.3125 
L 11.71875 39.3125 
z
" id="DejaVuSans-58"/>
      <path d="M 30.609375 48.390625 
Q 23.390625 48.390625 19.1875 42.75 
Q 14.984375 37.109375 14.984375 27.296875 
Q 14.984375 17.484375 19.15625 11.84375 
Q 23.34375 6.203125 30.609375 6.203125 
Q 37.796875 6.203125 41.984375 11.859375 
Q 46.1875 17.53125 46.1875 27.296875 
Q 46.1875 37.015625 41.984375 42.703125 
Q 37.796875 48.390625 30.609375 48.390625 
z
M 30.609375 56 
Q 42.328125 56 49.015625 48.375 
Q 55.71875 40.765625 55.71875 27.296875 
Q 55.71875 13.875 49.015625 6.21875 
Q 42.328125 -1.421875 30.609375 -1.421875 
Q 18.84375 -1.421875 12.171875 6.21875 
Q 5.515625 13.875 5.515625 27.296875 
Q 5.515625 40.765625 12.171875 48.375 
Q 18.84375 56 30.609375 56 
z
" id="DejaVuSans-111"/>
      <path d="M 48.78125 52.59375 
L 48.78125 44.1875 
Q 44.96875 46.296875 41.140625 47.34375 
Q 37.3125 48.390625 33.40625 48.390625 
Q 24.65625 48.390625 19.8125 42.84375 
Q 14.984375 37.3125 14.984375 27.296875 
Q 14.984375 17.28125 19.8125 11.734375 
Q 24.65625 6.203125 33.40625 6.203125 
Q 37.3125 6.203125 41.140625 7.25 
Q 44.96875 8.296875 48.78125 10.40625 
L 48.78125 2.09375 
Q 45.015625 0.34375 40.984375 -0.53125 
Q 36.96875 -1.421875 32.421875 -1.421875 
Q 20.0625 -1.421875 12.78125 6.34375 
Q 5.515625 14.109375 5.515625 27.296875 
Q 5.515625 40.671875 12.859375 48.328125 
Q 20.21875 56 33.015625 56 
Q 37.15625 56 41.109375 55.140625 
Q 45.0625 54.296875 48.78125 52.59375 
z
" id="DejaVuSans-99"/>
      <path d="M 53.515625 70.515625 
L 53.515625 60.890625 
Q 47.90625 63.578125 42.921875 64.890625 
Q 37.9375 66.21875 33.296875 66.21875 
Q 25.25 66.21875 20.875 63.09375 
Q 16.5 59.96875 16.5 54.203125 
Q 16.5 49.359375 19.40625 46.890625 
Q 22.3125 44.4375 30.421875 42.921875 
L 36.375 41.703125 
Q 47.40625 39.59375 52.65625 34.296875 
Q 57.90625 29 57.90625 20.125 
Q 57.90625 9.515625 50.796875 4.046875 
Q 43.703125 -1.421875 29.984375 -1.421875 
Q 24.8125 -1.421875 18.96875 -0.25 
Q 13.140625 0.921875 6.890625 3.21875 
L 6.890625 13.375 
Q 12.890625 10.015625 18.65625 8.296875 
Q 24.421875 6.59375 29.984375 6.59375 
Q 38.421875 6.59375 43.015625 9.90625 
Q 47.609375 13.234375 47.609375 19.390625 
Q 47.609375 24.75 44.3125 27.78125 
Q 41.015625 30.8125 33.5 32.328125 
L 27.484375 33.5 
Q 16.453125 35.6875 11.515625 40.375 
Q 6.59375 45.0625 6.59375 53.421875 
Q 6.59375 63.09375 13.40625 68.65625 
Q 20.21875 74.21875 32.171875 74.21875 
Q 37.3125 74.21875 42.625 73.28125 
Q 47.953125 72.359375 53.515625 70.515625 
z
" id="DejaVuSans-83"/>
      <path d="M 9.421875 54.6875 
L 18.40625 54.6875 
L 18.40625 0 
L 9.421875 0 
z
M 9.421875 75.984375 
L 18.40625 75.984375 
L 18.40625 64.59375 
L 9.421875 64.59375 
z
" id="DejaVuSans-105"/>
      <path d="M 5.515625 54.6875 
L 48.1875 54.6875 
L 48.1875 46.484375 
L 14.40625 7.171875 
L 48.1875 7.171875 
L 48.1875 0 
L 4.296875 0 
L 4.296875 8.203125 
L 38.09375 47.515625 
L 5.515625 47.515625 
z
" id="DejaVuSans-122"/>
      <path d="M 31 75.875 
Q 24.46875 64.65625 21.28125 53.65625 
Q 18.109375 42.671875 18.109375 31.390625 
Q 18.109375 20.125 21.3125 9.0625 
Q 24.515625 -2 31 -13.1875 
L 23.1875 -13.1875 
Q 15.875 -1.703125 12.234375 9.375 
Q 8.59375 20.453125 8.59375 31.390625 
Q 8.59375 42.28125 12.203125 53.3125 
Q 15.828125 64.359375 23.1875 75.875 
z
" id="DejaVuSans-40"/>
      <path d="M 8.59375 75.984375 
L 29.296875 75.984375 
L 29.296875 69 
L 17.578125 69 
L 17.578125 -6.203125 
L 29.296875 -6.203125 
L 29.296875 -13.1875 
L 8.59375 -13.1875 
z
" id="DejaVuSans-91"/>
      <path d="M 11.71875 12.40625 
L 22.015625 12.40625 
L 22.015625 4 
L 14.015625 -11.625 
L 7.71875 -11.625 
L 11.71875 4 
z
" id="DejaVuSans-44"/>
      <path d="M 30.421875 75.984375 
L 30.421875 -13.1875 
L 9.71875 -13.1875 
L 9.71875 -6.203125 
L 21.390625 -6.203125 
L 21.390625 69 
L 9.71875 69 
L 9.71875 75.984375 
z
" id="DejaVuSans-93"/>
      <path d="M 8.015625 75.875 
L 15.828125 75.875 
Q 23.140625 64.359375 26.78125 53.3125 
Q 30.421875 42.28125 30.421875 31.390625 
Q 30.421875 20.453125 26.78125 9.375 
Q 23.140625 -1.703125 15.828125 -13.1875 
L 8.015625 -13.1875 
Q 14.5 -2 17.703125 9.0625 
Q 20.90625 20.125 20.90625 31.390625 
Q 20.90625 42.671875 17.703125 53.65625 
Q 14.5 64.65625 8.015625 75.875 
z
" id="DejaVuSans-41"/>
      <path d="M 8.6875 72.90625 
L 18.609375 72.90625 
L 18.609375 28.609375 
Q 18.609375 16.890625 22.84375 11.734375 
Q 27.09375 6.59375 36.625 6.59375 
Q 46.09375 6.59375 50.34375 11.734375 
Q 54.59375 16.890625 54.59375 28.609375 
L 54.59375 72.90625 
L 64.5 72.90625 
L 64.5 27.390625 
Q 64.5 13.140625 57.4375 5.859375 
Q 50.390625 -1.421875 36.625 -1.421875 
Q 22.796875 -1.421875 15.734375 5.859375 
Q 8.6875 13.140625 8.6875 27.390625 
z
" id="DejaVuSans-85"/>
      <path d="M 54.890625 33.015625 
L 54.890625 0 
L 45.90625 0 
L 45.90625 32.71875 
Q 45.90625 40.484375 42.875 44.328125 
Q 39.84375 48.1875 33.796875 48.1875 
Q 26.515625 48.1875 22.3125 43.546875 
Q 18.109375 38.921875 18.109375 30.90625 
L 18.109375 0 
L 9.078125 0 
L 9.078125 54.6875 
L 18.109375 54.6875 
L 18.109375 46.1875 
Q 21.34375 51.125 25.703125 53.5625 
Q 30.078125 56 35.796875 56 
Q 45.21875 56 50.046875 50.171875 
Q 54.890625 44.34375 54.890625 33.015625 
z
" id="DejaVuSans-110"/>
      <path d="M 37.109375 75.984375 
L 37.109375 68.5 
L 28.515625 68.5 
Q 23.6875 68.5 21.796875 66.546875 
Q 19.921875 64.59375 19.921875 59.515625 
L 19.921875 54.6875 
L 34.71875 54.6875 
L 34.71875 47.703125 
L 19.921875 47.703125 
L 19.921875 0 
L 10.890625 0 
L 10.890625 47.703125 
L 2.296875 47.703125 
L 2.296875 54.6875 
L 10.890625 54.6875 
L 10.890625 58.5 
Q 10.890625 67.625 15.140625 71.796875 
Q 19.390625 75.984375 28.609375 75.984375 
z
" id="DejaVuSans-102"/>
      <path d="M 52 44.1875 
Q 55.375 50.25 60.0625 53.125 
Q 64.75 56 71.09375 56 
Q 79.640625 56 84.28125 50.015625 
Q 88.921875 44.046875 88.921875 33.015625 
L 88.921875 0 
L 79.890625 0 
L 79.890625 32.71875 
Q 79.890625 40.578125 77.09375 44.375 
Q 74.3125 48.1875 68.609375 48.1875 
Q 61.625 48.1875 57.5625 43.546875 
Q 53.515625 38.921875 53.515625 30.90625 
L 53.515625 0 
L 44.484375 0 
L 44.484375 32.71875 
Q 44.484375 40.625 41.703125 44.40625 
Q 38.921875 48.1875 33.109375 48.1875 
Q 26.21875 48.1875 22.15625 43.53125 
Q 18.109375 38.875 18.109375 30.90625 
L 18.109375 0 
L 9.078125 0 
L 9.078125 54.6875 
L 18.109375 54.6875 
L 18.109375 46.1875 
Q 21.1875 51.21875 25.484375 53.609375 
Q 29.78125 56 35.6875 56 
Q 41.65625 56 45.828125 52.96875 
Q 50 49.953125 52 44.1875 
z
" id="DejaVuSans-109"/>
      <path d="M 45.40625 27.984375 
Q 45.40625 37.75 41.375 43.109375 
Q 37.359375 48.484375 30.078125 48.484375 
Q 22.859375 48.484375 18.828125 43.109375 
Q 14.796875 37.75 14.796875 27.984375 
Q 14.796875 18.265625 18.828125 12.890625 
Q 22.859375 7.515625 30.078125 7.515625 
Q 37.359375 7.515625 41.375 12.890625 
Q 45.40625 18.265625 45.40625 27.984375 
z
M 54.390625 6.78125 
Q 54.390625 -7.171875 48.1875 -13.984375 
Q 42 -20.796875 29.203125 -20.796875 
Q 24.46875 -20.796875 20.265625 -20.09375 
Q 16.0625 -19.390625 12.109375 -17.921875 
L 12.109375 -9.1875 
Q 16.0625 -11.328125 19.921875 -12.34375 
Q 23.78125 -13.375 27.78125 -13.375 
Q 36.625 -13.375 41.015625 -8.765625 
Q 45.40625 -4.15625 45.40625 5.171875 
L 45.40625 9.625 
Q 42.625 4.78125 38.28125 2.390625 
Q 33.9375 0 27.875 0 
Q 17.828125 0 11.671875 7.65625 
Q 5.515625 15.328125 5.515625 27.984375 
Q 5.515625 40.671875 11.671875 48.328125 
Q 17.828125 56 27.875 56 
Q 33.9375 56 38.28125 53.609375 
Q 42.625 51.21875 45.40625 46.390625 
L 45.40625 54.6875 
L 54.390625 54.6875 
z
" id="DejaVuSans-103"/>
     </defs>
     <use xlink:href="#DejaVuSans-56"/>
     <use x="63.623047" xlink:href="#DejaVuSans-116"/>
     <use x="102.832031" xlink:href="#DejaVuSans-104"/>
     <use x="166.210938" xlink:href="#DejaVuSans-32"/>
     <use x="197.998047" xlink:href="#DejaVuSans-108"/>
     <use x="225.78125" xlink:href="#DejaVuSans-97"/>
     <use x="287.060547" xlink:href="#DejaVuSans-121"/>
     <use x="346.240234" xlink:href="#DejaVuSans-101"/>
     <use x="407.763672" xlink:href="#DejaVuSans-114"/>
     <use x="448.876953" xlink:href="#DejaVuSans-39"/>
     <use x="476.367188" xlink:href="#DejaVuSans-115"/>
     <use x="528.466797" xlink:href="#DejaVuSans-32"/>
     <use x="560.253906" xlink:href="#DejaVuSans-115"/>
     <use x="612.353516" xlink:href="#DejaVuSans-104"/>
     <use x="675.732422" xlink:href="#DejaVuSans-97"/>
     <use x="737.011719" xlink:href="#DejaVuSans-112"/>
     <use x="800.488281" xlink:href="#DejaVuSans-101"/>
     <use x="862.011719" xlink:href="#DejaVuSans-58"/>
     <use x="895.703125" xlink:href="#DejaVuSans-32"/>
     <use x="927.490234" xlink:href="#DejaVuSans-116"/>
     <use x="966.699219" xlink:href="#DejaVuSans-111"/>
     <use x="1027.880859" xlink:href="#DejaVuSans-114"/>
     <use x="1066.744141" xlink:href="#DejaVuSans-99"/>
     <use x="1121.724609" xlink:href="#DejaVuSans-104"/>
     <use x="1185.103516" xlink:href="#DejaVuSans-46"/>
     <use x="1216.890625" xlink:href="#DejaVuSans-83"/>
     <use x="1280.367188" xlink:href="#DejaVuSans-105"/>
     <use x="1308.150391" xlink:href="#DejaVuSans-122"/>
     <use x="1360.640625" xlink:href="#DejaVuSans-101"/>
     <use x="1422.164062" xlink:href="#DejaVuSans-40"/>
     <use x="1461.177734" xlink:href="#DejaVuSans-91"/>
     <use x="1500.191406" xlink:href="#DejaVuSans-49"/>
     <use x="1563.814453" xlink:href="#DejaVuSans-44"/>
     <use x="1595.601562" xlink:href="#DejaVuSans-32"/>
     <use x="1627.388672" xlink:href="#DejaVuSans-50"/>
     <use x="1691.011719" xlink:href="#DejaVuSans-53"/>
     <use x="1754.634766" xlink:href="#DejaVuSans-54"/>
     <use x="1818.257812" xlink:href="#DejaVuSans-44"/>
     <use x="1850.044922" xlink:href="#DejaVuSans-32"/>
     <use x="1881.832031" xlink:href="#DejaVuSans-54"/>
     <use x="1945.455078" xlink:href="#DejaVuSans-52"/>
     <use x="2009.078125" xlink:href="#DejaVuSans-93"/>
     <use x="2048.091797" xlink:href="#DejaVuSans-41"/>
     <use x="2087.105469" xlink:href="#DejaVuSans-46"/>
     <use x="2118.892578" xlink:href="#DejaVuSans-32"/>
     <use x="2150.679688" xlink:href="#DejaVuSans-85"/>
     <use x="2223.873047" xlink:href="#DejaVuSans-110"/>
     <use x="2287.251953" xlink:href="#DejaVuSans-105"/>
     <use x="2315.035156" xlink:href="#DejaVuSans-102"/>
     <use x="2350.240234" xlink:href="#DejaVuSans-111"/>
     <use x="2411.421875" xlink:href="#DejaVuSans-114"/>
     <use x="2450.785156" xlink:href="#DejaVuSans-109"/>
     <use x="2548.197266" xlink:href="#DejaVuSans-108"/>
     <use x="2575.980469" xlink:href="#DejaVuSans-121"/>
     <use x="2635.160156" xlink:href="#DejaVuSans-32"/>
     <use x="2666.947266" xlink:href="#DejaVuSans-115"/>
     <use x="2719.046875" xlink:href="#DejaVuSans-97"/>
     <use x="2780.326172" xlink:href="#DejaVuSans-109"/>
     <use x="2877.738281" xlink:href="#DejaVuSans-112"/>
     <use x="2941.214844" xlink:href="#DejaVuSans-108"/>
     <use x="2968.998047" xlink:href="#DejaVuSans-105"/>
     <use x="2996.78125" xlink:href="#DejaVuSans-110"/>
     <use x="3060.160156" xlink:href="#DejaVuSans-103"/>
     <use x="3123.636719" xlink:href="#DejaVuSans-32"/>
     <use x="3155.423828" xlink:href="#DejaVuSans-49"/>
     <use x="3219.046875" xlink:href="#DejaVuSans-54"/>
     <use x="3282.669922" xlink:href="#DejaVuSans-32"/>
     <use x="3314.457031" xlink:href="#DejaVuSans-99"/>
     <use x="3369.4375" xlink:href="#DejaVuSans-104"/>
     <use x="3432.816406" xlink:href="#DejaVuSans-97"/>
     <use x="3494.095703" xlink:href="#DejaVuSans-110"/>
     <use x="3557.474609" xlink:href="#DejaVuSans-110"/>
     <use x="3620.853516" xlink:href="#DejaVuSans-101"/>
     <use x="3682.376953" xlink:href="#DejaVuSans-108"/>
     <use x="3710.160156" xlink:href="#DejaVuSans-115"/>
    </g>
   </g>
  </g>
 </g>
 <defs>
  <clipPath id="p35f962d162">
   <rect height="266.112" width="892.8" x="144" y="41.472"/>
  </clipPath>
 </defs>
</svg>
