<?xml version="1.0" encoding="utf-8" standalone="no"?>
<!DOCTYPE svg PUBLIC "-//W3C//DTD SVG 1.1//EN"
  "http://www.w3.org/Graphics/SVG/1.1/DTD/svg11.dtd">
<!-- Created with matplotlib (https://matplotlib.org/) -->
<svg height="345.6pt" version="1.1" viewBox="0 0 1152 345.6" width="1152pt" xmlns="http://www.w3.org/2000/svg" xmlns:xlink="http://www.w3.org/1999/xlink">
 <metadata>
  <rdf:RDF xmlns:cc="http://creativecommons.org/ns#" xmlns:dc="http://purl.org/dc/elements/1.1/" xmlns:rdf="http://www.w3.org/1999/02/22-rdf-syntax-ns#">
   <cc:Work>
    <dc:type rdf:resource="http://purl.org/dc/dcmitype/StillImage"/>
    <dc:date>2021-12-24T07:21:03.191705</dc:date>
    <dc:format>image/svg+xml</dc:format>
    <dc:creator>
     <cc:Agent>
      <dc:title>Matplotlib v3.3.3, https://matplotlib.org/</dc:title>
     </cc:Agent>
    </dc:creator>
   </cc:Work>
  </rdf:RDF>
 </metadata>
 <defs>
  <style type="text/css">*{stroke-linecap:butt;stroke-linejoin:round;}</style>
 </defs>
 <g id="figure_1">
  <g id="patch_1">
   <path d="M 0 345.6 
L 1152 345.6 
L 1152 0 
L 0 0 
z
" style="fill:#ffffff;"/>
  </g>
  <g id="axes_1">
   <g id="patch_2">
    <path d="M 144 307.584 
L 1036.8 307.584 
L 1036.8 41.472 
L 144 41.472 
z
" style="fill:#ffffff;"/>
   </g>
   <g id="matplotlib.axis_1">
    <g id="xtick_1">
     <g id="line2d_1">
      <defs>
       <path d="M 0 0 
L 0 3.5 
" id="mdd3d00e6ef" style="stroke:#000000;stroke-width:0.8;"/>
      </defs>
      <g>
       <use style="stroke:#000000;stroke-width:0.8;" x="184.581818" xlink:href="#mdd3d00e6ef" y="307.584"/>
      </g>
     </g>
     <g id="text_1">
      <!-- 0 -->
      <g transform="translate(181.400568 322.182437)scale(0.1 -0.1)">
       <defs>
        <path d="M 31.78125 66.40625 
Q 24.171875 66.40625 20.328125 58.90625 
Q 16.5 51.421875 16.5 36.375 
Q 16.5 21.390625 20.328125 13.890625 
Q 24.171875 6.390625 31.78125 6.390625 
Q 39.453125 6.390625 43.28125 13.890625 
Q 47.125 21.390625 47.125 36.375 
Q 47.125 51.421875 43.28125 58.90625 
Q 39.453125 66.40625 31.78125 66.40625 
z
M 31.78125 74.21875 
Q 44.046875 74.21875 50.515625 64.515625 
Q 56.984375 54.828125 56.984375 36.375 
Q 56.984375 17.96875 50.515625 8.265625 
Q 44.046875 -1.421875 31.78125 -1.421875 
Q 19.53125 -1.421875 13.0625 8.265625 
Q 6.59375 17.96875 6.59375 36.375 
Q 6.59375 54.828125 13.0625 64.515625 
Q 19.53125 74.21875 31.78125 74.21875 
z
" id="DejaVuSans-48"/>
       </defs>
       <use xlink:href="#DejaVuSans-48"/>
      </g>
     </g>
    </g>
    <g id="xtick_2">
     <g id="line2d_2">
      <g>
       <use style="stroke:#000000;stroke-width:0.8;" x="343.259504" xlink:href="#mdd3d00e6ef" y="307.584"/>
      </g>
     </g>
     <g id="text_2">
      <!-- 200 -->
      <g transform="translate(333.715754 322.182437)scale(0.1 -0.1)">
       <defs>
        <path d="M 19.1875 8.296875 
L 53.609375 8.296875 
L 53.609375 0 
L 7.328125 0 
L 7.328125 8.296875 
Q 12.9375 14.109375 22.625 23.890625 
Q 32.328125 33.6875 34.8125 36.53125 
Q 39.546875 41.84375 41.421875 45.53125 
Q 43.3125 49.21875 43.3125 52.78125 
Q 43.3125 58.59375 39.234375 62.25 
Q 35.15625 65.921875 28.609375 65.921875 
Q 23.96875 65.921875 18.8125 64.3125 
Q 13.671875 62.703125 7.8125 59.421875 
L 7.8125 69.390625 
Q 13.765625 71.78125 18.9375 73 
Q 24.125 74.21875 28.421875 74.21875 
Q 39.75 74.21875 46.484375 68.546875 
Q 53.21875 62.890625 53.21875 53.421875 
Q 53.21875 48.921875 51.53125 44.890625 
Q 49.859375 40.875 45.40625 35.40625 
Q 44.1875 33.984375 37.640625 27.21875 
Q 31.109375 20.453125 19.1875 8.296875 
z
" id="DejaVuSans-50"/>
       </defs>
       <use xlink:href="#DejaVuSans-50"/>
       <use x="63.623047" xlink:href="#DejaVuSans-48"/>
       <use x="127.246094" xlink:href="#DejaVuSans-48"/>
      </g>
     </g>
    </g>
    <g id="xtick_3">
     <g id="line2d_3">
      <g>
       <use style="stroke:#000000;stroke-width:0.8;" x="501.93719" xlink:href="#mdd3d00e6ef" y="307.584"/>
      </g>
     </g>
     <g id="text_3">
      <!-- 400 -->
      <g transform="translate(492.39344 322.182437)scale(0.1 -0.1)">
       <defs>
        <path d="M 37.796875 64.3125 
L 12.890625 25.390625 
L 37.796875 25.390625 
z
M 35.203125 72.90625 
L 47.609375 72.90625 
L 47.609375 25.390625 
L 58.015625 25.390625 
L 58.015625 17.1875 
L 47.609375 17.1875 
L 47.609375 0 
L 37.796875 0 
L 37.796875 17.1875 
L 4.890625 17.1875 
L 4.890625 26.703125 
z
" id="DejaVuSans-52"/>
       </defs>
       <use xlink:href="#DejaVuSans-52"/>
       <use x="63.623047" xlink:href="#DejaVuSans-48"/>
       <use x="127.246094" xlink:href="#DejaVuSans-48"/>
      </g>
     </g>
    </g>
    <g id="xtick_4">
     <g id="line2d_4">
      <g>
       <use style="stroke:#000000;stroke-width:0.8;" x="660.614876" xlink:href="#mdd3d00e6ef" y="307.584"/>
      </g>
     </g>
     <g id="text_4">
      <!-- 600 -->
      <g transform="translate(651.071126 322.182437)scale(0.1 -0.1)">
       <defs>
        <path d="M 33.015625 40.375 
Q 26.375 40.375 22.484375 35.828125 
Q 18.609375 31.296875 18.609375 23.390625 
Q 18.609375 15.53125 22.484375 10.953125 
Q 26.375 6.390625 33.015625 6.390625 
Q 39.65625 6.390625 43.53125 10.953125 
Q 47.40625 15.53125 47.40625 23.390625 
Q 47.40625 31.296875 43.53125 35.828125 
Q 39.65625 40.375 33.015625 40.375 
z
M 52.59375 71.296875 
L 52.59375 62.3125 
Q 48.875 64.0625 45.09375 64.984375 
Q 41.3125 65.921875 37.59375 65.921875 
Q 27.828125 65.921875 22.671875 59.328125 
Q 17.53125 52.734375 16.796875 39.40625 
Q 19.671875 43.65625 24.015625 45.921875 
Q 28.375 48.1875 33.59375 48.1875 
Q 44.578125 48.1875 50.953125 41.515625 
Q 57.328125 34.859375 57.328125 23.390625 
Q 57.328125 12.15625 50.6875 5.359375 
Q 44.046875 -1.421875 33.015625 -1.421875 
Q 20.359375 -1.421875 13.671875 8.265625 
Q 6.984375 17.96875 6.984375 36.375 
Q 6.984375 53.65625 15.1875 63.9375 
Q 23.390625 74.21875 37.203125 74.21875 
Q 40.921875 74.21875 44.703125 73.484375 
Q 48.484375 72.75 52.59375 71.296875 
z
" id="DejaVuSans-54"/>
       </defs>
       <use xlink:href="#DejaVuSans-54"/>
       <use x="63.623047" xlink:href="#DejaVuSans-48"/>
       <use x="127.246094" xlink:href="#DejaVuSans-48"/>
      </g>
     </g>
    </g>
    <g id="xtick_5">
     <g id="line2d_5">
      <g>
       <use style="stroke:#000000;stroke-width:0.8;" x="819.292562" xlink:href="#mdd3d00e6ef" y="307.584"/>
      </g>
     </g>
     <g id="text_5">
      <!-- 800 -->
      <g transform="translate(809.748812 322.182437)scale(0.1 -0.1)">
       <defs>
        <path d="M 31.78125 34.625 
Q 24.75 34.625 20.71875 30.859375 
Q 16.703125 27.09375 16.703125 20.515625 
Q 16.703125 13.921875 20.71875 10.15625 
Q 24.75 6.390625 31.78125 6.390625 
Q 38.8125 6.390625 42.859375 10.171875 
Q 46.921875 13.96875 46.921875 20.515625 
Q 46.921875 27.09375 42.890625 30.859375 
Q 38.875 34.625 31.78125 34.625 
z
M 21.921875 38.8125 
Q 15.578125 40.375 12.03125 44.71875 
Q 8.5 49.078125 8.5 55.328125 
Q 8.5 64.0625 14.71875 69.140625 
Q 20.953125 74.21875 31.78125 74.21875 
Q 42.671875 74.21875 48.875 69.140625 
Q 55.078125 64.0625 55.078125 55.328125 
Q 55.078125 49.078125 51.53125 44.71875 
Q 48 40.375 41.703125 38.8125 
Q 48.828125 37.15625 52.796875 32.3125 
Q 56.78125 27.484375 56.78125 20.515625 
Q 56.78125 9.90625 50.3125 4.234375 
Q 43.84375 -1.421875 31.78125 -1.421875 
Q 19.734375 -1.421875 13.25 4.234375 
Q 6.78125 9.90625 6.78125 20.515625 
Q 6.78125 27.484375 10.78125 32.3125 
Q 14.796875 37.15625 21.921875 38.8125 
z
M 18.3125 54.390625 
Q 18.3125 48.734375 21.84375 45.5625 
Q 25.390625 42.390625 31.78125 42.390625 
Q 38.140625 42.390625 41.71875 45.5625 
Q 45.3125 48.734375 45.3125 54.390625 
Q 45.3125 60.0625 41.71875 63.234375 
Q 38.140625 66.40625 31.78125 66.40625 
Q 25.390625 66.40625 21.84375 63.234375 
Q 18.3125 60.0625 18.3125 54.390625 
z
" id="DejaVuSans-56"/>
       </defs>
       <use xlink:href="#DejaVuSans-56"/>
       <use x="63.623047" xlink:href="#DejaVuSans-48"/>
       <use x="127.246094" xlink:href="#DejaVuSans-48"/>
      </g>
     </g>
    </g>
    <g id="xtick_6">
     <g id="line2d_6">
      <g>
       <use style="stroke:#000000;stroke-width:0.8;" x="977.970248" xlink:href="#mdd3d00e6ef" y="307.584"/>
      </g>
     </g>
     <g id="text_6">
      <!-- 1000 -->
      <g transform="translate(965.245248 322.182437)scale(0.1 -0.1)">
       <defs>
        <path d="M 12.40625 8.296875 
L 28.515625 8.296875 
L 28.515625 63.921875 
L 10.984375 60.40625 
L 10.984375 69.390625 
L 28.421875 72.90625 
L 38.28125 72.90625 
L 38.28125 8.296875 
L 54.390625 8.296875 
L 54.390625 0 
L 12.40625 0 
z
" id="DejaVuSans-49"/>
       </defs>
       <use xlink:href="#DejaVuSans-49"/>
       <use x="63.623047" xlink:href="#DejaVuSans-48"/>
       <use x="127.246094" xlink:href="#DejaVuSans-48"/>
       <use x="190.869141" xlink:href="#DejaVuSans-48"/>
      </g>
     </g>
    </g>
   </g>
   <g id="matplotlib.axis_2">
    <g id="ytick_1">
     <g id="line2d_7">
      <defs>
       <path d="M 0 0 
L -3.5 0 
" id="m9a21443872" style="stroke:#000000;stroke-width:0.8;"/>
      </defs>
      <g>
       <use style="stroke:#000000;stroke-width:0.8;" x="144" xlink:href="#m9a21443872" y="264.951137"/>
      </g>
     </g>
     <g id="text_7">
      <!-- −0.4 -->
      <g transform="translate(112.717187 268.750356)scale(0.1 -0.1)">
       <defs>
        <path d="M 10.59375 35.5 
L 73.1875 35.5 
L 73.1875 27.203125 
L 10.59375 27.203125 
z
" id="DejaVuSans-8722"/>
        <path d="M 10.6875 12.40625 
L 21 12.40625 
L 21 0 
L 10.6875 0 
z
" id="DejaVuSans-46"/>
       </defs>
       <use xlink:href="#DejaVuSans-8722"/>
       <use x="83.789062" xlink:href="#DejaVuSans-48"/>
       <use x="147.412109" xlink:href="#DejaVuSans-46"/>
       <use x="179.199219" xlink:href="#DejaVuSans-52"/>
      </g>
     </g>
    </g>
    <g id="ytick_2">
     <g id="line2d_8">
      <g>
       <use style="stroke:#000000;stroke-width:0.8;" x="144" xlink:href="#m9a21443872" y="219.742068"/>
      </g>
     </g>
     <g id="text_8">
      <!-- −0.2 -->
      <g transform="translate(112.717187 223.541287)scale(0.1 -0.1)">
       <use xlink:href="#DejaVuSans-8722"/>
       <use x="83.789062" xlink:href="#DejaVuSans-48"/>
       <use x="147.412109" xlink:href="#DejaVuSans-46"/>
       <use x="179.199219" xlink:href="#DejaVuSans-50"/>
      </g>
     </g>
    </g>
    <g id="ytick_3">
     <g id="line2d_9">
      <g>
       <use style="stroke:#000000;stroke-width:0.8;" x="144" xlink:href="#m9a21443872" y="174.532999"/>
      </g>
     </g>
     <g id="text_9">
      <!-- 0.0 -->
      <g transform="translate(121.096875 178.332217)scale(0.1 -0.1)">
       <use xlink:href="#DejaVuSans-48"/>
       <use x="63.623047" xlink:href="#DejaVuSans-46"/>
       <use x="95.410156" xlink:href="#DejaVuSans-48"/>
      </g>
     </g>
    </g>
    <g id="ytick_4">
     <g id="line2d_10">
      <g>
       <use style="stroke:#000000;stroke-width:0.8;" x="144" xlink:href="#m9a21443872" y="129.323929"/>
      </g>
     </g>
     <g id="text_10">
      <!-- 0.2 -->
      <g transform="translate(121.096875 133.123148)scale(0.1 -0.1)">
       <use xlink:href="#DejaVuSans-48"/>
       <use x="63.623047" xlink:href="#DejaVuSans-46"/>
       <use x="95.410156" xlink:href="#DejaVuSans-50"/>
      </g>
     </g>
    </g>
    <g id="ytick_5">
     <g id="line2d_11">
      <g>
       <use style="stroke:#000000;stroke-width:0.8;" x="144" xlink:href="#m9a21443872" y="84.11486"/>
      </g>
     </g>
     <g id="text_11">
      <!-- 0.4 -->
      <g transform="translate(121.096875 87.914079)scale(0.1 -0.1)">
       <use xlink:href="#DejaVuSans-48"/>
       <use x="63.623047" xlink:href="#DejaVuSans-46"/>
       <use x="95.410156" xlink:href="#DejaVuSans-52"/>
      </g>
     </g>
    </g>
   </g>
   <g id="line2d_12">
    <path clip-path="url(#pc52505e5cf)" d="M 184.581818 178.542212 
L 186.168595 166.619823 
L 186.961983 166.232622 
L 187.755372 165.379104 
L 188.54876 163.732467 
L 189.342149 161.80903 
L 190.135537 157.436593 
L 190.928926 153.776715 
L 191.722314 154.947436 
L 192.515702 152.544657 
L 193.309091 146.101399 
L 194.102479 142.386913 
L 194.895868 140.271058 
L 195.689256 138.500966 
L 196.482645 138.328891 
L 197.276033 135.099096 
L 198.069421 133.266407 
L 198.86281 131.971109 
L 199.656198 130.197524 
L 200.449587 130.888865 
L 201.242975 128.520546 
L 202.036364 124.407819 
L 202.829752 121.342972 
L 203.62314 120.006934 
L 204.416529 119.324754 
L 206.003306 115.388383 
L 206.796694 112.738518 
L 207.590083 110.714302 
L 208.383471 109.633766 
L 209.17686 107.422182 
L 209.970248 103.511757 
L 210.763636 102.390916 
L 211.557025 102.142562 
L 213.93719 97.965546 
L 214.730579 95.793662 
L 215.523967 94.474668 
L 216.317355 91.835252 
L 217.110744 87.326441 
L 217.904132 84.612949 
L 218.697521 85.530417 
L 219.490909 84.199701 
L 221.077686 78.022377 
L 221.871074 76.742153 
L 222.664463 76.915771 
L 223.457851 77.882221 
L 224.25124 76.954682 
L 225.044628 76.652447 
L 225.838017 76.551943 
L 226.631405 75.396744 
L 227.424793 72.524488 
L 228.218182 70.548904 
L 229.01157 70.220053 
L 229.804959 69.386511 
L 230.598347 66.832293 
L 232.185124 64.60634 
L 232.978512 64.337338 
L 234.565289 61.543032 
L 235.358678 60.652828 
L 236.152066 61.211622 
L 236.945455 61.966628 
L 237.738843 63.527381 
L 238.532231 64.036054 
L 239.32562 63.42111 
L 240.912397 58.842844 
L 241.705785 58.385963 
L 242.499174 58.089576 
L 243.292562 56.295694 
L 244.879339 55.755075 
L 245.672727 55.807339 
L 246.466116 55.727078 
L 247.259504 55.886966 
L 248.052893 55.243573 
L 248.846281 55.557906 
L 249.639669 56.873054 
L 250.433058 59.471484 
L 251.226446 61.121593 
L 252.019835 62.003403 
L 252.813223 60.630812 
L 253.606612 59.865553 
L 254.4 60.481231 
L 255.193388 60.552613 
L 255.986777 58.700027 
L 256.780165 58.741633 
L 257.573554 59.419342 
L 258.366942 60.939635 
L 259.160331 60.928492 
L 259.953719 60.594798 
L 260.747107 60.457814 
L 261.540496 62.040031 
L 262.333884 63.901482 
L 263.127273 67.366747 
L 263.920661 70.05683 
L 264.71405 72.200986 
L 266.300826 72.176438 
L 267.094215 72.748503 
L 267.887603 73.51191 
L 268.680992 73.133699 
L 270.267769 74.873998 
L 271.061157 76.427254 
L 271.854545 77.420125 
L 272.647934 79.16929 
L 273.441322 81.337826 
L 274.234711 84.103932 
L 275.028099 85.243104 
L 275.821488 87.129447 
L 276.614876 89.437749 
L 277.408264 92.815357 
L 278.201653 94.62336 
L 279.78843 94.607266 
L 280.581818 95.894456 
L 281.375207 98.041704 
L 282.168595 101.391759 
L 282.961983 102.098308 
L 283.755372 102.219838 
L 284.54876 103.261699 
L 286.928926 110.482688 
L 287.722314 111.119008 
L 290.102479 119.823881 
L 290.895868 121.389364 
L 291.689256 122.060007 
L 292.482645 124.430724 
L 293.276033 127.361582 
L 294.86281 130.724824 
L 295.656198 133.108435 
L 296.449587 136.850443 
L 297.242975 139.790245 
L 298.036364 141.360662 
L 298.829752 142.479873 
L 300.416529 145.819809 
L 301.209917 148.509804 
L 302.003306 150.227384 
L 302.796694 152.847788 
L 304.383471 159.033294 
L 305.17686 161.653496 
L 305.970248 163.470769 
L 306.763636 164.762261 
L 307.557025 167.07689 
L 310.730579 174.800537 
L 312.317355 179.222259 
L 313.110744 180.76374 
L 314.697521 185.281445 
L 316.284298 191.693994 
L 317.077686 194.220526 
L 318.664463 200.88275 
L 321.838017 210.240495 
L 323.424793 213.932696 
L 325.01157 218.432482 
L 325.804959 219.921507 
L 326.598347 219.973426 
L 327.391736 220.373096 
L 328.185124 222.733193 
L 330.565289 232.409927 
L 331.358678 234.241898 
L 334.532231 243.510723 
L 335.32562 245.59055 
L 336.912397 248.478254 
L 337.705785 249.677207 
L 338.499174 250.087652 
L 339.292562 249.350478 
L 340.08595 249.997111 
L 341.672727 254.753649 
L 342.466116 256.37669 
L 343.259504 259.194015 
L 344.052893 261.476711 
L 344.846281 264.607447 
L 345.639669 266.372025 
L 348.019835 270.444251 
L 348.813223 270.833429 
L 351.193388 272.744846 
L 352.780165 270.788886 
L 353.573554 271.388295 
L 355.953719 278.489352 
L 357.540496 283.748567 
L 358.333884 284.405965 
L 359.127273 284.837874 
L 359.920661 285.509649 
L 360.71405 287.31881 
L 361.507438 288.796379 
L 362.300826 289.756894 
L 363.094215 290.219219 
L 363.887603 290.106716 
L 365.47438 284.509306 
L 366.267769 283.999623 
L 367.854545 288.14028 
L 368.647934 290.281412 
L 369.441322 291.246319 
L 370.234711 292.660698 
L 371.028099 293.656729 
L 371.821488 294.910074 
L 372.614876 295.355207 
L 373.408264 295.488 
L 374.201653 293.870039 
L 374.995041 291.793041 
L 375.78843 290.358196 
L 376.581818 290.421696 
L 378.168595 287.082305 
L 378.961983 286.415287 
L 379.755372 286.962089 
L 380.54876 287.287552 
L 381.342149 288.185012 
L 382.135537 288.184891 
L 382.928926 288.846742 
L 384.515702 287.247698 
L 385.309091 285.934383 
L 386.102479 285.77535 
L 386.895868 285.108149 
L 387.689256 284.137098 
L 388.482645 282.81262 
L 389.276033 282.361135 
L 390.86281 276.496798 
L 391.656198 274.828568 
L 392.449587 274.436311 
L 393.242975 274.319598 
L 394.036364 274.959043 
L 394.829752 274.368284 
L 395.62314 274.366681 
L 397.209917 271.453048 
L 398.003306 269.303287 
L 398.796694 268.666449 
L 399.590083 267.336541 
L 400.383471 265.76829 
L 401.17686 264.676989 
L 401.970248 263.880633 
L 405.143802 251.111297 
L 405.93719 250.030189 
L 406.730579 249.565883 
L 407.523967 247.833352 
L 408.317355 246.877626 
L 409.904132 243.743118 
L 410.697521 241.570951 
L 412.284298 239.018108 
L 413.077686 237.365015 
L 414.664463 233.41357 
L 415.457851 229.669437 
L 418.631405 218.765362 
L 420.218182 215.524636 
L 421.01157 214.36547 
L 422.598347 209.61867 
L 423.391736 206.655553 
L 424.185124 204.660769 
L 424.978512 203.057912 
L 426.565289 198.157434 
L 427.358678 197.30927 
L 428.152066 194.926152 
L 428.945455 193.007975 
L 429.738843 190.032632 
L 430.532231 186.550854 
L 431.32562 184.228261 
L 432.119008 183.463466 
L 432.912397 182.195032 
L 433.705785 180.104775 
L 435.292562 173.628538 
L 436.08595 170.991429 
L 438.466116 165.027065 
L 439.259504 163.435216 
L 440.052893 163.239046 
L 440.846281 161.482495 
L 441.639669 158.834673 
L 442.433058 155.585132 
L 443.226446 152.87001 
L 444.813223 149.795917 
L 445.606612 147.00302 
L 447.986777 137.511358 
L 449.573554 132.529536 
L 451.160331 130.054659 
L 452.747107 128.633935 
L 453.540496 127.466051 
L 454.333884 126.023648 
L 455.127273 123.493699 
L 455.920661 120.039202 
L 456.71405 117.20961 
L 458.300826 111.054349 
L 459.094215 108.501438 
L 461.47438 104.028878 
L 462.267769 101.384969 
L 463.854545 97.153298 
L 464.647934 95.711966 
L 465.441322 94.73919 
L 466.234711 94.549809 
L 467.028099 94.233609 
L 467.821488 92.85472 
L 468.614876 90.503256 
L 469.408264 89.307678 
L 470.201653 87.580508 
L 470.995041 85.517637 
L 472.581818 79.649352 
L 473.375207 76.890892 
L 474.961983 74.308852 
L 475.755372 73.854328 
L 476.54876 73.704087 
L 477.342149 74.132109 
L 478.135537 74.233987 
L 478.928926 74.887499 
L 479.722314 74.356878 
L 480.515702 72.10604 
L 481.309091 69.502166 
L 482.895868 67.362685 
L 483.689256 65.570352 
L 484.482645 62.894335 
L 485.276033 61.711301 
L 486.069421 61.122738 
L 486.86281 61.341451 
L 488.449587 59.586574 
L 489.242975 59.42492 
L 490.036364 60.285894 
L 490.829752 60.781983 
L 491.62314 62.441099 
L 492.416529 63.209996 
L 493.209917 62.365277 
L 494.003306 60.60811 
L 494.796694 59.465987 
L 496.383471 56.264718 
L 497.17686 54.106341 
L 497.970248 53.568 
L 498.763636 53.615763 
L 499.557025 54.220892 
L 500.350413 53.798179 
L 501.143802 54.375808 
L 503.523967 57.86096 
L 504.317355 60.624844 
L 505.110744 62.936507 
L 505.904132 64.341198 
L 507.490909 62.501729 
L 508.284298 62.31996 
L 509.077686 63.108171 
L 509.871074 62.983738 
L 510.664463 64.261456 
L 512.25124 65.615939 
L 513.044628 64.891046 
L 513.838017 64.619996 
L 514.631405 65.532209 
L 515.424793 67.953694 
L 516.218182 69.809749 
L 517.01157 72.509418 
L 517.804959 74.395115 
L 518.598347 76.835159 
L 519.391736 77.991725 
L 520.185124 78.828279 
L 520.978512 78.534479 
L 522.565289 76.7005 
L 524.945455 82.452894 
L 526.532231 83.3644 
L 527.32562 85.442489 
L 528.119008 89.101502 
L 528.912397 91.394404 
L 529.705785 94.803418 
L 531.292562 98.833452 
L 532.08595 99.861597 
L 532.879339 100.244234 
L 533.672727 100.782541 
L 535.259504 102.778558 
L 537.639669 110.275421 
L 540.019835 114.496663 
L 540.813223 116.946307 
L 541.606612 118.704973 
L 542.4 121.220519 
L 544.780165 127.15161 
L 545.573554 128.033613 
L 546.366942 129.528296 
L 547.953719 134.335137 
L 548.747107 137.889848 
L 549.540496 140.533401 
L 550.333884 142.492467 
L 551.127273 144.129685 
L 552.71405 146.981214 
L 553.507438 149.354351 
L 554.300826 151.239802 
L 555.094215 153.816565 
L 555.887603 155.62585 
L 558.267769 165.281994 
L 559.061157 168.415848 
L 559.854545 170.734124 
L 560.647934 172.530453 
L 561.441322 175.240513 
L 563.028099 179.334299 
L 563.821488 180.683581 
L 564.614876 181.76108 
L 565.408264 184.344721 
L 566.201653 187.920069 
L 566.995041 189.900093 
L 567.78843 191.482562 
L 568.581818 192.516817 
L 570.168595 198.695641 
L 570.961983 200.678034 
L 572.54876 203.300402 
L 573.342149 205.775116 
L 574.135537 209.456993 
L 574.928926 212.430555 
L 575.722314 214.125472 
L 578.102479 221.219034 
L 578.895868 222.331135 
L 579.689256 222.842273 
L 580.482645 223.510313 
L 581.276033 225.218956 
L 582.86281 232.208743 
L 583.656198 233.763877 
L 584.449587 236.186238 
L 586.036364 242.251342 
L 586.829752 244.028086 
L 587.62314 245.315169 
L 588.416529 246.109888 
L 590.796694 252.108393 
L 592.383471 252.245565 
L 593.17686 252.506375 
L 593.970248 253.707269 
L 595.557025 258.877162 
L 596.350413 259.828502 
L 597.143802 261.808526 
L 597.93719 264.471561 
L 598.730579 268.11421 
L 600.317355 273.212338 
L 601.110744 274.564092 
L 601.904132 276.144059 
L 603.490909 277.370794 
L 604.284298 277.577967 
L 605.077686 277.126684 
L 605.871074 275.612218 
L 606.664463 274.694252 
L 607.457851 275.595525 
L 608.25124 278.267917 
L 609.044628 280.178553 
L 609.838017 281.579499 
L 610.631405 282.220096 
L 611.424793 283.594917 
L 612.218182 283.539413 
L 613.01157 283.768534 
L 613.804959 284.319898 
L 615.391736 286.680254 
L 616.185124 287.711935 
L 616.978512 287.55838 
L 617.771901 286.601671 
L 618.565289 283.886702 
L 619.358678 282.308427 
L 620.152066 282.642196 
L 620.945455 284.837261 
L 622.532231 287.43528 
L 623.32562 289.833584 
L 624.119008 292.724117 
L 624.912397 293.349078 
L 625.705785 293.599925 
L 626.499174 293.618033 
L 627.292562 294.358219 
L 628.08595 294.239856 
L 628.879339 292.517476 
L 629.672727 289.58496 
L 630.466116 287.898407 
L 631.259504 284.812517 
L 632.052893 283.147601 
L 632.846281 283.002716 
L 633.639669 284.225982 
L 634.433058 285.062455 
L 635.226446 285.325751 
L 636.019835 285.161645 
L 636.813223 286.505134 
L 637.606612 286.485847 
L 638.4 286.009052 
L 639.193388 284.534252 
L 639.986777 284.396608 
L 640.780165 283.729785 
L 641.573554 282.431129 
L 643.160331 277.826025 
L 643.953719 274.581823 
L 644.747107 272.914941 
L 645.540496 272.24937 
L 646.333884 272.564047 
L 647.127273 272.74746 
L 647.920661 273.091367 
L 648.71405 272.576193 
L 649.507438 272.772958 
L 650.300826 270.785511 
L 651.094215 268.451286 
L 651.887603 266.470171 
L 652.680992 265.767489 
L 653.47438 264.512769 
L 654.267769 263.024705 
L 655.061157 260.509277 
L 655.854545 258.529523 
L 656.647934 255.853264 
L 657.441322 253.574886 
L 658.234711 250.606929 
L 659.028099 248.941953 
L 659.821488 247.782712 
L 661.408264 243.767215 
L 662.201653 242.545189 
L 662.995041 240.687645 
L 663.78843 239.318429 
L 664.581818 237.503561 
L 666.168595 235.165928 
L 666.961983 232.84133 
L 667.755372 228.883987 
L 669.342149 222.160259 
L 670.928926 218.210714 
L 671.722314 215.588547 
L 672.515702 213.786341 
L 673.309091 212.73381 
L 674.102479 211.914155 
L 674.895868 210.424561 
L 675.689256 207.287076 
L 677.276033 202.483822 
L 678.86281 198.079515 
L 680.449587 192.759903 
L 681.242975 191.025889 
L 682.036364 188.149104 
L 682.829752 185.961655 
L 683.62314 183.034147 
L 684.416529 181.034129 
L 685.209917 179.967503 
L 686.003306 178.13419 
L 687.590083 172.047601 
L 688.383471 169.198272 
L 693.93719 157.846294 
L 694.730579 155.191523 
L 695.523967 153.434394 
L 696.317355 150.828797 
L 697.904132 144.43582 
L 698.697521 141.80318 
L 700.284298 137.750702 
L 701.077686 134.730405 
L 701.871074 130.810804 
L 702.664463 127.713634 
L 703.457851 125.492067 
L 704.25124 124.677896 
L 705.838017 121.257214 
L 708.218182 118.536149 
L 709.01157 116.140883 
L 709.804959 112.526023 
L 710.598347 110.123381 
L 711.391736 108.197379 
L 712.185124 106.801404 
L 712.978512 105.092081 
L 713.771901 103.843916 
L 714.565289 102.172809 
L 716.945455 98.261771 
L 717.738843 96.023309 
L 718.532231 94.195109 
L 719.32562 92.764819 
L 720.912397 92.19557 
L 721.705785 90.984369 
L 722.499174 88.066506 
L 723.292562 85.969904 
L 724.08595 83.526471 
L 725.672727 77.295867 
L 726.466116 75.398846 
L 727.259504 73.123258 
L 728.846281 69.890441 
L 729.639669 68.685135 
L 730.433058 68.419272 
L 731.226446 68.768663 
L 732.019835 68.730001 
L 732.813223 69.970971 
L 733.606612 70.134902 
L 734.4 68.83607 
L 735.193388 66.701043 
L 735.986777 65.350029 
L 737.573554 63.537203 
L 738.366942 61.547256 
L 739.160331 60.413056 
L 741.540496 55.487522 
L 742.333884 55.160618 
L 743.127273 56.280482 
L 743.920661 57.593972 
L 744.71405 58.489789 
L 745.507438 60.556547 
L 746.300826 61.714878 
L 747.094215 61.913051 
L 748.680992 59.885372 
L 750.267769 57.687343 
L 751.061157 55.371974 
L 751.854545 54.888308 
L 752.647934 55.299245 
L 753.441322 55.57204 
L 754.234711 54.914527 
L 755.028099 55.162005 
L 755.821488 56.152283 
L 756.614876 58.190249 
L 757.408264 59.504548 
L 758.201653 61.346274 
L 758.995041 62.609286 
L 759.78843 64.325556 
L 761.375207 65.478531 
L 762.168595 64.906796 
L 762.961983 63.81177 
L 763.755372 62.513915 
L 766.135537 66.541431 
L 766.928926 65.398587 
L 767.722314 64.87062 
L 768.515702 66.142848 
L 769.309091 68.981731 
L 770.102479 70.92958 
L 770.895868 73.835816 
L 771.689256 76.164362 
L 772.482645 78.852316 
L 773.276033 80.232681 
L 774.069421 81.097286 
L 774.86281 81.049981 
L 775.656198 81.293707 
L 776.449587 81.144227 
L 777.242975 82.191868 
L 778.036364 82.635323 
L 778.829752 83.70599 
L 779.62314 84.278095 
L 780.416529 85.998959 
L 781.209917 89.155873 
L 782.003306 92.787629 
L 782.796694 94.623266 
L 785.17686 103.14568 
L 785.970248 104.363603 
L 787.557025 102.791007 
L 788.350413 104.311024 
L 789.143802 106.935949 
L 789.93719 110.328971 
L 792.317355 114.327761 
L 793.110744 116.65124 
L 793.904132 119.676537 
L 794.697521 122.026795 
L 795.490909 122.929065 
L 796.284298 125.993754 
L 798.664463 133.718084 
L 799.457851 134.982097 
L 800.25124 135.965386 
L 801.044628 137.671415 
L 801.838017 139.691155 
L 804.218182 149.124038 
L 805.804959 154.083944 
L 806.598347 157.136457 
L 807.391736 158.970675 
L 808.185124 159.465354 
L 809.771901 164.546289 
L 810.565289 168.954036 
L 811.358678 172.516924 
L 812.152066 173.752917 
L 812.945455 174.3304 
L 815.32562 180.575773 
L 817.705785 184.77215 
L 818.499174 187.041449 
L 819.292562 190.145165 
L 820.879339 194.04088 
L 821.672727 197.122253 
L 822.466116 199.603268 
L 823.259504 202.959903 
L 824.052893 206.976448 
L 824.846281 209.761332 
L 828.019835 217.458625 
L 828.813223 220.486545 
L 829.606612 222.745275 
L 831.193388 225.893621 
L 831.986777 228.786494 
L 832.780165 231.064841 
L 833.573554 232.075141 
L 834.366942 232.189941 
L 835.160331 233.421425 
L 836.747107 239.634972 
L 837.540496 240.819596 
L 838.333884 241.565535 
L 839.127273 242.921944 
L 839.920661 245.957255 
L 840.71405 248.406036 
L 841.507438 251.344757 
L 842.300826 253.310101 
L 843.887603 257.932411 
L 844.680992 259.246453 
L 845.47438 259.651981 
L 846.267769 259.800801 
L 847.061157 259.49503 
L 847.854545 260.414182 
L 849.441322 264.698216 
L 851.028099 266.223225 
L 851.821488 267.320178 
L 852.614876 270.290769 
L 853.408264 272.619982 
L 854.201653 274.59271 
L 854.995041 275.931988 
L 855.78843 276.943075 
L 856.581818 277.012968 
L 857.375207 277.953543 
L 858.168595 278.699293 
L 858.961983 279.055246 
L 860.54876 278.172896 
L 861.342149 278.641695 
L 862.135537 280.605422 
L 862.928926 282.077386 
L 863.722314 284.415949 
L 864.515702 287.146122 
L 865.309091 289.449513 
L 866.102479 289.199744 
L 866.895868 288.762803 
L 867.689256 289.365763 
L 868.482645 291.599052 
L 869.276033 292.897196 
L 870.069421 292.983304 
L 870.86281 292.10437 
L 871.656198 291.498392 
L 873.242975 286.914872 
L 874.036364 285.466386 
L 874.829752 285.8514 
L 875.62314 286.36875 
L 876.416529 287.622998 
L 877.209917 289.169658 
L 878.003306 291.700614 
L 878.796694 292.555471 
L 879.590083 292.887939 
L 880.383471 292.729789 
L 881.17686 292.835124 
L 881.970248 291.594134 
L 882.763636 289.778344 
L 883.557025 287.266089 
L 884.350413 285.742226 
L 885.143802 283.804367 
L 885.93719 282.775447 
L 886.730579 282.682515 
L 887.523967 283.903531 
L 888.317355 283.75465 
L 889.904132 283.153375 
L 890.697521 283.185111 
L 891.490909 281.853425 
L 892.284298 280.862568 
L 893.077686 279.627493 
L 893.871074 279.834659 
L 894.664463 279.399429 
L 895.457851 277.939376 
L 896.25124 275.598799 
L 897.044628 274.929887 
L 898.631405 271.186282 
L 899.424793 268.979307 
L 900.218182 267.193394 
L 901.01157 266.239965 
L 901.804959 266.656575 
L 902.598347 266.176277 
L 903.391736 265.828483 
L 904.185124 263.828667 
L 904.978512 262.404533 
L 905.771901 261.392273 
L 906.565289 260.897828 
L 908.945455 253.735563 
L 909.738843 252.690913 
L 910.532231 250.021148 
L 912.119008 242.915234 
L 912.912397 240.706258 
L 913.705785 239.914443 
L 914.499174 239.765656 
L 917.672727 232.471419 
L 918.466116 231.293922 
L 919.259504 230.332417 
L 920.052893 228.163662 
L 920.846281 225.543536 
L 921.639669 222.51803 
L 922.433058 220.123361 
L 924.813223 210.65668 
L 925.606612 207.678914 
L 926.4 206.112118 
L 927.193388 205.113709 
L 927.986777 203.377947 
L 928.780165 202.009542 
L 929.573554 200.145508 
L 931.160331 195.742258 
L 931.953719 193.983007 
L 933.540496 189.57278 
L 934.333884 185.913353 
L 935.920661 181.205061 
L 936.71405 179.368152 
L 937.507438 176.848188 
L 939.094215 171.072691 
L 939.887603 170.441499 
L 940.680992 170.202497 
L 941.47438 168.253354 
L 943.061157 161.035923 
L 944.647934 156.826076 
L 945.441322 153.798341 
L 947.028099 149.324454 
L 947.821488 148.292914 
L 948.614876 146.975562 
L 949.408264 144.485233 
L 950.201653 141.013736 
L 950.995041 139.348231 
L 951.78843 139.069737 
L 952.581818 137.641612 
L 954.168595 131.823967 
L 955.755372 126.922263 
L 956.54876 124.987301 
L 957.342149 122.448723 
L 958.135537 120.565141 
L 958.928926 119.260783 
L 959.722314 118.26942 
L 962.102479 114.628836 
L 962.895868 112.785533 
L 965.276033 103.777802 
L 966.86281 99.332694 
L 967.656198 97.03924 
L 968.449587 95.157976 
L 969.242975 94.989296 
L 970.829752 91.144789 
L 971.62314 88.756018 
L 972.416529 87.161339 
L 973.209917 86.657981 
L 974.003306 87.661847 
L 974.796694 87.582145 
L 976.383471 82.847744 
L 977.17686 82.257436 
L 977.970248 80.943218 
L 978.763636 79.8977 
L 980.350413 73.420823 
L 981.143802 71.250711 
L 981.93719 72.254671 
L 982.730579 72.275952 
L 983.523967 70.872938 
L 984.317355 69.093135 
L 985.110744 69.051078 
L 986.697521 72.044756 
L 987.490909 69.816951 
L 988.284298 66.602135 
L 989.077686 65.044595 
L 989.871074 67.119693 
L 990.664463 66.017108 
L 991.457851 61.036118 
L 992.25124 60.016885 
L 993.044628 61.50499 
L 993.838017 60.99245 
L 994.631405 56.519688 
L 995.424793 54.124126 
L 996.218182 69.877722 
L 996.218182 69.877722 
" style="fill:none;stroke:#1f77b4;stroke-linecap:square;stroke-width:1.5;"/>
   </g>
   <g id="patch_3">
    <path d="M 144 307.584 
L 144 41.472 
" style="fill:none;stroke:#000000;stroke-linecap:square;stroke-linejoin:miter;stroke-width:0.8;"/>
   </g>
   <g id="patch_4">
    <path d="M 1036.8 307.584 
L 1036.8 41.472 
" style="fill:none;stroke:#000000;stroke-linecap:square;stroke-linejoin:miter;stroke-width:0.8;"/>
   </g>
   <g id="patch_5">
    <path d="M 144 307.584 
L 1036.8 307.584 
" style="fill:none;stroke:#000000;stroke-linecap:square;stroke-linejoin:miter;stroke-width:0.8;"/>
   </g>
   <g id="patch_6">
    <path d="M 144 41.472 
L 1036.8 41.472 
" style="fill:none;stroke:#000000;stroke-linecap:square;stroke-linejoin:miter;stroke-width:0.8;"/>
   </g>
   <g id="text_12">
    <!-- 12th layer's shape: torch.Size([1, 1, 1024]). Uniformly sampling 16 channels -->
    <g transform="translate(360.85125 35.472)scale(0.12 -0.12)">
     <defs>
      <path d="M 18.3125 70.21875 
L 18.3125 54.6875 
L 36.8125 54.6875 
L 36.8125 47.703125 
L 18.3125 47.703125 
L 18.3125 18.015625 
Q 18.3125 11.328125 20.140625 9.421875 
Q 21.96875 7.515625 27.59375 7.515625 
L 36.8125 7.515625 
L 36.8125 0 
L 27.59375 0 
Q 17.1875 0 13.234375 3.875 
Q 9.28125 7.765625 9.28125 18.015625 
L 9.28125 47.703125 
L 2.6875 47.703125 
L 2.6875 54.6875 
L 9.28125 54.6875 
L 9.28125 70.21875 
z
" id="DejaVuSans-116"/>
      <path d="M 54.890625 33.015625 
L 54.890625 0 
L 45.90625 0 
L 45.90625 32.71875 
Q 45.90625 40.484375 42.875 44.328125 
Q 39.84375 48.1875 33.796875 48.1875 
Q 26.515625 48.1875 22.3125 43.546875 
Q 18.109375 38.921875 18.109375 30.90625 
L 18.109375 0 
L 9.078125 0 
L 9.078125 75.984375 
L 18.109375 75.984375 
L 18.109375 46.1875 
Q 21.34375 51.125 25.703125 53.5625 
Q 30.078125 56 35.796875 56 
Q 45.21875 56 50.046875 50.171875 
Q 54.890625 44.34375 54.890625 33.015625 
z
" id="DejaVuSans-104"/>
      <path id="DejaVuSans-32"/>
      <path d="M 9.421875 75.984375 
L 18.40625 75.984375 
L 18.40625 0 
L 9.421875 0 
z
" id="DejaVuSans-108"/>
      <path d="M 34.28125 27.484375 
Q 23.390625 27.484375 19.1875 25 
Q 14.984375 22.515625 14.984375 16.5 
Q 14.984375 11.71875 18.140625 8.90625 
Q 21.296875 6.109375 26.703125 6.109375 
Q 34.1875 6.109375 38.703125 11.40625 
Q 43.21875 16.703125 43.21875 25.484375 
L 43.21875 27.484375 
z
M 52.203125 31.203125 
L 52.203125 0 
L 43.21875 0 
L 43.21875 8.296875 
Q 40.140625 3.328125 35.546875 0.953125 
Q 30.953125 -1.421875 24.3125 -1.421875 
Q 15.921875 -1.421875 10.953125 3.296875 
Q 6 8.015625 6 15.921875 
Q 6 25.140625 12.171875 29.828125 
Q 18.359375 34.515625 30.609375 34.515625 
L 43.21875 34.515625 
L 43.21875 35.40625 
Q 43.21875 41.609375 39.140625 45 
Q 35.0625 48.390625 27.6875 48.390625 
Q 23 48.390625 18.546875 47.265625 
Q 14.109375 46.140625 10.015625 43.890625 
L 10.015625 52.203125 
Q 14.9375 54.109375 19.578125 55.046875 
Q 24.21875 56 28.609375 56 
Q 40.484375 56 46.34375 49.84375 
Q 52.203125 43.703125 52.203125 31.203125 
z
" id="DejaVuSans-97"/>
      <path d="M 32.171875 -5.078125 
Q 28.375 -14.84375 24.75 -17.8125 
Q 21.140625 -20.796875 15.09375 -20.796875 
L 7.90625 -20.796875 
L 7.90625 -13.28125 
L 13.1875 -13.28125 
Q 16.890625 -13.28125 18.9375 -11.515625 
Q 21 -9.765625 23.484375 -3.21875 
L 25.09375 0.875 
L 2.984375 54.6875 
L 12.5 54.6875 
L 29.59375 11.921875 
L 46.6875 54.6875 
L 56.203125 54.6875 
z
" id="DejaVuSans-121"/>
      <path d="M 56.203125 29.59375 
L 56.203125 25.203125 
L 14.890625 25.203125 
Q 15.484375 15.921875 20.484375 11.0625 
Q 25.484375 6.203125 34.421875 6.203125 
Q 39.59375 6.203125 44.453125 7.46875 
Q 49.3125 8.734375 54.109375 11.28125 
L 54.109375 2.78125 
Q 49.265625 0.734375 44.1875 -0.34375 
Q 39.109375 -1.421875 33.890625 -1.421875 
Q 20.796875 -1.421875 13.15625 6.1875 
Q 5.515625 13.8125 5.515625 26.8125 
Q 5.515625 40.234375 12.765625 48.109375 
Q 20.015625 56 32.328125 56 
Q 43.359375 56 49.78125 48.890625 
Q 56.203125 41.796875 56.203125 29.59375 
z
M 47.21875 32.234375 
Q 47.125 39.59375 43.09375 43.984375 
Q 39.0625 48.390625 32.421875 48.390625 
Q 24.90625 48.390625 20.390625 44.140625 
Q 15.875 39.890625 15.1875 32.171875 
z
" id="DejaVuSans-101"/>
      <path d="M 41.109375 46.296875 
Q 39.59375 47.171875 37.8125 47.578125 
Q 36.03125 48 33.890625 48 
Q 26.265625 48 22.1875 43.046875 
Q 18.109375 38.09375 18.109375 28.8125 
L 18.109375 0 
L 9.078125 0 
L 9.078125 54.6875 
L 18.109375 54.6875 
L 18.109375 46.1875 
Q 20.953125 51.171875 25.484375 53.578125 
Q 30.03125 56 36.53125 56 
Q 37.453125 56 38.578125 55.875 
Q 39.703125 55.765625 41.0625 55.515625 
z
" id="DejaVuSans-114"/>
      <path d="M 17.921875 72.90625 
L 17.921875 45.796875 
L 9.625 45.796875 
L 9.625 72.90625 
z
" id="DejaVuSans-39"/>
      <path d="M 44.28125 53.078125 
L 44.28125 44.578125 
Q 40.484375 46.53125 36.375 47.5 
Q 32.28125 48.484375 27.875 48.484375 
Q 21.1875 48.484375 17.84375 46.4375 
Q 14.5 44.390625 14.5 40.28125 
Q 14.5 37.15625 16.890625 35.375 
Q 19.28125 33.59375 26.515625 31.984375 
L 29.59375 31.296875 
Q 39.15625 29.25 43.1875 25.515625 
Q 47.21875 21.78125 47.21875 15.09375 
Q 47.21875 7.46875 41.1875 3.015625 
Q 35.15625 -1.421875 24.609375 -1.421875 
Q 20.21875 -1.421875 15.453125 -0.5625 
Q 10.6875 0.296875 5.421875 2 
L 5.421875 11.28125 
Q 10.40625 8.6875 15.234375 7.390625 
Q 20.0625 6.109375 24.8125 6.109375 
Q 31.15625 6.109375 34.5625 8.28125 
Q 37.984375 10.453125 37.984375 14.40625 
Q 37.984375 18.0625 35.515625 20.015625 
Q 33.0625 21.96875 24.703125 23.78125 
L 21.578125 24.515625 
Q 13.234375 26.265625 9.515625 29.90625 
Q 5.8125 33.546875 5.8125 39.890625 
Q 5.8125 47.609375 11.28125 51.796875 
Q 16.75 56 26.8125 56 
Q 31.78125 56 36.171875 55.265625 
Q 40.578125 54.546875 44.28125 53.078125 
z
" id="DejaVuSans-115"/>
      <path d="M 18.109375 8.203125 
L 18.109375 -20.796875 
L 9.078125 -20.796875 
L 9.078125 54.6875 
L 18.109375 54.6875 
L 18.109375 46.390625 
Q 20.953125 51.265625 25.265625 53.625 
Q 29.59375 56 35.59375 56 
Q 45.5625 56 51.78125 48.09375 
Q 58.015625 40.1875 58.015625 27.296875 
Q 58.015625 14.40625 51.78125 6.484375 
Q 45.5625 -1.421875 35.59375 -1.421875 
Q 29.59375 -1.421875 25.265625 0.953125 
Q 20.953125 3.328125 18.109375 8.203125 
z
M 48.6875 27.296875 
Q 48.6875 37.203125 44.609375 42.84375 
Q 40.53125 48.484375 33.40625 48.484375 
Q 26.265625 48.484375 22.1875 42.84375 
Q 18.109375 37.203125 18.109375 27.296875 
Q 18.109375 17.390625 22.1875 11.75 
Q 26.265625 6.109375 33.40625 6.109375 
Q 40.53125 6.109375 44.609375 11.75 
Q 48.6875 17.390625 48.6875 27.296875 
z
" id="DejaVuSans-112"/>
      <path d="M 11.71875 12.40625 
L 22.015625 12.40625 
L 22.015625 0 
L 11.71875 0 
z
M 11.71875 51.703125 
L 22.015625 51.703125 
L 22.015625 39.3125 
L 11.71875 39.3125 
z
" id="DejaVuSans-58"/>
      <path d="M 30.609375 48.390625 
Q 23.390625 48.390625 19.1875 42.75 
Q 14.984375 37.109375 14.984375 27.296875 
Q 14.984375 17.484375 19.15625 11.84375 
Q 23.34375 6.203125 30.609375 6.203125 
Q 37.796875 6.203125 41.984375 11.859375 
Q 46.1875 17.53125 46.1875 27.296875 
Q 46.1875 37.015625 41.984375 42.703125 
Q 37.796875 48.390625 30.609375 48.390625 
z
M 30.609375 56 
Q 42.328125 56 49.015625 48.375 
Q 55.71875 40.765625 55.71875 27.296875 
Q 55.71875 13.875 49.015625 6.21875 
Q 42.328125 -1.421875 30.609375 -1.421875 
Q 18.84375 -1.421875 12.171875 6.21875 
Q 5.515625 13.875 5.515625 27.296875 
Q 5.515625 40.765625 12.171875 48.375 
Q 18.84375 56 30.609375 56 
z
" id="DejaVuSans-111"/>
      <path d="M 48.78125 52.59375 
L 48.78125 44.1875 
Q 44.96875 46.296875 41.140625 47.34375 
Q 37.3125 48.390625 33.40625 48.390625 
Q 24.65625 48.390625 19.8125 42.84375 
Q 14.984375 37.3125 14.984375 27.296875 
Q 14.984375 17.28125 19.8125 11.734375 
Q 24.65625 6.203125 33.40625 6.203125 
Q 37.3125 6.203125 41.140625 7.25 
Q 44.96875 8.296875 48.78125 10.40625 
L 48.78125 2.09375 
Q 45.015625 0.34375 40.984375 -0.53125 
Q 36.96875 -1.421875 32.421875 -1.421875 
Q 20.0625 -1.421875 12.78125 6.34375 
Q 5.515625 14.109375 5.515625 27.296875 
Q 5.515625 40.671875 12.859375 48.328125 
Q 20.21875 56 33.015625 56 
Q 37.15625 56 41.109375 55.140625 
Q 45.0625 54.296875 48.78125 52.59375 
z
" id="DejaVuSans-99"/>
      <path d="M 53.515625 70.515625 
L 53.515625 60.890625 
Q 47.90625 63.578125 42.921875 64.890625 
Q 37.9375 66.21875 33.296875 66.21875 
Q 25.25 66.21875 20.875 63.09375 
Q 16.5 59.96875 16.5 54.203125 
Q 16.5 49.359375 19.40625 46.890625 
Q 22.3125 44.4375 30.421875 42.921875 
L 36.375 41.703125 
Q 47.40625 39.59375 52.65625 34.296875 
Q 57.90625 29 57.90625 20.125 
Q 57.90625 9.515625 50.796875 4.046875 
Q 43.703125 -1.421875 29.984375 -1.421875 
Q 24.8125 -1.421875 18.96875 -0.25 
Q 13.140625 0.921875 6.890625 3.21875 
L 6.890625 13.375 
Q 12.890625 10.015625 18.65625 8.296875 
Q 24.421875 6.59375 29.984375 6.59375 
Q 38.421875 6.59375 43.015625 9.90625 
Q 47.609375 13.234375 47.609375 19.390625 
Q 47.609375 24.75 44.3125 27.78125 
Q 41.015625 30.8125 33.5 32.328125 
L 27.484375 33.5 
Q 16.453125 35.6875 11.515625 40.375 
Q 6.59375 45.0625 6.59375 53.421875 
Q 6.59375 63.09375 13.40625 68.65625 
Q 20.21875 74.21875 32.171875 74.21875 
Q 37.3125 74.21875 42.625 73.28125 
Q 47.953125 72.359375 53.515625 70.515625 
z
" id="DejaVuSans-83"/>
      <path d="M 9.421875 54.6875 
L 18.40625 54.6875 
L 18.40625 0 
L 9.421875 0 
z
M 9.421875 75.984375 
L 18.40625 75.984375 
L 18.40625 64.59375 
L 9.421875 64.59375 
z
" id="DejaVuSans-105"/>
      <path d="M 5.515625 54.6875 
L 48.1875 54.6875 
L 48.1875 46.484375 
L 14.40625 7.171875 
L 48.1875 7.171875 
L 48.1875 0 
L 4.296875 0 
L 4.296875 8.203125 
L 38.09375 47.515625 
L 5.515625 47.515625 
z
" id="DejaVuSans-122"/>
      <path d="M 31 75.875 
Q 24.46875 64.65625 21.28125 53.65625 
Q 18.109375 42.671875 18.109375 31.390625 
Q 18.109375 20.125 21.3125 9.0625 
Q 24.515625 -2 31 -13.1875 
L 23.1875 -13.1875 
Q 15.875 -1.703125 12.234375 9.375 
Q 8.59375 20.453125 8.59375 31.390625 
Q 8.59375 42.28125 12.203125 53.3125 
Q 15.828125 64.359375 23.1875 75.875 
z
" id="DejaVuSans-40"/>
      <path d="M 8.59375 75.984375 
L 29.296875 75.984375 
L 29.296875 69 
L 17.578125 69 
L 17.578125 -6.203125 
L 29.296875 -6.203125 
L 29.296875 -13.1875 
L 8.59375 -13.1875 
z
" id="DejaVuSans-91"/>
      <path d="M 11.71875 12.40625 
L 22.015625 12.40625 
L 22.015625 4 
L 14.015625 -11.625 
L 7.71875 -11.625 
L 11.71875 4 
z
" id="DejaVuSans-44"/>
      <path d="M 30.421875 75.984375 
L 30.421875 -13.1875 
L 9.71875 -13.1875 
L 9.71875 -6.203125 
L 21.390625 -6.203125 
L 21.390625 69 
L 9.71875 69 
L 9.71875 75.984375 
z
" id="DejaVuSans-93"/>
      <path d="M 8.015625 75.875 
L 15.828125 75.875 
Q 23.140625 64.359375 26.78125 53.3125 
Q 30.421875 42.28125 30.421875 31.390625 
Q 30.421875 20.453125 26.78125 9.375 
Q 23.140625 -1.703125 15.828125 -13.1875 
L 8.015625 -13.1875 
Q 14.5 -2 17.703125 9.0625 
Q 20.90625 20.125 20.90625 31.390625 
Q 20.90625 42.671875 17.703125 53.65625 
Q 14.5 64.65625 8.015625 75.875 
z
" id="DejaVuSans-41"/>
      <path d="M 8.6875 72.90625 
L 18.609375 72.90625 
L 18.609375 28.609375 
Q 18.609375 16.890625 22.84375 11.734375 
Q 27.09375 6.59375 36.625 6.59375 
Q 46.09375 6.59375 50.34375 11.734375 
Q 54.59375 16.890625 54.59375 28.609375 
L 54.59375 72.90625 
L 64.5 72.90625 
L 64.5 27.390625 
Q 64.5 13.140625 57.4375 5.859375 
Q 50.390625 -1.421875 36.625 -1.421875 
Q 22.796875 -1.421875 15.734375 5.859375 
Q 8.6875 13.140625 8.6875 27.390625 
z
" id="DejaVuSans-85"/>
      <path d="M 54.890625 33.015625 
L 54.890625 0 
L 45.90625 0 
L 45.90625 32.71875 
Q 45.90625 40.484375 42.875 44.328125 
Q 39.84375 48.1875 33.796875 48.1875 
Q 26.515625 48.1875 22.3125 43.546875 
Q 18.109375 38.921875 18.109375 30.90625 
L 18.109375 0 
L 9.078125 0 
L 9.078125 54.6875 
L 18.109375 54.6875 
L 18.109375 46.1875 
Q 21.34375 51.125 25.703125 53.5625 
Q 30.078125 56 35.796875 56 
Q 45.21875 56 50.046875 50.171875 
Q 54.890625 44.34375 54.890625 33.015625 
z
" id="DejaVuSans-110"/>
      <path d="M 37.109375 75.984375 
L 37.109375 68.5 
L 28.515625 68.5 
Q 23.6875 68.5 21.796875 66.546875 
Q 19.921875 64.59375 19.921875 59.515625 
L 19.921875 54.6875 
L 34.71875 54.6875 
L 34.71875 47.703125 
L 19.921875 47.703125 
L 19.921875 0 
L 10.890625 0 
L 10.890625 47.703125 
L 2.296875 47.703125 
L 2.296875 54.6875 
L 10.890625 54.6875 
L 10.890625 58.5 
Q 10.890625 67.625 15.140625 71.796875 
Q 19.390625 75.984375 28.609375 75.984375 
z
" id="DejaVuSans-102"/>
      <path d="M 52 44.1875 
Q 55.375 50.25 60.0625 53.125 
Q 64.75 56 71.09375 56 
Q 79.640625 56 84.28125 50.015625 
Q 88.921875 44.046875 88.921875 33.015625 
L 88.921875 0 
L 79.890625 0 
L 79.890625 32.71875 
Q 79.890625 40.578125 77.09375 44.375 
Q 74.3125 48.1875 68.609375 48.1875 
Q 61.625 48.1875 57.5625 43.546875 
Q 53.515625 38.921875 53.515625 30.90625 
L 53.515625 0 
L 44.484375 0 
L 44.484375 32.71875 
Q 44.484375 40.625 41.703125 44.40625 
Q 38.921875 48.1875 33.109375 48.1875 
Q 26.21875 48.1875 22.15625 43.53125 
Q 18.109375 38.875 18.109375 30.90625 
L 18.109375 0 
L 9.078125 0 
L 9.078125 54.6875 
L 18.109375 54.6875 
L 18.109375 46.1875 
Q 21.1875 51.21875 25.484375 53.609375 
Q 29.78125 56 35.6875 56 
Q 41.65625 56 45.828125 52.96875 
Q 50 49.953125 52 44.1875 
z
" id="DejaVuSans-109"/>
      <path d="M 45.40625 27.984375 
Q 45.40625 37.75 41.375 43.109375 
Q 37.359375 48.484375 30.078125 48.484375 
Q 22.859375 48.484375 18.828125 43.109375 
Q 14.796875 37.75 14.796875 27.984375 
Q 14.796875 18.265625 18.828125 12.890625 
Q 22.859375 7.515625 30.078125 7.515625 
Q 37.359375 7.515625 41.375 12.890625 
Q 45.40625 18.265625 45.40625 27.984375 
z
M 54.390625 6.78125 
Q 54.390625 -7.171875 48.1875 -13.984375 
Q 42 -20.796875 29.203125 -20.796875 
Q 24.46875 -20.796875 20.265625 -20.09375 
Q 16.0625 -19.390625 12.109375 -17.921875 
L 12.109375 -9.1875 
Q 16.0625 -11.328125 19.921875 -12.34375 
Q 23.78125 -13.375 27.78125 -13.375 
Q 36.625 -13.375 41.015625 -8.765625 
Q 45.40625 -4.15625 45.40625 5.171875 
L 45.40625 9.625 
Q 42.625 4.78125 38.28125 2.390625 
Q 33.9375 0 27.875 0 
Q 17.828125 0 11.671875 7.65625 
Q 5.515625 15.328125 5.515625 27.984375 
Q 5.515625 40.671875 11.671875 48.328125 
Q 17.828125 56 27.875 56 
Q 33.9375 56 38.28125 53.609375 
Q 42.625 51.21875 45.40625 46.390625 
L 45.40625 54.6875 
L 54.390625 54.6875 
z
" id="DejaVuSans-103"/>
     </defs>
     <use xlink:href="#DejaVuSans-49"/>
     <use x="63.623047" xlink:href="#DejaVuSans-50"/>
     <use x="127.246094" xlink:href="#DejaVuSans-116"/>
     <use x="166.455078" xlink:href="#DejaVuSans-104"/>
     <use x="229.833984" xlink:href="#DejaVuSans-32"/>
     <use x="261.621094" xlink:href="#DejaVuSans-108"/>
     <use x="289.404297" xlink:href="#DejaVuSans-97"/>
     <use x="350.683594" xlink:href="#DejaVuSans-121"/>
     <use x="409.863281" xlink:href="#DejaVuSans-101"/>
     <use x="471.386719" xlink:href="#DejaVuSans-114"/>
     <use x="512.5" xlink:href="#DejaVuSans-39"/>
     <use x="539.990234" xlink:href="#DejaVuSans-115"/>
     <use x="592.089844" xlink:href="#DejaVuSans-32"/>
     <use x="623.876953" xlink:href="#DejaVuSans-115"/>
     <use x="675.976562" xlink:href="#DejaVuSans-104"/>
     <use x="739.355469" xlink:href="#DejaVuSans-97"/>
     <use x="800.634766" xlink:href="#DejaVuSans-112"/>
     <use x="864.111328" xlink:href="#DejaVuSans-101"/>
     <use x="925.634766" xlink:href="#DejaVuSans-58"/>
     <use x="959.326172" xlink:href="#DejaVuSans-32"/>
     <use x="991.113281" xlink:href="#DejaVuSans-116"/>
     <use x="1030.322266" xlink:href="#DejaVuSans-111"/>
     <use x="1091.503906" xlink:href="#DejaVuSans-114"/>
     <use x="1130.367188" xlink:href="#DejaVuSans-99"/>
     <use x="1185.347656" xlink:href="#DejaVuSans-104"/>
     <use x="1248.726562" xlink:href="#DejaVuSans-46"/>
     <use x="1280.513672" xlink:href="#DejaVuSans-83"/>
     <use x="1343.990234" xlink:href="#DejaVuSans-105"/>
     <use x="1371.773438" xlink:href="#DejaVuSans-122"/>
     <use x="1424.263672" xlink:href="#DejaVuSans-101"/>
     <use x="1485.787109" xlink:href="#DejaVuSans-40"/>
     <use x="1524.800781" xlink:href="#DejaVuSans-91"/>
     <use x="1563.814453" xlink:href="#DejaVuSans-49"/>
     <use x="1627.4375" xlink:href="#DejaVuSans-44"/>
     <use x="1659.224609" xlink:href="#DejaVuSans-32"/>
     <use x="1691.011719" xlink:href="#DejaVuSans-49"/>
     <use x="1754.634766" xlink:href="#DejaVuSans-44"/>
     <use x="1786.421875" xlink:href="#DejaVuSans-32"/>
     <use x="1818.208984" xlink:href="#DejaVuSans-49"/>
     <use x="1881.832031" xlink:href="#DejaVuSans-48"/>
     <use x="1945.455078" xlink:href="#DejaVuSans-50"/>
     <use x="2009.078125" xlink:href="#DejaVuSans-52"/>
     <use x="2072.701172" xlink:href="#DejaVuSans-93"/>
     <use x="2111.714844" xlink:href="#DejaVuSans-41"/>
     <use x="2150.728516" xlink:href="#DejaVuSans-46"/>
     <use x="2182.515625" xlink:href="#DejaVuSans-32"/>
     <use x="2214.302734" xlink:href="#DejaVuSans-85"/>
     <use x="2287.496094" xlink:href="#DejaVuSans-110"/>
     <use x="2350.875" xlink:href="#DejaVuSans-105"/>
     <use x="2378.658203" xlink:href="#DejaVuSans-102"/>
     <use x="2413.863281" xlink:href="#DejaVuSans-111"/>
     <use x="2475.044922" xlink:href="#DejaVuSans-114"/>
     <use x="2514.408203" xlink:href="#DejaVuSans-109"/>
     <use x="2611.820312" xlink:href="#DejaVuSans-108"/>
     <use x="2639.603516" xlink:href="#DejaVuSans-121"/>
     <use x="2698.783203" xlink:href="#DejaVuSans-32"/>
     <use x="2730.570312" xlink:href="#DejaVuSans-115"/>
     <use x="2782.669922" xlink:href="#DejaVuSans-97"/>
     <use x="2843.949219" xlink:href="#DejaVuSans-109"/>
     <use x="2941.361328" xlink:href="#DejaVuSans-112"/>
     <use x="3004.837891" xlink:href="#DejaVuSans-108"/>
     <use x="3032.621094" xlink:href="#DejaVuSans-105"/>
     <use x="3060.404297" xlink:href="#DejaVuSans-110"/>
     <use x="3123.783203" xlink:href="#DejaVuSans-103"/>
     <use x="3187.259766" xlink:href="#DejaVuSans-32"/>
     <use x="3219.046875" xlink:href="#DejaVuSans-49"/>
     <use x="3282.669922" xlink:href="#DejaVuSans-54"/>
     <use x="3346.292969" xlink:href="#DejaVuSans-32"/>
     <use x="3378.080078" xlink:href="#DejaVuSans-99"/>
     <use x="3433.060547" xlink:href="#DejaVuSans-104"/>
     <use x="3496.439453" xlink:href="#DejaVuSans-97"/>
     <use x="3557.71875" xlink:href="#DejaVuSans-110"/>
     <use x="3621.097656" xlink:href="#DejaVuSans-110"/>
     <use x="3684.476562" xlink:href="#DejaVuSans-101"/>
     <use x="3746" xlink:href="#DejaVuSans-108"/>
     <use x="3773.783203" xlink:href="#DejaVuSans-115"/>
    </g>
   </g>
  </g>
 </g>
 <defs>
  <clipPath id="pc52505e5cf">
   <rect height="266.112" width="892.8" x="144" y="41.472"/>
  </clipPath>
 </defs>
</svg>
