<?xml version="1.0" encoding="utf-8" standalone="no"?>
<!DOCTYPE svg PUBLIC "-//W3C//DTD SVG 1.1//EN"
  "http://www.w3.org/Graphics/SVG/1.1/DTD/svg11.dtd">
<!-- Created with matplotlib (https://matplotlib.org/) -->
<svg height="345.6pt" version="1.1" viewBox="0 0 1152 345.6" width="1152pt" xmlns="http://www.w3.org/2000/svg" xmlns:xlink="http://www.w3.org/1999/xlink">
 <metadata>
  <rdf:RDF xmlns:cc="http://creativecommons.org/ns#" xmlns:dc="http://purl.org/dc/elements/1.1/" xmlns:rdf="http://www.w3.org/1999/02/22-rdf-syntax-ns#">
   <cc:Work>
    <dc:type rdf:resource="http://purl.org/dc/dcmitype/StillImage"/>
    <dc:date>2021-12-24T07:21:01.302849</dc:date>
    <dc:format>image/svg+xml</dc:format>
    <dc:creator>
     <cc:Agent>
      <dc:title>Matplotlib v3.3.3, https://matplotlib.org/</dc:title>
     </cc:Agent>
    </dc:creator>
   </cc:Work>
  </rdf:RDF>
 </metadata>
 <defs>
  <style type="text/css">*{stroke-linecap:butt;stroke-linejoin:round;}</style>
 </defs>
 <g id="figure_1">
  <g id="patch_1">
   <path d="M 0 345.6 
L 1152 345.6 
L 1152 0 
L 0 0 
z
" style="fill:#ffffff;"/>
  </g>
  <g id="axes_1">
   <g id="patch_2">
    <path d="M 144 307.584 
L 1036.8 307.584 
L 1036.8 41.472 
L 144 41.472 
z
" style="fill:#ffffff;"/>
   </g>
   <g id="matplotlib.axis_1">
    <g id="xtick_1">
     <g id="line2d_1">
      <defs>
       <path d="M 0 0 
L 0 3.5 
" id="ma90e35e2b3" style="stroke:#000000;stroke-width:0.8;"/>
      </defs>
      <g>
       <use style="stroke:#000000;stroke-width:0.8;" x="184.581818" xlink:href="#ma90e35e2b3" y="307.584"/>
      </g>
     </g>
     <g id="text_1">
      <!-- 0 -->
      <g transform="translate(181.400568 322.182437)scale(0.1 -0.1)">
       <defs>
        <path d="M 31.78125 66.40625 
Q 24.171875 66.40625 20.328125 58.90625 
Q 16.5 51.421875 16.5 36.375 
Q 16.5 21.390625 20.328125 13.890625 
Q 24.171875 6.390625 31.78125 6.390625 
Q 39.453125 6.390625 43.28125 13.890625 
Q 47.125 21.390625 47.125 36.375 
Q 47.125 51.421875 43.28125 58.90625 
Q 39.453125 66.40625 31.78125 66.40625 
z
M 31.78125 74.21875 
Q 44.046875 74.21875 50.515625 64.515625 
Q 56.984375 54.828125 56.984375 36.375 
Q 56.984375 17.96875 50.515625 8.265625 
Q 44.046875 -1.421875 31.78125 -1.421875 
Q 19.53125 -1.421875 13.0625 8.265625 
Q 6.59375 17.96875 6.59375 36.375 
Q 6.59375 54.828125 13.0625 64.515625 
Q 19.53125 74.21875 31.78125 74.21875 
z
" id="DejaVuSans-48"/>
       </defs>
       <use xlink:href="#DejaVuSans-48"/>
      </g>
     </g>
    </g>
    <g id="xtick_2">
     <g id="line2d_2">
      <g>
       <use style="stroke:#000000;stroke-width:0.8;" x="343.414766" xlink:href="#ma90e35e2b3" y="307.584"/>
      </g>
     </g>
     <g id="text_2">
      <!-- 100 -->
      <g transform="translate(333.871016 322.182437)scale(0.1 -0.1)">
       <defs>
        <path d="M 12.40625 8.296875 
L 28.515625 8.296875 
L 28.515625 63.921875 
L 10.984375 60.40625 
L 10.984375 69.390625 
L 28.421875 72.90625 
L 38.28125 72.90625 
L 38.28125 8.296875 
L 54.390625 8.296875 
L 54.390625 0 
L 12.40625 0 
z
" id="DejaVuSans-49"/>
       </defs>
       <use xlink:href="#DejaVuSans-49"/>
       <use x="63.623047" xlink:href="#DejaVuSans-48"/>
       <use x="127.246094" xlink:href="#DejaVuSans-48"/>
      </g>
     </g>
    </g>
    <g id="xtick_3">
     <g id="line2d_3">
      <g>
       <use style="stroke:#000000;stroke-width:0.8;" x="502.247714" xlink:href="#ma90e35e2b3" y="307.584"/>
      </g>
     </g>
     <g id="text_3">
      <!-- 200 -->
      <g transform="translate(492.703964 322.182437)scale(0.1 -0.1)">
       <defs>
        <path d="M 19.1875 8.296875 
L 53.609375 8.296875 
L 53.609375 0 
L 7.328125 0 
L 7.328125 8.296875 
Q 12.9375 14.109375 22.625 23.890625 
Q 32.328125 33.6875 34.8125 36.53125 
Q 39.546875 41.84375 41.421875 45.53125 
Q 43.3125 49.21875 43.3125 52.78125 
Q 43.3125 58.59375 39.234375 62.25 
Q 35.15625 65.921875 28.609375 65.921875 
Q 23.96875 65.921875 18.8125 64.3125 
Q 13.671875 62.703125 7.8125 59.421875 
L 7.8125 69.390625 
Q 13.765625 71.78125 18.9375 73 
Q 24.125 74.21875 28.421875 74.21875 
Q 39.75 74.21875 46.484375 68.546875 
Q 53.21875 62.890625 53.21875 53.421875 
Q 53.21875 48.921875 51.53125 44.890625 
Q 49.859375 40.875 45.40625 35.40625 
Q 44.1875 33.984375 37.640625 27.21875 
Q 31.109375 20.453125 19.1875 8.296875 
z
" id="DejaVuSans-50"/>
       </defs>
       <use xlink:href="#DejaVuSans-50"/>
       <use x="63.623047" xlink:href="#DejaVuSans-48"/>
       <use x="127.246094" xlink:href="#DejaVuSans-48"/>
      </g>
     </g>
    </g>
    <g id="xtick_4">
     <g id="line2d_4">
      <g>
       <use style="stroke:#000000;stroke-width:0.8;" x="661.080662" xlink:href="#ma90e35e2b3" y="307.584"/>
      </g>
     </g>
     <g id="text_4">
      <!-- 300 -->
      <g transform="translate(651.536912 322.182437)scale(0.1 -0.1)">
       <defs>
        <path d="M 40.578125 39.3125 
Q 47.65625 37.796875 51.625 33 
Q 55.609375 28.21875 55.609375 21.1875 
Q 55.609375 10.40625 48.1875 4.484375 
Q 40.765625 -1.421875 27.09375 -1.421875 
Q 22.515625 -1.421875 17.65625 -0.515625 
Q 12.796875 0.390625 7.625 2.203125 
L 7.625 11.71875 
Q 11.71875 9.328125 16.59375 8.109375 
Q 21.484375 6.890625 26.8125 6.890625 
Q 36.078125 6.890625 40.9375 10.546875 
Q 45.796875 14.203125 45.796875 21.1875 
Q 45.796875 27.640625 41.28125 31.265625 
Q 36.765625 34.90625 28.71875 34.90625 
L 20.21875 34.90625 
L 20.21875 43.015625 
L 29.109375 43.015625 
Q 36.375 43.015625 40.234375 45.921875 
Q 44.09375 48.828125 44.09375 54.296875 
Q 44.09375 59.90625 40.109375 62.90625 
Q 36.140625 65.921875 28.71875 65.921875 
Q 24.65625 65.921875 20.015625 65.03125 
Q 15.375 64.15625 9.8125 62.3125 
L 9.8125 71.09375 
Q 15.4375 72.65625 20.34375 73.4375 
Q 25.25 74.21875 29.59375 74.21875 
Q 40.828125 74.21875 47.359375 69.109375 
Q 53.90625 64.015625 53.90625 55.328125 
Q 53.90625 49.265625 50.4375 45.09375 
Q 46.96875 40.921875 40.578125 39.3125 
z
" id="DejaVuSans-51"/>
       </defs>
       <use xlink:href="#DejaVuSans-51"/>
       <use x="63.623047" xlink:href="#DejaVuSans-48"/>
       <use x="127.246094" xlink:href="#DejaVuSans-48"/>
      </g>
     </g>
    </g>
    <g id="xtick_5">
     <g id="line2d_5">
      <g>
       <use style="stroke:#000000;stroke-width:0.8;" x="819.91361" xlink:href="#ma90e35e2b3" y="307.584"/>
      </g>
     </g>
     <g id="text_5">
      <!-- 400 -->
      <g transform="translate(810.36986 322.182437)scale(0.1 -0.1)">
       <defs>
        <path d="M 37.796875 64.3125 
L 12.890625 25.390625 
L 37.796875 25.390625 
z
M 35.203125 72.90625 
L 47.609375 72.90625 
L 47.609375 25.390625 
L 58.015625 25.390625 
L 58.015625 17.1875 
L 47.609375 17.1875 
L 47.609375 0 
L 37.796875 0 
L 37.796875 17.1875 
L 4.890625 17.1875 
L 4.890625 26.703125 
z
" id="DejaVuSans-52"/>
       </defs>
       <use xlink:href="#DejaVuSans-52"/>
       <use x="63.623047" xlink:href="#DejaVuSans-48"/>
       <use x="127.246094" xlink:href="#DejaVuSans-48"/>
      </g>
     </g>
    </g>
    <g id="xtick_6">
     <g id="line2d_6">
      <g>
       <use style="stroke:#000000;stroke-width:0.8;" x="978.746558" xlink:href="#ma90e35e2b3" y="307.584"/>
      </g>
     </g>
     <g id="text_6">
      <!-- 500 -->
      <g transform="translate(969.202808 322.182437)scale(0.1 -0.1)">
       <defs>
        <path d="M 10.796875 72.90625 
L 49.515625 72.90625 
L 49.515625 64.59375 
L 19.828125 64.59375 
L 19.828125 46.734375 
Q 21.96875 47.46875 24.109375 47.828125 
Q 26.265625 48.1875 28.421875 48.1875 
Q 40.625 48.1875 47.75 41.5 
Q 54.890625 34.8125 54.890625 23.390625 
Q 54.890625 11.625 47.5625 5.09375 
Q 40.234375 -1.421875 26.90625 -1.421875 
Q 22.3125 -1.421875 17.546875 -0.640625 
Q 12.796875 0.140625 7.71875 1.703125 
L 7.71875 11.625 
Q 12.109375 9.234375 16.796875 8.0625 
Q 21.484375 6.890625 26.703125 6.890625 
Q 35.15625 6.890625 40.078125 11.328125 
Q 45.015625 15.765625 45.015625 23.390625 
Q 45.015625 31 40.078125 35.4375 
Q 35.15625 39.890625 26.703125 39.890625 
Q 22.75 39.890625 18.8125 39.015625 
Q 14.890625 38.140625 10.796875 36.28125 
z
" id="DejaVuSans-53"/>
       </defs>
       <use xlink:href="#DejaVuSans-53"/>
       <use x="63.623047" xlink:href="#DejaVuSans-48"/>
       <use x="127.246094" xlink:href="#DejaVuSans-48"/>
      </g>
     </g>
    </g>
   </g>
   <g id="matplotlib.axis_2">
    <g id="ytick_1">
     <g id="line2d_7">
      <defs>
       <path d="M 0 0 
L -3.5 0 
" id="m7df7137727" style="stroke:#000000;stroke-width:0.8;"/>
      </defs>
      <g>
       <use style="stroke:#000000;stroke-width:0.8;" x="144" xlink:href="#m7df7137727" y="280.727989"/>
      </g>
     </g>
     <g id="text_7">
      <!-- −0.10 -->
      <g transform="translate(106.354687 284.527207)scale(0.1 -0.1)">
       <defs>
        <path d="M 10.59375 35.5 
L 73.1875 35.5 
L 73.1875 27.203125 
L 10.59375 27.203125 
z
" id="DejaVuSans-8722"/>
        <path d="M 10.6875 12.40625 
L 21 12.40625 
L 21 0 
L 10.6875 0 
z
" id="DejaVuSans-46"/>
       </defs>
       <use xlink:href="#DejaVuSans-8722"/>
       <use x="83.789062" xlink:href="#DejaVuSans-48"/>
       <use x="147.412109" xlink:href="#DejaVuSans-46"/>
       <use x="179.199219" xlink:href="#DejaVuSans-49"/>
       <use x="242.822266" xlink:href="#DejaVuSans-48"/>
      </g>
     </g>
    </g>
    <g id="ytick_2">
     <g id="line2d_8">
      <g>
       <use style="stroke:#000000;stroke-width:0.8;" x="144" xlink:href="#m7df7137727" y="226.820059"/>
      </g>
     </g>
     <g id="text_8">
      <!-- −0.05 -->
      <g transform="translate(106.354687 230.619277)scale(0.1 -0.1)">
       <use xlink:href="#DejaVuSans-8722"/>
       <use x="83.789062" xlink:href="#DejaVuSans-48"/>
       <use x="147.412109" xlink:href="#DejaVuSans-46"/>
       <use x="179.199219" xlink:href="#DejaVuSans-48"/>
       <use x="242.822266" xlink:href="#DejaVuSans-53"/>
      </g>
     </g>
    </g>
    <g id="ytick_3">
     <g id="line2d_9">
      <g>
       <use style="stroke:#000000;stroke-width:0.8;" x="144" xlink:href="#m7df7137727" y="172.912128"/>
      </g>
     </g>
     <g id="text_9">
      <!-- 0.00 -->
      <g transform="translate(114.734375 176.711347)scale(0.1 -0.1)">
       <use xlink:href="#DejaVuSans-48"/>
       <use x="63.623047" xlink:href="#DejaVuSans-46"/>
       <use x="95.410156" xlink:href="#DejaVuSans-48"/>
       <use x="159.033203" xlink:href="#DejaVuSans-48"/>
      </g>
     </g>
    </g>
    <g id="ytick_4">
     <g id="line2d_10">
      <g>
       <use style="stroke:#000000;stroke-width:0.8;" x="144" xlink:href="#m7df7137727" y="119.004198"/>
      </g>
     </g>
     <g id="text_10">
      <!-- 0.05 -->
      <g transform="translate(114.734375 122.803417)scale(0.1 -0.1)">
       <use xlink:href="#DejaVuSans-48"/>
       <use x="63.623047" xlink:href="#DejaVuSans-46"/>
       <use x="95.410156" xlink:href="#DejaVuSans-48"/>
       <use x="159.033203" xlink:href="#DejaVuSans-53"/>
      </g>
     </g>
    </g>
    <g id="ytick_5">
     <g id="line2d_11">
      <g>
       <use style="stroke:#000000;stroke-width:0.8;" x="144" xlink:href="#m7df7137727" y="65.096268"/>
      </g>
     </g>
     <g id="text_11">
      <!-- 0.10 -->
      <g transform="translate(114.734375 68.895487)scale(0.1 -0.1)">
       <use xlink:href="#DejaVuSans-48"/>
       <use x="63.623047" xlink:href="#DejaVuSans-46"/>
       <use x="95.410156" xlink:href="#DejaVuSans-49"/>
       <use x="159.033203" xlink:href="#DejaVuSans-48"/>
      </g>
     </g>
    </g>
   </g>
   <g id="line2d_12">
    <path clip-path="url(#p76269ad31e)" d="M 184.581818 184.831953 
L 186.170148 170.408967 
L 187.758477 171.85574 
L 190.935136 170.604335 
L 194.111795 169.303578 
L 197.288454 168.186095 
L 200.465113 167.254774 
L 203.641772 166.506309 
L 206.818431 165.931754 
L 211.583419 165.365263 
L 216.348408 165.099104 
L 221.113396 165.064664 
L 227.466714 165.259919 
L 260.821633 166.752991 
L 271.93994 167.155603 
L 278.293257 167.627697 
L 283.058246 168.200192 
L 287.823234 169.024778 
L 292.588223 170.152449 
L 295.764882 171.091318 
L 298.941541 172.186892 
L 303.706529 174.123189 
L 308.471518 176.388074 
L 313.236506 178.929198 
L 319.589824 182.611389 
L 332.29646 190.128151 
L 337.061448 192.713221 
L 341.826437 195.053187 
L 346.591425 197.096321 
L 351.356413 198.806899 
L 354.533072 199.751149 
L 357.709731 200.533558 
L 360.88639 201.151608 
L 364.063049 201.603851 
L 367.239708 201.889573 
L 370.416367 202.008376 
L 373.593026 201.960168 
L 376.769685 201.744917 
L 379.946344 201.362615 
L 383.123003 200.813615 
L 386.299662 200.098498 
L 389.476321 199.218627 
L 392.65298 198.176209 
L 397.417968 196.316456 
L 402.182957 194.120545 
L 406.947945 191.622144 
L 411.712934 188.870756 
L 418.066252 184.926425 
L 430.772887 176.900098 
L 435.537876 174.155954 
L 440.302864 171.706089 
L 443.479523 170.272364 
L 446.656182 169.015471 
L 449.832841 167.943123 
L 453.0095 167.056701 
L 456.186159 166.351416 
L 459.362818 165.817151 
L 464.127806 165.303599 
L 468.892795 165.079666 
L 473.657783 165.076138 
L 480.011101 165.295869 
L 508.601032 166.644948 
L 522.895997 167.112652 
L 529.249315 167.550602 
L 534.014304 168.08556 
L 538.779292 168.862975 
L 543.54428 169.935595 
L 546.720939 170.834796 
L 549.897598 171.889739 
L 554.662587 173.766487 
L 559.427575 175.977911 
L 564.192564 178.476518 
L 570.545882 182.12518 
L 584.840847 190.560105 
L 589.605835 193.109798 
L 594.370824 195.40481 
L 599.135812 197.396194 
L 603.900801 199.050625 
L 607.07746 199.95591 
L 610.254118 200.698638 
L 613.430777 201.276572 
L 616.607436 201.688467 
L 619.784095 201.933724 
L 622.960754 202.012035 
L 626.137413 201.923299 
L 629.314072 201.667524 
L 632.490731 201.24478 
L 635.66739 200.655389 
L 638.844049 199.900165 
L 642.020708 198.980584 
L 645.197367 197.899222 
L 649.962355 195.983446 
L 654.727344 193.735951 
L 659.492332 191.192881 
L 664.257321 188.40634 
L 670.610639 184.434975 
L 681.728945 177.394263 
L 686.493933 174.608309 
L 691.258922 172.102247 
L 694.435581 170.625046 
L 697.61224 169.321608 
L 700.788899 168.201363 
L 703.965558 167.267286 
L 707.142217 166.516113 
L 710.318876 165.939061 
L 715.083864 165.369311 
L 719.848853 165.100494 
L 724.613841 165.064087 
L 730.967159 165.25777 
L 746.850454 166.126865 
L 757.96876 166.574516 
L 777.028714 167.246055 
L 783.382032 167.788749 
L 788.14702 168.436614 
L 792.912009 169.354206 
L 797.676997 170.58861 
L 800.853656 171.60308 
L 805.618644 173.419708 
L 810.383633 175.576268 
L 815.148621 178.030181 
L 821.501939 181.641651 
L 837.385234 190.987112 
L 842.150222 193.499649 
L 846.915211 195.748486 
L 851.680199 197.687222 
L 856.445188 199.284999 
L 859.621847 200.151124 
L 862.798506 200.853997 
L 865.975165 201.391762 
L 869.151824 201.763312 
L 872.328482 201.968079 
L 875.505141 202.005876 
L 878.6818 201.876614 
L 881.858459 201.5803 
L 885.035118 201.117105 
L 888.211777 200.487403 
L 891.388436 199.692137 
L 894.565095 198.733024 
L 897.741754 197.61303 
L 902.506743 195.641678 
L 907.271731 193.34359 
L 912.036719 190.757158 
L 916.801708 187.937319 
L 924.743355 182.923012 
L 934.273332 176.928514 
L 939.038321 174.181868 
L 943.803309 171.728714 
L 946.979968 170.292409 
L 950.156627 169.032842 
L 953.333286 167.957756 
L 956.509945 167.068537 
L 959.686604 166.360607 
L 962.863263 165.823918 
L 967.628251 165.30719 
L 972.39324 165.080659 
L 977.158228 165.075334 
L 983.511546 165.293611 
L 993.041523 165.818963 
L 994.629852 174.451735 
L 996.218182 216.134975 
L 996.218182 216.134975 
" style="fill:none;stroke:#1f77b4;stroke-linecap:square;stroke-width:1.5;"/>
   </g>
   <g id="line2d_13">
    <path clip-path="url(#p76269ad31e)" d="M 184.581818 167.394968 
L 186.170148 172.47899 
L 189.346807 174.579471 
L 200.465113 179.892859 
L 206.818431 182.720774 
L 213.171749 185.321528 
L 217.936737 187.08301 
L 222.701726 188.649948 
L 227.466714 189.994058 
L 232.231703 191.089835 
L 236.996691 191.915614 
L 241.761679 192.454345 
L 246.526668 192.693826 
L 251.291656 192.626703 
L 256.056645 192.25093 
L 260.821633 191.56949 
L 265.586622 190.590965 
L 270.35161 189.329415 
L 275.116598 187.80474 
L 279.881587 186.042303 
L 284.646575 184.072526 
L 290.999893 181.183139 
L 298.941541 177.271807 
L 327.531471 162.842954 
L 333.884789 160.014766 
L 340.238107 157.470028 
L 345.003096 155.785136 
L 349.768084 154.319108 
L 354.533072 153.093769 
L 359.298061 152.127988 
L 364.063049 151.437409 
L 368.828038 151.034043 
L 373.593026 150.926273 
L 378.358015 151.118334 
L 383.123003 151.610328 
L 387.887991 152.397611 
L 392.65298 153.470408 
L 397.417968 154.813552 
L 402.182957 156.40582 
L 406.947945 158.220322 
L 413.301263 160.928813 
L 419.654581 163.887173 
L 429.184558 168.593434 
L 446.656182 177.267308 
L 454.59783 180.965389 
L 460.951147 183.716331 
L 467.304465 186.216042 
L 472.069454 187.884829 
L 476.834442 189.344812 
L 481.599431 190.568989 
L 486.364419 191.533541 
L 491.129408 192.219109 
L 495.894396 192.610906 
L 500.659384 192.699188 
L 505.424373 192.479193 
L 510.189361 191.951381 
L 514.95435 191.121457 
L 519.719338 190.000703 
L 524.484327 188.606055 
L 529.249315 186.960194 
L 534.014304 185.091055 
L 540.367621 182.30813 
L 546.720939 179.271361 
L 556.250916 174.432882 
L 573.72254 165.510055 
L 581.664188 161.763967 
L 588.017506 159.033455 
L 592.782494 157.183689 
L 597.547483 155.53263 
L 602.312471 154.104122 
L 607.07746 152.919569 
L 611.842448 151.997303 
L 616.607436 151.352435 
L 621.372425 150.996419 
L 626.137413 150.936949 
L 630.902402 151.177623 
L 635.66739 151.717816 
L 640.432379 152.552019 
L 645.197367 153.669776 
L 649.962355 155.054772 
L 654.727344 156.684946 
L 659.492332 158.532454 
L 665.84565 161.276073 
L 673.787298 165.030612 
L 686.493933 171.377669 
L 699.200569 177.636068 
L 707.142217 181.310229 
L 713.495535 184.034201 
L 719.848853 186.49887 
L 724.613841 188.135814 
L 729.378829 189.559436 
L 734.143818 190.743147 
L 738.908806 191.663766 
L 743.673795 192.302676 
L 748.438783 192.64594 
L 753.203772 192.684524 
L 757.96876 192.414628 
L 762.733748 191.837448 
L 767.498737 190.959571 
L 772.263725 189.793258 
L 777.028714 188.356252 
L 781.793702 186.672246 
L 786.558691 184.769985 
L 792.912009 181.951575 
L 799.265326 178.890069 
L 808.795303 174.034123 
L 824.678598 165.912153 
L 832.620246 162.134417 
L 838.973563 159.369059 
L 843.738552 157.487739 
L 848.50354 155.80079 
L 853.268529 154.332539 
L 858.033517 153.104685 
L 862.798506 152.136228 
L 867.563494 151.442864 
L 872.328482 151.036599 
L 877.093471 150.925834 
L 881.858459 151.11494 
L 886.623448 151.603994 
L 891.388436 152.388365 
L 896.153425 153.458441 
L 900.918413 154.79896 
L 905.683402 156.388875 
L 910.44839 158.201281 
L 916.801708 160.907591 
L 923.155026 163.864462 
L 932.685003 168.569666 
L 950.156627 177.244608 
L 958.098274 180.944112 
L 964.451592 183.696726 
L 970.80491 186.198511 
L 975.569899 187.869232 
L 980.334887 189.331468 
L 985.099875 190.558059 
L 989.864864 191.525281 
L 993.041523 192.011382 
L 994.629852 207.040896 
L 996.218182 134.452503 
L 996.218182 134.452503 
" style="fill:none;stroke:#ff7f0e;stroke-linecap:square;stroke-width:1.5;"/>
   </g>
   <g id="line2d_14">
    <path clip-path="url(#p76269ad31e)" d="M 184.581818 182.90397 
L 186.170148 175.107796 
L 187.758477 172.053025 
L 202.053442 173.172228 
L 211.583419 174.481302 
L 224.290055 176.215663 
L 232.231703 177.0635 
L 240.17335 177.656064 
L 246.526668 177.926362 
L 252.879986 178.001157 
L 259.233304 177.866281 
L 265.586622 177.509633 
L 271.93994 176.928893 
L 278.293257 176.144159 
L 289.411564 174.480677 
L 297.353211 173.387434 
L 302.1182 172.933867 
L 306.883188 172.725078 
L 311.648176 172.819999 
L 314.824835 173.068933 
L 319.589824 173.723544 
L 324.354812 174.690675 
L 329.119801 175.91436 
L 335.473119 177.80809 
L 348.179754 181.700682 
L 352.944743 182.947635 
L 357.709731 183.980343 
L 362.47472 184.756411 
L 367.239708 185.247116 
L 372.004697 185.436406 
L 376.769685 185.319559 
L 381.534674 184.902259 
L 386.299662 184.200646 
L 391.06465 183.241577 
L 395.829639 182.062975 
L 402.182957 180.238168 
L 419.654581 175.002202 
L 424.419569 173.884988 
L 429.184558 173.031194 
L 433.949546 172.478709 
L 438.714535 172.2372 
L 443.479523 172.287401 
L 448.244512 172.586057 
L 454.59783 173.267689 
L 464.127806 174.592921 
L 475.246113 176.11563 
L 483.18776 176.987366 
L 491.129408 177.607801 
L 497.482725 177.902229 
L 503.836043 178.002964 
L 510.189361 177.895883 
L 516.542679 177.568193 
L 522.895997 177.015792 
L 529.249315 176.255058 
L 538.779292 174.84972 
L 548.309269 173.484519 
L 553.074257 172.996269 
L 557.839246 172.74067 
L 562.604234 172.780337 
L 565.780893 172.990329 
L 568.957552 173.351585 
L 573.72254 174.166111 
L 578.487529 175.268863 
L 583.252517 176.591549 
L 592.782494 179.550379 
L 600.724142 181.91464 
L 605.48913 183.130416 
L 610.254118 184.124147 
L 615.019107 184.855653 
L 619.784095 185.298425 
L 624.549084 185.438266 
L 629.314072 185.272121 
L 634.079061 184.807494 
L 638.844049 184.06217 
L 643.609038 183.064672 
L 648.374026 181.85496 
L 654.727344 180.003308 
L 670.610639 175.216296 
L 675.375627 174.059436 
L 680.140616 173.157018 
L 684.905604 172.551334 
L 689.670592 172.257009 
L 694.435581 172.259706 
L 699.200569 172.519574 
L 705.553887 173.166507 
L 715.083864 174.474445 
L 727.7905 176.209952 
L 735.732147 177.059157 
L 743.673795 177.653379 
L 750.027113 177.925044 
L 756.380431 178.001386 
L 762.733748 177.868104 
L 769.087066 177.513083 
L 775.440384 176.933968 
L 781.793702 176.15065 
L 792.912009 174.48782 
L 800.853656 173.392934 
L 805.618644 172.937279 
L 810.383633 172.725711 
L 815.148621 172.81743 
L 818.32528 173.064123 
L 823.090269 173.715461 
L 827.855257 174.679684 
L 832.620246 175.901184 
L 838.973563 177.793388 
L 851.680199 181.687436 
L 856.445188 182.936263 
L 861.210176 183.971315 
L 865.975165 184.750062 
L 870.740153 185.243724 
L 875.505141 185.436037 
L 880.27013 185.322161 
L 885.035118 184.907827 
L 889.800107 184.208965 
L 894.565095 183.252216 
L 899.330084 182.075583 
L 905.683402 180.252508 
L 923.155026 175.014434 
L 927.920014 173.894898 
L 932.685003 173.038227 
L 937.449991 172.482679 
L 942.21498 172.238139 
L 946.979968 172.28558 
L 951.744956 172.58203 
L 958.098274 173.261775 
L 967.628251 174.586069 
L 978.746558 176.10973 
L 986.688205 176.982873 
L 993.041523 177.47302 
L 994.629852 173.13475 
L 996.218182 171.747506 
L 996.218182 171.747506 
" style="fill:none;stroke:#2ca02c;stroke-linecap:square;stroke-width:1.5;"/>
   </g>
   <g id="line2d_15">
    <path clip-path="url(#p76269ad31e)" d="M 184.581818 161.364097 
L 186.170148 167.507266 
L 187.758477 174.727957 
L 189.346807 179.83201 
L 195.700125 198.004379 
L 200.465113 210.96559 
L 203.641772 219.145508 
L 206.818431 226.888656 
L 209.99509 234.146485 
L 213.171749 240.879146 
L 216.348408 247.055038 
L 219.525067 252.649942 
L 222.701726 257.646097 
L 225.878385 262.03082 
L 229.055044 265.795988 
L 232.231703 268.936461 
L 233.820032 270.271522 
L 235.408362 271.449516 
L 236.996691 272.470282 
L 238.58502 273.333916 
L 240.17335 274.040306 
L 241.761679 274.589556 
L 243.350009 274.98173 
L 244.938338 275.216869 
L 246.526668 275.294933 
L 248.114997 275.216154 
L 249.703327 274.980606 
L 251.291656 274.588359 
L 252.879986 274.039518 
L 254.468315 273.334133 
L 256.056645 272.472378 
L 257.644974 271.454368 
L 259.233304 270.280326 
L 260.821633 268.950519 
L 262.409963 267.46525 
L 265.586622 264.030234 
L 268.763281 259.979914 
L 271.93994 255.321639 
L 275.116598 250.066069 
L 278.293257 244.228089 
L 281.469916 237.827906 
L 284.646575 230.891944 
L 287.823234 223.45356 
L 290.999893 215.554015 
L 295.764882 202.950198 
L 300.52987 189.622899 
L 306.883188 171.144698 
L 318.001494 138.672169 
L 322.766483 125.411711 
L 327.531471 112.897131 
L 330.70813 105.066167 
L 333.884789 97.700866 
L 337.061448 90.839623 
L 340.238107 84.512953 
L 343.414766 78.744265 
L 346.591425 73.550982 
L 349.768084 68.945419 
L 352.944743 64.935906 
L 356.121402 61.527832 
L 359.298061 58.724026 
L 360.88639 57.549302 
L 362.47472 56.526086 
L 364.063049 55.654411 
L 365.651379 54.934325 
L 367.239708 54.365852 
L 368.828038 53.94876 
L 370.416367 53.683192 
L 372.004697 53.568908 
L 373.593026 53.60602 
L 375.181356 53.794303 
L 376.769685 54.13375 
L 378.358015 54.624335 
L 379.946344 55.265859 
L 381.534674 56.058338 
L 383.123003 57.001594 
L 384.711333 58.095467 
L 386.299662 59.339805 
L 387.887991 60.734358 
L 391.06465 63.972728 
L 394.241309 67.806955 
L 397.417968 72.231617 
L 400.594627 77.238553 
L 403.771286 82.816234 
L 406.947945 88.94907 
L 410.124604 95.615973 
L 413.301263 102.790091 
L 416.477922 110.437439 
L 421.242911 122.702757 
L 426.007899 135.763204 
L 432.361217 154.03737 
L 446.656182 195.710207 
L 451.421171 208.795797 
L 456.186159 221.06579 
L 459.362818 228.695346 
L 462.539477 235.829114 
L 465.716136 242.429304 
L 468.892795 248.466283 
L 472.069454 253.917398 
L 475.246113 258.766158 
L 478.422772 263.001243 
L 481.599431 266.615272 
L 483.18776 268.187899 
L 484.77609 269.603731 
L 486.364419 270.862608 
L 487.952749 271.964345 
L 489.541078 272.908903 
L 491.129408 273.696224 
L 492.717737 274.326422 
L 494.306067 274.799415 
L 495.894396 275.115382 
L 497.482725 275.274313 
L 499.071055 275.276353 
L 500.659384 275.121535 
L 502.247714 274.809914 
L 503.836043 274.34166 
L 505.424373 273.716869 
L 507.012702 272.93558 
L 508.601032 271.998011 
L 510.189361 270.904315 
L 511.777691 269.654683 
L 513.36602 268.249463 
L 516.542679 264.973627 
L 519.719338 261.081097 
L 522.895997 256.578435 
L 526.072656 251.47537 
L 529.249315 245.785614 
L 532.425974 239.527942 
L 535.602633 232.72705 
L 538.779292 225.414393 
L 541.955951 217.629172 
L 546.720939 205.170883 
L 551.485928 191.951818 
L 557.839246 173.549672 
L 570.545882 136.486628 
L 575.31087 123.33189 
L 580.075858 110.957297 
L 583.252517 103.235291 
L 586.429176 95.989062 
L 589.605835 89.254939 
L 592.782494 83.061664 
L 595.959153 77.431174 
L 599.135812 72.379463 
L 602.312471 67.91789 
L 605.48913 64.0539 
L 608.665789 60.792122 
L 610.254118 59.387986 
L 611.842448 58.135222 
L 613.430777 57.033999 
L 615.019107 56.084284 
L 616.607436 55.286207 
L 618.195766 54.639622 
L 619.784095 54.144586 
L 621.372425 53.801035 
L 622.960754 53.608879 
L 624.549084 53.568 
L 626.137413 53.678469 
L 627.725743 53.940108 
L 629.314072 54.352863 
L 630.902402 54.916685 
L 632.490731 55.631477 
L 634.079061 56.497079 
L 635.66739 57.513451 
L 637.25572 58.680351 
L 638.844049 59.997595 
L 642.020708 63.081911 
L 645.197367 66.763167 
L 648.374026 71.036449 
L 651.550685 75.89447 
L 654.727344 81.326572 
L 657.904003 87.318237 
L 661.080662 93.849971 
L 664.257321 100.896437 
L 667.43398 108.425601 
L 670.610639 116.397965 
L 675.375627 129.081275 
L 680.140616 142.458133 
L 688.082263 165.646959 
L 697.61224 193.398786 
L 702.377228 206.601884 
L 707.142217 219.026842 
L 710.318876 226.776838 
L 713.495535 234.042197 
L 716.672194 240.782944 
L 719.848853 246.967302 
L 723.025511 252.571002 
L 726.20217 257.576163 
L 729.378829 261.970091 
L 732.555488 265.744505 
L 735.732147 268.894288 
L 737.320477 270.234041 
L 738.908806 271.416702 
L 740.497136 272.442199 
L 742.085465 273.3105 
L 743.673795 274.021557 
L 745.262124 274.57549 
L 746.850454 274.972324 
L 748.438783 275.212114 
L 750.027113 275.294933 
L 751.615442 275.220806 
L 753.203772 274.989956 
L 754.792101 274.602328 
L 756.380431 274.058122 
L 757.96876 273.357388 
L 759.557089 272.500269 
L 761.145419 271.486917 
L 762.733748 270.317543 
L 764.322078 268.99237 
L 765.910407 267.511769 
L 769.087066 264.085886 
L 772.263725 260.044667 
L 775.440384 255.395333 
L 778.617043 250.148615 
L 781.793702 244.31915 
L 784.970361 237.927225 
L 788.14702 230.998983 
L 791.323679 223.567812 
L 794.500338 215.674733 
L 799.265326 203.079203 
L 804.030315 189.757966 
L 810.383633 171.283855 
L 821.501939 138.806765 
L 826.266928 125.540004 
L 831.031916 113.01699 
L 834.208575 105.179431 
L 837.385234 97.806909 
L 840.561893 90.937929 
L 843.738552 84.603074 
L 846.915211 78.825976 
L 850.09187 73.624033 
L 853.268529 69.009626 
L 856.445188 64.991196 
L 859.621847 61.57411 
L 862.798506 58.761323 
L 864.386835 57.582076 
L 865.975165 56.554338 
L 867.563494 55.678197 
L 869.151824 54.953596 
L 870.740153 54.380537 
L 872.328482 53.959002 
L 873.916812 53.688863 
L 875.505141 53.570145 
L 877.093471 53.602726 
L 878.6818 53.786511 
L 880.27013 54.121475 
L 881.858459 54.60749 
L 883.446789 55.244588 
L 885.035118 56.032512 
L 886.623448 56.97131 
L 888.211777 58.060741 
L 889.800107 59.300604 
L 891.388436 60.690699 
L 894.565095 63.92012 
L 897.741754 67.745552 
L 900.918413 72.161458 
L 904.095072 77.159806 
L 907.271731 82.729133 
L 910.44839 88.853775 
L 913.625049 95.512959 
L 916.801708 102.679687 
L 919.978367 110.320327 
L 923.155026 118.393307 
L 927.920014 131.203019 
L 932.685003 144.671127 
L 940.62665 167.919174 
L 948.568297 191.071546 
L 953.333286 204.384964 
L 958.098274 216.958906 
L 961.274933 224.826183 
L 964.451592 232.220507 
L 967.628251 239.09964 
L 970.80491 245.42982 
L 973.981569 251.184997 
L 977.158228 256.34561 
L 980.334887 260.897794 
L 983.511546 264.83236 
L 986.688205 268.143252 
L 988.276534 269.563839 
L 989.864864 270.827311 
L 991.453193 271.92794 
L 993.041523 272.874208 
L 994.629852 295.488 
L 996.218182 196.811852 
L 996.218182 196.811852 
" style="fill:none;stroke:#d62728;stroke-linecap:square;stroke-width:1.5;"/>
   </g>
   <g id="line2d_16">
    <path clip-path="url(#p76269ad31e)" d="M 184.581818 180.173272 
L 186.170148 171.418747 
L 187.758477 173.007505 
L 189.346807 172.702674 
L 194.111795 172.367783 
L 198.876783 171.804215 
L 203.641772 171.025462 
L 209.99509 169.696774 
L 219.525067 167.359653 
L 227.466714 165.48087 
L 232.231703 164.538661 
L 236.996691 163.809855 
L 241.761679 163.338114 
L 246.526668 163.149761 
L 251.291656 163.253414 
L 256.056645 163.639663 
L 260.821633 164.281709 
L 265.586622 165.136677 
L 271.93994 166.507816 
L 286.234905 169.746434 
L 292.588223 170.886938 
L 297.353211 171.529337 
L 302.1182 171.981819 
L 308.471518 172.331621 
L 318.001494 172.548133 
L 329.119801 172.842392 
L 337.061448 173.288924 
L 348.179754 174.191781 
L 359.298061 175.070757 
L 367.239708 175.452035 
L 373.593026 175.532876 
L 379.946344 175.40159 
L 387.887991 174.979826 
L 402.182957 173.881456 
L 411.712934 173.28955 
L 419.654581 173.044143 
L 441.891194 172.678716 
L 446.656182 172.291301 
L 451.421171 171.692628 
L 456.186159 170.8805 
L 462.539477 169.518047 
L 483.18776 164.68664 
L 487.952749 163.917678 
L 492.717737 163.399429 
L 497.482725 163.161354 
L 502.247714 163.215041 
L 507.012702 163.554183 
L 511.777691 164.154998 
L 516.542679 164.977094 
L 522.895997 166.321302 
L 538.779292 169.900126 
L 543.54428 170.75748 
L 548.309269 171.432809 
L 553.074257 171.917023 
L 559.427575 172.299838 
L 567.369223 172.508006 
L 580.075858 172.808982 
L 588.017506 173.233089 
L 597.547483 173.98306 
L 611.842448 175.119551 
L 618.195766 175.426383 
L 624.549084 175.53451 
L 630.902402 175.429852 
L 638.844049 175.03384 
L 649.962355 174.192109 
L 661.080662 173.411368 
L 669.022309 173.093655 
L 678.552286 172.988875 
L 689.670592 172.8629 
L 694.435581 172.629399 
L 699.200569 172.209229 
L 703.965558 171.575357 
L 708.730546 170.730623 
L 715.083864 169.336395 
L 734.143818 164.840695 
L 738.908806 164.032916 
L 743.673795 163.46907 
L 748.438783 163.181563 
L 753.203772 163.185135 
L 757.96876 163.476527 
L 762.733748 164.03483 
L 767.498737 164.822479 
L 773.852055 166.13704 
L 792.912009 170.345652 
L 797.676997 171.115763 
L 802.441985 171.695898 
L 807.206974 172.090533 
L 813.560292 172.383246 
L 838.973563 173.179361 
L 848.50354 173.912696 
L 862.798506 175.067684 
L 870.740153 175.450685 
L 877.093471 175.533017 
L 883.446789 175.403318 
L 891.388436 174.982969 
L 905.683402 173.88498 
L 915.213378 173.291744 
L 923.155026 173.044947 
L 945.391638 172.681609 
L 950.156627 172.296175 
L 954.921615 171.699653 
L 959.686604 170.889556 
L 966.039922 169.529071 
L 986.688205 164.695387 
L 991.453193 163.918036 
L 993.041523 163.698597 
L 994.629852 142.423314 
L 996.218182 172.992018 
L 996.218182 172.992018 
" style="fill:none;stroke:#9467bd;stroke-linecap:square;stroke-width:1.5;"/>
   </g>
   <g id="line2d_17">
    <path clip-path="url(#p76269ad31e)" d="M 184.581818 207.922849 
L 186.170148 168.924177 
L 187.758477 172.887451 
L 189.346807 172.371425 
L 194.111795 172.266387 
L 202.053442 172.211603 
L 209.99509 172.380848 
L 222.701726 172.914281 
L 243.350009 173.809468 
L 256.056645 174.11504 
L 270.35161 174.207458 
L 295.764882 174.284421 
L 305.294859 174.563886 
L 313.236506 174.997276 
L 321.178153 175.626177 
L 332.29646 176.760646 
L 349.768084 178.586434 
L 357.709731 179.174722 
L 364.063049 179.456104 
L 370.416367 179.541949 
L 376.769685 179.420343 
L 383.123003 179.091391 
L 389.476321 178.566906 
L 397.417968 177.674423 
L 406.947945 176.360314 
L 424.419569 173.891324 
L 432.361217 173.037008 
L 438.714535 172.562231 
L 445.067853 172.287602 
L 453.0095 172.205594 
L 460.951147 172.355384 
L 472.069454 172.800519 
L 495.894396 173.834635 
L 508.601032 174.126085 
L 522.895997 174.207169 
L 546.720939 174.270645 
L 556.250916 174.530276 
L 564.192564 174.943472 
L 572.134211 175.552974 
L 581.664188 176.498712 
L 602.312471 178.65333 
L 610.254118 179.218588 
L 616.607436 179.477246 
L 622.960754 179.538383 
L 629.314072 179.391346 
L 635.66739 179.037854 
L 642.020708 178.491054 
L 649.962355 177.576182 
L 661.080662 176.013417 
L 675.375627 173.993293 
L 683.317275 173.112357 
L 689.670592 172.612164 
L 696.02391 172.31191 
L 702.377228 172.202582 
L 710.318876 172.290245 
L 721.437182 172.690476 
L 751.615442 173.950285 
L 764.322078 174.170435 
L 780.205373 174.1992 
L 797.676997 174.25817 
L 807.206974 174.498635 
L 815.148621 174.891772 
L 823.090269 175.481626 
L 832.620246 176.41105 
L 854.856858 178.718274 
L 862.798506 179.259876 
L 869.151824 179.49552 
L 875.505141 179.531691 
L 881.858459 179.359384 
L 888.211777 178.981448 
L 894.565095 178.412703 
L 902.506743 177.476231 
L 913.625049 175.899511 
L 926.331685 174.097504 
L 934.273332 173.190854 
L 940.62665 172.665358 
L 946.979968 172.339503 
L 953.333286 172.206751 
L 961.274933 172.271665 
L 970.80491 172.585992 
L 993.041523 173.649164 
L 994.629852 148.036019 
L 996.218182 237.691427 
L 996.218182 237.691427 
" style="fill:none;stroke:#8c564b;stroke-linecap:square;stroke-width:1.5;"/>
   </g>
   <g id="line2d_18">
    <path clip-path="url(#p76269ad31e)" d="M 184.581818 184.340604 
L 186.170148 215.749415 
L 187.758477 209.029101 
L 195.700125 212.988051 
L 202.053442 215.949676 
L 208.40676 218.65246 
L 213.171749 220.477312 
L 217.936737 222.098967 
L 222.701726 223.48927 
L 227.466714 224.62138 
L 232.231703 225.472137 
L 236.996691 226.023307 
L 241.761679 226.263262 
L 246.526668 226.18701 
L 251.291656 225.797125 
L 256.056645 225.102756 
L 260.821633 224.119954 
L 265.586622 222.870399 
L 270.35161 221.380319 
L 275.116598 219.67872 
L 281.469916 217.132096 
L 287.823234 214.32737 
L 295.764882 210.535588 
L 303.706529 206.485933 
L 313.236506 201.355977 
L 332.29646 190.957176 
L 338.649778 187.838534 
L 343.414766 185.749144 
L 348.179754 183.930408 
L 352.944743 182.42522 
L 356.121402 181.613171 
L 359.298061 180.963699 
L 362.47472 180.482728 
L 365.651379 180.174636 
L 368.828038 180.041834 
L 372.004697 180.085379 
L 375.181356 180.304579 
L 378.358015 180.697284 
L 381.534674 181.259942 
L 384.711333 181.987263 
L 389.476321 183.372076 
L 394.241309 185.083298 
L 399.006298 187.08464 
L 403.771286 189.332563 
L 410.124604 192.627261 
L 418.066252 197.044342 
L 435.537876 206.858814 
L 443.479523 211.012169 
L 449.832841 214.114992 
L 456.186159 216.986009 
L 462.539477 219.579425 
L 467.304465 221.307256 
L 472.069454 222.817888 
L 476.834442 224.083509 
L 481.599431 225.079059 
L 486.364419 225.783324 
L 491.129408 226.181455 
L 495.894396 226.265058 
L 500.659384 226.032826 
L 505.424373 225.490625 
L 510.189361 224.651002 
L 514.95435 223.533198 
L 519.719338 222.161049 
L 524.484327 220.562537 
L 529.249315 218.767246 
L 535.602633 216.117784 
L 541.955951 213.231252 
L 549.897598 209.357522 
L 557.839246 205.240242 
L 568.957552 199.174358 
L 581.664188 192.213117 
L 588.017506 188.980585 
L 592.782494 186.773413 
L 597.547483 184.812097 
L 602.312471 183.143749 
L 607.07746 181.806954 
L 610.254118 181.115017 
L 613.430777 180.590243 
L 616.607436 180.237263 
L 619.784095 180.05916 
L 622.960754 180.057354 
L 626.137413 180.231435 
L 629.314072 180.579829 
L 632.490731 181.099133 
L 635.66739 181.78461 
L 638.844049 182.630037 
L 643.609038 184.18054 
L 648.374026 186.040363 
L 653.139014 188.169568 
L 657.904003 190.521563 
L 664.257321 193.914264 
L 675.375627 200.198717 
L 686.493933 206.416038 
L 694.435581 210.597743 
L 700.788899 213.727762 
L 707.142217 216.630858 
L 713.495535 219.263134 
L 718.260523 221.025353 
L 723.025511 222.575282 
L 727.7905 223.884903 
L 732.555488 224.928346 
L 737.320477 225.683869 
L 742.085465 226.13537 
L 746.850454 226.273239 
L 751.615442 226.094973 
L 756.380431 225.605207 
L 761.145419 224.81554 
L 765.910407 223.743869 
L 770.675396 222.413459 
L 775.440384 220.851677 
L 780.205373 219.088064 
L 786.558691 216.473253 
L 792.912009 213.614357 
L 800.853656 209.76847 
L 808.795303 205.674145 
L 818.32528 200.506612 
L 834.208575 191.80734 
L 840.561893 188.609172 
L 845.326881 186.438228 
L 850.09187 184.521271 
L 854.856858 182.904161 
L 858.033517 182.011452 
L 861.210176 181.277419 
L 864.386835 180.709028 
L 867.563494 180.311509 
L 870.740153 180.088184 
L 873.916812 180.040931 
L 877.093471 180.169881 
L 880.27013 180.473655 
L 883.446789 180.949299 
L 886.623448 181.592532 
L 889.800107 182.397496 
L 894.565095 183.891432 
L 899.330084 185.70083 
L 904.095072 187.786932 
L 908.86006 190.104217 
L 915.213378 193.464957 
L 924.743355 198.826298 
L 937.449991 205.970808 
L 945.391638 210.180072 
L 951.744956 213.336844 
L 958.098274 216.271301 
L 964.451592 218.941436 
L 969.216581 220.737192 
L 973.981569 222.325599 
L 978.746558 223.678349 
L 983.511546 224.769162 
L 988.276534 225.575409 
L 993.041523 226.120755 
L 994.629852 224.237387 
L 996.218182 221.110072 
L 996.218182 221.110072 
" style="fill:none;stroke:#e377c2;stroke-linecap:square;stroke-width:1.5;"/>
   </g>
   <g id="line2d_19">
    <path clip-path="url(#p76269ad31e)" d="M 184.581818 157.346078 
L 186.170148 173.99702 
L 187.758477 173.985626 
L 189.346807 173.396589 
L 194.111795 172.777212 
L 224.290055 169.148935 
L 232.231703 168.451625 
L 240.17335 167.962727 
L 248.114997 167.709343 
L 256.056645 167.70327 
L 263.998292 167.942348 
L 271.93994 168.409284 
L 281.469916 169.221636 
L 294.176552 170.582934 
L 319.589824 173.391665 
L 332.29646 174.547483 
L 345.003096 175.475135 
L 357.709731 176.167724 
L 368.828038 176.569802 
L 379.946344 176.764004 
L 391.06465 176.731214 
L 402.182957 176.450342 
L 411.712934 175.995142 
L 421.242911 175.333468 
L 432.361217 174.312392 
L 445.067853 172.876884 
L 476.834442 169.07321 
L 484.77609 168.394496 
L 492.717737 167.92752 
L 500.659384 167.697812 
L 508.601032 167.715882 
L 516.542679 167.978078 
L 524.484327 168.465646 
L 534.014304 169.296964 
L 546.720939 170.670842 
L 570.545882 173.309854 
L 583.252517 174.479866 
L 595.959153 175.422424 
L 608.665789 176.130455 
L 619.784095 176.547086 
L 630.902402 176.757236 
L 642.020708 176.741833 
L 653.139014 176.479939 
L 662.668991 176.042295 
L 672.198968 175.398281 
L 681.728945 174.554423 
L 692.847251 173.353071 
L 710.318876 171.184035 
L 724.613841 169.481948 
L 734.143818 168.57939 
L 742.085465 168.044766 
L 750.027113 167.741482 
L 757.96876 167.684209 
L 765.910407 167.87368 
L 773.852055 168.295861 
L 783.382032 169.065888 
L 794.500338 170.21919 
L 826.266928 173.696622 
L 838.973563 174.797422 
L 851.680199 175.667839 
L 864.386835 176.300868 
L 875.505141 176.646283 
L 886.623448 176.778599 
L 897.741754 176.678229 
L 907.271731 176.39049 
L 916.801708 175.902254 
L 926.331685 175.207339 
L 937.449991 174.151843 
L 950.156627 172.688496 
L 978.746558 169.235734 
L 988.276534 168.397934 
L 993.041523 168.138227 
L 994.629852 166.947314 
L 996.218182 174.86883 
L 996.218182 174.86883 
" style="fill:none;stroke:#7f7f7f;stroke-linecap:square;stroke-width:1.5;"/>
   </g>
   <g id="line2d_20">
    <path clip-path="url(#p76269ad31e)" d="M 184.581818 182.489496 
L 186.170148 172.580297 
L 187.758477 172.296844 
L 189.346807 172.65365 
L 195.700125 172.697433 
L 205.230101 172.99984 
L 233.820032 174.060336 
L 248.114997 174.285618 
L 263.998292 174.299029 
L 279.881587 174.083844 
L 303.706529 173.705912 
L 311.648176 173.793318 
L 319.589824 174.101528 
L 327.531471 174.654959 
L 337.061448 175.581438 
L 354.533072 177.391577 
L 362.47472 177.949849 
L 368.828038 178.178469 
L 375.181356 178.184208 
L 381.534674 177.960886 
L 387.887991 177.522226 
L 395.829639 176.723354 
L 406.947945 175.333078 
L 418.066252 173.974179 
L 426.007899 173.231922 
L 432.361217 172.846407 
L 438.714535 172.660879 
L 446.656182 172.682006 
L 456.186159 172.967427 
L 486.364419 174.078217 
L 500.659384 174.291743 
L 516.542679 174.293655 
L 532.425974 174.068814 
L 554.662587 173.707057 
L 564.192564 173.81273 
L 572.134211 174.144625 
L 580.075858 174.720748 
L 589.605835 175.664257 
L 607.07746 177.456988 
L 615.019107 177.988764 
L 621.372425 178.191357 
L 627.725743 178.169259 
L 634.079061 177.918642 
L 640.432379 177.455759 
L 648.374026 176.634246 
L 661.080662 175.028496 
L 670.610639 173.891279 
L 678.552286 173.174632 
L 684.905604 172.813344 
L 691.258922 172.651436 
L 699.200569 172.696505 
L 708.730546 172.997952 
L 737.320477 174.059219 
L 751.615442 174.285197 
L 767.498737 174.299371 
L 783.382032 174.08472 
L 807.206974 173.705936 
L 815.148621 173.792194 
L 823.090269 174.098966 
L 831.031916 174.65095 
L 840.561893 175.576401 
L 859.621847 177.520234 
L 867.563494 178.024767 
L 873.916812 178.200884 
L 880.27013 178.150852 
L 886.623448 177.873285 
L 892.976766 177.386722 
L 900.918413 176.543652 
L 927.920014 173.362766 
L 934.273332 172.926463 
L 940.62665 172.689994 
L 948.568297 172.657782 
L 958.098274 172.905276 
L 993.041523 174.131218 
L 994.629852 185.908888 
L 996.218182 116.926422 
L 996.218182 116.926422 
" style="fill:none;stroke:#bcbd22;stroke-linecap:square;stroke-width:1.5;"/>
   </g>
   <g id="line2d_21">
    <path clip-path="url(#p76269ad31e)" d="M 184.581818 166.081798 
L 186.170148 172.426242 
L 187.758477 175.949146 
L 194.111795 180.755076 
L 198.876783 184.005013 
L 203.641772 186.931357 
L 208.40676 189.500862 
L 211.583419 191.008317 
L 214.760078 192.351178 
L 217.936737 193.532176 
L 222.701726 195.010834 
L 227.466714 196.156351 
L 232.231703 196.990853 
L 236.996691 197.534874 
L 241.761679 197.804934 
L 246.526668 197.811959 
L 251.291656 197.560254 
L 256.056645 197.047574 
L 260.821633 196.265325 
L 265.586622 195.199856 
L 270.35161 193.834141 
L 275.116598 192.150446 
L 279.881587 190.133447 
L 284.646575 187.774496 
L 289.411564 185.075587 
L 294.176552 182.053921 
L 298.941541 178.744758 
L 305.294859 173.982738 
L 325.943142 158.004283 
L 330.70813 154.730297 
L 335.473119 151.761714 
L 340.238107 149.14046 
L 343.414766 147.599057 
L 346.591425 146.227609 
L 349.768084 145.027892 
L 352.944743 143.999915 
L 356.121402 143.142802 
L 359.298061 142.454444 
L 362.47472 141.932877 
L 365.651379 141.575864 
L 368.828038 141.381665 
L 372.004697 141.348959 
L 375.181356 141.477188 
L 378.358015 141.766264 
L 381.534674 142.216951 
L 384.711333 142.830321 
L 387.887991 143.608027 
L 391.06465 144.55176 
L 394.241309 145.662843 
L 397.417968 146.942108 
L 400.594627 148.3892 
L 405.359616 150.869862 
L 410.124604 153.707507 
L 414.889593 156.872002 
L 419.654581 160.316131 
L 426.007899 165.229011 
L 443.479523 179.007554 
L 448.244512 182.401414 
L 453.0095 185.496697 
L 457.774489 188.2492 
L 462.539477 190.636034 
L 465.716136 192.02107 
L 468.892795 193.243397 
L 473.657783 194.781324 
L 478.422772 195.982446 
L 483.18776 196.868793 
L 487.952749 197.461337 
L 492.717737 197.777502 
L 497.482725 197.829147 
L 502.247714 197.621862 
L 507.012702 197.154445 
L 511.777691 196.419272 
L 516.542679 195.403537 
L 521.307668 194.090664 
L 526.072656 192.462755 
L 530.837645 190.503812 
L 535.602633 188.203703 
L 540.367621 185.562466 
L 545.13261 182.594177 
L 549.897598 179.331077 
L 554.662587 175.824412 
L 562.604234 169.635688 
L 573.72254 160.941299 
L 578.487529 157.456487 
L 583.252517 154.228258 
L 588.017506 151.313469 
L 592.782494 148.751165 
L 595.959153 147.250704 
L 599.135812 145.920794 
L 602.312471 144.762836 
L 605.48913 143.776409 
L 608.665789 142.960378 
L 611.842448 142.312729 
L 615.019107 141.831196 
L 618.195766 141.513814 
L 621.372425 141.358916 
L 624.549084 141.36528 
L 627.725743 141.532523 
L 630.902402 141.860669 
L 634.079061 142.350711 
L 637.25572 143.003786 
L 640.432379 143.821626 
L 643.609038 144.805816 
L 646.785696 145.957681 
L 649.962355 147.277763 
L 653.139014 148.765351 
L 657.904003 151.305135 
L 662.668991 154.198117 
L 667.43398 157.411473 
L 672.198968 160.895192 
L 678.552286 165.841641 
L 694.435581 178.399501 
L 699.200569 181.838626 
L 703.965558 184.988851 
L 708.730546 187.802425 
L 713.495535 190.252776 
L 716.672194 191.68021 
L 719.848853 192.944063 
L 724.613841 194.541869 
L 729.378829 195.799304 
L 734.143818 196.73809 
L 738.908806 197.379694 
L 743.673795 197.742298 
L 748.438783 197.838797 
L 753.203772 197.675837 
L 757.96876 197.253363 
L 762.733748 196.564997 
L 767.498737 195.598483 
L 772.263725 194.337897 
L 777.028714 192.765267 
L 781.793702 190.86407 
L 786.558691 188.622905 
L 791.323679 186.039608 
L 796.088667 183.125713 
L 800.853656 179.910086 
L 805.618644 176.440735 
L 811.971962 171.53843 
L 826.266928 160.363349 
L 831.031916 156.915281 
L 835.796904 153.734443 
L 840.561893 150.874387 
L 845.326881 148.371666 
L 848.50354 146.912358 
L 851.680199 145.624163 
L 854.856858 144.507848 
L 858.033517 143.562887 
L 861.210176 142.787984 
L 864.386835 142.180726 
L 867.563494 141.739186 
L 870.740153 141.461392 
L 873.916812 141.345686 
L 877.093471 141.391063 
L 880.27013 141.597318 
L 883.446789 141.964685 
L 886.623448 142.494004 
L 889.800107 143.186993 
L 892.976766 144.044996 
L 896.153425 145.069772 
L 899.330084 146.262351 
L 902.506743 147.623254 
L 905.683402 149.151202 
L 910.44839 151.749743 
L 915.213378 154.697119 
L 919.978367 157.958075 
L 924.743355 161.479677 
L 931.096673 166.45662 
L 945.391638 177.784949 
L 950.156627 181.267274 
L 954.921615 184.471112 
L 959.686604 187.344887 
L 964.451592 189.858597 
L 967.628251 191.328473 
L 970.80491 192.634164 
L 975.569899 194.292443 
L 980.334887 195.606777 
L 985.099875 196.598634 
L 989.864864 197.289874 
L 993.041523 197.560127 
L 994.629852 196.802271 
L 996.218182 138.405991 
L 996.218182 138.405991 
" style="fill:none;stroke:#17becf;stroke-linecap:square;stroke-width:1.5;"/>
   </g>
   <g id="line2d_22">
    <path clip-path="url(#p76269ad31e)" d="M 184.581818 179.467807 
L 186.170148 173.362443 
L 187.758477 172.800871 
L 189.346807 173.082381 
L 216.348408 172.91226 
L 236.996691 172.47214 
L 248.114997 172.497977 
L 262.409963 172.808304 
L 276.704928 173.100448 
L 286.234905 173.088102 
L 300.52987 172.785013 
L 310.059847 172.687989 
L 316.413165 172.822367 
L 322.766483 173.164072 
L 330.70813 173.859979 
L 343.414766 175.2943 
L 352.944743 176.277825 
L 359.298061 176.753921 
L 365.651379 177.033845 
L 372.004697 177.09721 
L 378.358015 176.94392 
L 384.711333 176.592572 
L 392.65298 175.931758 
L 419.654581 173.432986 
L 427.596228 173.109544 
L 435.537876 173.030061 
L 464.127806 173.004463 
L 494.306067 172.455094 
L 505.424373 172.592856 
L 534.014304 173.118788 
L 545.13261 172.956345 
L 561.015905 172.684386 
L 567.369223 172.793718 
L 573.72254 173.108418 
L 580.075858 173.622557 
L 589.605835 174.64826 
L 603.900801 176.204197 
L 611.842448 176.798975 
L 618.195766 177.053246 
L 624.549084 177.089953 
L 630.902402 176.911287 
L 637.25572 176.538061 
L 645.197367 175.857902 
L 669.022309 173.584878 
L 676.963957 173.178845 
L 684.905604 173.033663 
L 697.61224 173.105559 
L 710.318876 173.09719 
L 723.025511 172.831566 
L 740.497136 172.472563 
L 751.615442 172.497377 
L 765.910407 172.807062 
L 781.793702 173.112531 
L 791.323679 173.066993 
L 816.736951 172.729428 
L 823.090269 172.964357 
L 829.443587 173.406798 
L 837.385234 174.194348 
L 858.033517 176.409379 
L 864.386835 176.840988 
L 870.740153 177.069444 
L 877.093471 177.079532 
L 883.446789 176.87583 
L 891.388436 176.357117 
L 900.918413 175.462426 
L 918.390037 173.760389 
L 926.331685 173.272802 
L 934.273332 173.053592 
L 943.803309 173.055521 
L 961.274933 173.106272 
L 973.981569 172.853044 
L 993.041523 172.437084 
L 994.629852 181.978793 
L 996.218182 135.455444 
L 996.218182 135.455444 
" style="fill:none;stroke:#1f77b4;stroke-linecap:square;stroke-width:1.5;"/>
   </g>
   <g id="line2d_23">
    <path clip-path="url(#p76269ad31e)" d="M 184.581818 167.3186 
L 186.170148 172.24849 
L 187.758477 172.941609 
L 189.346807 172.51911 
L 197.288454 172.103825 
L 206.818431 171.735372 
L 217.936737 171.54721 
L 235.408362 171.534871 
L 270.35161 171.748048 
L 283.058246 172.026766 
L 295.764882 172.542374 
L 318.001494 173.558874 
L 327.531471 173.740184 
L 340.238107 173.72305 
L 365.651379 173.602982 
L 383.123003 173.7997 
L 405.359616 174.049162 
L 414.889593 173.927255 
L 424.419569 173.569268 
L 437.126205 172.809227 
L 451.421171 171.99322 
L 460.951147 171.675937 
L 472.069454 171.532052 
L 492.717737 171.554214 
L 524.484327 171.784252 
L 537.190962 172.104372 
L 549.897598 172.659566 
L 568.957552 173.533642 
L 578.487529 173.732529 
L 589.605835 173.740474 
L 621.372425 173.627909 
L 642.020708 173.914426 
L 657.904003 174.047114 
L 667.43398 173.907349 
L 676.963957 173.530333 
L 689.670592 172.759423 
L 702.377228 172.030188 
L 711.907205 171.695224 
L 723.025511 171.536622 
L 742.085465 171.545442 
L 775.440384 171.771022 
L 788.14702 172.076457 
L 800.853656 172.618485 
L 821.501939 173.557476 
L 831.031916 173.739783 
L 843.738552 173.723428 
L 869.151824 173.602758 
L 886.623448 173.798985 
L 908.86006 174.049234 
L 918.390037 173.928427 
L 927.920014 173.571606 
L 940.62665 172.812287 
L 954.921615 171.995341 
L 964.451592 171.677037 
L 975.569899 171.532317 
L 993.041523 171.527674 
L 994.629852 173.864052 
L 996.218182 159.621817 
L 996.218182 159.621817 
" style="fill:none;stroke:#ff7f0e;stroke-linecap:square;stroke-width:1.5;"/>
   </g>
   <g id="line2d_24">
    <path clip-path="url(#p76269ad31e)" d="M 184.581818 182.884329 
L 186.170148 165.688114 
L 187.758477 168.347512 
L 189.346807 167.703447 
L 194.111795 166.608063 
L 198.876783 165.298247 
L 205.230101 163.301162 
L 217.936737 159.176351 
L 222.701726 157.844748 
L 227.466714 156.745258 
L 232.231703 155.933395 
L 235.408362 155.5728 
L 238.58502 155.367268 
L 241.761679 155.322658 
L 244.938338 155.44234 
L 248.114997 155.727034 
L 251.291656 156.174974 
L 254.468315 156.782017 
L 259.233304 157.975097 
L 263.998292 159.476517 
L 268.763281 161.239259 
L 275.116598 163.889657 
L 292.588223 171.454695 
L 297.353211 173.167888 
L 302.1182 174.580771 
L 305.294859 175.330913 
L 308.471518 175.918227 
L 311.648176 176.341156 
L 314.824835 176.60391 
L 319.589824 176.719406 
L 324.354812 176.545367 
L 329.119801 176.143862 
L 335.473119 175.369037 
L 349.768084 173.270525 
L 360.88639 171.76907 
L 370.416367 170.714938 
L 379.946344 169.912737 
L 387.887991 169.467156 
L 395.829639 169.250655 
L 403.771286 169.256471 
L 424.419569 169.474104 
L 429.184558 169.258832 
L 433.949546 168.825663 
L 438.714535 168.138299 
L 443.479523 167.185579 
L 448.244512 165.985038 
L 454.59783 164.081703 
L 472.069454 158.492136 
L 476.834442 157.267686 
L 481.599431 156.304498 
L 486.364419 155.651157 
L 489.541078 155.405029 
L 492.717737 155.318531 
L 495.894396 155.395715 
L 499.071055 155.638027 
L 502.247714 156.044278 
L 505.424373 156.610818 
L 510.189361 157.747328 
L 514.95435 159.198743 
L 519.719338 160.920544 
L 526.072656 163.534412 
L 545.13261 171.749349 
L 549.897598 173.418274 
L 554.662587 174.777376 
L 557.839246 175.488462 
L 561.015905 176.035828 
L 564.192564 176.41934 
L 567.369223 176.644476 
L 572.134211 176.709389 
L 576.899199 176.494149 
L 581.664188 176.062112 
L 588.017506 175.262778 
L 616.607436 171.303942 
L 626.137413 170.350086 
L 634.079061 169.757775 
L 642.020708 169.378272 
L 649.962355 169.230991 
L 659.492332 169.321745 
L 673.787298 169.516405 
L 678.552286 169.391759 
L 683.317275 169.074391 
L 688.082263 168.518473 
L 692.847251 167.699447 
L 697.61224 166.619991 
L 702.377228 165.312152 
L 708.730546 163.316688 
L 721.437182 159.190535 
L 726.20217 157.856924 
L 730.967159 156.754832 
L 735.732147 155.939836 
L 738.908806 155.577066 
L 742.085465 155.369132 
L 745.262124 155.322135 
L 748.438783 155.439313 
L 751.615442 155.721564 
L 754.792101 156.16716 
L 757.96876 156.771801 
L 762.733748 157.961668 
L 767.498737 159.460261 
L 772.263725 161.220625 
L 778.617043 163.869046 
L 796.088667 171.436404 
L 800.853656 173.152232 
L 805.618644 174.568384 
L 808.795303 175.320904 
L 811.971962 175.910677 
L 815.148621 176.336063 
L 818.32528 176.601122 
L 823.090269 176.719783 
L 827.855257 176.548387 
L 832.620246 176.148778 
L 838.973563 175.375407 
L 853.268529 173.277377 
L 864.386835 171.774878 
L 873.916812 170.719525 
L 883.446789 169.916063 
L 891.388436 169.469156 
L 899.330084 169.251209 
L 907.271731 169.255916 
L 927.920014 169.475293 
L 932.685003 169.261957 
L 937.449991 168.831142 
L 942.21498 168.146412 
L 946.979968 167.196254 
L 951.744956 165.998059 
L 958.098274 164.09682 
L 975.569899 158.505444 
L 980.334887 157.278599 
L 985.099875 156.312625 
L 989.864864 155.655961 
L 993.041523 155.458779 
L 994.629852 141.161541 
L 996.218182 178.093531 
L 996.218182 178.093531 
" style="fill:none;stroke:#2ca02c;stroke-linecap:square;stroke-width:1.5;"/>
   </g>
   <g id="line2d_25">
    <path clip-path="url(#p76269ad31e)" d="M 184.581818 166.352661 
L 186.170148 191.294194 
L 187.758477 188.208883 
L 189.346807 188.912594 
L 190.935136 189.306492 
L 202.053442 192.804949 
L 209.99509 195.051994 
L 216.348408 196.598598 
L 222.701726 197.872567 
L 227.466714 198.632693 
L 232.231703 199.219077 
L 236.996691 199.630451 
L 241.761679 199.868666 
L 248.114997 199.924525 
L 254.468315 199.694973 
L 260.821633 199.19819 
L 267.174951 198.453077 
L 273.528269 197.47677 
L 279.881587 196.281965 
L 286.234905 194.87554 
L 292.588223 193.260911 
L 298.941541 191.444878 
L 306.883188 188.926283 
L 319.589824 184.576281 
L 329.119801 181.398647 
L 335.473119 179.481265 
L 341.826437 177.804746 
L 346.591425 176.735859 
L 351.356413 175.84594 
L 356.121402 175.145796 
L 360.88639 174.642168 
L 365.651379 174.337842 
L 370.416367 174.231876 
L 375.181356 174.319505 
L 379.946344 174.592529 
L 386.299662 175.224751 
L 392.65298 176.132152 
L 399.006298 177.276709 
L 405.359616 178.62139 
L 413.301263 180.537641 
L 421.242911 182.67875 
L 430.772887 185.504791 
L 443.479523 189.55497 
L 454.59783 193.035325 
L 460.951147 194.835206 
L 467.304465 196.414054 
L 473.657783 197.724965 
L 478.422772 198.514493 
L 483.18776 199.130876 
L 487.952749 199.572268 
L 492.717737 199.839947 
L 497.482725 199.937838 
L 503.836043 199.814352 
L 510.189361 199.416554 
L 516.542679 198.763346 
L 522.895997 197.872796 
L 529.249315 196.759592 
L 535.602633 195.4328 
L 541.955951 193.89669 
L 548.309269 192.155473 
L 556.250916 189.714438 
L 565.780893 186.506569 
L 580.075858 181.659725 
L 586.429176 179.715824 
L 592.782494 178.005127 
L 599.135812 176.579498 
L 603.900801 175.719655 
L 608.665789 175.050923 
L 613.430777 174.579435 
L 618.195766 174.307373 
L 622.960754 174.233105 
L 627.725743 174.351353 
L 632.490731 174.653336 
L 638.844049 175.320894 
L 645.197367 176.259079 
L 651.550685 177.429803 
L 659.492332 179.165076 
L 667.43398 181.151452 
L 675.375627 183.354034 
L 684.905604 186.240064 
L 710.318876 194.176381 
L 716.672194 195.845515 
L 723.025511 197.262221 
L 729.378829 198.391172 
L 734.143818 199.037532 
L 738.908806 199.508915 
L 743.673795 199.806176 
L 748.438783 199.932871 
L 754.792101 199.84603 
L 761.145419 199.482502 
L 767.498737 198.861087 
L 773.852055 198.000178 
L 780.205373 196.914996 
L 786.558691 195.615388 
L 792.912009 194.106031 
L 799.265326 192.39075 
L 807.206974 189.977767 
L 816.736951 186.788664 
L 832.620246 181.413677 
L 838.973563 179.494683 
L 845.326881 177.816167 
L 850.09187 176.745601 
L 854.856858 175.853884 
L 859.621847 175.151766 
L 864.386835 174.646167 
L 869.151824 174.339878 
L 873.916812 174.231979 
L 878.6818 174.317734 
L 883.446789 174.588944 
L 889.800107 175.218975 
L 896.153425 176.124479 
L 902.506743 177.267397 
L 908.86006 178.610744 
L 916.801708 180.525548 
L 924.743355 182.665387 
L 934.273332 185.49016 
L 946.979968 189.539736 
L 958.098274 193.021257 
L 964.451592 194.822534 
L 970.80491 196.403274 
L 977.158228 197.716253 
L 981.923217 198.50752 
L 986.688205 199.12562 
L 993.041523 199.716196 
L 994.629852 222.875476 
L 996.218182 193.178984 
L 996.218182 193.178984 
" style="fill:none;stroke:#d62728;stroke-linecap:square;stroke-width:1.5;"/>
   </g>
   <g id="line2d_26">
    <path clip-path="url(#p76269ad31e)" d="M 184.581818 167.649423 
L 186.170148 176.565939 
L 187.758477 173.968475 
L 189.346807 174.41408 
L 194.111795 174.350886 
L 221.113396 174.1601 
L 248.114997 174.457305 
L 257.644974 174.209085 
L 270.35161 173.602179 
L 283.058246 173.024734 
L 292.588223 172.80815 
L 321.178153 172.417478 
L 329.119801 171.886973 
L 337.061448 171.10967 
L 360.88639 168.5298 
L 367.239708 168.15232 
L 373.593026 168.021439 
L 379.946344 168.160381 
L 386.299662 168.565562 
L 392.65298 169.207017 
L 400.594627 170.256326 
L 421.242911 173.173628 
L 427.596228 173.7929 
L 433.949546 174.183102 
L 440.302864 174.349524 
L 448.244512 174.32451 
L 468.892795 174.118747 
L 481.599431 174.31822 
L 494.306067 174.487806 
L 503.836043 174.383977 
L 513.36602 174.042692 
L 540.367621 172.872546 
L 551.485928 172.766452 
L 565.780893 172.668093 
L 573.72254 172.378061 
L 581.664188 171.821304 
L 589.605835 171.024345 
L 611.842448 168.594054 
L 618.195766 168.187853 
L 624.549084 168.023375 
L 630.902402 168.127234 
L 637.25572 168.499259 
L 643.609038 169.112816 
L 651.550685 170.139219 
L 673.787298 173.259969 
L 680.140616 173.852774 
L 686.493933 174.214567 
L 692.847251 174.356529 
L 702.377228 174.28884 
L 718.260523 174.108738 
L 729.378829 174.239048 
L 746.850454 174.488457 
L 756.380431 174.36463 
L 765.910407 174.007017 
L 791.323679 172.890339 
L 802.441985 172.768074 
L 818.32528 172.65046 
L 826.266928 172.335968 
L 834.208575 171.75335 
L 842.150222 170.937763 
L 862.798506 168.661537 
L 869.151824 168.227439 
L 875.505141 168.029809 
L 881.858459 168.098541 
L 888.211777 168.436997 
L 894.565095 169.0219 
L 902.506743 170.023763 
L 926.331685 173.343463 
L 932.685003 173.909201 
L 939.038321 174.242751 
L 945.391638 174.361111 
L 954.921615 174.275947 
L 970.80491 174.110638 
L 981.923217 174.2539 
L 993.041523 174.414446 
L 994.629852 186.926634 
L 996.218182 161.256556 
L 996.218182 161.256556 
" style="fill:none;stroke:#9467bd;stroke-linecap:square;stroke-width:1.5;"/>
   </g>
   <g id="line2d_27">
    <path clip-path="url(#p76269ad31e)" d="M 184.581818 180.986471 
L 186.170148 176.299193 
L 187.758477 174.88553 
L 189.346807 175.176441 
L 190.935136 175.233716 
L 200.465113 176.53012 
L 221.113396 179.512365 
L 229.055044 180.362194 
L 235.408362 180.822103 
L 241.761679 181.055511 
L 248.114997 181.047952 
L 254.468315 180.798391 
L 260.821633 180.319036 
L 267.174951 179.634894 
L 275.116598 178.547057 
L 286.234905 176.754766 
L 302.1182 174.19467 
L 310.059847 173.159028 
L 316.413165 172.524798 
L 322.766483 172.079646 
L 330.70813 171.769881 
L 340.238107 171.674692 
L 352.944743 171.812159 
L 375.181356 172.317404 
L 426.007899 173.75119 
L 433.949546 174.317107 
L 441.891194 175.135417 
L 449.832841 176.181086 
L 476.834442 179.968929 
L 483.18776 180.557891 
L 489.541078 180.936293 
L 495.894396 181.08123 
L 502.247714 180.983194 
L 508.601032 180.646103 
L 514.95435 180.087257 
L 522.895997 179.121979 
L 532.425974 177.67974 
L 556.250916 173.862164 
L 564.192564 172.901766 
L 570.545882 172.337575 
L 576.899199 171.96096 
L 584.840847 171.72264 
L 594.370824 171.683608 
L 608.665789 171.886238 
L 635.66739 172.546326 
L 676.963957 173.705988 
L 684.905604 174.247366 
L 692.847251 175.039673 
L 700.788899 176.065188 
L 729.378829 180.050524 
L 735.732147 180.615604 
L 742.085465 180.966631 
L 748.438783 181.082298 
L 754.792101 180.954783 
L 761.145419 180.589723 
L 767.498737 180.005662 
L 775.440384 179.015145 
L 784.970361 177.554277 
L 807.206974 173.975299 
L 815.148621 172.988096 
L 821.501939 172.399516 
L 827.855257 171.999486 
L 835.796904 171.736987 
L 845.326881 171.679399 
L 859.621847 171.870084 
L 885.035118 172.483139 
L 929.508344 173.748547 
L 937.449991 174.312954 
L 945.391638 175.129746 
L 953.333286 176.174338 
L 980.334887 179.963836 
L 986.688205 180.554308 
L 993.041523 180.96578 
L 994.629852 175.229402 
L 996.218182 162.958418 
L 996.218182 162.958418 
" style="fill:none;stroke:#8c564b;stroke-linecap:square;stroke-width:1.5;"/>
   </g>
   <g id="patch_3">
    <path d="M 144 307.584 
L 144 41.472 
" style="fill:none;stroke:#000000;stroke-linecap:square;stroke-linejoin:miter;stroke-width:0.8;"/>
   </g>
   <g id="patch_4">
    <path d="M 1036.8 307.584 
L 1036.8 41.472 
" style="fill:none;stroke:#000000;stroke-linecap:square;stroke-linejoin:miter;stroke-width:0.8;"/>
   </g>
   <g id="patch_5">
    <path d="M 144 307.584 
L 1036.8 307.584 
" style="fill:none;stroke:#000000;stroke-linecap:square;stroke-linejoin:miter;stroke-width:0.8;"/>
   </g>
   <g id="patch_6">
    <path d="M 144 41.472 
L 1036.8 41.472 
" style="fill:none;stroke:#000000;stroke-linecap:square;stroke-linejoin:miter;stroke-width:0.8;"/>
   </g>
   <g id="text_12">
    <!-- 2th layer's shape: torch.Size([1, 64, 512]). Uniformly sampling 16 channels -->
    <g transform="translate(364.66875 35.472)scale(0.12 -0.12)">
     <defs>
      <path d="M 18.3125 70.21875 
L 18.3125 54.6875 
L 36.8125 54.6875 
L 36.8125 47.703125 
L 18.3125 47.703125 
L 18.3125 18.015625 
Q 18.3125 11.328125 20.140625 9.421875 
Q 21.96875 7.515625 27.59375 7.515625 
L 36.8125 7.515625 
L 36.8125 0 
L 27.59375 0 
Q 17.1875 0 13.234375 3.875 
Q 9.28125 7.765625 9.28125 18.015625 
L 9.28125 47.703125 
L 2.6875 47.703125 
L 2.6875 54.6875 
L 9.28125 54.6875 
L 9.28125 70.21875 
z
" id="DejaVuSans-116"/>
      <path d="M 54.890625 33.015625 
L 54.890625 0 
L 45.90625 0 
L 45.90625 32.71875 
Q 45.90625 40.484375 42.875 44.328125 
Q 39.84375 48.1875 33.796875 48.1875 
Q 26.515625 48.1875 22.3125 43.546875 
Q 18.109375 38.921875 18.109375 30.90625 
L 18.109375 0 
L 9.078125 0 
L 9.078125 75.984375 
L 18.109375 75.984375 
L 18.109375 46.1875 
Q 21.34375 51.125 25.703125 53.5625 
Q 30.078125 56 35.796875 56 
Q 45.21875 56 50.046875 50.171875 
Q 54.890625 44.34375 54.890625 33.015625 
z
" id="DejaVuSans-104"/>
      <path id="DejaVuSans-32"/>
      <path d="M 9.421875 75.984375 
L 18.40625 75.984375 
L 18.40625 0 
L 9.421875 0 
z
" id="DejaVuSans-108"/>
      <path d="M 34.28125 27.484375 
Q 23.390625 27.484375 19.1875 25 
Q 14.984375 22.515625 14.984375 16.5 
Q 14.984375 11.71875 18.140625 8.90625 
Q 21.296875 6.109375 26.703125 6.109375 
Q 34.1875 6.109375 38.703125 11.40625 
Q 43.21875 16.703125 43.21875 25.484375 
L 43.21875 27.484375 
z
M 52.203125 31.203125 
L 52.203125 0 
L 43.21875 0 
L 43.21875 8.296875 
Q 40.140625 3.328125 35.546875 0.953125 
Q 30.953125 -1.421875 24.3125 -1.421875 
Q 15.921875 -1.421875 10.953125 3.296875 
Q 6 8.015625 6 15.921875 
Q 6 25.140625 12.171875 29.828125 
Q 18.359375 34.515625 30.609375 34.515625 
L 43.21875 34.515625 
L 43.21875 35.40625 
Q 43.21875 41.609375 39.140625 45 
Q 35.0625 48.390625 27.6875 48.390625 
Q 23 48.390625 18.546875 47.265625 
Q 14.109375 46.140625 10.015625 43.890625 
L 10.015625 52.203125 
Q 14.9375 54.109375 19.578125 55.046875 
Q 24.21875 56 28.609375 56 
Q 40.484375 56 46.34375 49.84375 
Q 52.203125 43.703125 52.203125 31.203125 
z
" id="DejaVuSans-97"/>
      <path d="M 32.171875 -5.078125 
Q 28.375 -14.84375 24.75 -17.8125 
Q 21.140625 -20.796875 15.09375 -20.796875 
L 7.90625 -20.796875 
L 7.90625 -13.28125 
L 13.1875 -13.28125 
Q 16.890625 -13.28125 18.9375 -11.515625 
Q 21 -9.765625 23.484375 -3.21875 
L 25.09375 0.875 
L 2.984375 54.6875 
L 12.5 54.6875 
L 29.59375 11.921875 
L 46.6875 54.6875 
L 56.203125 54.6875 
z
" id="DejaVuSans-121"/>
      <path d="M 56.203125 29.59375 
L 56.203125 25.203125 
L 14.890625 25.203125 
Q 15.484375 15.921875 20.484375 11.0625 
Q 25.484375 6.203125 34.421875 6.203125 
Q 39.59375 6.203125 44.453125 7.46875 
Q 49.3125 8.734375 54.109375 11.28125 
L 54.109375 2.78125 
Q 49.265625 0.734375 44.1875 -0.34375 
Q 39.109375 -1.421875 33.890625 -1.421875 
Q 20.796875 -1.421875 13.15625 6.1875 
Q 5.515625 13.8125 5.515625 26.8125 
Q 5.515625 40.234375 12.765625 48.109375 
Q 20.015625 56 32.328125 56 
Q 43.359375 56 49.78125 48.890625 
Q 56.203125 41.796875 56.203125 29.59375 
z
M 47.21875 32.234375 
Q 47.125 39.59375 43.09375 43.984375 
Q 39.0625 48.390625 32.421875 48.390625 
Q 24.90625 48.390625 20.390625 44.140625 
Q 15.875 39.890625 15.1875 32.171875 
z
" id="DejaVuSans-101"/>
      <path d="M 41.109375 46.296875 
Q 39.59375 47.171875 37.8125 47.578125 
Q 36.03125 48 33.890625 48 
Q 26.265625 48 22.1875 43.046875 
Q 18.109375 38.09375 18.109375 28.8125 
L 18.109375 0 
L 9.078125 0 
L 9.078125 54.6875 
L 18.109375 54.6875 
L 18.109375 46.1875 
Q 20.953125 51.171875 25.484375 53.578125 
Q 30.03125 56 36.53125 56 
Q 37.453125 56 38.578125 55.875 
Q 39.703125 55.765625 41.0625 55.515625 
z
" id="DejaVuSans-114"/>
      <path d="M 17.921875 72.90625 
L 17.921875 45.796875 
L 9.625 45.796875 
L 9.625 72.90625 
z
" id="DejaVuSans-39"/>
      <path d="M 44.28125 53.078125 
L 44.28125 44.578125 
Q 40.484375 46.53125 36.375 47.5 
Q 32.28125 48.484375 27.875 48.484375 
Q 21.1875 48.484375 17.84375 46.4375 
Q 14.5 44.390625 14.5 40.28125 
Q 14.5 37.15625 16.890625 35.375 
Q 19.28125 33.59375 26.515625 31.984375 
L 29.59375 31.296875 
Q 39.15625 29.25 43.1875 25.515625 
Q 47.21875 21.78125 47.21875 15.09375 
Q 47.21875 7.46875 41.1875 3.015625 
Q 35.15625 -1.421875 24.609375 -1.421875 
Q 20.21875 -1.421875 15.453125 -0.5625 
Q 10.6875 0.296875 5.421875 2 
L 5.421875 11.28125 
Q 10.40625 8.6875 15.234375 7.390625 
Q 20.0625 6.109375 24.8125 6.109375 
Q 31.15625 6.109375 34.5625 8.28125 
Q 37.984375 10.453125 37.984375 14.40625 
Q 37.984375 18.0625 35.515625 20.015625 
Q 33.0625 21.96875 24.703125 23.78125 
L 21.578125 24.515625 
Q 13.234375 26.265625 9.515625 29.90625 
Q 5.8125 33.546875 5.8125 39.890625 
Q 5.8125 47.609375 11.28125 51.796875 
Q 16.75 56 26.8125 56 
Q 31.78125 56 36.171875 55.265625 
Q 40.578125 54.546875 44.28125 53.078125 
z
" id="DejaVuSans-115"/>
      <path d="M 18.109375 8.203125 
L 18.109375 -20.796875 
L 9.078125 -20.796875 
L 9.078125 54.6875 
L 18.109375 54.6875 
L 18.109375 46.390625 
Q 20.953125 51.265625 25.265625 53.625 
Q 29.59375 56 35.59375 56 
Q 45.5625 56 51.78125 48.09375 
Q 58.015625 40.1875 58.015625 27.296875 
Q 58.015625 14.40625 51.78125 6.484375 
Q 45.5625 -1.421875 35.59375 -1.421875 
Q 29.59375 -1.421875 25.265625 0.953125 
Q 20.953125 3.328125 18.109375 8.203125 
z
M 48.6875 27.296875 
Q 48.6875 37.203125 44.609375 42.84375 
Q 40.53125 48.484375 33.40625 48.484375 
Q 26.265625 48.484375 22.1875 42.84375 
Q 18.109375 37.203125 18.109375 27.296875 
Q 18.109375 17.390625 22.1875 11.75 
Q 26.265625 6.109375 33.40625 6.109375 
Q 40.53125 6.109375 44.609375 11.75 
Q 48.6875 17.390625 48.6875 27.296875 
z
" id="DejaVuSans-112"/>
      <path d="M 11.71875 12.40625 
L 22.015625 12.40625 
L 22.015625 0 
L 11.71875 0 
z
M 11.71875 51.703125 
L 22.015625 51.703125 
L 22.015625 39.3125 
L 11.71875 39.3125 
z
" id="DejaVuSans-58"/>
      <path d="M 30.609375 48.390625 
Q 23.390625 48.390625 19.1875 42.75 
Q 14.984375 37.109375 14.984375 27.296875 
Q 14.984375 17.484375 19.15625 11.84375 
Q 23.34375 6.203125 30.609375 6.203125 
Q 37.796875 6.203125 41.984375 11.859375 
Q 46.1875 17.53125 46.1875 27.296875 
Q 46.1875 37.015625 41.984375 42.703125 
Q 37.796875 48.390625 30.609375 48.390625 
z
M 30.609375 56 
Q 42.328125 56 49.015625 48.375 
Q 55.71875 40.765625 55.71875 27.296875 
Q 55.71875 13.875 49.015625 6.21875 
Q 42.328125 -1.421875 30.609375 -1.421875 
Q 18.84375 -1.421875 12.171875 6.21875 
Q 5.515625 13.875 5.515625 27.296875 
Q 5.515625 40.765625 12.171875 48.375 
Q 18.84375 56 30.609375 56 
z
" id="DejaVuSans-111"/>
      <path d="M 48.78125 52.59375 
L 48.78125 44.1875 
Q 44.96875 46.296875 41.140625 47.34375 
Q 37.3125 48.390625 33.40625 48.390625 
Q 24.65625 48.390625 19.8125 42.84375 
Q 14.984375 37.3125 14.984375 27.296875 
Q 14.984375 17.28125 19.8125 11.734375 
Q 24.65625 6.203125 33.40625 6.203125 
Q 37.3125 6.203125 41.140625 7.25 
Q 44.96875 8.296875 48.78125 10.40625 
L 48.78125 2.09375 
Q 45.015625 0.34375 40.984375 -0.53125 
Q 36.96875 -1.421875 32.421875 -1.421875 
Q 20.0625 -1.421875 12.78125 6.34375 
Q 5.515625 14.109375 5.515625 27.296875 
Q 5.515625 40.671875 12.859375 48.328125 
Q 20.21875 56 33.015625 56 
Q 37.15625 56 41.109375 55.140625 
Q 45.0625 54.296875 48.78125 52.59375 
z
" id="DejaVuSans-99"/>
      <path d="M 53.515625 70.515625 
L 53.515625 60.890625 
Q 47.90625 63.578125 42.921875 64.890625 
Q 37.9375 66.21875 33.296875 66.21875 
Q 25.25 66.21875 20.875 63.09375 
Q 16.5 59.96875 16.5 54.203125 
Q 16.5 49.359375 19.40625 46.890625 
Q 22.3125 44.4375 30.421875 42.921875 
L 36.375 41.703125 
Q 47.40625 39.59375 52.65625 34.296875 
Q 57.90625 29 57.90625 20.125 
Q 57.90625 9.515625 50.796875 4.046875 
Q 43.703125 -1.421875 29.984375 -1.421875 
Q 24.8125 -1.421875 18.96875 -0.25 
Q 13.140625 0.921875 6.890625 3.21875 
L 6.890625 13.375 
Q 12.890625 10.015625 18.65625 8.296875 
Q 24.421875 6.59375 29.984375 6.59375 
Q 38.421875 6.59375 43.015625 9.90625 
Q 47.609375 13.234375 47.609375 19.390625 
Q 47.609375 24.75 44.3125 27.78125 
Q 41.015625 30.8125 33.5 32.328125 
L 27.484375 33.5 
Q 16.453125 35.6875 11.515625 40.375 
Q 6.59375 45.0625 6.59375 53.421875 
Q 6.59375 63.09375 13.40625 68.65625 
Q 20.21875 74.21875 32.171875 74.21875 
Q 37.3125 74.21875 42.625 73.28125 
Q 47.953125 72.359375 53.515625 70.515625 
z
" id="DejaVuSans-83"/>
      <path d="M 9.421875 54.6875 
L 18.40625 54.6875 
L 18.40625 0 
L 9.421875 0 
z
M 9.421875 75.984375 
L 18.40625 75.984375 
L 18.40625 64.59375 
L 9.421875 64.59375 
z
" id="DejaVuSans-105"/>
      <path d="M 5.515625 54.6875 
L 48.1875 54.6875 
L 48.1875 46.484375 
L 14.40625 7.171875 
L 48.1875 7.171875 
L 48.1875 0 
L 4.296875 0 
L 4.296875 8.203125 
L 38.09375 47.515625 
L 5.515625 47.515625 
z
" id="DejaVuSans-122"/>
      <path d="M 31 75.875 
Q 24.46875 64.65625 21.28125 53.65625 
Q 18.109375 42.671875 18.109375 31.390625 
Q 18.109375 20.125 21.3125 9.0625 
Q 24.515625 -2 31 -13.1875 
L 23.1875 -13.1875 
Q 15.875 -1.703125 12.234375 9.375 
Q 8.59375 20.453125 8.59375 31.390625 
Q 8.59375 42.28125 12.203125 53.3125 
Q 15.828125 64.359375 23.1875 75.875 
z
" id="DejaVuSans-40"/>
      <path d="M 8.59375 75.984375 
L 29.296875 75.984375 
L 29.296875 69 
L 17.578125 69 
L 17.578125 -6.203125 
L 29.296875 -6.203125 
L 29.296875 -13.1875 
L 8.59375 -13.1875 
z
" id="DejaVuSans-91"/>
      <path d="M 11.71875 12.40625 
L 22.015625 12.40625 
L 22.015625 4 
L 14.015625 -11.625 
L 7.71875 -11.625 
L 11.71875 4 
z
" id="DejaVuSans-44"/>
      <path d="M 33.015625 40.375 
Q 26.375 40.375 22.484375 35.828125 
Q 18.609375 31.296875 18.609375 23.390625 
Q 18.609375 15.53125 22.484375 10.953125 
Q 26.375 6.390625 33.015625 6.390625 
Q 39.65625 6.390625 43.53125 10.953125 
Q 47.40625 15.53125 47.40625 23.390625 
Q 47.40625 31.296875 43.53125 35.828125 
Q 39.65625 40.375 33.015625 40.375 
z
M 52.59375 71.296875 
L 52.59375 62.3125 
Q 48.875 64.0625 45.09375 64.984375 
Q 41.3125 65.921875 37.59375 65.921875 
Q 27.828125 65.921875 22.671875 59.328125 
Q 17.53125 52.734375 16.796875 39.40625 
Q 19.671875 43.65625 24.015625 45.921875 
Q 28.375 48.1875 33.59375 48.1875 
Q 44.578125 48.1875 50.953125 41.515625 
Q 57.328125 34.859375 57.328125 23.390625 
Q 57.328125 12.15625 50.6875 5.359375 
Q 44.046875 -1.421875 33.015625 -1.421875 
Q 20.359375 -1.421875 13.671875 8.265625 
Q 6.984375 17.96875 6.984375 36.375 
Q 6.984375 53.65625 15.1875 63.9375 
Q 23.390625 74.21875 37.203125 74.21875 
Q 40.921875 74.21875 44.703125 73.484375 
Q 48.484375 72.75 52.59375 71.296875 
z
" id="DejaVuSans-54"/>
      <path d="M 30.421875 75.984375 
L 30.421875 -13.1875 
L 9.71875 -13.1875 
L 9.71875 -6.203125 
L 21.390625 -6.203125 
L 21.390625 69 
L 9.71875 69 
L 9.71875 75.984375 
z
" id="DejaVuSans-93"/>
      <path d="M 8.015625 75.875 
L 15.828125 75.875 
Q 23.140625 64.359375 26.78125 53.3125 
Q 30.421875 42.28125 30.421875 31.390625 
Q 30.421875 20.453125 26.78125 9.375 
Q 23.140625 -1.703125 15.828125 -13.1875 
L 8.015625 -13.1875 
Q 14.5 -2 17.703125 9.0625 
Q 20.90625 20.125 20.90625 31.390625 
Q 20.90625 42.671875 17.703125 53.65625 
Q 14.5 64.65625 8.015625 75.875 
z
" id="DejaVuSans-41"/>
      <path d="M 8.6875 72.90625 
L 18.609375 72.90625 
L 18.609375 28.609375 
Q 18.609375 16.890625 22.84375 11.734375 
Q 27.09375 6.59375 36.625 6.59375 
Q 46.09375 6.59375 50.34375 11.734375 
Q 54.59375 16.890625 54.59375 28.609375 
L 54.59375 72.90625 
L 64.5 72.90625 
L 64.5 27.390625 
Q 64.5 13.140625 57.4375 5.859375 
Q 50.390625 -1.421875 36.625 -1.421875 
Q 22.796875 -1.421875 15.734375 5.859375 
Q 8.6875 13.140625 8.6875 27.390625 
z
" id="DejaVuSans-85"/>
      <path d="M 54.890625 33.015625 
L 54.890625 0 
L 45.90625 0 
L 45.90625 32.71875 
Q 45.90625 40.484375 42.875 44.328125 
Q 39.84375 48.1875 33.796875 48.1875 
Q 26.515625 48.1875 22.3125 43.546875 
Q 18.109375 38.921875 18.109375 30.90625 
L 18.109375 0 
L 9.078125 0 
L 9.078125 54.6875 
L 18.109375 54.6875 
L 18.109375 46.1875 
Q 21.34375 51.125 25.703125 53.5625 
Q 30.078125 56 35.796875 56 
Q 45.21875 56 50.046875 50.171875 
Q 54.890625 44.34375 54.890625 33.015625 
z
" id="DejaVuSans-110"/>
      <path d="M 37.109375 75.984375 
L 37.109375 68.5 
L 28.515625 68.5 
Q 23.6875 68.5 21.796875 66.546875 
Q 19.921875 64.59375 19.921875 59.515625 
L 19.921875 54.6875 
L 34.71875 54.6875 
L 34.71875 47.703125 
L 19.921875 47.703125 
L 19.921875 0 
L 10.890625 0 
L 10.890625 47.703125 
L 2.296875 47.703125 
L 2.296875 54.6875 
L 10.890625 54.6875 
L 10.890625 58.5 
Q 10.890625 67.625 15.140625 71.796875 
Q 19.390625 75.984375 28.609375 75.984375 
z
" id="DejaVuSans-102"/>
      <path d="M 52 44.1875 
Q 55.375 50.25 60.0625 53.125 
Q 64.75 56 71.09375 56 
Q 79.640625 56 84.28125 50.015625 
Q 88.921875 44.046875 88.921875 33.015625 
L 88.921875 0 
L 79.890625 0 
L 79.890625 32.71875 
Q 79.890625 40.578125 77.09375 44.375 
Q 74.3125 48.1875 68.609375 48.1875 
Q 61.625 48.1875 57.5625 43.546875 
Q 53.515625 38.921875 53.515625 30.90625 
L 53.515625 0 
L 44.484375 0 
L 44.484375 32.71875 
Q 44.484375 40.625 41.703125 44.40625 
Q 38.921875 48.1875 33.109375 48.1875 
Q 26.21875 48.1875 22.15625 43.53125 
Q 18.109375 38.875 18.109375 30.90625 
L 18.109375 0 
L 9.078125 0 
L 9.078125 54.6875 
L 18.109375 54.6875 
L 18.109375 46.1875 
Q 21.1875 51.21875 25.484375 53.609375 
Q 29.78125 56 35.6875 56 
Q 41.65625 56 45.828125 52.96875 
Q 50 49.953125 52 44.1875 
z
" id="DejaVuSans-109"/>
      <path d="M 45.40625 27.984375 
Q 45.40625 37.75 41.375 43.109375 
Q 37.359375 48.484375 30.078125 48.484375 
Q 22.859375 48.484375 18.828125 43.109375 
Q 14.796875 37.75 14.796875 27.984375 
Q 14.796875 18.265625 18.828125 12.890625 
Q 22.859375 7.515625 30.078125 7.515625 
Q 37.359375 7.515625 41.375 12.890625 
Q 45.40625 18.265625 45.40625 27.984375 
z
M 54.390625 6.78125 
Q 54.390625 -7.171875 48.1875 -13.984375 
Q 42 -20.796875 29.203125 -20.796875 
Q 24.46875 -20.796875 20.265625 -20.09375 
Q 16.0625 -19.390625 12.109375 -17.921875 
L 12.109375 -9.1875 
Q 16.0625 -11.328125 19.921875 -12.34375 
Q 23.78125 -13.375 27.78125 -13.375 
Q 36.625 -13.375 41.015625 -8.765625 
Q 45.40625 -4.15625 45.40625 5.171875 
L 45.40625 9.625 
Q 42.625 4.78125 38.28125 2.390625 
Q 33.9375 0 27.875 0 
Q 17.828125 0 11.671875 7.65625 
Q 5.515625 15.328125 5.515625 27.984375 
Q 5.515625 40.671875 11.671875 48.328125 
Q 17.828125 56 27.875 56 
Q 33.9375 56 38.28125 53.609375 
Q 42.625 51.21875 45.40625 46.390625 
L 45.40625 54.6875 
L 54.390625 54.6875 
z
" id="DejaVuSans-103"/>
     </defs>
     <use xlink:href="#DejaVuSans-50"/>
     <use x="63.623047" xlink:href="#DejaVuSans-116"/>
     <use x="102.832031" xlink:href="#DejaVuSans-104"/>
     <use x="166.210938" xlink:href="#DejaVuSans-32"/>
     <use x="197.998047" xlink:href="#DejaVuSans-108"/>
     <use x="225.78125" xlink:href="#DejaVuSans-97"/>
     <use x="287.060547" xlink:href="#DejaVuSans-121"/>
     <use x="346.240234" xlink:href="#DejaVuSans-101"/>
     <use x="407.763672" xlink:href="#DejaVuSans-114"/>
     <use x="448.876953" xlink:href="#DejaVuSans-39"/>
     <use x="476.367188" xlink:href="#DejaVuSans-115"/>
     <use x="528.466797" xlink:href="#DejaVuSans-32"/>
     <use x="560.253906" xlink:href="#DejaVuSans-115"/>
     <use x="612.353516" xlink:href="#DejaVuSans-104"/>
     <use x="675.732422" xlink:href="#DejaVuSans-97"/>
     <use x="737.011719" xlink:href="#DejaVuSans-112"/>
     <use x="800.488281" xlink:href="#DejaVuSans-101"/>
     <use x="862.011719" xlink:href="#DejaVuSans-58"/>
     <use x="895.703125" xlink:href="#DejaVuSans-32"/>
     <use x="927.490234" xlink:href="#DejaVuSans-116"/>
     <use x="966.699219" xlink:href="#DejaVuSans-111"/>
     <use x="1027.880859" xlink:href="#DejaVuSans-114"/>
     <use x="1066.744141" xlink:href="#DejaVuSans-99"/>
     <use x="1121.724609" xlink:href="#DejaVuSans-104"/>
     <use x="1185.103516" xlink:href="#DejaVuSans-46"/>
     <use x="1216.890625" xlink:href="#DejaVuSans-83"/>
     <use x="1280.367188" xlink:href="#DejaVuSans-105"/>
     <use x="1308.150391" xlink:href="#DejaVuSans-122"/>
     <use x="1360.640625" xlink:href="#DejaVuSans-101"/>
     <use x="1422.164062" xlink:href="#DejaVuSans-40"/>
     <use x="1461.177734" xlink:href="#DejaVuSans-91"/>
     <use x="1500.191406" xlink:href="#DejaVuSans-49"/>
     <use x="1563.814453" xlink:href="#DejaVuSans-44"/>
     <use x="1595.601562" xlink:href="#DejaVuSans-32"/>
     <use x="1627.388672" xlink:href="#DejaVuSans-54"/>
     <use x="1691.011719" xlink:href="#DejaVuSans-52"/>
     <use x="1754.634766" xlink:href="#DejaVuSans-44"/>
     <use x="1786.421875" xlink:href="#DejaVuSans-32"/>
     <use x="1818.208984" xlink:href="#DejaVuSans-53"/>
     <use x="1881.832031" xlink:href="#DejaVuSans-49"/>
     <use x="1945.455078" xlink:href="#DejaVuSans-50"/>
     <use x="2009.078125" xlink:href="#DejaVuSans-93"/>
     <use x="2048.091797" xlink:href="#DejaVuSans-41"/>
     <use x="2087.105469" xlink:href="#DejaVuSans-46"/>
     <use x="2118.892578" xlink:href="#DejaVuSans-32"/>
     <use x="2150.679688" xlink:href="#DejaVuSans-85"/>
     <use x="2223.873047" xlink:href="#DejaVuSans-110"/>
     <use x="2287.251953" xlink:href="#DejaVuSans-105"/>
     <use x="2315.035156" xlink:href="#DejaVuSans-102"/>
     <use x="2350.240234" xlink:href="#DejaVuSans-111"/>
     <use x="2411.421875" xlink:href="#DejaVuSans-114"/>
     <use x="2450.785156" xlink:href="#DejaVuSans-109"/>
     <use x="2548.197266" xlink:href="#DejaVuSans-108"/>
     <use x="2575.980469" xlink:href="#DejaVuSans-121"/>
     <use x="2635.160156" xlink:href="#DejaVuSans-32"/>
     <use x="2666.947266" xlink:href="#DejaVuSans-115"/>
     <use x="2719.046875" xlink:href="#DejaVuSans-97"/>
     <use x="2780.326172" xlink:href="#DejaVuSans-109"/>
     <use x="2877.738281" xlink:href="#DejaVuSans-112"/>
     <use x="2941.214844" xlink:href="#DejaVuSans-108"/>
     <use x="2968.998047" xlink:href="#DejaVuSans-105"/>
     <use x="2996.78125" xlink:href="#DejaVuSans-110"/>
     <use x="3060.160156" xlink:href="#DejaVuSans-103"/>
     <use x="3123.636719" xlink:href="#DejaVuSans-32"/>
     <use x="3155.423828" xlink:href="#DejaVuSans-49"/>
     <use x="3219.046875" xlink:href="#DejaVuSans-54"/>
     <use x="3282.669922" xlink:href="#DejaVuSans-32"/>
     <use x="3314.457031" xlink:href="#DejaVuSans-99"/>
     <use x="3369.4375" xlink:href="#DejaVuSans-104"/>
     <use x="3432.816406" xlink:href="#DejaVuSans-97"/>
     <use x="3494.095703" xlink:href="#DejaVuSans-110"/>
     <use x="3557.474609" xlink:href="#DejaVuSans-110"/>
     <use x="3620.853516" xlink:href="#DejaVuSans-101"/>
     <use x="3682.376953" xlink:href="#DejaVuSans-108"/>
     <use x="3710.160156" xlink:href="#DejaVuSans-115"/>
    </g>
   </g>
  </g>
 </g>
 <defs>
  <clipPath id="p76269ad31e">
   <rect height="266.112" width="892.8" x="144" y="41.472"/>
  </clipPath>
 </defs>
</svg>
