<?xml version="1.0" encoding="utf-8" standalone="no"?>
<!DOCTYPE svg PUBLIC "-//W3C//DTD SVG 1.1//EN"
  "http://www.w3.org/Graphics/SVG/1.1/DTD/svg11.dtd">
<!-- Created with matplotlib (https://matplotlib.org/) -->
<svg height="345.6pt" version="1.1" viewBox="0 0 1152 345.6" width="1152pt" xmlns="http://www.w3.org/2000/svg" xmlns:xlink="http://www.w3.org/1999/xlink">
 <metadata>
  <rdf:RDF xmlns:cc="http://creativecommons.org/ns#" xmlns:dc="http://purl.org/dc/elements/1.1/" xmlns:rdf="http://www.w3.org/1999/02/22-rdf-syntax-ns#">
   <cc:Work>
    <dc:type rdf:resource="http://purl.org/dc/dcmitype/StillImage"/>
    <dc:date>2021-12-24T07:21:01.479968</dc:date>
    <dc:format>image/svg+xml</dc:format>
    <dc:creator>
     <cc:Agent>
      <dc:title>Matplotlib v3.3.3, https://matplotlib.org/</dc:title>
     </cc:Agent>
    </dc:creator>
   </cc:Work>
  </rdf:RDF>
 </metadata>
 <defs>
  <style type="text/css">*{stroke-linecap:butt;stroke-linejoin:round;}</style>
 </defs>
 <g id="figure_1">
  <g id="patch_1">
   <path d="M 0 345.6 
L 1152 345.6 
L 1152 0 
L 0 0 
z
" style="fill:#ffffff;"/>
  </g>
  <g id="axes_1">
   <g id="patch_2">
    <path d="M 144 307.584 
L 1036.8 307.584 
L 1036.8 41.472 
L 144 41.472 
z
" style="fill:#ffffff;"/>
   </g>
   <g id="matplotlib.axis_1">
    <g id="xtick_1">
     <g id="line2d_1">
      <defs>
       <path d="M 0 0 
L 0 3.5 
" id="m90f282d94f" style="stroke:#000000;stroke-width:0.8;"/>
      </defs>
      <g>
       <use style="stroke:#000000;stroke-width:0.8;" x="184.581818" xlink:href="#m90f282d94f" y="307.584"/>
      </g>
     </g>
     <g id="text_1">
      <!-- 0 -->
      <g transform="translate(181.400568 322.182437)scale(0.1 -0.1)">
       <defs>
        <path d="M 31.78125 66.40625 
Q 24.171875 66.40625 20.328125 58.90625 
Q 16.5 51.421875 16.5 36.375 
Q 16.5 21.390625 20.328125 13.890625 
Q 24.171875 6.390625 31.78125 6.390625 
Q 39.453125 6.390625 43.28125 13.890625 
Q 47.125 21.390625 47.125 36.375 
Q 47.125 51.421875 43.28125 58.90625 
Q 39.453125 66.40625 31.78125 66.40625 
z
M 31.78125 74.21875 
Q 44.046875 74.21875 50.515625 64.515625 
Q 56.984375 54.828125 56.984375 36.375 
Q 56.984375 17.96875 50.515625 8.265625 
Q 44.046875 -1.421875 31.78125 -1.421875 
Q 19.53125 -1.421875 13.0625 8.265625 
Q 6.59375 17.96875 6.59375 36.375 
Q 6.59375 54.828125 13.0625 64.515625 
Q 19.53125 74.21875 31.78125 74.21875 
z
" id="DejaVuSans-48"/>
       </defs>
       <use xlink:href="#DejaVuSans-48"/>
      </g>
     </g>
    </g>
    <g id="xtick_2">
     <g id="line2d_2">
      <g>
       <use style="stroke:#000000;stroke-width:0.8;" x="343.726203" xlink:href="#m90f282d94f" y="307.584"/>
      </g>
     </g>
     <g id="text_2">
      <!-- 50 -->
      <g transform="translate(337.363703 322.182437)scale(0.1 -0.1)">
       <defs>
        <path d="M 10.796875 72.90625 
L 49.515625 72.90625 
L 49.515625 64.59375 
L 19.828125 64.59375 
L 19.828125 46.734375 
Q 21.96875 47.46875 24.109375 47.828125 
Q 26.265625 48.1875 28.421875 48.1875 
Q 40.625 48.1875 47.75 41.5 
Q 54.890625 34.8125 54.890625 23.390625 
Q 54.890625 11.625 47.5625 5.09375 
Q 40.234375 -1.421875 26.90625 -1.421875 
Q 22.3125 -1.421875 17.546875 -0.640625 
Q 12.796875 0.140625 7.71875 1.703125 
L 7.71875 11.625 
Q 12.109375 9.234375 16.796875 8.0625 
Q 21.484375 6.890625 26.703125 6.890625 
Q 35.15625 6.890625 40.078125 11.328125 
Q 45.015625 15.765625 45.015625 23.390625 
Q 45.015625 31 40.078125 35.4375 
Q 35.15625 39.890625 26.703125 39.890625 
Q 22.75 39.890625 18.8125 39.015625 
Q 14.890625 38.140625 10.796875 36.28125 
z
" id="DejaVuSans-53"/>
       </defs>
       <use xlink:href="#DejaVuSans-53"/>
       <use x="63.623047" xlink:href="#DejaVuSans-48"/>
      </g>
     </g>
    </g>
    <g id="xtick_3">
     <g id="line2d_3">
      <g>
       <use style="stroke:#000000;stroke-width:0.8;" x="502.870588" xlink:href="#m90f282d94f" y="307.584"/>
      </g>
     </g>
     <g id="text_3">
      <!-- 100 -->
      <g transform="translate(493.326838 322.182437)scale(0.1 -0.1)">
       <defs>
        <path d="M 12.40625 8.296875 
L 28.515625 8.296875 
L 28.515625 63.921875 
L 10.984375 60.40625 
L 10.984375 69.390625 
L 28.421875 72.90625 
L 38.28125 72.90625 
L 38.28125 8.296875 
L 54.390625 8.296875 
L 54.390625 0 
L 12.40625 0 
z
" id="DejaVuSans-49"/>
       </defs>
       <use xlink:href="#DejaVuSans-49"/>
       <use x="63.623047" xlink:href="#DejaVuSans-48"/>
       <use x="127.246094" xlink:href="#DejaVuSans-48"/>
      </g>
     </g>
    </g>
    <g id="xtick_4">
     <g id="line2d_4">
      <g>
       <use style="stroke:#000000;stroke-width:0.8;" x="662.014973" xlink:href="#m90f282d94f" y="307.584"/>
      </g>
     </g>
     <g id="text_4">
      <!-- 150 -->
      <g transform="translate(652.471223 322.182437)scale(0.1 -0.1)">
       <use xlink:href="#DejaVuSans-49"/>
       <use x="63.623047" xlink:href="#DejaVuSans-53"/>
       <use x="127.246094" xlink:href="#DejaVuSans-48"/>
      </g>
     </g>
    </g>
    <g id="xtick_5">
     <g id="line2d_5">
      <g>
       <use style="stroke:#000000;stroke-width:0.8;" x="821.159358" xlink:href="#m90f282d94f" y="307.584"/>
      </g>
     </g>
     <g id="text_5">
      <!-- 200 -->
      <g transform="translate(811.615608 322.182437)scale(0.1 -0.1)">
       <defs>
        <path d="M 19.1875 8.296875 
L 53.609375 8.296875 
L 53.609375 0 
L 7.328125 0 
L 7.328125 8.296875 
Q 12.9375 14.109375 22.625 23.890625 
Q 32.328125 33.6875 34.8125 36.53125 
Q 39.546875 41.84375 41.421875 45.53125 
Q 43.3125 49.21875 43.3125 52.78125 
Q 43.3125 58.59375 39.234375 62.25 
Q 35.15625 65.921875 28.609375 65.921875 
Q 23.96875 65.921875 18.8125 64.3125 
Q 13.671875 62.703125 7.8125 59.421875 
L 7.8125 69.390625 
Q 13.765625 71.78125 18.9375 73 
Q 24.125 74.21875 28.421875 74.21875 
Q 39.75 74.21875 46.484375 68.546875 
Q 53.21875 62.890625 53.21875 53.421875 
Q 53.21875 48.921875 51.53125 44.890625 
Q 49.859375 40.875 45.40625 35.40625 
Q 44.1875 33.984375 37.640625 27.21875 
Q 31.109375 20.453125 19.1875 8.296875 
z
" id="DejaVuSans-50"/>
       </defs>
       <use xlink:href="#DejaVuSans-50"/>
       <use x="63.623047" xlink:href="#DejaVuSans-48"/>
       <use x="127.246094" xlink:href="#DejaVuSans-48"/>
      </g>
     </g>
    </g>
    <g id="xtick_6">
     <g id="line2d_6">
      <g>
       <use style="stroke:#000000;stroke-width:0.8;" x="980.303743" xlink:href="#m90f282d94f" y="307.584"/>
      </g>
     </g>
     <g id="text_6">
      <!-- 250 -->
      <g transform="translate(970.759993 322.182437)scale(0.1 -0.1)">
       <use xlink:href="#DejaVuSans-50"/>
       <use x="63.623047" xlink:href="#DejaVuSans-53"/>
       <use x="127.246094" xlink:href="#DejaVuSans-48"/>
      </g>
     </g>
    </g>
   </g>
   <g id="matplotlib.axis_2">
    <g id="ytick_1">
     <g id="line2d_7">
      <defs>
       <path d="M 0 0 
L -3.5 0 
" id="mb75fc1aa78" style="stroke:#000000;stroke-width:0.8;"/>
      </defs>
      <g>
       <use style="stroke:#000000;stroke-width:0.8;" x="144" xlink:href="#mb75fc1aa78" y="306.787399"/>
      </g>
     </g>
     <g id="text_7">
      <!-- −0.15 -->
      <g transform="translate(106.354687 310.586618)scale(0.1 -0.1)">
       <defs>
        <path d="M 10.59375 35.5 
L 73.1875 35.5 
L 73.1875 27.203125 
L 10.59375 27.203125 
z
" id="DejaVuSans-8722"/>
        <path d="M 10.6875 12.40625 
L 21 12.40625 
L 21 0 
L 10.6875 0 
z
" id="DejaVuSans-46"/>
       </defs>
       <use xlink:href="#DejaVuSans-8722"/>
       <use x="83.789062" xlink:href="#DejaVuSans-48"/>
       <use x="147.412109" xlink:href="#DejaVuSans-46"/>
       <use x="179.199219" xlink:href="#DejaVuSans-49"/>
       <use x="242.822266" xlink:href="#DejaVuSans-53"/>
      </g>
     </g>
    </g>
    <g id="ytick_2">
     <g id="line2d_8">
      <g>
       <use style="stroke:#000000;stroke-width:0.8;" x="144" xlink:href="#mb75fc1aa78" y="264.319147"/>
      </g>
     </g>
     <g id="text_8">
      <!-- −0.10 -->
      <g transform="translate(106.354687 268.118366)scale(0.1 -0.1)">
       <use xlink:href="#DejaVuSans-8722"/>
       <use x="83.789062" xlink:href="#DejaVuSans-48"/>
       <use x="147.412109" xlink:href="#DejaVuSans-46"/>
       <use x="179.199219" xlink:href="#DejaVuSans-49"/>
       <use x="242.822266" xlink:href="#DejaVuSans-48"/>
      </g>
     </g>
    </g>
    <g id="ytick_3">
     <g id="line2d_9">
      <g>
       <use style="stroke:#000000;stroke-width:0.8;" x="144" xlink:href="#mb75fc1aa78" y="221.850896"/>
      </g>
     </g>
     <g id="text_9">
      <!-- −0.05 -->
      <g transform="translate(106.354687 225.650115)scale(0.1 -0.1)">
       <use xlink:href="#DejaVuSans-8722"/>
       <use x="83.789062" xlink:href="#DejaVuSans-48"/>
       <use x="147.412109" xlink:href="#DejaVuSans-46"/>
       <use x="179.199219" xlink:href="#DejaVuSans-48"/>
       <use x="242.822266" xlink:href="#DejaVuSans-53"/>
      </g>
     </g>
    </g>
    <g id="ytick_4">
     <g id="line2d_10">
      <g>
       <use style="stroke:#000000;stroke-width:0.8;" x="144" xlink:href="#mb75fc1aa78" y="179.382644"/>
      </g>
     </g>
     <g id="text_10">
      <!-- 0.00 -->
      <g transform="translate(114.734375 183.181863)scale(0.1 -0.1)">
       <use xlink:href="#DejaVuSans-48"/>
       <use x="63.623047" xlink:href="#DejaVuSans-46"/>
       <use x="95.410156" xlink:href="#DejaVuSans-48"/>
       <use x="159.033203" xlink:href="#DejaVuSans-48"/>
      </g>
     </g>
    </g>
    <g id="ytick_5">
     <g id="line2d_11">
      <g>
       <use style="stroke:#000000;stroke-width:0.8;" x="144" xlink:href="#mb75fc1aa78" y="136.914393"/>
      </g>
     </g>
     <g id="text_11">
      <!-- 0.05 -->
      <g transform="translate(114.734375 140.713612)scale(0.1 -0.1)">
       <use xlink:href="#DejaVuSans-48"/>
       <use x="63.623047" xlink:href="#DejaVuSans-46"/>
       <use x="95.410156" xlink:href="#DejaVuSans-48"/>
       <use x="159.033203" xlink:href="#DejaVuSans-53"/>
      </g>
     </g>
    </g>
    <g id="ytick_6">
     <g id="line2d_12">
      <g>
       <use style="stroke:#000000;stroke-width:0.8;" x="144" xlink:href="#mb75fc1aa78" y="94.446141"/>
      </g>
     </g>
     <g id="text_12">
      <!-- 0.10 -->
      <g transform="translate(114.734375 98.24536)scale(0.1 -0.1)">
       <use xlink:href="#DejaVuSans-48"/>
       <use x="63.623047" xlink:href="#DejaVuSans-46"/>
       <use x="95.410156" xlink:href="#DejaVuSans-49"/>
       <use x="159.033203" xlink:href="#DejaVuSans-48"/>
      </g>
     </g>
    </g>
    <g id="ytick_7">
     <g id="line2d_13">
      <g>
       <use style="stroke:#000000;stroke-width:0.8;" x="144" xlink:href="#mb75fc1aa78" y="51.97789"/>
      </g>
     </g>
     <g id="text_13">
      <!-- 0.15 -->
      <g transform="translate(114.734375 55.777109)scale(0.1 -0.1)">
       <use xlink:href="#DejaVuSans-48"/>
       <use x="63.623047" xlink:href="#DejaVuSans-46"/>
       <use x="95.410156" xlink:href="#DejaVuSans-49"/>
       <use x="159.033203" xlink:href="#DejaVuSans-53"/>
      </g>
     </g>
    </g>
   </g>
   <g id="line2d_14">
    <path clip-path="url(#pbe13a1a02b)" d="M 184.581818 181.938049 
L 187.764706 178.870995 
L 190.947594 179.545452 
L 200.496257 178.493321 
L 219.593583 176.569758 
L 229.142246 175.811124 
L 238.690909 175.272299 
L 248.239572 174.986677 
L 257.788235 174.967338 
L 267.336898 175.209461 
L 276.885561 175.687108 
L 289.617112 176.600873 
L 311.897326 178.535063 
L 346.909091 181.571255 
L 359.640642 182.385731 
L 369.189305 182.789459 
L 378.737968 182.990533 
L 388.286631 182.981639 
L 397.835294 182.766675 
L 407.383957 182.359757 
L 420.115508 181.556078 
L 432.847059 180.501819 
L 448.761497 178.917596 
L 471.041711 176.643437 
L 480.590374 175.868251 
L 490.139037 175.308939 
L 499.687701 175.000788 
L 509.236364 174.958552 
L 518.785027 175.178909 
L 528.33369 175.637998 
L 541.065241 176.535228 
L 560.162567 178.176893 
L 598.357219 181.50983 
L 611.08877 182.34226 
L 620.637433 182.762544 
L 630.186096 182.981509 
L 639.734759 182.990588 
L 649.283422 182.792922 
L 658.832086 182.401688 
L 671.563636 181.615908 
L 684.295187 180.576287 
L 700.209626 179.003873 
L 722.48984 176.718265 
L 732.038503 175.92698 
L 741.587166 175.347458 
L 751.135829 175.016868 
L 760.684492 174.951699 
L 770.233155 175.150138 
L 779.781818 175.590291 
L 792.513369 176.470323 
L 811.610695 178.10383 
L 849.805348 181.447538 
L 862.536898 182.297412 
L 872.085561 182.734173 
L 881.634225 182.970919 
L 891.182888 182.998095 
L 900.731551 182.817743 
L 910.280214 182.442381 
L 923.011765 181.674587 
L 935.743316 180.649938 
L 951.657754 179.089877 
L 977.120856 176.505596 
L 986.669519 175.761527 
L 989.852406 174.574109 
L 993.035294 136.37973 
L 996.218182 240.115183 
L 996.218182 240.115183 
" style="fill:none;stroke:#1f77b4;stroke-linecap:square;stroke-width:1.5;"/>
   </g>
   <g id="line2d_15">
    <path clip-path="url(#pbe13a1a02b)" d="M 184.581818 173.900041 
L 187.764706 159.578858 
L 200.496257 134.826505 
L 203.679144 129.233536 
L 206.862032 124.007537 
L 210.04492 119.172035 
L 213.227807 114.74446 
L 216.410695 110.73674 
L 219.593583 107.156373 
L 222.776471 104.007189 
L 225.959358 101.290441 
L 229.142246 99.005407 
L 232.325134 97.150365 
L 235.508021 95.723139 
L 238.690909 94.721489 
L 241.873797 94.143719 
L 245.056684 93.98886 
L 248.239572 94.256817 
L 251.42246 94.948446 
L 254.605348 96.065511 
L 257.788235 97.610214 
L 260.971123 99.585398 
L 264.154011 101.993587 
L 267.336898 104.836641 
L 270.519786 108.115004 
L 273.702674 111.826891 
L 276.885561 115.967308 
L 280.068449 120.527125 
L 283.251337 125.492147 
L 286.434225 130.842168 
L 289.617112 136.550204 
L 292.8 142.582335 
L 299.165775 155.446781 
L 305.531551 169.027836 
L 315.080214 189.677021 
L 321.445989 202.89575 
L 324.628877 209.168331 
L 327.811765 215.151662 
L 330.994652 220.80523 
L 334.17754 226.095221 
L 337.360428 230.994407 
L 340.543316 235.48156 
L 343.726203 239.541128 
L 346.909091 243.161887 
L 350.091979 246.336884 
L 353.274866 249.061651 
L 356.457754 251.334345 
L 359.640642 253.15422 
L 362.823529 254.521562 
L 366.006417 255.436856 
L 369.189305 255.900427 
L 372.372193 255.912476 
L 375.55508 255.472427 
L 378.737968 254.579389 
L 381.920856 253.232001 
L 385.103743 251.428946 
L 388.286631 249.169029 
L 391.469519 246.452065 
L 394.652406 243.279245 
L 397.835294 239.654062 
L 401.018182 235.583242 
L 404.20107 231.077557 
L 407.383957 226.152767 
L 410.566845 220.83061 
L 413.749733 215.13935 
L 416.93262 209.114331 
L 423.298396 196.239812 
L 429.664171 182.62484 
L 439.212834 161.902543 
L 445.57861 148.631636 
L 448.761497 142.332765 
L 451.944385 136.322238 
L 455.127273 130.639414 
L 458.31016 125.316424 
L 461.493048 120.378525 
L 464.675936 115.844584 
L 467.858824 111.727885 
L 471.041711 108.036983 
L 474.224599 104.776611 
L 477.407487 101.948517 
L 480.590374 99.552478 
L 483.773262 97.586977 
L 486.95615 96.049842 
L 490.139037 94.93877 
L 493.321925 94.251995 
L 496.504813 93.988322 
L 499.687701 94.147383 
L 502.870588 94.729855 
L 506.053476 95.737125 
L 509.236364 97.171508 
L 512.419251 99.035618 
L 515.602139 101.332106 
L 518.785027 104.0631 
L 521.967914 107.229465 
L 525.150802 110.83005 
L 528.33369 114.860831 
L 531.516578 119.313833 
L 534.699465 124.176198 
L 537.882353 129.42938 
L 541.065241 135.048232 
L 544.248128 141.000596 
L 547.431016 147.247037 
L 553.796791 160.430094 
L 572.894118 201.239702 
L 576.077005 207.579389 
L 579.259893 213.641317 
L 582.442781 219.383292 
L 585.625668 224.769735 
L 588.808556 229.771733 
L 591.991444 234.366703 
L 595.174332 238.537573 
L 598.357219 242.272178 
L 601.540107 245.562412 
L 604.722995 248.403328 
L 607.905882 250.792494 
L 611.08877 252.728986 
L 614.271658 254.21278 
L 617.454545 255.244388 
L 620.637433 255.824279 
L 623.820321 255.952584 
L 627.003209 255.628932 
L 630.186096 254.85265 
L 633.368984 253.622398 
L 636.551872 251.936745 
L 639.734759 249.794539 
L 642.917647 247.195193 
L 646.100535 244.139452 
L 649.283422 240.630222 
L 652.46631 236.673311 
L 655.649198 232.278275 
L 658.832086 227.459582 
L 662.014973 222.237329 
L 665.197861 216.637993 
L 668.380749 210.695131 
L 671.563636 204.449317 
L 677.929412 191.246132 
L 697.026738 150.294412 
L 700.209626 143.928528 
L 703.392513 137.839746 
L 706.575401 132.069177 
L 709.758289 126.650874 
L 712.941176 121.611777 
L 716.124064 116.972376 
L 719.306952 112.747267 
L 722.48984 108.946189 
L 725.672727 105.574694 
L 728.855615 102.635279 
L 732.038503 100.128123 
L 735.22139 98.051953 
L 738.404278 96.404744 
L 741.587166 95.184193 
L 744.770053 94.388357 
L 747.952941 94.015799 
L 751.135829 94.066001 
L 754.318717 94.539343 
L 757.501604 95.437076 
L 760.684492 96.761246 
L 763.86738 98.514492 
L 767.050267 100.699438 
L 770.233155 103.318415 
L 773.416043 106.372719 
L 776.59893 109.861763 
L 779.781818 113.782406 
L 782.964706 118.127701 
L 786.147594 122.8862 
L 789.330481 128.040912 
L 792.513369 133.568428 
L 795.696257 139.438388 
L 798.879144 145.613292 
L 805.24492 158.692584 
L 814.793583 179.291709 
L 821.159358 192.949277 
L 827.525134 205.972001 
L 830.708021 212.109729 
L 833.890909 217.937733 
L 837.073797 223.418758 
L 840.256684 228.522129 
L 843.439572 233.223718 
L 846.62246 237.505136 
L 849.805348 241.352941 
L 852.988235 244.758122 
L 856.171123 247.715104 
L 859.354011 250.220716 
L 862.536898 252.273763 
L 865.719786 253.874054 
L 868.902674 255.022032 
L 872.085561 255.71816 
L 875.268449 255.962703 
L 878.451337 255.755446 
L 881.634225 255.095826 
L 884.817112 253.982603 
L 888 252.414313 
L 891.182888 250.389719 
L 894.365775 247.908027 
L 897.548663 244.96965 
L 900.731551 241.57679 
L 903.914439 237.734358 
L 907.097326 233.450884 
L 910.280214 228.739606 
L 913.463102 223.618969 
L 916.645989 218.113773 
L 919.828877 212.25576 
L 923.011765 206.083695 
L 929.37754 192.987586 
L 938.926203 172.32658 
L 945.291979 158.61765 
L 951.657754 145.542703 
L 954.840642 139.378349 
L 958.023529 133.522349 
L 961.206417 128.010501 
L 964.389305 122.871557 
L 967.572193 118.127638 
L 970.75508 113.794797 
L 973.937968 109.883842 
L 977.120856 106.401374 
L 980.303743 103.350651 
L 983.486631 100.732307 
L 989.852406 96.475006 
L 993.035294 120.61674 
L 996.218182 103.470458 
L 996.218182 103.470458 
" style="fill:none;stroke:#ff7f0e;stroke-linecap:square;stroke-width:1.5;"/>
   </g>
   <g id="line2d_16">
    <path clip-path="url(#pbe13a1a02b)" d="M 184.581818 179.430416 
L 187.764706 158.308239 
L 200.496257 119.483367 
L 203.679144 110.688588 
L 206.862032 102.438242 
L 210.04492 94.777032 
L 213.227807 87.738061 
L 216.410695 81.344384 
L 219.593583 75.60999 
L 222.776471 70.542033 
L 225.959358 66.142296 
L 229.142246 62.408646 
L 232.325134 59.336882 
L 235.508021 56.921675 
L 238.690909 55.157824 
L 241.873797 54.040886 
L 245.056684 53.568 
L 248.239572 53.737964 
L 251.42246 54.55169 
L 254.605348 56.011937 
L 257.788235 58.123058 
L 260.971123 60.89066 
L 264.154011 64.320554 
L 267.336898 68.418179 
L 270.519786 73.18707 
L 273.702674 78.62766 
L 276.885561 84.735491 
L 280.068449 91.499505 
L 283.251337 98.900503 
L 286.434225 106.909071 
L 289.617112 115.48469 
L 292.8 124.574486 
L 295.982888 134.113143 
L 302.348663 154.217781 
L 318.263102 205.963793 
L 321.445989 215.769009 
L 324.628877 225.185296 
L 327.811765 234.142974 
L 330.994652 242.584085 
L 334.17754 250.462582 
L 337.360428 257.743305 
L 340.543316 264.401302 
L 343.726203 270.420106 
L 346.909091 275.790454 
L 350.091979 280.508427 
L 353.274866 284.574253 
L 356.457754 287.990971 
L 359.640642 290.762813 
L 362.823529 292.894589 
L 366.006417 294.390667 
L 369.189305 295.254424 
L 372.372193 295.487899 
L 375.55508 295.091231 
L 378.737968 294.063166 
L 381.920856 292.400453 
L 385.103743 290.098687 
L 388.286631 287.152805 
L 391.469519 283.557314 
L 394.652406 279.30767 
L 397.835294 274.40121 
L 401.018182 268.838484 
L 404.20107 262.624402 
L 407.383957 255.770375 
L 410.566845 248.2955 
L 413.749733 240.22832 
L 416.93262 231.607973 
L 420.115508 222.485302 
L 423.298396 212.923117 
L 429.664171 192.789898 
L 445.57861 141.021909 
L 448.761497 131.226094 
L 451.944385 121.829013 
L 455.127273 112.902771 
L 458.31016 104.507533 
L 461.493048 96.691015 
L 464.675936 89.489313 
L 467.858824 82.927804 
L 471.041711 77.022731 
L 474.224599 71.782866 
L 477.407487 67.211177 
L 480.590374 63.306336 
L 483.773262 60.064708 
L 486.95615 57.481005 
L 490.139037 55.549949 
L 493.321925 54.266779 
L 496.504813 53.628258 
L 499.687701 53.632763 
L 502.870588 54.28055 
L 506.053476 55.573996 
L 509.236364 57.517089 
L 512.419251 60.115094 
L 515.602139 63.373947 
L 518.785027 67.299203 
L 521.967914 71.895092 
L 525.150802 77.162965 
L 528.33369 83.099755 
L 531.516578 89.696355 
L 534.699465 96.935698 
L 537.882353 104.791312 
L 541.065241 113.225462 
L 544.248128 122.188636 
L 547.431016 131.618662 
L 553.796791 151.571395 
L 572.894118 213.278857 
L 576.077005 222.802379 
L 579.259893 231.88412 
L 582.442781 240.463117 
L 585.625668 248.490246 
L 588.808556 255.927638 
L 591.991444 262.747847 
L 595.174332 268.932351 
L 598.357219 274.47015 
L 601.540107 279.356189 
L 604.722995 283.589765 
L 607.905882 287.173207 
L 611.08877 290.110622 
L 614.271658 292.406706 
L 617.454545 294.066065 
L 620.637433 295.092408 
L 623.820321 295.488 
L 627.003209 295.253601 
L 630.186096 294.388376 
L 633.368984 292.889388 
L 636.551872 290.752637 
L 639.734759 287.973049 
L 642.917647 284.545282 
L 646.100535 280.464445 
L 649.283422 275.727234 
L 652.46631 270.333118 
L 655.649198 264.285881 
L 658.832086 257.595136 
L 662.014973 250.277816 
L 665.197861 242.359831 
L 668.380749 233.877484 
L 671.563636 224.8786 
L 674.746524 215.422916 
L 681.112299 195.439059 
L 697.026738 143.598357 
L 700.209626 133.713022 
L 703.392513 124.205877 
L 706.575401 115.152222 
L 709.758289 106.615218 
L 712.941176 98.645784 
L 716.124064 91.283009 
L 719.306952 84.554749 
L 722.48984 78.479642 
L 725.672727 73.068022 
L 728.855615 68.324281 
L 732.038503 64.248133 
L 735.22139 60.836124 
L 738.404278 58.083582 
L 741.587166 55.984928 
L 744.770053 54.535427 
L 747.952941 53.731117 
L 751.135829 53.570126 
L 754.318717 54.052175 
L 757.501604 55.179112 
L 760.684492 56.954494 
L 763.86738 59.383344 
L 767.050267 62.471511 
L 770.233155 66.22469 
L 773.416043 70.64769 
L 776.59893 75.742631 
L 779.781818 81.50783 
L 782.964706 87.935839 
L 786.147594 95.011855 
L 789.330481 102.711927 
L 792.513369 111.001369 
L 795.696257 119.833801 
L 798.879144 129.150269 
L 805.24492 148.939199 
L 814.793583 180.146802 
L 821.159358 200.789521 
L 827.525134 220.390156 
L 830.708021 229.591903 
L 833.890909 238.305496 
L 837.073797 246.47872 
L 840.256684 254.070989 
L 843.439572 261.052208 
L 846.62246 267.401677 
L 849.805348 273.106656 
L 852.988235 278.160711 
L 856.171123 282.562112 
L 859.354011 286.312614 
L 862.536898 289.415893 
L 865.719786 291.876688 
L 868.902674 293.699557 
L 872.085561 294.888549 
L 875.268449 295.446423 
L 878.451337 295.37423 
L 881.634225 294.671578 
L 884.817112 293.336112 
L 888 291.363922 
L 891.182888 288.750349 
L 894.365775 285.489997 
L 897.548663 281.577694 
L 900.731551 277.009619 
L 903.914439 271.784423 
L 907.097326 265.904746 
L 910.280214 259.37832 
L 913.463102 252.220194 
L 916.645989 244.453808 
L 919.828877 236.112722 
L 923.011765 227.241561 
L 926.194652 217.89703 
L 932.560428 198.074219 
L 942.109091 166.841512 
L 948.474866 146.194236 
L 954.840642 126.612917 
L 958.023529 117.435946 
L 961.206417 108.76055 
L 964.389305 100.640876 
L 967.572193 93.118774 
L 970.75508 86.225094 
L 973.937968 79.980491 
L 977.120856 74.397438 
L 980.303743 69.481657 
L 983.486631 65.233848 
L 986.669519 61.650773 
L 989.852406 59.464549 
L 993.035294 53.653216 
L 996.218182 61.83928 
L 996.218182 61.83928 
" style="fill:none;stroke:#2ca02c;stroke-linecap:square;stroke-width:1.5;"/>
   </g>
   <g id="line2d_17">
    <path clip-path="url(#pbe13a1a02b)" d="M 184.581818 180.543461 
L 187.764706 177.282813 
L 190.947594 179.514127 
L 194.130481 179.628006 
L 219.593583 182.787922 
L 229.142246 183.692279 
L 238.690909 184.291369 
L 245.056684 184.502987 
L 251.42246 184.56185 
L 260.971123 184.374086 
L 270.519786 183.889812 
L 280.068449 183.174285 
L 295.982888 181.697633 
L 324.628877 178.76424 
L 340.543316 177.205245 
L 350.091979 176.451631 
L 359.640642 175.901574 
L 369.189305 175.579105 
L 378.737968 175.486395 
L 388.286631 175.608999 
L 401.018182 176.056139 
L 413.749733 176.748114 
L 426.481283 177.647576 
L 436.029947 178.500776 
L 445.57861 179.544709 
L 477.407487 183.347013 
L 486.95615 184.080473 
L 493.321925 184.387823 
L 499.687701 184.542554 
L 506.053476 184.545482 
L 515.602139 184.279805 
L 525.150802 183.731104 
L 537.882353 182.686283 
L 556.979679 180.827351 
L 595.174332 177.002046 
L 604.722995 176.295141 
L 614.271658 175.800171 
L 623.820321 175.535045 
L 633.368984 175.497622 
L 642.917647 175.669534 
L 655.649198 176.168506 
L 668.380749 176.898697 
L 681.112299 177.842106 
L 690.660963 178.741373 
L 700.209626 179.829859 
L 725.672727 182.952193 
L 735.22139 183.811238 
L 744.770053 184.356736 
L 751.135829 184.531205 
L 757.501604 184.553426 
L 767.050267 184.314552 
L 776.59893 183.787702 
L 786.147594 183.042579 
L 802.062032 181.545527 
L 852.988235 176.567576 
L 862.536898 175.98023 
L 872.085561 175.617906 
L 881.634225 175.486417 
L 891.182888 175.573808 
L 900.731551 175.853412 
L 913.463102 176.461989 
L 926.194652 177.280053 
L 938.926203 178.341154 
L 948.474866 179.352626 
L 964.389305 181.345989 
L 977.120856 182.865758 
L 986.669519 183.747655 
L 989.852406 182.47442 
L 993.035294 193.667017 
L 996.218182 202.336737 
L 996.218182 202.336737 
" style="fill:none;stroke:#d62728;stroke-linecap:square;stroke-width:1.5;"/>
   </g>
   <g id="line2d_18">
    <path clip-path="url(#pbe13a1a02b)" d="M 184.581818 178.875877 
L 187.764706 178.59904 
L 190.947594 178.864662 
L 194.130481 178.877485 
L 216.410695 177.319684 
L 225.959358 176.850186 
L 235.508021 176.574146 
L 245.056684 176.491255 
L 257.788235 176.649534 
L 270.519786 177.058589 
L 289.617112 177.964143 
L 315.080214 179.198136 
L 327.811765 179.580597 
L 340.543316 179.704724 
L 359.640642 179.582413 
L 378.737968 179.519594 
L 397.835294 179.732885 
L 416.93262 179.934244 
L 426.481283 179.825017 
L 436.029947 179.48256 
L 445.57861 178.920026 
L 474.224599 177.024468 
L 483.773262 176.665776 
L 493.321925 176.50337 
L 502.870588 176.525112 
L 515.602139 176.801066 
L 528.33369 177.295866 
L 556.979679 178.736969 
L 572.894118 179.395056 
L 585.625668 179.665499 
L 598.357219 179.691296 
L 636.551872 179.5558 
L 674.746524 179.896855 
L 684.295187 179.655772 
L 693.84385 179.177882 
L 709.758289 178.06391 
L 722.48984 177.231578 
L 732.038503 176.79214 
L 741.587166 176.547998 
L 751.135829 176.494902 
L 763.86738 176.687135 
L 776.59893 177.121668 
L 795.696257 178.044367 
L 817.976471 179.132284 
L 830.708021 179.545757 
L 843.439572 179.702125 
L 859.354011 179.625599 
L 881.634225 179.513984 
L 897.548663 179.659832 
L 923.011765 179.930457 
L 932.560428 179.786297 
L 942.109091 179.404833 
L 954.840642 178.588185 
L 973.937968 177.277748 
L 983.486631 176.82231 
L 986.669519 176.713852 
L 989.852406 177.451273 
L 993.035294 162.630714 
L 996.218182 201.512892 
L 996.218182 201.512892 
" style="fill:none;stroke:#9467bd;stroke-linecap:square;stroke-width:1.5;"/>
   </g>
   <g id="line2d_19">
    <path clip-path="url(#pbe13a1a02b)" d="M 184.581818 173.461083 
L 187.764706 182.214151 
L 190.947594 179.546041 
L 194.130481 179.612192 
L 222.776471 178.61173 
L 241.873797 178.147909 
L 260.971123 177.920728 
L 280.068449 177.935037 
L 295.982888 178.166385 
L 308.714439 178.54816 
L 321.445989 179.126838 
L 356.457754 180.901303 
L 369.189305 181.245193 
L 381.920856 181.354489 
L 394.652406 181.245072 
L 410.566845 180.866761 
L 439.212834 179.874083 
L 480.590374 178.454092 
L 499.687701 178.057173 
L 518.785027 177.899366 
L 537.882353 177.989451 
L 553.796791 178.30829 
L 566.528342 178.77775 
L 582.442781 179.603088 
L 604.722995 180.746512 
L 617.454545 181.162379 
L 630.186096 181.345033 
L 642.917647 181.300955 
L 658.832086 180.981386 
L 681.112299 180.252086 
L 735.22139 178.392371 
L 754.318717 178.024699 
L 773.416043 177.896427 
L 789.330481 177.979796 
L 805.24492 178.285026 
L 817.976471 178.741464 
L 833.890909 179.55716 
L 856.171123 180.71229 
L 868.902674 181.142499 
L 881.634225 181.34029 
L 894.365775 181.310118 
L 910.280214 181.003538 
L 932.560428 180.281517 
L 986.669519 178.414318 
L 989.852406 178.437746 
L 993.035294 185.117448 
L 996.218182 155.857569 
L 996.218182 155.857569 
" style="fill:none;stroke:#8c564b;stroke-linecap:square;stroke-width:1.5;"/>
   </g>
   <g id="line2d_20">
    <path clip-path="url(#pbe13a1a02b)" d="M 184.581818 173.247363 
L 187.764706 183.159676 
L 190.947594 187.726542 
L 194.130481 191.655936 
L 200.496257 198.772542 
L 203.679144 202.100405 
L 206.862032 205.244096 
L 210.04492 208.183444 
L 213.227807 210.901752 
L 216.410695 213.385814 
L 219.593583 215.625462 
L 222.776471 217.613175 
L 225.959358 219.343778 
L 229.142246 220.813989 
L 232.325134 222.021804 
L 235.508021 222.966373 
L 238.690909 223.647367 
L 241.873797 224.064931 
L 245.056684 224.219366 
L 248.239572 224.111013 
L 251.42246 223.740234 
L 254.605348 223.107373 
L 257.788235 222.212959 
L 260.971123 221.057737 
L 264.154011 219.643073 
L 267.336898 217.97114 
L 270.519786 216.045295 
L 273.702674 213.870467 
L 276.885561 211.45371 
L 280.068449 208.804304 
L 283.251337 205.934392 
L 286.434225 202.859135 
L 289.617112 199.59681 
L 295.982888 192.599954 
L 302.348663 185.150878 
L 318.263102 166.183744 
L 324.628877 159.123507 
L 327.811765 155.818075 
L 330.994652 152.691662 
L 334.17754 149.7623 
L 337.360428 147.044678 
L 340.543316 144.550552 
L 343.726203 142.288824 
L 346.909091 140.265853 
L 350.091979 138.486086 
L 353.274866 136.95221 
L 356.457754 135.665598 
L 359.640642 134.626709 
L 362.823529 133.835499 
L 366.006417 133.291392 
L 369.189305 132.99379 
L 372.372193 132.942186 
L 375.55508 133.135983 
L 378.737968 133.574848 
L 381.920856 134.25855 
L 385.103743 135.186758 
L 388.286631 136.359103 
L 391.469519 137.77471 
L 394.652406 139.432304 
L 397.835294 141.32951 
L 401.018182 143.462875 
L 404.20107 145.827291 
L 407.383957 148.41569 
L 410.566845 151.218731 
L 413.749733 154.224543 
L 416.93262 157.418185 
L 423.298396 164.294453 
L 429.664171 171.66683 
L 448.761497 194.363238 
L 455.127273 201.260386 
L 458.31016 204.453555 
L 461.493048 207.447255 
L 464.675936 210.223891 
L 467.858824 212.769343 
L 471.041711 215.072723 
L 474.224599 217.125836 
L 477.407487 218.923047 
L 480.590374 220.460501 
L 483.773262 221.736004 
L 486.95615 222.748355 
L 490.139037 223.49727 
L 493.321925 223.982575 
L 496.504813 224.204757 
L 499.687701 224.164009 
L 502.870588 223.860737 
L 506.053476 223.295297 
L 509.236364 222.468171 
L 512.419251 221.380026 
L 515.602139 220.031986 
L 518.785027 218.426012 
L 521.967914 216.565098 
L 525.150802 214.453819 
L 528.33369 212.098531 
L 531.516578 209.507981 
L 534.699465 206.693534 
L 537.882353 203.669499 
L 541.065241 200.453372 
L 547.431016 193.530722 
L 553.796791 186.12685 
L 569.71123 167.128118 
L 576.077005 160.000959 
L 579.259893 156.652688 
L 582.442781 153.478349 
L 585.625668 150.496736 
L 588.808556 147.723397 
L 591.991444 145.170747 
L 595.174332 142.848483 
L 598.357219 140.763567 
L 601.540107 138.92085 
L 604.722995 137.323499 
L 607.905882 135.973145 
L 611.08877 134.870528 
L 614.271658 134.015545 
L 617.454545 133.407867 
L 620.637433 133.046894 
L 623.820321 132.932001 
L 627.003209 133.062648 
L 630.186096 133.438464 
L 633.368984 134.05914 
L 636.551872 134.924454 
L 639.734759 136.03397 
L 642.917647 137.387098 
L 646.100535 138.982538 
L 649.283422 140.818383 
L 652.46631 142.891341 
L 655.649198 145.196876 
L 658.832086 147.728381 
L 662.014973 150.477213 
L 665.197861 153.432105 
L 668.380749 156.578976 
L 674.746524 163.377215 
L 681.112299 170.697546 
L 700.209626 193.43396 
L 706.575401 200.408498 
L 709.758289 203.649787 
L 712.941176 206.696612 
L 716.124064 209.530627 
L 719.306952 212.136789 
L 722.48984 214.50335 
L 725.672727 216.621559 
L 728.855615 218.485055 
L 732.038503 220.089671 
L 735.22139 221.432747 
L 738.404278 222.512956 
L 741.587166 223.329606 
L 744.770053 223.8828 
L 747.952941 224.172654 
L 751.135829 224.199609 
L 754.318717 223.9639 
L 757.501604 223.465923 
L 760.684492 222.706101 
L 763.86738 221.685064 
L 767.050267 220.403791 
L 770.233155 218.863947 
L 773.416043 217.068309 
L 776.59893 215.02098 
L 779.781818 212.727773 
L 782.964706 210.196825 
L 786.147594 207.438778 
L 789.330481 204.467137 
L 792.513369 201.29863 
L 798.879144 194.453497 
L 805.24492 187.098754 
L 824.342246 164.423812 
L 830.708021 157.498876 
L 833.890909 154.277855 
L 837.073797 151.245002 
L 840.256684 148.416699 
L 843.439572 145.806244 
L 846.62246 143.423871 
L 849.805348 141.277318 
L 852.988235 139.371872 
L 856.171123 137.711206 
L 859.354011 136.297146 
L 862.536898 135.130695 
L 865.719786 134.211977 
L 868.902674 133.540672 
L 872.085561 133.116277 
L 875.268449 132.93806 
L 878.451337 133.005579 
L 881.634225 133.318294 
L 884.817112 133.875956 
L 888 134.678345 
L 891.182888 135.72504 
L 894.365775 137.015483 
L 897.548663 138.548733 
L 900.731551 140.322931 
L 903.914439 142.335255 
L 907.097326 144.581427 
L 910.280214 147.055512 
L 913.463102 149.749349 
L 916.645989 152.652405 
L 919.828877 155.751355 
L 923.011765 159.02996 
L 929.37754 166.045 
L 935.743316 173.505156 
L 951.657754 192.496833 
L 958.023529 199.545214 
L 961.206417 202.833086 
L 964.389305 205.931883 
L 967.572193 208.822269 
L 970.75508 211.488335 
L 973.937968 213.917571 
L 977.120856 216.100398 
L 980.303743 218.029939 
L 983.486631 219.701474 
L 986.669519 221.111759 
L 989.852406 221.410503 
L 993.035294 245.040489 
L 996.218182 182.818107 
L 996.218182 182.818107 
" style="fill:none;stroke:#e377c2;stroke-linecap:square;stroke-width:1.5;"/>
   </g>
   <g id="line2d_21">
    <path clip-path="url(#pbe13a1a02b)" d="M 184.581818 178.004056 
L 187.764706 180.253008 
L 190.947594 180.027811 
L 194.130481 180.594439 
L 219.593583 182.402911 
L 229.142246 182.851238 
L 238.690909 183.117675 
L 248.239572 183.183711 
L 257.788235 183.028715 
L 267.336898 182.632824 
L 276.885561 181.994261 
L 289.617112 180.847591 
L 308.714439 179.075608 
L 318.263102 178.437603 
L 327.811765 178.019446 
L 340.543316 177.728057 
L 359.640642 177.595474 
L 381.920856 177.671581 
L 397.835294 177.928509 
L 410.566845 178.330223 
L 423.298396 178.948432 
L 436.029947 179.784024 
L 474.224599 182.5297 
L 483.773262 182.934831 
L 493.321925 183.153381 
L 502.870588 183.166783 
L 512.419251 182.95374 
L 521.967914 182.496694 
L 531.516578 181.802257 
L 544.248128 180.615071 
L 560.162567 179.140557 
L 569.71123 178.48352 
L 579.259893 178.047498 
L 591.991444 177.740121 
L 607.905882 177.605663 
L 630.186096 177.638786 
L 646.100535 177.841513 
L 658.832086 178.181849 
L 671.563636 178.729683 
L 684.295187 179.500244 
L 703.392513 180.954466 
L 719.306952 182.114883 
L 732.038503 182.786632 
L 741.587166 183.085672 
L 751.135829 183.18746 
L 760.684492 183.071984 
L 770.233155 182.718383 
L 779.781818 182.12001 
L 789.330481 181.309787 
L 814.793583 178.957346 
L 824.342246 178.355696 
L 833.890909 177.970276 
L 846.62246 177.707404 
L 865.719786 177.593408 
L 888 177.687178 
L 903.914439 177.966596 
L 916.645989 178.393161 
L 929.37754 179.038642 
L 942.109091 179.897744 
L 977.120856 182.442775 
L 986.669519 182.879812 
L 989.852406 181.935401 
L 993.035294 203.728333 
L 996.218182 186.256533 
L 996.218182 186.256533 
" style="fill:none;stroke:#7f7f7f;stroke-linecap:square;stroke-width:1.5;"/>
   </g>
   <g id="line2d_22">
    <path clip-path="url(#pbe13a1a02b)" d="M 184.581818 168.354043 
L 187.764706 179.566835 
L 190.947594 177.760909 
L 194.130481 177.693576 
L 238.690909 178.518264 
L 254.605348 179.066864 
L 270.519786 179.839602 
L 289.617112 180.799532 
L 299.165775 181.100731 
L 308.714439 181.194423 
L 318.263102 181.085922 
L 334.17754 180.617825 
L 416.93262 177.715811 
L 429.664171 177.577659 
L 445.57861 177.688593 
L 480.590374 178.272089 
L 499.687701 178.789829 
L 515.602139 179.468117 
L 547.431016 180.997681 
L 556.979679 181.181605 
L 566.528342 181.153135 
L 579.259893 180.857894 
L 607.905882 179.835723 
L 668.380749 177.732647 
L 681.112299 177.579545 
L 697.026738 177.67792 
L 732.038503 178.255351 
L 751.135829 178.76137 
L 767.050267 179.427778 
L 798.879144 180.972251 
L 808.427807 181.1743 
L 817.976471 181.16325 
L 830.708021 180.882903 
L 856.171123 179.980633 
L 919.828877 177.7503 
L 932.560428 177.582326 
L 945.291979 177.631351 
L 973.937968 178.064313 
L 986.669519 178.303765 
L 989.852406 176.3061 
L 993.035294 235.997832 
L 996.218182 104.534005 
L 996.218182 104.534005 
" style="fill:none;stroke:#bcbd22;stroke-linecap:square;stroke-width:1.5;"/>
   </g>
   <g id="line2d_23">
    <path clip-path="url(#pbe13a1a02b)" d="M 184.581818 182.825279 
L 187.764706 180.885178 
L 190.947594 179.112766 
L 194.130481 178.727222 
L 213.227807 177.484428 
L 222.776471 177.077043 
L 232.325134 176.849401 
L 245.056684 176.80093 
L 257.788235 176.996295 
L 273.702674 177.504748 
L 295.982888 178.507726 
L 315.080214 179.322415 
L 327.811765 179.659313 
L 343.726203 179.825643 
L 391.469519 180.096882 
L 410.566845 180.229878 
L 420.115508 180.112301 
L 429.664171 179.77814 
L 439.212834 179.230462 
L 467.858824 177.3669 
L 477.407487 177.004224 
L 486.95615 176.819555 
L 499.687701 176.820345 
L 512.419251 177.055261 
L 528.33369 177.599569 
L 579.259893 179.64378 
L 595.174332 179.821848 
L 646.100535 180.124014 
L 662.014973 180.231769 
L 671.563636 180.130243 
L 681.112299 179.815877 
L 690.660963 179.284088 
L 722.48984 177.260241 
L 732.038503 176.942396 
L 744.770053 176.787744 
L 757.501604 176.89695 
L 770.233155 177.217777 
L 786.147594 177.836669 
L 824.342246 179.471452 
L 837.073797 179.733483 
L 856.171123 179.849169 
L 888 180.007839 
L 916.645989 180.223294 
L 926.194652 180.07388 
L 935.743316 179.702635 
L 948.474866 178.905781 
L 967.572193 177.617723 
L 977.120856 177.164664 
L 986.669519 176.891183 
L 989.852406 176.291656 
L 993.035294 195.629823 
L 996.218182 154.90541 
L 996.218182 154.90541 
" style="fill:none;stroke:#17becf;stroke-linecap:square;stroke-width:1.5;"/>
   </g>
   <g id="line2d_24">
    <path clip-path="url(#pbe13a1a02b)" d="M 184.581818 173.709696 
L 187.764706 181.387219 
L 190.947594 178.666776 
L 225.959358 176.114986 
L 235.508021 175.707421 
L 245.056684 175.552624 
L 254.605348 175.676624 
L 264.154011 176.07497 
L 273.702674 176.712025 
L 286.434225 177.812076 
L 305.531551 179.515478 
L 315.080214 180.173316 
L 324.628877 180.628159 
L 337.360428 180.948597 
L 353.274866 181.062204 
L 375.55508 180.974098 
L 394.652406 180.708737 
L 410.566845 180.309826 
L 426.481283 179.675692 
L 439.212834 178.940218 
L 455.127273 177.760488 
L 474.224599 176.348762 
L 483.773262 175.849991 
L 493.321925 175.584407 
L 502.870588 175.590253 
L 512.419251 175.87618 
L 521.967914 176.419568 
L 534.699465 177.446478 
L 560.162567 179.695827 
L 569.71123 180.305178 
L 579.259893 180.709933 
L 591.991444 180.980643 
L 607.905882 181.063609 
L 630.186096 180.951683 
L 649.283422 180.661155 
L 665.197861 180.23281 
L 677.929412 179.715538 
L 690.660963 178.994056 
L 706.575401 177.82515 
L 725.672727 176.400488 
L 735.22139 175.884397 
L 744.770053 175.596894 
L 754.318717 175.578658 
L 763.86738 175.840986 
L 773.416043 176.363951 
L 782.964706 177.096155 
L 817.976471 180.074412 
L 827.525134 180.564621 
L 837.073797 180.859666 
L 849.805348 181.032047 
L 868.902674 181.045798 
L 891.182888 180.844343 
L 910.280214 180.451514 
L 926.194652 179.898306 
L 938.926203 179.244437 
L 951.657754 178.380076 
L 980.303743 176.254704 
L 986.669519 175.920042 
L 989.852406 173.488083 
L 993.035294 259.91943 
L 996.218182 56.602579 
L 996.218182 56.602579 
" style="fill:none;stroke:#1f77b4;stroke-linecap:square;stroke-width:1.5;"/>
   </g>
   <g id="line2d_25">
    <path clip-path="url(#pbe13a1a02b)" d="M 184.581818 168.032467 
L 187.764706 183.462621 
L 190.947594 185.519831 
L 194.130481 188.26822 
L 200.496257 193.158571 
L 206.862032 197.601964 
L 210.04492 199.623771 
L 213.227807 201.497869 
L 216.410695 203.216073 
L 219.593583 204.772398 
L 222.776471 206.162415 
L 225.959358 207.383188 
L 229.142246 208.433116 
L 232.325134 209.311378 
L 235.508021 210.01777 
L 238.690909 210.552515 
L 241.873797 210.916 
L 245.056684 211.108411 
L 248.239572 211.130165 
L 251.42246 210.981223 
L 254.605348 210.661424 
L 257.788235 210.170553 
L 260.971123 209.508329 
L 264.154011 208.674511 
L 267.336898 207.66932 
L 270.519786 206.493421 
L 273.702674 205.148374 
L 276.885561 203.636861 
L 280.068449 201.96302 
L 283.251337 200.132669 
L 286.434225 198.153591 
L 292.8 193.791057 
L 299.165775 188.980867 
L 305.531551 183.860703 
L 321.445989 170.791928 
L 327.811765 165.904814 
L 334.17754 161.440439 
L 337.360428 159.404272 
L 340.543316 157.514828 
L 343.726203 155.781625 
L 346.909091 154.212217 
L 350.091979 152.812491 
L 353.274866 151.586868 
L 356.457754 150.538325 
L 359.640642 149.669028 
L 362.823529 148.980203 
L 366.006417 148.472613 
L 369.189305 148.146609 
L 372.372193 148.002299 
L 375.55508 148.039712 
L 378.737968 148.258736 
L 381.920856 148.659239 
L 385.103743 149.240902 
L 388.286631 150.003245 
L 391.469519 150.945286 
L 394.652406 152.06568 
L 397.835294 153.362015 
L 401.018182 154.831226 
L 404.20107 156.468608 
L 407.383957 158.268029 
L 410.566845 160.221575 
L 416.93262 164.549284 
L 423.298396 169.34643 
L 429.664171 174.474293 
L 445.57861 187.623508 
L 451.944385 192.552048 
L 458.31016 197.058763 
L 461.493048 199.117032 
L 464.675936 201.029985 
L 467.858824 202.789035 
L 471.041711 204.387502 
L 474.224599 205.820651 
L 477.407487 207.085158 
L 480.590374 208.179217 
L 483.773262 209.101703 
L 486.95615 209.852349 
L 490.139037 210.43124 
L 493.321925 210.838739 
L 496.504813 211.075229 
L 499.687701 211.140888 
L 502.870588 211.035858 
L 506.053476 210.760104 
L 509.236364 210.3133 
L 512.419251 209.695203 
L 515.602139 208.905565 
L 518.785027 207.944464 
L 521.967914 206.812385 
L 525.150802 205.510702 
L 528.33369 204.041686 
L 531.516578 202.409172 
L 534.699465 200.618451 
L 537.882353 198.676797 
L 544.248128 194.380299 
L 550.613904 189.620629 
L 556.979679 184.531661 
L 576.077005 168.936725 
L 582.442781 164.191058 
L 588.808556 159.914869 
L 591.991444 157.986662 
L 595.174332 156.212448 
L 598.357219 154.600255 
L 601.540107 153.156335 
L 604.722995 151.885587 
L 607.905882 150.79119 
L 611.08877 149.875608 
L 614.271658 149.140232 
L 617.454545 148.585933 
L 620.637433 148.213167 
L 623.820321 148.022094 
L 627.003209 148.012744 
L 630.186096 148.184993 
L 633.368984 148.538781 
L 636.551872 149.073896 
L 639.734759 149.789739 
L 642.917647 150.685673 
L 646.100535 151.760297 
L 649.283422 153.011659 
L 652.46631 154.436744 
L 655.649198 156.031311 
L 658.832086 157.789715 
L 662.014973 159.704434 
L 665.197861 161.76619 
L 671.563636 166.282271 
L 677.929412 171.220026 
L 687.478075 179.082962 
L 697.026738 186.965695 
L 703.392513 191.938512 
L 709.758289 196.506621 
L 712.941176 198.6006 
L 716.124064 200.551907 
L 719.306952 202.351265 
L 722.48984 203.991614 
L 725.672727 205.46768 
L 728.855615 206.775877 
L 732.038503 207.913926 
L 735.22139 208.880648 
L 738.404278 209.675509 
L 741.587166 210.298593 
L 744.770053 210.750197 
L 747.952941 211.03065 
L 751.135829 211.140318 
L 754.318717 211.079197 
L 757.501604 210.847421 
L 760.684492 210.444694 
L 763.86738 209.870736 
L 767.050267 209.125264 
L 770.233155 208.20826 
L 773.416043 207.12009 
L 776.59893 205.861932 
L 779.781818 204.435668 
L 782.964706 202.844819 
L 786.147594 201.094222 
L 789.330481 199.190616 
L 792.513369 197.142812 
L 798.879144 192.660676 
L 805.24492 187.761571 
L 814.793583 179.953287 
L 824.342246 172.101403 
L 830.708021 167.127906 
L 837.073797 162.542342 
L 840.256684 160.435018 
L 843.439572 158.468687 
L 846.62246 156.654017 
L 849.805348 154.999396 
L 852.988235 153.511707 
L 856.171123 152.195966 
L 859.354011 151.055968 
L 862.536898 150.094145 
L 865.719786 149.312247 
L 868.902674 148.711321 
L 872.085561 148.291783 
L 875.268449 148.053903 
L 878.451337 147.997778 
L 881.634225 148.123299 
L 884.817112 148.430368 
L 888 148.918847 
L 891.182888 149.588213 
L 894.365775 150.437833 
L 897.548663 151.466669 
L 900.731551 152.672738 
L 903.914439 154.053436 
L 907.097326 155.604922 
L 910.280214 157.321731 
L 913.463102 159.197096 
L 916.645989 161.221913 
L 923.011765 165.674514 
L 929.37754 170.565729 
L 938.926203 178.398733 
L 948.474866 186.303677 
L 954.840642 191.318201 
L 961.206417 195.945775 
L 964.389305 198.074717 
L 967.572193 200.063769 
L 970.75508 201.90299 
L 973.937968 203.584836 
L 977.120856 205.103646 
L 980.303743 206.455268 
L 983.486631 207.637337 
L 986.669519 208.648521 
L 989.852406 210.839571 
L 993.035294 202.507108 
L 996.218182 191.58282 
L 996.218182 191.58282 
" style="fill:none;stroke:#ff7f0e;stroke-linecap:square;stroke-width:1.5;"/>
   </g>
   <g id="line2d_26">
    <path clip-path="url(#pbe13a1a02b)" d="M 184.581818 172.395629 
L 187.764706 165.873629 
L 190.947594 161.621181 
L 197.313369 150.323573 
L 200.496257 144.969796 
L 203.679144 139.877921 
L 206.862032 135.080598 
L 210.04492 130.604728 
L 213.227807 126.471645 
L 216.410695 122.69758 
L 219.593583 119.294183 
L 222.776471 116.269299 
L 225.959358 113.627617 
L 229.142246 111.371528 
L 232.325134 109.50164 
L 235.508021 108.017587 
L 238.690909 106.918557 
L 241.873797 106.203571 
L 245.056684 105.872046 
L 248.239572 105.923824 
L 251.42246 106.359278 
L 254.605348 107.179503 
L 257.788235 108.385771 
L 260.971123 109.979804 
L 264.154011 111.962955 
L 267.336898 114.33587 
L 270.519786 117.097916 
L 273.702674 120.246486 
L 276.885561 123.776087 
L 280.068449 127.677742 
L 283.251337 131.938074 
L 286.434225 136.538642 
L 289.617112 141.455402 
L 292.8 146.658411 
L 299.165775 157.773975 
L 305.531551 169.534553 
L 318.263102 193.313925 
L 324.628877 204.485163 
L 327.811765 209.727635 
L 330.994652 214.69198 
L 334.17754 219.348448 
L 337.360428 223.672984 
L 340.543316 227.647025 
L 343.726203 231.256903 
L 346.909091 234.493218 
L 350.091979 237.350068 
L 353.274866 239.824127 
L 356.457754 241.914264 
L 359.640642 243.620579 
L 362.823529 244.943882 
L 366.006417 245.885337 
L 369.189305 246.445844 
L 372.372193 246.626029 
L 375.55508 246.425992 
L 378.737968 245.845191 
L 381.920856 244.882605 
L 385.103743 243.53678 
L 388.286631 241.806399 
L 391.469519 239.690335 
L 394.652406 237.188374 
L 397.835294 234.301744 
L 401.018182 231.033781 
L 404.20107 227.390822 
L 407.383957 223.382827 
L 410.566845 219.024134 
L 413.749733 214.334357 
L 416.93262 209.338564 
L 420.115508 204.067724 
L 426.481283 192.854408 
L 432.847059 181.052209 
L 442.395722 163.163785 
L 448.761497 151.739708 
L 451.944385 146.324487 
L 455.127273 141.161853 
L 458.31016 136.285891 
L 461.493048 131.725014 
L 464.675936 127.501946 
L 467.858824 123.634163 
L 471.041711 120.134438 
L 474.224599 117.011548 
L 477.407487 114.27091 
L 480.590374 111.915455 
L 483.773262 109.946106 
L 486.95615 108.362812 
L 490.139037 107.164746 
L 493.321925 106.350982 
L 496.504813 105.920774 
L 499.687701 105.873837 
L 502.870588 106.210463 
L 506.053476 106.931498 
L 509.236364 108.038223 
L 512.419251 109.532313 
L 515.602139 111.415161 
L 518.785027 113.687735 
L 521.967914 116.34975 
L 525.150802 119.399214 
L 528.33369 122.831423 
L 531.516578 126.638392 
L 534.699465 130.807923 
L 537.882353 135.322999 
L 541.065241 140.160956 
L 544.248128 145.293455 
L 547.431016 150.686122 
L 553.796791 162.086193 
L 572.894118 197.553796 
L 576.077005 203.09473 
L 579.259893 208.40325 
L 582.442781 213.442275 
L 585.625668 218.180539 
L 588.808556 222.592496 
L 591.991444 226.658253 
L 595.174332 230.362967 
L 598.357219 233.696167 
L 601.540107 236.651073 
L 604.722995 239.223847 
L 607.905882 241.412857 
L 611.08877 243.217962 
L 614.271658 244.639777 
L 617.454545 245.679365 
L 620.637433 246.337878 
L 623.820321 246.615992 
L 627.003209 246.513867 
L 630.186096 246.031172 
L 633.368984 245.166966 
L 636.551872 243.919963 
L 639.734759 242.288695 
L 642.917647 240.272023 
L 646.100535 237.86934 
L 649.283422 235.081493 
L 652.46631 231.911274 
L 655.649198 228.364049 
L 658.832086 224.448848 
L 662.014973 220.178802 
L 665.197861 215.572083 
L 668.380749 210.652324 
L 671.563636 205.449019 
L 677.929412 194.339091 
L 684.295187 182.590182 
L 697.026738 158.845769 
L 703.392513 147.695951 
L 706.575401 142.46481 
L 709.758289 137.5121 
L 712.941176 132.867693 
L 716.124064 128.555783 
L 719.306952 124.595135 
L 722.48984 120.999682 
L 725.672727 117.779147 
L 728.855615 114.939757 
L 732.038503 112.484948 
L 735.22139 110.416175 
L 738.404278 108.733579 
L 741.587166 107.436424 
L 744.770053 106.523806 
L 747.952941 105.994909 
L 751.135829 105.849283 
L 754.318717 106.087093 
L 757.501604 106.709066 
L 760.684492 107.716311 
L 763.86738 109.110528 
L 767.050267 110.893219 
L 770.233155 113.06542 
L 773.416043 115.627291 
L 776.59893 118.577337 
L 779.781818 121.911623 
L 782.964706 125.623098 
L 786.147594 129.700711 
L 789.330481 134.128729 
L 792.513369 138.886054 
L 795.696257 143.945782 
L 798.879144 149.275097 
L 805.24492 160.582273 
L 814.793583 178.441376 
L 821.159358 190.322583 
L 827.525134 201.68886 
L 830.708021 207.060997 
L 833.890909 212.172597 
L 837.073797 216.990971 
L 840.256684 221.489062 
L 843.439572 225.645566 
L 846.62246 229.444356 
L 849.805348 232.87398 
L 852.988235 235.926791 
L 856.171123 238.598147 
L 859.354011 240.886048 
L 862.536898 242.789925 
L 865.719786 244.310328 
L 868.902674 245.448251 
L 872.085561 246.204737 
L 875.268449 246.580756 
L 878.451337 246.57651 
L 881.634225 246.191853 
L 884.817112 245.425994 
L 888 244.277655 
L 891.182888 242.745475 
L 894.365775 240.828087 
L 897.548663 238.524745 
L 900.731551 235.835898 
L 903.914439 232.763729 
L 907.097326 229.312855 
L 910.280214 225.491274 
L 913.463102 221.31108 
L 916.645989 216.789033 
L 919.828877 211.947289 
L 923.011765 206.81379 
L 929.37754 195.813178 
L 935.743316 184.124372 
L 948.474866 160.334104 
L 954.840642 149.083562 
L 958.023529 143.786215 
L 961.206417 138.758761 
L 964.389305 134.032482 
L 967.572193 129.632935 
L 970.75508 125.580332 
L 973.937968 121.889815 
L 977.120856 118.572034 
L 980.303743 115.634043 
L 983.486631 113.080076 
L 986.669519 110.911431 
L 989.852406 109.544489 
L 993.035294 117.255648 
L 996.218182 108.387594 
L 996.218182 108.387594 
" style="fill:none;stroke:#2ca02c;stroke-linecap:square;stroke-width:1.5;"/>
   </g>
   <g id="line2d_27">
    <path clip-path="url(#pbe13a1a02b)" d="M 184.581818 194.417269 
L 187.764706 194.210789 
L 190.947594 201.402421 
L 197.313369 214.27864 
L 200.496257 220.348121 
L 203.679144 226.08079 
L 206.862032 231.440793 
L 210.04492 236.400088 
L 213.227807 240.937756 
L 216.410695 245.039382 
L 219.593583 248.696136 
L 222.776471 251.903629 
L 225.959358 254.660771 
L 229.142246 256.969125 
L 232.325134 258.831444 
L 235.508021 260.251367 
L 238.690909 261.232444 
L 241.873797 261.777889 
L 245.056684 261.890108 
L 248.239572 261.570461 
L 251.42246 260.819221 
L 254.605348 259.63581 
L 257.788235 258.018762 
L 260.971123 255.966215 
L 264.154011 253.476512 
L 267.336898 250.548514 
L 270.519786 247.182644 
L 273.702674 243.381649 
L 276.885561 239.151566 
L 280.068449 234.502685 
L 283.251337 229.450583 
L 286.434225 224.016843 
L 289.617112 218.230077 
L 292.8 212.125901 
L 299.165775 199.144633 
L 308.714439 178.57294 
L 315.080214 164.859248 
L 321.445989 151.735345 
L 324.628877 145.534853 
L 327.811765 139.63819 
L 330.994652 134.083795 
L 334.17754 128.903027 
L 337.360428 124.120357 
L 340.543316 119.753938 
L 343.726203 115.816531 
L 346.909091 112.316072 
L 350.091979 109.256914 
L 353.274866 106.640506 
L 356.457754 104.466425 
L 359.640642 102.732918 
L 362.823529 101.43782 
L 366.006417 100.578866 
L 369.189305 100.154239 
L 372.372193 100.162713 
L 375.55508 100.603976 
L 378.737968 101.478479 
L 381.920856 102.787486 
L 385.103743 104.532752 
L 388.286631 106.716211 
L 391.469519 109.339301 
L 394.652406 112.402743 
L 397.835294 115.905456 
L 401.018182 119.843806 
L 404.20107 124.210655 
L 407.383957 128.994553 
L 410.566845 134.178539 
L 413.749733 139.739579 
L 416.93262 145.647626 
L 420.115508 151.86547 
L 426.481283 165.045094 
L 436.029947 185.816646 
L 442.395722 199.578083 
L 448.761497 212.666746 
L 451.944385 218.816166 
L 455.127273 224.639262 
L 458.31016 230.098224 
L 461.493048 235.162925 
L 464.675936 239.810743 
L 467.858824 244.025695 
L 471.041711 247.79758 
L 474.224599 251.120912 
L 477.407487 253.993968 
L 480.590374 256.41761 
L 483.773262 258.394427 
L 486.95615 259.927948 
L 490.139037 261.021618 
L 493.321925 261.678998 
L 496.504813 261.902594 
L 499.687701 261.694008 
L 502.870588 261.053917 
L 506.053476 259.98189 
L 509.236364 258.47658 
L 512.419251 256.536367 
L 515.602139 254.159345 
L 518.785027 251.34423 
L 521.967914 248.090914 
L 525.150802 244.401474 
L 528.33369 240.281117 
L 531.516578 235.738791 
L 534.699465 230.78865 
L 537.882353 225.450738 
L 541.065241 219.751707 
L 544.248128 213.725436 
L 550.613904 200.862907 
L 556.979679 187.27253 
L 566.528342 166.601581 
L 572.894118 153.375428 
L 576.077005 147.103765 
L 579.259893 141.124946 
L 582.442781 135.479136 
L 585.625668 130.199593 
L 588.808556 125.312444 
L 591.991444 120.837476 
L 595.174332 116.788666 
L 598.357219 113.175178 
L 601.540107 110.002161 
L 604.722995 107.271782 
L 607.905882 104.983925 
L 611.08877 103.137192 
L 614.271658 101.729426 
L 617.454545 100.758418 
L 620.637433 100.222104 
L 623.820321 100.119174 
L 627.003209 100.448997 
L 630.186096 101.211857 
L 633.368984 102.408898 
L 636.551872 104.041659 
L 639.734759 106.112077 
L 642.917647 108.621917 
L 646.100535 111.57202 
L 649.283422 114.961918 
L 652.46631 118.788606 
L 655.649198 123.046027 
L 658.832086 127.723939 
L 662.014973 132.806853 
L 665.197861 138.27344 
L 668.380749 144.095398 
L 671.563636 150.237448 
L 677.929412 163.303798 
L 684.295187 177.049958 
L 693.84385 197.834037 
L 700.209626 211.036139 
L 703.392513 217.262526 
L 706.575401 223.173564 
L 709.758289 228.72944 
L 712.941176 233.898096 
L 716.124064 238.655051 
L 719.306952 242.982608 
L 722.48984 246.869256 
L 725.672727 250.308363 
L 728.855615 253.297366 
L 732.038503 255.83648 
L 735.22139 257.928072 
L 738.404278 259.5753 
L 741.587166 260.781941 
L 744.770053 261.551287 
L 747.952941 261.886356 
L 751.135829 261.788945 
L 754.318717 261.259953 
L 757.501604 260.299177 
L 760.684492 258.905624 
L 763.86738 257.077534 
L 767.050267 254.813111 
L 770.233155 252.110886 
L 773.416043 248.970251 
L 776.59893 245.392821 
L 779.781818 241.382633 
L 782.964706 236.947818 
L 786.147594 232.100986 
L 789.330481 226.860666 
L 792.513369 221.251658 
L 795.696257 215.30598 
L 798.879144 209.062949 
L 805.24492 195.877218 
L 824.342246 155.03176 
L 827.525134 148.692156 
L 830.708021 142.633816 
L 833.890909 136.898803 
L 837.073797 131.522184 
L 840.256684 126.531919 
L 843.439572 121.949257 
L 846.62246 117.789696 
L 849.805348 114.063501 
L 852.988235 110.776804 
L 856.171123 107.932339 
L 859.354011 105.530643 
L 862.536898 103.570546 
L 865.719786 102.050073 
L 868.902674 100.966769 
L 872.085561 100.318679 
L 875.268449 100.104297 
L 878.451337 100.322742 
L 881.634225 100.974009 
L 884.817112 102.059135 
L 888 103.579532 
L 891.182888 105.537123 
L 894.365775 107.933731 
L 897.548663 110.770431 
L 900.731551 114.047263 
L 903.914439 117.761972 
L 907.097326 121.909294 
L 910.280214 126.480204 
L 913.463102 131.460686 
L 916.645989 136.830866 
L 919.828877 142.564439 
L 923.011765 148.627892 
L 929.37754 161.573879 
L 935.743316 175.259478 
L 945.291979 196.079791 
L 951.657754 209.387804 
L 954.840642 215.687947 
L 958.023529 221.684311 
L 961.206417 227.335001 
L 964.389305 232.605997 
L 967.572193 237.470862 
L 970.75508 241.910302 
L 973.937968 245.911258 
L 977.120856 249.466001 
L 980.303743 252.5709 
L 983.486631 255.22572 
L 986.669519 257.432803 
L 989.852406 260.505978 
L 993.035294 241.334475 
L 996.218182 225.551981 
L 996.218182 225.551981 
" style="fill:none;stroke:#d62728;stroke-linecap:square;stroke-width:1.5;"/>
   </g>
   <g id="line2d_28">
    <path clip-path="url(#pbe13a1a02b)" d="M 184.581818 173.664848 
L 187.764706 181.520147 
L 190.947594 179.52273 
L 197.313369 178.954503 
L 210.04492 177.808061 
L 219.593583 177.161094 
L 229.142246 176.700584 
L 241.873797 176.323227 
L 254.605348 176.160308 
L 267.336898 176.211485 
L 276.885561 176.433037 
L 286.434225 176.864123 
L 295.982888 177.537177 
L 305.531551 178.430206 
L 330.994652 181.016287 
L 340.543316 181.716809 
L 350.091979 182.212067 
L 362.823529 182.617925 
L 378.737968 182.839926 
L 391.469519 182.818831 
L 404.20107 182.560541 
L 413.749733 182.147459 
L 423.298396 181.509762 
L 432.847059 180.663946 
L 461.493048 177.872647 
L 471.041711 177.208973 
L 480.590374 176.733528 
L 493.321925 176.340605 
L 506.053476 176.164764 
L 518.785027 176.200644 
L 528.33369 176.406484 
L 537.882353 176.817829 
L 547.431016 177.469899 
L 556.979679 178.346889 
L 585.625668 181.209586 
L 595.174332 181.857526 
L 604.722995 182.306914 
L 617.454545 182.668452 
L 633.368984 182.850197 
L 646.100535 182.791718 
L 655.649198 182.586296 
L 665.197861 182.191544 
L 674.746524 181.573323 
L 684.295187 180.743065 
L 716.124064 177.690159 
L 725.672727 177.074632 
L 738.404278 176.532387 
L 751.135829 176.239382 
L 763.86738 176.151867 
L 776.59893 176.298086 
L 786.147594 176.617444 
L 795.696257 177.166761 
L 805.24492 177.956081 
L 817.976471 179.268641 
L 833.890909 180.87485 
L 843.439572 181.611732 
L 852.988235 182.140359 
L 865.719786 182.578801 
L 878.451337 182.800891 
L 894.365775 182.832876 
L 907.097326 182.610742 
L 916.645989 182.233832 
L 926.194652 181.635247 
L 935.743316 180.821143 
L 970.75508 177.519569 
L 980.303743 176.951522 
L 986.669519 176.672487 
L 989.852406 178.997576 
L 993.035294 168.465094 
L 996.218182 162.234731 
L 996.218182 162.234731 
" style="fill:none;stroke:#9467bd;stroke-linecap:square;stroke-width:1.5;"/>
   </g>
   <g id="line2d_29">
    <path clip-path="url(#pbe13a1a02b)" d="M 184.581818 180.652153 
L 187.764706 181.518373 
L 190.947594 180.207258 
L 194.130481 180.07255 
L 241.873797 180.384095 
L 254.605348 180.154351 
L 270.519786 179.613205 
L 289.617112 178.981588 
L 302.348663 178.789987 
L 330.994652 178.505867 
L 362.823529 177.860607 
L 375.55508 177.934695 
L 388.286631 178.296199 
L 407.383957 179.170804 
L 420.115508 179.696026 
L 432.847059 179.984873 
L 455.127273 180.129219 
L 496.504813 180.358826 
L 509.236364 180.087986 
L 531.516578 179.288739 
L 544.248128 178.930376 
L 560.162567 178.754982 
L 579.259893 178.581692 
L 601.540107 178.063938 
L 614.271658 177.865629 
L 627.003209 177.921032 
L 639.734759 178.265283 
L 655.649198 178.978414 
L 671.563636 179.668544 
L 684.295187 179.97374 
L 703.392513 180.104602 
L 751.135829 180.325479 
L 763.86738 180.015262 
L 802.062032 178.839591 
L 846.62246 178.239571 
L 862.536898 177.905269 
L 875.268449 177.871992 
L 888 178.128211 
L 900.731551 178.634242 
L 926.194652 179.745058 
L 938.926203 180.003629 
L 986.669519 180.397659 
L 989.852406 182.550666 
L 993.035294 146.02798 
L 996.218182 190.890228 
L 996.218182 190.890228 
" style="fill:none;stroke:#8c564b;stroke-linecap:square;stroke-width:1.5;"/>
   </g>
   <g id="patch_3">
    <path d="M 144 307.584 
L 144 41.472 
" style="fill:none;stroke:#000000;stroke-linecap:square;stroke-linejoin:miter;stroke-width:0.8;"/>
   </g>
   <g id="patch_4">
    <path d="M 1036.8 307.584 
L 1036.8 41.472 
" style="fill:none;stroke:#000000;stroke-linecap:square;stroke-linejoin:miter;stroke-width:0.8;"/>
   </g>
   <g id="patch_5">
    <path d="M 144 307.584 
L 1036.8 307.584 
" style="fill:none;stroke:#000000;stroke-linecap:square;stroke-linejoin:miter;stroke-width:0.8;"/>
   </g>
   <g id="patch_6">
    <path d="M 144 41.472 
L 1036.8 41.472 
" style="fill:none;stroke:#000000;stroke-linecap:square;stroke-linejoin:miter;stroke-width:0.8;"/>
   </g>
   <g id="text_14">
    <!-- 3th layer's shape: torch.Size([1, 128, 256]). Uniformly sampling 16 channels -->
    <g transform="translate(360.85125 35.472)scale(0.12 -0.12)">
     <defs>
      <path d="M 40.578125 39.3125 
Q 47.65625 37.796875 51.625 33 
Q 55.609375 28.21875 55.609375 21.1875 
Q 55.609375 10.40625 48.1875 4.484375 
Q 40.765625 -1.421875 27.09375 -1.421875 
Q 22.515625 -1.421875 17.65625 -0.515625 
Q 12.796875 0.390625 7.625 2.203125 
L 7.625 11.71875 
Q 11.71875 9.328125 16.59375 8.109375 
Q 21.484375 6.890625 26.8125 6.890625 
Q 36.078125 6.890625 40.9375 10.546875 
Q 45.796875 14.203125 45.796875 21.1875 
Q 45.796875 27.640625 41.28125 31.265625 
Q 36.765625 34.90625 28.71875 34.90625 
L 20.21875 34.90625 
L 20.21875 43.015625 
L 29.109375 43.015625 
Q 36.375 43.015625 40.234375 45.921875 
Q 44.09375 48.828125 44.09375 54.296875 
Q 44.09375 59.90625 40.109375 62.90625 
Q 36.140625 65.921875 28.71875 65.921875 
Q 24.65625 65.921875 20.015625 65.03125 
Q 15.375 64.15625 9.8125 62.3125 
L 9.8125 71.09375 
Q 15.4375 72.65625 20.34375 73.4375 
Q 25.25 74.21875 29.59375 74.21875 
Q 40.828125 74.21875 47.359375 69.109375 
Q 53.90625 64.015625 53.90625 55.328125 
Q 53.90625 49.265625 50.4375 45.09375 
Q 46.96875 40.921875 40.578125 39.3125 
z
" id="DejaVuSans-51"/>
      <path d="M 18.3125 70.21875 
L 18.3125 54.6875 
L 36.8125 54.6875 
L 36.8125 47.703125 
L 18.3125 47.703125 
L 18.3125 18.015625 
Q 18.3125 11.328125 20.140625 9.421875 
Q 21.96875 7.515625 27.59375 7.515625 
L 36.8125 7.515625 
L 36.8125 0 
L 27.59375 0 
Q 17.1875 0 13.234375 3.875 
Q 9.28125 7.765625 9.28125 18.015625 
L 9.28125 47.703125 
L 2.6875 47.703125 
L 2.6875 54.6875 
L 9.28125 54.6875 
L 9.28125 70.21875 
z
" id="DejaVuSans-116"/>
      <path d="M 54.890625 33.015625 
L 54.890625 0 
L 45.90625 0 
L 45.90625 32.71875 
Q 45.90625 40.484375 42.875 44.328125 
Q 39.84375 48.1875 33.796875 48.1875 
Q 26.515625 48.1875 22.3125 43.546875 
Q 18.109375 38.921875 18.109375 30.90625 
L 18.109375 0 
L 9.078125 0 
L 9.078125 75.984375 
L 18.109375 75.984375 
L 18.109375 46.1875 
Q 21.34375 51.125 25.703125 53.5625 
Q 30.078125 56 35.796875 56 
Q 45.21875 56 50.046875 50.171875 
Q 54.890625 44.34375 54.890625 33.015625 
z
" id="DejaVuSans-104"/>
      <path id="DejaVuSans-32"/>
      <path d="M 9.421875 75.984375 
L 18.40625 75.984375 
L 18.40625 0 
L 9.421875 0 
z
" id="DejaVuSans-108"/>
      <path d="M 34.28125 27.484375 
Q 23.390625 27.484375 19.1875 25 
Q 14.984375 22.515625 14.984375 16.5 
Q 14.984375 11.71875 18.140625 8.90625 
Q 21.296875 6.109375 26.703125 6.109375 
Q 34.1875 6.109375 38.703125 11.40625 
Q 43.21875 16.703125 43.21875 25.484375 
L 43.21875 27.484375 
z
M 52.203125 31.203125 
L 52.203125 0 
L 43.21875 0 
L 43.21875 8.296875 
Q 40.140625 3.328125 35.546875 0.953125 
Q 30.953125 -1.421875 24.3125 -1.421875 
Q 15.921875 -1.421875 10.953125 3.296875 
Q 6 8.015625 6 15.921875 
Q 6 25.140625 12.171875 29.828125 
Q 18.359375 34.515625 30.609375 34.515625 
L 43.21875 34.515625 
L 43.21875 35.40625 
Q 43.21875 41.609375 39.140625 45 
Q 35.0625 48.390625 27.6875 48.390625 
Q 23 48.390625 18.546875 47.265625 
Q 14.109375 46.140625 10.015625 43.890625 
L 10.015625 52.203125 
Q 14.9375 54.109375 19.578125 55.046875 
Q 24.21875 56 28.609375 56 
Q 40.484375 56 46.34375 49.84375 
Q 52.203125 43.703125 52.203125 31.203125 
z
" id="DejaVuSans-97"/>
      <path d="M 32.171875 -5.078125 
Q 28.375 -14.84375 24.75 -17.8125 
Q 21.140625 -20.796875 15.09375 -20.796875 
L 7.90625 -20.796875 
L 7.90625 -13.28125 
L 13.1875 -13.28125 
Q 16.890625 -13.28125 18.9375 -11.515625 
Q 21 -9.765625 23.484375 -3.21875 
L 25.09375 0.875 
L 2.984375 54.6875 
L 12.5 54.6875 
L 29.59375 11.921875 
L 46.6875 54.6875 
L 56.203125 54.6875 
z
" id="DejaVuSans-121"/>
      <path d="M 56.203125 29.59375 
L 56.203125 25.203125 
L 14.890625 25.203125 
Q 15.484375 15.921875 20.484375 11.0625 
Q 25.484375 6.203125 34.421875 6.203125 
Q 39.59375 6.203125 44.453125 7.46875 
Q 49.3125 8.734375 54.109375 11.28125 
L 54.109375 2.78125 
Q 49.265625 0.734375 44.1875 -0.34375 
Q 39.109375 -1.421875 33.890625 -1.421875 
Q 20.796875 -1.421875 13.15625 6.1875 
Q 5.515625 13.8125 5.515625 26.8125 
Q 5.515625 40.234375 12.765625 48.109375 
Q 20.015625 56 32.328125 56 
Q 43.359375 56 49.78125 48.890625 
Q 56.203125 41.796875 56.203125 29.59375 
z
M 47.21875 32.234375 
Q 47.125 39.59375 43.09375 43.984375 
Q 39.0625 48.390625 32.421875 48.390625 
Q 24.90625 48.390625 20.390625 44.140625 
Q 15.875 39.890625 15.1875 32.171875 
z
" id="DejaVuSans-101"/>
      <path d="M 41.109375 46.296875 
Q 39.59375 47.171875 37.8125 47.578125 
Q 36.03125 48 33.890625 48 
Q 26.265625 48 22.1875 43.046875 
Q 18.109375 38.09375 18.109375 28.8125 
L 18.109375 0 
L 9.078125 0 
L 9.078125 54.6875 
L 18.109375 54.6875 
L 18.109375 46.1875 
Q 20.953125 51.171875 25.484375 53.578125 
Q 30.03125 56 36.53125 56 
Q 37.453125 56 38.578125 55.875 
Q 39.703125 55.765625 41.0625 55.515625 
z
" id="DejaVuSans-114"/>
      <path d="M 17.921875 72.90625 
L 17.921875 45.796875 
L 9.625 45.796875 
L 9.625 72.90625 
z
" id="DejaVuSans-39"/>
      <path d="M 44.28125 53.078125 
L 44.28125 44.578125 
Q 40.484375 46.53125 36.375 47.5 
Q 32.28125 48.484375 27.875 48.484375 
Q 21.1875 48.484375 17.84375 46.4375 
Q 14.5 44.390625 14.5 40.28125 
Q 14.5 37.15625 16.890625 35.375 
Q 19.28125 33.59375 26.515625 31.984375 
L 29.59375 31.296875 
Q 39.15625 29.25 43.1875 25.515625 
Q 47.21875 21.78125 47.21875 15.09375 
Q 47.21875 7.46875 41.1875 3.015625 
Q 35.15625 -1.421875 24.609375 -1.421875 
Q 20.21875 -1.421875 15.453125 -0.5625 
Q 10.6875 0.296875 5.421875 2 
L 5.421875 11.28125 
Q 10.40625 8.6875 15.234375 7.390625 
Q 20.0625 6.109375 24.8125 6.109375 
Q 31.15625 6.109375 34.5625 8.28125 
Q 37.984375 10.453125 37.984375 14.40625 
Q 37.984375 18.0625 35.515625 20.015625 
Q 33.0625 21.96875 24.703125 23.78125 
L 21.578125 24.515625 
Q 13.234375 26.265625 9.515625 29.90625 
Q 5.8125 33.546875 5.8125 39.890625 
Q 5.8125 47.609375 11.28125 51.796875 
Q 16.75 56 26.8125 56 
Q 31.78125 56 36.171875 55.265625 
Q 40.578125 54.546875 44.28125 53.078125 
z
" id="DejaVuSans-115"/>
      <path d="M 18.109375 8.203125 
L 18.109375 -20.796875 
L 9.078125 -20.796875 
L 9.078125 54.6875 
L 18.109375 54.6875 
L 18.109375 46.390625 
Q 20.953125 51.265625 25.265625 53.625 
Q 29.59375 56 35.59375 56 
Q 45.5625 56 51.78125 48.09375 
Q 58.015625 40.1875 58.015625 27.296875 
Q 58.015625 14.40625 51.78125 6.484375 
Q 45.5625 -1.421875 35.59375 -1.421875 
Q 29.59375 -1.421875 25.265625 0.953125 
Q 20.953125 3.328125 18.109375 8.203125 
z
M 48.6875 27.296875 
Q 48.6875 37.203125 44.609375 42.84375 
Q 40.53125 48.484375 33.40625 48.484375 
Q 26.265625 48.484375 22.1875 42.84375 
Q 18.109375 37.203125 18.109375 27.296875 
Q 18.109375 17.390625 22.1875 11.75 
Q 26.265625 6.109375 33.40625 6.109375 
Q 40.53125 6.109375 44.609375 11.75 
Q 48.6875 17.390625 48.6875 27.296875 
z
" id="DejaVuSans-112"/>
      <path d="M 11.71875 12.40625 
L 22.015625 12.40625 
L 22.015625 0 
L 11.71875 0 
z
M 11.71875 51.703125 
L 22.015625 51.703125 
L 22.015625 39.3125 
L 11.71875 39.3125 
z
" id="DejaVuSans-58"/>
      <path d="M 30.609375 48.390625 
Q 23.390625 48.390625 19.1875 42.75 
Q 14.984375 37.109375 14.984375 27.296875 
Q 14.984375 17.484375 19.15625 11.84375 
Q 23.34375 6.203125 30.609375 6.203125 
Q 37.796875 6.203125 41.984375 11.859375 
Q 46.1875 17.53125 46.1875 27.296875 
Q 46.1875 37.015625 41.984375 42.703125 
Q 37.796875 48.390625 30.609375 48.390625 
z
M 30.609375 56 
Q 42.328125 56 49.015625 48.375 
Q 55.71875 40.765625 55.71875 27.296875 
Q 55.71875 13.875 49.015625 6.21875 
Q 42.328125 -1.421875 30.609375 -1.421875 
Q 18.84375 -1.421875 12.171875 6.21875 
Q 5.515625 13.875 5.515625 27.296875 
Q 5.515625 40.765625 12.171875 48.375 
Q 18.84375 56 30.609375 56 
z
" id="DejaVuSans-111"/>
      <path d="M 48.78125 52.59375 
L 48.78125 44.1875 
Q 44.96875 46.296875 41.140625 47.34375 
Q 37.3125 48.390625 33.40625 48.390625 
Q 24.65625 48.390625 19.8125 42.84375 
Q 14.984375 37.3125 14.984375 27.296875 
Q 14.984375 17.28125 19.8125 11.734375 
Q 24.65625 6.203125 33.40625 6.203125 
Q 37.3125 6.203125 41.140625 7.25 
Q 44.96875 8.296875 48.78125 10.40625 
L 48.78125 2.09375 
Q 45.015625 0.34375 40.984375 -0.53125 
Q 36.96875 -1.421875 32.421875 -1.421875 
Q 20.0625 -1.421875 12.78125 6.34375 
Q 5.515625 14.109375 5.515625 27.296875 
Q 5.515625 40.671875 12.859375 48.328125 
Q 20.21875 56 33.015625 56 
Q 37.15625 56 41.109375 55.140625 
Q 45.0625 54.296875 48.78125 52.59375 
z
" id="DejaVuSans-99"/>
      <path d="M 53.515625 70.515625 
L 53.515625 60.890625 
Q 47.90625 63.578125 42.921875 64.890625 
Q 37.9375 66.21875 33.296875 66.21875 
Q 25.25 66.21875 20.875 63.09375 
Q 16.5 59.96875 16.5 54.203125 
Q 16.5 49.359375 19.40625 46.890625 
Q 22.3125 44.4375 30.421875 42.921875 
L 36.375 41.703125 
Q 47.40625 39.59375 52.65625 34.296875 
Q 57.90625 29 57.90625 20.125 
Q 57.90625 9.515625 50.796875 4.046875 
Q 43.703125 -1.421875 29.984375 -1.421875 
Q 24.8125 -1.421875 18.96875 -0.25 
Q 13.140625 0.921875 6.890625 3.21875 
L 6.890625 13.375 
Q 12.890625 10.015625 18.65625 8.296875 
Q 24.421875 6.59375 29.984375 6.59375 
Q 38.421875 6.59375 43.015625 9.90625 
Q 47.609375 13.234375 47.609375 19.390625 
Q 47.609375 24.75 44.3125 27.78125 
Q 41.015625 30.8125 33.5 32.328125 
L 27.484375 33.5 
Q 16.453125 35.6875 11.515625 40.375 
Q 6.59375 45.0625 6.59375 53.421875 
Q 6.59375 63.09375 13.40625 68.65625 
Q 20.21875 74.21875 32.171875 74.21875 
Q 37.3125 74.21875 42.625 73.28125 
Q 47.953125 72.359375 53.515625 70.515625 
z
" id="DejaVuSans-83"/>
      <path d="M 9.421875 54.6875 
L 18.40625 54.6875 
L 18.40625 0 
L 9.421875 0 
z
M 9.421875 75.984375 
L 18.40625 75.984375 
L 18.40625 64.59375 
L 9.421875 64.59375 
z
" id="DejaVuSans-105"/>
      <path d="M 5.515625 54.6875 
L 48.1875 54.6875 
L 48.1875 46.484375 
L 14.40625 7.171875 
L 48.1875 7.171875 
L 48.1875 0 
L 4.296875 0 
L 4.296875 8.203125 
L 38.09375 47.515625 
L 5.515625 47.515625 
z
" id="DejaVuSans-122"/>
      <path d="M 31 75.875 
Q 24.46875 64.65625 21.28125 53.65625 
Q 18.109375 42.671875 18.109375 31.390625 
Q 18.109375 20.125 21.3125 9.0625 
Q 24.515625 -2 31 -13.1875 
L 23.1875 -13.1875 
Q 15.875 -1.703125 12.234375 9.375 
Q 8.59375 20.453125 8.59375 31.390625 
Q 8.59375 42.28125 12.203125 53.3125 
Q 15.828125 64.359375 23.1875 75.875 
z
" id="DejaVuSans-40"/>
      <path d="M 8.59375 75.984375 
L 29.296875 75.984375 
L 29.296875 69 
L 17.578125 69 
L 17.578125 -6.203125 
L 29.296875 -6.203125 
L 29.296875 -13.1875 
L 8.59375 -13.1875 
z
" id="DejaVuSans-91"/>
      <path d="M 11.71875 12.40625 
L 22.015625 12.40625 
L 22.015625 4 
L 14.015625 -11.625 
L 7.71875 -11.625 
L 11.71875 4 
z
" id="DejaVuSans-44"/>
      <path d="M 31.78125 34.625 
Q 24.75 34.625 20.71875 30.859375 
Q 16.703125 27.09375 16.703125 20.515625 
Q 16.703125 13.921875 20.71875 10.15625 
Q 24.75 6.390625 31.78125 6.390625 
Q 38.8125 6.390625 42.859375 10.171875 
Q 46.921875 13.96875 46.921875 20.515625 
Q 46.921875 27.09375 42.890625 30.859375 
Q 38.875 34.625 31.78125 34.625 
z
M 21.921875 38.8125 
Q 15.578125 40.375 12.03125 44.71875 
Q 8.5 49.078125 8.5 55.328125 
Q 8.5 64.0625 14.71875 69.140625 
Q 20.953125 74.21875 31.78125 74.21875 
Q 42.671875 74.21875 48.875 69.140625 
Q 55.078125 64.0625 55.078125 55.328125 
Q 55.078125 49.078125 51.53125 44.71875 
Q 48 40.375 41.703125 38.8125 
Q 48.828125 37.15625 52.796875 32.3125 
Q 56.78125 27.484375 56.78125 20.515625 
Q 56.78125 9.90625 50.3125 4.234375 
Q 43.84375 -1.421875 31.78125 -1.421875 
Q 19.734375 -1.421875 13.25 4.234375 
Q 6.78125 9.90625 6.78125 20.515625 
Q 6.78125 27.484375 10.78125 32.3125 
Q 14.796875 37.15625 21.921875 38.8125 
z
M 18.3125 54.390625 
Q 18.3125 48.734375 21.84375 45.5625 
Q 25.390625 42.390625 31.78125 42.390625 
Q 38.140625 42.390625 41.71875 45.5625 
Q 45.3125 48.734375 45.3125 54.390625 
Q 45.3125 60.0625 41.71875 63.234375 
Q 38.140625 66.40625 31.78125 66.40625 
Q 25.390625 66.40625 21.84375 63.234375 
Q 18.3125 60.0625 18.3125 54.390625 
z
" id="DejaVuSans-56"/>
      <path d="M 33.015625 40.375 
Q 26.375 40.375 22.484375 35.828125 
Q 18.609375 31.296875 18.609375 23.390625 
Q 18.609375 15.53125 22.484375 10.953125 
Q 26.375 6.390625 33.015625 6.390625 
Q 39.65625 6.390625 43.53125 10.953125 
Q 47.40625 15.53125 47.40625 23.390625 
Q 47.40625 31.296875 43.53125 35.828125 
Q 39.65625 40.375 33.015625 40.375 
z
M 52.59375 71.296875 
L 52.59375 62.3125 
Q 48.875 64.0625 45.09375 64.984375 
Q 41.3125 65.921875 37.59375 65.921875 
Q 27.828125 65.921875 22.671875 59.328125 
Q 17.53125 52.734375 16.796875 39.40625 
Q 19.671875 43.65625 24.015625 45.921875 
Q 28.375 48.1875 33.59375 48.1875 
Q 44.578125 48.1875 50.953125 41.515625 
Q 57.328125 34.859375 57.328125 23.390625 
Q 57.328125 12.15625 50.6875 5.359375 
Q 44.046875 -1.421875 33.015625 -1.421875 
Q 20.359375 -1.421875 13.671875 8.265625 
Q 6.984375 17.96875 6.984375 36.375 
Q 6.984375 53.65625 15.1875 63.9375 
Q 23.390625 74.21875 37.203125 74.21875 
Q 40.921875 74.21875 44.703125 73.484375 
Q 48.484375 72.75 52.59375 71.296875 
z
" id="DejaVuSans-54"/>
      <path d="M 30.421875 75.984375 
L 30.421875 -13.1875 
L 9.71875 -13.1875 
L 9.71875 -6.203125 
L 21.390625 -6.203125 
L 21.390625 69 
L 9.71875 69 
L 9.71875 75.984375 
z
" id="DejaVuSans-93"/>
      <path d="M 8.015625 75.875 
L 15.828125 75.875 
Q 23.140625 64.359375 26.78125 53.3125 
Q 30.421875 42.28125 30.421875 31.390625 
Q 30.421875 20.453125 26.78125 9.375 
Q 23.140625 -1.703125 15.828125 -13.1875 
L 8.015625 -13.1875 
Q 14.5 -2 17.703125 9.0625 
Q 20.90625 20.125 20.90625 31.390625 
Q 20.90625 42.671875 17.703125 53.65625 
Q 14.5 64.65625 8.015625 75.875 
z
" id="DejaVuSans-41"/>
      <path d="M 8.6875 72.90625 
L 18.609375 72.90625 
L 18.609375 28.609375 
Q 18.609375 16.890625 22.84375 11.734375 
Q 27.09375 6.59375 36.625 6.59375 
Q 46.09375 6.59375 50.34375 11.734375 
Q 54.59375 16.890625 54.59375 28.609375 
L 54.59375 72.90625 
L 64.5 72.90625 
L 64.5 27.390625 
Q 64.5 13.140625 57.4375 5.859375 
Q 50.390625 -1.421875 36.625 -1.421875 
Q 22.796875 -1.421875 15.734375 5.859375 
Q 8.6875 13.140625 8.6875 27.390625 
z
" id="DejaVuSans-85"/>
      <path d="M 54.890625 33.015625 
L 54.890625 0 
L 45.90625 0 
L 45.90625 32.71875 
Q 45.90625 40.484375 42.875 44.328125 
Q 39.84375 48.1875 33.796875 48.1875 
Q 26.515625 48.1875 22.3125 43.546875 
Q 18.109375 38.921875 18.109375 30.90625 
L 18.109375 0 
L 9.078125 0 
L 9.078125 54.6875 
L 18.109375 54.6875 
L 18.109375 46.1875 
Q 21.34375 51.125 25.703125 53.5625 
Q 30.078125 56 35.796875 56 
Q 45.21875 56 50.046875 50.171875 
Q 54.890625 44.34375 54.890625 33.015625 
z
" id="DejaVuSans-110"/>
      <path d="M 37.109375 75.984375 
L 37.109375 68.5 
L 28.515625 68.5 
Q 23.6875 68.5 21.796875 66.546875 
Q 19.921875 64.59375 19.921875 59.515625 
L 19.921875 54.6875 
L 34.71875 54.6875 
L 34.71875 47.703125 
L 19.921875 47.703125 
L 19.921875 0 
L 10.890625 0 
L 10.890625 47.703125 
L 2.296875 47.703125 
L 2.296875 54.6875 
L 10.890625 54.6875 
L 10.890625 58.5 
Q 10.890625 67.625 15.140625 71.796875 
Q 19.390625 75.984375 28.609375 75.984375 
z
" id="DejaVuSans-102"/>
      <path d="M 52 44.1875 
Q 55.375 50.25 60.0625 53.125 
Q 64.75 56 71.09375 56 
Q 79.640625 56 84.28125 50.015625 
Q 88.921875 44.046875 88.921875 33.015625 
L 88.921875 0 
L 79.890625 0 
L 79.890625 32.71875 
Q 79.890625 40.578125 77.09375 44.375 
Q 74.3125 48.1875 68.609375 48.1875 
Q 61.625 48.1875 57.5625 43.546875 
Q 53.515625 38.921875 53.515625 30.90625 
L 53.515625 0 
L 44.484375 0 
L 44.484375 32.71875 
Q 44.484375 40.625 41.703125 44.40625 
Q 38.921875 48.1875 33.109375 48.1875 
Q 26.21875 48.1875 22.15625 43.53125 
Q 18.109375 38.875 18.109375 30.90625 
L 18.109375 0 
L 9.078125 0 
L 9.078125 54.6875 
L 18.109375 54.6875 
L 18.109375 46.1875 
Q 21.1875 51.21875 25.484375 53.609375 
Q 29.78125 56 35.6875 56 
Q 41.65625 56 45.828125 52.96875 
Q 50 49.953125 52 44.1875 
z
" id="DejaVuSans-109"/>
      <path d="M 45.40625 27.984375 
Q 45.40625 37.75 41.375 43.109375 
Q 37.359375 48.484375 30.078125 48.484375 
Q 22.859375 48.484375 18.828125 43.109375 
Q 14.796875 37.75 14.796875 27.984375 
Q 14.796875 18.265625 18.828125 12.890625 
Q 22.859375 7.515625 30.078125 7.515625 
Q 37.359375 7.515625 41.375 12.890625 
Q 45.40625 18.265625 45.40625 27.984375 
z
M 54.390625 6.78125 
Q 54.390625 -7.171875 48.1875 -13.984375 
Q 42 -20.796875 29.203125 -20.796875 
Q 24.46875 -20.796875 20.265625 -20.09375 
Q 16.0625 -19.390625 12.109375 -17.921875 
L 12.109375 -9.1875 
Q 16.0625 -11.328125 19.921875 -12.34375 
Q 23.78125 -13.375 27.78125 -13.375 
Q 36.625 -13.375 41.015625 -8.765625 
Q 45.40625 -4.15625 45.40625 5.171875 
L 45.40625 9.625 
Q 42.625 4.78125 38.28125 2.390625 
Q 33.9375 0 27.875 0 
Q 17.828125 0 11.671875 7.65625 
Q 5.515625 15.328125 5.515625 27.984375 
Q 5.515625 40.671875 11.671875 48.328125 
Q 17.828125 56 27.875 56 
Q 33.9375 56 38.28125 53.609375 
Q 42.625 51.21875 45.40625 46.390625 
L 45.40625 54.6875 
L 54.390625 54.6875 
z
" id="DejaVuSans-103"/>
     </defs>
     <use xlink:href="#DejaVuSans-51"/>
     <use x="63.623047" xlink:href="#DejaVuSans-116"/>
     <use x="102.832031" xlink:href="#DejaVuSans-104"/>
     <use x="166.210938" xlink:href="#DejaVuSans-32"/>
     <use x="197.998047" xlink:href="#DejaVuSans-108"/>
     <use x="225.78125" xlink:href="#DejaVuSans-97"/>
     <use x="287.060547" xlink:href="#DejaVuSans-121"/>
     <use x="346.240234" xlink:href="#DejaVuSans-101"/>
     <use x="407.763672" xlink:href="#DejaVuSans-114"/>
     <use x="448.876953" xlink:href="#DejaVuSans-39"/>
     <use x="476.367188" xlink:href="#DejaVuSans-115"/>
     <use x="528.466797" xlink:href="#DejaVuSans-32"/>
     <use x="560.253906" xlink:href="#DejaVuSans-115"/>
     <use x="612.353516" xlink:href="#DejaVuSans-104"/>
     <use x="675.732422" xlink:href="#DejaVuSans-97"/>
     <use x="737.011719" xlink:href="#DejaVuSans-112"/>
     <use x="800.488281" xlink:href="#DejaVuSans-101"/>
     <use x="862.011719" xlink:href="#DejaVuSans-58"/>
     <use x="895.703125" xlink:href="#DejaVuSans-32"/>
     <use x="927.490234" xlink:href="#DejaVuSans-116"/>
     <use x="966.699219" xlink:href="#DejaVuSans-111"/>
     <use x="1027.880859" xlink:href="#DejaVuSans-114"/>
     <use x="1066.744141" xlink:href="#DejaVuSans-99"/>
     <use x="1121.724609" xlink:href="#DejaVuSans-104"/>
     <use x="1185.103516" xlink:href="#DejaVuSans-46"/>
     <use x="1216.890625" xlink:href="#DejaVuSans-83"/>
     <use x="1280.367188" xlink:href="#DejaVuSans-105"/>
     <use x="1308.150391" xlink:href="#DejaVuSans-122"/>
     <use x="1360.640625" xlink:href="#DejaVuSans-101"/>
     <use x="1422.164062" xlink:href="#DejaVuSans-40"/>
     <use x="1461.177734" xlink:href="#DejaVuSans-91"/>
     <use x="1500.191406" xlink:href="#DejaVuSans-49"/>
     <use x="1563.814453" xlink:href="#DejaVuSans-44"/>
     <use x="1595.601562" xlink:href="#DejaVuSans-32"/>
     <use x="1627.388672" xlink:href="#DejaVuSans-49"/>
     <use x="1691.011719" xlink:href="#DejaVuSans-50"/>
     <use x="1754.634766" xlink:href="#DejaVuSans-56"/>
     <use x="1818.257812" xlink:href="#DejaVuSans-44"/>
     <use x="1850.044922" xlink:href="#DejaVuSans-32"/>
     <use x="1881.832031" xlink:href="#DejaVuSans-50"/>
     <use x="1945.455078" xlink:href="#DejaVuSans-53"/>
     <use x="2009.078125" xlink:href="#DejaVuSans-54"/>
     <use x="2072.701172" xlink:href="#DejaVuSans-93"/>
     <use x="2111.714844" xlink:href="#DejaVuSans-41"/>
     <use x="2150.728516" xlink:href="#DejaVuSans-46"/>
     <use x="2182.515625" xlink:href="#DejaVuSans-32"/>
     <use x="2214.302734" xlink:href="#DejaVuSans-85"/>
     <use x="2287.496094" xlink:href="#DejaVuSans-110"/>
     <use x="2350.875" xlink:href="#DejaVuSans-105"/>
     <use x="2378.658203" xlink:href="#DejaVuSans-102"/>
     <use x="2413.863281" xlink:href="#DejaVuSans-111"/>
     <use x="2475.044922" xlink:href="#DejaVuSans-114"/>
     <use x="2514.408203" xlink:href="#DejaVuSans-109"/>
     <use x="2611.820312" xlink:href="#DejaVuSans-108"/>
     <use x="2639.603516" xlink:href="#DejaVuSans-121"/>
     <use x="2698.783203" xlink:href="#DejaVuSans-32"/>
     <use x="2730.570312" xlink:href="#DejaVuSans-115"/>
     <use x="2782.669922" xlink:href="#DejaVuSans-97"/>
     <use x="2843.949219" xlink:href="#DejaVuSans-109"/>
     <use x="2941.361328" xlink:href="#DejaVuSans-112"/>
     <use x="3004.837891" xlink:href="#DejaVuSans-108"/>
     <use x="3032.621094" xlink:href="#DejaVuSans-105"/>
     <use x="3060.404297" xlink:href="#DejaVuSans-110"/>
     <use x="3123.783203" xlink:href="#DejaVuSans-103"/>
     <use x="3187.259766" xlink:href="#DejaVuSans-32"/>
     <use x="3219.046875" xlink:href="#DejaVuSans-49"/>
     <use x="3282.669922" xlink:href="#DejaVuSans-54"/>
     <use x="3346.292969" xlink:href="#DejaVuSans-32"/>
     <use x="3378.080078" xlink:href="#DejaVuSans-99"/>
     <use x="3433.060547" xlink:href="#DejaVuSans-104"/>
     <use x="3496.439453" xlink:href="#DejaVuSans-97"/>
     <use x="3557.71875" xlink:href="#DejaVuSans-110"/>
     <use x="3621.097656" xlink:href="#DejaVuSans-110"/>
     <use x="3684.476562" xlink:href="#DejaVuSans-101"/>
     <use x="3746" xlink:href="#DejaVuSans-108"/>
     <use x="3773.783203" xlink:href="#DejaVuSans-115"/>
    </g>
   </g>
  </g>
 </g>
 <defs>
  <clipPath id="pbe13a1a02b">
   <rect height="266.112" width="892.8" x="144" y="41.472"/>
  </clipPath>
 </defs>
</svg>
