<?xml version="1.0" encoding="utf-8" standalone="no"?>
<!DOCTYPE svg PUBLIC "-//W3C//DTD SVG 1.1//EN"
  "http://www.w3.org/Graphics/SVG/1.1/DTD/svg11.dtd">
<!-- Created with matplotlib (https://matplotlib.org/) -->
<svg height="345.6pt" version="1.1" viewBox="0 0 1152 345.6" width="1152pt" xmlns="http://www.w3.org/2000/svg" xmlns:xlink="http://www.w3.org/1999/xlink">
 <metadata>
  <rdf:RDF xmlns:cc="http://creativecommons.org/ns#" xmlns:dc="http://purl.org/dc/elements/1.1/" xmlns:rdf="http://www.w3.org/1999/02/22-rdf-syntax-ns#">
   <cc:Work>
    <dc:type rdf:resource="http://purl.org/dc/dcmitype/StillImage"/>
    <dc:date>2021-12-24T07:21:01.682272</dc:date>
    <dc:format>image/svg+xml</dc:format>
    <dc:creator>
     <cc:Agent>
      <dc:title>Matplotlib v3.3.3, https://matplotlib.org/</dc:title>
     </cc:Agent>
    </dc:creator>
   </cc:Work>
  </rdf:RDF>
 </metadata>
 <defs>
  <style type="text/css">*{stroke-linecap:butt;stroke-linejoin:round;}</style>
 </defs>
 <g id="figure_1">
  <g id="patch_1">
   <path d="M 0 345.6 
L 1152 345.6 
L 1152 0 
L 0 0 
z
" style="fill:#ffffff;"/>
  </g>
  <g id="axes_1">
   <g id="patch_2">
    <path d="M 144 307.584 
L 1036.8 307.584 
L 1036.8 41.472 
L 144 41.472 
z
" style="fill:#ffffff;"/>
   </g>
   <g id="matplotlib.axis_1">
    <g id="xtick_1">
     <g id="line2d_1">
      <defs>
       <path d="M 0 0 
L 0 3.5 
" id="me63b7e2956" style="stroke:#000000;stroke-width:0.8;"/>
      </defs>
      <g>
       <use style="stroke:#000000;stroke-width:0.8;" x="184.581818" xlink:href="#me63b7e2956" y="307.584"/>
      </g>
     </g>
     <g id="text_1">
      <!-- 0 -->
      <g transform="translate(181.400568 322.182437)scale(0.1 -0.1)">
       <defs>
        <path d="M 31.78125 66.40625 
Q 24.171875 66.40625 20.328125 58.90625 
Q 16.5 51.421875 16.5 36.375 
Q 16.5 21.390625 20.328125 13.890625 
Q 24.171875 6.390625 31.78125 6.390625 
Q 39.453125 6.390625 43.28125 13.890625 
Q 47.125 21.390625 47.125 36.375 
Q 47.125 51.421875 43.28125 58.90625 
Q 39.453125 66.40625 31.78125 66.40625 
z
M 31.78125 74.21875 
Q 44.046875 74.21875 50.515625 64.515625 
Q 56.984375 54.828125 56.984375 36.375 
Q 56.984375 17.96875 50.515625 8.265625 
Q 44.046875 -1.421875 31.78125 -1.421875 
Q 19.53125 -1.421875 13.0625 8.265625 
Q 6.59375 17.96875 6.59375 36.375 
Q 6.59375 54.828125 13.0625 64.515625 
Q 19.53125 74.21875 31.78125 74.21875 
z
" id="DejaVuSans-48"/>
       </defs>
       <use xlink:href="#DejaVuSans-48"/>
      </g>
     </g>
    </g>
    <g id="xtick_2">
     <g id="line2d_2">
      <g>
       <use style="stroke:#000000;stroke-width:0.8;" x="313.412987" xlink:href="#me63b7e2956" y="307.584"/>
      </g>
     </g>
     <g id="text_2">
      <!-- 10 -->
      <g transform="translate(307.050487 322.182437)scale(0.1 -0.1)">
       <defs>
        <path d="M 12.40625 8.296875 
L 28.515625 8.296875 
L 28.515625 63.921875 
L 10.984375 60.40625 
L 10.984375 69.390625 
L 28.421875 72.90625 
L 38.28125 72.90625 
L 38.28125 8.296875 
L 54.390625 8.296875 
L 54.390625 0 
L 12.40625 0 
z
" id="DejaVuSans-49"/>
       </defs>
       <use xlink:href="#DejaVuSans-49"/>
       <use x="63.623047" xlink:href="#DejaVuSans-48"/>
      </g>
     </g>
    </g>
    <g id="xtick_3">
     <g id="line2d_3">
      <g>
       <use style="stroke:#000000;stroke-width:0.8;" x="442.244156" xlink:href="#me63b7e2956" y="307.584"/>
      </g>
     </g>
     <g id="text_3">
      <!-- 20 -->
      <g transform="translate(435.881656 322.182437)scale(0.1 -0.1)">
       <defs>
        <path d="M 19.1875 8.296875 
L 53.609375 8.296875 
L 53.609375 0 
L 7.328125 0 
L 7.328125 8.296875 
Q 12.9375 14.109375 22.625 23.890625 
Q 32.328125 33.6875 34.8125 36.53125 
Q 39.546875 41.84375 41.421875 45.53125 
Q 43.3125 49.21875 43.3125 52.78125 
Q 43.3125 58.59375 39.234375 62.25 
Q 35.15625 65.921875 28.609375 65.921875 
Q 23.96875 65.921875 18.8125 64.3125 
Q 13.671875 62.703125 7.8125 59.421875 
L 7.8125 69.390625 
Q 13.765625 71.78125 18.9375 73 
Q 24.125 74.21875 28.421875 74.21875 
Q 39.75 74.21875 46.484375 68.546875 
Q 53.21875 62.890625 53.21875 53.421875 
Q 53.21875 48.921875 51.53125 44.890625 
Q 49.859375 40.875 45.40625 35.40625 
Q 44.1875 33.984375 37.640625 27.21875 
Q 31.109375 20.453125 19.1875 8.296875 
z
" id="DejaVuSans-50"/>
       </defs>
       <use xlink:href="#DejaVuSans-50"/>
       <use x="63.623047" xlink:href="#DejaVuSans-48"/>
      </g>
     </g>
    </g>
    <g id="xtick_4">
     <g id="line2d_4">
      <g>
       <use style="stroke:#000000;stroke-width:0.8;" x="571.075325" xlink:href="#me63b7e2956" y="307.584"/>
      </g>
     </g>
     <g id="text_4">
      <!-- 30 -->
      <g transform="translate(564.712825 322.182437)scale(0.1 -0.1)">
       <defs>
        <path d="M 40.578125 39.3125 
Q 47.65625 37.796875 51.625 33 
Q 55.609375 28.21875 55.609375 21.1875 
Q 55.609375 10.40625 48.1875 4.484375 
Q 40.765625 -1.421875 27.09375 -1.421875 
Q 22.515625 -1.421875 17.65625 -0.515625 
Q 12.796875 0.390625 7.625 2.203125 
L 7.625 11.71875 
Q 11.71875 9.328125 16.59375 8.109375 
Q 21.484375 6.890625 26.8125 6.890625 
Q 36.078125 6.890625 40.9375 10.546875 
Q 45.796875 14.203125 45.796875 21.1875 
Q 45.796875 27.640625 41.28125 31.265625 
Q 36.765625 34.90625 28.71875 34.90625 
L 20.21875 34.90625 
L 20.21875 43.015625 
L 29.109375 43.015625 
Q 36.375 43.015625 40.234375 45.921875 
Q 44.09375 48.828125 44.09375 54.296875 
Q 44.09375 59.90625 40.109375 62.90625 
Q 36.140625 65.921875 28.71875 65.921875 
Q 24.65625 65.921875 20.015625 65.03125 
Q 15.375 64.15625 9.8125 62.3125 
L 9.8125 71.09375 
Q 15.4375 72.65625 20.34375 73.4375 
Q 25.25 74.21875 29.59375 74.21875 
Q 40.828125 74.21875 47.359375 69.109375 
Q 53.90625 64.015625 53.90625 55.328125 
Q 53.90625 49.265625 50.4375 45.09375 
Q 46.96875 40.921875 40.578125 39.3125 
z
" id="DejaVuSans-51"/>
       </defs>
       <use xlink:href="#DejaVuSans-51"/>
       <use x="63.623047" xlink:href="#DejaVuSans-48"/>
      </g>
     </g>
    </g>
    <g id="xtick_5">
     <g id="line2d_5">
      <g>
       <use style="stroke:#000000;stroke-width:0.8;" x="699.906494" xlink:href="#me63b7e2956" y="307.584"/>
      </g>
     </g>
     <g id="text_5">
      <!-- 40 -->
      <g transform="translate(693.543994 322.182437)scale(0.1 -0.1)">
       <defs>
        <path d="M 37.796875 64.3125 
L 12.890625 25.390625 
L 37.796875 25.390625 
z
M 35.203125 72.90625 
L 47.609375 72.90625 
L 47.609375 25.390625 
L 58.015625 25.390625 
L 58.015625 17.1875 
L 47.609375 17.1875 
L 47.609375 0 
L 37.796875 0 
L 37.796875 17.1875 
L 4.890625 17.1875 
L 4.890625 26.703125 
z
" id="DejaVuSans-52"/>
       </defs>
       <use xlink:href="#DejaVuSans-52"/>
       <use x="63.623047" xlink:href="#DejaVuSans-48"/>
      </g>
     </g>
    </g>
    <g id="xtick_6">
     <g id="line2d_6">
      <g>
       <use style="stroke:#000000;stroke-width:0.8;" x="828.737662" xlink:href="#me63b7e2956" y="307.584"/>
      </g>
     </g>
     <g id="text_6">
      <!-- 50 -->
      <g transform="translate(822.375162 322.182437)scale(0.1 -0.1)">
       <defs>
        <path d="M 10.796875 72.90625 
L 49.515625 72.90625 
L 49.515625 64.59375 
L 19.828125 64.59375 
L 19.828125 46.734375 
Q 21.96875 47.46875 24.109375 47.828125 
Q 26.265625 48.1875 28.421875 48.1875 
Q 40.625 48.1875 47.75 41.5 
Q 54.890625 34.8125 54.890625 23.390625 
Q 54.890625 11.625 47.5625 5.09375 
Q 40.234375 -1.421875 26.90625 -1.421875 
Q 22.3125 -1.421875 17.546875 -0.640625 
Q 12.796875 0.140625 7.71875 1.703125 
L 7.71875 11.625 
Q 12.109375 9.234375 16.796875 8.0625 
Q 21.484375 6.890625 26.703125 6.890625 
Q 35.15625 6.890625 40.078125 11.328125 
Q 45.015625 15.765625 45.015625 23.390625 
Q 45.015625 31 40.078125 35.4375 
Q 35.15625 39.890625 26.703125 39.890625 
Q 22.75 39.890625 18.8125 39.015625 
Q 14.890625 38.140625 10.796875 36.28125 
z
" id="DejaVuSans-53"/>
       </defs>
       <use xlink:href="#DejaVuSans-53"/>
       <use x="63.623047" xlink:href="#DejaVuSans-48"/>
      </g>
     </g>
    </g>
    <g id="xtick_7">
     <g id="line2d_7">
      <g>
       <use style="stroke:#000000;stroke-width:0.8;" x="957.568831" xlink:href="#me63b7e2956" y="307.584"/>
      </g>
     </g>
     <g id="text_7">
      <!-- 60 -->
      <g transform="translate(951.206331 322.182437)scale(0.1 -0.1)">
       <defs>
        <path d="M 33.015625 40.375 
Q 26.375 40.375 22.484375 35.828125 
Q 18.609375 31.296875 18.609375 23.390625 
Q 18.609375 15.53125 22.484375 10.953125 
Q 26.375 6.390625 33.015625 6.390625 
Q 39.65625 6.390625 43.53125 10.953125 
Q 47.40625 15.53125 47.40625 23.390625 
Q 47.40625 31.296875 43.53125 35.828125 
Q 39.65625 40.375 33.015625 40.375 
z
M 52.59375 71.296875 
L 52.59375 62.3125 
Q 48.875 64.0625 45.09375 64.984375 
Q 41.3125 65.921875 37.59375 65.921875 
Q 27.828125 65.921875 22.671875 59.328125 
Q 17.53125 52.734375 16.796875 39.40625 
Q 19.671875 43.65625 24.015625 45.921875 
Q 28.375 48.1875 33.59375 48.1875 
Q 44.578125 48.1875 50.953125 41.515625 
Q 57.328125 34.859375 57.328125 23.390625 
Q 57.328125 12.15625 50.6875 5.359375 
Q 44.046875 -1.421875 33.015625 -1.421875 
Q 20.359375 -1.421875 13.671875 8.265625 
Q 6.984375 17.96875 6.984375 36.375 
Q 6.984375 53.65625 15.1875 63.9375 
Q 23.390625 74.21875 37.203125 74.21875 
Q 40.921875 74.21875 44.703125 73.484375 
Q 48.484375 72.75 52.59375 71.296875 
z
" id="DejaVuSans-54"/>
       </defs>
       <use xlink:href="#DejaVuSans-54"/>
       <use x="63.623047" xlink:href="#DejaVuSans-48"/>
      </g>
     </g>
    </g>
   </g>
   <g id="matplotlib.axis_2">
    <g id="ytick_1">
     <g id="line2d_8">
      <defs>
       <path d="M 0 0 
L -3.5 0 
" id="ma71acbf943" style="stroke:#000000;stroke-width:0.8;"/>
      </defs>
      <g>
       <use style="stroke:#000000;stroke-width:0.8;" x="144" xlink:href="#ma71acbf943" y="277.223596"/>
      </g>
     </g>
     <g id="text_8">
      <!-- −0.15 -->
      <g transform="translate(106.354687 281.022815)scale(0.1 -0.1)">
       <defs>
        <path d="M 10.59375 35.5 
L 73.1875 35.5 
L 73.1875 27.203125 
L 10.59375 27.203125 
z
" id="DejaVuSans-8722"/>
        <path d="M 10.6875 12.40625 
L 21 12.40625 
L 21 0 
L 10.6875 0 
z
" id="DejaVuSans-46"/>
       </defs>
       <use xlink:href="#DejaVuSans-8722"/>
       <use x="83.789062" xlink:href="#DejaVuSans-48"/>
       <use x="147.412109" xlink:href="#DejaVuSans-46"/>
       <use x="179.199219" xlink:href="#DejaVuSans-49"/>
       <use x="242.822266" xlink:href="#DejaVuSans-53"/>
      </g>
     </g>
    </g>
    <g id="ytick_2">
     <g id="line2d_9">
      <g>
       <use style="stroke:#000000;stroke-width:0.8;" x="144" xlink:href="#ma71acbf943" y="243.060379"/>
      </g>
     </g>
     <g id="text_9">
      <!-- −0.10 -->
      <g transform="translate(106.354687 246.859598)scale(0.1 -0.1)">
       <use xlink:href="#DejaVuSans-8722"/>
       <use x="83.789062" xlink:href="#DejaVuSans-48"/>
       <use x="147.412109" xlink:href="#DejaVuSans-46"/>
       <use x="179.199219" xlink:href="#DejaVuSans-49"/>
       <use x="242.822266" xlink:href="#DejaVuSans-48"/>
      </g>
     </g>
    </g>
    <g id="ytick_3">
     <g id="line2d_10">
      <g>
       <use style="stroke:#000000;stroke-width:0.8;" x="144" xlink:href="#ma71acbf943" y="208.897162"/>
      </g>
     </g>
     <g id="text_10">
      <!-- −0.05 -->
      <g transform="translate(106.354687 212.696381)scale(0.1 -0.1)">
       <use xlink:href="#DejaVuSans-8722"/>
       <use x="83.789062" xlink:href="#DejaVuSans-48"/>
       <use x="147.412109" xlink:href="#DejaVuSans-46"/>
       <use x="179.199219" xlink:href="#DejaVuSans-48"/>
       <use x="242.822266" xlink:href="#DejaVuSans-53"/>
      </g>
     </g>
    </g>
    <g id="ytick_4">
     <g id="line2d_11">
      <g>
       <use style="stroke:#000000;stroke-width:0.8;" x="144" xlink:href="#ma71acbf943" y="174.733945"/>
      </g>
     </g>
     <g id="text_11">
      <!-- 0.00 -->
      <g transform="translate(114.734375 178.533164)scale(0.1 -0.1)">
       <use xlink:href="#DejaVuSans-48"/>
       <use x="63.623047" xlink:href="#DejaVuSans-46"/>
       <use x="95.410156" xlink:href="#DejaVuSans-48"/>
       <use x="159.033203" xlink:href="#DejaVuSans-48"/>
      </g>
     </g>
    </g>
    <g id="ytick_5">
     <g id="line2d_12">
      <g>
       <use style="stroke:#000000;stroke-width:0.8;" x="144" xlink:href="#ma71acbf943" y="140.570728"/>
      </g>
     </g>
     <g id="text_12">
      <!-- 0.05 -->
      <g transform="translate(114.734375 144.369947)scale(0.1 -0.1)">
       <use xlink:href="#DejaVuSans-48"/>
       <use x="63.623047" xlink:href="#DejaVuSans-46"/>
       <use x="95.410156" xlink:href="#DejaVuSans-48"/>
       <use x="159.033203" xlink:href="#DejaVuSans-53"/>
      </g>
     </g>
    </g>
    <g id="ytick_6">
     <g id="line2d_13">
      <g>
       <use style="stroke:#000000;stroke-width:0.8;" x="144" xlink:href="#ma71acbf943" y="106.407511"/>
      </g>
     </g>
     <g id="text_13">
      <!-- 0.10 -->
      <g transform="translate(114.734375 110.20673)scale(0.1 -0.1)">
       <use xlink:href="#DejaVuSans-48"/>
       <use x="63.623047" xlink:href="#DejaVuSans-46"/>
       <use x="95.410156" xlink:href="#DejaVuSans-49"/>
       <use x="159.033203" xlink:href="#DejaVuSans-48"/>
      </g>
     </g>
    </g>
    <g id="ytick_7">
     <g id="line2d_14">
      <g>
       <use style="stroke:#000000;stroke-width:0.8;" x="144" xlink:href="#ma71acbf943" y="72.244294"/>
      </g>
     </g>
     <g id="text_14">
      <!-- 0.15 -->
      <g transform="translate(114.734375 76.043512)scale(0.1 -0.1)">
       <use xlink:href="#DejaVuSans-48"/>
       <use x="63.623047" xlink:href="#DejaVuSans-46"/>
       <use x="95.410156" xlink:href="#DejaVuSans-49"/>
       <use x="159.033203" xlink:href="#DejaVuSans-53"/>
      </g>
     </g>
    </g>
   </g>
   <g id="line2d_15">
    <path clip-path="url(#p690436a2da)" d="M 184.581818 156.094165 
L 197.464935 157.486217 
L 210.348052 164.659082 
L 223.231169 171.536235 
L 236.114286 177.836544 
L 248.997403 183.568351 
L 261.880519 188.959105 
L 274.763636 193.938513 
L 287.646753 197.710846 
L 300.52987 198.875139 
L 313.412987 196.49598 
L 326.296104 191.134396 
L 339.179221 184.403924 
L 352.062338 177.691902 
L 364.945455 171.557946 
L 377.828571 165.952259 
L 390.711688 160.676919 
L 403.594805 155.840433 
L 416.477922 152.226591 
L 429.361039 151.184855 
L 442.244156 153.652975 
L 455.127273 159.119606 
L 468.01039 165.963749 
L 480.893506 172.756038 
L 493.776623 178.936648 
L 506.65974 184.589888 
L 519.542857 189.926795 
L 532.425974 194.767505 
L 545.309091 198.167033 
L 558.192208 198.707104 
L 571.075325 195.684537 
L 583.958442 189.937274 
L 596.841558 183.128391 
L 609.724675 176.505388 
L 622.607792 170.484054 
L 635.490909 164.951545 
L 648.374026 159.733053 
L 661.257143 155.041155 
L 674.14026 151.797044 
L 687.023377 151.370394 
L 699.906494 154.48178 
L 712.78961 160.338553 
L 725.672727 167.257486 
L 738.555844 173.952928 
L 751.438961 180.01826 
L 764.322078 185.601631 
L 777.205195 190.879749 
L 790.088312 195.548589 
L 802.971429 198.522561 
L 815.854545 198.41125 
L 828.737662 194.776686 
L 841.620779 188.705203 
L 854.503896 181.86189 
L 867.387013 175.34116 
L 880.27013 169.427117 
L 893.153247 163.960526 
L 906.036364 158.805285 
L 918.919481 154.290187 
L 931.802597 151.466537 
L 944.685714 151.682905 
L 957.568831 155.408015 
L 970.451948 161.454402 
L 983.335065 176.120644 
L 996.218182 182.865708 
" style="fill:none;stroke:#1f77b4;stroke-linecap:square;stroke-width:1.5;"/>
   </g>
   <g id="line2d_16">
    <path clip-path="url(#p690436a2da)" d="M 184.581818 184.237681 
L 197.464935 211.600732 
L 210.348052 228.718667 
L 223.231169 240.098988 
L 236.114286 245.372034 
L 248.997403 244.615288 
L 261.880519 237.789198 
L 274.763636 224.806284 
L 287.646753 206.086835 
L 300.52987 183.312788 
L 313.412987 159.564936 
L 326.296104 138.265399 
L 339.179221 121.812582 
L 352.062338 111.201697 
L 364.945455 106.566574 
L 377.828571 107.839121 
L 390.711688 115.076363 
L 403.594805 128.356056 
L 416.477922 147.244796 
L 429.361039 170.085705 
L 442.244156 193.836907 
L 455.127273 215.055557 
L 468.01039 231.290548 
L 480.893506 241.537553 
L 493.776623 245.685866 
L 506.65974 243.810808 
L 519.542857 235.843333 
L 532.425974 221.735523 
L 545.309091 202.089427 
L 558.192208 178.8709 
L 571.075325 155.334462 
L 583.958442 134.797715 
L 596.841558 119.389986 
L 609.724675 109.891993 
L 622.607792 106.356877 
L 635.490909 108.727639 
L 648.374026 117.086514 
L 661.257143 131.467756 
L 674.14026 151.260903 
L 687.023377 174.532616 
L 699.906494 198.060499 
L 712.78961 218.494208 
L 725.672727 233.656061 
L 738.555844 242.765729 
L 751.438961 245.792781 
L 764.322078 242.796584 
L 777.205195 233.684253 
L 790.088312 218.46989 
L 802.971429 197.964835 
L 815.854545 174.417873 
L 828.737662 151.211189 
L 841.620779 131.510798 
L 854.503896 117.173071 
L 867.387013 108.787822 
L 880.27013 106.350188 
L 893.153247 109.822617 
L 906.036364 119.305974 
L 918.919481 134.769923 
L 931.802597 155.400976 
L 944.685714 178.98869 
L 957.568831 202.173594 
L 970.451948 221.66013 
L 983.335065 234.473508 
L 996.218182 286.530478 
" style="fill:none;stroke:#ff7f0e;stroke-linecap:square;stroke-width:1.5;"/>
   </g>
   <g id="line2d_17">
    <path clip-path="url(#p690436a2da)" d="M 184.581818 200.58245 
L 197.464935 203.472531 
L 210.348052 212.257145 
L 223.231169 218.512576 
L 236.114286 220.723494 
L 248.997403 218.749854 
L 261.880519 212.559844 
L 274.763636 202.406538 
L 287.646753 189.150368 
L 300.52987 174.344362 
L 313.412987 159.828682 
L 326.296104 147.204704 
L 339.179221 137.607737 
L 352.062338 131.713887 
L 364.945455 129.848007 
L 377.828571 132.147382 
L 390.711688 138.634799 
L 403.594805 149.054971 
L 416.477922 162.543039 
L 429.361039 177.503329 
L 442.244156 192.014887 
L 455.127273 204.447721 
L 468.01039 213.724269 
L 480.893506 219.234017 
L 493.776623 220.676242 
L 506.65974 217.917547 
L 519.542857 210.958867 
L 532.425974 200.142083 
L 545.309091 186.464271 
L 558.192208 171.57434 
L 571.075325 157.301629 
L 583.958442 145.168303 
L 596.841558 136.220117 
L 609.724675 131.057302 
L 622.607792 129.957615 
L 635.490909 133.037173 
L 648.374026 140.287577 
L 661.257143 151.365619 
L 674.14026 165.265907 
L 687.023377 180.286736 
L 699.906494 194.519701 
L 712.78961 206.431943 
L 725.672727 215.044042 
L 738.555844 219.814745 
L 751.438961 220.483991 
L 764.322078 216.939631 
L 777.205195 209.223078 
L 790.088312 197.776969 
L 802.971429 183.735875 
L 815.854545 168.826538 
L 828.737662 154.849619 
L 841.620779 143.242951 
L 854.503896 134.963965 
L 867.387013 130.54121 
L 880.27013 130.21152 
L 893.153247 134.071647 
L 906.036364 142.074207 
L 918.919481 153.775752 
L 931.802597 168.027982 
L 944.685714 183.041817 
L 957.568831 196.942929 
L 970.451948 208.235128 
L 983.335065 216.285963 
L 996.218182 192.440641 
" style="fill:none;stroke:#2ca02c;stroke-linecap:square;stroke-width:1.5;"/>
   </g>
   <g id="line2d_18">
    <path clip-path="url(#p690436a2da)" d="M 184.581818 170.206047 
L 197.464935 172.962189 
L 210.348052 170.028095 
L 223.231169 168.700118 
L 236.114286 167.961665 
L 248.997403 167.894544 
L 261.880519 168.478034 
L 274.763636 169.651857 
L 287.646753 171.290494 
L 300.52987 173.221306 
L 313.412987 175.293512 
L 326.296104 177.349019 
L 339.179221 179.153261 
L 352.062338 180.475097 
L 364.945455 181.18679 
L 377.828571 181.254275 
L 390.711688 180.686385 
L 403.594805 179.522903 
L 416.477922 177.859452 
L 429.361039 175.85625 
L 442.244156 173.69677 
L 455.127273 171.585177 
L 468.01039 169.779522 
L 480.893506 168.512553 
L 493.776623 167.898607 
L 506.65974 167.954859 
L 519.542857 168.654066 
L 532.425974 169.925822 
L 545.309091 171.631935 
L 558.192208 173.599279 
L 571.075325 175.682374 
L 583.958442 177.710792 
L 596.841558 179.440534 
L 609.724675 180.655272 
L 622.607792 181.248135 
L 635.490909 181.196174 
L 648.374026 180.513512 
L 661.257143 179.247869 
L 674.14026 177.507795 
L 687.023377 175.461687 
L 699.906494 173.294136 
L 712.78961 171.218764 
L 725.672727 169.498416 
L 738.555844 168.347773 
L 751.438961 167.858783 
L 764.322078 168.037418 
L 777.205195 168.850018 
L 790.088312 170.214922 
L 802.971429 171.982237 
L 815.854545 173.981319 
L 828.737662 176.069633 
L 841.620779 178.062112 
L 854.503896 179.709688 
L 867.387013 180.813678 
L 880.27013 181.287071 
L 893.153247 181.116272 
L 906.036364 180.320397 
L 918.919481 178.956225 
L 931.802597 177.145574 
L 944.685714 175.062761 
L 957.568831 172.894403 
L 970.451948 170.971894 
L 983.335065 168.144895 
L 996.218182 183.941504 
" style="fill:none;stroke:#d62728;stroke-linecap:square;stroke-width:1.5;"/>
   </g>
   <g id="line2d_19">
    <path clip-path="url(#p690436a2da)" d="M 184.581818 147.981158 
L 197.464935 151.976734 
L 210.348052 157.906482 
L 223.231169 164.695318 
L 236.114286 171.574889 
L 248.997403 178.420904 
L 261.880519 185.354621 
L 274.763636 192.155965 
L 287.646753 197.852409 
L 300.52987 200.896848 
L 313.412987 200.205075 
L 326.296104 196.1155 
L 339.179221 190.033813 
L 352.062338 183.290297 
L 364.945455 176.51621 
L 377.828571 169.765247 
L 390.711688 162.950784 
L 403.594805 156.321916 
L 416.477922 150.811634 
L 429.361039 147.893845 
L 442.244156 148.670474 
L 455.127273 152.880975 
L 468.01039 159.112413 
L 480.893506 165.977871 
L 493.776623 172.844244 
L 506.65974 179.700198 
L 519.542857 186.644748 
L 532.425974 193.33939 
L 545.309091 198.664772 
L 558.192208 201.062245 
L 571.075325 199.668621 
L 583.958442 195.090096 
L 596.841558 188.802783 
L 609.724675 182.027945 
L 622.607792 175.264808 
L 635.490909 168.504844 
L 648.374026 161.6887 
L 661.257143 155.174484 
L 674.14026 150.028641 
L 687.023377 147.744847 
L 699.906494 149.225253 
L 712.78961 153.933873 
L 725.672727 160.369264 
L 738.555844 167.258601 
L 751.438961 174.112954 
L 764.322078 180.983837 
L 777.205195 187.928667 
L 790.088312 194.47728 
L 802.971429 199.37411 
L 815.854545 201.092219 
L 828.737662 199.019751 
L 841.620779 194.006772 
L 854.503896 187.557181 
L 867.387013 180.76739 
L 880.27013 174.013609 
L 893.153247 167.241271 
L 906.036364 160.434803 
L 918.919481 154.072547 
L 931.802597 149.345796 
L 944.685714 147.73014 
L 957.568831 149.89428 
L 970.451948 155.025762 
L 983.335065 156.48752 
L 996.218182 231.880002 
" style="fill:none;stroke:#9467bd;stroke-linecap:square;stroke-width:1.5;"/>
   </g>
   <g id="line2d_20">
    <path clip-path="url(#p690436a2da)" d="M 184.581818 165.803943 
L 197.464935 175.951321 
L 210.348052 177.386904 
L 223.231169 178.832008 
L 236.114286 179.877252 
L 248.997403 180.480307 
L 261.880519 180.571384 
L 274.763636 180.087155 
L 287.646753 179.016199 
L 300.52987 177.475869 
L 313.412987 175.699491 
L 326.296104 173.914886 
L 339.179221 172.280386 
L 352.062338 170.911983 
L 364.945455 169.903322 
L 377.828571 169.329339 
L 390.711688 169.261753 
L 403.594805 169.77334 
L 416.477922 170.883365 
L 429.361039 172.470247 
L 442.244156 174.283639 
L 455.127273 176.082082 
L 468.01039 177.7099 
L 480.893506 179.056077 
L 493.776623 180.024731 
L 506.65974 180.53791 
L 519.542857 180.526451 
L 532.425974 179.931281 
L 545.309091 178.759727 
L 558.192208 177.156324 
L 571.075325 175.363215 
L 583.958442 173.596337 
L 596.841558 172.003128 
L 609.724675 170.695082 
L 622.607792 169.761849 
L 635.490909 169.27624 
L 648.374026 169.311073 
L 661.257143 169.935489 
L 674.14026 171.148347 
L 687.023377 172.798041 
L 699.906494 174.624406 
L 712.78961 176.400725 
L 725.672727 177.984157 
L 738.555844 179.266981 
L 751.438961 180.156567 
L 764.322078 180.577549 
L 777.205195 180.461374 
L 790.088312 179.755149 
L 802.971429 178.488127 
L 815.854545 176.830306 
L 828.737662 175.028078 
L 841.620779 173.283816 
L 854.503896 171.735743 
L 867.387013 170.491134 
L 880.27013 169.635761 
L 893.153247 169.241052 
L 906.036364 169.380948 
L 918.919481 170.118351 
L 931.802597 171.428644 
L 944.685714 173.131654 
L 957.568831 174.963104 
L 970.451948 176.655914 
L 983.335065 179.459991 
L 996.218182 238.056013 
" style="fill:none;stroke:#8c564b;stroke-linecap:square;stroke-width:1.5;"/>
   </g>
   <g id="line2d_21">
    <path clip-path="url(#p690436a2da)" d="M 184.581818 167.788684 
L 197.464935 171.981463 
L 210.348052 171.31285 
L 223.231169 171.297832 
L 236.114286 171.540955 
L 248.997403 172.000857 
L 261.880519 172.676204 
L 274.763636 173.569821 
L 287.646753 174.632149 
L 300.52987 175.736269 
L 313.412987 176.720212 
L 326.296104 177.449596 
L 339.179221 177.850471 
L 352.062338 177.918355 
L 364.945455 177.689391 
L 377.828571 177.191375 
L 390.711688 176.429296 
L 403.594805 175.42183 
L 416.477922 174.25958 
L 429.361039 173.115572 
L 442.244156 172.174468 
L 455.127273 171.555119 
L 468.01039 171.286297 
L 480.893506 171.325312 
L 493.776623 171.610398 
L 506.65974 172.109605 
L 519.542857 172.826043 
L 532.425974 173.757094 
L 545.309091 174.838765 
L 558.192208 175.932674 
L 571.075325 176.878003 
L 583.958442 177.549894 
L 596.841558 177.887377 
L 609.724675 177.897139 
L 622.607792 177.616869 
L 635.490909 177.069861 
L 648.374026 176.259426 
L 661.257143 175.213467 
L 674.14026 174.039913 
L 687.023377 172.920812 
L 699.906494 172.033103 
L 712.78961 171.479248 
L 725.672727 171.272183 
L 738.555844 171.36118 
L 751.438961 171.687108 
L 764.322078 172.225841 
L 777.205195 172.983476 
L 790.088312 173.949783 
L 802.971429 175.045828 
L 815.854545 176.1238 
L 828.737662 177.026152 
L 841.620779 177.638353 
L 854.503896 177.912907 
L 867.387013 177.865978 
L 880.27013 177.53528 
L 893.153247 176.939124 
L 906.036364 176.081078 
L 918.919481 175.000413 
L 931.802597 173.822107 
L 944.685714 172.734211 
L 957.568831 171.903576 
L 970.451948 171.475341 
L 983.335065 163.71214 
L 996.218182 167.230695 
" style="fill:none;stroke:#e377c2;stroke-linecap:square;stroke-width:1.5;"/>
   </g>
   <g id="line2d_22">
    <path clip-path="url(#p690436a2da)" d="M 184.581818 176.165597 
L 197.464935 202.68442 
L 210.348052 224.133688 
L 223.231169 239.209722 
L 236.114286 247.793728 
L 248.997403 249.866225 
L 261.880519 245.463845 
L 274.763636 234.51181 
L 287.646753 217.189308 
L 300.52987 194.670632 
L 313.412987 169.598563 
L 326.296104 145.517088 
L 339.179221 125.517951 
L 352.062338 111.342781 
L 364.945455 103.527631 
L 377.828571 102.066264 
L 390.711688 106.935641 
L 403.594805 118.209088 
L 416.477922 135.707551 
L 429.361039 158.305642 
L 442.244156 183.428045 
L 455.127273 207.520633 
L 468.01039 227.408561 
L 480.893506 241.29913 
L 493.776623 248.667906 
L 506.65974 249.539787 
L 519.542857 243.927716 
L 532.425974 231.760711 
L 545.309091 213.342847 
L 558.192208 190.108441 
L 571.075325 164.94655 
L 583.958442 141.423679 
L 596.841558 122.417404 
L 609.724675 109.408146 
L 622.607792 102.778471 
L 635.490909 102.490041 
L 648.374026 108.542902 
L 661.257143 121.003193 
L 674.14026 139.573726 
L 687.023377 162.87815 
L 699.906494 188.087102 
L 712.78961 211.60507 
L 725.672727 230.469619 
L 738.555844 243.162189 
L 751.438961 249.318336 
L 764.322078 248.990357 
L 777.205195 242.164714 
L 790.088312 228.790889 
L 802.971429 209.325842 
L 815.854545 185.477619 
L 828.737662 160.353266 
L 841.620779 137.490289 
L 854.503896 119.526687 
L 867.387013 107.694458 
L 880.27013 102.247616 
L 893.153247 103.131955 
L 906.036364 110.371742 
L 918.919481 124.010941 
L 931.802597 143.607607 
L 944.685714 167.518868 
L 957.568831 192.685971 
L 970.451948 215.812462 
L 983.335065 234.867819 
L 996.218182 240.835366 
" style="fill:none;stroke:#7f7f7f;stroke-linecap:square;stroke-width:1.5;"/>
   </g>
   <g id="line2d_23">
    <path clip-path="url(#p690436a2da)" d="M 184.581818 201.778595 
L 197.464935 199.636152 
L 210.348052 190.643401 
L 223.231169 181.056963 
L 236.114286 171.97019 
L 248.997403 163.552801 
L 261.880519 155.637433 
L 274.763636 148.43609 
L 287.646753 143.036943 
L 300.52987 141.200467 
L 313.412987 144.10609 
L 326.296104 151.148729 
L 339.179221 160.352836 
L 352.062338 169.857122 
L 364.945455 178.772658 
L 377.828571 187.018395 
L 390.711688 194.730019 
L 403.594805 201.659503 
L 416.477922 206.760403 
L 429.361039 208.369713 
L 442.244156 205.327647 
L 455.127273 198.177324 
L 468.01039 188.87876 
L 480.893506 179.316378 
L 493.776623 170.362032 
L 506.65974 162.04815 
L 519.542857 154.227594 
L 532.425974 147.249342 
L 545.309091 142.37378 
L 558.192208 141.372283 
L 571.075325 145.149437 
L 583.958442 152.759574 
L 596.841558 162.13556 
L 609.724675 171.566987 
L 622.607792 180.349094 
L 635.490909 188.489267 
L 648.374026 196.09463 
L 661.257143 202.790034 
L 674.14026 207.373633 
L 687.023377 208.167281 
L 699.906494 204.263766 
L 712.78961 196.5472 
L 725.672727 187.082282 
L 738.555844 177.599296 
L 751.438961 168.776456 
L 764.322078 160.559037 
L 777.205195 152.844011 
L 790.088312 146.133139 
L 802.971429 141.846644 
L 815.854545 141.7147 
L 828.737662 146.328241 
L 841.620779 154.429801 
L 854.503896 163.916878 
L 867.387013 173.252264 
L 880.27013 181.903212 
L 893.153247 189.943085 
L 906.036364 197.430409 
L 918.919481 203.849509 
L 931.802597 207.854016 
L 944.685714 207.797102 
L 957.568831 203.064683 
L 970.451948 194.937335 
L 983.335065 191.282711 
L 996.218182 90.912989 
" style="fill:none;stroke:#bcbd22;stroke-linecap:square;stroke-width:1.5;"/>
   </g>
   <g id="line2d_24">
    <path clip-path="url(#p690436a2da)" d="M 184.581818 142.845723 
L 197.464935 115.263859 
L 210.348052 85.321178 
L 223.231169 64.658084 
L 236.114286 54.610721 
L 248.997403 55.109316 
L 261.880519 66.213766 
L 274.763636 88.042217 
L 287.646753 119.856942 
L 300.52987 158.857717 
L 313.412987 199.956144 
L 326.296104 237.350984 
L 339.179221 266.70445 
L 352.062338 285.998274 
L 364.945455 294.841428 
L 377.828571 293.336796 
L 390.711688 281.421517 
L 403.594805 258.999967 
L 416.477922 226.842514 
L 429.361039 187.741367 
L 442.244156 146.738557 
L 455.127273 109.607422 
L 468.01039 80.686428 
L 480.893506 61.990671 
L 493.776623 53.908243 
L 506.65974 56.362976 
L 519.542857 69.458212 
L 532.425974 93.243173 
L 545.309091 126.67924 
L 558.192208 166.506366 
L 571.075325 207.337818 
L 583.958442 243.498772 
L 596.841558 271.073241 
L 609.724675 288.427543 
L 622.607792 295.342324 
L 635.490909 291.917677 
L 648.374026 278.049396 
L 661.257143 253.715931 
L 674.14026 219.984409 
L 687.023377 180.09701 
L 699.906494 139.393214 
L 712.78961 103.527025 
L 725.672727 76.416457 
L 738.555844 59.690014 
L 751.438961 53.568 
L 764.322078 57.983178 
L 777.205195 73.073995 
L 790.088312 98.783358 
L 802.971429 133.728566 
L 815.854545 174.190587 
L 828.737662 214.553083 
L 841.620779 249.343958 
L 854.503896 275.086029 
L 867.387013 290.496675 
L 880.27013 295.488 
L 893.153247 290.138665 
L 906.036364 274.313665 
L 918.919481 248.101706 
L 931.802597 212.907781 
L 944.685714 172.423824 
L 957.568831 132.220441 
L 970.451948 97.683774 
L 983.335065 76.152249 
L 996.218182 99.694347 
" style="fill:none;stroke:#17becf;stroke-linecap:square;stroke-width:1.5;"/>
   </g>
   <g id="line2d_25">
    <path clip-path="url(#p690436a2da)" d="M 184.581818 162.070903 
L 197.464935 157.04289 
L 210.348052 143.806048 
L 223.231169 134.960397 
L 236.114286 130.113717 
L 248.997403 129.180635 
L 261.880519 132.118968 
L 274.763636 139.070028 
L 287.646753 150.088447 
L 300.52987 164.521379 
L 313.412987 180.547475 
L 326.296104 195.683187 
L 339.179221 207.92858 
L 352.062338 216.344519 
L 364.945455 220.782709 
L 377.828571 221.357232 
L 390.711688 218.093147 
L 403.594805 210.861754 
L 416.477922 199.641701 
L 429.361039 185.097319 
L 442.244156 169.035628 
L 455.127273 153.958594 
L 468.01039 141.894069 
L 480.893506 133.757735 
L 493.776623 129.648578 
L 506.65974 129.431271 
L 519.542857 133.100359 
L 532.425974 140.813626 
L 545.309091 152.547894 
L 558.192208 167.447837 
L 571.075325 183.497153 
L 583.958442 198.217502 
L 596.841558 209.792342 
L 609.724675 217.466423 
L 622.607792 221.178166 
L 635.490909 221.043771 
L 648.374026 217.055435 
L 661.257143 209.07394 
L 674.14026 197.155161 
L 687.023377 182.158663 
L 699.906494 166.088555 
L 712.78961 151.448562 
L 725.672727 140.076299 
L 738.555844 132.694364 
L 751.438961 129.317091 
L 764.322078 129.815253 
L 777.205195 134.221423 
L 790.088312 142.698163 
L 802.971429 155.120103 
L 815.854545 170.4154 
L 828.737662 186.39878 
L 841.620779 200.640057 
L 854.503896 211.519594 
L 867.387013 218.451304 
L 880.27013 221.441529 
L 893.153247 220.597886 
L 906.036364 215.879634 
L 918.919481 207.148051 
L 931.802597 194.558882 
L 944.685714 179.181319 
L 957.568831 163.192952 
L 970.451948 149.088631 
L 983.335065 137.011571 
L 996.218182 67.541191 
" style="fill:none;stroke:#1f77b4;stroke-linecap:square;stroke-width:1.5;"/>
   </g>
   <g id="line2d_26">
    <path clip-path="url(#p690436a2da)" d="M 184.581818 177.15569 
L 197.464935 204.470693 
L 210.348052 221.39668 
L 223.231169 231.410867 
L 236.114286 235.831538 
L 248.997403 234.885464 
L 261.880519 228.677402 
L 274.763636 217.1872 
L 287.646753 200.727362 
L 300.52987 180.610624 
L 313.412987 159.433728 
L 326.296104 140.36086 
L 339.179221 125.784781 
L 352.062338 116.661815 
L 364.945455 112.961888 
L 377.828571 114.430102 
L 390.711688 120.97943 
L 403.594805 132.624781 
L 416.477922 149.05661 
L 429.361039 169.038073 
L 442.244156 190.102767 
L 455.127273 209.138944 
L 468.01039 223.67305 
L 480.893506 232.648837 
L 493.776623 236.055224 
L 506.65974 234.131234 
L 519.542857 226.942628 
L 532.425974 214.485259 
L 545.309091 197.208153 
L 558.192208 176.665013 
L 571.075325 155.644705 
L 583.958442 137.267161 
L 596.841558 123.671492 
L 609.724675 115.57339 
L 622.607792 112.849393 
L 635.490909 115.261074 
L 648.374026 122.757444 
L 661.257143 135.334351 
L 674.14026 152.555146 
L 687.023377 172.957621 
L 699.906494 193.880245 
L 712.78961 212.228746 
L 725.672727 225.769015 
L 738.555844 233.694343 
L 751.438961 236.095863 
L 764.322078 233.196064 
L 777.205195 225.02519 
L 790.088312 211.614136 
L 802.971429 193.572375 
L 815.854545 172.701788 
L 828.737662 151.949827 
L 841.620779 134.342684 
L 854.503896 121.749961 
L 867.387013 114.670236 
L 880.27013 112.913236 
L 893.153247 116.267056 
L 906.036364 124.711744 
L 918.919481 138.206881 
L 931.802597 156.167094 
L 944.685714 176.896578 
L 957.568831 197.566384 
L 970.451948 215.191158 
L 983.335065 236.148623 
L 996.218182 162.382913 
" style="fill:none;stroke:#ff7f0e;stroke-linecap:square;stroke-width:1.5;"/>
   </g>
   <g id="line2d_27">
    <path clip-path="url(#p690436a2da)" d="M 184.581818 177.931067 
L 197.464935 183.422629 
L 210.348052 191.846084 
L 223.231169 197.695933 
L 236.114286 201.112608 
L 248.997403 202.235518 
L 261.880519 201.126767 
L 274.763636 197.697521 
L 287.646753 191.824484 
L 300.52987 183.709069 
L 313.412987 174.270647 
L 326.296104 165.011196 
L 339.179221 157.286533 
L 352.062338 151.779944 
L 364.945455 148.604223 
L 377.828571 147.66714 
L 390.711688 148.929635 
L 403.594805 152.482934 
L 416.477922 158.443292 
L 429.361039 166.624003 
L 442.244156 176.133411 
L 455.127273 185.444003 
L 468.01039 193.13549 
L 480.893506 198.5099 
L 493.776623 201.490703 
L 506.65974 202.199094 
L 519.542857 200.670252 
L 532.425974 196.793181 
L 545.309091 190.471134 
L 558.192208 182.016618 
L 571.075325 172.4909 
L 583.958442 163.430697 
L 596.841558 156.087638 
L 609.724675 151.016281 
L 622.607792 148.263866 
L 635.490909 147.734197 
L 648.374026 149.411705 
L 661.257143 153.406311 
L 674.14026 159.809439 
L 687.023377 168.328938 
L 699.906494 177.926142 
L 712.78961 187.026204 
L 725.672727 194.316587 
L 738.555844 199.240912 
L 751.438961 201.790831 
L 764.322078 202.08594 
L 777.205195 200.132851 
L 790.088312 195.803482 
L 802.971429 189.041917 
L 815.854545 180.285653 
L 828.737662 170.728099 
L 841.620779 161.911507 
L 854.503896 154.9684 
L 867.387013 150.332735 
L 880.27013 147.999818 
L 893.153247 147.876923 
L 906.036364 149.973552 
L 918.919481 154.413634 
L 931.802597 161.250744 
L 944.685714 170.072716 
L 957.568831 179.700788 
L 970.451948 188.371187 
L 983.335065 202.103996 
L 996.218182 200.564915 
" style="fill:none;stroke:#2ca02c;stroke-linecap:square;stroke-width:1.5;"/>
   </g>
   <g id="line2d_28">
    <path clip-path="url(#p690436a2da)" d="M 184.581818 181.741004 
L 197.464935 182.104008 
L 210.348052 184.312867 
L 223.231169 185.369674 
L 236.114286 185.553568 
L 248.997403 184.764203 
L 261.880519 182.928299 
L 274.763636 180.096947 
L 287.646753 176.561156 
L 300.52987 172.885424 
L 313.412987 169.66451 
L 326.296104 167.1844 
L 339.179221 165.456331 
L 352.062338 164.487945 
L 364.945455 164.371792 
L 377.828571 165.219568 
L 390.711688 167.092735 
L 403.594805 169.931932 
L 416.477922 173.462622 
L 429.361039 177.15381 
L 442.244156 180.406346 
L 455.127273 182.891392 
L 468.01039 184.579588 
L 480.893506 185.472155 
L 493.776623 185.48375 
L 506.65974 184.503305 
L 519.542857 182.473203 
L 532.425974 179.480175 
L 545.309091 175.869591 
L 558.192208 172.239159 
L 571.075325 169.145713 
L 583.958442 166.807743 
L 596.841558 165.217292 
L 609.724675 164.398433 
L 622.607792 164.453419 
L 635.490909 165.489434 
L 648.374026 167.551464 
L 661.257143 170.547704 
L 674.14026 174.15474 
L 687.023377 177.805863 
L 699.906494 180.929234 
L 712.78961 183.263907 
L 725.672727 184.806915 
L 738.555844 185.544402 
L 751.438961 185.379611 
L 764.322078 184.205796 
L 777.205195 181.984158 
L 790.088312 178.841244 
L 802.971429 175.177461 
L 815.854545 171.612587 
L 828.737662 168.65362 
L 841.620779 166.456665 
L 854.503896 165.004609 
L 867.387013 164.33899 
L 880.27013 164.569056 
L 893.153247 165.794984 
L 906.036364 168.043062 
L 918.919481 171.185363 
L 931.802597 174.848477 
L 944.685714 178.43865 
L 957.568831 181.424067 
L 970.451948 183.666801 
L 983.335065 186.147198 
L 996.218182 149.195732 
" style="fill:none;stroke:#d62728;stroke-linecap:square;stroke-width:1.5;"/>
   </g>
   <g id="line2d_29">
    <path clip-path="url(#p690436a2da)" d="M 184.581818 180.377002 
L 197.464935 182.736491 
L 210.348052 182.191876 
L 223.231169 180.621795 
L 236.114286 178.694475 
L 248.997403 176.380407 
L 261.880519 173.732604 
L 274.763636 170.954648 
L 287.646753 168.467746 
L 300.52987 166.757996 
L 313.412987 166.083105 
L 326.296104 166.383889 
L 339.179221 167.429874 
L 352.062338 168.990831 
L 364.945455 170.936949 
L 377.828571 173.225656 
L 390.711688 175.808219 
L 403.594805 178.506467 
L 416.477922 180.939625 
L 429.361039 182.629345 
L 442.244156 183.282784 
L 455.127273 182.951462 
L 468.01039 181.881791 
L 480.893506 180.294238 
L 493.776623 178.293535 
L 506.65974 175.910838 
L 519.542857 173.216964 
L 532.425974 170.455569 
L 545.309091 168.079335 
L 558.192208 166.55248 
L 571.075325 166.070885 
L 583.958442 166.529497 
L 596.841558 167.686199 
L 609.724675 169.325055 
L 622.607792 171.336498 
L 635.490909 173.685741 
L 648.374026 176.308966 
L 661.257143 178.992501 
L 674.14026 181.322572 
L 687.023377 182.83194 
L 699.906494 183.28947 
L 712.78961 182.800786 
L 725.672727 181.621494 
L 738.555844 179.952602 
L 751.438961 177.879314 
L 764.322078 175.430049 
L 777.205195 172.698379 
L 790.088312 169.969661 
L 802.971429 167.721096 
L 815.854545 166.3839 
L 828.737662 166.091466 
L 841.620779 166.699026 
L 854.503896 167.958782 
L 867.387013 169.671947 
L 880.27013 171.747928 
L 893.153247 174.155701 
L 906.036364 176.812402 
L 918.919481 179.466654 
L 931.802597 181.676458 
L 944.685714 182.997251 
L 957.568831 183.263151 
L 970.451948 182.742364 
L 983.335065 165.52397 
L 996.218182 91.276471 
" style="fill:none;stroke:#9467bd;stroke-linecap:square;stroke-width:1.5;"/>
   </g>
   <g id="line2d_30">
    <path clip-path="url(#p690436a2da)" d="M 184.581818 178.464148 
L 197.464935 183.469731 
L 210.348052 187.851736 
L 223.231169 191.606049 
L 236.114286 193.630277 
L 248.997403 193.724799 
L 261.880519 191.936807 
L 274.763636 188.488895 
L 287.646753 183.779021 
L 300.52987 178.264182 
L 313.412987 172.347806 
L 326.296104 166.522898 
L 339.179221 161.469951 
L 352.062338 157.829256 
L 364.945455 155.980948 
L 377.828571 156.048543 
L 390.711688 157.983522 
L 403.594805 161.575943 
L 416.477922 166.429154 
L 429.361039 172.042263 
L 442.244156 177.957625 
L 455.127273 183.698696 
L 468.01039 188.63107 
L 480.893506 192.123982 
L 493.776623 193.794552 
L 506.65974 193.530996 
L 519.542857 191.412471 
L 532.425974 187.695931 
L 545.309091 182.803401 
L 558.192208 177.184172 
L 571.075325 171.241156 
L 583.958442 165.504954 
L 596.841558 160.671921 
L 609.724675 157.34407 
L 622.607792 155.848085 
L 635.490909 156.270469 
L 648.374026 158.534482 
L 661.257143 162.396091 
L 674.14026 167.428506 
L 687.023377 173.130232 
L 699.906494 179.053347 
L 712.78961 184.696231 
L 725.672727 189.40391 
L 738.555844 192.578353 
L 751.438961 193.891686 
L 764.322078 193.272844 
L 777.205195 190.832545 
L 790.088312 186.862391 
L 802.971429 181.803028 
L 815.854545 176.092574 
L 828.737662 170.141032 
L 841.620779 164.51842 
L 854.503896 159.926622 
L 867.387013 156.922722 
L 880.27013 155.781809 
L 893.153247 156.556297 
L 906.036364 159.141054 
L 918.919481 163.256867 
L 931.802597 168.450646 
L 944.685714 174.225998 
L 957.568831 180.140061 
L 970.451948 185.564404 
L 983.335065 171.600163 
L 996.218182 150.587549 
" style="fill:none;stroke:#8c564b;stroke-linecap:square;stroke-width:1.5;"/>
   </g>
   <g id="patch_3">
    <path d="M 144 307.584 
L 144 41.472 
" style="fill:none;stroke:#000000;stroke-linecap:square;stroke-linejoin:miter;stroke-width:0.8;"/>
   </g>
   <g id="patch_4">
    <path d="M 1036.8 307.584 
L 1036.8 41.472 
" style="fill:none;stroke:#000000;stroke-linecap:square;stroke-linejoin:miter;stroke-width:0.8;"/>
   </g>
   <g id="patch_5">
    <path d="M 144 307.584 
L 1036.8 307.584 
" style="fill:none;stroke:#000000;stroke-linecap:square;stroke-linejoin:miter;stroke-width:0.8;"/>
   </g>
   <g id="patch_6">
    <path d="M 144 41.472 
L 1036.8 41.472 
" style="fill:none;stroke:#000000;stroke-linecap:square;stroke-linejoin:miter;stroke-width:0.8;"/>
   </g>
   <g id="text_15">
    <!-- 4th layer's shape: torch.Size([1, 256, 64]). Uniformly sampling 16 channels -->
    <g transform="translate(364.66875 35.472)scale(0.12 -0.12)">
     <defs>
      <path d="M 18.3125 70.21875 
L 18.3125 54.6875 
L 36.8125 54.6875 
L 36.8125 47.703125 
L 18.3125 47.703125 
L 18.3125 18.015625 
Q 18.3125 11.328125 20.140625 9.421875 
Q 21.96875 7.515625 27.59375 7.515625 
L 36.8125 7.515625 
L 36.8125 0 
L 27.59375 0 
Q 17.1875 0 13.234375 3.875 
Q 9.28125 7.765625 9.28125 18.015625 
L 9.28125 47.703125 
L 2.6875 47.703125 
L 2.6875 54.6875 
L 9.28125 54.6875 
L 9.28125 70.21875 
z
" id="DejaVuSans-116"/>
      <path d="M 54.890625 33.015625 
L 54.890625 0 
L 45.90625 0 
L 45.90625 32.71875 
Q 45.90625 40.484375 42.875 44.328125 
Q 39.84375 48.1875 33.796875 48.1875 
Q 26.515625 48.1875 22.3125 43.546875 
Q 18.109375 38.921875 18.109375 30.90625 
L 18.109375 0 
L 9.078125 0 
L 9.078125 75.984375 
L 18.109375 75.984375 
L 18.109375 46.1875 
Q 21.34375 51.125 25.703125 53.5625 
Q 30.078125 56 35.796875 56 
Q 45.21875 56 50.046875 50.171875 
Q 54.890625 44.34375 54.890625 33.015625 
z
" id="DejaVuSans-104"/>
      <path id="DejaVuSans-32"/>
      <path d="M 9.421875 75.984375 
L 18.40625 75.984375 
L 18.40625 0 
L 9.421875 0 
z
" id="DejaVuSans-108"/>
      <path d="M 34.28125 27.484375 
Q 23.390625 27.484375 19.1875 25 
Q 14.984375 22.515625 14.984375 16.5 
Q 14.984375 11.71875 18.140625 8.90625 
Q 21.296875 6.109375 26.703125 6.109375 
Q 34.1875 6.109375 38.703125 11.40625 
Q 43.21875 16.703125 43.21875 25.484375 
L 43.21875 27.484375 
z
M 52.203125 31.203125 
L 52.203125 0 
L 43.21875 0 
L 43.21875 8.296875 
Q 40.140625 3.328125 35.546875 0.953125 
Q 30.953125 -1.421875 24.3125 -1.421875 
Q 15.921875 -1.421875 10.953125 3.296875 
Q 6 8.015625 6 15.921875 
Q 6 25.140625 12.171875 29.828125 
Q 18.359375 34.515625 30.609375 34.515625 
L 43.21875 34.515625 
L 43.21875 35.40625 
Q 43.21875 41.609375 39.140625 45 
Q 35.0625 48.390625 27.6875 48.390625 
Q 23 48.390625 18.546875 47.265625 
Q 14.109375 46.140625 10.015625 43.890625 
L 10.015625 52.203125 
Q 14.9375 54.109375 19.578125 55.046875 
Q 24.21875 56 28.609375 56 
Q 40.484375 56 46.34375 49.84375 
Q 52.203125 43.703125 52.203125 31.203125 
z
" id="DejaVuSans-97"/>
      <path d="M 32.171875 -5.078125 
Q 28.375 -14.84375 24.75 -17.8125 
Q 21.140625 -20.796875 15.09375 -20.796875 
L 7.90625 -20.796875 
L 7.90625 -13.28125 
L 13.1875 -13.28125 
Q 16.890625 -13.28125 18.9375 -11.515625 
Q 21 -9.765625 23.484375 -3.21875 
L 25.09375 0.875 
L 2.984375 54.6875 
L 12.5 54.6875 
L 29.59375 11.921875 
L 46.6875 54.6875 
L 56.203125 54.6875 
z
" id="DejaVuSans-121"/>
      <path d="M 56.203125 29.59375 
L 56.203125 25.203125 
L 14.890625 25.203125 
Q 15.484375 15.921875 20.484375 11.0625 
Q 25.484375 6.203125 34.421875 6.203125 
Q 39.59375 6.203125 44.453125 7.46875 
Q 49.3125 8.734375 54.109375 11.28125 
L 54.109375 2.78125 
Q 49.265625 0.734375 44.1875 -0.34375 
Q 39.109375 -1.421875 33.890625 -1.421875 
Q 20.796875 -1.421875 13.15625 6.1875 
Q 5.515625 13.8125 5.515625 26.8125 
Q 5.515625 40.234375 12.765625 48.109375 
Q 20.015625 56 32.328125 56 
Q 43.359375 56 49.78125 48.890625 
Q 56.203125 41.796875 56.203125 29.59375 
z
M 47.21875 32.234375 
Q 47.125 39.59375 43.09375 43.984375 
Q 39.0625 48.390625 32.421875 48.390625 
Q 24.90625 48.390625 20.390625 44.140625 
Q 15.875 39.890625 15.1875 32.171875 
z
" id="DejaVuSans-101"/>
      <path d="M 41.109375 46.296875 
Q 39.59375 47.171875 37.8125 47.578125 
Q 36.03125 48 33.890625 48 
Q 26.265625 48 22.1875 43.046875 
Q 18.109375 38.09375 18.109375 28.8125 
L 18.109375 0 
L 9.078125 0 
L 9.078125 54.6875 
L 18.109375 54.6875 
L 18.109375 46.1875 
Q 20.953125 51.171875 25.484375 53.578125 
Q 30.03125 56 36.53125 56 
Q 37.453125 56 38.578125 55.875 
Q 39.703125 55.765625 41.0625 55.515625 
z
" id="DejaVuSans-114"/>
      <path d="M 17.921875 72.90625 
L 17.921875 45.796875 
L 9.625 45.796875 
L 9.625 72.90625 
z
" id="DejaVuSans-39"/>
      <path d="M 44.28125 53.078125 
L 44.28125 44.578125 
Q 40.484375 46.53125 36.375 47.5 
Q 32.28125 48.484375 27.875 48.484375 
Q 21.1875 48.484375 17.84375 46.4375 
Q 14.5 44.390625 14.5 40.28125 
Q 14.5 37.15625 16.890625 35.375 
Q 19.28125 33.59375 26.515625 31.984375 
L 29.59375 31.296875 
Q 39.15625 29.25 43.1875 25.515625 
Q 47.21875 21.78125 47.21875 15.09375 
Q 47.21875 7.46875 41.1875 3.015625 
Q 35.15625 -1.421875 24.609375 -1.421875 
Q 20.21875 -1.421875 15.453125 -0.5625 
Q 10.6875 0.296875 5.421875 2 
L 5.421875 11.28125 
Q 10.40625 8.6875 15.234375 7.390625 
Q 20.0625 6.109375 24.8125 6.109375 
Q 31.15625 6.109375 34.5625 8.28125 
Q 37.984375 10.453125 37.984375 14.40625 
Q 37.984375 18.0625 35.515625 20.015625 
Q 33.0625 21.96875 24.703125 23.78125 
L 21.578125 24.515625 
Q 13.234375 26.265625 9.515625 29.90625 
Q 5.8125 33.546875 5.8125 39.890625 
Q 5.8125 47.609375 11.28125 51.796875 
Q 16.75 56 26.8125 56 
Q 31.78125 56 36.171875 55.265625 
Q 40.578125 54.546875 44.28125 53.078125 
z
" id="DejaVuSans-115"/>
      <path d="M 18.109375 8.203125 
L 18.109375 -20.796875 
L 9.078125 -20.796875 
L 9.078125 54.6875 
L 18.109375 54.6875 
L 18.109375 46.390625 
Q 20.953125 51.265625 25.265625 53.625 
Q 29.59375 56 35.59375 56 
Q 45.5625 56 51.78125 48.09375 
Q 58.015625 40.1875 58.015625 27.296875 
Q 58.015625 14.40625 51.78125 6.484375 
Q 45.5625 -1.421875 35.59375 -1.421875 
Q 29.59375 -1.421875 25.265625 0.953125 
Q 20.953125 3.328125 18.109375 8.203125 
z
M 48.6875 27.296875 
Q 48.6875 37.203125 44.609375 42.84375 
Q 40.53125 48.484375 33.40625 48.484375 
Q 26.265625 48.484375 22.1875 42.84375 
Q 18.109375 37.203125 18.109375 27.296875 
Q 18.109375 17.390625 22.1875 11.75 
Q 26.265625 6.109375 33.40625 6.109375 
Q 40.53125 6.109375 44.609375 11.75 
Q 48.6875 17.390625 48.6875 27.296875 
z
" id="DejaVuSans-112"/>
      <path d="M 11.71875 12.40625 
L 22.015625 12.40625 
L 22.015625 0 
L 11.71875 0 
z
M 11.71875 51.703125 
L 22.015625 51.703125 
L 22.015625 39.3125 
L 11.71875 39.3125 
z
" id="DejaVuSans-58"/>
      <path d="M 30.609375 48.390625 
Q 23.390625 48.390625 19.1875 42.75 
Q 14.984375 37.109375 14.984375 27.296875 
Q 14.984375 17.484375 19.15625 11.84375 
Q 23.34375 6.203125 30.609375 6.203125 
Q 37.796875 6.203125 41.984375 11.859375 
Q 46.1875 17.53125 46.1875 27.296875 
Q 46.1875 37.015625 41.984375 42.703125 
Q 37.796875 48.390625 30.609375 48.390625 
z
M 30.609375 56 
Q 42.328125 56 49.015625 48.375 
Q 55.71875 40.765625 55.71875 27.296875 
Q 55.71875 13.875 49.015625 6.21875 
Q 42.328125 -1.421875 30.609375 -1.421875 
Q 18.84375 -1.421875 12.171875 6.21875 
Q 5.515625 13.875 5.515625 27.296875 
Q 5.515625 40.765625 12.171875 48.375 
Q 18.84375 56 30.609375 56 
z
" id="DejaVuSans-111"/>
      <path d="M 48.78125 52.59375 
L 48.78125 44.1875 
Q 44.96875 46.296875 41.140625 47.34375 
Q 37.3125 48.390625 33.40625 48.390625 
Q 24.65625 48.390625 19.8125 42.84375 
Q 14.984375 37.3125 14.984375 27.296875 
Q 14.984375 17.28125 19.8125 11.734375 
Q 24.65625 6.203125 33.40625 6.203125 
Q 37.3125 6.203125 41.140625 7.25 
Q 44.96875 8.296875 48.78125 10.40625 
L 48.78125 2.09375 
Q 45.015625 0.34375 40.984375 -0.53125 
Q 36.96875 -1.421875 32.421875 -1.421875 
Q 20.0625 -1.421875 12.78125 6.34375 
Q 5.515625 14.109375 5.515625 27.296875 
Q 5.515625 40.671875 12.859375 48.328125 
Q 20.21875 56 33.015625 56 
Q 37.15625 56 41.109375 55.140625 
Q 45.0625 54.296875 48.78125 52.59375 
z
" id="DejaVuSans-99"/>
      <path d="M 53.515625 70.515625 
L 53.515625 60.890625 
Q 47.90625 63.578125 42.921875 64.890625 
Q 37.9375 66.21875 33.296875 66.21875 
Q 25.25 66.21875 20.875 63.09375 
Q 16.5 59.96875 16.5 54.203125 
Q 16.5 49.359375 19.40625 46.890625 
Q 22.3125 44.4375 30.421875 42.921875 
L 36.375 41.703125 
Q 47.40625 39.59375 52.65625 34.296875 
Q 57.90625 29 57.90625 20.125 
Q 57.90625 9.515625 50.796875 4.046875 
Q 43.703125 -1.421875 29.984375 -1.421875 
Q 24.8125 -1.421875 18.96875 -0.25 
Q 13.140625 0.921875 6.890625 3.21875 
L 6.890625 13.375 
Q 12.890625 10.015625 18.65625 8.296875 
Q 24.421875 6.59375 29.984375 6.59375 
Q 38.421875 6.59375 43.015625 9.90625 
Q 47.609375 13.234375 47.609375 19.390625 
Q 47.609375 24.75 44.3125 27.78125 
Q 41.015625 30.8125 33.5 32.328125 
L 27.484375 33.5 
Q 16.453125 35.6875 11.515625 40.375 
Q 6.59375 45.0625 6.59375 53.421875 
Q 6.59375 63.09375 13.40625 68.65625 
Q 20.21875 74.21875 32.171875 74.21875 
Q 37.3125 74.21875 42.625 73.28125 
Q 47.953125 72.359375 53.515625 70.515625 
z
" id="DejaVuSans-83"/>
      <path d="M 9.421875 54.6875 
L 18.40625 54.6875 
L 18.40625 0 
L 9.421875 0 
z
M 9.421875 75.984375 
L 18.40625 75.984375 
L 18.40625 64.59375 
L 9.421875 64.59375 
z
" id="DejaVuSans-105"/>
      <path d="M 5.515625 54.6875 
L 48.1875 54.6875 
L 48.1875 46.484375 
L 14.40625 7.171875 
L 48.1875 7.171875 
L 48.1875 0 
L 4.296875 0 
L 4.296875 8.203125 
L 38.09375 47.515625 
L 5.515625 47.515625 
z
" id="DejaVuSans-122"/>
      <path d="M 31 75.875 
Q 24.46875 64.65625 21.28125 53.65625 
Q 18.109375 42.671875 18.109375 31.390625 
Q 18.109375 20.125 21.3125 9.0625 
Q 24.515625 -2 31 -13.1875 
L 23.1875 -13.1875 
Q 15.875 -1.703125 12.234375 9.375 
Q 8.59375 20.453125 8.59375 31.390625 
Q 8.59375 42.28125 12.203125 53.3125 
Q 15.828125 64.359375 23.1875 75.875 
z
" id="DejaVuSans-40"/>
      <path d="M 8.59375 75.984375 
L 29.296875 75.984375 
L 29.296875 69 
L 17.578125 69 
L 17.578125 -6.203125 
L 29.296875 -6.203125 
L 29.296875 -13.1875 
L 8.59375 -13.1875 
z
" id="DejaVuSans-91"/>
      <path d="M 11.71875 12.40625 
L 22.015625 12.40625 
L 22.015625 4 
L 14.015625 -11.625 
L 7.71875 -11.625 
L 11.71875 4 
z
" id="DejaVuSans-44"/>
      <path d="M 30.421875 75.984375 
L 30.421875 -13.1875 
L 9.71875 -13.1875 
L 9.71875 -6.203125 
L 21.390625 -6.203125 
L 21.390625 69 
L 9.71875 69 
L 9.71875 75.984375 
z
" id="DejaVuSans-93"/>
      <path d="M 8.015625 75.875 
L 15.828125 75.875 
Q 23.140625 64.359375 26.78125 53.3125 
Q 30.421875 42.28125 30.421875 31.390625 
Q 30.421875 20.453125 26.78125 9.375 
Q 23.140625 -1.703125 15.828125 -13.1875 
L 8.015625 -13.1875 
Q 14.5 -2 17.703125 9.0625 
Q 20.90625 20.125 20.90625 31.390625 
Q 20.90625 42.671875 17.703125 53.65625 
Q 14.5 64.65625 8.015625 75.875 
z
" id="DejaVuSans-41"/>
      <path d="M 8.6875 72.90625 
L 18.609375 72.90625 
L 18.609375 28.609375 
Q 18.609375 16.890625 22.84375 11.734375 
Q 27.09375 6.59375 36.625 6.59375 
Q 46.09375 6.59375 50.34375 11.734375 
Q 54.59375 16.890625 54.59375 28.609375 
L 54.59375 72.90625 
L 64.5 72.90625 
L 64.5 27.390625 
Q 64.5 13.140625 57.4375 5.859375 
Q 50.390625 -1.421875 36.625 -1.421875 
Q 22.796875 -1.421875 15.734375 5.859375 
Q 8.6875 13.140625 8.6875 27.390625 
z
" id="DejaVuSans-85"/>
      <path d="M 54.890625 33.015625 
L 54.890625 0 
L 45.90625 0 
L 45.90625 32.71875 
Q 45.90625 40.484375 42.875 44.328125 
Q 39.84375 48.1875 33.796875 48.1875 
Q 26.515625 48.1875 22.3125 43.546875 
Q 18.109375 38.921875 18.109375 30.90625 
L 18.109375 0 
L 9.078125 0 
L 9.078125 54.6875 
L 18.109375 54.6875 
L 18.109375 46.1875 
Q 21.34375 51.125 25.703125 53.5625 
Q 30.078125 56 35.796875 56 
Q 45.21875 56 50.046875 50.171875 
Q 54.890625 44.34375 54.890625 33.015625 
z
" id="DejaVuSans-110"/>
      <path d="M 37.109375 75.984375 
L 37.109375 68.5 
L 28.515625 68.5 
Q 23.6875 68.5 21.796875 66.546875 
Q 19.921875 64.59375 19.921875 59.515625 
L 19.921875 54.6875 
L 34.71875 54.6875 
L 34.71875 47.703125 
L 19.921875 47.703125 
L 19.921875 0 
L 10.890625 0 
L 10.890625 47.703125 
L 2.296875 47.703125 
L 2.296875 54.6875 
L 10.890625 54.6875 
L 10.890625 58.5 
Q 10.890625 67.625 15.140625 71.796875 
Q 19.390625 75.984375 28.609375 75.984375 
z
" id="DejaVuSans-102"/>
      <path d="M 52 44.1875 
Q 55.375 50.25 60.0625 53.125 
Q 64.75 56 71.09375 56 
Q 79.640625 56 84.28125 50.015625 
Q 88.921875 44.046875 88.921875 33.015625 
L 88.921875 0 
L 79.890625 0 
L 79.890625 32.71875 
Q 79.890625 40.578125 77.09375 44.375 
Q 74.3125 48.1875 68.609375 48.1875 
Q 61.625 48.1875 57.5625 43.546875 
Q 53.515625 38.921875 53.515625 30.90625 
L 53.515625 0 
L 44.484375 0 
L 44.484375 32.71875 
Q 44.484375 40.625 41.703125 44.40625 
Q 38.921875 48.1875 33.109375 48.1875 
Q 26.21875 48.1875 22.15625 43.53125 
Q 18.109375 38.875 18.109375 30.90625 
L 18.109375 0 
L 9.078125 0 
L 9.078125 54.6875 
L 18.109375 54.6875 
L 18.109375 46.1875 
Q 21.1875 51.21875 25.484375 53.609375 
Q 29.78125 56 35.6875 56 
Q 41.65625 56 45.828125 52.96875 
Q 50 49.953125 52 44.1875 
z
" id="DejaVuSans-109"/>
      <path d="M 45.40625 27.984375 
Q 45.40625 37.75 41.375 43.109375 
Q 37.359375 48.484375 30.078125 48.484375 
Q 22.859375 48.484375 18.828125 43.109375 
Q 14.796875 37.75 14.796875 27.984375 
Q 14.796875 18.265625 18.828125 12.890625 
Q 22.859375 7.515625 30.078125 7.515625 
Q 37.359375 7.515625 41.375 12.890625 
Q 45.40625 18.265625 45.40625 27.984375 
z
M 54.390625 6.78125 
Q 54.390625 -7.171875 48.1875 -13.984375 
Q 42 -20.796875 29.203125 -20.796875 
Q 24.46875 -20.796875 20.265625 -20.09375 
Q 16.0625 -19.390625 12.109375 -17.921875 
L 12.109375 -9.1875 
Q 16.0625 -11.328125 19.921875 -12.34375 
Q 23.78125 -13.375 27.78125 -13.375 
Q 36.625 -13.375 41.015625 -8.765625 
Q 45.40625 -4.15625 45.40625 5.171875 
L 45.40625 9.625 
Q 42.625 4.78125 38.28125 2.390625 
Q 33.9375 0 27.875 0 
Q 17.828125 0 11.671875 7.65625 
Q 5.515625 15.328125 5.515625 27.984375 
Q 5.515625 40.671875 11.671875 48.328125 
Q 17.828125 56 27.875 56 
Q 33.9375 56 38.28125 53.609375 
Q 42.625 51.21875 45.40625 46.390625 
L 45.40625 54.6875 
L 54.390625 54.6875 
z
" id="DejaVuSans-103"/>
     </defs>
     <use xlink:href="#DejaVuSans-52"/>
     <use x="63.623047" xlink:href="#DejaVuSans-116"/>
     <use x="102.832031" xlink:href="#DejaVuSans-104"/>
     <use x="166.210938" xlink:href="#DejaVuSans-32"/>
     <use x="197.998047" xlink:href="#DejaVuSans-108"/>
     <use x="225.78125" xlink:href="#DejaVuSans-97"/>
     <use x="287.060547" xlink:href="#DejaVuSans-121"/>
     <use x="346.240234" xlink:href="#DejaVuSans-101"/>
     <use x="407.763672" xlink:href="#DejaVuSans-114"/>
     <use x="448.876953" xlink:href="#DejaVuSans-39"/>
     <use x="476.367188" xlink:href="#DejaVuSans-115"/>
     <use x="528.466797" xlink:href="#DejaVuSans-32"/>
     <use x="560.253906" xlink:href="#DejaVuSans-115"/>
     <use x="612.353516" xlink:href="#DejaVuSans-104"/>
     <use x="675.732422" xlink:href="#DejaVuSans-97"/>
     <use x="737.011719" xlink:href="#DejaVuSans-112"/>
     <use x="800.488281" xlink:href="#DejaVuSans-101"/>
     <use x="862.011719" xlink:href="#DejaVuSans-58"/>
     <use x="895.703125" xlink:href="#DejaVuSans-32"/>
     <use x="927.490234" xlink:href="#DejaVuSans-116"/>
     <use x="966.699219" xlink:href="#DejaVuSans-111"/>
     <use x="1027.880859" xlink:href="#DejaVuSans-114"/>
     <use x="1066.744141" xlink:href="#DejaVuSans-99"/>
     <use x="1121.724609" xlink:href="#DejaVuSans-104"/>
     <use x="1185.103516" xlink:href="#DejaVuSans-46"/>
     <use x="1216.890625" xlink:href="#DejaVuSans-83"/>
     <use x="1280.367188" xlink:href="#DejaVuSans-105"/>
     <use x="1308.150391" xlink:href="#DejaVuSans-122"/>
     <use x="1360.640625" xlink:href="#DejaVuSans-101"/>
     <use x="1422.164062" xlink:href="#DejaVuSans-40"/>
     <use x="1461.177734" xlink:href="#DejaVuSans-91"/>
     <use x="1500.191406" xlink:href="#DejaVuSans-49"/>
     <use x="1563.814453" xlink:href="#DejaVuSans-44"/>
     <use x="1595.601562" xlink:href="#DejaVuSans-32"/>
     <use x="1627.388672" xlink:href="#DejaVuSans-50"/>
     <use x="1691.011719" xlink:href="#DejaVuSans-53"/>
     <use x="1754.634766" xlink:href="#DejaVuSans-54"/>
     <use x="1818.257812" xlink:href="#DejaVuSans-44"/>
     <use x="1850.044922" xlink:href="#DejaVuSans-32"/>
     <use x="1881.832031" xlink:href="#DejaVuSans-54"/>
     <use x="1945.455078" xlink:href="#DejaVuSans-52"/>
     <use x="2009.078125" xlink:href="#DejaVuSans-93"/>
     <use x="2048.091797" xlink:href="#DejaVuSans-41"/>
     <use x="2087.105469" xlink:href="#DejaVuSans-46"/>
     <use x="2118.892578" xlink:href="#DejaVuSans-32"/>
     <use x="2150.679688" xlink:href="#DejaVuSans-85"/>
     <use x="2223.873047" xlink:href="#DejaVuSans-110"/>
     <use x="2287.251953" xlink:href="#DejaVuSans-105"/>
     <use x="2315.035156" xlink:href="#DejaVuSans-102"/>
     <use x="2350.240234" xlink:href="#DejaVuSans-111"/>
     <use x="2411.421875" xlink:href="#DejaVuSans-114"/>
     <use x="2450.785156" xlink:href="#DejaVuSans-109"/>
     <use x="2548.197266" xlink:href="#DejaVuSans-108"/>
     <use x="2575.980469" xlink:href="#DejaVuSans-121"/>
     <use x="2635.160156" xlink:href="#DejaVuSans-32"/>
     <use x="2666.947266" xlink:href="#DejaVuSans-115"/>
     <use x="2719.046875" xlink:href="#DejaVuSans-97"/>
     <use x="2780.326172" xlink:href="#DejaVuSans-109"/>
     <use x="2877.738281" xlink:href="#DejaVuSans-112"/>
     <use x="2941.214844" xlink:href="#DejaVuSans-108"/>
     <use x="2968.998047" xlink:href="#DejaVuSans-105"/>
     <use x="2996.78125" xlink:href="#DejaVuSans-110"/>
     <use x="3060.160156" xlink:href="#DejaVuSans-103"/>
     <use x="3123.636719" xlink:href="#DejaVuSans-32"/>
     <use x="3155.423828" xlink:href="#DejaVuSans-49"/>
     <use x="3219.046875" xlink:href="#DejaVuSans-54"/>
     <use x="3282.669922" xlink:href="#DejaVuSans-32"/>
     <use x="3314.457031" xlink:href="#DejaVuSans-99"/>
     <use x="3369.4375" xlink:href="#DejaVuSans-104"/>
     <use x="3432.816406" xlink:href="#DejaVuSans-97"/>
     <use x="3494.095703" xlink:href="#DejaVuSans-110"/>
     <use x="3557.474609" xlink:href="#DejaVuSans-110"/>
     <use x="3620.853516" xlink:href="#DejaVuSans-101"/>
     <use x="3682.376953" xlink:href="#DejaVuSans-108"/>
     <use x="3710.160156" xlink:href="#DejaVuSans-115"/>
    </g>
   </g>
  </g>
 </g>
 <defs>
  <clipPath id="p690436a2da">
   <rect height="266.112" width="892.8" x="144" y="41.472"/>
  </clipPath>
 </defs>
</svg>
