<?xml version="1.0" encoding="utf-8" standalone="no"?>
<!DOCTYPE svg PUBLIC "-//W3C//DTD SVG 1.1//EN"
  "http://www.w3.org/Graphics/SVG/1.1/DTD/svg11.dtd">
<!-- Created with matplotlib (https://matplotlib.org/) -->
<svg height="345.6pt" version="1.1" viewBox="0 0 1152 345.6" width="1152pt" xmlns="http://www.w3.org/2000/svg" xmlns:xlink="http://www.w3.org/1999/xlink">
 <metadata>
  <rdf:RDF xmlns:cc="http://creativecommons.org/ns#" xmlns:dc="http://purl.org/dc/elements/1.1/" xmlns:rdf="http://www.w3.org/1999/02/22-rdf-syntax-ns#">
   <cc:Work>
    <dc:type rdf:resource="http://purl.org/dc/dcmitype/StillImage"/>
    <dc:date>2021-12-24T07:21:02.358583</dc:date>
    <dc:format>image/svg+xml</dc:format>
    <dc:creator>
     <cc:Agent>
      <dc:title>Matplotlib v3.3.3, https://matplotlib.org/</dc:title>
     </cc:Agent>
    </dc:creator>
   </cc:Work>
  </rdf:RDF>
 </metadata>
 <defs>
  <style type="text/css">*{stroke-linecap:butt;stroke-linejoin:round;}</style>
 </defs>
 <g id="figure_1">
  <g id="patch_1">
   <path d="M 0 345.6 
L 1152 345.6 
L 1152 0 
L 0 0 
z
" style="fill:#ffffff;"/>
  </g>
  <g id="axes_1">
   <g id="patch_2">
    <path d="M 144 307.584 
L 1036.8 307.584 
L 1036.8 41.472 
L 144 41.472 
z
" style="fill:#ffffff;"/>
   </g>
   <g id="matplotlib.axis_1">
    <g id="xtick_1">
     <g id="line2d_1">
      <defs>
       <path d="M 0 0 
L 0 3.5 
" id="mb028c2abfc" style="stroke:#000000;stroke-width:0.8;"/>
      </defs>
      <g>
       <use style="stroke:#000000;stroke-width:0.8;" x="184.581818" xlink:href="#mb028c2abfc" y="307.584"/>
      </g>
     </g>
     <g id="text_1">
      <!-- 0 -->
      <g transform="translate(181.400568 322.182437)scale(0.1 -0.1)">
       <defs>
        <path d="M 31.78125 66.40625 
Q 24.171875 66.40625 20.328125 58.90625 
Q 16.5 51.421875 16.5 36.375 
Q 16.5 21.390625 20.328125 13.890625 
Q 24.171875 6.390625 31.78125 6.390625 
Q 39.453125 6.390625 43.28125 13.890625 
Q 47.125 21.390625 47.125 36.375 
Q 47.125 51.421875 43.28125 58.90625 
Q 39.453125 66.40625 31.78125 66.40625 
z
M 31.78125 74.21875 
Q 44.046875 74.21875 50.515625 64.515625 
Q 56.984375 54.828125 56.984375 36.375 
Q 56.984375 17.96875 50.515625 8.265625 
Q 44.046875 -1.421875 31.78125 -1.421875 
Q 19.53125 -1.421875 13.0625 8.265625 
Q 6.59375 17.96875 6.59375 36.375 
Q 6.59375 54.828125 13.0625 64.515625 
Q 19.53125 74.21875 31.78125 74.21875 
z
" id="DejaVuSans-48"/>
       </defs>
       <use xlink:href="#DejaVuSans-48"/>
      </g>
     </g>
    </g>
    <g id="xtick_2">
     <g id="line2d_2">
      <g>
       <use style="stroke:#000000;stroke-width:0.8;" x="313.412987" xlink:href="#mb028c2abfc" y="307.584"/>
      </g>
     </g>
     <g id="text_2">
      <!-- 10 -->
      <g transform="translate(307.050487 322.182437)scale(0.1 -0.1)">
       <defs>
        <path d="M 12.40625 8.296875 
L 28.515625 8.296875 
L 28.515625 63.921875 
L 10.984375 60.40625 
L 10.984375 69.390625 
L 28.421875 72.90625 
L 38.28125 72.90625 
L 38.28125 8.296875 
L 54.390625 8.296875 
L 54.390625 0 
L 12.40625 0 
z
" id="DejaVuSans-49"/>
       </defs>
       <use xlink:href="#DejaVuSans-49"/>
       <use x="63.623047" xlink:href="#DejaVuSans-48"/>
      </g>
     </g>
    </g>
    <g id="xtick_3">
     <g id="line2d_3">
      <g>
       <use style="stroke:#000000;stroke-width:0.8;" x="442.244156" xlink:href="#mb028c2abfc" y="307.584"/>
      </g>
     </g>
     <g id="text_3">
      <!-- 20 -->
      <g transform="translate(435.881656 322.182437)scale(0.1 -0.1)">
       <defs>
        <path d="M 19.1875 8.296875 
L 53.609375 8.296875 
L 53.609375 0 
L 7.328125 0 
L 7.328125 8.296875 
Q 12.9375 14.109375 22.625 23.890625 
Q 32.328125 33.6875 34.8125 36.53125 
Q 39.546875 41.84375 41.421875 45.53125 
Q 43.3125 49.21875 43.3125 52.78125 
Q 43.3125 58.59375 39.234375 62.25 
Q 35.15625 65.921875 28.609375 65.921875 
Q 23.96875 65.921875 18.8125 64.3125 
Q 13.671875 62.703125 7.8125 59.421875 
L 7.8125 69.390625 
Q 13.765625 71.78125 18.9375 73 
Q 24.125 74.21875 28.421875 74.21875 
Q 39.75 74.21875 46.484375 68.546875 
Q 53.21875 62.890625 53.21875 53.421875 
Q 53.21875 48.921875 51.53125 44.890625 
Q 49.859375 40.875 45.40625 35.40625 
Q 44.1875 33.984375 37.640625 27.21875 
Q 31.109375 20.453125 19.1875 8.296875 
z
" id="DejaVuSans-50"/>
       </defs>
       <use xlink:href="#DejaVuSans-50"/>
       <use x="63.623047" xlink:href="#DejaVuSans-48"/>
      </g>
     </g>
    </g>
    <g id="xtick_4">
     <g id="line2d_4">
      <g>
       <use style="stroke:#000000;stroke-width:0.8;" x="571.075325" xlink:href="#mb028c2abfc" y="307.584"/>
      </g>
     </g>
     <g id="text_4">
      <!-- 30 -->
      <g transform="translate(564.712825 322.182437)scale(0.1 -0.1)">
       <defs>
        <path d="M 40.578125 39.3125 
Q 47.65625 37.796875 51.625 33 
Q 55.609375 28.21875 55.609375 21.1875 
Q 55.609375 10.40625 48.1875 4.484375 
Q 40.765625 -1.421875 27.09375 -1.421875 
Q 22.515625 -1.421875 17.65625 -0.515625 
Q 12.796875 0.390625 7.625 2.203125 
L 7.625 11.71875 
Q 11.71875 9.328125 16.59375 8.109375 
Q 21.484375 6.890625 26.8125 6.890625 
Q 36.078125 6.890625 40.9375 10.546875 
Q 45.796875 14.203125 45.796875 21.1875 
Q 45.796875 27.640625 41.28125 31.265625 
Q 36.765625 34.90625 28.71875 34.90625 
L 20.21875 34.90625 
L 20.21875 43.015625 
L 29.109375 43.015625 
Q 36.375 43.015625 40.234375 45.921875 
Q 44.09375 48.828125 44.09375 54.296875 
Q 44.09375 59.90625 40.109375 62.90625 
Q 36.140625 65.921875 28.71875 65.921875 
Q 24.65625 65.921875 20.015625 65.03125 
Q 15.375 64.15625 9.8125 62.3125 
L 9.8125 71.09375 
Q 15.4375 72.65625 20.34375 73.4375 
Q 25.25 74.21875 29.59375 74.21875 
Q 40.828125 74.21875 47.359375 69.109375 
Q 53.90625 64.015625 53.90625 55.328125 
Q 53.90625 49.265625 50.4375 45.09375 
Q 46.96875 40.921875 40.578125 39.3125 
z
" id="DejaVuSans-51"/>
       </defs>
       <use xlink:href="#DejaVuSans-51"/>
       <use x="63.623047" xlink:href="#DejaVuSans-48"/>
      </g>
     </g>
    </g>
    <g id="xtick_5">
     <g id="line2d_5">
      <g>
       <use style="stroke:#000000;stroke-width:0.8;" x="699.906494" xlink:href="#mb028c2abfc" y="307.584"/>
      </g>
     </g>
     <g id="text_5">
      <!-- 40 -->
      <g transform="translate(693.543994 322.182437)scale(0.1 -0.1)">
       <defs>
        <path d="M 37.796875 64.3125 
L 12.890625 25.390625 
L 37.796875 25.390625 
z
M 35.203125 72.90625 
L 47.609375 72.90625 
L 47.609375 25.390625 
L 58.015625 25.390625 
L 58.015625 17.1875 
L 47.609375 17.1875 
L 47.609375 0 
L 37.796875 0 
L 37.796875 17.1875 
L 4.890625 17.1875 
L 4.890625 26.703125 
z
" id="DejaVuSans-52"/>
       </defs>
       <use xlink:href="#DejaVuSans-52"/>
       <use x="63.623047" xlink:href="#DejaVuSans-48"/>
      </g>
     </g>
    </g>
    <g id="xtick_6">
     <g id="line2d_6">
      <g>
       <use style="stroke:#000000;stroke-width:0.8;" x="828.737662" xlink:href="#mb028c2abfc" y="307.584"/>
      </g>
     </g>
     <g id="text_6">
      <!-- 50 -->
      <g transform="translate(822.375162 322.182437)scale(0.1 -0.1)">
       <defs>
        <path d="M 10.796875 72.90625 
L 49.515625 72.90625 
L 49.515625 64.59375 
L 19.828125 64.59375 
L 19.828125 46.734375 
Q 21.96875 47.46875 24.109375 47.828125 
Q 26.265625 48.1875 28.421875 48.1875 
Q 40.625 48.1875 47.75 41.5 
Q 54.890625 34.8125 54.890625 23.390625 
Q 54.890625 11.625 47.5625 5.09375 
Q 40.234375 -1.421875 26.90625 -1.421875 
Q 22.3125 -1.421875 17.546875 -0.640625 
Q 12.796875 0.140625 7.71875 1.703125 
L 7.71875 11.625 
Q 12.109375 9.234375 16.796875 8.0625 
Q 21.484375 6.890625 26.703125 6.890625 
Q 35.15625 6.890625 40.078125 11.328125 
Q 45.015625 15.765625 45.015625 23.390625 
Q 45.015625 31 40.078125 35.4375 
Q 35.15625 39.890625 26.703125 39.890625 
Q 22.75 39.890625 18.8125 39.015625 
Q 14.890625 38.140625 10.796875 36.28125 
z
" id="DejaVuSans-53"/>
       </defs>
       <use xlink:href="#DejaVuSans-53"/>
       <use x="63.623047" xlink:href="#DejaVuSans-48"/>
      </g>
     </g>
    </g>
    <g id="xtick_7">
     <g id="line2d_7">
      <g>
       <use style="stroke:#000000;stroke-width:0.8;" x="957.568831" xlink:href="#mb028c2abfc" y="307.584"/>
      </g>
     </g>
     <g id="text_7">
      <!-- 60 -->
      <g transform="translate(951.206331 322.182437)scale(0.1 -0.1)">
       <defs>
        <path d="M 33.015625 40.375 
Q 26.375 40.375 22.484375 35.828125 
Q 18.609375 31.296875 18.609375 23.390625 
Q 18.609375 15.53125 22.484375 10.953125 
Q 26.375 6.390625 33.015625 6.390625 
Q 39.65625 6.390625 43.53125 10.953125 
Q 47.40625 15.53125 47.40625 23.390625 
Q 47.40625 31.296875 43.53125 35.828125 
Q 39.65625 40.375 33.015625 40.375 
z
M 52.59375 71.296875 
L 52.59375 62.3125 
Q 48.875 64.0625 45.09375 64.984375 
Q 41.3125 65.921875 37.59375 65.921875 
Q 27.828125 65.921875 22.671875 59.328125 
Q 17.53125 52.734375 16.796875 39.40625 
Q 19.671875 43.65625 24.015625 45.921875 
Q 28.375 48.1875 33.59375 48.1875 
Q 44.578125 48.1875 50.953125 41.515625 
Q 57.328125 34.859375 57.328125 23.390625 
Q 57.328125 12.15625 50.6875 5.359375 
Q 44.046875 -1.421875 33.015625 -1.421875 
Q 20.359375 -1.421875 13.671875 8.265625 
Q 6.984375 17.96875 6.984375 36.375 
Q 6.984375 53.65625 15.1875 63.9375 
Q 23.390625 74.21875 37.203125 74.21875 
Q 40.921875 74.21875 44.703125 73.484375 
Q 48.484375 72.75 52.59375 71.296875 
z
" id="DejaVuSans-54"/>
       </defs>
       <use xlink:href="#DejaVuSans-54"/>
       <use x="63.623047" xlink:href="#DejaVuSans-48"/>
      </g>
     </g>
    </g>
   </g>
   <g id="matplotlib.axis_2">
    <g id="ytick_1">
     <g id="line2d_8">
      <defs>
       <path d="M 0 0 
L -3.5 0 
" id="mef036f0909" style="stroke:#000000;stroke-width:0.8;"/>
      </defs>
      <g>
       <use style="stroke:#000000;stroke-width:0.8;" x="144" xlink:href="#mef036f0909" y="307.267936"/>
      </g>
     </g>
     <g id="text_8">
      <!-- −0.4 -->
      <g transform="translate(112.717187 311.067155)scale(0.1 -0.1)">
       <defs>
        <path d="M 10.59375 35.5 
L 73.1875 35.5 
L 73.1875 27.203125 
L 10.59375 27.203125 
z
" id="DejaVuSans-8722"/>
        <path d="M 10.6875 12.40625 
L 21 12.40625 
L 21 0 
L 10.6875 0 
z
" id="DejaVuSans-46"/>
       </defs>
       <use xlink:href="#DejaVuSans-8722"/>
       <use x="83.789062" xlink:href="#DejaVuSans-48"/>
       <use x="147.412109" xlink:href="#DejaVuSans-46"/>
       <use x="179.199219" xlink:href="#DejaVuSans-52"/>
      </g>
     </g>
    </g>
    <g id="ytick_2">
     <g id="line2d_9">
      <g>
       <use style="stroke:#000000;stroke-width:0.8;" x="144" xlink:href="#mef036f0909" y="274.423216"/>
      </g>
     </g>
     <g id="text_9">
      <!-- −0.3 -->
      <g transform="translate(112.717187 278.222435)scale(0.1 -0.1)">
       <use xlink:href="#DejaVuSans-8722"/>
       <use x="83.789062" xlink:href="#DejaVuSans-48"/>
       <use x="147.412109" xlink:href="#DejaVuSans-46"/>
       <use x="179.199219" xlink:href="#DejaVuSans-51"/>
      </g>
     </g>
    </g>
    <g id="ytick_3">
     <g id="line2d_10">
      <g>
       <use style="stroke:#000000;stroke-width:0.8;" x="144" xlink:href="#mef036f0909" y="241.578496"/>
      </g>
     </g>
     <g id="text_10">
      <!-- −0.2 -->
      <g transform="translate(112.717187 245.377714)scale(0.1 -0.1)">
       <use xlink:href="#DejaVuSans-8722"/>
       <use x="83.789062" xlink:href="#DejaVuSans-48"/>
       <use x="147.412109" xlink:href="#DejaVuSans-46"/>
       <use x="179.199219" xlink:href="#DejaVuSans-50"/>
      </g>
     </g>
    </g>
    <g id="ytick_4">
     <g id="line2d_11">
      <g>
       <use style="stroke:#000000;stroke-width:0.8;" x="144" xlink:href="#mef036f0909" y="208.733775"/>
      </g>
     </g>
     <g id="text_11">
      <!-- −0.1 -->
      <g transform="translate(112.717187 212.532994)scale(0.1 -0.1)">
       <use xlink:href="#DejaVuSans-8722"/>
       <use x="83.789062" xlink:href="#DejaVuSans-48"/>
       <use x="147.412109" xlink:href="#DejaVuSans-46"/>
       <use x="179.199219" xlink:href="#DejaVuSans-49"/>
      </g>
     </g>
    </g>
    <g id="ytick_5">
     <g id="line2d_12">
      <g>
       <use style="stroke:#000000;stroke-width:0.8;" x="144" xlink:href="#mef036f0909" y="175.889055"/>
      </g>
     </g>
     <g id="text_12">
      <!-- 0.0 -->
      <g transform="translate(121.096875 179.688274)scale(0.1 -0.1)">
       <use xlink:href="#DejaVuSans-48"/>
       <use x="63.623047" xlink:href="#DejaVuSans-46"/>
       <use x="95.410156" xlink:href="#DejaVuSans-48"/>
      </g>
     </g>
    </g>
    <g id="ytick_6">
     <g id="line2d_13">
      <g>
       <use style="stroke:#000000;stroke-width:0.8;" x="144" xlink:href="#mef036f0909" y="143.044335"/>
      </g>
     </g>
     <g id="text_13">
      <!-- 0.1 -->
      <g transform="translate(121.096875 146.843554)scale(0.1 -0.1)">
       <use xlink:href="#DejaVuSans-48"/>
       <use x="63.623047" xlink:href="#DejaVuSans-46"/>
       <use x="95.410156" xlink:href="#DejaVuSans-49"/>
      </g>
     </g>
    </g>
    <g id="ytick_7">
     <g id="line2d_14">
      <g>
       <use style="stroke:#000000;stroke-width:0.8;" x="144" xlink:href="#mef036f0909" y="110.199615"/>
      </g>
     </g>
     <g id="text_14">
      <!-- 0.2 -->
      <g transform="translate(121.096875 113.998834)scale(0.1 -0.1)">
       <use xlink:href="#DejaVuSans-48"/>
       <use x="63.623047" xlink:href="#DejaVuSans-46"/>
       <use x="95.410156" xlink:href="#DejaVuSans-50"/>
      </g>
     </g>
    </g>
    <g id="ytick_8">
     <g id="line2d_15">
      <g>
       <use style="stroke:#000000;stroke-width:0.8;" x="144" xlink:href="#mef036f0909" y="77.354895"/>
      </g>
     </g>
     <g id="text_15">
      <!-- 0.3 -->
      <g transform="translate(121.096875 81.154113)scale(0.1 -0.1)">
       <use xlink:href="#DejaVuSans-48"/>
       <use x="63.623047" xlink:href="#DejaVuSans-46"/>
       <use x="95.410156" xlink:href="#DejaVuSans-51"/>
      </g>
     </g>
    </g>
    <g id="ytick_9">
     <g id="line2d_16">
      <g>
       <use style="stroke:#000000;stroke-width:0.8;" x="144" xlink:href="#mef036f0909" y="44.510174"/>
      </g>
     </g>
     <g id="text_16">
      <!-- 0.4 -->
      <g transform="translate(121.096875 48.309393)scale(0.1 -0.1)">
       <use xlink:href="#DejaVuSans-48"/>
       <use x="63.623047" xlink:href="#DejaVuSans-46"/>
       <use x="95.410156" xlink:href="#DejaVuSans-52"/>
      </g>
     </g>
    </g>
   </g>
   <g id="line2d_17">
    <path clip-path="url(#p1527020a4f)" d="M 184.581818 181.223785 
L 197.464935 146.418909 
L 210.348052 125.92031 
L 223.231169 121.543514 
L 236.114286 92.939869 
L 248.997403 90.309516 
L 261.880519 93.316667 
L 274.763636 103.630891 
L 287.646753 116.691355 
L 300.52987 135.873121 
L 313.412987 166.506186 
L 326.296104 197.79971 
L 339.179221 203.445114 
L 352.062338 233.944826 
L 364.945455 245.086045 
L 377.828571 254.430651 
L 390.711688 257.147446 
L 403.594805 251.948001 
L 416.477922 231.052259 
L 429.361039 200.473495 
L 442.244156 191.266702 
L 455.127273 160.468103 
L 468.01039 132.602148 
L 480.893506 111.534685 
L 493.776623 98.943071 
L 506.65974 85.41672 
L 519.542857 94.895345 
L 532.425974 111.756287 
L 545.309091 115.56166 
L 558.192208 139.613325 
L 571.075325 168.916686 
L 583.958442 198.041129 
L 596.841558 222.462565 
L 609.724675 250.801872 
L 622.607792 253.094953 
L 635.490909 251.319448 
L 648.374026 251.744924 
L 661.257143 248.567052 
L 674.14026 228.78685 
L 687.023377 205.037417 
L 699.906494 174.954007 
L 712.78961 139.960576 
L 725.672727 124.099244 
L 738.555844 108.636397 
L 751.438961 106.310417 
L 764.322078 93.539404 
L 777.205195 100.101764 
L 790.088312 107.778426 
L 802.971429 125.578486 
L 815.854545 153.17676 
L 828.737662 181.269881 
L 841.620779 209.781952 
L 854.503896 216.673565 
L 867.387013 242.246003 
L 880.27013 249.344581 
L 893.153247 256.965977 
L 906.036364 246.888209 
L 918.919481 245.065548 
L 931.802597 220.701146 
L 944.685714 189.447509 
L 957.568831 171.978564 
L 970.451948 141.203039 
L 983.335065 119.71589 
L 996.218182 126.364315 
" style="fill:none;stroke:#1f77b4;stroke-linecap:square;stroke-width:1.5;"/>
   </g>
   <g id="line2d_18">
    <path clip-path="url(#p1527020a4f)" d="M 184.581818 155.808356 
L 197.464935 137.256836 
L 210.348052 132.535488 
L 223.231169 130.524272 
L 236.114286 136.591011 
L 248.997403 140.904896 
L 261.880519 159.373157 
L 274.763636 162.766675 
L 287.646753 175.595567 
L 300.52987 189.773813 
L 313.412987 194.939115 
L 326.296104 204.345846 
L 339.179221 196.189726 
L 352.062338 193.593293 
L 364.945455 192.387767 
L 377.828571 188.653108 
L 390.711688 179.683037 
L 403.594805 174.673081 
L 416.477922 164.971375 
L 429.361039 153.716869 
L 442.244156 155.800694 
L 455.127273 154.526822 
L 468.01039 148.006639 
L 480.893506 150.290442 
L 493.776623 152.826246 
L 506.65974 150.905717 
L 519.542857 164.402751 
L 532.425974 173.004891 
L 545.309091 173.288582 
L 558.192208 177.362936 
L 571.075325 194.539251 
L 583.958442 197.633071 
L 596.841558 200.590592 
L 609.724675 210.593457 
L 622.607792 200.227708 
L 635.490909 195.986112 
L 648.374026 193.085483 
L 661.257143 188.552147 
L 674.14026 169.555858 
L 687.023377 164.034781 
L 699.906494 158.279026 
L 712.78961 141.921969 
L 725.672727 146.27075 
L 738.555844 142.857577 
L 751.438961 150.206516 
L 764.322078 155.120242 
L 777.205195 169.748098 
L 790.088312 175.929785 
L 802.971429 184.83531 
L 815.854545 201.846918 
L 828.737662 203.067391 
L 841.620779 213.665574 
L 854.503896 202.422728 
L 867.387013 204.263334 
L 880.27013 193.385555 
L 893.153247 187.593086 
L 906.036364 178.864097 
L 918.919481 174.332269 
L 931.802597 165.612011 
L 944.685714 159.522279 
L 957.568831 156.24178 
L 970.451948 155.10748 
L 983.335065 152.750464 
L 996.218182 154.820979 
" style="fill:none;stroke:#ff7f0e;stroke-linecap:square;stroke-width:1.5;"/>
   </g>
   <g id="line2d_19">
    <path clip-path="url(#p1527020a4f)" d="M 184.581818 234.340011 
L 197.464935 222.291932 
L 210.348052 213.456558 
L 223.231169 185.156471 
L 236.114286 166.72327 
L 248.997403 150.150477 
L 261.880519 134.535404 
L 274.763636 121.546803 
L 287.646753 108.435728 
L 300.52987 108.136974 
L 313.412987 109.294438 
L 326.296104 117.272541 
L 339.179221 135.088103 
L 352.062338 156.073774 
L 364.945455 176.133347 
L 377.828571 195.523154 
L 390.711688 214.690184 
L 403.594805 222.928316 
L 416.477922 232.089662 
L 429.361039 238.887078 
L 442.244156 229.313191 
L 455.127273 218.526012 
L 468.01039 203.26297 
L 480.893506 182.619039 
L 493.776623 166.985609 
L 506.65974 154.175861 
L 519.542857 141.443801 
L 532.425974 120.345442 
L 545.309091 119.656484 
L 558.192208 115.890206 
L 571.075325 119.353927 
L 583.958442 132.634685 
L 596.841558 144.25449 
L 609.724675 158.048657 
L 622.607792 171.284984 
L 635.490909 195.280136 
L 648.374026 204.79939 
L 661.257143 221.893345 
L 674.14026 231.047585 
L 687.023377 229.405399 
L 699.906494 228.805169 
L 712.78961 220.08663 
L 725.672727 210.760497 
L 738.555844 186.63949 
L 751.438961 169.606608 
L 764.322078 150.116699 
L 777.205195 132.217822 
L 790.088312 119.942797 
L 802.971429 107.362611 
L 815.854545 110.108439 
L 828.737662 111.464859 
L 841.620779 121.442085 
L 854.503896 139.014607 
L 867.387013 160.547074 
L 880.27013 179.078792 
L 893.153247 197.789985 
L 906.036364 210.322389 
L 918.919481 226.827571 
L 931.802597 229.952414 
L 944.685714 230.648146 
L 957.568831 218.549622 
L 970.451948 205.360261 
L 983.335065 190.27569 
L 996.218182 171.456548 
" style="fill:none;stroke:#2ca02c;stroke-linecap:square;stroke-width:1.5;"/>
   </g>
   <g id="line2d_20">
    <path clip-path="url(#p1527020a4f)" d="M 184.581818 151.484836 
L 197.464935 153.418469 
L 210.348052 166.39153 
L 223.231169 178.381179 
L 236.114286 194.512116 
L 248.997403 196.279246 
L 261.880519 206.749167 
L 274.763636 216.096577 
L 287.646753 220.315269 
L 300.52987 209.442318 
L 313.412987 217.337014 
L 326.296104 220.111532 
L 339.179221 195.862369 
L 352.062338 186.073603 
L 364.945455 167.06912 
L 377.828571 157.540394 
L 390.711688 152.531938 
L 403.594805 150.497577 
L 416.477922 136.967166 
L 429.361039 126.996055 
L 442.244156 137.261439 
L 455.127273 145.637303 
L 468.01039 161.938626 
L 480.893506 173.896726 
L 493.776623 175.889229 
L 506.65974 181.91191 
L 519.542857 198.402823 
L 532.425974 210.390187 
L 545.309091 219.576968 
L 558.192208 217.160987 
L 571.075325 206.999664 
L 583.958442 197.533226 
L 596.841558 198.351375 
L 609.724675 186.370797 
L 622.607792 175.723307 
L 635.490909 165.227218 
L 648.374026 142.573459 
L 661.257143 138.375465 
L 674.14026 136.831328 
L 687.023377 140.26339 
L 699.906494 135.820241 
L 712.78961 148.24397 
L 725.672727 153.08164 
L 738.555844 159.04192 
L 751.438961 187.043263 
L 764.322078 195.561617 
L 777.205195 207.375427 
L 790.088312 213.639779 
L 802.971429 220.250391 
L 815.854545 211.581539 
L 828.737662 215.194071 
L 841.620779 216.36686 
L 854.503896 190.086839 
L 867.387013 181.034668 
L 880.27013 164.867907 
L 893.153247 155.330068 
L 906.036364 149.995383 
L 918.919481 148.570566 
L 931.802597 133.741215 
L 944.685714 127.035483 
L 957.568831 138.577629 
L 970.451948 148.4939 
L 983.335065 172.033256 
L 996.218182 193.366759 
" style="fill:none;stroke:#d62728;stroke-linecap:square;stroke-width:1.5;"/>
   </g>
   <g id="line2d_21">
    <path clip-path="url(#p1527020a4f)" d="M 184.581818 118.010765 
L 197.464935 89.810606 
L 210.348052 70.466134 
L 223.231169 72.989322 
L 236.114286 56.240737 
L 248.997403 69.304436 
L 261.880519 97.273595 
L 274.763636 126.677934 
L 287.646753 165.673544 
L 300.52987 204.801096 
L 313.412987 241.7616 
L 326.296104 268.106766 
L 339.179221 280.604044 
L 352.062338 281.739783 
L 364.945455 279.246899 
L 377.828571 266.704399 
L 390.711688 249.402598 
L 403.594805 213.731984 
L 416.477922 173.798989 
L 429.361039 133.493076 
L 442.244156 105.70354 
L 455.127273 83.605996 
L 468.01039 66.791417 
L 480.893506 63.97614 
L 493.776623 64.360896 
L 506.65974 83.937924 
L 519.542857 105.569722 
L 532.425974 143.12008 
L 545.309091 165.785843 
L 558.192208 204.759003 
L 571.075325 245.603621 
L 583.958442 267.958069 
L 596.841558 284.791178 
L 609.724675 284.072047 
L 622.607792 281.561642 
L 635.490909 262.282116 
L 648.374026 252.994288 
L 661.257143 217.40638 
L 674.14026 172.560947 
L 687.023377 136.524988 
L 699.906494 101.773907 
L 712.78961 81.284773 
L 725.672727 63.771551 
L 738.555844 65.506189 
L 751.438961 62.802823 
L 764.322078 80.250933 
L 777.205195 110.107553 
L 790.088312 142.528153 
L 802.971429 180.923081 
L 815.854545 219.732967 
L 828.737662 254.986016 
L 841.620779 275.228489 
L 854.503896 286.204048 
L 867.387013 282.75851 
L 880.27013 279.487324 
L 893.153247 261.553833 
L 906.036364 239.395042 
L 918.919481 199.120398 
L 931.802597 158.855133 
L 944.685714 126.787721 
L 957.568831 102.398883 
L 970.451948 88.466813 
L 983.335065 71.02907 
L 996.218182 78.294654 
" style="fill:none;stroke:#9467bd;stroke-linecap:square;stroke-width:1.5;"/>
   </g>
   <g id="line2d_22">
    <path clip-path="url(#p1527020a4f)" d="M 184.581818 197.3559 
L 197.464935 221.931457 
L 210.348052 222.094034 
L 223.231169 210.032953 
L 236.114286 215.565031 
L 248.997403 207.494132 
L 261.880519 183.584107 
L 274.763636 181.808001 
L 287.646753 155.603451 
L 300.52987 152.102529 
L 313.412987 130.520087 
L 326.296104 108.626129 
L 339.179221 133.201957 
L 352.062338 133.7352 
L 364.945455 146.45717 
L 377.828571 148.450701 
L 390.711688 159.291606 
L 403.594805 169.0272 
L 416.477922 195.093923 
L 429.361039 214.249702 
L 442.244156 207.991304 
L 455.127273 211.866093 
L 468.01039 211.19135 
L 480.893506 213.158442 
L 493.776623 211.287771 
L 506.65974 207.209723 
L 519.542857 184.135226 
L 532.425974 168.414957 
L 545.309091 166.742938 
L 558.192208 153.606631 
L 571.075325 141.548103 
L 583.958442 138.375707 
L 596.841558 126.245884 
L 609.724675 130.389279 
L 622.607792 141.437204 
L 635.490909 142.961419 
L 648.374026 157.50381 
L 661.257143 169.08115 
L 674.14026 191.219776 
L 687.023377 193.645658 
L 699.906494 219.367993 
L 712.78961 222.798834 
L 725.672727 222.488985 
L 738.555844 227.744258 
L 751.438961 209.768277 
L 764.322078 203.332867 
L 777.205195 178.745002 
L 790.088312 174.757712 
L 802.971429 150.212856 
L 815.854545 143.615676 
L 828.737662 126.011161 
L 841.620779 110.102135 
L 854.503896 127.868845 
L 867.387013 130.262043 
L 880.27013 146.943609 
L 893.153247 145.271593 
L 906.036364 166.253293 
L 918.919481 179.106504 
L 931.802597 196.490395 
L 944.685714 214.54273 
L 957.568831 211.810105 
L 970.451948 211.991654 
L 983.335065 202.061227 
L 996.218182 159.288049 
" style="fill:none;stroke:#8c564b;stroke-linecap:square;stroke-width:1.5;"/>
   </g>
   <g id="line2d_23">
    <path clip-path="url(#p1527020a4f)" d="M 184.581818 144.096379 
L 197.464935 127.678973 
L 210.348052 132.4005 
L 223.231169 126.712849 
L 236.114286 121.957787 
L 248.997403 124.666326 
L 261.880519 127.055975 
L 274.763636 139.085236 
L 287.646753 161.274978 
L 300.52987 173.318566 
L 313.412987 178.939756 
L 326.296104 185.383146 
L 339.179221 208.176728 
L 352.062338 217.297229 
L 364.945455 223.474093 
L 377.828571 223.033846 
L 390.711688 209.80519 
L 403.594805 203.126831 
L 416.477922 196.006029 
L 429.361039 182.884072 
L 442.244156 166.054703 
L 455.127273 145.135973 
L 468.01039 133.210718 
L 480.893506 120.248839 
L 493.776623 128.129268 
L 506.65974 126.757676 
L 519.542857 130.782859 
L 532.425974 142.424836 
L 545.309091 151.09081 
L 558.192208 178.350354 
L 571.075325 192.465365 
L 583.958442 214.80828 
L 596.841558 218.66887 
L 609.724675 223.252947 
L 622.607792 223.0628 
L 635.490909 216.838851 
L 648.374026 221.276254 
L 661.257143 201.919392 
L 674.14026 189.377085 
L 687.023377 164.299911 
L 699.906494 149.181617 
L 712.78961 140.822203 
L 725.672727 138.418737 
L 738.555844 138.958962 
L 751.438961 124.594224 
L 764.322078 131.079387 
L 777.205195 134.052919 
L 790.088312 151.037845 
L 802.971429 171.672752 
L 815.854545 180.788477 
L 828.737662 187.554514 
L 841.620779 193.490876 
L 854.503896 214.405466 
L 867.387013 218.868188 
L 880.27013 226.362716 
L 893.153247 226.783141 
L 906.036364 206.123864 
L 918.919481 195.67587 
L 931.802597 189.16725 
L 944.685714 173.535809 
L 957.568831 156.551648 
L 970.451948 143.586871 
L 983.335065 122.599193 
L 996.218182 104.784401 
" style="fill:none;stroke:#e377c2;stroke-linecap:square;stroke-width:1.5;"/>
   </g>
   <g id="line2d_24">
    <path clip-path="url(#p1527020a4f)" d="M 184.581818 138.741608 
L 197.464935 132.157511 
L 210.348052 139.506146 
L 223.231169 174.05927 
L 236.114286 178.749432 
L 248.997403 195.515428 
L 261.880519 199.123271 
L 274.763636 217.535094 
L 287.646753 220.586225 
L 300.52987 226.446603 
L 313.412987 230.405332 
L 326.296104 220.011792 
L 339.179221 214.290469 
L 352.062338 199.148789 
L 364.945455 183.712468 
L 377.828571 165.114095 
L 390.711688 159.064921 
L 403.594805 146.010244 
L 416.477922 135.662196 
L 429.361039 120.840314 
L 442.244156 120.760855 
L 455.127273 129.201901 
L 468.01039 143.086613 
L 480.893506 159.68731 
L 493.776623 169.91712 
L 506.65974 181.030722 
L 519.542857 193.810725 
L 532.425974 226.648711 
L 545.309091 230.16781 
L 558.192208 236.168707 
L 571.075325 225.82269 
L 583.958442 217.242198 
L 596.841558 206.708488 
L 609.724675 198.879292 
L 622.607792 188.07513 
L 635.490909 150.121459 
L 648.374026 143.948546 
L 661.257143 128.723645 
L 674.14026 130.211637 
L 687.023377 126.378132 
L 699.906494 132.256785 
L 712.78961 132.800918 
L 725.672727 140.844002 
L 738.555844 173.214972 
L 751.438961 177.606112 
L 764.322078 195.862454 
L 777.205195 204.355867 
L 790.088312 219.02127 
L 802.971429 221.218101 
L 815.854545 226.512896 
L 828.737662 228.207449 
L 841.620779 215.372878 
L 854.503896 204.296578 
L 867.387013 191.834515 
L 880.27013 179.790108 
L 893.153247 165.078443 
L 906.036364 154.382117 
L 918.919481 141.513982 
L 931.802597 134.794681 
L 944.685714 131.593713 
L 957.568831 134.462827 
L 970.451948 143.998215 
L 983.335065 153.109285 
L 996.218182 167.129855 
" style="fill:none;stroke:#7f7f7f;stroke-linecap:square;stroke-width:1.5;"/>
   </g>
   <g id="line2d_25">
    <path clip-path="url(#p1527020a4f)" d="M 184.581818 192.689932 
L 197.464935 183.389773 
L 210.348052 197.69049 
L 223.231169 187.038428 
L 236.114286 190.63208 
L 248.997403 194.457139 
L 261.880519 190.352869 
L 274.763636 201.529259 
L 287.646753 190.490797 
L 300.52987 185.296609 
L 313.412987 181.824341 
L 326.296104 173.448193 
L 339.179221 178.946256 
L 352.062338 165.369117 
L 364.945455 163.378774 
L 377.828571 157.619968 
L 390.711688 160.884473 
L 403.594805 159.486517 
L 416.477922 162.89929 
L 429.361039 165.199861 
L 442.244156 165.494031 
L 455.127273 180.839106 
L 468.01039 187.229628 
L 480.893506 183.758389 
L 493.776623 190.046336 
L 506.65974 194.499378 
L 519.542857 195.062748 
L 532.425974 193.104098 
L 545.309091 193.370153 
L 558.192208 184.143463 
L 571.075325 172.607604 
L 583.958442 181.631339 
L 596.841558 169.545507 
L 609.724675 159.334428 
L 622.607792 159.516987 
L 635.490909 159.41236 
L 648.374026 159.413881 
L 661.257143 161.243231 
L 674.14026 169.305531 
L 687.023377 158.705603 
L 699.906494 169.461381 
L 712.78961 181.308562 
L 725.672727 186.298091 
L 738.555844 188.183359 
L 751.438961 183.84316 
L 764.322078 192.051156 
L 777.205195 187.285927 
L 790.088312 198.754139 
L 802.971429 188.547658 
L 815.854545 181.588444 
L 828.737662 175.448874 
L 841.620779 169.924902 
L 854.503896 179.197695 
L 867.387013 163.517085 
L 880.27013 166.778953 
L 893.153247 160.360383 
L 906.036364 160.355873 
L 918.919481 162.079194 
L 931.802597 168.77222 
L 944.685714 166.85072 
L 957.568831 164.836281 
L 970.451948 178.590944 
L 983.335065 185.405902 
L 996.218182 176.945033 
" style="fill:none;stroke:#bcbd22;stroke-linecap:square;stroke-width:1.5;"/>
   </g>
   <g id="line2d_26">
    <path clip-path="url(#p1527020a4f)" d="M 184.581818 191.765334 
L 197.464935 179.858404 
L 210.348052 159.600937 
L 223.231169 137.501243 
L 236.114286 136.943847 
L 248.997403 136.221804 
L 261.880519 130.836383 
L 274.763636 114.644616 
L 287.646753 114.557346 
L 300.52987 135.30949 
L 313.412987 140.442515 
L 326.296104 171.456986 
L 339.179221 182.22241 
L 352.062338 195.852977 
L 364.945455 211.756386 
L 377.828571 224.17676 
L 390.711688 238.90205 
L 403.594805 233.219797 
L 416.477922 227.794238 
L 429.361039 219.549761 
L 442.244156 200.4315 
L 455.127273 184.15175 
L 468.01039 166.611239 
L 480.893506 156.089684 
L 493.776623 135.985123 
L 506.65974 131.012942 
L 519.542857 126.853896 
L 532.425974 118.493362 
L 545.309091 134.135843 
L 558.192208 142.085493 
L 571.075325 157.058364 
L 583.958442 163.565327 
L 596.841558 182.629362 
L 609.724675 202.288183 
L 622.607792 205.86138 
L 635.490909 228.978499 
L 648.374026 221.709987 
L 661.257143 221.795079 
L 674.14026 217.225821 
L 687.023377 217.96357 
L 699.906494 207.328305 
L 712.78961 182.505317 
L 725.672727 172.864994 
L 738.555844 142.830473 
L 751.438961 143.385549 
L 764.322078 135.155551 
L 777.205195 127.950467 
L 790.088312 116.497699 
L 802.971429 115.785831 
L 815.854545 137.837492 
L 828.737662 147.609581 
L 841.620779 173.757985 
L 854.503896 187.405398 
L 867.387013 198.535854 
L 880.27013 213.831487 
L 893.153247 218.205057 
L 906.036364 238.576122 
L 918.919481 228.844391 
L 931.802597 223.359563 
L 944.685714 212.923717 
L 957.568831 196.354097 
L 970.451948 174.362239 
L 983.335065 156.137325 
L 996.218182 147.842158 
" style="fill:none;stroke:#17becf;stroke-linecap:square;stroke-width:1.5;"/>
   </g>
   <g id="line2d_27">
    <path clip-path="url(#p1527020a4f)" d="M 184.581818 156.9161 
L 197.464935 113.390965 
L 210.348052 86.942824 
L 223.231169 70.074477 
L 236.114286 53.568 
L 248.997403 63.568117 
L 261.880519 67.322315 
L 274.763636 88.909664 
L 287.646753 128.220825 
L 300.52987 155.233735 
L 313.412987 203.550734 
L 326.296104 238.642562 
L 339.179221 265.204499 
L 352.062338 281.623104 
L 364.945455 294.403152 
L 377.828571 291.035803 
L 390.711688 273.391533 
L 403.594805 254.189595 
L 416.477922 219.878913 
L 429.361039 186.081944 
L 442.244156 150.551222 
L 455.127273 112.614116 
L 468.01039 86.30528 
L 480.893506 68.137119 
L 493.776623 68.888523 
L 506.65974 71.040434 
L 519.542857 83.008282 
L 532.425974 100.738442 
L 545.309091 125.308842 
L 558.192208 171.387534 
L 571.075325 202.834089 
L 583.958442 241.270962 
L 596.841558 264.62271 
L 609.724675 274.256766 
L 622.607792 284.518441 
L 635.490909 286.186694 
L 648.374026 279.243307 
L 661.257143 250.51942 
L 674.14026 225.909876 
L 687.023377 182.932023 
L 699.906494 141.077257 
L 712.78961 115.891503 
L 725.672727 85.824724 
L 738.555844 69.129222 
L 751.438961 59.455913 
L 764.322078 67.930093 
L 777.205195 73.586763 
L 790.088312 99.73265 
L 802.971429 139.678602 
L 815.854545 171.504576 
L 828.737662 218.439995 
L 841.620779 249.198429 
L 854.503896 275.510457 
L 867.387013 286.685603 
L 880.27013 295.488 
L 893.153247 290.361964 
L 906.036364 263.983218 
L 918.919481 244.962945 
L 931.802597 212.621323 
L 944.685714 177.698776 
L 957.568831 134.959798 
L 970.451948 106.238506 
L 983.335065 78.806475 
L 996.218182 67.745903 
" style="fill:none;stroke:#1f77b4;stroke-linecap:square;stroke-width:1.5;"/>
   </g>
   <g id="line2d_28">
    <path clip-path="url(#p1527020a4f)" d="M 184.581818 169.314852 
L 197.464935 175.458649 
L 210.348052 205.044081 
L 223.231169 220.512884 
L 236.114286 232.087656 
L 248.997403 225.484624 
L 261.880519 222.491412 
L 274.763636 213.156245 
L 287.646753 212.051895 
L 300.52987 201.184022 
L 313.412987 188.09898 
L 326.296104 178.28964 
L 339.179221 146.615523 
L 352.062338 137.82774 
L 364.945455 130.810688 
L 377.828571 131.323561 
L 390.711688 140.29474 
L 403.594805 138.469748 
L 416.477922 136.794719 
L 429.361039 146.240095 
L 442.244156 171.837123 
L 455.127273 187.646734 
L 468.01039 205.081468 
L 480.893506 216.781211 
L 493.776623 203.535856 
L 506.65974 211.208485 
L 519.542857 224.124029 
L 532.425974 223.594692 
L 545.309091 210.293254 
L 558.192208 197.11882 
L 571.075325 175.794418 
L 583.958442 155.99491 
L 596.841558 167.408511 
L 609.724675 153.327654 
L 622.607792 131.707759 
L 635.490909 130.338476 
L 648.374026 124.5872 
L 661.257143 131.524861 
L 674.14026 147.421573 
L 687.023377 166.062755 
L 699.906494 159.770476 
L 712.78961 175.576045 
L 725.672727 200.084194 
L 738.555844 209.476299 
L 751.438961 225.750597 
L 764.322078 225.0484 
L 777.205195 218.924423 
L 790.088312 208.769878 
L 802.971429 208.625591 
L 815.854545 198.839209 
L 828.737662 180.774306 
L 841.620779 168.21576 
L 854.503896 142.349168 
L 867.387013 135.978748 
L 880.27013 132.812821 
L 893.153247 130.917818 
L 906.036364 145.652385 
L 918.919481 143.917328 
L 931.802597 144.165339 
L 944.685714 147.930604 
L 957.568831 169.866768 
L 970.451948 186.846438 
L 983.335065 208.725541 
L 996.218182 236.856201 
" style="fill:none;stroke:#ff7f0e;stroke-linecap:square;stroke-width:1.5;"/>
   </g>
   <g id="line2d_29">
    <path clip-path="url(#p1527020a4f)" d="M 184.581818 155.148722 
L 197.464935 180.590664 
L 210.348052 175.681809 
L 223.231169 172.277012 
L 236.114286 162.950895 
L 248.997403 162.223234 
L 261.880519 156.638901 
L 274.763636 164.254548 
L 287.646753 173.693394 
L 300.52987 175.226454 
L 313.412987 184.111153 
L 326.296104 183.398286 
L 339.179221 172.189853 
L 352.062338 174.614405 
L 364.945455 187.221892 
L 377.828571 183.956291 
L 390.711688 178.415708 
L 403.594805 176.956746 
L 416.477922 174.991206 
L 429.361039 179.42583 
L 442.244156 191.546979 
L 455.127273 187.255031 
L 468.01039 172.299525 
L 480.893506 170.865234 
L 493.776623 171.52368 
L 506.65974 176.803053 
L 519.542857 177.953265 
L 532.425974 166.686864 
L 545.309091 149.563368 
L 558.192208 155.637116 
L 571.075325 168.097802 
L 583.958442 174.659946 
L 596.841558 179.633312 
L 609.724675 176.126661 
L 622.607792 182.677662 
L 635.490909 191.110554 
L 648.374026 202.010271 
L 661.257143 196.524253 
L 674.14026 193.778728 
L 687.023377 185.193446 
L 699.906494 178.329188 
L 712.78961 181.056554 
L 725.672727 171.343209 
L 738.555844 162.345206 
L 751.438961 159.116037 
L 764.322078 162.802886 
L 777.205195 157.300004 
L 790.088312 168.241017 
L 802.971429 175.242298 
L 815.854545 176.492687 
L 828.737662 184.286436 
L 841.620779 188.576614 
L 854.503896 176.242174 
L 867.387013 175.616753 
L 880.27013 190.029839 
L 893.153247 187.729017 
L 906.036364 176.020283 
L 918.919481 178.122144 
L 931.802597 175.130632 
L 944.685714 176.684023 
L 957.568831 182.483584 
L 970.451948 178.735587 
L 983.335065 158.980388 
L 996.218182 137.228685 
" style="fill:none;stroke:#2ca02c;stroke-linecap:square;stroke-width:1.5;"/>
   </g>
   <g id="line2d_30">
    <path clip-path="url(#p1527020a4f)" d="M 184.581818 197.037968 
L 197.464935 200.025366 
L 210.348052 189.861174 
L 223.231169 168.489896 
L 236.114286 151.907699 
L 248.997403 140.331942 
L 261.880519 129.049915 
L 274.763636 126.894436 
L 287.646753 123.157107 
L 300.52987 118.633572 
L 313.412987 126.074018 
L 326.296104 141.630539 
L 339.179221 153.536203 
L 352.062338 171.263221 
L 364.945455 185.934768 
L 377.828571 195.877964 
L 390.711688 209.613257 
L 403.594805 220.750882 
L 416.477922 223.030929 
L 429.361039 223.094016 
L 442.244156 217.806617 
L 455.127273 200.662807 
L 468.01039 188.417591 
L 480.893506 176.761524 
L 493.776623 152.467163 
L 506.65974 142.589006 
L 519.542857 138.458104 
L 532.425974 125.490981 
L 545.309091 121.058572 
L 558.192208 129.154304 
L 571.075325 132.160139 
L 583.958442 142.77068 
L 596.841558 168.469205 
L 609.724675 177.70128 
L 622.607792 184.916688 
L 635.490909 205.022274 
L 648.374026 213.925096 
L 661.257143 218.608406 
L 674.14026 226.330893 
L 687.023377 221.874865 
L 699.906494 206.194128 
L 712.78961 201.578919 
L 725.672727 192.318671 
L 738.555844 168.565684 
L 751.438961 157.363776 
L 764.322078 146.66531 
L 777.205195 133.745918 
L 790.088312 129.426796 
L 802.971429 128.653378 
L 815.854545 126.442232 
L 828.737662 135.382287 
L 841.620779 150.646944 
L 854.503896 162.999344 
L 867.387013 179.504409 
L 880.27013 193.238373 
L 893.153247 200.425864 
L 906.036364 211.662759 
L 918.919481 219.487917 
L 931.802597 219.046221 
L 944.685714 216.796528 
L 957.568831 209.918807 
L 970.451948 196.030453 
L 983.335065 185.210757 
L 996.218182 168.00866 
" style="fill:none;stroke:#d62728;stroke-linecap:square;stroke-width:1.5;"/>
   </g>
   <g id="line2d_31">
    <path clip-path="url(#p1527020a4f)" d="M 184.581818 209.414756 
L 197.464935 192.672926 
L 210.348052 207.50187 
L 223.231169 191.659079 
L 236.114286 189.611054 
L 248.997403 181.815236 
L 261.880519 167.254449 
L 274.763636 154.744856 
L 287.646753 135.881497 
L 300.52987 143.775902 
L 313.412987 128.80138 
L 326.296104 141.188672 
L 339.179221 139.575399 
L 352.062338 143.626297 
L 364.945455 157.7978 
L 377.828571 172.666237 
L 390.711688 190.203857 
L 403.594805 194.48546 
L 416.477922 207.206233 
L 429.361039 209.967676 
L 442.244156 211.335507 
L 455.127273 215.052437 
L 468.01039 207.731229 
L 480.893506 199.096736 
L 493.776623 188.2516 
L 506.65974 174.460547 
L 519.542857 170.305066 
L 532.425974 155.224825 
L 545.309091 154.949377 
L 558.192208 144.797017 
L 571.075325 139.363647 
L 583.958442 140.549481 
L 596.841558 142.879743 
L 609.724675 160.109807 
L 622.607792 157.006082 
L 635.490909 176.988164 
L 648.374026 174.830598 
L 661.257143 189.062692 
L 674.14026 201.297813 
L 687.023377 208.182909 
L 699.906494 215.994263 
L 712.78961 203.49897 
L 725.672727 215.539453 
L 738.555844 194.445509 
L 751.438961 194.321055 
L 764.322078 184.966079 
L 777.205195 167.965229 
L 790.088312 153.901862 
L 802.971429 138.332895 
L 815.854545 144.864886 
L 828.737662 129.574367 
L 841.620779 142.616974 
L 854.503896 142.397474 
L 867.387013 145.706074 
L 880.27013 160.32115 
L 893.153247 171.851326 
L 906.036364 190.099189 
L 918.919481 198.224599 
L 931.802597 209.476764 
L 944.685714 206.04895 
L 957.568831 208.857532 
L 970.451948 214.251332 
L 983.335065 207.758811 
L 996.218182 211.736601 
" style="fill:none;stroke:#9467bd;stroke-linecap:square;stroke-width:1.5;"/>
   </g>
   <g id="line2d_32">
    <path clip-path="url(#p1527020a4f)" d="M 184.581818 153.035343 
L 197.464935 154.617576 
L 210.348052 155.793806 
L 223.231169 149.735171 
L 236.114286 155.269406 
L 248.997403 155.577491 
L 261.880519 173.380529 
L 274.763636 182.678739 
L 287.646753 185.939097 
L 300.52987 216.806064 
L 313.412987 234.947098 
L 326.296104 252.965813 
L 339.179221 233.223228 
L 352.062338 234.36923 
L 364.945455 220.388801 
L 377.828571 215.49577 
L 390.711688 211.272932 
L 403.594805 179.662202 
L 416.477922 157.960869 
L 429.361039 137.719225 
L 442.244156 133.87913 
L 455.127273 124.862634 
L 468.01039 125.070067 
L 480.893506 124.237296 
L 493.776623 124.50348 
L 506.65974 144.937034 
L 519.542857 162.189547 
L 532.425974 177.890959 
L 545.309091 194.819902 
L 558.192208 207.864492 
L 571.075325 222.887038 
L 583.958442 227.061672 
L 596.841558 231.502005 
L 609.724675 227.002472 
L 622.607792 221.715131 
L 635.490909 215.805399 
L 648.374026 189.064487 
L 661.257143 176.911353 
L 674.14026 155.399749 
L 687.023377 149.624468 
L 699.906494 138.12996 
L 712.78961 123.389226 
L 725.672727 115.60839 
L 738.555844 111.67494 
L 751.438961 137.004893 
L 764.322078 144.343813 
L 777.205195 167.249105 
L 790.088312 176.031582 
L 802.971429 182.695996 
L 815.854545 212.053016 
L 828.737662 230.690114 
L 841.620779 245.378667 
L 854.503896 231.041521 
L 867.387013 225.397287 
L 880.27013 215.266721 
L 893.153247 207.203326 
L 906.036364 202.020722 
L 918.919481 167.786261 
L 931.802597 152.093994 
L 944.685714 135.250634 
L 957.568831 134.979733 
L 970.451948 127.606392 
L 983.335065 130.052408 
L 996.218182 129.096234 
" style="fill:none;stroke:#8c564b;stroke-linecap:square;stroke-width:1.5;"/>
   </g>
   <g id="patch_3">
    <path d="M 144 307.584 
L 144 41.472 
" style="fill:none;stroke:#000000;stroke-linecap:square;stroke-linejoin:miter;stroke-width:0.8;"/>
   </g>
   <g id="patch_4">
    <path d="M 1036.8 307.584 
L 1036.8 41.472 
" style="fill:none;stroke:#000000;stroke-linecap:square;stroke-linejoin:miter;stroke-width:0.8;"/>
   </g>
   <g id="patch_5">
    <path d="M 144 307.584 
L 1036.8 307.584 
" style="fill:none;stroke:#000000;stroke-linecap:square;stroke-linejoin:miter;stroke-width:0.8;"/>
   </g>
   <g id="patch_6">
    <path d="M 144 41.472 
L 1036.8 41.472 
" style="fill:none;stroke:#000000;stroke-linecap:square;stroke-linejoin:miter;stroke-width:0.8;"/>
   </g>
   <g id="text_17">
    <!-- 8th layer's shape: torch.Size([1, 256, 64]). Uniformly sampling 16 channels -->
    <g transform="translate(364.66875 35.472)scale(0.12 -0.12)">
     <defs>
      <path d="M 31.78125 34.625 
Q 24.75 34.625 20.71875 30.859375 
Q 16.703125 27.09375 16.703125 20.515625 
Q 16.703125 13.921875 20.71875 10.15625 
Q 24.75 6.390625 31.78125 6.390625 
Q 38.8125 6.390625 42.859375 10.171875 
Q 46.921875 13.96875 46.921875 20.515625 
Q 46.921875 27.09375 42.890625 30.859375 
Q 38.875 34.625 31.78125 34.625 
z
M 21.921875 38.8125 
Q 15.578125 40.375 12.03125 44.71875 
Q 8.5 49.078125 8.5 55.328125 
Q 8.5 64.0625 14.71875 69.140625 
Q 20.953125 74.21875 31.78125 74.21875 
Q 42.671875 74.21875 48.875 69.140625 
Q 55.078125 64.0625 55.078125 55.328125 
Q 55.078125 49.078125 51.53125 44.71875 
Q 48 40.375 41.703125 38.8125 
Q 48.828125 37.15625 52.796875 32.3125 
Q 56.78125 27.484375 56.78125 20.515625 
Q 56.78125 9.90625 50.3125 4.234375 
Q 43.84375 -1.421875 31.78125 -1.421875 
Q 19.734375 -1.421875 13.25 4.234375 
Q 6.78125 9.90625 6.78125 20.515625 
Q 6.78125 27.484375 10.78125 32.3125 
Q 14.796875 37.15625 21.921875 38.8125 
z
M 18.3125 54.390625 
Q 18.3125 48.734375 21.84375 45.5625 
Q 25.390625 42.390625 31.78125 42.390625 
Q 38.140625 42.390625 41.71875 45.5625 
Q 45.3125 48.734375 45.3125 54.390625 
Q 45.3125 60.0625 41.71875 63.234375 
Q 38.140625 66.40625 31.78125 66.40625 
Q 25.390625 66.40625 21.84375 63.234375 
Q 18.3125 60.0625 18.3125 54.390625 
z
" id="DejaVuSans-56"/>
      <path d="M 18.3125 70.21875 
L 18.3125 54.6875 
L 36.8125 54.6875 
L 36.8125 47.703125 
L 18.3125 47.703125 
L 18.3125 18.015625 
Q 18.3125 11.328125 20.140625 9.421875 
Q 21.96875 7.515625 27.59375 7.515625 
L 36.8125 7.515625 
L 36.8125 0 
L 27.59375 0 
Q 17.1875 0 13.234375 3.875 
Q 9.28125 7.765625 9.28125 18.015625 
L 9.28125 47.703125 
L 2.6875 47.703125 
L 2.6875 54.6875 
L 9.28125 54.6875 
L 9.28125 70.21875 
z
" id="DejaVuSans-116"/>
      <path d="M 54.890625 33.015625 
L 54.890625 0 
L 45.90625 0 
L 45.90625 32.71875 
Q 45.90625 40.484375 42.875 44.328125 
Q 39.84375 48.1875 33.796875 48.1875 
Q 26.515625 48.1875 22.3125 43.546875 
Q 18.109375 38.921875 18.109375 30.90625 
L 18.109375 0 
L 9.078125 0 
L 9.078125 75.984375 
L 18.109375 75.984375 
L 18.109375 46.1875 
Q 21.34375 51.125 25.703125 53.5625 
Q 30.078125 56 35.796875 56 
Q 45.21875 56 50.046875 50.171875 
Q 54.890625 44.34375 54.890625 33.015625 
z
" id="DejaVuSans-104"/>
      <path id="DejaVuSans-32"/>
      <path d="M 9.421875 75.984375 
L 18.40625 75.984375 
L 18.40625 0 
L 9.421875 0 
z
" id="DejaVuSans-108"/>
      <path d="M 34.28125 27.484375 
Q 23.390625 27.484375 19.1875 25 
Q 14.984375 22.515625 14.984375 16.5 
Q 14.984375 11.71875 18.140625 8.90625 
Q 21.296875 6.109375 26.703125 6.109375 
Q 34.1875 6.109375 38.703125 11.40625 
Q 43.21875 16.703125 43.21875 25.484375 
L 43.21875 27.484375 
z
M 52.203125 31.203125 
L 52.203125 0 
L 43.21875 0 
L 43.21875 8.296875 
Q 40.140625 3.328125 35.546875 0.953125 
Q 30.953125 -1.421875 24.3125 -1.421875 
Q 15.921875 -1.421875 10.953125 3.296875 
Q 6 8.015625 6 15.921875 
Q 6 25.140625 12.171875 29.828125 
Q 18.359375 34.515625 30.609375 34.515625 
L 43.21875 34.515625 
L 43.21875 35.40625 
Q 43.21875 41.609375 39.140625 45 
Q 35.0625 48.390625 27.6875 48.390625 
Q 23 48.390625 18.546875 47.265625 
Q 14.109375 46.140625 10.015625 43.890625 
L 10.015625 52.203125 
Q 14.9375 54.109375 19.578125 55.046875 
Q 24.21875 56 28.609375 56 
Q 40.484375 56 46.34375 49.84375 
Q 52.203125 43.703125 52.203125 31.203125 
z
" id="DejaVuSans-97"/>
      <path d="M 32.171875 -5.078125 
Q 28.375 -14.84375 24.75 -17.8125 
Q 21.140625 -20.796875 15.09375 -20.796875 
L 7.90625 -20.796875 
L 7.90625 -13.28125 
L 13.1875 -13.28125 
Q 16.890625 -13.28125 18.9375 -11.515625 
Q 21 -9.765625 23.484375 -3.21875 
L 25.09375 0.875 
L 2.984375 54.6875 
L 12.5 54.6875 
L 29.59375 11.921875 
L 46.6875 54.6875 
L 56.203125 54.6875 
z
" id="DejaVuSans-121"/>
      <path d="M 56.203125 29.59375 
L 56.203125 25.203125 
L 14.890625 25.203125 
Q 15.484375 15.921875 20.484375 11.0625 
Q 25.484375 6.203125 34.421875 6.203125 
Q 39.59375 6.203125 44.453125 7.46875 
Q 49.3125 8.734375 54.109375 11.28125 
L 54.109375 2.78125 
Q 49.265625 0.734375 44.1875 -0.34375 
Q 39.109375 -1.421875 33.890625 -1.421875 
Q 20.796875 -1.421875 13.15625 6.1875 
Q 5.515625 13.8125 5.515625 26.8125 
Q 5.515625 40.234375 12.765625 48.109375 
Q 20.015625 56 32.328125 56 
Q 43.359375 56 49.78125 48.890625 
Q 56.203125 41.796875 56.203125 29.59375 
z
M 47.21875 32.234375 
Q 47.125 39.59375 43.09375 43.984375 
Q 39.0625 48.390625 32.421875 48.390625 
Q 24.90625 48.390625 20.390625 44.140625 
Q 15.875 39.890625 15.1875 32.171875 
z
" id="DejaVuSans-101"/>
      <path d="M 41.109375 46.296875 
Q 39.59375 47.171875 37.8125 47.578125 
Q 36.03125 48 33.890625 48 
Q 26.265625 48 22.1875 43.046875 
Q 18.109375 38.09375 18.109375 28.8125 
L 18.109375 0 
L 9.078125 0 
L 9.078125 54.6875 
L 18.109375 54.6875 
L 18.109375 46.1875 
Q 20.953125 51.171875 25.484375 53.578125 
Q 30.03125 56 36.53125 56 
Q 37.453125 56 38.578125 55.875 
Q 39.703125 55.765625 41.0625 55.515625 
z
" id="DejaVuSans-114"/>
      <path d="M 17.921875 72.90625 
L 17.921875 45.796875 
L 9.625 45.796875 
L 9.625 72.90625 
z
" id="DejaVuSans-39"/>
      <path d="M 44.28125 53.078125 
L 44.28125 44.578125 
Q 40.484375 46.53125 36.375 47.5 
Q 32.28125 48.484375 27.875 48.484375 
Q 21.1875 48.484375 17.84375 46.4375 
Q 14.5 44.390625 14.5 40.28125 
Q 14.5 37.15625 16.890625 35.375 
Q 19.28125 33.59375 26.515625 31.984375 
L 29.59375 31.296875 
Q 39.15625 29.25 43.1875 25.515625 
Q 47.21875 21.78125 47.21875 15.09375 
Q 47.21875 7.46875 41.1875 3.015625 
Q 35.15625 -1.421875 24.609375 -1.421875 
Q 20.21875 -1.421875 15.453125 -0.5625 
Q 10.6875 0.296875 5.421875 2 
L 5.421875 11.28125 
Q 10.40625 8.6875 15.234375 7.390625 
Q 20.0625 6.109375 24.8125 6.109375 
Q 31.15625 6.109375 34.5625 8.28125 
Q 37.984375 10.453125 37.984375 14.40625 
Q 37.984375 18.0625 35.515625 20.015625 
Q 33.0625 21.96875 24.703125 23.78125 
L 21.578125 24.515625 
Q 13.234375 26.265625 9.515625 29.90625 
Q 5.8125 33.546875 5.8125 39.890625 
Q 5.8125 47.609375 11.28125 51.796875 
Q 16.75 56 26.8125 56 
Q 31.78125 56 36.171875 55.265625 
Q 40.578125 54.546875 44.28125 53.078125 
z
" id="DejaVuSans-115"/>
      <path d="M 18.109375 8.203125 
L 18.109375 -20.796875 
L 9.078125 -20.796875 
L 9.078125 54.6875 
L 18.109375 54.6875 
L 18.109375 46.390625 
Q 20.953125 51.265625 25.265625 53.625 
Q 29.59375 56 35.59375 56 
Q 45.5625 56 51.78125 48.09375 
Q 58.015625 40.1875 58.015625 27.296875 
Q 58.015625 14.40625 51.78125 6.484375 
Q 45.5625 -1.421875 35.59375 -1.421875 
Q 29.59375 -1.421875 25.265625 0.953125 
Q 20.953125 3.328125 18.109375 8.203125 
z
M 48.6875 27.296875 
Q 48.6875 37.203125 44.609375 42.84375 
Q 40.53125 48.484375 33.40625 48.484375 
Q 26.265625 48.484375 22.1875 42.84375 
Q 18.109375 37.203125 18.109375 27.296875 
Q 18.109375 17.390625 22.1875 11.75 
Q 26.265625 6.109375 33.40625 6.109375 
Q 40.53125 6.109375 44.609375 11.75 
Q 48.6875 17.390625 48.6875 27.296875 
z
" id="DejaVuSans-112"/>
      <path d="M 11.71875 12.40625 
L 22.015625 12.40625 
L 22.015625 0 
L 11.71875 0 
z
M 11.71875 51.703125 
L 22.015625 51.703125 
L 22.015625 39.3125 
L 11.71875 39.3125 
z
" id="DejaVuSans-58"/>
      <path d="M 30.609375 48.390625 
Q 23.390625 48.390625 19.1875 42.75 
Q 14.984375 37.109375 14.984375 27.296875 
Q 14.984375 17.484375 19.15625 11.84375 
Q 23.34375 6.203125 30.609375 6.203125 
Q 37.796875 6.203125 41.984375 11.859375 
Q 46.1875 17.53125 46.1875 27.296875 
Q 46.1875 37.015625 41.984375 42.703125 
Q 37.796875 48.390625 30.609375 48.390625 
z
M 30.609375 56 
Q 42.328125 56 49.015625 48.375 
Q 55.71875 40.765625 55.71875 27.296875 
Q 55.71875 13.875 49.015625 6.21875 
Q 42.328125 -1.421875 30.609375 -1.421875 
Q 18.84375 -1.421875 12.171875 6.21875 
Q 5.515625 13.875 5.515625 27.296875 
Q 5.515625 40.765625 12.171875 48.375 
Q 18.84375 56 30.609375 56 
z
" id="DejaVuSans-111"/>
      <path d="M 48.78125 52.59375 
L 48.78125 44.1875 
Q 44.96875 46.296875 41.140625 47.34375 
Q 37.3125 48.390625 33.40625 48.390625 
Q 24.65625 48.390625 19.8125 42.84375 
Q 14.984375 37.3125 14.984375 27.296875 
Q 14.984375 17.28125 19.8125 11.734375 
Q 24.65625 6.203125 33.40625 6.203125 
Q 37.3125 6.203125 41.140625 7.25 
Q 44.96875 8.296875 48.78125 10.40625 
L 48.78125 2.09375 
Q 45.015625 0.34375 40.984375 -0.53125 
Q 36.96875 -1.421875 32.421875 -1.421875 
Q 20.0625 -1.421875 12.78125 6.34375 
Q 5.515625 14.109375 5.515625 27.296875 
Q 5.515625 40.671875 12.859375 48.328125 
Q 20.21875 56 33.015625 56 
Q 37.15625 56 41.109375 55.140625 
Q 45.0625 54.296875 48.78125 52.59375 
z
" id="DejaVuSans-99"/>
      <path d="M 53.515625 70.515625 
L 53.515625 60.890625 
Q 47.90625 63.578125 42.921875 64.890625 
Q 37.9375 66.21875 33.296875 66.21875 
Q 25.25 66.21875 20.875 63.09375 
Q 16.5 59.96875 16.5 54.203125 
Q 16.5 49.359375 19.40625 46.890625 
Q 22.3125 44.4375 30.421875 42.921875 
L 36.375 41.703125 
Q 47.40625 39.59375 52.65625 34.296875 
Q 57.90625 29 57.90625 20.125 
Q 57.90625 9.515625 50.796875 4.046875 
Q 43.703125 -1.421875 29.984375 -1.421875 
Q 24.8125 -1.421875 18.96875 -0.25 
Q 13.140625 0.921875 6.890625 3.21875 
L 6.890625 13.375 
Q 12.890625 10.015625 18.65625 8.296875 
Q 24.421875 6.59375 29.984375 6.59375 
Q 38.421875 6.59375 43.015625 9.90625 
Q 47.609375 13.234375 47.609375 19.390625 
Q 47.609375 24.75 44.3125 27.78125 
Q 41.015625 30.8125 33.5 32.328125 
L 27.484375 33.5 
Q 16.453125 35.6875 11.515625 40.375 
Q 6.59375 45.0625 6.59375 53.421875 
Q 6.59375 63.09375 13.40625 68.65625 
Q 20.21875 74.21875 32.171875 74.21875 
Q 37.3125 74.21875 42.625 73.28125 
Q 47.953125 72.359375 53.515625 70.515625 
z
" id="DejaVuSans-83"/>
      <path d="M 9.421875 54.6875 
L 18.40625 54.6875 
L 18.40625 0 
L 9.421875 0 
z
M 9.421875 75.984375 
L 18.40625 75.984375 
L 18.40625 64.59375 
L 9.421875 64.59375 
z
" id="DejaVuSans-105"/>
      <path d="M 5.515625 54.6875 
L 48.1875 54.6875 
L 48.1875 46.484375 
L 14.40625 7.171875 
L 48.1875 7.171875 
L 48.1875 0 
L 4.296875 0 
L 4.296875 8.203125 
L 38.09375 47.515625 
L 5.515625 47.515625 
z
" id="DejaVuSans-122"/>
      <path d="M 31 75.875 
Q 24.46875 64.65625 21.28125 53.65625 
Q 18.109375 42.671875 18.109375 31.390625 
Q 18.109375 20.125 21.3125 9.0625 
Q 24.515625 -2 31 -13.1875 
L 23.1875 -13.1875 
Q 15.875 -1.703125 12.234375 9.375 
Q 8.59375 20.453125 8.59375 31.390625 
Q 8.59375 42.28125 12.203125 53.3125 
Q 15.828125 64.359375 23.1875 75.875 
z
" id="DejaVuSans-40"/>
      <path d="M 8.59375 75.984375 
L 29.296875 75.984375 
L 29.296875 69 
L 17.578125 69 
L 17.578125 -6.203125 
L 29.296875 -6.203125 
L 29.296875 -13.1875 
L 8.59375 -13.1875 
z
" id="DejaVuSans-91"/>
      <path d="M 11.71875 12.40625 
L 22.015625 12.40625 
L 22.015625 4 
L 14.015625 -11.625 
L 7.71875 -11.625 
L 11.71875 4 
z
" id="DejaVuSans-44"/>
      <path d="M 30.421875 75.984375 
L 30.421875 -13.1875 
L 9.71875 -13.1875 
L 9.71875 -6.203125 
L 21.390625 -6.203125 
L 21.390625 69 
L 9.71875 69 
L 9.71875 75.984375 
z
" id="DejaVuSans-93"/>
      <path d="M 8.015625 75.875 
L 15.828125 75.875 
Q 23.140625 64.359375 26.78125 53.3125 
Q 30.421875 42.28125 30.421875 31.390625 
Q 30.421875 20.453125 26.78125 9.375 
Q 23.140625 -1.703125 15.828125 -13.1875 
L 8.015625 -13.1875 
Q 14.5 -2 17.703125 9.0625 
Q 20.90625 20.125 20.90625 31.390625 
Q 20.90625 42.671875 17.703125 53.65625 
Q 14.5 64.65625 8.015625 75.875 
z
" id="DejaVuSans-41"/>
      <path d="M 8.6875 72.90625 
L 18.609375 72.90625 
L 18.609375 28.609375 
Q 18.609375 16.890625 22.84375 11.734375 
Q 27.09375 6.59375 36.625 6.59375 
Q 46.09375 6.59375 50.34375 11.734375 
Q 54.59375 16.890625 54.59375 28.609375 
L 54.59375 72.90625 
L 64.5 72.90625 
L 64.5 27.390625 
Q 64.5 13.140625 57.4375 5.859375 
Q 50.390625 -1.421875 36.625 -1.421875 
Q 22.796875 -1.421875 15.734375 5.859375 
Q 8.6875 13.140625 8.6875 27.390625 
z
" id="DejaVuSans-85"/>
      <path d="M 54.890625 33.015625 
L 54.890625 0 
L 45.90625 0 
L 45.90625 32.71875 
Q 45.90625 40.484375 42.875 44.328125 
Q 39.84375 48.1875 33.796875 48.1875 
Q 26.515625 48.1875 22.3125 43.546875 
Q 18.109375 38.921875 18.109375 30.90625 
L 18.109375 0 
L 9.078125 0 
L 9.078125 54.6875 
L 18.109375 54.6875 
L 18.109375 46.1875 
Q 21.34375 51.125 25.703125 53.5625 
Q 30.078125 56 35.796875 56 
Q 45.21875 56 50.046875 50.171875 
Q 54.890625 44.34375 54.890625 33.015625 
z
" id="DejaVuSans-110"/>
      <path d="M 37.109375 75.984375 
L 37.109375 68.5 
L 28.515625 68.5 
Q 23.6875 68.5 21.796875 66.546875 
Q 19.921875 64.59375 19.921875 59.515625 
L 19.921875 54.6875 
L 34.71875 54.6875 
L 34.71875 47.703125 
L 19.921875 47.703125 
L 19.921875 0 
L 10.890625 0 
L 10.890625 47.703125 
L 2.296875 47.703125 
L 2.296875 54.6875 
L 10.890625 54.6875 
L 10.890625 58.5 
Q 10.890625 67.625 15.140625 71.796875 
Q 19.390625 75.984375 28.609375 75.984375 
z
" id="DejaVuSans-102"/>
      <path d="M 52 44.1875 
Q 55.375 50.25 60.0625 53.125 
Q 64.75 56 71.09375 56 
Q 79.640625 56 84.28125 50.015625 
Q 88.921875 44.046875 88.921875 33.015625 
L 88.921875 0 
L 79.890625 0 
L 79.890625 32.71875 
Q 79.890625 40.578125 77.09375 44.375 
Q 74.3125 48.1875 68.609375 48.1875 
Q 61.625 48.1875 57.5625 43.546875 
Q 53.515625 38.921875 53.515625 30.90625 
L 53.515625 0 
L 44.484375 0 
L 44.484375 32.71875 
Q 44.484375 40.625 41.703125 44.40625 
Q 38.921875 48.1875 33.109375 48.1875 
Q 26.21875 48.1875 22.15625 43.53125 
Q 18.109375 38.875 18.109375 30.90625 
L 18.109375 0 
L 9.078125 0 
L 9.078125 54.6875 
L 18.109375 54.6875 
L 18.109375 46.1875 
Q 21.1875 51.21875 25.484375 53.609375 
Q 29.78125 56 35.6875 56 
Q 41.65625 56 45.828125 52.96875 
Q 50 49.953125 52 44.1875 
z
" id="DejaVuSans-109"/>
      <path d="M 45.40625 27.984375 
Q 45.40625 37.75 41.375 43.109375 
Q 37.359375 48.484375 30.078125 48.484375 
Q 22.859375 48.484375 18.828125 43.109375 
Q 14.796875 37.75 14.796875 27.984375 
Q 14.796875 18.265625 18.828125 12.890625 
Q 22.859375 7.515625 30.078125 7.515625 
Q 37.359375 7.515625 41.375 12.890625 
Q 45.40625 18.265625 45.40625 27.984375 
z
M 54.390625 6.78125 
Q 54.390625 -7.171875 48.1875 -13.984375 
Q 42 -20.796875 29.203125 -20.796875 
Q 24.46875 -20.796875 20.265625 -20.09375 
Q 16.0625 -19.390625 12.109375 -17.921875 
L 12.109375 -9.1875 
Q 16.0625 -11.328125 19.921875 -12.34375 
Q 23.78125 -13.375 27.78125 -13.375 
Q 36.625 -13.375 41.015625 -8.765625 
Q 45.40625 -4.15625 45.40625 5.171875 
L 45.40625 9.625 
Q 42.625 4.78125 38.28125 2.390625 
Q 33.9375 0 27.875 0 
Q 17.828125 0 11.671875 7.65625 
Q 5.515625 15.328125 5.515625 27.984375 
Q 5.515625 40.671875 11.671875 48.328125 
Q 17.828125 56 27.875 56 
Q 33.9375 56 38.28125 53.609375 
Q 42.625 51.21875 45.40625 46.390625 
L 45.40625 54.6875 
L 54.390625 54.6875 
z
" id="DejaVuSans-103"/>
     </defs>
     <use xlink:href="#DejaVuSans-56"/>
     <use x="63.623047" xlink:href="#DejaVuSans-116"/>
     <use x="102.832031" xlink:href="#DejaVuSans-104"/>
     <use x="166.210938" xlink:href="#DejaVuSans-32"/>
     <use x="197.998047" xlink:href="#DejaVuSans-108"/>
     <use x="225.78125" xlink:href="#DejaVuSans-97"/>
     <use x="287.060547" xlink:href="#DejaVuSans-121"/>
     <use x="346.240234" xlink:href="#DejaVuSans-101"/>
     <use x="407.763672" xlink:href="#DejaVuSans-114"/>
     <use x="448.876953" xlink:href="#DejaVuSans-39"/>
     <use x="476.367188" xlink:href="#DejaVuSans-115"/>
     <use x="528.466797" xlink:href="#DejaVuSans-32"/>
     <use x="560.253906" xlink:href="#DejaVuSans-115"/>
     <use x="612.353516" xlink:href="#DejaVuSans-104"/>
     <use x="675.732422" xlink:href="#DejaVuSans-97"/>
     <use x="737.011719" xlink:href="#DejaVuSans-112"/>
     <use x="800.488281" xlink:href="#DejaVuSans-101"/>
     <use x="862.011719" xlink:href="#DejaVuSans-58"/>
     <use x="895.703125" xlink:href="#DejaVuSans-32"/>
     <use x="927.490234" xlink:href="#DejaVuSans-116"/>
     <use x="966.699219" xlink:href="#DejaVuSans-111"/>
     <use x="1027.880859" xlink:href="#DejaVuSans-114"/>
     <use x="1066.744141" xlink:href="#DejaVuSans-99"/>
     <use x="1121.724609" xlink:href="#DejaVuSans-104"/>
     <use x="1185.103516" xlink:href="#DejaVuSans-46"/>
     <use x="1216.890625" xlink:href="#DejaVuSans-83"/>
     <use x="1280.367188" xlink:href="#DejaVuSans-105"/>
     <use x="1308.150391" xlink:href="#DejaVuSans-122"/>
     <use x="1360.640625" xlink:href="#DejaVuSans-101"/>
     <use x="1422.164062" xlink:href="#DejaVuSans-40"/>
     <use x="1461.177734" xlink:href="#DejaVuSans-91"/>
     <use x="1500.191406" xlink:href="#DejaVuSans-49"/>
     <use x="1563.814453" xlink:href="#DejaVuSans-44"/>
     <use x="1595.601562" xlink:href="#DejaVuSans-32"/>
     <use x="1627.388672" xlink:href="#DejaVuSans-50"/>
     <use x="1691.011719" xlink:href="#DejaVuSans-53"/>
     <use x="1754.634766" xlink:href="#DejaVuSans-54"/>
     <use x="1818.257812" xlink:href="#DejaVuSans-44"/>
     <use x="1850.044922" xlink:href="#DejaVuSans-32"/>
     <use x="1881.832031" xlink:href="#DejaVuSans-54"/>
     <use x="1945.455078" xlink:href="#DejaVuSans-52"/>
     <use x="2009.078125" xlink:href="#DejaVuSans-93"/>
     <use x="2048.091797" xlink:href="#DejaVuSans-41"/>
     <use x="2087.105469" xlink:href="#DejaVuSans-46"/>
     <use x="2118.892578" xlink:href="#DejaVuSans-32"/>
     <use x="2150.679688" xlink:href="#DejaVuSans-85"/>
     <use x="2223.873047" xlink:href="#DejaVuSans-110"/>
     <use x="2287.251953" xlink:href="#DejaVuSans-105"/>
     <use x="2315.035156" xlink:href="#DejaVuSans-102"/>
     <use x="2350.240234" xlink:href="#DejaVuSans-111"/>
     <use x="2411.421875" xlink:href="#DejaVuSans-114"/>
     <use x="2450.785156" xlink:href="#DejaVuSans-109"/>
     <use x="2548.197266" xlink:href="#DejaVuSans-108"/>
     <use x="2575.980469" xlink:href="#DejaVuSans-121"/>
     <use x="2635.160156" xlink:href="#DejaVuSans-32"/>
     <use x="2666.947266" xlink:href="#DejaVuSans-115"/>
     <use x="2719.046875" xlink:href="#DejaVuSans-97"/>
     <use x="2780.326172" xlink:href="#DejaVuSans-109"/>
     <use x="2877.738281" xlink:href="#DejaVuSans-112"/>
     <use x="2941.214844" xlink:href="#DejaVuSans-108"/>
     <use x="2968.998047" xlink:href="#DejaVuSans-105"/>
     <use x="2996.78125" xlink:href="#DejaVuSans-110"/>
     <use x="3060.160156" xlink:href="#DejaVuSans-103"/>
     <use x="3123.636719" xlink:href="#DejaVuSans-32"/>
     <use x="3155.423828" xlink:href="#DejaVuSans-49"/>
     <use x="3219.046875" xlink:href="#DejaVuSans-54"/>
     <use x="3282.669922" xlink:href="#DejaVuSans-32"/>
     <use x="3314.457031" xlink:href="#DejaVuSans-99"/>
     <use x="3369.4375" xlink:href="#DejaVuSans-104"/>
     <use x="3432.816406" xlink:href="#DejaVuSans-97"/>
     <use x="3494.095703" xlink:href="#DejaVuSans-110"/>
     <use x="3557.474609" xlink:href="#DejaVuSans-110"/>
     <use x="3620.853516" xlink:href="#DejaVuSans-101"/>
     <use x="3682.376953" xlink:href="#DejaVuSans-108"/>
     <use x="3710.160156" xlink:href="#DejaVuSans-115"/>
    </g>
   </g>
  </g>
 </g>
 <defs>
  <clipPath id="p1527020a4f">
   <rect height="266.112" width="892.8" x="144" y="41.472"/>
  </clipPath>
 </defs>
</svg>
