<?xml version="1.0" encoding="utf-8" standalone="no"?>
<!DOCTYPE svg PUBLIC "-//W3C//DTD SVG 1.1//EN"
  "http://www.w3.org/Graphics/SVG/1.1/DTD/svg11.dtd">
<!-- Created with matplotlib (https://matplotlib.org/) -->
<svg height="345.6pt" version="1.1" viewBox="0 0 1152 345.6" width="1152pt" xmlns="http://www.w3.org/2000/svg" xmlns:xlink="http://www.w3.org/1999/xlink">
 <metadata>
  <rdf:RDF xmlns:cc="http://creativecommons.org/ns#" xmlns:dc="http://purl.org/dc/elements/1.1/" xmlns:rdf="http://www.w3.org/1999/02/22-rdf-syntax-ns#">
   <cc:Work>
    <dc:type rdf:resource="http://purl.org/dc/dcmitype/StillImage"/>
    <dc:date>2021-12-24T07:14:17.376193</dc:date>
    <dc:format>image/svg+xml</dc:format>
    <dc:creator>
     <cc:Agent>
      <dc:title>Matplotlib v3.3.3, https://matplotlib.org/</dc:title>
     </cc:Agent>
    </dc:creator>
   </cc:Work>
  </rdf:RDF>
 </metadata>
 <defs>
  <style type="text/css">*{stroke-linecap:butt;stroke-linejoin:round;}</style>
 </defs>
 <g id="figure_1">
  <g id="patch_1">
   <path d="M 0 345.6 
L 1152 345.6 
L 1152 0 
L 0 0 
z
" style="fill:#ffffff;"/>
  </g>
  <g id="axes_1">
   <g id="patch_2">
    <path d="M 144 307.584 
L 1036.8 307.584 
L 1036.8 41.472 
L 144 41.472 
z
" style="fill:#ffffff;"/>
   </g>
   <g id="matplotlib.axis_1">
    <g id="xtick_1">
     <g id="line2d_1">
      <defs>
       <path d="M 0 0 
L 0 3.5 
" id="me9e3808a82" style="stroke:#000000;stroke-width:0.8;"/>
      </defs>
      <g>
       <use style="stroke:#000000;stroke-width:0.8;" x="184.581818" xlink:href="#me9e3808a82" y="307.584"/>
      </g>
     </g>
     <g id="text_1">
      <!-- 0 -->
      <g transform="translate(181.400568 322.182437)scale(0.1 -0.1)">
       <defs>
        <path d="M 31.78125 66.40625 
Q 24.171875 66.40625 20.328125 58.90625 
Q 16.5 51.421875 16.5 36.375 
Q 16.5 21.390625 20.328125 13.890625 
Q 24.171875 6.390625 31.78125 6.390625 
Q 39.453125 6.390625 43.28125 13.890625 
Q 47.125 21.390625 47.125 36.375 
Q 47.125 51.421875 43.28125 58.90625 
Q 39.453125 66.40625 31.78125 66.40625 
z
M 31.78125 74.21875 
Q 44.046875 74.21875 50.515625 64.515625 
Q 56.984375 54.828125 56.984375 36.375 
Q 56.984375 17.96875 50.515625 8.265625 
Q 44.046875 -1.421875 31.78125 -1.421875 
Q 19.53125 -1.421875 13.0625 8.265625 
Q 6.59375 17.96875 6.59375 36.375 
Q 6.59375 54.828125 13.0625 64.515625 
Q 19.53125 74.21875 31.78125 74.21875 
z
" id="DejaVuSans-48"/>
       </defs>
       <use xlink:href="#DejaVuSans-48"/>
      </g>
     </g>
    </g>
    <g id="xtick_2">
     <g id="line2d_2">
      <g>
       <use style="stroke:#000000;stroke-width:0.8;" x="343.259504" xlink:href="#me9e3808a82" y="307.584"/>
      </g>
     </g>
     <g id="text_2">
      <!-- 200 -->
      <g transform="translate(333.715754 322.182437)scale(0.1 -0.1)">
       <defs>
        <path d="M 19.1875 8.296875 
L 53.609375 8.296875 
L 53.609375 0 
L 7.328125 0 
L 7.328125 8.296875 
Q 12.9375 14.109375 22.625 23.890625 
Q 32.328125 33.6875 34.8125 36.53125 
Q 39.546875 41.84375 41.421875 45.53125 
Q 43.3125 49.21875 43.3125 52.78125 
Q 43.3125 58.59375 39.234375 62.25 
Q 35.15625 65.921875 28.609375 65.921875 
Q 23.96875 65.921875 18.8125 64.3125 
Q 13.671875 62.703125 7.8125 59.421875 
L 7.8125 69.390625 
Q 13.765625 71.78125 18.9375 73 
Q 24.125 74.21875 28.421875 74.21875 
Q 39.75 74.21875 46.484375 68.546875 
Q 53.21875 62.890625 53.21875 53.421875 
Q 53.21875 48.921875 51.53125 44.890625 
Q 49.859375 40.875 45.40625 35.40625 
Q 44.1875 33.984375 37.640625 27.21875 
Q 31.109375 20.453125 19.1875 8.296875 
z
" id="DejaVuSans-50"/>
       </defs>
       <use xlink:href="#DejaVuSans-50"/>
       <use x="63.623047" xlink:href="#DejaVuSans-48"/>
       <use x="127.246094" xlink:href="#DejaVuSans-48"/>
      </g>
     </g>
    </g>
    <g id="xtick_3">
     <g id="line2d_3">
      <g>
       <use style="stroke:#000000;stroke-width:0.8;" x="501.93719" xlink:href="#me9e3808a82" y="307.584"/>
      </g>
     </g>
     <g id="text_3">
      <!-- 400 -->
      <g transform="translate(492.39344 322.182437)scale(0.1 -0.1)">
       <defs>
        <path d="M 37.796875 64.3125 
L 12.890625 25.390625 
L 37.796875 25.390625 
z
M 35.203125 72.90625 
L 47.609375 72.90625 
L 47.609375 25.390625 
L 58.015625 25.390625 
L 58.015625 17.1875 
L 47.609375 17.1875 
L 47.609375 0 
L 37.796875 0 
L 37.796875 17.1875 
L 4.890625 17.1875 
L 4.890625 26.703125 
z
" id="DejaVuSans-52"/>
       </defs>
       <use xlink:href="#DejaVuSans-52"/>
       <use x="63.623047" xlink:href="#DejaVuSans-48"/>
       <use x="127.246094" xlink:href="#DejaVuSans-48"/>
      </g>
     </g>
    </g>
    <g id="xtick_4">
     <g id="line2d_4">
      <g>
       <use style="stroke:#000000;stroke-width:0.8;" x="660.614876" xlink:href="#me9e3808a82" y="307.584"/>
      </g>
     </g>
     <g id="text_4">
      <!-- 600 -->
      <g transform="translate(651.071126 322.182437)scale(0.1 -0.1)">
       <defs>
        <path d="M 33.015625 40.375 
Q 26.375 40.375 22.484375 35.828125 
Q 18.609375 31.296875 18.609375 23.390625 
Q 18.609375 15.53125 22.484375 10.953125 
Q 26.375 6.390625 33.015625 6.390625 
Q 39.65625 6.390625 43.53125 10.953125 
Q 47.40625 15.53125 47.40625 23.390625 
Q 47.40625 31.296875 43.53125 35.828125 
Q 39.65625 40.375 33.015625 40.375 
z
M 52.59375 71.296875 
L 52.59375 62.3125 
Q 48.875 64.0625 45.09375 64.984375 
Q 41.3125 65.921875 37.59375 65.921875 
Q 27.828125 65.921875 22.671875 59.328125 
Q 17.53125 52.734375 16.796875 39.40625 
Q 19.671875 43.65625 24.015625 45.921875 
Q 28.375 48.1875 33.59375 48.1875 
Q 44.578125 48.1875 50.953125 41.515625 
Q 57.328125 34.859375 57.328125 23.390625 
Q 57.328125 12.15625 50.6875 5.359375 
Q 44.046875 -1.421875 33.015625 -1.421875 
Q 20.359375 -1.421875 13.671875 8.265625 
Q 6.984375 17.96875 6.984375 36.375 
Q 6.984375 53.65625 15.1875 63.9375 
Q 23.390625 74.21875 37.203125 74.21875 
Q 40.921875 74.21875 44.703125 73.484375 
Q 48.484375 72.75 52.59375 71.296875 
z
" id="DejaVuSans-54"/>
       </defs>
       <use xlink:href="#DejaVuSans-54"/>
       <use x="63.623047" xlink:href="#DejaVuSans-48"/>
       <use x="127.246094" xlink:href="#DejaVuSans-48"/>
      </g>
     </g>
    </g>
    <g id="xtick_5">
     <g id="line2d_5">
      <g>
       <use style="stroke:#000000;stroke-width:0.8;" x="819.292562" xlink:href="#me9e3808a82" y="307.584"/>
      </g>
     </g>
     <g id="text_5">
      <!-- 800 -->
      <g transform="translate(809.748812 322.182437)scale(0.1 -0.1)">
       <defs>
        <path d="M 31.78125 34.625 
Q 24.75 34.625 20.71875 30.859375 
Q 16.703125 27.09375 16.703125 20.515625 
Q 16.703125 13.921875 20.71875 10.15625 
Q 24.75 6.390625 31.78125 6.390625 
Q 38.8125 6.390625 42.859375 10.171875 
Q 46.921875 13.96875 46.921875 20.515625 
Q 46.921875 27.09375 42.890625 30.859375 
Q 38.875 34.625 31.78125 34.625 
z
M 21.921875 38.8125 
Q 15.578125 40.375 12.03125 44.71875 
Q 8.5 49.078125 8.5 55.328125 
Q 8.5 64.0625 14.71875 69.140625 
Q 20.953125 74.21875 31.78125 74.21875 
Q 42.671875 74.21875 48.875 69.140625 
Q 55.078125 64.0625 55.078125 55.328125 
Q 55.078125 49.078125 51.53125 44.71875 
Q 48 40.375 41.703125 38.8125 
Q 48.828125 37.15625 52.796875 32.3125 
Q 56.78125 27.484375 56.78125 20.515625 
Q 56.78125 9.90625 50.3125 4.234375 
Q 43.84375 -1.421875 31.78125 -1.421875 
Q 19.734375 -1.421875 13.25 4.234375 
Q 6.78125 9.90625 6.78125 20.515625 
Q 6.78125 27.484375 10.78125 32.3125 
Q 14.796875 37.15625 21.921875 38.8125 
z
M 18.3125 54.390625 
Q 18.3125 48.734375 21.84375 45.5625 
Q 25.390625 42.390625 31.78125 42.390625 
Q 38.140625 42.390625 41.71875 45.5625 
Q 45.3125 48.734375 45.3125 54.390625 
Q 45.3125 60.0625 41.71875 63.234375 
Q 38.140625 66.40625 31.78125 66.40625 
Q 25.390625 66.40625 21.84375 63.234375 
Q 18.3125 60.0625 18.3125 54.390625 
z
" id="DejaVuSans-56"/>
       </defs>
       <use xlink:href="#DejaVuSans-56"/>
       <use x="63.623047" xlink:href="#DejaVuSans-48"/>
       <use x="127.246094" xlink:href="#DejaVuSans-48"/>
      </g>
     </g>
    </g>
    <g id="xtick_6">
     <g id="line2d_6">
      <g>
       <use style="stroke:#000000;stroke-width:0.8;" x="977.970248" xlink:href="#me9e3808a82" y="307.584"/>
      </g>
     </g>
     <g id="text_6">
      <!-- 1000 -->
      <g transform="translate(965.245248 322.182437)scale(0.1 -0.1)">
       <defs>
        <path d="M 12.40625 8.296875 
L 28.515625 8.296875 
L 28.515625 63.921875 
L 10.984375 60.40625 
L 10.984375 69.390625 
L 28.421875 72.90625 
L 38.28125 72.90625 
L 38.28125 8.296875 
L 54.390625 8.296875 
L 54.390625 0 
L 12.40625 0 
z
" id="DejaVuSans-49"/>
       </defs>
       <use xlink:href="#DejaVuSans-49"/>
       <use x="63.623047" xlink:href="#DejaVuSans-48"/>
       <use x="127.246094" xlink:href="#DejaVuSans-48"/>
       <use x="190.869141" xlink:href="#DejaVuSans-48"/>
      </g>
     </g>
    </g>
   </g>
   <g id="matplotlib.axis_2">
    <g id="ytick_1">
     <g id="line2d_7">
      <defs>
       <path d="M 0 0 
L -3.5 0 
" id="me9da8f609a" style="stroke:#000000;stroke-width:0.8;"/>
      </defs>
      <g>
       <use style="stroke:#000000;stroke-width:0.8;" x="144" xlink:href="#me9da8f609a" y="290.287297"/>
      </g>
     </g>
     <g id="text_7">
      <!-- −0.4 -->
      <g transform="translate(112.717187 294.086516)scale(0.1 -0.1)">
       <defs>
        <path d="M 10.59375 35.5 
L 73.1875 35.5 
L 73.1875 27.203125 
L 10.59375 27.203125 
z
" id="DejaVuSans-8722"/>
        <path d="M 10.6875 12.40625 
L 21 12.40625 
L 21 0 
L 10.6875 0 
z
" id="DejaVuSans-46"/>
       </defs>
       <use xlink:href="#DejaVuSans-8722"/>
       <use x="83.789062" xlink:href="#DejaVuSans-48"/>
       <use x="147.412109" xlink:href="#DejaVuSans-46"/>
       <use x="179.199219" xlink:href="#DejaVuSans-52"/>
      </g>
     </g>
    </g>
    <g id="ytick_2">
     <g id="line2d_8">
      <g>
       <use style="stroke:#000000;stroke-width:0.8;" x="144" xlink:href="#me9da8f609a" y="259.209265"/>
      </g>
     </g>
     <g id="text_8">
      <!-- −0.3 -->
      <g transform="translate(112.717187 263.008484)scale(0.1 -0.1)">
       <defs>
        <path d="M 40.578125 39.3125 
Q 47.65625 37.796875 51.625 33 
Q 55.609375 28.21875 55.609375 21.1875 
Q 55.609375 10.40625 48.1875 4.484375 
Q 40.765625 -1.421875 27.09375 -1.421875 
Q 22.515625 -1.421875 17.65625 -0.515625 
Q 12.796875 0.390625 7.625 2.203125 
L 7.625 11.71875 
Q 11.71875 9.328125 16.59375 8.109375 
Q 21.484375 6.890625 26.8125 6.890625 
Q 36.078125 6.890625 40.9375 10.546875 
Q 45.796875 14.203125 45.796875 21.1875 
Q 45.796875 27.640625 41.28125 31.265625 
Q 36.765625 34.90625 28.71875 34.90625 
L 20.21875 34.90625 
L 20.21875 43.015625 
L 29.109375 43.015625 
Q 36.375 43.015625 40.234375 45.921875 
Q 44.09375 48.828125 44.09375 54.296875 
Q 44.09375 59.90625 40.109375 62.90625 
Q 36.140625 65.921875 28.71875 65.921875 
Q 24.65625 65.921875 20.015625 65.03125 
Q 15.375 64.15625 9.8125 62.3125 
L 9.8125 71.09375 
Q 15.4375 72.65625 20.34375 73.4375 
Q 25.25 74.21875 29.59375 74.21875 
Q 40.828125 74.21875 47.359375 69.109375 
Q 53.90625 64.015625 53.90625 55.328125 
Q 53.90625 49.265625 50.4375 45.09375 
Q 46.96875 40.921875 40.578125 39.3125 
z
" id="DejaVuSans-51"/>
       </defs>
       <use xlink:href="#DejaVuSans-8722"/>
       <use x="83.789062" xlink:href="#DejaVuSans-48"/>
       <use x="147.412109" xlink:href="#DejaVuSans-46"/>
       <use x="179.199219" xlink:href="#DejaVuSans-51"/>
      </g>
     </g>
    </g>
    <g id="ytick_3">
     <g id="line2d_9">
      <g>
       <use style="stroke:#000000;stroke-width:0.8;" x="144" xlink:href="#me9da8f609a" y="228.131232"/>
      </g>
     </g>
     <g id="text_9">
      <!-- −0.2 -->
      <g transform="translate(112.717187 231.930451)scale(0.1 -0.1)">
       <use xlink:href="#DejaVuSans-8722"/>
       <use x="83.789062" xlink:href="#DejaVuSans-48"/>
       <use x="147.412109" xlink:href="#DejaVuSans-46"/>
       <use x="179.199219" xlink:href="#DejaVuSans-50"/>
      </g>
     </g>
    </g>
    <g id="ytick_4">
     <g id="line2d_10">
      <g>
       <use style="stroke:#000000;stroke-width:0.8;" x="144" xlink:href="#me9da8f609a" y="197.0532"/>
      </g>
     </g>
     <g id="text_10">
      <!-- −0.1 -->
      <g transform="translate(112.717187 200.852419)scale(0.1 -0.1)">
       <use xlink:href="#DejaVuSans-8722"/>
       <use x="83.789062" xlink:href="#DejaVuSans-48"/>
       <use x="147.412109" xlink:href="#DejaVuSans-46"/>
       <use x="179.199219" xlink:href="#DejaVuSans-49"/>
      </g>
     </g>
    </g>
    <g id="ytick_5">
     <g id="line2d_11">
      <g>
       <use style="stroke:#000000;stroke-width:0.8;" x="144" xlink:href="#me9da8f609a" y="165.975168"/>
      </g>
     </g>
     <g id="text_11">
      <!-- 0.0 -->
      <g transform="translate(121.096875 169.774387)scale(0.1 -0.1)">
       <use xlink:href="#DejaVuSans-48"/>
       <use x="63.623047" xlink:href="#DejaVuSans-46"/>
       <use x="95.410156" xlink:href="#DejaVuSans-48"/>
      </g>
     </g>
    </g>
    <g id="ytick_6">
     <g id="line2d_12">
      <g>
       <use style="stroke:#000000;stroke-width:0.8;" x="144" xlink:href="#me9da8f609a" y="134.897135"/>
      </g>
     </g>
     <g id="text_12">
      <!-- 0.1 -->
      <g transform="translate(121.096875 138.696354)scale(0.1 -0.1)">
       <use xlink:href="#DejaVuSans-48"/>
       <use x="63.623047" xlink:href="#DejaVuSans-46"/>
       <use x="95.410156" xlink:href="#DejaVuSans-49"/>
      </g>
     </g>
    </g>
    <g id="ytick_7">
     <g id="line2d_13">
      <g>
       <use style="stroke:#000000;stroke-width:0.8;" x="144" xlink:href="#me9da8f609a" y="103.819103"/>
      </g>
     </g>
     <g id="text_13">
      <!-- 0.2 -->
      <g transform="translate(121.096875 107.618322)scale(0.1 -0.1)">
       <use xlink:href="#DejaVuSans-48"/>
       <use x="63.623047" xlink:href="#DejaVuSans-46"/>
       <use x="95.410156" xlink:href="#DejaVuSans-50"/>
      </g>
     </g>
    </g>
    <g id="ytick_8">
     <g id="line2d_14">
      <g>
       <use style="stroke:#000000;stroke-width:0.8;" x="144" xlink:href="#me9da8f609a" y="72.741071"/>
      </g>
     </g>
     <g id="text_14">
      <!-- 0.3 -->
      <g transform="translate(121.096875 76.54029)scale(0.1 -0.1)">
       <use xlink:href="#DejaVuSans-48"/>
       <use x="63.623047" xlink:href="#DejaVuSans-46"/>
       <use x="95.410156" xlink:href="#DejaVuSans-51"/>
      </g>
     </g>
    </g>
    <g id="ytick_9">
     <g id="line2d_15">
      <g>
       <use style="stroke:#000000;stroke-width:0.8;" x="144" xlink:href="#me9da8f609a" y="41.663038"/>
      </g>
     </g>
     <g id="text_15">
      <!-- 0.4 -->
      <g transform="translate(121.096875 45.462257)scale(0.1 -0.1)">
       <use xlink:href="#DejaVuSans-48"/>
       <use x="63.623047" xlink:href="#DejaVuSans-46"/>
       <use x="95.410156" xlink:href="#DejaVuSans-52"/>
      </g>
     </g>
    </g>
   </g>
   <g id="line2d_16">
    <path clip-path="url(#p78fd96e713)" d="M 184.581818 122.278428 
L 185.375207 103.045445 
L 186.168595 94.207575 
L 186.961983 94.332839 
L 187.755372 98.257355 
L 188.54876 113.946331 
L 189.342149 137.515394 
L 190.135537 153.031752 
L 190.928926 164.742891 
L 191.722314 171.030183 
L 192.515702 171.121616 
L 193.309091 163.050751 
L 194.102479 142.396769 
L 194.895868 140.392654 
L 195.689256 163.331212 
L 196.482645 182.710278 
L 197.276033 176.063717 
L 198.069421 164.005949 
L 199.656198 200.123853 
L 200.449587 186.968563 
L 201.242975 153.461717 
L 202.036364 125.577858 
L 202.829752 138.731711 
L 203.62314 159.296872 
L 205.209917 189.090108 
L 206.796694 235.104107 
L 207.590083 229.160378 
L 208.383471 212.084481 
L 209.17686 201.294062 
L 209.970248 203.377951 
L 210.763636 193.934001 
L 211.557025 189.313202 
L 212.350413 203.540513 
L 213.143802 219.82176 
L 213.93719 231.687123 
L 215.523967 198.500852 
L 216.317355 195.653165 
L 217.110744 188.657458 
L 217.904132 180.581617 
L 218.697521 179.472934 
L 219.490909 194.67774 
L 221.077686 230.94316 
L 221.871074 215.913169 
L 222.664463 210.183646 
L 223.457851 227.153007 
L 224.25124 227.757036 
L 225.044628 227.075521 
L 225.838017 228.118271 
L 226.631405 239.512427 
L 227.424793 241.928178 
L 228.218182 229.220655 
L 229.01157 225.203088 
L 229.804959 234.257761 
L 230.598347 234.196114 
L 232.185124 169.776226 
L 232.978512 165.721141 
L 233.771901 193.981277 
L 234.565289 217.609402 
L 235.358678 219.590233 
L 236.152066 210.582319 
L 236.945455 205.324605 
L 237.738843 209.189841 
L 238.532231 208.077005 
L 239.32562 196.236936 
L 240.119008 197.924444 
L 240.912397 200.594325 
L 241.705785 189.315547 
L 242.499174 173.351474 
L 243.292562 165.566945 
L 244.879339 159.323204 
L 246.466116 133.509142 
L 247.259504 139.222285 
L 248.846281 157.490218 
L 249.639669 165.180407 
L 250.433058 174.252144 
L 251.226446 181.731042 
L 252.019835 174.216727 
L 253.606612 141.433825 
L 254.4 130.414135 
L 255.193388 129.513605 
L 255.986777 132.300712 
L 256.780165 145.020092 
L 257.573554 166.317851 
L 258.366942 174.570955 
L 259.160331 172.557753 
L 259.953719 166.970324 
L 260.747107 162.630837 
L 261.540496 159.264325 
L 262.333884 157.404977 
L 263.127273 158.550921 
L 264.71405 204.655261 
L 265.507438 213.943911 
L 267.094215 163.747271 
L 267.887603 182.88849 
L 268.680992 209.536577 
L 269.47438 219.949209 
L 270.267769 207.518091 
L 271.061157 201.150942 
L 272.647934 238.393127 
L 273.441322 247.278835 
L 274.234711 241.565752 
L 275.028099 238.530426 
L 275.821488 221.500025 
L 276.614876 201.288968 
L 277.408264 199.61042 
L 278.201653 216.025855 
L 278.995041 238.948494 
L 279.78843 250.897637 
L 280.581818 264.976136 
L 281.375207 283.780937 
L 282.168595 295.488 
L 282.961983 289.968733 
L 283.755372 251.241441 
L 284.54876 226.196272 
L 285.342149 223.873202 
L 286.135537 222.273863 
L 286.928926 200.341922 
L 287.722314 192.590239 
L 288.515702 203.74316 
L 289.309091 225.879295 
L 290.102479 233.354455 
L 290.895868 214.50395 
L 291.689256 202.981124 
L 292.482645 189.563671 
L 293.276033 186.33763 
L 294.069421 203.599792 
L 294.86281 232.219918 
L 295.656198 255.075093 
L 296.449587 245.461709 
L 297.242975 231.404341 
L 298.036364 226.649739 
L 298.829752 233.915457 
L 299.62314 227.865929 
L 300.416529 183.897409 
L 301.209917 148.395474 
L 302.003306 147.028197 
L 302.796694 172.096495 
L 303.590083 183.281014 
L 305.17686 158.729807 
L 305.970248 160.150057 
L 306.763636 151.422156 
L 307.557025 137.705709 
L 308.350413 135.951877 
L 309.143802 144.547453 
L 309.93719 148.872219 
L 310.730579 134.13716 
L 311.523967 116.006195 
L 312.317355 122.638561 
L 313.110744 133.134398 
L 313.904132 130.913066 
L 314.697521 121.98574 
L 315.490909 116.803577 
L 316.284298 128.756642 
L 317.077686 132.273928 
L 317.871074 118.294917 
L 318.664463 111.96601 
L 319.457851 117.34467 
L 320.25124 114.977828 
L 321.838017 68.621628 
L 322.631405 65.750841 
L 323.424793 72.533534 
L 324.218182 82.777797 
L 325.01157 88.859567 
L 325.804959 93.676711 
L 326.598347 102.206676 
L 327.391736 102.850605 
L 328.185124 95.590365 
L 328.978512 104.662072 
L 329.771901 119.386014 
L 330.565289 126.835268 
L 331.358678 124.410641 
L 332.152066 138.863951 
L 332.945455 164.002606 
L 333.738843 157.882789 
L 335.32562 112.374852 
L 336.119008 120.261257 
L 336.912397 147.097577 
L 337.705785 145.777124 
L 338.499174 131.781022 
L 339.292562 127.558008 
L 340.08595 146.383404 
L 340.879339 170.979301 
L 341.672727 167.885955 
L 342.466116 150.946294 
L 343.259504 145.692032 
L 344.052893 159.18889 
L 344.846281 155.759543 
L 345.639669 153.729427 
L 346.433058 169.445796 
L 347.226446 192.723931 
L 348.019835 207.380815 
L 348.813223 210.906548 
L 349.606612 221.012868 
L 350.4 222.119188 
L 351.193388 208.823224 
L 351.986777 183.230236 
L 352.780165 166.420179 
L 353.573554 179.812113 
L 354.366942 183.451837 
L 355.160331 168.90037 
L 355.953719 151.05823 
L 357.540496 217.070981 
L 358.333884 216.805606 
L 359.127273 207.093953 
L 359.920661 204.795774 
L 360.71405 218.241435 
L 361.507438 222.200184 
L 362.300826 205.423292 
L 363.094215 208.042699 
L 363.887603 217.997539 
L 364.680992 222.704883 
L 365.47438 208.708445 
L 366.267769 199.089763 
L 367.061157 199.150897 
L 367.854545 193.953609 
L 368.647934 167.698014 
L 369.441322 154.859968 
L 371.028099 201.906316 
L 371.821488 200.582046 
L 372.614876 172.58455 
L 373.408264 151.697392 
L 374.201653 156.38329 
L 374.995041 152.976558 
L 375.78843 121.252645 
L 376.581818 99.868958 
L 377.375207 107.698731 
L 378.168595 112.739547 
L 379.755372 92.772891 
L 380.54876 95.960362 
L 381.342149 116.953482 
L 382.135537 113.726396 
L 382.928926 95.140576 
L 383.722314 98.832797 
L 384.515702 122.904889 
L 385.309091 134.652392 
L 386.102479 117.584079 
L 386.895868 89.819895 
L 387.689256 92.920054 
L 388.482645 107.396077 
L 389.276033 99.424489 
L 390.069421 78.61478 
L 390.86281 87.921991 
L 391.656198 105.897545 
L 392.449587 102.196474 
L 393.242975 93.30368 
L 394.036364 101.162328 
L 394.829752 104.90637 
L 395.62314 109.587002 
L 396.416529 100.179544 
L 397.209917 105.607659 
L 398.003306 124.344746 
L 398.796694 118.250561 
L 399.590083 102.598717 
L 400.383471 108.208602 
L 401.17686 154.549081 
L 401.970248 176.454064 
L 402.763636 147.479112 
L 403.557025 137.102386 
L 404.350413 156.809271 
L 405.143802 196.1811 
L 405.93719 191.911153 
L 406.730579 164.433697 
L 407.523967 156.738356 
L 408.317355 167.549283 
L 409.110744 169.917417 
L 409.904132 136.823887 
L 410.697521 128.078272 
L 411.490909 141.270879 
L 412.284298 149.401303 
L 413.871074 108.179649 
L 414.664463 133.544289 
L 415.457851 166.148872 
L 416.25124 176.959458 
L 417.044628 155.359685 
L 417.838017 151.565757 
L 418.631405 171.509361 
L 419.424793 183.546976 
L 420.218182 178.760683 
L 421.01157 189.033191 
L 421.804959 234.696071 
L 422.598347 244.662521 
L 423.391736 221.054214 
L 424.185124 188.583036 
L 424.978512 180.327802 
L 425.771901 195.237312 
L 426.565289 161.568237 
L 427.358678 135.600689 
L 428.152066 138.182221 
L 428.945455 150.897803 
L 429.738843 166.662793 
L 430.532231 176.951845 
L 431.32562 198.204971 
L 432.119008 209.950212 
L 432.912397 200.013594 
L 433.705785 184.569827 
L 434.499174 193.919282 
L 435.292562 222.071234 
L 436.08595 207.34498 
L 436.879339 162.682764 
L 437.672727 146.939335 
L 438.466116 191.928638 
L 439.259504 224.067843 
L 440.052893 195.340437 
L 440.846281 156.545009 
L 441.639669 144.815171 
L 442.433058 158.827697 
L 443.226446 157.817039 
L 444.019835 135.998488 
L 444.813223 135.438178 
L 445.606612 152.688402 
L 446.4 155.250959 
L 447.193388 121.207752 
L 447.986777 106.310393 
L 448.780165 119.267128 
L 449.573554 129.528179 
L 450.366942 115.622573 
L 451.160331 95.225462 
L 451.953719 110.484816 
L 452.747107 140.427877 
L 453.540496 132.611127 
L 454.333884 103.697099 
L 455.127273 98.6021 
L 455.920661 129.56568 
L 456.71405 140.336598 
L 457.507438 126.948376 
L 458.300826 119.92841 
L 459.094215 135.198045 
L 459.887603 145.394531 
L 460.680992 134.442393 
L 461.47438 119.533252 
L 462.267769 131.278104 
L 463.061157 146.481356 
L 463.854545 127.119208 
L 464.647934 111.179696 
L 465.441322 120.459746 
L 466.234711 139.865858 
L 467.028099 139.693724 
L 467.821488 128.025919 
L 468.614876 148.487367 
L 469.408264 165.468496 
L 470.201653 150.245553 
L 470.995041 121.720722 
L 471.78843 130.302783 
L 472.581818 179.335417 
L 473.375207 198.61822 
L 474.168595 185.960015 
L 474.961983 157.587569 
L 475.755372 167.941634 
L 476.54876 185.949604 
L 477.342149 174.576264 
L 478.135537 151.424064 
L 478.928926 148.180587 
L 479.722314 176.782293 
L 480.515702 178.915903 
L 481.309091 155.061603 
L 482.102479 156.717024 
L 482.895868 185.963939 
L 483.689256 199.151816 
L 484.482645 161.220383 
L 485.276033 144.829038 
L 486.86281 194.643621 
L 488.449587 142.853137 
L 489.242975 164.400812 
L 490.036364 217.267385 
L 490.829752 242.503513 
L 491.62314 222.277883 
L 492.416529 217.928737 
L 493.209917 230.985195 
L 494.003306 215.659585 
L 494.796694 195.884381 
L 495.590083 189.018173 
L 496.383471 211.770658 
L 497.17686 219.039169 
L 497.970248 199.302784 
L 498.763636 195.31665 
L 499.557025 217.311009 
L 500.350413 229.008051 
L 501.143802 214.067929 
L 501.93719 213.890678 
L 502.730579 248.377249 
L 503.523967 266.743784 
L 505.110744 210.63608 
L 505.904132 234.290387 
L 506.697521 276.910848 
L 507.490909 260.722249 
L 508.284298 200.321208 
L 509.077686 162.804541 
L 509.871074 184.684385 
L 510.664463 202.907158 
L 511.457851 181.364998 
L 512.25124 169.295344 
L 513.838017 217.117939 
L 514.631405 195.448482 
L 515.424793 164.085359 
L 516.218182 167.321903 
L 517.01157 197.269859 
L 517.804959 193.070289 
L 518.598347 161.359427 
L 519.391736 165.99569 
L 520.185124 190.88196 
L 520.978512 194.366704 
L 521.771901 164.04469 
L 522.565289 153.816409 
L 523.358678 179.13177 
L 524.152066 192.395615 
L 524.945455 177.601878 
L 525.738843 157.748041 
L 527.32562 207.927609 
L 528.119008 198.330932 
L 528.912397 176.038333 
L 530.499174 208.59957 
L 531.292562 196.162358 
L 532.08595 163.789852 
L 532.879339 162.091674 
L 533.672727 201.286535 
L 534.466116 223.027783 
L 535.259504 222.435095 
L 536.052893 241.848186 
L 536.846281 264.669388 
L 537.639669 252.61878 
L 538.433058 187.816462 
L 539.226446 160.87566 
L 540.813223 194.37028 
L 541.606612 179.082536 
L 542.4 149.570587 
L 543.193388 163.195496 
L 543.986777 186.522941 
L 544.780165 189.226486 
L 545.573554 185.545851 
L 546.366942 208.753805 
L 547.160331 262.792051 
L 547.953719 268.38571 
L 549.540496 209.006194 
L 550.333884 227.408799 
L 551.127273 241.141776 
L 551.920661 196.378688 
L 552.71405 161.595014 
L 553.507438 165.623906 
L 554.300826 178.6477 
L 555.094215 168.144171 
L 555.887603 160.759415 
L 556.680992 177.958001 
L 557.47438 208.716563 
L 558.267769 193.246827 
L 559.061157 140.964356 
L 559.854545 141.119673 
L 560.647934 173.306142 
L 561.441322 185.237367 
L 562.234711 170.49403 
L 563.028099 163.540432 
L 563.821488 195.794595 
L 564.614876 211.260073 
L 565.408264 200.585141 
L 566.201653 192.279166 
L 566.995041 215.216293 
L 567.78843 228.038174 
L 568.581818 210.899856 
L 569.375207 198.125721 
L 570.168595 210.804717 
L 570.961983 221.442012 
L 572.54876 150.132119 
L 573.342149 166.701715 
L 574.135537 193.204229 
L 574.928926 179.915664 
L 575.722314 126.318487 
L 576.515702 103.994209 
L 578.102479 162.141286 
L 578.895868 156.593312 
L 579.689256 146.833334 
L 581.276033 200.147884 
L 582.069421 183.728656 
L 582.86281 149.999076 
L 583.656198 155.508204 
L 584.449587 180.870013 
L 585.242975 168.804677 
L 586.036364 139.677456 
L 586.829752 136.876241 
L 587.62314 158.846295 
L 588.416529 163.976229 
L 589.209917 128.914024 
L 590.003306 118.10287 
L 590.796694 141.686804 
L 591.590083 155.613314 
L 592.383471 134.215217 
L 593.17686 116.810435 
L 593.970248 131.736775 
L 594.763636 155.4617 
L 595.557025 140.919387 
L 596.350413 116.75547 
L 597.93719 153.600387 
L 598.730579 147.429282 
L 599.523967 128.40471 
L 600.317355 140.81362 
L 601.110744 170.276996 
L 601.904132 170.05663 
L 602.697521 165.642743 
L 603.490909 170.977621 
L 604.284298 194.228212 
L 605.077686 178.070412 
L 605.871074 134.326289 
L 606.664463 132.134024 
L 608.25124 181.310337 
L 609.838017 102.751002 
L 610.631405 112.495438 
L 611.424793 148.327693 
L 612.218182 157.078433 
L 613.01157 133.432238 
L 613.804959 147.55903 
L 614.598347 182.690074 
L 615.391736 191.01957 
L 616.185124 172.044776 
L 616.978512 163.617048 
L 617.771901 193.87148 
L 618.565289 184.574147 
L 619.358678 144.488434 
L 620.152066 122.612155 
L 620.945455 127.138563 
L 621.738843 140.122241 
L 623.32562 132.524879 
L 624.119008 159.5745 
L 624.912397 200.252373 
L 625.705785 185.904957 
L 626.499174 142.860412 
L 627.292562 137.830581 
L 628.08595 153.246117 
L 628.879339 157.46561 
L 629.672727 130.704209 
L 630.466116 127.605578 
L 631.259504 157.674983 
L 632.052893 169.927891 
L 632.846281 153.881538 
L 633.639669 140.510369 
L 635.226446 183.586015 
L 636.019835 181.617679 
L 636.813223 175.235121 
L 637.606612 193.364188 
L 638.4 189.430572 
L 639.193388 153.48905 
L 639.986777 137.194239 
L 641.573554 165.257683 
L 642.366942 130.605812 
L 643.160331 72.674798 
L 643.953719 59.353789 
L 644.747107 88.641401 
L 645.540496 106.639346 
L 646.333884 93.499516 
L 647.127273 92.638397 
L 647.920661 122.819146 
L 648.71405 146.552261 
L 649.507438 124.644015 
L 650.300826 90.811445 
L 651.094215 108.992471 
L 651.887603 136.092953 
L 652.680992 120.795048 
L 653.47438 87.432792 
L 654.267769 95.786043 
L 655.061157 136.776255 
L 655.854545 137.561926 
L 656.647934 110.003031 
L 657.441322 109.357351 
L 658.234711 137.064926 
L 659.028099 159.411791 
L 659.821488 140.122994 
L 660.614876 138.859445 
L 661.408264 174.023089 
L 662.201653 186.421347 
L 663.78843 129.905542 
L 664.581818 144.592281 
L 665.375207 145.192272 
L 666.168595 113.236628 
L 666.961983 86.31276 
L 667.755372 114.875076 
L 668.54876 167.425501 
L 669.342149 192.007529 
L 670.135537 202.497971 
L 671.722314 228.039063 
L 673.309091 181.569872 
L 674.102479 206.597192 
L 674.895868 241.897215 
L 675.689256 241.512431 
L 676.482645 173.172113 
L 677.276033 142.176696 
L 678.86281 191.614527 
L 679.656198 184.96954 
L 680.449587 152.923044 
L 681.242975 166.019347 
L 682.036364 192.95953 
L 682.829752 175.721673 
L 683.62314 155.401752 
L 684.416529 160.7343 
L 685.209917 195.524764 
L 686.003306 180.255625 
L 686.796694 145.718575 
L 687.590083 151.965821 
L 688.383471 195.158251 
L 689.17686 200.251194 
L 690.763636 150.430371 
L 691.557025 161.67872 
L 692.350413 181.035425 
L 693.143802 151.609211 
L 693.93719 138.403263 
L 694.730579 163.615159 
L 695.523967 183.21064 
L 696.317355 178.479357 
L 697.110744 153.000013 
L 697.904132 156.661386 
L 698.697521 175.907769 
L 699.490909 165.236274 
L 700.284298 144.58464 
L 701.077686 141.279921 
L 701.871074 158.786079 
L 703.457851 143.483063 
L 705.044628 177.956304 
L 705.838017 163.008995 
L 706.631405 138.204357 
L 707.424793 136.703021 
L 708.218182 158.803268 
L 709.01157 160.589999 
L 709.804959 112.864426 
L 710.598347 74.194308 
L 711.391736 89.433268 
L 712.185124 119.559714 
L 712.978512 115.419059 
L 713.771901 95.719148 
L 714.565289 107.546112 
L 715.358678 132.509856 
L 716.152066 127.358024 
L 716.945455 91.190357 
L 717.738843 79.494955 
L 718.532231 108.746015 
L 719.32562 118.180953 
L 720.119008 88.076953 
L 720.912397 80.194586 
L 721.705785 108.617542 
L 722.499174 122.393072 
L 723.292562 104.694442 
L 724.08595 92.876393 
L 725.672727 141.870909 
L 726.466116 137.063692 
L 727.259504 129.384891 
L 728.052893 149.002701 
L 728.846281 176.283925 
L 729.639669 170.611694 
L 730.433058 144.222379 
L 731.226446 140.501867 
L 732.019835 154.343164 
L 732.813223 149.063128 
L 733.606612 131.439628 
L 734.4 128.2213 
L 735.193388 167.065415 
L 735.986777 187.301896 
L 736.780165 182.256835 
L 737.573554 196.236102 
L 738.366942 208.102388 
L 739.160331 205.403513 
L 739.953719 191.638032 
L 740.747107 197.378331 
L 741.540496 230.181256 
L 742.333884 224.41299 
L 743.127273 197.89761 
L 743.920661 167.217755 
L 744.71405 188.107598 
L 745.507438 215.227676 
L 746.300826 206.468121 
L 747.094215 190.030597 
L 747.887603 196.160295 
L 748.680992 222.423865 
L 749.47438 222.02999 
L 750.267769 196.181693 
L 751.061157 196.778412 
L 751.854545 216.290215 
L 752.647934 226.876217 
L 753.441322 189.520561 
L 754.234711 164.98532 
L 755.028099 188.27744 
L 755.821488 215.240986 
L 756.614876 207.293132 
L 757.408264 218.091326 
L 758.201653 240.154167 
L 758.995041 241.239272 
L 759.78843 225.833791 
L 760.581818 193.012224 
L 761.375207 199.327388 
L 762.168595 218.099454 
L 762.961983 201.503357 
L 763.755372 189.378184 
L 764.54876 195.555127 
L 765.342149 207.548262 
L 766.135537 209.624565 
L 766.928926 202.053674 
L 767.722314 206.255939 
L 769.309091 247.282928 
L 770.102479 241.111679 
L 770.895868 232.644288 
L 771.689256 229.765569 
L 772.482645 215.908052 
L 773.276033 193.05133 
L 774.069421 189.536364 
L 774.86281 199.661804 
L 775.656198 182.112475 
L 776.449587 132.330973 
L 777.242975 103.380441 
L 778.036364 115.037591 
L 778.829752 140.704757 
L 779.62314 141.818181 
L 780.416529 138.368058 
L 781.209917 155.165297 
L 782.003306 184.036536 
L 782.796694 165.485223 
L 783.590083 131.775995 
L 784.383471 125.501664 
L 785.17686 139.915996 
L 785.970248 142.920564 
L 786.763636 119.287203 
L 787.557025 101.954773 
L 788.350413 130.785767 
L 789.143802 141.521369 
L 789.93719 127.245669 
L 790.730579 119.555166 
L 791.523967 145.805311 
L 792.317355 177.091061 
L 793.904132 155.736605 
L 795.490909 190.858868 
L 796.284298 177.343671 
L 797.077686 142.914426 
L 798.664463 113.837952 
L 799.457851 111.739453 
L 800.25124 127.208255 
L 801.838017 203.843391 
L 802.631405 226.768111 
L 803.424793 243.434249 
L 804.218182 264.847172 
L 805.01157 282.575306 
L 805.804959 268.517424 
L 806.598347 244.276084 
L 807.391736 238.048243 
L 808.185124 252.824554 
L 808.978512 251.874414 
L 809.771901 205.104884 
L 810.565289 185.188966 
L 811.358678 209.476272 
L 812.152066 223.007546 
L 812.945455 223.641347 
L 813.738843 209.296293 
L 815.32562 262.218123 
L 816.119008 250.526398 
L 816.912397 217.705491 
L 817.705785 210.47394 
L 818.499174 243.341879 
L 819.292562 249.427854 
L 820.08595 226.531866 
L 820.879339 224.231145 
L 821.672727 249.476794 
L 822.466116 264.783422 
L 823.259504 232.07991 
L 824.052893 205.507404 
L 824.846281 220.352512 
L 825.639669 240.091162 
L 826.433058 211.918169 
L 827.226446 197.358017 
L 828.019835 213.212442 
L 828.813223 218.373872 
L 829.606612 202.664089 
L 830.4 184.493074 
L 831.193388 192.432987 
L 831.986777 204.162193 
L 833.573554 175.176255 
L 834.366942 189.249921 
L 835.160331 218.097277 
L 835.953719 227.366278 
L 836.747107 222.856186 
L 837.540496 228.442839 
L 838.333884 221.514265 
L 839.920661 198.626657 
L 840.71405 192.893455 
L 841.507438 202.068465 
L 842.300826 178.188037 
L 843.094215 129.417401 
L 843.887603 104.995989 
L 844.680992 126.27484 
L 845.47438 144.144171 
L 846.267769 121.118587 
L 847.061157 109.845745 
L 847.854545 137.706081 
L 848.647934 160.627563 
L 849.441322 142.02937 
L 850.234711 111.593192 
L 851.028099 109.483458 
L 851.821488 133.46352 
L 852.614876 123.272965 
L 853.408264 93.506374 
L 854.201653 94.147229 
L 854.995041 115.66082 
L 855.78843 114.3992 
L 856.581818 95.459141 
L 857.375207 92.623379 
L 858.168595 109.684665 
L 858.961983 115.181485 
L 859.755372 100.35171 
L 860.54876 90.636181 
L 861.342149 108.178506 
L 862.135537 120.903473 
L 862.928926 99.190189 
L 863.722314 88.52163 
L 864.515702 108.044008 
L 865.309091 120.046616 
L 866.102479 95.630798 
L 866.895868 78.156488 
L 868.482645 132.006412 
L 869.276033 139.003214 
L 870.069421 132.662778 
L 870.86281 151.143708 
L 871.656198 156.703576 
L 872.449587 133.313738 
L 873.242975 127.545729 
L 874.036364 140.892608 
L 874.829752 163.164476 
L 875.62314 149.992249 
L 876.416529 115.866251 
L 877.209917 112.32781 
L 878.796694 175.235015 
L 879.590083 151.991349 
L 880.383471 146.813007 
L 881.17686 171.578588 
L 881.970248 187.887117 
L 882.763636 169.710292 
L 883.557025 140.653365 
L 884.350413 148.515008 
L 885.143802 175.227702 
L 885.93719 172.771582 
L 886.730579 143.606798 
L 887.523967 137.787712 
L 888.317355 159.245699 
L 889.110744 173.619526 
L 889.904132 179.423929 
L 890.697521 200.618973 
L 891.490909 217.281246 
L 893.077686 197.359962 
L 893.871074 192.72071 
L 894.664463 196.405154 
L 895.457851 205.585872 
L 896.25124 182.10894 
L 897.044628 167.934491 
L 897.838017 184.584648 
L 898.631405 194.275495 
L 899.424793 186.699458 
L 900.218182 186.194347 
L 901.01157 200.60301 
L 901.804959 227.400227 
L 902.598347 229.497449 
L 903.391736 218.659493 
L 904.185124 217.179661 
L 904.978512 211.594449 
L 905.771901 192.10687 
L 906.565289 187.960418 
L 907.358678 206.324519 
L 908.152066 198.519617 
L 908.945455 149.50174 
L 909.738843 107.360062 
L 910.532231 99.832915 
L 911.32562 121.74924 
L 912.119008 127.630826 
L 912.912397 110.874065 
L 913.705785 103.028134 
L 914.499174 127.77371 
L 915.292562 137.936707 
L 916.08595 110.285781 
L 916.879339 89.915571 
L 917.672727 110.636328 
L 918.466116 123.561605 
L 919.259504 105.386145 
L 920.052893 83.361422 
L 920.846281 86.067105 
L 921.639669 102.058359 
L 922.433058 95.549825 
L 923.226446 76.809353 
L 924.019835 95.025102 
L 924.813223 121.075982 
L 925.606612 120.292526 
L 926.4 98.352573 
L 927.193388 100.525998 
L 927.986777 119.30444 
L 928.780165 105.498511 
L 929.573554 81.569906 
L 930.366942 72.748171 
L 931.160331 81.92765 
L 931.953719 73.265915 
L 932.747107 53.568 
L 933.540496 77.119092 
L 934.333884 118.415846 
L 935.127273 146.499771 
L 935.920661 170.497798 
L 936.71405 189.027653 
L 937.507438 190.845132 
L 938.300826 184.645614 
L 939.887603 153.351903 
L 940.680992 177.928578 
L 941.47438 192.295275 
L 943.061157 119.95011 
L 943.854545 116.357001 
L 944.647934 142.234282 
L 945.441322 149.64599 
L 946.234711 145.608376 
L 947.028099 160.936021 
L 947.821488 182.775223 
L 948.614876 194.912087 
L 949.408264 168.911383 
L 950.201653 171.203214 
L 950.995041 202.736895 
L 951.78843 212.762773 
L 952.581818 204.55098 
L 953.375207 208.391018 
L 954.168595 245.227539 
L 954.961983 244.151103 
L 955.755372 204.954872 
L 956.54876 180.637407 
L 957.342149 164.23463 
L 958.135537 177.51052 
L 958.928926 160.630034 
L 959.722314 133.301649 
L 960.515702 162.012718 
L 961.309091 204.559156 
L 962.895868 169.694876 
L 963.689256 178.370222 
L 964.482645 172.970423 
L 965.276033 181.853611 
L 966.069421 180.954852 
L 966.86281 193.371364 
L 967.656198 215.465737 
L 968.449587 209.620624 
L 969.242975 195.171345 
L 970.829752 181.179469 
L 971.62314 157.168593 
L 972.416529 151.256251 
L 973.209917 165.184674 
L 974.003306 167.926375 
L 974.796694 161.529907 
L 975.590083 124.410845 
L 976.383471 106.813337 
L 977.17686 149.174964 
L 977.970248 169.691211 
L 978.763636 144.633363 
L 979.557025 124.332678 
L 980.350413 122.438386 
L 981.143802 137.344962 
L 981.93719 121.973269 
L 982.730579 93.97942 
L 983.523967 97.175399 
L 984.317355 120.156301 
L 985.110744 129.525465 
L 985.904132 107.577167 
L 986.697521 90.97365 
L 987.490909 111.473171 
L 988.284298 114.909702 
L 989.077686 108.479311 
L 990.664463 156.578319 
L 991.457851 165.025614 
L 992.25124 155.920015 
L 993.044628 149.905198 
L 993.838017 158.480241 
L 994.631405 161.308023 
L 995.424793 154.708813 
L 996.218182 157.542972 
L 996.218182 157.542972 
" style="fill:none;stroke:#1f77b4;stroke-linecap:square;stroke-width:1.5;"/>
   </g>
   <g id="patch_3">
    <path d="M 144 307.584 
L 144 41.472 
" style="fill:none;stroke:#000000;stroke-linecap:square;stroke-linejoin:miter;stroke-width:0.8;"/>
   </g>
   <g id="patch_4">
    <path d="M 1036.8 307.584 
L 1036.8 41.472 
" style="fill:none;stroke:#000000;stroke-linecap:square;stroke-linejoin:miter;stroke-width:0.8;"/>
   </g>
   <g id="patch_5">
    <path d="M 144 307.584 
L 1036.8 307.584 
" style="fill:none;stroke:#000000;stroke-linecap:square;stroke-linejoin:miter;stroke-width:0.8;"/>
   </g>
   <g id="patch_6">
    <path d="M 144 41.472 
L 1036.8 41.472 
" style="fill:none;stroke:#000000;stroke-linecap:square;stroke-linejoin:miter;stroke-width:0.8;"/>
   </g>
   <g id="text_16">
    <!-- Original -->
    <g transform="translate(566.92125 35.472)scale(0.12 -0.12)">
     <defs>
      <path d="M 39.40625 66.21875 
Q 28.65625 66.21875 22.328125 58.203125 
Q 16.015625 50.203125 16.015625 36.375 
Q 16.015625 22.609375 22.328125 14.59375 
Q 28.65625 6.59375 39.40625 6.59375 
Q 50.140625 6.59375 56.421875 14.59375 
Q 62.703125 22.609375 62.703125 36.375 
Q 62.703125 50.203125 56.421875 58.203125 
Q 50.140625 66.21875 39.40625 66.21875 
z
M 39.40625 74.21875 
Q 54.734375 74.21875 63.90625 63.9375 
Q 73.09375 53.65625 73.09375 36.375 
Q 73.09375 19.140625 63.90625 8.859375 
Q 54.734375 -1.421875 39.40625 -1.421875 
Q 24.03125 -1.421875 14.8125 8.828125 
Q 5.609375 19.09375 5.609375 36.375 
Q 5.609375 53.65625 14.8125 63.9375 
Q 24.03125 74.21875 39.40625 74.21875 
z
" id="DejaVuSans-79"/>
      <path d="M 41.109375 46.296875 
Q 39.59375 47.171875 37.8125 47.578125 
Q 36.03125 48 33.890625 48 
Q 26.265625 48 22.1875 43.046875 
Q 18.109375 38.09375 18.109375 28.8125 
L 18.109375 0 
L 9.078125 0 
L 9.078125 54.6875 
L 18.109375 54.6875 
L 18.109375 46.1875 
Q 20.953125 51.171875 25.484375 53.578125 
Q 30.03125 56 36.53125 56 
Q 37.453125 56 38.578125 55.875 
Q 39.703125 55.765625 41.0625 55.515625 
z
" id="DejaVuSans-114"/>
      <path d="M 9.421875 54.6875 
L 18.40625 54.6875 
L 18.40625 0 
L 9.421875 0 
z
M 9.421875 75.984375 
L 18.40625 75.984375 
L 18.40625 64.59375 
L 9.421875 64.59375 
z
" id="DejaVuSans-105"/>
      <path d="M 45.40625 27.984375 
Q 45.40625 37.75 41.375 43.109375 
Q 37.359375 48.484375 30.078125 48.484375 
Q 22.859375 48.484375 18.828125 43.109375 
Q 14.796875 37.75 14.796875 27.984375 
Q 14.796875 18.265625 18.828125 12.890625 
Q 22.859375 7.515625 30.078125 7.515625 
Q 37.359375 7.515625 41.375 12.890625 
Q 45.40625 18.265625 45.40625 27.984375 
z
M 54.390625 6.78125 
Q 54.390625 -7.171875 48.1875 -13.984375 
Q 42 -20.796875 29.203125 -20.796875 
Q 24.46875 -20.796875 20.265625 -20.09375 
Q 16.0625 -19.390625 12.109375 -17.921875 
L 12.109375 -9.1875 
Q 16.0625 -11.328125 19.921875 -12.34375 
Q 23.78125 -13.375 27.78125 -13.375 
Q 36.625 -13.375 41.015625 -8.765625 
Q 45.40625 -4.15625 45.40625 5.171875 
L 45.40625 9.625 
Q 42.625 4.78125 38.28125 2.390625 
Q 33.9375 0 27.875 0 
Q 17.828125 0 11.671875 7.65625 
Q 5.515625 15.328125 5.515625 27.984375 
Q 5.515625 40.671875 11.671875 48.328125 
Q 17.828125 56 27.875 56 
Q 33.9375 56 38.28125 53.609375 
Q 42.625 51.21875 45.40625 46.390625 
L 45.40625 54.6875 
L 54.390625 54.6875 
z
" id="DejaVuSans-103"/>
      <path d="M 54.890625 33.015625 
L 54.890625 0 
L 45.90625 0 
L 45.90625 32.71875 
Q 45.90625 40.484375 42.875 44.328125 
Q 39.84375 48.1875 33.796875 48.1875 
Q 26.515625 48.1875 22.3125 43.546875 
Q 18.109375 38.921875 18.109375 30.90625 
L 18.109375 0 
L 9.078125 0 
L 9.078125 54.6875 
L 18.109375 54.6875 
L 18.109375 46.1875 
Q 21.34375 51.125 25.703125 53.5625 
Q 30.078125 56 35.796875 56 
Q 45.21875 56 50.046875 50.171875 
Q 54.890625 44.34375 54.890625 33.015625 
z
" id="DejaVuSans-110"/>
      <path d="M 34.28125 27.484375 
Q 23.390625 27.484375 19.1875 25 
Q 14.984375 22.515625 14.984375 16.5 
Q 14.984375 11.71875 18.140625 8.90625 
Q 21.296875 6.109375 26.703125 6.109375 
Q 34.1875 6.109375 38.703125 11.40625 
Q 43.21875 16.703125 43.21875 25.484375 
L 43.21875 27.484375 
z
M 52.203125 31.203125 
L 52.203125 0 
L 43.21875 0 
L 43.21875 8.296875 
Q 40.140625 3.328125 35.546875 0.953125 
Q 30.953125 -1.421875 24.3125 -1.421875 
Q 15.921875 -1.421875 10.953125 3.296875 
Q 6 8.015625 6 15.921875 
Q 6 25.140625 12.171875 29.828125 
Q 18.359375 34.515625 30.609375 34.515625 
L 43.21875 34.515625 
L 43.21875 35.40625 
Q 43.21875 41.609375 39.140625 45 
Q 35.0625 48.390625 27.6875 48.390625 
Q 23 48.390625 18.546875 47.265625 
Q 14.109375 46.140625 10.015625 43.890625 
L 10.015625 52.203125 
Q 14.9375 54.109375 19.578125 55.046875 
Q 24.21875 56 28.609375 56 
Q 40.484375 56 46.34375 49.84375 
Q 52.203125 43.703125 52.203125 31.203125 
z
" id="DejaVuSans-97"/>
      <path d="M 9.421875 75.984375 
L 18.40625 75.984375 
L 18.40625 0 
L 9.421875 0 
z
" id="DejaVuSans-108"/>
     </defs>
     <use xlink:href="#DejaVuSans-79"/>
     <use x="78.710938" xlink:href="#DejaVuSans-114"/>
     <use x="119.824219" xlink:href="#DejaVuSans-105"/>
     <use x="147.607422" xlink:href="#DejaVuSans-103"/>
     <use x="211.083984" xlink:href="#DejaVuSans-105"/>
     <use x="238.867188" xlink:href="#DejaVuSans-110"/>
     <use x="302.246094" xlink:href="#DejaVuSans-97"/>
     <use x="363.525391" xlink:href="#DejaVuSans-108"/>
    </g>
   </g>
  </g>
 </g>
 <defs>
  <clipPath id="p78fd96e713">
   <rect height="266.112" width="892.8" x="144" y="41.472"/>
  </clipPath>
 </defs>
</svg>
