<?xml version="1.0" encoding="utf-8" standalone="no"?>
<!DOCTYPE svg PUBLIC "-//W3C//DTD SVG 1.1//EN"
  "http://www.w3.org/Graphics/SVG/1.1/DTD/svg11.dtd">
<!-- Created with matplotlib (https://matplotlib.org/) -->
<svg height="345.6pt" version="1.1" viewBox="0 0 1152 345.6" width="1152pt" xmlns="http://www.w3.org/2000/svg" xmlns:xlink="http://www.w3.org/1999/xlink">
 <metadata>
  <rdf:RDF xmlns:cc="http://creativecommons.org/ns#" xmlns:dc="http://purl.org/dc/elements/1.1/" xmlns:rdf="http://www.w3.org/1999/02/22-rdf-syntax-ns#">
   <cc:Work>
    <dc:type rdf:resource="http://purl.org/dc/dcmitype/StillImage"/>
    <dc:date>2021-12-24T07:14:19.992099</dc:date>
    <dc:format>image/svg+xml</dc:format>
    <dc:creator>
     <cc:Agent>
      <dc:title>Matplotlib v3.3.3, https://matplotlib.org/</dc:title>
     </cc:Agent>
    </dc:creator>
   </cc:Work>
  </rdf:RDF>
 </metadata>
 <defs>
  <style type="text/css">*{stroke-linecap:butt;stroke-linejoin:round;}</style>
 </defs>
 <g id="figure_1">
  <g id="patch_1">
   <path d="M 0 345.6 
L 1152 345.6 
L 1152 0 
L 0 0 
z
" style="fill:#ffffff;"/>
  </g>
  <g id="axes_1">
   <g id="patch_2">
    <path d="M 144 307.584 
L 1036.8 307.584 
L 1036.8 41.472 
L 144 41.472 
z
" style="fill:#ffffff;"/>
   </g>
   <g id="matplotlib.axis_1">
    <g id="xtick_1">
     <g id="line2d_1">
      <defs>
       <path d="M 0 0 
L 0 3.5 
" id="mc719ee2f0b" style="stroke:#000000;stroke-width:0.8;"/>
      </defs>
      <g>
       <use style="stroke:#000000;stroke-width:0.8;" x="184.581818" xlink:href="#mc719ee2f0b" y="307.584"/>
      </g>
     </g>
     <g id="text_1">
      <!-- 0 -->
      <g transform="translate(181.400568 322.182437)scale(0.1 -0.1)">
       <defs>
        <path d="M 31.78125 66.40625 
Q 24.171875 66.40625 20.328125 58.90625 
Q 16.5 51.421875 16.5 36.375 
Q 16.5 21.390625 20.328125 13.890625 
Q 24.171875 6.390625 31.78125 6.390625 
Q 39.453125 6.390625 43.28125 13.890625 
Q 47.125 21.390625 47.125 36.375 
Q 47.125 51.421875 43.28125 58.90625 
Q 39.453125 66.40625 31.78125 66.40625 
z
M 31.78125 74.21875 
Q 44.046875 74.21875 50.515625 64.515625 
Q 56.984375 54.828125 56.984375 36.375 
Q 56.984375 17.96875 50.515625 8.265625 
Q 44.046875 -1.421875 31.78125 -1.421875 
Q 19.53125 -1.421875 13.0625 8.265625 
Q 6.59375 17.96875 6.59375 36.375 
Q 6.59375 54.828125 13.0625 64.515625 
Q 19.53125 74.21875 31.78125 74.21875 
z
" id="DejaVuSans-48"/>
       </defs>
       <use xlink:href="#DejaVuSans-48"/>
      </g>
     </g>
    </g>
    <g id="xtick_2">
     <g id="line2d_2">
      <g>
       <use style="stroke:#000000;stroke-width:0.8;" x="343.259504" xlink:href="#mc719ee2f0b" y="307.584"/>
      </g>
     </g>
     <g id="text_2">
      <!-- 200 -->
      <g transform="translate(333.715754 322.182437)scale(0.1 -0.1)">
       <defs>
        <path d="M 19.1875 8.296875 
L 53.609375 8.296875 
L 53.609375 0 
L 7.328125 0 
L 7.328125 8.296875 
Q 12.9375 14.109375 22.625 23.890625 
Q 32.328125 33.6875 34.8125 36.53125 
Q 39.546875 41.84375 41.421875 45.53125 
Q 43.3125 49.21875 43.3125 52.78125 
Q 43.3125 58.59375 39.234375 62.25 
Q 35.15625 65.921875 28.609375 65.921875 
Q 23.96875 65.921875 18.8125 64.3125 
Q 13.671875 62.703125 7.8125 59.421875 
L 7.8125 69.390625 
Q 13.765625 71.78125 18.9375 73 
Q 24.125 74.21875 28.421875 74.21875 
Q 39.75 74.21875 46.484375 68.546875 
Q 53.21875 62.890625 53.21875 53.421875 
Q 53.21875 48.921875 51.53125 44.890625 
Q 49.859375 40.875 45.40625 35.40625 
Q 44.1875 33.984375 37.640625 27.21875 
Q 31.109375 20.453125 19.1875 8.296875 
z
" id="DejaVuSans-50"/>
       </defs>
       <use xlink:href="#DejaVuSans-50"/>
       <use x="63.623047" xlink:href="#DejaVuSans-48"/>
       <use x="127.246094" xlink:href="#DejaVuSans-48"/>
      </g>
     </g>
    </g>
    <g id="xtick_3">
     <g id="line2d_3">
      <g>
       <use style="stroke:#000000;stroke-width:0.8;" x="501.93719" xlink:href="#mc719ee2f0b" y="307.584"/>
      </g>
     </g>
     <g id="text_3">
      <!-- 400 -->
      <g transform="translate(492.39344 322.182437)scale(0.1 -0.1)">
       <defs>
        <path d="M 37.796875 64.3125 
L 12.890625 25.390625 
L 37.796875 25.390625 
z
M 35.203125 72.90625 
L 47.609375 72.90625 
L 47.609375 25.390625 
L 58.015625 25.390625 
L 58.015625 17.1875 
L 47.609375 17.1875 
L 47.609375 0 
L 37.796875 0 
L 37.796875 17.1875 
L 4.890625 17.1875 
L 4.890625 26.703125 
z
" id="DejaVuSans-52"/>
       </defs>
       <use xlink:href="#DejaVuSans-52"/>
       <use x="63.623047" xlink:href="#DejaVuSans-48"/>
       <use x="127.246094" xlink:href="#DejaVuSans-48"/>
      </g>
     </g>
    </g>
    <g id="xtick_4">
     <g id="line2d_4">
      <g>
       <use style="stroke:#000000;stroke-width:0.8;" x="660.614876" xlink:href="#mc719ee2f0b" y="307.584"/>
      </g>
     </g>
     <g id="text_4">
      <!-- 600 -->
      <g transform="translate(651.071126 322.182437)scale(0.1 -0.1)">
       <defs>
        <path d="M 33.015625 40.375 
Q 26.375 40.375 22.484375 35.828125 
Q 18.609375 31.296875 18.609375 23.390625 
Q 18.609375 15.53125 22.484375 10.953125 
Q 26.375 6.390625 33.015625 6.390625 
Q 39.65625 6.390625 43.53125 10.953125 
Q 47.40625 15.53125 47.40625 23.390625 
Q 47.40625 31.296875 43.53125 35.828125 
Q 39.65625 40.375 33.015625 40.375 
z
M 52.59375 71.296875 
L 52.59375 62.3125 
Q 48.875 64.0625 45.09375 64.984375 
Q 41.3125 65.921875 37.59375 65.921875 
Q 27.828125 65.921875 22.671875 59.328125 
Q 17.53125 52.734375 16.796875 39.40625 
Q 19.671875 43.65625 24.015625 45.921875 
Q 28.375 48.1875 33.59375 48.1875 
Q 44.578125 48.1875 50.953125 41.515625 
Q 57.328125 34.859375 57.328125 23.390625 
Q 57.328125 12.15625 50.6875 5.359375 
Q 44.046875 -1.421875 33.015625 -1.421875 
Q 20.359375 -1.421875 13.671875 8.265625 
Q 6.984375 17.96875 6.984375 36.375 
Q 6.984375 53.65625 15.1875 63.9375 
Q 23.390625 74.21875 37.203125 74.21875 
Q 40.921875 74.21875 44.703125 73.484375 
Q 48.484375 72.75 52.59375 71.296875 
z
" id="DejaVuSans-54"/>
       </defs>
       <use xlink:href="#DejaVuSans-54"/>
       <use x="63.623047" xlink:href="#DejaVuSans-48"/>
       <use x="127.246094" xlink:href="#DejaVuSans-48"/>
      </g>
     </g>
    </g>
    <g id="xtick_5">
     <g id="line2d_5">
      <g>
       <use style="stroke:#000000;stroke-width:0.8;" x="819.292562" xlink:href="#mc719ee2f0b" y="307.584"/>
      </g>
     </g>
     <g id="text_5">
      <!-- 800 -->
      <g transform="translate(809.748812 322.182437)scale(0.1 -0.1)">
       <defs>
        <path d="M 31.78125 34.625 
Q 24.75 34.625 20.71875 30.859375 
Q 16.703125 27.09375 16.703125 20.515625 
Q 16.703125 13.921875 20.71875 10.15625 
Q 24.75 6.390625 31.78125 6.390625 
Q 38.8125 6.390625 42.859375 10.171875 
Q 46.921875 13.96875 46.921875 20.515625 
Q 46.921875 27.09375 42.890625 30.859375 
Q 38.875 34.625 31.78125 34.625 
z
M 21.921875 38.8125 
Q 15.578125 40.375 12.03125 44.71875 
Q 8.5 49.078125 8.5 55.328125 
Q 8.5 64.0625 14.71875 69.140625 
Q 20.953125 74.21875 31.78125 74.21875 
Q 42.671875 74.21875 48.875 69.140625 
Q 55.078125 64.0625 55.078125 55.328125 
Q 55.078125 49.078125 51.53125 44.71875 
Q 48 40.375 41.703125 38.8125 
Q 48.828125 37.15625 52.796875 32.3125 
Q 56.78125 27.484375 56.78125 20.515625 
Q 56.78125 9.90625 50.3125 4.234375 
Q 43.84375 -1.421875 31.78125 -1.421875 
Q 19.734375 -1.421875 13.25 4.234375 
Q 6.78125 9.90625 6.78125 20.515625 
Q 6.78125 27.484375 10.78125 32.3125 
Q 14.796875 37.15625 21.921875 38.8125 
z
M 18.3125 54.390625 
Q 18.3125 48.734375 21.84375 45.5625 
Q 25.390625 42.390625 31.78125 42.390625 
Q 38.140625 42.390625 41.71875 45.5625 
Q 45.3125 48.734375 45.3125 54.390625 
Q 45.3125 60.0625 41.71875 63.234375 
Q 38.140625 66.40625 31.78125 66.40625 
Q 25.390625 66.40625 21.84375 63.234375 
Q 18.3125 60.0625 18.3125 54.390625 
z
" id="DejaVuSans-56"/>
       </defs>
       <use xlink:href="#DejaVuSans-56"/>
       <use x="63.623047" xlink:href="#DejaVuSans-48"/>
       <use x="127.246094" xlink:href="#DejaVuSans-48"/>
      </g>
     </g>
    </g>
    <g id="xtick_6">
     <g id="line2d_6">
      <g>
       <use style="stroke:#000000;stroke-width:0.8;" x="977.970248" xlink:href="#mc719ee2f0b" y="307.584"/>
      </g>
     </g>
     <g id="text_6">
      <!-- 1000 -->
      <g transform="translate(965.245248 322.182437)scale(0.1 -0.1)">
       <defs>
        <path d="M 12.40625 8.296875 
L 28.515625 8.296875 
L 28.515625 63.921875 
L 10.984375 60.40625 
L 10.984375 69.390625 
L 28.421875 72.90625 
L 38.28125 72.90625 
L 38.28125 8.296875 
L 54.390625 8.296875 
L 54.390625 0 
L 12.40625 0 
z
" id="DejaVuSans-49"/>
       </defs>
       <use xlink:href="#DejaVuSans-49"/>
       <use x="63.623047" xlink:href="#DejaVuSans-48"/>
       <use x="127.246094" xlink:href="#DejaVuSans-48"/>
       <use x="190.869141" xlink:href="#DejaVuSans-48"/>
      </g>
     </g>
    </g>
   </g>
   <g id="matplotlib.axis_2">
    <g id="ytick_1">
     <g id="line2d_7">
      <defs>
       <path d="M 0 0 
L -3.5 0 
" id="m07cfdc0e5e" style="stroke:#000000;stroke-width:0.8;"/>
      </defs>
      <g>
       <use style="stroke:#000000;stroke-width:0.8;" x="144" xlink:href="#m07cfdc0e5e" y="293.088185"/>
      </g>
     </g>
     <g id="text_7">
      <!-- −0.4 -->
      <g transform="translate(112.717187 296.887404)scale(0.1 -0.1)">
       <defs>
        <path d="M 10.59375 35.5 
L 73.1875 35.5 
L 73.1875 27.203125 
L 10.59375 27.203125 
z
" id="DejaVuSans-8722"/>
        <path d="M 10.6875 12.40625 
L 21 12.40625 
L 21 0 
L 10.6875 0 
z
" id="DejaVuSans-46"/>
       </defs>
       <use xlink:href="#DejaVuSans-8722"/>
       <use x="83.789062" xlink:href="#DejaVuSans-48"/>
       <use x="147.412109" xlink:href="#DejaVuSans-46"/>
       <use x="179.199219" xlink:href="#DejaVuSans-52"/>
      </g>
     </g>
    </g>
    <g id="ytick_2">
     <g id="line2d_8">
      <g>
       <use style="stroke:#000000;stroke-width:0.8;" x="144" xlink:href="#m07cfdc0e5e" y="260.542171"/>
      </g>
     </g>
     <g id="text_8">
      <!-- −0.3 -->
      <g transform="translate(112.717187 264.341389)scale(0.1 -0.1)">
       <defs>
        <path d="M 40.578125 39.3125 
Q 47.65625 37.796875 51.625 33 
Q 55.609375 28.21875 55.609375 21.1875 
Q 55.609375 10.40625 48.1875 4.484375 
Q 40.765625 -1.421875 27.09375 -1.421875 
Q 22.515625 -1.421875 17.65625 -0.515625 
Q 12.796875 0.390625 7.625 2.203125 
L 7.625 11.71875 
Q 11.71875 9.328125 16.59375 8.109375 
Q 21.484375 6.890625 26.8125 6.890625 
Q 36.078125 6.890625 40.9375 10.546875 
Q 45.796875 14.203125 45.796875 21.1875 
Q 45.796875 27.640625 41.28125 31.265625 
Q 36.765625 34.90625 28.71875 34.90625 
L 20.21875 34.90625 
L 20.21875 43.015625 
L 29.109375 43.015625 
Q 36.375 43.015625 40.234375 45.921875 
Q 44.09375 48.828125 44.09375 54.296875 
Q 44.09375 59.90625 40.109375 62.90625 
Q 36.140625 65.921875 28.71875 65.921875 
Q 24.65625 65.921875 20.015625 65.03125 
Q 15.375 64.15625 9.8125 62.3125 
L 9.8125 71.09375 
Q 15.4375 72.65625 20.34375 73.4375 
Q 25.25 74.21875 29.59375 74.21875 
Q 40.828125 74.21875 47.359375 69.109375 
Q 53.90625 64.015625 53.90625 55.328125 
Q 53.90625 49.265625 50.4375 45.09375 
Q 46.96875 40.921875 40.578125 39.3125 
z
" id="DejaVuSans-51"/>
       </defs>
       <use xlink:href="#DejaVuSans-8722"/>
       <use x="83.789062" xlink:href="#DejaVuSans-48"/>
       <use x="147.412109" xlink:href="#DejaVuSans-46"/>
       <use x="179.199219" xlink:href="#DejaVuSans-51"/>
      </g>
     </g>
    </g>
    <g id="ytick_3">
     <g id="line2d_9">
      <g>
       <use style="stroke:#000000;stroke-width:0.8;" x="144" xlink:href="#m07cfdc0e5e" y="227.996157"/>
      </g>
     </g>
     <g id="text_9">
      <!-- −0.2 -->
      <g transform="translate(112.717187 231.795375)scale(0.1 -0.1)">
       <use xlink:href="#DejaVuSans-8722"/>
       <use x="83.789062" xlink:href="#DejaVuSans-48"/>
       <use x="147.412109" xlink:href="#DejaVuSans-46"/>
       <use x="179.199219" xlink:href="#DejaVuSans-50"/>
      </g>
     </g>
    </g>
    <g id="ytick_4">
     <g id="line2d_10">
      <g>
       <use style="stroke:#000000;stroke-width:0.8;" x="144" xlink:href="#m07cfdc0e5e" y="195.450142"/>
      </g>
     </g>
     <g id="text_10">
      <!-- −0.1 -->
      <g transform="translate(112.717187 199.249361)scale(0.1 -0.1)">
       <use xlink:href="#DejaVuSans-8722"/>
       <use x="83.789062" xlink:href="#DejaVuSans-48"/>
       <use x="147.412109" xlink:href="#DejaVuSans-46"/>
       <use x="179.199219" xlink:href="#DejaVuSans-49"/>
      </g>
     </g>
    </g>
    <g id="ytick_5">
     <g id="line2d_11">
      <g>
       <use style="stroke:#000000;stroke-width:0.8;" x="144" xlink:href="#m07cfdc0e5e" y="162.904128"/>
      </g>
     </g>
     <g id="text_11">
      <!-- 0.0 -->
      <g transform="translate(121.096875 166.703347)scale(0.1 -0.1)">
       <use xlink:href="#DejaVuSans-48"/>
       <use x="63.623047" xlink:href="#DejaVuSans-46"/>
       <use x="95.410156" xlink:href="#DejaVuSans-48"/>
      </g>
     </g>
    </g>
    <g id="ytick_6">
     <g id="line2d_12">
      <g>
       <use style="stroke:#000000;stroke-width:0.8;" x="144" xlink:href="#m07cfdc0e5e" y="130.358114"/>
      </g>
     </g>
     <g id="text_12">
      <!-- 0.1 -->
      <g transform="translate(121.096875 134.157333)scale(0.1 -0.1)">
       <use xlink:href="#DejaVuSans-48"/>
       <use x="63.623047" xlink:href="#DejaVuSans-46"/>
       <use x="95.410156" xlink:href="#DejaVuSans-49"/>
      </g>
     </g>
    </g>
    <g id="ytick_7">
     <g id="line2d_13">
      <g>
       <use style="stroke:#000000;stroke-width:0.8;" x="144" xlink:href="#m07cfdc0e5e" y="97.8121"/>
      </g>
     </g>
     <g id="text_13">
      <!-- 0.2 -->
      <g transform="translate(121.096875 101.611319)scale(0.1 -0.1)">
       <use xlink:href="#DejaVuSans-48"/>
       <use x="63.623047" xlink:href="#DejaVuSans-46"/>
       <use x="95.410156" xlink:href="#DejaVuSans-50"/>
      </g>
     </g>
    </g>
    <g id="ytick_8">
     <g id="line2d_14">
      <g>
       <use style="stroke:#000000;stroke-width:0.8;" x="144" xlink:href="#m07cfdc0e5e" y="65.266086"/>
      </g>
     </g>
     <g id="text_14">
      <!-- 0.3 -->
      <g transform="translate(121.096875 69.065305)scale(0.1 -0.1)">
       <use xlink:href="#DejaVuSans-48"/>
       <use x="63.623047" xlink:href="#DejaVuSans-46"/>
       <use x="95.410156" xlink:href="#DejaVuSans-51"/>
      </g>
     </g>
    </g>
   </g>
   <g id="line2d_15">
    <path clip-path="url(#pb3f3cbfd68)" d="M 184.581818 99.822338 
L 186.168595 91.650507 
L 186.961983 86.524833 
L 187.755372 93.174211 
L 188.54876 106.711235 
L 189.342149 127.415938 
L 190.135537 152.510484 
L 190.928926 168.661152 
L 191.722314 168.032688 
L 192.515702 159.864094 
L 193.309091 150.043347 
L 194.102479 143.934479 
L 194.895868 150.110945 
L 195.689256 163.6836 
L 196.482645 172.230269 
L 197.276033 175.05012 
L 198.069421 173.50902 
L 198.86281 175.513633 
L 199.656198 182.704247 
L 200.449587 177.526711 
L 202.036364 137.922673 
L 202.829752 130.206116 
L 203.62314 144.130258 
L 205.209917 197.612848 
L 206.003306 215.901624 
L 206.796694 224.48045 
L 207.590083 227.577393 
L 208.383471 220.171975 
L 209.17686 203.526337 
L 209.970248 190.365527 
L 210.763636 186.86872 
L 211.557025 193.926189 
L 212.350413 206.812044 
L 213.143802 217.402568 
L 213.93719 220.390892 
L 214.730579 216.854524 
L 215.523967 209.270248 
L 217.110744 181.207249 
L 217.904132 176.010058 
L 218.697521 180.680974 
L 219.490909 194.901577 
L 220.284298 211.694126 
L 221.077686 223.312173 
L 221.871074 226.449524 
L 222.664463 223.007697 
L 223.457851 217.607086 
L 224.25124 219.340798 
L 225.838017 238.885949 
L 226.631405 239.062567 
L 227.424793 231.398076 
L 228.218182 227.033704 
L 229.01157 232.407335 
L 229.804959 239.458475 
L 230.598347 228.373239 
L 231.391736 195.874744 
L 232.185124 170.617962 
L 232.978512 169.728495 
L 233.771901 189.472846 
L 234.565289 214.188412 
L 235.358678 222.108954 
L 236.945455 206.382508 
L 237.738843 202.322582 
L 238.532231 201.801823 
L 239.32562 200.641177 
L 240.119008 197.480586 
L 240.912397 193.511088 
L 241.705785 186.523456 
L 243.292562 166.524576 
L 244.879339 151.398391 
L 245.672727 141.616323 
L 246.466116 133.495189 
L 247.259504 130.776127 
L 248.052893 140.527407 
L 248.846281 158.183748 
L 249.639669 169.719075 
L 250.433058 172.409297 
L 251.226446 171.213277 
L 252.019835 166.591695 
L 252.813223 155.246452 
L 254.4 124.23976 
L 255.193388 118.9161 
L 255.986777 129.494063 
L 256.780165 148.888373 
L 257.573554 162.045561 
L 258.366942 166.415082 
L 259.160331 168.015913 
L 259.953719 167.253513 
L 260.747107 161.619336 
L 261.540496 152.650365 
L 262.333884 146.726172 
L 263.127273 158.730137 
L 263.920661 184.960236 
L 264.71405 206.844581 
L 265.507438 203.434212 
L 266.300826 181.157539 
L 267.094215 168.454792 
L 267.887603 180.385465 
L 268.680992 204.015969 
L 269.47438 218.022025 
L 270.267769 215.001436 
L 271.061157 206.454032 
L 271.854545 213.080665 
L 272.647934 235.365551 
L 273.441322 252.962671 
L 274.234711 250.430615 
L 275.028099 234.753884 
L 275.821488 213.153333 
L 276.614876 200.684279 
L 277.408264 203.359252 
L 278.201653 214.06033 
L 278.995041 229.526666 
L 281.375207 292.21571 
L 282.168595 295.488 
L 282.961983 283.114466 
L 284.54876 238.386815 
L 285.342149 221.674791 
L 286.135537 209.927125 
L 286.928926 202.231752 
L 287.722314 199.997256 
L 288.515702 204.379417 
L 290.102479 226.754955 
L 290.895868 223.941455 
L 292.482645 183.361049 
L 293.276033 181.101134 
L 294.069421 204.689466 
L 294.86281 236.906535 
L 295.656198 251.498391 
L 296.449587 242.909192 
L 297.242975 232.225708 
L 298.036364 232.898768 
L 298.829752 232.410288 
L 299.62314 217.289696 
L 301.209917 149.635176 
L 302.003306 142.667584 
L 303.590083 175.706302 
L 304.383471 175.377924 
L 305.970248 145.527773 
L 306.763636 138.056002 
L 307.557025 136.265635 
L 308.350413 137.683707 
L 309.143802 136.744612 
L 309.93719 132.93502 
L 311.523967 119.815677 
L 312.317355 117.723259 
L 313.110744 121.544467 
L 313.904132 126.632415 
L 314.697521 123.752803 
L 315.490909 116.120025 
L 316.284298 113.774334 
L 317.077686 117.633811 
L 317.871074 118.997702 
L 318.664463 114.791023 
L 319.457851 106.502241 
L 320.25124 96.848787 
L 321.044628 83.936807 
L 321.838017 68.147203 
L 322.631405 56.363901 
L 323.424793 56.662964 
L 324.218182 70.8425 
L 325.01157 87.287963 
L 325.804959 91.382739 
L 326.598347 87.743023 
L 327.391736 89.031602 
L 328.185124 98.80129 
L 328.978512 105.912935 
L 329.771901 106.055347 
L 330.565289 109.657444 
L 331.358678 123.515539 
L 332.152066 143.55217 
L 332.945455 154.989453 
L 333.738843 144.772244 
L 334.532231 123.309375 
L 335.32562 113.923013 
L 336.119008 122.555551 
L 336.912397 132.89103 
L 337.705785 133.599242 
L 338.499174 128.263521 
L 339.292562 127.706662 
L 340.08595 140.114525 
L 340.879339 158.669915 
L 341.672727 164.252931 
L 342.466116 156.69761 
L 343.259504 144.4501 
L 344.052893 142.535789 
L 344.846281 149.818073 
L 346.433058 169.169744 
L 347.226446 180.957187 
L 348.019835 198.582753 
L 348.813223 218.896349 
L 349.606612 226.827566 
L 350.4 216.973023 
L 351.193388 198.298098 
L 351.986777 184.145323 
L 352.780165 176.945373 
L 353.573554 172.343659 
L 355.160331 161.110409 
L 355.953719 165.615942 
L 357.540496 200.93689 
L 358.333884 212.989684 
L 359.127273 214.587138 
L 359.920661 210.003732 
L 360.71405 208.513685 
L 361.507438 210.215888 
L 362.300826 214.113033 
L 363.094215 214.60126 
L 365.47438 210.332117 
L 366.267769 206.870265 
L 367.061157 196.332373 
L 367.854545 177.86602 
L 368.647934 164.859542 
L 369.441322 166.119224 
L 371.028099 187.843682 
L 371.821488 187.11281 
L 372.614876 175.286411 
L 374.201653 147.437537 
L 374.995041 133.782945 
L 375.78843 117.263063 
L 376.581818 104.08396 
L 377.375207 97.557682 
L 378.961983 93.253097 
L 379.755372 93.840589 
L 380.54876 94.920688 
L 381.342149 95.603429 
L 382.135537 98.235699 
L 382.928926 97.603779 
L 383.722314 99.148254 
L 385.309091 116.917786 
L 386.102479 113.026059 
L 387.689256 84.864983 
L 388.482645 81.965744 
L 390.069421 88.141119 
L 390.86281 85.445244 
L 391.656198 82.008009 
L 392.449587 89.631034 
L 393.242975 101.51796 
L 394.036364 101.653181 
L 394.829752 91.623213 
L 395.62314 89.609453 
L 397.209917 109.902675 
L 398.003306 108.016827 
L 398.796694 98.483875 
L 399.590083 98.047694 
L 400.383471 117.61786 
L 401.17686 146.433604 
L 401.970248 156.432594 
L 402.763636 147.641115 
L 403.557025 145.636983 
L 405.143802 176.291481 
L 405.93719 182.486227 
L 406.730579 175.512377 
L 407.523967 164.494943 
L 408.317355 156.799285 
L 409.110744 150.63633 
L 409.904132 142.337866 
L 410.697521 135.379436 
L 411.490909 133.116339 
L 412.284298 129.399576 
L 413.077686 122.625594 
L 413.871074 118.106597 
L 414.664463 128.834354 
L 415.457851 152.711168 
L 416.25124 165.833502 
L 417.044628 164.494543 
L 417.838017 159.053336 
L 418.631405 159.029074 
L 419.424793 169.229979 
L 421.804959 220.488435 
L 422.598347 233.158311 
L 423.391736 230.100554 
L 424.185124 207.795929 
L 424.978512 179.136633 
L 425.771901 163.635888 
L 426.565289 161.059738 
L 427.358678 152.046751 
L 428.152066 134.899116 
L 428.945455 132.293851 
L 429.738843 155.499132 
L 430.532231 189.662982 
L 431.32562 207.769479 
L 432.119008 200.865579 
L 432.912397 185.132986 
L 433.705785 190.555629 
L 434.499174 211.122977 
L 435.292562 212.332016 
L 436.879339 165.763078 
L 437.672727 164.434253 
L 439.259504 202.225655 
L 440.052893 196.013408 
L 440.846281 169.56859 
L 441.639669 147.466949 
L 442.433058 141.418975 
L 443.226446 141.567496 
L 444.019835 141.236174 
L 444.813223 141.845296 
L 445.606612 140.386859 
L 446.4 134.778445 
L 447.986777 112.937372 
L 448.780165 108.855288 
L 449.573554 108.989436 
L 450.366942 109.426732 
L 451.160331 107.511858 
L 451.953719 106.402171 
L 453.540496 120.066282 
L 454.333884 116.089466 
L 455.127273 106.315948 
L 455.920661 106.823972 
L 457.507438 131.09354 
L 458.300826 133.219719 
L 459.094215 127.069415 
L 459.887603 123.351662 
L 461.47438 133.89091 
L 462.267769 129.561918 
L 463.061157 120.953124 
L 463.854545 118.159265 
L 464.647934 123.573748 
L 465.441322 122.62231 
L 466.234711 118.02839 
L 467.028099 123.431421 
L 467.821488 140.591637 
L 468.614876 154.549147 
L 469.408264 151.062777 
L 470.201653 134.369651 
L 470.995041 124.740526 
L 471.78843 138.834942 
L 472.581818 169.329653 
L 473.375207 186.226815 
L 474.168595 181.952468 
L 474.961983 173.402201 
L 475.755372 169.473146 
L 476.54876 168.367888 
L 477.342149 165.641087 
L 478.135537 160.542237 
L 478.928926 157.321595 
L 479.722314 156.987846 
L 481.309091 166.040745 
L 482.102479 170.101905 
L 482.895868 176.094493 
L 483.689256 176.034206 
L 484.482645 168.495028 
L 485.276033 162.514145 
L 486.069421 163.807827 
L 486.86281 169.776673 
L 487.656198 166.52775 
L 488.449587 157.200952 
L 489.242975 166.260838 
L 490.829752 231.457515 
L 491.62314 244.591089 
L 492.416529 228.550516 
L 493.209917 205.086373 
L 494.003306 200.051437 
L 494.796694 207.517254 
L 495.590083 208.060283 
L 496.383471 197.40043 
L 497.17686 196.12379 
L 497.970248 208.411831 
L 498.763636 217.189636 
L 499.557025 212.295362 
L 500.350413 205.480758 
L 501.143802 214.616643 
L 501.93719 237.499464 
L 502.730579 255.536318 
L 503.523967 249.322528 
L 504.317355 228.963384 
L 505.110744 228.154671 
L 505.904132 249.570612 
L 506.697521 259.913455 
L 507.490909 244.204817 
L 509.077686 182.482194 
L 509.871074 172.481604 
L 510.664463 176.052488 
L 511.457851 183.023973 
L 512.25124 185.490016 
L 513.838017 195.207154 
L 514.631405 189.659599 
L 515.424793 178.075817 
L 516.218182 172.038536 
L 517.01157 174.135756 
L 517.804959 177.10727 
L 518.598347 176.854176 
L 520.185124 172.036997 
L 520.978512 173.082931 
L 521.771901 174.447977 
L 522.565289 170.092421 
L 523.358678 166.597497 
L 524.152066 169.780906 
L 524.945455 176.507824 
L 525.738843 180.333592 
L 526.532231 179.638498 
L 527.32562 183.97043 
L 528.119008 191.561595 
L 528.912397 196.90146 
L 529.705785 197.169012 
L 531.292562 181.035568 
L 532.08595 176.59013 
L 532.879339 173.777011 
L 533.672727 182.519697 
L 534.466116 204.485976 
L 535.259504 235.970134 
L 536.052893 261.964058 
L 536.846281 259.199254 
L 537.639669 230.110157 
L 538.433058 196.256317 
L 539.226446 175.919109 
L 540.019835 173.264099 
L 540.813223 173.889301 
L 541.606612 172.999222 
L 543.193388 162.380691 
L 543.986777 165.27868 
L 544.780165 175.146676 
L 545.573554 195.96558 
L 547.160331 250.856004 
L 547.953719 257.041724 
L 549.540496 232.027586 
L 550.333884 225.066152 
L 551.127273 216.63988 
L 551.920661 202.064775 
L 553.507438 158.440928 
L 554.300826 154.546163 
L 555.094215 163.67803 
L 555.887603 176.739613 
L 556.680992 183.627684 
L 557.47438 184.183141 
L 558.267769 175.391248 
L 559.061157 159.669661 
L 559.854545 148.546533 
L 560.647934 151.309927 
L 561.441322 166.549975 
L 562.234711 179.611252 
L 563.028099 180.703212 
L 563.821488 181.503821 
L 564.614876 190.191125 
L 565.408264 204.656187 
L 566.201653 215.894306 
L 566.995041 212.495185 
L 567.78843 203.390857 
L 568.581818 205.44244 
L 569.375207 218.759776 
L 570.168595 218.443127 
L 571.755372 175.725637 
L 572.54876 166.877753 
L 573.342149 172.605933 
L 574.135537 177.514893 
L 574.928926 160.834846 
L 575.722314 130.085644 
L 576.515702 114.939076 
L 577.309091 121.588716 
L 578.895868 154.065843 
L 579.689256 165.404155 
L 580.482645 173.538137 
L 581.276033 175.951005 
L 582.069421 175.184512 
L 583.656198 161.208719 
L 585.242975 157.35561 
L 586.036364 152.177356 
L 586.829752 144.738407 
L 587.62314 141.888597 
L 588.416529 141.59819 
L 589.209917 136.602779 
L 590.003306 130.317798 
L 590.796694 128.662584 
L 591.590083 131.986356 
L 592.383471 134.244392 
L 593.17686 131.870115 
L 593.970248 127.881214 
L 594.763636 127.773431 
L 595.557025 132.967559 
L 596.350413 137.099472 
L 597.143802 133.360824 
L 597.93719 128.932391 
L 598.730579 132.75177 
L 599.523967 141.643278 
L 600.317355 147.037246 
L 601.110744 147.442138 
L 601.904132 154.674742 
L 602.697521 173.56291 
L 603.490909 185.425566 
L 604.284298 179.731043 
L 605.077686 158.243266 
L 605.871074 139.91151 
L 606.664463 141.780615 
L 607.457851 154.850858 
L 608.25124 154.155776 
L 609.838017 117.43246 
L 610.631405 114.805878 
L 611.424793 125.249164 
L 612.218182 140.093079 
L 613.01157 149.800096 
L 613.804959 155.91066 
L 614.598347 164.529307 
L 615.391736 174.364136 
L 616.185124 182.575529 
L 616.978512 182.814734 
L 617.771901 176.678581 
L 618.565289 166.089265 
L 620.152066 132.49359 
L 620.945455 122.735884 
L 621.738843 119.483621 
L 622.532231 128.596191 
L 624.912397 177.306494 
L 625.705785 174.805842 
L 627.292562 144.003984 
L 628.08595 133.979798 
L 628.879339 136.369221 
L 629.672727 140.448919 
L 631.259504 144.229749 
L 632.052893 147.531027 
L 632.846281 154.918142 
L 633.639669 156.564309 
L 634.433058 155.585127 
L 635.226446 161.731232 
L 636.019835 180.129673 
L 636.813223 194.949585 
L 637.606612 189.727564 
L 639.193388 148.804127 
L 639.986777 144.349981 
L 640.780165 154.385288 
L 641.573554 146.598034 
L 643.160331 77.475423 
L 643.953719 63.383551 
L 644.747107 68.903577 
L 645.540496 82.961331 
L 646.333884 94.797102 
L 648.71405 121.324749 
L 649.507438 117.622205 
L 650.300826 106.941602 
L 651.094215 104.235456 
L 651.887603 107.653747 
L 652.680992 107.432691 
L 653.47438 102.333181 
L 654.267769 101.804497 
L 655.061157 108.390611 
L 655.854545 117.452387 
L 656.647934 122.675725 
L 657.441322 121.325399 
L 658.234711 121.766066 
L 659.028099 131.574485 
L 659.821488 146.326279 
L 660.614876 155.209035 
L 661.408264 158.879988 
L 662.201653 160.583548 
L 662.995041 159.472658 
L 663.78843 148.772783 
L 665.375207 116.135844 
L 666.168595 105.075808 
L 666.961983 103.377218 
L 667.755372 111.017372 
L 668.54876 136.590138 
L 669.342149 184.17803 
L 670.135537 220.718133 
L 670.928926 229.889882 
L 671.722314 209.525538 
L 672.515702 184.870317 
L 673.309091 192.658966 
L 674.102479 224.156885 
L 674.895868 237.445709 
L 675.689256 216.046854 
L 676.482645 179.242046 
L 677.276033 156.740034 
L 678.069421 157.557209 
L 678.86281 171.976668 
L 679.656198 179.256464 
L 680.449587 171.329034 
L 681.242975 165.734068 
L 682.036364 166.067441 
L 682.829752 168.52777 
L 684.416529 172.053418 
L 685.209917 171.637023 
L 686.003306 165.409895 
L 686.796694 160.175612 
L 687.590083 164.493598 
L 688.383471 176.090472 
L 689.17686 183.869252 
L 689.970248 179.764656 
L 691.557025 155.804623 
L 692.350413 152.901302 
L 693.143802 155.014387 
L 693.93719 153.808697 
L 694.730579 154.738569 
L 696.317355 171.471605 
L 697.110744 169.993352 
L 697.904132 160.310104 
L 698.697521 152.950423 
L 699.490909 154.776711 
L 700.284298 155.966117 
L 701.077686 146.383222 
L 701.871074 135.093457 
L 702.664463 136.439818 
L 704.25124 167.92788 
L 705.044628 166.461432 
L 705.838017 147.479503 
L 706.631405 137.911846 
L 707.424793 148.109673 
L 708.218182 152.738619 
L 709.01157 136.825171 
L 710.598347 85.460928 
L 711.391736 82.303212 
L 712.185124 95.715763 
L 712.978512 105.136745 
L 713.771901 107.530462 
L 714.565289 108.543867 
L 715.358678 110.43231 
L 716.152066 106.018383 
L 716.945455 95.239553 
L 717.738843 88.945937 
L 718.532231 88.551867 
L 720.119008 93.208213 
L 720.912397 93.274543 
L 721.705785 92.796684 
L 722.499174 97.213739 
L 723.292562 103.462631 
L 724.08595 104.867153 
L 724.879339 108.76049 
L 725.672727 119.009739 
L 726.466116 131.71466 
L 727.259504 141.545206 
L 728.052893 148.89231 
L 729.639669 159.170039 
L 730.433058 157.23554 
L 732.019835 133.397163 
L 732.813223 132.47666 
L 733.606612 137.873834 
L 734.4 142.074751 
L 735.193388 149.422316 
L 735.986777 167.758744 
L 736.780165 189.992783 
L 737.573554 208.717471 
L 738.366942 205.01869 
L 739.160331 188.850715 
L 739.953719 192.332074 
L 740.747107 215.7909 
L 741.540496 227.56844 
L 742.333884 216.292193 
L 743.127273 193.829299 
L 743.920661 180.193251 
L 744.71405 186.414953 
L 745.507438 201.466403 
L 746.300826 206.066747 
L 747.094215 200.217429 
L 747.887603 202.660715 
L 748.680992 211.446261 
L 749.47438 213.452538 
L 750.267769 208.578836 
L 751.061157 206.416155 
L 751.854545 210.417128 
L 752.647934 208.075206 
L 754.234711 181.413721 
L 755.028099 178.886083 
L 755.821488 195.379735 
L 756.614876 219.354358 
L 757.408264 232.21854 
L 758.201653 232.889093 
L 758.995041 228.375058 
L 759.78843 222.011537 
L 761.375207 201.161442 
L 762.168595 198.656688 
L 763.755372 199.715591 
L 764.54876 197.224741 
L 765.342149 197.362063 
L 766.135537 204.47632 
L 766.928926 210.050682 
L 767.722314 212.325183 
L 768.515702 220.549949 
L 770.102479 252.859304 
L 770.895868 248.740405 
L 772.482645 197.315261 
L 773.276033 192.685188 
L 774.069421 205.857738 
L 774.86281 198.77845 
L 776.449587 127.772723 
L 777.242975 109.767397 
L 778.036364 112.592925 
L 780.416529 145.599389 
L 781.209917 159.643818 
L 782.003306 167.604126 
L 782.796694 157.237134 
L 783.590083 137.446706 
L 784.383471 128.508859 
L 785.17686 129.522354 
L 785.970248 126.731553 
L 786.763636 117.900178 
L 787.557025 113.243429 
L 788.350413 117.50667 
L 789.143802 122.826702 
L 790.730579 128.680242 
L 791.523967 139.765085 
L 792.317355 155.104493 
L 793.110744 165.345781 
L 793.904132 168.076192 
L 794.697521 166.573611 
L 795.490909 171.243583 
L 796.284298 173.556607 
L 797.077686 153.040701 
L 797.871074 116.925808 
L 798.664463 96.794703 
L 799.457851 103.784217 
L 800.25124 131.298465 
L 801.044628 163.243188 
L 802.631405 221.646144 
L 803.424793 255.852055 
L 804.218182 280.640423 
L 805.01157 281.079828 
L 805.804959 263.228782 
L 806.598347 252.04386 
L 807.391736 253.913267 
L 808.185124 251.245438 
L 808.978512 233.885321 
L 809.771901 211.230225 
L 810.565289 199.55996 
L 811.358678 201.635186 
L 812.945455 218.517963 
L 813.738843 225.470309 
L 814.532231 237.923975 
L 815.32562 248.0005 
L 816.119008 243.594318 
L 816.912397 230.84832 
L 817.705785 225.230369 
L 818.499174 229.776393 
L 819.292562 237.844008 
L 820.08595 240.898167 
L 820.879339 242.132371 
L 821.672727 242.800853 
L 822.466116 241.615055 
L 823.259504 236.294106 
L 824.052893 225.170087 
L 824.846281 216.12591 
L 825.639669 215.827622 
L 826.433058 219.141004 
L 827.226446 215.890416 
L 828.019835 206.112902 
L 828.813223 202.463571 
L 829.606612 202.984442 
L 830.4 200.408989 
L 831.986777 184.785743 
L 832.780165 182.549054 
L 834.366942 194.167779 
L 835.160331 202.304553 
L 836.747107 231.109643 
L 837.540496 234.029508 
L 838.333884 220.449074 
L 839.127273 200.857373 
L 839.920661 196.645663 
L 840.71405 205.08389 
L 841.507438 197.283973 
L 843.094215 127.645185 
L 843.887603 111.417718 
L 844.680992 113.908008 
L 845.47438 122.095251 
L 846.267769 121.769329 
L 847.061157 119.161666 
L 847.854545 127.132306 
L 848.647934 139.152083 
L 849.441322 134.92402 
L 850.234711 118.341969 
L 851.028099 109.695533 
L 851.821488 111.364647 
L 852.614876 111.905043 
L 854.201653 92.388908 
L 854.995041 91.418215 
L 855.78843 97.777152 
L 856.581818 101.444419 
L 857.375207 95.312638 
L 858.168595 87.083358 
L 858.961983 89.965307 
L 859.755372 102.095394 
L 860.54876 104.919321 
L 861.342149 96.104198 
L 862.135537 92.14372 
L 862.928926 97.448781 
L 863.722314 100.810927 
L 864.515702 97.761827 
L 865.309091 91.412128 
L 866.102479 87.648521 
L 866.895868 90.205796 
L 867.689256 96.555756 
L 868.482645 108.82618 
L 870.069421 146.772585 
L 870.86281 151.41098 
L 872.449587 122.708483 
L 873.242975 129.575127 
L 874.036364 147.693267 
L 874.829752 150.122069 
L 876.416529 115.826945 
L 877.209917 118.54399 
L 878.796694 149.019306 
L 879.590083 154.416717 
L 880.383471 158.091515 
L 881.17686 165.984736 
L 881.970248 169.255122 
L 882.763636 162.118265 
L 883.557025 147.488874 
L 884.350413 145.929422 
L 885.143802 159.2356 
L 885.93719 161.821568 
L 886.730579 149.265775 
L 887.523967 138.792277 
L 888.317355 143.620066 
L 889.110744 165.252746 
L 889.904132 190.768253 
L 890.697521 201.797455 
L 891.490909 201.632613 
L 892.284298 201.062806 
L 893.077686 203.610065 
L 893.871074 201.11534 
L 894.664463 193.419727 
L 895.457851 187.698015 
L 896.25124 182.91864 
L 897.044628 180.322456 
L 897.838017 178.794869 
L 898.631405 181.703544 
L 899.424793 186.470278 
L 900.218182 193.231547 
L 901.804959 213.830744 
L 902.598347 226.735314 
L 903.391736 230.488703 
L 904.978512 196.788878 
L 905.771901 190.148583 
L 906.565289 197.080274 
L 907.358678 205.826782 
L 908.152066 187.528432 
L 908.945455 142.528681 
L 909.738843 108.418831 
L 910.532231 98.402928 
L 912.119008 111.420438 
L 912.912397 112.60016 
L 913.705785 112.672155 
L 914.499174 113.750464 
L 915.292562 115.146605 
L 916.08595 107.897427 
L 916.879339 99.113875 
L 917.672727 99.84311 
L 918.466116 103.914219 
L 919.259504 100.614668 
L 920.052893 89.389236 
L 920.846281 80.065269 
L 921.639669 79.706602 
L 923.226446 88.534655 
L 924.813223 99.990959 
L 925.606612 106.621869 
L 926.4 109.352473 
L 927.193388 104.140474 
L 927.986777 95.783795 
L 928.780165 89.658557 
L 929.573554 84.890075 
L 931.160331 60.052793 
L 931.953719 53.568 
L 932.747107 56.863821 
L 933.540496 73.906087 
L 934.333884 100.706547 
L 935.920661 176.137585 
L 936.71405 194.180766 
L 937.507438 188.670768 
L 938.300826 171.694959 
L 939.094215 162.372888 
L 939.887603 170.06741 
L 940.680992 180.819333 
L 941.47438 174.209357 
L 943.061157 127.063915 
L 943.854545 120.661728 
L 944.647934 124.318047 
L 945.441322 134.946896 
L 947.028099 162.090129 
L 947.821488 173.490404 
L 948.614876 178.683823 
L 949.408264 178.779322 
L 950.201653 181.788149 
L 950.995041 189.284567 
L 952.581818 213.708245 
L 953.375207 223.175886 
L 954.168595 228.745049 
L 954.961983 226.365318 
L 955.755372 210.782904 
L 956.54876 187.745589 
L 957.342149 170.742183 
L 958.135537 159.772183 
L 958.928926 152.68163 
L 959.722314 147.298449 
L 960.515702 155.023111 
L 961.309091 176.025568 
L 962.102479 191.80686 
L 962.895868 190.911898 
L 964.482645 159.810014 
L 965.276033 168.162819 
L 966.069421 190.197544 
L 966.86281 201.85218 
L 967.656198 200.931344 
L 968.449587 198.39285 
L 969.242975 201.177533 
L 970.036364 192.981114 
L 970.829752 170.1641 
L 971.62314 153.61364 
L 972.416529 151.374601 
L 973.209917 161.680008 
L 974.003306 164.341851 
L 974.796694 146.738137 
L 975.590083 122.550154 
L 976.383471 119.260038 
L 977.17686 136.84651 
L 977.970248 148.547421 
L 978.763636 143.747711 
L 981.93719 106.569875 
L 982.730579 99.217251 
L 983.523967 101.91865 
L 984.317355 111.157132 
L 985.110744 115.454496 
L 985.904132 106.255438 
L 986.697521 90.050173 
L 987.490909 86.088391 
L 988.284298 98.362942 
L 990.664463 146.276357 
L 991.457851 155.6135 
L 992.25124 158.336867 
L 993.044628 154.745054 
L 993.838017 147.611709 
L 994.631405 145.373597 
L 995.424793 150.393842 
L 996.218182 156.731054 
L 996.218182 156.731054 
" style="fill:none;stroke:#1f77b4;stroke-linecap:square;stroke-width:1.5;"/>
   </g>
   <g id="patch_3">
    <path d="M 144 307.584 
L 144 41.472 
" style="fill:none;stroke:#000000;stroke-linecap:square;stroke-linejoin:miter;stroke-width:0.8;"/>
   </g>
   <g id="patch_4">
    <path d="M 1036.8 307.584 
L 1036.8 41.472 
" style="fill:none;stroke:#000000;stroke-linecap:square;stroke-linejoin:miter;stroke-width:0.8;"/>
   </g>
   <g id="patch_5">
    <path d="M 144 307.584 
L 1036.8 307.584 
" style="fill:none;stroke:#000000;stroke-linecap:square;stroke-linejoin:miter;stroke-width:0.8;"/>
   </g>
   <g id="patch_6">
    <path d="M 144 41.472 
L 1036.8 41.472 
" style="fill:none;stroke:#000000;stroke-linecap:square;stroke-linejoin:miter;stroke-width:0.8;"/>
   </g>
   <g id="text_15">
    <!-- 12th layer's shape: torch.Size([2, 1, 1024]). Uniformly sampling 16 channels -->
    <g transform="translate(360.85125 35.472)scale(0.12 -0.12)">
     <defs>
      <path d="M 18.3125 70.21875 
L 18.3125 54.6875 
L 36.8125 54.6875 
L 36.8125 47.703125 
L 18.3125 47.703125 
L 18.3125 18.015625 
Q 18.3125 11.328125 20.140625 9.421875 
Q 21.96875 7.515625 27.59375 7.515625 
L 36.8125 7.515625 
L 36.8125 0 
L 27.59375 0 
Q 17.1875 0 13.234375 3.875 
Q 9.28125 7.765625 9.28125 18.015625 
L 9.28125 47.703125 
L 2.6875 47.703125 
L 2.6875 54.6875 
L 9.28125 54.6875 
L 9.28125 70.21875 
z
" id="DejaVuSans-116"/>
      <path d="M 54.890625 33.015625 
L 54.890625 0 
L 45.90625 0 
L 45.90625 32.71875 
Q 45.90625 40.484375 42.875 44.328125 
Q 39.84375 48.1875 33.796875 48.1875 
Q 26.515625 48.1875 22.3125 43.546875 
Q 18.109375 38.921875 18.109375 30.90625 
L 18.109375 0 
L 9.078125 0 
L 9.078125 75.984375 
L 18.109375 75.984375 
L 18.109375 46.1875 
Q 21.34375 51.125 25.703125 53.5625 
Q 30.078125 56 35.796875 56 
Q 45.21875 56 50.046875 50.171875 
Q 54.890625 44.34375 54.890625 33.015625 
z
" id="DejaVuSans-104"/>
      <path id="DejaVuSans-32"/>
      <path d="M 9.421875 75.984375 
L 18.40625 75.984375 
L 18.40625 0 
L 9.421875 0 
z
" id="DejaVuSans-108"/>
      <path d="M 34.28125 27.484375 
Q 23.390625 27.484375 19.1875 25 
Q 14.984375 22.515625 14.984375 16.5 
Q 14.984375 11.71875 18.140625 8.90625 
Q 21.296875 6.109375 26.703125 6.109375 
Q 34.1875 6.109375 38.703125 11.40625 
Q 43.21875 16.703125 43.21875 25.484375 
L 43.21875 27.484375 
z
M 52.203125 31.203125 
L 52.203125 0 
L 43.21875 0 
L 43.21875 8.296875 
Q 40.140625 3.328125 35.546875 0.953125 
Q 30.953125 -1.421875 24.3125 -1.421875 
Q 15.921875 -1.421875 10.953125 3.296875 
Q 6 8.015625 6 15.921875 
Q 6 25.140625 12.171875 29.828125 
Q 18.359375 34.515625 30.609375 34.515625 
L 43.21875 34.515625 
L 43.21875 35.40625 
Q 43.21875 41.609375 39.140625 45 
Q 35.0625 48.390625 27.6875 48.390625 
Q 23 48.390625 18.546875 47.265625 
Q 14.109375 46.140625 10.015625 43.890625 
L 10.015625 52.203125 
Q 14.9375 54.109375 19.578125 55.046875 
Q 24.21875 56 28.609375 56 
Q 40.484375 56 46.34375 49.84375 
Q 52.203125 43.703125 52.203125 31.203125 
z
" id="DejaVuSans-97"/>
      <path d="M 32.171875 -5.078125 
Q 28.375 -14.84375 24.75 -17.8125 
Q 21.140625 -20.796875 15.09375 -20.796875 
L 7.90625 -20.796875 
L 7.90625 -13.28125 
L 13.1875 -13.28125 
Q 16.890625 -13.28125 18.9375 -11.515625 
Q 21 -9.765625 23.484375 -3.21875 
L 25.09375 0.875 
L 2.984375 54.6875 
L 12.5 54.6875 
L 29.59375 11.921875 
L 46.6875 54.6875 
L 56.203125 54.6875 
z
" id="DejaVuSans-121"/>
      <path d="M 56.203125 29.59375 
L 56.203125 25.203125 
L 14.890625 25.203125 
Q 15.484375 15.921875 20.484375 11.0625 
Q 25.484375 6.203125 34.421875 6.203125 
Q 39.59375 6.203125 44.453125 7.46875 
Q 49.3125 8.734375 54.109375 11.28125 
L 54.109375 2.78125 
Q 49.265625 0.734375 44.1875 -0.34375 
Q 39.109375 -1.421875 33.890625 -1.421875 
Q 20.796875 -1.421875 13.15625 6.1875 
Q 5.515625 13.8125 5.515625 26.8125 
Q 5.515625 40.234375 12.765625 48.109375 
Q 20.015625 56 32.328125 56 
Q 43.359375 56 49.78125 48.890625 
Q 56.203125 41.796875 56.203125 29.59375 
z
M 47.21875 32.234375 
Q 47.125 39.59375 43.09375 43.984375 
Q 39.0625 48.390625 32.421875 48.390625 
Q 24.90625 48.390625 20.390625 44.140625 
Q 15.875 39.890625 15.1875 32.171875 
z
" id="DejaVuSans-101"/>
      <path d="M 41.109375 46.296875 
Q 39.59375 47.171875 37.8125 47.578125 
Q 36.03125 48 33.890625 48 
Q 26.265625 48 22.1875 43.046875 
Q 18.109375 38.09375 18.109375 28.8125 
L 18.109375 0 
L 9.078125 0 
L 9.078125 54.6875 
L 18.109375 54.6875 
L 18.109375 46.1875 
Q 20.953125 51.171875 25.484375 53.578125 
Q 30.03125 56 36.53125 56 
Q 37.453125 56 38.578125 55.875 
Q 39.703125 55.765625 41.0625 55.515625 
z
" id="DejaVuSans-114"/>
      <path d="M 17.921875 72.90625 
L 17.921875 45.796875 
L 9.625 45.796875 
L 9.625 72.90625 
z
" id="DejaVuSans-39"/>
      <path d="M 44.28125 53.078125 
L 44.28125 44.578125 
Q 40.484375 46.53125 36.375 47.5 
Q 32.28125 48.484375 27.875 48.484375 
Q 21.1875 48.484375 17.84375 46.4375 
Q 14.5 44.390625 14.5 40.28125 
Q 14.5 37.15625 16.890625 35.375 
Q 19.28125 33.59375 26.515625 31.984375 
L 29.59375 31.296875 
Q 39.15625 29.25 43.1875 25.515625 
Q 47.21875 21.78125 47.21875 15.09375 
Q 47.21875 7.46875 41.1875 3.015625 
Q 35.15625 -1.421875 24.609375 -1.421875 
Q 20.21875 -1.421875 15.453125 -0.5625 
Q 10.6875 0.296875 5.421875 2 
L 5.421875 11.28125 
Q 10.40625 8.6875 15.234375 7.390625 
Q 20.0625 6.109375 24.8125 6.109375 
Q 31.15625 6.109375 34.5625 8.28125 
Q 37.984375 10.453125 37.984375 14.40625 
Q 37.984375 18.0625 35.515625 20.015625 
Q 33.0625 21.96875 24.703125 23.78125 
L 21.578125 24.515625 
Q 13.234375 26.265625 9.515625 29.90625 
Q 5.8125 33.546875 5.8125 39.890625 
Q 5.8125 47.609375 11.28125 51.796875 
Q 16.75 56 26.8125 56 
Q 31.78125 56 36.171875 55.265625 
Q 40.578125 54.546875 44.28125 53.078125 
z
" id="DejaVuSans-115"/>
      <path d="M 18.109375 8.203125 
L 18.109375 -20.796875 
L 9.078125 -20.796875 
L 9.078125 54.6875 
L 18.109375 54.6875 
L 18.109375 46.390625 
Q 20.953125 51.265625 25.265625 53.625 
Q 29.59375 56 35.59375 56 
Q 45.5625 56 51.78125 48.09375 
Q 58.015625 40.1875 58.015625 27.296875 
Q 58.015625 14.40625 51.78125 6.484375 
Q 45.5625 -1.421875 35.59375 -1.421875 
Q 29.59375 -1.421875 25.265625 0.953125 
Q 20.953125 3.328125 18.109375 8.203125 
z
M 48.6875 27.296875 
Q 48.6875 37.203125 44.609375 42.84375 
Q 40.53125 48.484375 33.40625 48.484375 
Q 26.265625 48.484375 22.1875 42.84375 
Q 18.109375 37.203125 18.109375 27.296875 
Q 18.109375 17.390625 22.1875 11.75 
Q 26.265625 6.109375 33.40625 6.109375 
Q 40.53125 6.109375 44.609375 11.75 
Q 48.6875 17.390625 48.6875 27.296875 
z
" id="DejaVuSans-112"/>
      <path d="M 11.71875 12.40625 
L 22.015625 12.40625 
L 22.015625 0 
L 11.71875 0 
z
M 11.71875 51.703125 
L 22.015625 51.703125 
L 22.015625 39.3125 
L 11.71875 39.3125 
z
" id="DejaVuSans-58"/>
      <path d="M 30.609375 48.390625 
Q 23.390625 48.390625 19.1875 42.75 
Q 14.984375 37.109375 14.984375 27.296875 
Q 14.984375 17.484375 19.15625 11.84375 
Q 23.34375 6.203125 30.609375 6.203125 
Q 37.796875 6.203125 41.984375 11.859375 
Q 46.1875 17.53125 46.1875 27.296875 
Q 46.1875 37.015625 41.984375 42.703125 
Q 37.796875 48.390625 30.609375 48.390625 
z
M 30.609375 56 
Q 42.328125 56 49.015625 48.375 
Q 55.71875 40.765625 55.71875 27.296875 
Q 55.71875 13.875 49.015625 6.21875 
Q 42.328125 -1.421875 30.609375 -1.421875 
Q 18.84375 -1.421875 12.171875 6.21875 
Q 5.515625 13.875 5.515625 27.296875 
Q 5.515625 40.765625 12.171875 48.375 
Q 18.84375 56 30.609375 56 
z
" id="DejaVuSans-111"/>
      <path d="M 48.78125 52.59375 
L 48.78125 44.1875 
Q 44.96875 46.296875 41.140625 47.34375 
Q 37.3125 48.390625 33.40625 48.390625 
Q 24.65625 48.390625 19.8125 42.84375 
Q 14.984375 37.3125 14.984375 27.296875 
Q 14.984375 17.28125 19.8125 11.734375 
Q 24.65625 6.203125 33.40625 6.203125 
Q 37.3125 6.203125 41.140625 7.25 
Q 44.96875 8.296875 48.78125 10.40625 
L 48.78125 2.09375 
Q 45.015625 0.34375 40.984375 -0.53125 
Q 36.96875 -1.421875 32.421875 -1.421875 
Q 20.0625 -1.421875 12.78125 6.34375 
Q 5.515625 14.109375 5.515625 27.296875 
Q 5.515625 40.671875 12.859375 48.328125 
Q 20.21875 56 33.015625 56 
Q 37.15625 56 41.109375 55.140625 
Q 45.0625 54.296875 48.78125 52.59375 
z
" id="DejaVuSans-99"/>
      <path d="M 53.515625 70.515625 
L 53.515625 60.890625 
Q 47.90625 63.578125 42.921875 64.890625 
Q 37.9375 66.21875 33.296875 66.21875 
Q 25.25 66.21875 20.875 63.09375 
Q 16.5 59.96875 16.5 54.203125 
Q 16.5 49.359375 19.40625 46.890625 
Q 22.3125 44.4375 30.421875 42.921875 
L 36.375 41.703125 
Q 47.40625 39.59375 52.65625 34.296875 
Q 57.90625 29 57.90625 20.125 
Q 57.90625 9.515625 50.796875 4.046875 
Q 43.703125 -1.421875 29.984375 -1.421875 
Q 24.8125 -1.421875 18.96875 -0.25 
Q 13.140625 0.921875 6.890625 3.21875 
L 6.890625 13.375 
Q 12.890625 10.015625 18.65625 8.296875 
Q 24.421875 6.59375 29.984375 6.59375 
Q 38.421875 6.59375 43.015625 9.90625 
Q 47.609375 13.234375 47.609375 19.390625 
Q 47.609375 24.75 44.3125 27.78125 
Q 41.015625 30.8125 33.5 32.328125 
L 27.484375 33.5 
Q 16.453125 35.6875 11.515625 40.375 
Q 6.59375 45.0625 6.59375 53.421875 
Q 6.59375 63.09375 13.40625 68.65625 
Q 20.21875 74.21875 32.171875 74.21875 
Q 37.3125 74.21875 42.625 73.28125 
Q 47.953125 72.359375 53.515625 70.515625 
z
" id="DejaVuSans-83"/>
      <path d="M 9.421875 54.6875 
L 18.40625 54.6875 
L 18.40625 0 
L 9.421875 0 
z
M 9.421875 75.984375 
L 18.40625 75.984375 
L 18.40625 64.59375 
L 9.421875 64.59375 
z
" id="DejaVuSans-105"/>
      <path d="M 5.515625 54.6875 
L 48.1875 54.6875 
L 48.1875 46.484375 
L 14.40625 7.171875 
L 48.1875 7.171875 
L 48.1875 0 
L 4.296875 0 
L 4.296875 8.203125 
L 38.09375 47.515625 
L 5.515625 47.515625 
z
" id="DejaVuSans-122"/>
      <path d="M 31 75.875 
Q 24.46875 64.65625 21.28125 53.65625 
Q 18.109375 42.671875 18.109375 31.390625 
Q 18.109375 20.125 21.3125 9.0625 
Q 24.515625 -2 31 -13.1875 
L 23.1875 -13.1875 
Q 15.875 -1.703125 12.234375 9.375 
Q 8.59375 20.453125 8.59375 31.390625 
Q 8.59375 42.28125 12.203125 53.3125 
Q 15.828125 64.359375 23.1875 75.875 
z
" id="DejaVuSans-40"/>
      <path d="M 8.59375 75.984375 
L 29.296875 75.984375 
L 29.296875 69 
L 17.578125 69 
L 17.578125 -6.203125 
L 29.296875 -6.203125 
L 29.296875 -13.1875 
L 8.59375 -13.1875 
z
" id="DejaVuSans-91"/>
      <path d="M 11.71875 12.40625 
L 22.015625 12.40625 
L 22.015625 4 
L 14.015625 -11.625 
L 7.71875 -11.625 
L 11.71875 4 
z
" id="DejaVuSans-44"/>
      <path d="M 30.421875 75.984375 
L 30.421875 -13.1875 
L 9.71875 -13.1875 
L 9.71875 -6.203125 
L 21.390625 -6.203125 
L 21.390625 69 
L 9.71875 69 
L 9.71875 75.984375 
z
" id="DejaVuSans-93"/>
      <path d="M 8.015625 75.875 
L 15.828125 75.875 
Q 23.140625 64.359375 26.78125 53.3125 
Q 30.421875 42.28125 30.421875 31.390625 
Q 30.421875 20.453125 26.78125 9.375 
Q 23.140625 -1.703125 15.828125 -13.1875 
L 8.015625 -13.1875 
Q 14.5 -2 17.703125 9.0625 
Q 20.90625 20.125 20.90625 31.390625 
Q 20.90625 42.671875 17.703125 53.65625 
Q 14.5 64.65625 8.015625 75.875 
z
" id="DejaVuSans-41"/>
      <path d="M 8.6875 72.90625 
L 18.609375 72.90625 
L 18.609375 28.609375 
Q 18.609375 16.890625 22.84375 11.734375 
Q 27.09375 6.59375 36.625 6.59375 
Q 46.09375 6.59375 50.34375 11.734375 
Q 54.59375 16.890625 54.59375 28.609375 
L 54.59375 72.90625 
L 64.5 72.90625 
L 64.5 27.390625 
Q 64.5 13.140625 57.4375 5.859375 
Q 50.390625 -1.421875 36.625 -1.421875 
Q 22.796875 -1.421875 15.734375 5.859375 
Q 8.6875 13.140625 8.6875 27.390625 
z
" id="DejaVuSans-85"/>
      <path d="M 54.890625 33.015625 
L 54.890625 0 
L 45.90625 0 
L 45.90625 32.71875 
Q 45.90625 40.484375 42.875 44.328125 
Q 39.84375 48.1875 33.796875 48.1875 
Q 26.515625 48.1875 22.3125 43.546875 
Q 18.109375 38.921875 18.109375 30.90625 
L 18.109375 0 
L 9.078125 0 
L 9.078125 54.6875 
L 18.109375 54.6875 
L 18.109375 46.1875 
Q 21.34375 51.125 25.703125 53.5625 
Q 30.078125 56 35.796875 56 
Q 45.21875 56 50.046875 50.171875 
Q 54.890625 44.34375 54.890625 33.015625 
z
" id="DejaVuSans-110"/>
      <path d="M 37.109375 75.984375 
L 37.109375 68.5 
L 28.515625 68.5 
Q 23.6875 68.5 21.796875 66.546875 
Q 19.921875 64.59375 19.921875 59.515625 
L 19.921875 54.6875 
L 34.71875 54.6875 
L 34.71875 47.703125 
L 19.921875 47.703125 
L 19.921875 0 
L 10.890625 0 
L 10.890625 47.703125 
L 2.296875 47.703125 
L 2.296875 54.6875 
L 10.890625 54.6875 
L 10.890625 58.5 
Q 10.890625 67.625 15.140625 71.796875 
Q 19.390625 75.984375 28.609375 75.984375 
z
" id="DejaVuSans-102"/>
      <path d="M 52 44.1875 
Q 55.375 50.25 60.0625 53.125 
Q 64.75 56 71.09375 56 
Q 79.640625 56 84.28125 50.015625 
Q 88.921875 44.046875 88.921875 33.015625 
L 88.921875 0 
L 79.890625 0 
L 79.890625 32.71875 
Q 79.890625 40.578125 77.09375 44.375 
Q 74.3125 48.1875 68.609375 48.1875 
Q 61.625 48.1875 57.5625 43.546875 
Q 53.515625 38.921875 53.515625 30.90625 
L 53.515625 0 
L 44.484375 0 
L 44.484375 32.71875 
Q 44.484375 40.625 41.703125 44.40625 
Q 38.921875 48.1875 33.109375 48.1875 
Q 26.21875 48.1875 22.15625 43.53125 
Q 18.109375 38.875 18.109375 30.90625 
L 18.109375 0 
L 9.078125 0 
L 9.078125 54.6875 
L 18.109375 54.6875 
L 18.109375 46.1875 
Q 21.1875 51.21875 25.484375 53.609375 
Q 29.78125 56 35.6875 56 
Q 41.65625 56 45.828125 52.96875 
Q 50 49.953125 52 44.1875 
z
" id="DejaVuSans-109"/>
      <path d="M 45.40625 27.984375 
Q 45.40625 37.75 41.375 43.109375 
Q 37.359375 48.484375 30.078125 48.484375 
Q 22.859375 48.484375 18.828125 43.109375 
Q 14.796875 37.75 14.796875 27.984375 
Q 14.796875 18.265625 18.828125 12.890625 
Q 22.859375 7.515625 30.078125 7.515625 
Q 37.359375 7.515625 41.375 12.890625 
Q 45.40625 18.265625 45.40625 27.984375 
z
M 54.390625 6.78125 
Q 54.390625 -7.171875 48.1875 -13.984375 
Q 42 -20.796875 29.203125 -20.796875 
Q 24.46875 -20.796875 20.265625 -20.09375 
Q 16.0625 -19.390625 12.109375 -17.921875 
L 12.109375 -9.1875 
Q 16.0625 -11.328125 19.921875 -12.34375 
Q 23.78125 -13.375 27.78125 -13.375 
Q 36.625 -13.375 41.015625 -8.765625 
Q 45.40625 -4.15625 45.40625 5.171875 
L 45.40625 9.625 
Q 42.625 4.78125 38.28125 2.390625 
Q 33.9375 0 27.875 0 
Q 17.828125 0 11.671875 7.65625 
Q 5.515625 15.328125 5.515625 27.984375 
Q 5.515625 40.671875 11.671875 48.328125 
Q 17.828125 56 27.875 56 
Q 33.9375 56 38.28125 53.609375 
Q 42.625 51.21875 45.40625 46.390625 
L 45.40625 54.6875 
L 54.390625 54.6875 
z
" id="DejaVuSans-103"/>
     </defs>
     <use xlink:href="#DejaVuSans-49"/>
     <use x="63.623047" xlink:href="#DejaVuSans-50"/>
     <use x="127.246094" xlink:href="#DejaVuSans-116"/>
     <use x="166.455078" xlink:href="#DejaVuSans-104"/>
     <use x="229.833984" xlink:href="#DejaVuSans-32"/>
     <use x="261.621094" xlink:href="#DejaVuSans-108"/>
     <use x="289.404297" xlink:href="#DejaVuSans-97"/>
     <use x="350.683594" xlink:href="#DejaVuSans-121"/>
     <use x="409.863281" xlink:href="#DejaVuSans-101"/>
     <use x="471.386719" xlink:href="#DejaVuSans-114"/>
     <use x="512.5" xlink:href="#DejaVuSans-39"/>
     <use x="539.990234" xlink:href="#DejaVuSans-115"/>
     <use x="592.089844" xlink:href="#DejaVuSans-32"/>
     <use x="623.876953" xlink:href="#DejaVuSans-115"/>
     <use x="675.976562" xlink:href="#DejaVuSans-104"/>
     <use x="739.355469" xlink:href="#DejaVuSans-97"/>
     <use x="800.634766" xlink:href="#DejaVuSans-112"/>
     <use x="864.111328" xlink:href="#DejaVuSans-101"/>
     <use x="925.634766" xlink:href="#DejaVuSans-58"/>
     <use x="959.326172" xlink:href="#DejaVuSans-32"/>
     <use x="991.113281" xlink:href="#DejaVuSans-116"/>
     <use x="1030.322266" xlink:href="#DejaVuSans-111"/>
     <use x="1091.503906" xlink:href="#DejaVuSans-114"/>
     <use x="1130.367188" xlink:href="#DejaVuSans-99"/>
     <use x="1185.347656" xlink:href="#DejaVuSans-104"/>
     <use x="1248.726562" xlink:href="#DejaVuSans-46"/>
     <use x="1280.513672" xlink:href="#DejaVuSans-83"/>
     <use x="1343.990234" xlink:href="#DejaVuSans-105"/>
     <use x="1371.773438" xlink:href="#DejaVuSans-122"/>
     <use x="1424.263672" xlink:href="#DejaVuSans-101"/>
     <use x="1485.787109" xlink:href="#DejaVuSans-40"/>
     <use x="1524.800781" xlink:href="#DejaVuSans-91"/>
     <use x="1563.814453" xlink:href="#DejaVuSans-50"/>
     <use x="1627.4375" xlink:href="#DejaVuSans-44"/>
     <use x="1659.224609" xlink:href="#DejaVuSans-32"/>
     <use x="1691.011719" xlink:href="#DejaVuSans-49"/>
     <use x="1754.634766" xlink:href="#DejaVuSans-44"/>
     <use x="1786.421875" xlink:href="#DejaVuSans-32"/>
     <use x="1818.208984" xlink:href="#DejaVuSans-49"/>
     <use x="1881.832031" xlink:href="#DejaVuSans-48"/>
     <use x="1945.455078" xlink:href="#DejaVuSans-50"/>
     <use x="2009.078125" xlink:href="#DejaVuSans-52"/>
     <use x="2072.701172" xlink:href="#DejaVuSans-93"/>
     <use x="2111.714844" xlink:href="#DejaVuSans-41"/>
     <use x="2150.728516" xlink:href="#DejaVuSans-46"/>
     <use x="2182.515625" xlink:href="#DejaVuSans-32"/>
     <use x="2214.302734" xlink:href="#DejaVuSans-85"/>
     <use x="2287.496094" xlink:href="#DejaVuSans-110"/>
     <use x="2350.875" xlink:href="#DejaVuSans-105"/>
     <use x="2378.658203" xlink:href="#DejaVuSans-102"/>
     <use x="2413.863281" xlink:href="#DejaVuSans-111"/>
     <use x="2475.044922" xlink:href="#DejaVuSans-114"/>
     <use x="2514.408203" xlink:href="#DejaVuSans-109"/>
     <use x="2611.820312" xlink:href="#DejaVuSans-108"/>
     <use x="2639.603516" xlink:href="#DejaVuSans-121"/>
     <use x="2698.783203" xlink:href="#DejaVuSans-32"/>
     <use x="2730.570312" xlink:href="#DejaVuSans-115"/>
     <use x="2782.669922" xlink:href="#DejaVuSans-97"/>
     <use x="2843.949219" xlink:href="#DejaVuSans-109"/>
     <use x="2941.361328" xlink:href="#DejaVuSans-112"/>
     <use x="3004.837891" xlink:href="#DejaVuSans-108"/>
     <use x="3032.621094" xlink:href="#DejaVuSans-105"/>
     <use x="3060.404297" xlink:href="#DejaVuSans-110"/>
     <use x="3123.783203" xlink:href="#DejaVuSans-103"/>
     <use x="3187.259766" xlink:href="#DejaVuSans-32"/>
     <use x="3219.046875" xlink:href="#DejaVuSans-49"/>
     <use x="3282.669922" xlink:href="#DejaVuSans-54"/>
     <use x="3346.292969" xlink:href="#DejaVuSans-32"/>
     <use x="3378.080078" xlink:href="#DejaVuSans-99"/>
     <use x="3433.060547" xlink:href="#DejaVuSans-104"/>
     <use x="3496.439453" xlink:href="#DejaVuSans-97"/>
     <use x="3557.71875" xlink:href="#DejaVuSans-110"/>
     <use x="3621.097656" xlink:href="#DejaVuSans-110"/>
     <use x="3684.476562" xlink:href="#DejaVuSans-101"/>
     <use x="3746" xlink:href="#DejaVuSans-108"/>
     <use x="3773.783203" xlink:href="#DejaVuSans-115"/>
    </g>
   </g>
  </g>
 </g>
 <defs>
  <clipPath id="pb3f3cbfd68">
   <rect height="266.112" width="892.8" x="144" y="41.472"/>
  </clipPath>
 </defs>
</svg>
