<?xml version="1.0" encoding="utf-8" standalone="no"?>
<!DOCTYPE svg PUBLIC "-//W3C//DTD SVG 1.1//EN"
  "http://www.w3.org/Graphics/SVG/1.1/DTD/svg11.dtd">
<!-- Created with matplotlib (https://matplotlib.org/) -->
<svg height="345.6pt" version="1.1" viewBox="0 0 1152 345.6" width="1152pt" xmlns="http://www.w3.org/2000/svg" xmlns:xlink="http://www.w3.org/1999/xlink">
 <metadata>
  <rdf:RDF xmlns:cc="http://creativecommons.org/ns#" xmlns:dc="http://purl.org/dc/elements/1.1/" xmlns:rdf="http://www.w3.org/1999/02/22-rdf-syntax-ns#">
   <cc:Work>
    <dc:type rdf:resource="http://purl.org/dc/dcmitype/StillImage"/>
    <dc:date>2021-12-24T07:14:18.360478</dc:date>
    <dc:format>image/svg+xml</dc:format>
    <dc:creator>
     <cc:Agent>
      <dc:title>Matplotlib v3.3.3, https://matplotlib.org/</dc:title>
     </cc:Agent>
    </dc:creator>
   </cc:Work>
  </rdf:RDF>
 </metadata>
 <defs>
  <style type="text/css">*{stroke-linecap:butt;stroke-linejoin:round;}</style>
 </defs>
 <g id="figure_1">
  <g id="patch_1">
   <path d="M 0 345.6 
L 1152 345.6 
L 1152 0 
L 0 0 
z
" style="fill:#ffffff;"/>
  </g>
  <g id="axes_1">
   <g id="patch_2">
    <path d="M 144 307.584 
L 1036.8 307.584 
L 1036.8 41.472 
L 144 41.472 
z
" style="fill:#ffffff;"/>
   </g>
   <g id="matplotlib.axis_1">
    <g id="xtick_1">
     <g id="line2d_1">
      <defs>
       <path d="M 0 0 
L 0 3.5 
" id="m4f9d06bddd" style="stroke:#000000;stroke-width:0.8;"/>
      </defs>
      <g>
       <use style="stroke:#000000;stroke-width:0.8;" x="184.581818" xlink:href="#m4f9d06bddd" y="307.584"/>
      </g>
     </g>
     <g id="text_1">
      <!-- 0 -->
      <g transform="translate(181.400568 322.182437)scale(0.1 -0.1)">
       <defs>
        <path d="M 31.78125 66.40625 
Q 24.171875 66.40625 20.328125 58.90625 
Q 16.5 51.421875 16.5 36.375 
Q 16.5 21.390625 20.328125 13.890625 
Q 24.171875 6.390625 31.78125 6.390625 
Q 39.453125 6.390625 43.28125 13.890625 
Q 47.125 21.390625 47.125 36.375 
Q 47.125 51.421875 43.28125 58.90625 
Q 39.453125 66.40625 31.78125 66.40625 
z
M 31.78125 74.21875 
Q 44.046875 74.21875 50.515625 64.515625 
Q 56.984375 54.828125 56.984375 36.375 
Q 56.984375 17.96875 50.515625 8.265625 
Q 44.046875 -1.421875 31.78125 -1.421875 
Q 19.53125 -1.421875 13.0625 8.265625 
Q 6.59375 17.96875 6.59375 36.375 
Q 6.59375 54.828125 13.0625 64.515625 
Q 19.53125 74.21875 31.78125 74.21875 
z
" id="DejaVuSans-48"/>
       </defs>
       <use xlink:href="#DejaVuSans-48"/>
      </g>
     </g>
    </g>
    <g id="xtick_2">
     <g id="line2d_2">
      <g>
       <use style="stroke:#000000;stroke-width:0.8;" x="313.412987" xlink:href="#m4f9d06bddd" y="307.584"/>
      </g>
     </g>
     <g id="text_2">
      <!-- 10 -->
      <g transform="translate(307.050487 322.182437)scale(0.1 -0.1)">
       <defs>
        <path d="M 12.40625 8.296875 
L 28.515625 8.296875 
L 28.515625 63.921875 
L 10.984375 60.40625 
L 10.984375 69.390625 
L 28.421875 72.90625 
L 38.28125 72.90625 
L 38.28125 8.296875 
L 54.390625 8.296875 
L 54.390625 0 
L 12.40625 0 
z
" id="DejaVuSans-49"/>
       </defs>
       <use xlink:href="#DejaVuSans-49"/>
       <use x="63.623047" xlink:href="#DejaVuSans-48"/>
      </g>
     </g>
    </g>
    <g id="xtick_3">
     <g id="line2d_3">
      <g>
       <use style="stroke:#000000;stroke-width:0.8;" x="442.244156" xlink:href="#m4f9d06bddd" y="307.584"/>
      </g>
     </g>
     <g id="text_3">
      <!-- 20 -->
      <g transform="translate(435.881656 322.182437)scale(0.1 -0.1)">
       <defs>
        <path d="M 19.1875 8.296875 
L 53.609375 8.296875 
L 53.609375 0 
L 7.328125 0 
L 7.328125 8.296875 
Q 12.9375 14.109375 22.625 23.890625 
Q 32.328125 33.6875 34.8125 36.53125 
Q 39.546875 41.84375 41.421875 45.53125 
Q 43.3125 49.21875 43.3125 52.78125 
Q 43.3125 58.59375 39.234375 62.25 
Q 35.15625 65.921875 28.609375 65.921875 
Q 23.96875 65.921875 18.8125 64.3125 
Q 13.671875 62.703125 7.8125 59.421875 
L 7.8125 69.390625 
Q 13.765625 71.78125 18.9375 73 
Q 24.125 74.21875 28.421875 74.21875 
Q 39.75 74.21875 46.484375 68.546875 
Q 53.21875 62.890625 53.21875 53.421875 
Q 53.21875 48.921875 51.53125 44.890625 
Q 49.859375 40.875 45.40625 35.40625 
Q 44.1875 33.984375 37.640625 27.21875 
Q 31.109375 20.453125 19.1875 8.296875 
z
" id="DejaVuSans-50"/>
       </defs>
       <use xlink:href="#DejaVuSans-50"/>
       <use x="63.623047" xlink:href="#DejaVuSans-48"/>
      </g>
     </g>
    </g>
    <g id="xtick_4">
     <g id="line2d_4">
      <g>
       <use style="stroke:#000000;stroke-width:0.8;" x="571.075325" xlink:href="#m4f9d06bddd" y="307.584"/>
      </g>
     </g>
     <g id="text_4">
      <!-- 30 -->
      <g transform="translate(564.712825 322.182437)scale(0.1 -0.1)">
       <defs>
        <path d="M 40.578125 39.3125 
Q 47.65625 37.796875 51.625 33 
Q 55.609375 28.21875 55.609375 21.1875 
Q 55.609375 10.40625 48.1875 4.484375 
Q 40.765625 -1.421875 27.09375 -1.421875 
Q 22.515625 -1.421875 17.65625 -0.515625 
Q 12.796875 0.390625 7.625 2.203125 
L 7.625 11.71875 
Q 11.71875 9.328125 16.59375 8.109375 
Q 21.484375 6.890625 26.8125 6.890625 
Q 36.078125 6.890625 40.9375 10.546875 
Q 45.796875 14.203125 45.796875 21.1875 
Q 45.796875 27.640625 41.28125 31.265625 
Q 36.765625 34.90625 28.71875 34.90625 
L 20.21875 34.90625 
L 20.21875 43.015625 
L 29.109375 43.015625 
Q 36.375 43.015625 40.234375 45.921875 
Q 44.09375 48.828125 44.09375 54.296875 
Q 44.09375 59.90625 40.109375 62.90625 
Q 36.140625 65.921875 28.71875 65.921875 
Q 24.65625 65.921875 20.015625 65.03125 
Q 15.375 64.15625 9.8125 62.3125 
L 9.8125 71.09375 
Q 15.4375 72.65625 20.34375 73.4375 
Q 25.25 74.21875 29.59375 74.21875 
Q 40.828125 74.21875 47.359375 69.109375 
Q 53.90625 64.015625 53.90625 55.328125 
Q 53.90625 49.265625 50.4375 45.09375 
Q 46.96875 40.921875 40.578125 39.3125 
z
" id="DejaVuSans-51"/>
       </defs>
       <use xlink:href="#DejaVuSans-51"/>
       <use x="63.623047" xlink:href="#DejaVuSans-48"/>
      </g>
     </g>
    </g>
    <g id="xtick_5">
     <g id="line2d_5">
      <g>
       <use style="stroke:#000000;stroke-width:0.8;" x="699.906494" xlink:href="#m4f9d06bddd" y="307.584"/>
      </g>
     </g>
     <g id="text_5">
      <!-- 40 -->
      <g transform="translate(693.543994 322.182437)scale(0.1 -0.1)">
       <defs>
        <path d="M 37.796875 64.3125 
L 12.890625 25.390625 
L 37.796875 25.390625 
z
M 35.203125 72.90625 
L 47.609375 72.90625 
L 47.609375 25.390625 
L 58.015625 25.390625 
L 58.015625 17.1875 
L 47.609375 17.1875 
L 47.609375 0 
L 37.796875 0 
L 37.796875 17.1875 
L 4.890625 17.1875 
L 4.890625 26.703125 
z
" id="DejaVuSans-52"/>
       </defs>
       <use xlink:href="#DejaVuSans-52"/>
       <use x="63.623047" xlink:href="#DejaVuSans-48"/>
      </g>
     </g>
    </g>
    <g id="xtick_6">
     <g id="line2d_6">
      <g>
       <use style="stroke:#000000;stroke-width:0.8;" x="828.737662" xlink:href="#m4f9d06bddd" y="307.584"/>
      </g>
     </g>
     <g id="text_6">
      <!-- 50 -->
      <g transform="translate(822.375162 322.182437)scale(0.1 -0.1)">
       <defs>
        <path d="M 10.796875 72.90625 
L 49.515625 72.90625 
L 49.515625 64.59375 
L 19.828125 64.59375 
L 19.828125 46.734375 
Q 21.96875 47.46875 24.109375 47.828125 
Q 26.265625 48.1875 28.421875 48.1875 
Q 40.625 48.1875 47.75 41.5 
Q 54.890625 34.8125 54.890625 23.390625 
Q 54.890625 11.625 47.5625 5.09375 
Q 40.234375 -1.421875 26.90625 -1.421875 
Q 22.3125 -1.421875 17.546875 -0.640625 
Q 12.796875 0.140625 7.71875 1.703125 
L 7.71875 11.625 
Q 12.109375 9.234375 16.796875 8.0625 
Q 21.484375 6.890625 26.703125 6.890625 
Q 35.15625 6.890625 40.078125 11.328125 
Q 45.015625 15.765625 45.015625 23.390625 
Q 45.015625 31 40.078125 35.4375 
Q 35.15625 39.890625 26.703125 39.890625 
Q 22.75 39.890625 18.8125 39.015625 
Q 14.890625 38.140625 10.796875 36.28125 
z
" id="DejaVuSans-53"/>
       </defs>
       <use xlink:href="#DejaVuSans-53"/>
       <use x="63.623047" xlink:href="#DejaVuSans-48"/>
      </g>
     </g>
    </g>
    <g id="xtick_7">
     <g id="line2d_7">
      <g>
       <use style="stroke:#000000;stroke-width:0.8;" x="957.568831" xlink:href="#m4f9d06bddd" y="307.584"/>
      </g>
     </g>
     <g id="text_7">
      <!-- 60 -->
      <g transform="translate(951.206331 322.182437)scale(0.1 -0.1)">
       <defs>
        <path d="M 33.015625 40.375 
Q 26.375 40.375 22.484375 35.828125 
Q 18.609375 31.296875 18.609375 23.390625 
Q 18.609375 15.53125 22.484375 10.953125 
Q 26.375 6.390625 33.015625 6.390625 
Q 39.65625 6.390625 43.53125 10.953125 
Q 47.40625 15.53125 47.40625 23.390625 
Q 47.40625 31.296875 43.53125 35.828125 
Q 39.65625 40.375 33.015625 40.375 
z
M 52.59375 71.296875 
L 52.59375 62.3125 
Q 48.875 64.0625 45.09375 64.984375 
Q 41.3125 65.921875 37.59375 65.921875 
Q 27.828125 65.921875 22.671875 59.328125 
Q 17.53125 52.734375 16.796875 39.40625 
Q 19.671875 43.65625 24.015625 45.921875 
Q 28.375 48.1875 33.59375 48.1875 
Q 44.578125 48.1875 50.953125 41.515625 
Q 57.328125 34.859375 57.328125 23.390625 
Q 57.328125 12.15625 50.6875 5.359375 
Q 44.046875 -1.421875 33.015625 -1.421875 
Q 20.359375 -1.421875 13.671875 8.265625 
Q 6.984375 17.96875 6.984375 36.375 
Q 6.984375 53.65625 15.1875 63.9375 
Q 23.390625 74.21875 37.203125 74.21875 
Q 40.921875 74.21875 44.703125 73.484375 
Q 48.484375 72.75 52.59375 71.296875 
z
" id="DejaVuSans-54"/>
       </defs>
       <use xlink:href="#DejaVuSans-54"/>
       <use x="63.623047" xlink:href="#DejaVuSans-48"/>
      </g>
     </g>
    </g>
   </g>
   <g id="matplotlib.axis_2">
    <g id="ytick_1">
     <g id="line2d_8">
      <defs>
       <path d="M 0 0 
L -3.5 0 
" id="ma3d8ed25e6" style="stroke:#000000;stroke-width:0.8;"/>
      </defs>
      <g>
       <use style="stroke:#000000;stroke-width:0.8;" x="144" xlink:href="#ma3d8ed25e6" y="298.528151"/>
      </g>
     </g>
     <g id="text_8">
      <!-- −0.15 -->
      <g transform="translate(106.354687 302.32737)scale(0.1 -0.1)">
       <defs>
        <path d="M 10.59375 35.5 
L 73.1875 35.5 
L 73.1875 27.203125 
L 10.59375 27.203125 
z
" id="DejaVuSans-8722"/>
        <path d="M 10.6875 12.40625 
L 21 12.40625 
L 21 0 
L 10.6875 0 
z
" id="DejaVuSans-46"/>
       </defs>
       <use xlink:href="#DejaVuSans-8722"/>
       <use x="83.789062" xlink:href="#DejaVuSans-48"/>
       <use x="147.412109" xlink:href="#DejaVuSans-46"/>
       <use x="179.199219" xlink:href="#DejaVuSans-49"/>
       <use x="242.822266" xlink:href="#DejaVuSans-53"/>
      </g>
     </g>
    </g>
    <g id="ytick_2">
     <g id="line2d_9">
      <g>
       <use style="stroke:#000000;stroke-width:0.8;" x="144" xlink:href="#ma3d8ed25e6" y="256.96187"/>
      </g>
     </g>
     <g id="text_9">
      <!-- −0.10 -->
      <g transform="translate(106.354687 260.761089)scale(0.1 -0.1)">
       <use xlink:href="#DejaVuSans-8722"/>
       <use x="83.789062" xlink:href="#DejaVuSans-48"/>
       <use x="147.412109" xlink:href="#DejaVuSans-46"/>
       <use x="179.199219" xlink:href="#DejaVuSans-49"/>
       <use x="242.822266" xlink:href="#DejaVuSans-48"/>
      </g>
     </g>
    </g>
    <g id="ytick_3">
     <g id="line2d_10">
      <g>
       <use style="stroke:#000000;stroke-width:0.8;" x="144" xlink:href="#ma3d8ed25e6" y="215.395589"/>
      </g>
     </g>
     <g id="text_10">
      <!-- −0.05 -->
      <g transform="translate(106.354687 219.194808)scale(0.1 -0.1)">
       <use xlink:href="#DejaVuSans-8722"/>
       <use x="83.789062" xlink:href="#DejaVuSans-48"/>
       <use x="147.412109" xlink:href="#DejaVuSans-46"/>
       <use x="179.199219" xlink:href="#DejaVuSans-48"/>
       <use x="242.822266" xlink:href="#DejaVuSans-53"/>
      </g>
     </g>
    </g>
    <g id="ytick_4">
     <g id="line2d_11">
      <g>
       <use style="stroke:#000000;stroke-width:0.8;" x="144" xlink:href="#ma3d8ed25e6" y="173.829308"/>
      </g>
     </g>
     <g id="text_11">
      <!-- 0.00 -->
      <g transform="translate(114.734375 177.628527)scale(0.1 -0.1)">
       <use xlink:href="#DejaVuSans-48"/>
       <use x="63.623047" xlink:href="#DejaVuSans-46"/>
       <use x="95.410156" xlink:href="#DejaVuSans-48"/>
       <use x="159.033203" xlink:href="#DejaVuSans-48"/>
      </g>
     </g>
    </g>
    <g id="ytick_5">
     <g id="line2d_12">
      <g>
       <use style="stroke:#000000;stroke-width:0.8;" x="144" xlink:href="#ma3d8ed25e6" y="132.263027"/>
      </g>
     </g>
     <g id="text_12">
      <!-- 0.05 -->
      <g transform="translate(114.734375 136.062246)scale(0.1 -0.1)">
       <use xlink:href="#DejaVuSans-48"/>
       <use x="63.623047" xlink:href="#DejaVuSans-46"/>
       <use x="95.410156" xlink:href="#DejaVuSans-48"/>
       <use x="159.033203" xlink:href="#DejaVuSans-53"/>
      </g>
     </g>
    </g>
    <g id="ytick_6">
     <g id="line2d_13">
      <g>
       <use style="stroke:#000000;stroke-width:0.8;" x="144" xlink:href="#ma3d8ed25e6" y="90.696746"/>
      </g>
     </g>
     <g id="text_13">
      <!-- 0.10 -->
      <g transform="translate(114.734375 94.495964)scale(0.1 -0.1)">
       <use xlink:href="#DejaVuSans-48"/>
       <use x="63.623047" xlink:href="#DejaVuSans-46"/>
       <use x="95.410156" xlink:href="#DejaVuSans-49"/>
       <use x="159.033203" xlink:href="#DejaVuSans-48"/>
      </g>
     </g>
    </g>
    <g id="ytick_7">
     <g id="line2d_14">
      <g>
       <use style="stroke:#000000;stroke-width:0.8;" x="144" xlink:href="#ma3d8ed25e6" y="49.130465"/>
      </g>
     </g>
     <g id="text_14">
      <!-- 0.15 -->
      <g transform="translate(114.734375 52.929683)scale(0.1 -0.1)">
       <use xlink:href="#DejaVuSans-48"/>
       <use x="63.623047" xlink:href="#DejaVuSans-46"/>
       <use x="95.410156" xlink:href="#DejaVuSans-49"/>
       <use x="159.033203" xlink:href="#DejaVuSans-53"/>
      </g>
     </g>
    </g>
   </g>
   <g id="line2d_15">
    <path clip-path="url(#p77c3f3333a)" d="M 184.581818 203.836695 
L 197.464935 205.474645 
L 210.348052 181.269494 
L 223.231169 150.131151 
L 236.114286 125.850552 
L 248.997403 183.315586 
L 261.880519 225.511124 
L 274.763636 191.939884 
L 287.646753 176.047528 
L 300.52987 141.760283 
L 313.412987 149.690229 
L 326.296104 200.788749 
L 339.179221 211.695908 
L 352.062338 196.912055 
L 364.945455 150.040436 
L 377.828571 164.377906 
L 390.711688 185.920015 
L 403.594805 176.304961 
L 416.477922 211.384537 
L 429.361039 178.041344 
L 442.244156 135.262343 
L 455.127273 177.382554 
L 468.01039 207.349644 
L 480.893506 172.085724 
L 493.776623 162.83629 
L 506.65974 137.907747 
L 519.542857 173.535608 
L 532.425974 214.674219 
L 545.309091 187.884652 
L 558.192208 172.643086 
L 571.075325 139.403244 
L 583.958442 149.216272 
L 596.841558 182.227833 
L 609.724675 189.789418 
L 622.607792 192.07437 
L 635.490909 189.613299 
L 648.374026 183.341429 
L 661.257143 199.841039 
L 674.14026 176.799359 
L 687.023377 166.453898 
L 699.906494 165.780061 
L 712.78961 160.220213 
L 725.672727 217.883207 
L 738.555844 218.715232 
L 751.438961 170.692933 
L 764.322078 147.852183 
L 777.205195 104.876809 
L 790.088312 185.251655 
L 802.971429 254.956752 
L 815.854545 189.128281 
L 828.737662 155.02216 
L 841.620779 136.452772 
L 854.503896 140.845729 
L 867.387013 179.642128 
L 880.27013 212.776829 
L 893.153247 211.602833 
L 906.036364 182.013407 
L 918.919481 155.144293 
L 931.802597 172.156386 
L 944.685714 183.219012 
L 957.568831 191.002657 
L 970.451948 172.134197 
L 983.335065 146.878092 
L 996.218182 204.898158 
" style="fill:none;stroke:#1f77b4;stroke-linecap:square;stroke-width:1.5;"/>
   </g>
   <g id="line2d_16">
    <path clip-path="url(#p77c3f3333a)" d="M 184.581818 237.645147 
L 197.464935 139.351166 
L 210.348052 135.492015 
L 223.231169 164.094262 
L 236.114286 174.539474 
L 248.997403 138.080719 
L 261.880519 145.11554 
L 274.763636 124.24756 
L 287.646753 114.873028 
L 300.52987 172.682801 
L 313.412987 217.455958 
L 326.296104 207.051158 
L 339.179221 164.986447 
L 352.062338 142.368474 
L 364.945455 135.826056 
L 377.828571 195.540035 
L 390.711688 214.628744 
L 403.594805 162.713556 
L 416.477922 135.285611 
L 429.361039 193.53586 
L 442.244156 196.309949 
L 455.127273 190.058826 
L 468.01039 162.847189 
L 480.893506 179.956018 
L 493.776623 141.772073 
L 506.65974 122.577677 
L 519.542857 159.377652 
L 532.425974 151.59347 
L 545.309091 150.365852 
L 558.192208 145.003434 
L 571.075325 162.816177 
L 583.958442 179.666108 
L 596.841558 187.583141 
L 609.724675 164.475665 
L 622.607792 174.703678 
L 635.490909 186.499238 
L 648.374026 231.311288 
L 661.257143 189.301288 
L 674.14026 156.430203 
L 687.023377 167.994876 
L 699.906494 175.848059 
L 712.78961 181.137748 
L 725.672727 198.082309 
L 738.555844 161.948516 
L 751.438961 167.266506 
L 764.322078 164.263727 
L 777.205195 194.224362 
L 790.088312 197.764237 
L 802.971429 144.12076 
L 815.854545 142.325637 
L 828.737662 124.336529 
L 841.620779 160.109111 
L 854.503896 199.117547 
L 867.387013 212.774197 
L 880.27013 165.421529 
L 893.153247 171.236713 
L 906.036364 168.398073 
L 918.919481 211.361774 
L 931.802597 230.473105 
L 944.685714 194.409241 
L 957.568831 171.984957 
L 970.451948 163.460337 
L 983.335065 225.662579 
L 996.218182 210.278626 
" style="fill:none;stroke:#ff7f0e;stroke-linecap:square;stroke-width:1.5;"/>
   </g>
   <g id="line2d_17">
    <path clip-path="url(#p77c3f3333a)" d="M 184.581818 184.472597 
L 197.464935 199.811349 
L 210.348052 150.147246 
L 223.231169 176.80386 
L 236.114286 186.802423 
L 248.997403 176.58021 
L 261.880519 172.476157 
L 274.763636 149.682917 
L 287.646753 163.828816 
L 300.52987 154.904862 
L 313.412987 152.160676 
L 326.296104 154.154169 
L 339.179221 218.796628 
L 352.062338 236.713553 
L 364.945455 211.108216 
L 377.828571 161.336606 
L 390.711688 149.068312 
L 403.594805 145.515164 
L 416.477922 118.508544 
L 429.361039 145.63492 
L 442.244156 178.588091 
L 455.127273 159.861776 
L 468.01039 171.209246 
L 480.893506 162.423145 
L 493.776623 193.466628 
L 506.65974 182.701046 
L 519.542857 178.547643 
L 532.425974 152.464036 
L 545.309091 93.425597 
L 558.192208 144.154782 
L 571.075325 173.570168 
L 583.958442 170.982286 
L 596.841558 219.051862 
L 609.724675 261.07429 
L 622.607792 198.147121 
L 635.490909 153.448813 
L 648.374026 111.260466 
L 661.257143 88.058743 
L 674.14026 128.285553 
L 687.023377 153.884027 
L 699.906494 218.250683 
L 712.78961 220.078571 
L 725.672727 168.37646 
L 738.555844 141.372154 
L 751.438961 160.205061 
L 764.322078 203.514546 
L 777.205195 252.186865 
L 790.088312 283.037551 
L 802.971429 266.217794 
L 815.854545 193.610569 
L 828.737662 126.400254 
L 841.620779 114.779005 
L 854.503896 147.115323 
L 867.387013 206.174876 
L 880.27013 221.485156 
L 893.153247 158.236856 
L 906.036364 164.56223 
L 918.919481 132.154671 
L 931.802597 109.42745 
L 944.685714 143.682696 
L 957.568831 142.64489 
L 970.451948 150.008744 
L 983.335065 156.669765 
L 996.218182 142.234414 
" style="fill:none;stroke:#2ca02c;stroke-linecap:square;stroke-width:1.5;"/>
   </g>
   <g id="line2d_18">
    <path clip-path="url(#p77c3f3333a)" d="M 184.581818 210.650602 
L 197.464935 175.465517 
L 210.348052 186.966744 
L 223.231169 146.771564 
L 236.114286 157.691815 
L 248.997403 178.987132 
L 261.880519 163.702675 
L 274.763636 196.80605 
L 287.646753 179.216897 
L 300.52987 185.070879 
L 313.412987 171.430411 
L 326.296104 187.345125 
L 339.179221 164.676457 
L 352.062338 184.565069 
L 364.945455 156.020899 
L 377.828571 184.538854 
L 390.711688 192.629948 
L 403.594805 158.137619 
L 416.477922 186.88968 
L 429.361039 200.219323 
L 442.244156 165.649417 
L 455.127273 190.488158 
L 468.01039 168.980663 
L 480.893506 174.026143 
L 493.776623 175.514723 
L 506.65974 166.030402 
L 519.542857 178.109398 
L 532.425974 189.404778 
L 545.309091 200.195238 
L 558.192208 183.02983 
L 571.075325 143.982166 
L 583.958442 162.334439 
L 596.841558 193.481433 
L 609.724675 157.837892 
L 622.607792 202.065127 
L 635.490909 169.243842 
L 648.374026 188.503771 
L 661.257143 190.608409 
L 674.14026 123.305589 
L 687.023377 187.881752 
L 699.906494 153.350499 
L 712.78961 168.193573 
L 725.672727 179.969649 
L 738.555844 178.094368 
L 751.438961 175.185427 
L 764.322078 147.515812 
L 777.205195 171.939615 
L 790.088312 161.760683 
L 802.971429 192.747588 
L 815.854545 201.963916 
L 828.737662 169.046643 
L 841.620779 178.095904 
L 854.503896 163.8671 
L 867.387013 177.950165 
L 880.27013 159.12227 
L 893.153247 201.351059 
L 906.036364 171.425909 
L 918.919481 181.443444 
L 931.802597 167.507092 
L 944.685714 121.538469 
L 957.568831 164.480178 
L 970.451948 155.696408 
L 983.335065 198.176626 
L 996.218182 182.77719 
" style="fill:none;stroke:#d62728;stroke-linecap:square;stroke-width:1.5;"/>
   </g>
   <g id="line2d_19">
    <path clip-path="url(#p77c3f3333a)" d="M 184.581818 207.465236 
L 197.464935 199.493093 
L 210.348052 179.61086 
L 223.231169 152.482576 
L 236.114286 136.373571 
L 248.997403 177.158542 
L 261.880519 208.33971 
L 274.763636 185.100131 
L 287.646753 157.682397 
L 300.52987 139.154248 
L 313.412987 140.068923 
L 326.296104 205.29441 
L 339.179221 201.25214 
L 352.062338 193.67999 
L 364.945455 135.167621 
L 377.828571 158.576162 
L 390.711688 197.348677 
L 403.594805 187.262446 
L 416.477922 193.351752 
L 429.361039 180.661281 
L 442.244156 151.792707 
L 455.127273 171.654436 
L 468.01039 202.940143 
L 480.893506 201.936177 
L 493.776623 189.53899 
L 506.65974 156.166658 
L 519.542857 175.191517 
L 532.425974 188.476368 
L 545.309091 168.211712 
L 558.192208 159.261907 
L 571.075325 161.51626 
L 583.958442 157.111893 
L 596.841558 176.946842 
L 609.724675 184.724622 
L 622.607792 183.746142 
L 635.490909 153.933109 
L 648.374026 160.620902 
L 661.257143 178.66184 
L 674.14026 169.93377 
L 687.023377 160.835734 
L 699.906494 157.98864 
L 712.78961 146.643258 
L 725.672727 203.123286 
L 738.555844 207.943966 
L 751.438961 175.739864 
L 764.322078 188.841222 
L 777.205195 121.134939 
L 790.088312 192.020065 
L 802.971429 239.172199 
L 815.854545 192.452678 
L 828.737662 152.16707 
L 841.620779 123.951168 
L 854.503896 143.314849 
L 867.387013 176.69402 
L 880.27013 200.516148 
L 893.153247 201.076847 
L 906.036364 143.017475 
L 918.919481 124.016895 
L 931.802597 172.469748 
L 944.685714 178.865327 
L 957.568831 171.677038 
L 970.451948 169.008722 
L 983.335065 144.670084 
L 996.218182 213.323301 
" style="fill:none;stroke:#9467bd;stroke-linecap:square;stroke-width:1.5;"/>
   </g>
   <g id="line2d_20">
    <path clip-path="url(#p77c3f3333a)" d="M 184.581818 216.0281 
L 197.464935 131.887873 
L 210.348052 159.139126 
L 223.231169 209.815595 
L 236.114286 176.78242 
L 248.997403 141.370414 
L 261.880519 160.942994 
L 274.763636 155.308087 
L 287.646753 127.582395 
L 300.52987 176.790085 
L 313.412987 198.153967 
L 326.296104 181.2375 
L 339.179221 170.815325 
L 352.062338 151.399835 
L 364.945455 130.332661 
L 377.828571 159.224018 
L 390.711688 186.7674 
L 403.594805 177.204966 
L 416.477922 132.779328 
L 429.361039 188.775223 
L 442.244156 194.696222 
L 455.127273 179.426734 
L 468.01039 144.827225 
L 480.893506 193.339608 
L 493.776623 181.88404 
L 506.65974 160.650519 
L 519.542857 175.804143 
L 532.425974 139.633417 
L 545.309091 173.962742 
L 558.192208 158.464124 
L 571.075325 176.38861 
L 583.958442 181.436861 
L 596.841558 185.720256 
L 609.724675 151.142039 
L 622.607792 156.472602 
L 635.490909 180.807342 
L 648.374026 195.349752 
L 661.257143 185.06436 
L 674.14026 179.703631 
L 687.023377 150.619118 
L 699.906494 178.861561 
L 712.78961 147.154762 
L 725.672727 161.706504 
L 738.555844 166.25444 
L 751.438961 180.201089 
L 764.322078 183.23395 
L 777.205195 216.958567 
L 790.088312 170.061295 
L 802.971429 118.720034 
L 815.854545 167.455243 
L 828.737662 160.52208 
L 841.620779 172.517203 
L 854.503896 183.297931 
L 867.387013 196.523259 
L 880.27013 144.935497 
L 893.153247 163.060326 
L 906.036364 176.310797 
L 918.919481 174.720996 
L 931.802597 208.62892 
L 944.685714 208.781998 
L 957.568831 178.494833 
L 970.451948 145.984829 
L 983.335065 201.840002 
L 996.218182 193.165175 
" style="fill:none;stroke:#8c564b;stroke-linecap:square;stroke-width:1.5;"/>
   </g>
   <g id="line2d_21">
    <path clip-path="url(#p77c3f3333a)" d="M 184.581818 195.74319 
L 197.464935 166.339591 
L 210.348052 162.754757 
L 223.231169 161.027093 
L 236.114286 179.994099 
L 248.997403 167.323689 
L 261.880519 164.470665 
L 274.763636 211.439684 
L 287.646753 171.59916 
L 300.52987 175.116101 
L 313.412987 177.588262 
L 326.296104 199.0031 
L 339.179221 152.263054 
L 352.062338 164.595147 
L 364.945455 175.517194 
L 377.828571 184.884592 
L 390.711688 181.692881 
L 403.594805 181.48551 
L 416.477922 197.081391 
L 429.361039 196.252439 
L 442.244156 167.920386 
L 455.127273 188.077213 
L 468.01039 171.622388 
L 480.893506 182.55177 
L 493.776623 176.563179 
L 506.65974 166.816515 
L 519.542857 162.097033 
L 532.425974 188.065272 
L 545.309091 212.462442 
L 558.192208 156.442469 
L 571.075325 176.840707 
L 583.958442 184.59049 
L 596.841558 171.550215 
L 609.724675 142.87703 
L 622.607792 176.007571 
L 635.490909 186.731265 
L 648.374026 181.664061 
L 661.257143 185.087844 
L 674.14026 185.601866 
L 687.023377 182.72584 
L 699.906494 153.306294 
L 712.78961 168.096768 
L 725.672727 175.83354 
L 738.555844 177.175657 
L 751.438961 176.41366 
L 764.322078 164.64106 
L 777.205195 153.386682 
L 790.088312 147.269222 
L 802.971429 153.702199 
L 815.854545 173.893549 
L 828.737662 172.22626 
L 841.620779 201.713573 
L 854.503896 175.134332 
L 867.387013 166.7929 
L 880.27013 153.409889 
L 893.153247 180.19764 
L 906.036364 175.91781 
L 918.919481 172.599015 
L 931.802597 177.443642 
L 944.685714 166.342245 
L 957.568831 198.764564 
L 970.451948 183.22815 
L 983.335065 179.281427 
L 996.218182 182.673848 
" style="fill:none;stroke:#e377c2;stroke-linecap:square;stroke-width:1.5;"/>
   </g>
   <g id="line2d_22">
    <path clip-path="url(#p77c3f3333a)" d="M 184.581818 165.816463 
L 197.464935 168.734018 
L 210.348052 148.562885 
L 223.231169 142.447185 
L 236.114286 166.491275 
L 248.997403 190.520633 
L 261.880519 187.846437 
L 274.763636 144.142571 
L 287.646753 135.123195 
L 300.52987 156.433355 
L 313.412987 217.255841 
L 326.296104 222.899007 
L 339.179221 193.305469 
L 352.062338 165.045122 
L 364.945455 167.902632 
L 377.828571 188.250125 
L 390.711688 222.705089 
L 403.594805 204.297428 
L 416.477922 167.017628 
L 429.361039 171.174138 
L 442.244156 178.110002 
L 455.127273 195.098102 
L 468.01039 187.014299 
L 480.893506 183.14548 
L 493.776623 161.128018 
L 506.65974 136.103017 
L 519.542857 177.30635 
L 532.425974 186.882267 
L 545.309091 153.729125 
L 558.192208 152.168686 
L 571.075325 185.539884 
L 583.958442 191.732974 
L 596.841558 187.549598 
L 609.724675 191.478606 
L 622.607792 195.298893 
L 635.490909 185.046781 
L 648.374026 196.376463 
L 661.257143 220.307923 
L 674.14026 198.219529 
L 687.023377 166.137749 
L 699.906494 188.210215 
L 712.78961 203.885954 
L 725.672727 208.020175 
L 738.555844 158.684039 
L 751.438961 153.772724 
L 764.322078 144.992276 
L 777.205195 157.563252 
L 790.088312 196.86479 
L 802.971429 177.335936 
L 815.854545 141.613752 
L 828.737662 134.617786 
L 841.620779 171.375209 
L 854.503896 195.351006 
L 867.387013 216.937037 
L 880.27013 200.090983 
L 893.153247 177.140855 
L 906.036364 142.415742 
L 918.919481 167.585125 
L 931.802597 239.363682 
L 944.685714 234.29723 
L 957.568831 182.683015 
L 970.451948 166.02964 
L 983.335065 181.268611 
L 996.218182 172.982747 
" style="fill:none;stroke:#7f7f7f;stroke-linecap:square;stroke-width:1.5;"/>
   </g>
   <g id="line2d_23">
    <path clip-path="url(#p77c3f3333a)" d="M 184.581818 148.528408 
L 197.464935 148.763115 
L 210.348052 150.735736 
L 223.231169 172.532928 
L 236.114286 196.576284 
L 248.997403 161.708401 
L 261.880519 130.499929 
L 274.763636 168.418194 
L 287.646753 200.430425 
L 300.52987 224.277697 
L 313.412987 193.164032 
L 326.296104 140.853496 
L 339.179221 139.711367 
L 352.062338 155.407961 
L 364.945455 216.684185 
L 377.828571 218.560286 
L 390.711688 151.887019 
L 403.594805 144.124151 
L 416.477922 178.755861 
L 429.361039 187.568336 
L 442.244156 215.218148 
L 455.127273 180.030695 
L 468.01039 159.178835 
L 480.893506 156.089866 
L 493.776623 158.323079 
L 506.65974 202.206065 
L 519.542857 181.068126 
L 532.425974 175.297595 
L 545.309091 188.257257 
L 558.192208 170.316151 
L 571.075325 170.945682 
L 583.958442 192.209845 
L 596.841558 176.97577 
L 609.724675 169.040681 
L 622.607792 166.190077 
L 635.490909 187.014899 
L 648.374026 181.127157 
L 661.257143 117.851989 
L 674.14026 134.608253 
L 687.023377 185.809953 
L 699.906494 172.159756 
L 712.78961 199.84173 
L 725.672727 144.650777 
L 738.555844 145.807419 
L 751.438961 158.980055 
L 764.322078 174.643933 
L 777.205195 236.507323 
L 790.088312 183.610563 
L 802.971429 156.502693 
L 815.854545 162.991574 
L 828.737662 186.658166 
L 841.620779 203.997995 
L 854.503896 202.342578 
L 867.387013 157.764173 
L 880.27013 136.604884 
L 893.153247 141.839459 
L 906.036364 192.666729 
L 918.919481 216.359184 
L 931.802597 121.937238 
L 944.685714 114.414181 
L 957.568831 153.57066 
L 970.451948 195.862839 
L 983.335065 226.90722 
L 996.218182 150.461154 
" style="fill:none;stroke:#bcbd22;stroke-linecap:square;stroke-width:1.5;"/>
   </g>
   <g id="line2d_24">
    <path clip-path="url(#p77c3f3333a)" d="M 184.581818 203.545159 
L 197.464935 200.909415 
L 210.348052 208.14098 
L 223.231169 231.326736 
L 236.114286 213.480755 
L 248.997403 191.233693 
L 261.880519 237.230028 
L 274.763636 254.453929 
L 287.646753 244.927285 
L 300.52987 185.173867 
L 313.412987 126.051376 
L 326.296104 139.77963 
L 339.179221 204.489317 
L 352.062338 224.970747 
L 364.945455 195.780934 
L 377.828571 134.385005 
L 390.711688 87.589199 
L 403.594805 131.175286 
L 416.477922 162.563563 
L 429.361039 149.182368 
L 442.244156 154.051322 
L 455.127273 127.590677 
L 468.01039 138.558956 
L 480.893506 162.083206 
L 493.776623 168.540415 
L 506.65974 191.877134 
L 519.542857 201.511303 
L 532.425974 205.774657 
L 545.309091 215.218514 
L 558.192208 201.327271 
L 571.075325 191.394106 
L 583.958442 180.922776 
L 596.841558 159.473977 
L 609.724675 183.448954 
L 622.607792 176.850886 
L 635.490909 193.317689 
L 648.374026 178.834065 
L 661.257143 149.581944 
L 674.14026 214.973735 
L 687.023377 205.98199 
L 699.906494 193.915742 
L 712.78961 170.915295 
L 725.672727 156.851389 
L 738.555844 175.752792 
L 751.438961 184.261436 
L 764.322078 202.679542 
L 777.205195 155.80864 
L 790.088312 175.829634 
L 802.971429 192.348875 
L 815.854545 208.158608 
L 828.737662 226.022458 
L 841.620779 178.177754 
L 854.503896 162.2999 
L 867.387013 146.42669 
L 880.27013 183.765167 
L 893.153247 209.526553 
L 906.036364 218.753819 
L 918.919481 176.235662 
L 931.802597 136.531307 
L 944.685714 183.387347 
L 957.568831 216.936281 
L 970.451948 198.835518 
L 983.335065 116.69982 
L 996.218182 128.467244 
" style="fill:none;stroke:#17becf;stroke-linecap:square;stroke-width:1.5;"/>
   </g>
   <g id="line2d_25">
    <path clip-path="url(#p77c3f3333a)" d="M 184.581818 204.069621 
L 197.464935 170.625626 
L 210.348052 176.156224 
L 223.231169 155.537145 
L 236.114286 148.936697 
L 248.997403 158.014404 
L 261.880519 179.23946 
L 274.763636 252.294477 
L 287.646753 230.087964 
L 300.52987 186.520541 
L 313.412987 175.296085 
L 326.296104 194.538847 
L 339.179221 149.662879 
L 352.062338 148.787863 
L 364.945455 195.155983 
L 377.828571 183.908435 
L 390.711688 159.259643 
L 403.594805 199.969816 
L 416.477922 263.550508 
L 429.361039 241.908324 
L 442.244156 175.720085 
L 455.127273 180.481527 
L 468.01039 188.567342 
L 480.893506 163.504935 
L 493.776623 155.826463 
L 506.65974 168.877764 
L 519.542857 161.303852 
L 532.425974 265.428065 
L 545.309091 295.488 
L 558.192208 179.868025 
L 571.075325 159.858578 
L 583.958442 181.542439 
L 596.841558 148.7528 
L 609.724675 108.737906 
L 622.607792 171.442912 
L 635.490909 243.866679 
L 648.374026 206.253966 
L 661.257143 235.07783 
L 674.14026 229.165247 
L 687.023377 200.9069 
L 699.906494 153.332582 
L 712.78961 136.730985 
L 725.672727 163.520828 
L 738.555844 201.777026 
L 751.438961 190.743252 
L 764.322078 137.540692 
L 777.205195 106.886103 
L 790.088312 97.875457 
L 802.971429 138.308074 
L 815.854545 189.858347 
L 828.737662 214.07361 
L 841.620779 261.306219 
L 854.503896 180.972575 
L 867.387013 113.739533 
L 880.27013 139.21601 
L 893.153247 196.461786 
L 906.036364 239.235779 
L 918.919481 190.641455 
L 931.802597 159.4833 
L 944.685714 177.221676 
L 957.568831 254.662377 
L 970.451948 232.264201 
L 983.335065 196.268284 
L 996.218182 194.729925 
" style="fill:none;stroke:#1f77b4;stroke-linecap:square;stroke-width:1.5;"/>
   </g>
   <g id="line2d_26">
    <path clip-path="url(#p77c3f3333a)" d="M 184.581818 239.442567 
L 197.464935 185.834099 
L 210.348052 110.922963 
L 223.231169 96.460248 
L 236.114286 116.070945 
L 248.997403 129.004552 
L 261.880519 161.030754 
L 274.763636 238.073892 
L 287.646753 183.428217 
L 300.52987 202.022151 
L 313.412987 230.035236 
L 326.296104 241.414549 
L 339.179221 149.715395 
L 352.062338 154.912434 
L 364.945455 192.226955 
L 377.828571 246.87259 
L 390.711688 208.938424 
L 403.594805 182.914311 
L 416.477922 249.854221 
L 429.361039 251.539929 
L 442.244156 198.494936 
L 455.127273 204.129444 
L 468.01039 197.397406 
L 480.893506 157.885917 
L 493.776623 72.868107 
L 506.65974 70.105249 
L 519.542857 158.434123 
L 532.425974 269.032395 
L 545.309091 286.5585 
L 558.192208 149.75424 
L 571.075325 135.926328 
L 583.958442 159.959582 
L 596.841558 147.196831 
L 609.724675 143.649234 
L 622.607792 235.245051 
L 635.490909 281.918903 
L 648.374026 284.313598 
L 661.257143 250.972695 
L 674.14026 188.833491 
L 687.023377 186.822092 
L 699.906494 152.897979 
L 712.78961 177.863589 
L 725.672727 226.157044 
L 738.555844 226.159293 
L 751.438961 164.967564 
L 764.322078 88.254463 
L 777.205195 53.568 
L 790.088312 135.917821 
L 802.971429 205.775221 
L 815.854545 184.069682 
L 828.737662 150.49739 
L 841.620779 197.217677 
L 854.503896 190.876488 
L 867.387013 156.088227 
L 880.27013 171.492655 
L 893.153247 232.443842 
L 906.036364 241.480787 
L 918.919481 250.833705 
L 931.802597 211.764973 
L 944.685714 156.710977 
L 957.568831 222.991555 
L 970.451948 235.991269 
L 983.335065 240.207286 
L 996.218182 232.141972 
" style="fill:none;stroke:#ff7f0e;stroke-linecap:square;stroke-width:1.5;"/>
   </g>
   <g id="line2d_27">
    <path clip-path="url(#p77c3f3333a)" d="M 184.581818 144.367545 
L 197.464935 199.920553 
L 210.348052 161.442799 
L 223.231169 126.730588 
L 236.114286 157.113017 
L 248.997403 182.996174 
L 261.880519 173.952516 
L 274.763636 153.715081 
L 287.646753 164.312544 
L 300.52987 164.241231 
L 313.412987 182.995141 
L 326.296104 189.855644 
L 339.179221 187.550654 
L 352.062338 177.945959 
L 364.945455 156.934749 
L 377.828571 195.269032 
L 390.711688 199.262333 
L 403.594805 171.063314 
L 416.477922 190.218227 
L 429.361039 165.317915 
L 442.244156 186.121447 
L 455.127273 194.70383 
L 468.01039 188.591956 
L 480.893506 189.512099 
L 493.776623 169.765367 
L 506.65974 147.39248 
L 519.542857 186.515355 
L 532.425974 192.528556 
L 545.309091 166.415245 
L 558.192208 172.342545 
L 571.075325 145.968456 
L 583.958442 177.678612 
L 596.841558 177.667759 
L 609.724675 192.79237 
L 622.607792 193.972439 
L 635.490909 155.04644 
L 648.374026 194.436769 
L 661.257143 182.243015 
L 674.14026 144.008518 
L 687.023377 169.404507 
L 699.906494 156.339919 
L 712.78961 194.339877 
L 725.672727 192.97754 
L 738.555844 178.207675 
L 751.438961 155.662826 
L 764.322078 165.319504 
L 777.205195 150.367041 
L 790.088312 203.820758 
L 802.971429 238.731426 
L 815.854545 156.477024 
L 828.737662 156.330724 
L 841.620779 139.689528 
L 854.503896 182.283247 
L 867.387013 187.132443 
L 880.27013 186.733615 
L 893.153247 185.572927 
L 906.036364 132.969259 
L 918.919481 176.682207 
L 931.802597 179.795059 
L 944.685714 164.858608 
L 957.568831 153.924047 
L 970.451948 181.015004 
L 983.335065 174.146985 
L 996.218182 192.008382 
" style="fill:none;stroke:#2ca02c;stroke-linecap:square;stroke-width:1.5;"/>
   </g>
   <g id="line2d_28">
    <path clip-path="url(#p77c3f3333a)" d="M 184.581818 109.982333 
L 197.464935 149.462583 
L 210.348052 180.293487 
L 223.231169 184.159767 
L 236.114286 195.388956 
L 248.997403 199.499276 
L 261.880519 152.840909 
L 274.763636 135.851986 
L 287.646753 152.520902 
L 300.52987 165.30968 
L 313.412987 196.536405 
L 326.296104 166.295725 
L 339.179221 158.00449 
L 352.062338 133.99788 
L 364.945455 186.215721 
L 377.828571 163.455974 
L 390.711688 171.741799 
L 403.594805 205.683502 
L 416.477922 164.262133 
L 429.361039 134.579929 
L 442.244156 173.033109 
L 455.127273 189.929627 
L 468.01039 169.639981 
L 480.893506 153.459404 
L 493.776623 188.130263 
L 506.65974 213.168495 
L 519.542857 175.076687 
L 532.425974 146.453032 
L 545.309091 137.53138 
L 558.192208 167.428284 
L 571.075325 199.714231 
L 583.958442 193.594508 
L 596.841558 165.395319 
L 609.724675 160.56675 
L 622.607792 156.32357 
L 635.490909 173.924882 
L 648.374026 149.436151 
L 661.257143 183.29819 
L 674.14026 192.512008 
L 687.023377 171.44181 
L 699.906494 172.120196 
L 712.78961 180.407478 
L 725.672727 161.796574 
L 738.555844 151.314251 
L 751.438961 167.245494 
L 764.322078 166.151534 
L 777.205195 224.970862 
L 790.088312 164.048685 
L 802.971429 114.522295 
L 815.854545 146.23835 
L 828.737662 192.743802 
L 841.620779 198.182335 
L 854.503896 176.54669 
L 867.387013 182.064766 
L 880.27013 174.881766 
L 893.153247 139.902822 
L 906.036364 162.85852 
L 918.919481 164.059441 
L 931.802597 192.912661 
L 944.685714 220.300943 
L 957.568831 179.941386 
L 970.451948 156.422833 
L 983.335065 186.341687 
L 996.218182 150.896214 
" style="fill:none;stroke:#d62728;stroke-linecap:square;stroke-width:1.5;"/>
   </g>
   <g id="line2d_29">
    <path clip-path="url(#p77c3f3333a)" d="M 184.581818 218.805547 
L 197.464935 163.133651 
L 210.348052 156.911129 
L 223.231169 166.751879 
L 236.114286 174.001983 
L 248.997403 142.782518 
L 261.880519 172.662099 
L 274.763636 193.560825 
L 287.646753 204.219075 
L 300.52987 191.852588 
L 313.412987 161.190056 
L 326.296104 177.290502 
L 339.179221 167.569691 
L 352.062338 159.690776 
L 364.945455 209.030886 
L 377.828571 191.695337 
L 390.711688 149.984222 
L 403.594805 181.625664 
L 416.477922 192.334033 
L 429.361039 202.207366 
L 442.244156 190.88501 
L 455.127273 150.137756 
L 468.01039 186.589537 
L 480.893506 163.661287 
L 493.776623 127.375013 
L 506.65974 177.993671 
L 519.542857 154.186762 
L 532.425974 206.069562 
L 545.309091 208.226886 
L 558.192208 140.397154 
L 571.075325 182.987121 
L 583.958442 184.988496 
L 596.841558 145.342839 
L 609.724675 166.852523 
L 622.607792 161.696026 
L 635.490909 222.391819 
L 648.374026 192.351986 
L 661.257143 148.865399 
L 674.14026 201.239718 
L 687.023377 182.531438 
L 699.906494 188.22441 
L 712.78961 171.622234 
L 725.672727 173.442576 
L 738.555844 182.842986 
L 751.438961 163.670136 
L 764.322078 181.750849 
L 777.205195 136.2401 
L 790.088312 169.009517 
L 802.971429 147.699032 
L 815.854545 166.464696 
L 828.737662 178.765269 
L 841.620779 205.713322 
L 854.503896 189.780182 
L 867.387013 132.050425 
L 880.27013 177.786954 
L 893.153247 179.540019 
L 906.036364 221.318507 
L 918.919481 192.300134 
L 931.802597 145.187704 
L 944.685714 158.702431 
L 957.568831 190.570739 
L 970.451948 221.273627 
L 983.335065 165.504531 
L 996.218182 186.116655 
" style="fill:none;stroke:#9467bd;stroke-linecap:square;stroke-width:1.5;"/>
   </g>
   <g id="line2d_30">
    <path clip-path="url(#p77c3f3333a)" d="M 184.581818 219.107105 
L 197.464935 145.968973 
L 210.348052 161.57716 
L 223.231169 181.494059 
L 236.114286 158.167277 
L 248.997403 140.393196 
L 261.880519 173.732972 
L 274.763636 206.45002 
L 287.646753 174.791496 
L 300.52987 181.568834 
L 313.412987 163.811689 
L 326.296104 181.244766 
L 339.179221 167.220823 
L 352.062338 164.369514 
L 364.945455 195.418587 
L 377.828571 184.761423 
L 390.711688 151.231647 
L 403.594805 209.303899 
L 416.477922 200.650849 
L 429.361039 198.893916 
L 442.244156 162.454 
L 455.127273 166.17286 
L 468.01039 185.768704 
L 480.893506 173.721256 
L 493.776623 136.911254 
L 506.65974 172.59238 
L 519.542857 158.872871 
L 532.425974 172.540791 
L 545.309091 208.960189 
L 558.192208 138.977389 
L 571.075325 182.56561 
L 583.958442 179.115237 
L 596.841558 150.267598 
L 609.724675 156.368745 
L 622.607792 165.447468 
L 635.490909 224.27474 
L 648.374026 166.33004 
L 661.257143 167.473246 
L 674.14026 217.479554 
L 687.023377 163.224551 
L 699.906494 194.260486 
L 712.78961 147.112369 
L 725.672727 174.725859 
L 738.555844 206.076812 
L 751.438961 172.357887 
L 764.322078 167.613812 
L 777.205195 123.210061 
L 790.088312 144.701679 
L 802.971429 132.45651 
L 815.854545 173.832188 
L 828.737662 171.930717 
L 841.620779 202.061358 
L 854.503896 172.626691 
L 867.387013 143.397939 
L 880.27013 179.844663 
L 893.153247 187.178236 
L 906.036364 228.468506 
L 918.919481 165.14846 
L 931.802597 157.623696 
L 944.685714 171.179497 
L 957.568831 201.799092 
L 970.451948 200.465114 
L 983.335065 148.696713 
L 996.218182 204.434569 
" style="fill:none;stroke:#8c564b;stroke-linecap:square;stroke-width:1.5;"/>
   </g>
   <g id="patch_3">
    <path d="M 144 307.584 
L 144 41.472 
" style="fill:none;stroke:#000000;stroke-linecap:square;stroke-linejoin:miter;stroke-width:0.8;"/>
   </g>
   <g id="patch_4">
    <path d="M 1036.8 307.584 
L 1036.8 41.472 
" style="fill:none;stroke:#000000;stroke-linecap:square;stroke-linejoin:miter;stroke-width:0.8;"/>
   </g>
   <g id="patch_5">
    <path d="M 144 307.584 
L 1036.8 307.584 
" style="fill:none;stroke:#000000;stroke-linecap:square;stroke-linejoin:miter;stroke-width:0.8;"/>
   </g>
   <g id="patch_6">
    <path d="M 144 41.472 
L 1036.8 41.472 
" style="fill:none;stroke:#000000;stroke-linecap:square;stroke-linejoin:miter;stroke-width:0.8;"/>
   </g>
   <g id="text_15">
    <!-- 4th layer's shape: torch.Size([2, 256, 64]). Uniformly sampling 16 channels -->
    <g transform="translate(364.66875 35.472)scale(0.12 -0.12)">
     <defs>
      <path d="M 18.3125 70.21875 
L 18.3125 54.6875 
L 36.8125 54.6875 
L 36.8125 47.703125 
L 18.3125 47.703125 
L 18.3125 18.015625 
Q 18.3125 11.328125 20.140625 9.421875 
Q 21.96875 7.515625 27.59375 7.515625 
L 36.8125 7.515625 
L 36.8125 0 
L 27.59375 0 
Q 17.1875 0 13.234375 3.875 
Q 9.28125 7.765625 9.28125 18.015625 
L 9.28125 47.703125 
L 2.6875 47.703125 
L 2.6875 54.6875 
L 9.28125 54.6875 
L 9.28125 70.21875 
z
" id="DejaVuSans-116"/>
      <path d="M 54.890625 33.015625 
L 54.890625 0 
L 45.90625 0 
L 45.90625 32.71875 
Q 45.90625 40.484375 42.875 44.328125 
Q 39.84375 48.1875 33.796875 48.1875 
Q 26.515625 48.1875 22.3125 43.546875 
Q 18.109375 38.921875 18.109375 30.90625 
L 18.109375 0 
L 9.078125 0 
L 9.078125 75.984375 
L 18.109375 75.984375 
L 18.109375 46.1875 
Q 21.34375 51.125 25.703125 53.5625 
Q 30.078125 56 35.796875 56 
Q 45.21875 56 50.046875 50.171875 
Q 54.890625 44.34375 54.890625 33.015625 
z
" id="DejaVuSans-104"/>
      <path id="DejaVuSans-32"/>
      <path d="M 9.421875 75.984375 
L 18.40625 75.984375 
L 18.40625 0 
L 9.421875 0 
z
" id="DejaVuSans-108"/>
      <path d="M 34.28125 27.484375 
Q 23.390625 27.484375 19.1875 25 
Q 14.984375 22.515625 14.984375 16.5 
Q 14.984375 11.71875 18.140625 8.90625 
Q 21.296875 6.109375 26.703125 6.109375 
Q 34.1875 6.109375 38.703125 11.40625 
Q 43.21875 16.703125 43.21875 25.484375 
L 43.21875 27.484375 
z
M 52.203125 31.203125 
L 52.203125 0 
L 43.21875 0 
L 43.21875 8.296875 
Q 40.140625 3.328125 35.546875 0.953125 
Q 30.953125 -1.421875 24.3125 -1.421875 
Q 15.921875 -1.421875 10.953125 3.296875 
Q 6 8.015625 6 15.921875 
Q 6 25.140625 12.171875 29.828125 
Q 18.359375 34.515625 30.609375 34.515625 
L 43.21875 34.515625 
L 43.21875 35.40625 
Q 43.21875 41.609375 39.140625 45 
Q 35.0625 48.390625 27.6875 48.390625 
Q 23 48.390625 18.546875 47.265625 
Q 14.109375 46.140625 10.015625 43.890625 
L 10.015625 52.203125 
Q 14.9375 54.109375 19.578125 55.046875 
Q 24.21875 56 28.609375 56 
Q 40.484375 56 46.34375 49.84375 
Q 52.203125 43.703125 52.203125 31.203125 
z
" id="DejaVuSans-97"/>
      <path d="M 32.171875 -5.078125 
Q 28.375 -14.84375 24.75 -17.8125 
Q 21.140625 -20.796875 15.09375 -20.796875 
L 7.90625 -20.796875 
L 7.90625 -13.28125 
L 13.1875 -13.28125 
Q 16.890625 -13.28125 18.9375 -11.515625 
Q 21 -9.765625 23.484375 -3.21875 
L 25.09375 0.875 
L 2.984375 54.6875 
L 12.5 54.6875 
L 29.59375 11.921875 
L 46.6875 54.6875 
L 56.203125 54.6875 
z
" id="DejaVuSans-121"/>
      <path d="M 56.203125 29.59375 
L 56.203125 25.203125 
L 14.890625 25.203125 
Q 15.484375 15.921875 20.484375 11.0625 
Q 25.484375 6.203125 34.421875 6.203125 
Q 39.59375 6.203125 44.453125 7.46875 
Q 49.3125 8.734375 54.109375 11.28125 
L 54.109375 2.78125 
Q 49.265625 0.734375 44.1875 -0.34375 
Q 39.109375 -1.421875 33.890625 -1.421875 
Q 20.796875 -1.421875 13.15625 6.1875 
Q 5.515625 13.8125 5.515625 26.8125 
Q 5.515625 40.234375 12.765625 48.109375 
Q 20.015625 56 32.328125 56 
Q 43.359375 56 49.78125 48.890625 
Q 56.203125 41.796875 56.203125 29.59375 
z
M 47.21875 32.234375 
Q 47.125 39.59375 43.09375 43.984375 
Q 39.0625 48.390625 32.421875 48.390625 
Q 24.90625 48.390625 20.390625 44.140625 
Q 15.875 39.890625 15.1875 32.171875 
z
" id="DejaVuSans-101"/>
      <path d="M 41.109375 46.296875 
Q 39.59375 47.171875 37.8125 47.578125 
Q 36.03125 48 33.890625 48 
Q 26.265625 48 22.1875 43.046875 
Q 18.109375 38.09375 18.109375 28.8125 
L 18.109375 0 
L 9.078125 0 
L 9.078125 54.6875 
L 18.109375 54.6875 
L 18.109375 46.1875 
Q 20.953125 51.171875 25.484375 53.578125 
Q 30.03125 56 36.53125 56 
Q 37.453125 56 38.578125 55.875 
Q 39.703125 55.765625 41.0625 55.515625 
z
" id="DejaVuSans-114"/>
      <path d="M 17.921875 72.90625 
L 17.921875 45.796875 
L 9.625 45.796875 
L 9.625 72.90625 
z
" id="DejaVuSans-39"/>
      <path d="M 44.28125 53.078125 
L 44.28125 44.578125 
Q 40.484375 46.53125 36.375 47.5 
Q 32.28125 48.484375 27.875 48.484375 
Q 21.1875 48.484375 17.84375 46.4375 
Q 14.5 44.390625 14.5 40.28125 
Q 14.5 37.15625 16.890625 35.375 
Q 19.28125 33.59375 26.515625 31.984375 
L 29.59375 31.296875 
Q 39.15625 29.25 43.1875 25.515625 
Q 47.21875 21.78125 47.21875 15.09375 
Q 47.21875 7.46875 41.1875 3.015625 
Q 35.15625 -1.421875 24.609375 -1.421875 
Q 20.21875 -1.421875 15.453125 -0.5625 
Q 10.6875 0.296875 5.421875 2 
L 5.421875 11.28125 
Q 10.40625 8.6875 15.234375 7.390625 
Q 20.0625 6.109375 24.8125 6.109375 
Q 31.15625 6.109375 34.5625 8.28125 
Q 37.984375 10.453125 37.984375 14.40625 
Q 37.984375 18.0625 35.515625 20.015625 
Q 33.0625 21.96875 24.703125 23.78125 
L 21.578125 24.515625 
Q 13.234375 26.265625 9.515625 29.90625 
Q 5.8125 33.546875 5.8125 39.890625 
Q 5.8125 47.609375 11.28125 51.796875 
Q 16.75 56 26.8125 56 
Q 31.78125 56 36.171875 55.265625 
Q 40.578125 54.546875 44.28125 53.078125 
z
" id="DejaVuSans-115"/>
      <path d="M 18.109375 8.203125 
L 18.109375 -20.796875 
L 9.078125 -20.796875 
L 9.078125 54.6875 
L 18.109375 54.6875 
L 18.109375 46.390625 
Q 20.953125 51.265625 25.265625 53.625 
Q 29.59375 56 35.59375 56 
Q 45.5625 56 51.78125 48.09375 
Q 58.015625 40.1875 58.015625 27.296875 
Q 58.015625 14.40625 51.78125 6.484375 
Q 45.5625 -1.421875 35.59375 -1.421875 
Q 29.59375 -1.421875 25.265625 0.953125 
Q 20.953125 3.328125 18.109375 8.203125 
z
M 48.6875 27.296875 
Q 48.6875 37.203125 44.609375 42.84375 
Q 40.53125 48.484375 33.40625 48.484375 
Q 26.265625 48.484375 22.1875 42.84375 
Q 18.109375 37.203125 18.109375 27.296875 
Q 18.109375 17.390625 22.1875 11.75 
Q 26.265625 6.109375 33.40625 6.109375 
Q 40.53125 6.109375 44.609375 11.75 
Q 48.6875 17.390625 48.6875 27.296875 
z
" id="DejaVuSans-112"/>
      <path d="M 11.71875 12.40625 
L 22.015625 12.40625 
L 22.015625 0 
L 11.71875 0 
z
M 11.71875 51.703125 
L 22.015625 51.703125 
L 22.015625 39.3125 
L 11.71875 39.3125 
z
" id="DejaVuSans-58"/>
      <path d="M 30.609375 48.390625 
Q 23.390625 48.390625 19.1875 42.75 
Q 14.984375 37.109375 14.984375 27.296875 
Q 14.984375 17.484375 19.15625 11.84375 
Q 23.34375 6.203125 30.609375 6.203125 
Q 37.796875 6.203125 41.984375 11.859375 
Q 46.1875 17.53125 46.1875 27.296875 
Q 46.1875 37.015625 41.984375 42.703125 
Q 37.796875 48.390625 30.609375 48.390625 
z
M 30.609375 56 
Q 42.328125 56 49.015625 48.375 
Q 55.71875 40.765625 55.71875 27.296875 
Q 55.71875 13.875 49.015625 6.21875 
Q 42.328125 -1.421875 30.609375 -1.421875 
Q 18.84375 -1.421875 12.171875 6.21875 
Q 5.515625 13.875 5.515625 27.296875 
Q 5.515625 40.765625 12.171875 48.375 
Q 18.84375 56 30.609375 56 
z
" id="DejaVuSans-111"/>
      <path d="M 48.78125 52.59375 
L 48.78125 44.1875 
Q 44.96875 46.296875 41.140625 47.34375 
Q 37.3125 48.390625 33.40625 48.390625 
Q 24.65625 48.390625 19.8125 42.84375 
Q 14.984375 37.3125 14.984375 27.296875 
Q 14.984375 17.28125 19.8125 11.734375 
Q 24.65625 6.203125 33.40625 6.203125 
Q 37.3125 6.203125 41.140625 7.25 
Q 44.96875 8.296875 48.78125 10.40625 
L 48.78125 2.09375 
Q 45.015625 0.34375 40.984375 -0.53125 
Q 36.96875 -1.421875 32.421875 -1.421875 
Q 20.0625 -1.421875 12.78125 6.34375 
Q 5.515625 14.109375 5.515625 27.296875 
Q 5.515625 40.671875 12.859375 48.328125 
Q 20.21875 56 33.015625 56 
Q 37.15625 56 41.109375 55.140625 
Q 45.0625 54.296875 48.78125 52.59375 
z
" id="DejaVuSans-99"/>
      <path d="M 53.515625 70.515625 
L 53.515625 60.890625 
Q 47.90625 63.578125 42.921875 64.890625 
Q 37.9375 66.21875 33.296875 66.21875 
Q 25.25 66.21875 20.875 63.09375 
Q 16.5 59.96875 16.5 54.203125 
Q 16.5 49.359375 19.40625 46.890625 
Q 22.3125 44.4375 30.421875 42.921875 
L 36.375 41.703125 
Q 47.40625 39.59375 52.65625 34.296875 
Q 57.90625 29 57.90625 20.125 
Q 57.90625 9.515625 50.796875 4.046875 
Q 43.703125 -1.421875 29.984375 -1.421875 
Q 24.8125 -1.421875 18.96875 -0.25 
Q 13.140625 0.921875 6.890625 3.21875 
L 6.890625 13.375 
Q 12.890625 10.015625 18.65625 8.296875 
Q 24.421875 6.59375 29.984375 6.59375 
Q 38.421875 6.59375 43.015625 9.90625 
Q 47.609375 13.234375 47.609375 19.390625 
Q 47.609375 24.75 44.3125 27.78125 
Q 41.015625 30.8125 33.5 32.328125 
L 27.484375 33.5 
Q 16.453125 35.6875 11.515625 40.375 
Q 6.59375 45.0625 6.59375 53.421875 
Q 6.59375 63.09375 13.40625 68.65625 
Q 20.21875 74.21875 32.171875 74.21875 
Q 37.3125 74.21875 42.625 73.28125 
Q 47.953125 72.359375 53.515625 70.515625 
z
" id="DejaVuSans-83"/>
      <path d="M 9.421875 54.6875 
L 18.40625 54.6875 
L 18.40625 0 
L 9.421875 0 
z
M 9.421875 75.984375 
L 18.40625 75.984375 
L 18.40625 64.59375 
L 9.421875 64.59375 
z
" id="DejaVuSans-105"/>
      <path d="M 5.515625 54.6875 
L 48.1875 54.6875 
L 48.1875 46.484375 
L 14.40625 7.171875 
L 48.1875 7.171875 
L 48.1875 0 
L 4.296875 0 
L 4.296875 8.203125 
L 38.09375 47.515625 
L 5.515625 47.515625 
z
" id="DejaVuSans-122"/>
      <path d="M 31 75.875 
Q 24.46875 64.65625 21.28125 53.65625 
Q 18.109375 42.671875 18.109375 31.390625 
Q 18.109375 20.125 21.3125 9.0625 
Q 24.515625 -2 31 -13.1875 
L 23.1875 -13.1875 
Q 15.875 -1.703125 12.234375 9.375 
Q 8.59375 20.453125 8.59375 31.390625 
Q 8.59375 42.28125 12.203125 53.3125 
Q 15.828125 64.359375 23.1875 75.875 
z
" id="DejaVuSans-40"/>
      <path d="M 8.59375 75.984375 
L 29.296875 75.984375 
L 29.296875 69 
L 17.578125 69 
L 17.578125 -6.203125 
L 29.296875 -6.203125 
L 29.296875 -13.1875 
L 8.59375 -13.1875 
z
" id="DejaVuSans-91"/>
      <path d="M 11.71875 12.40625 
L 22.015625 12.40625 
L 22.015625 4 
L 14.015625 -11.625 
L 7.71875 -11.625 
L 11.71875 4 
z
" id="DejaVuSans-44"/>
      <path d="M 30.421875 75.984375 
L 30.421875 -13.1875 
L 9.71875 -13.1875 
L 9.71875 -6.203125 
L 21.390625 -6.203125 
L 21.390625 69 
L 9.71875 69 
L 9.71875 75.984375 
z
" id="DejaVuSans-93"/>
      <path d="M 8.015625 75.875 
L 15.828125 75.875 
Q 23.140625 64.359375 26.78125 53.3125 
Q 30.421875 42.28125 30.421875 31.390625 
Q 30.421875 20.453125 26.78125 9.375 
Q 23.140625 -1.703125 15.828125 -13.1875 
L 8.015625 -13.1875 
Q 14.5 -2 17.703125 9.0625 
Q 20.90625 20.125 20.90625 31.390625 
Q 20.90625 42.671875 17.703125 53.65625 
Q 14.5 64.65625 8.015625 75.875 
z
" id="DejaVuSans-41"/>
      <path d="M 8.6875 72.90625 
L 18.609375 72.90625 
L 18.609375 28.609375 
Q 18.609375 16.890625 22.84375 11.734375 
Q 27.09375 6.59375 36.625 6.59375 
Q 46.09375 6.59375 50.34375 11.734375 
Q 54.59375 16.890625 54.59375 28.609375 
L 54.59375 72.90625 
L 64.5 72.90625 
L 64.5 27.390625 
Q 64.5 13.140625 57.4375 5.859375 
Q 50.390625 -1.421875 36.625 -1.421875 
Q 22.796875 -1.421875 15.734375 5.859375 
Q 8.6875 13.140625 8.6875 27.390625 
z
" id="DejaVuSans-85"/>
      <path d="M 54.890625 33.015625 
L 54.890625 0 
L 45.90625 0 
L 45.90625 32.71875 
Q 45.90625 40.484375 42.875 44.328125 
Q 39.84375 48.1875 33.796875 48.1875 
Q 26.515625 48.1875 22.3125 43.546875 
Q 18.109375 38.921875 18.109375 30.90625 
L 18.109375 0 
L 9.078125 0 
L 9.078125 54.6875 
L 18.109375 54.6875 
L 18.109375 46.1875 
Q 21.34375 51.125 25.703125 53.5625 
Q 30.078125 56 35.796875 56 
Q 45.21875 56 50.046875 50.171875 
Q 54.890625 44.34375 54.890625 33.015625 
z
" id="DejaVuSans-110"/>
      <path d="M 37.109375 75.984375 
L 37.109375 68.5 
L 28.515625 68.5 
Q 23.6875 68.5 21.796875 66.546875 
Q 19.921875 64.59375 19.921875 59.515625 
L 19.921875 54.6875 
L 34.71875 54.6875 
L 34.71875 47.703125 
L 19.921875 47.703125 
L 19.921875 0 
L 10.890625 0 
L 10.890625 47.703125 
L 2.296875 47.703125 
L 2.296875 54.6875 
L 10.890625 54.6875 
L 10.890625 58.5 
Q 10.890625 67.625 15.140625 71.796875 
Q 19.390625 75.984375 28.609375 75.984375 
z
" id="DejaVuSans-102"/>
      <path d="M 52 44.1875 
Q 55.375 50.25 60.0625 53.125 
Q 64.75 56 71.09375 56 
Q 79.640625 56 84.28125 50.015625 
Q 88.921875 44.046875 88.921875 33.015625 
L 88.921875 0 
L 79.890625 0 
L 79.890625 32.71875 
Q 79.890625 40.578125 77.09375 44.375 
Q 74.3125 48.1875 68.609375 48.1875 
Q 61.625 48.1875 57.5625 43.546875 
Q 53.515625 38.921875 53.515625 30.90625 
L 53.515625 0 
L 44.484375 0 
L 44.484375 32.71875 
Q 44.484375 40.625 41.703125 44.40625 
Q 38.921875 48.1875 33.109375 48.1875 
Q 26.21875 48.1875 22.15625 43.53125 
Q 18.109375 38.875 18.109375 30.90625 
L 18.109375 0 
L 9.078125 0 
L 9.078125 54.6875 
L 18.109375 54.6875 
L 18.109375 46.1875 
Q 21.1875 51.21875 25.484375 53.609375 
Q 29.78125 56 35.6875 56 
Q 41.65625 56 45.828125 52.96875 
Q 50 49.953125 52 44.1875 
z
" id="DejaVuSans-109"/>
      <path d="M 45.40625 27.984375 
Q 45.40625 37.75 41.375 43.109375 
Q 37.359375 48.484375 30.078125 48.484375 
Q 22.859375 48.484375 18.828125 43.109375 
Q 14.796875 37.75 14.796875 27.984375 
Q 14.796875 18.265625 18.828125 12.890625 
Q 22.859375 7.515625 30.078125 7.515625 
Q 37.359375 7.515625 41.375 12.890625 
Q 45.40625 18.265625 45.40625 27.984375 
z
M 54.390625 6.78125 
Q 54.390625 -7.171875 48.1875 -13.984375 
Q 42 -20.796875 29.203125 -20.796875 
Q 24.46875 -20.796875 20.265625 -20.09375 
Q 16.0625 -19.390625 12.109375 -17.921875 
L 12.109375 -9.1875 
Q 16.0625 -11.328125 19.921875 -12.34375 
Q 23.78125 -13.375 27.78125 -13.375 
Q 36.625 -13.375 41.015625 -8.765625 
Q 45.40625 -4.15625 45.40625 5.171875 
L 45.40625 9.625 
Q 42.625 4.78125 38.28125 2.390625 
Q 33.9375 0 27.875 0 
Q 17.828125 0 11.671875 7.65625 
Q 5.515625 15.328125 5.515625 27.984375 
Q 5.515625 40.671875 11.671875 48.328125 
Q 17.828125 56 27.875 56 
Q 33.9375 56 38.28125 53.609375 
Q 42.625 51.21875 45.40625 46.390625 
L 45.40625 54.6875 
L 54.390625 54.6875 
z
" id="DejaVuSans-103"/>
     </defs>
     <use xlink:href="#DejaVuSans-52"/>
     <use x="63.623047" xlink:href="#DejaVuSans-116"/>
     <use x="102.832031" xlink:href="#DejaVuSans-104"/>
     <use x="166.210938" xlink:href="#DejaVuSans-32"/>
     <use x="197.998047" xlink:href="#DejaVuSans-108"/>
     <use x="225.78125" xlink:href="#DejaVuSans-97"/>
     <use x="287.060547" xlink:href="#DejaVuSans-121"/>
     <use x="346.240234" xlink:href="#DejaVuSans-101"/>
     <use x="407.763672" xlink:href="#DejaVuSans-114"/>
     <use x="448.876953" xlink:href="#DejaVuSans-39"/>
     <use x="476.367188" xlink:href="#DejaVuSans-115"/>
     <use x="528.466797" xlink:href="#DejaVuSans-32"/>
     <use x="560.253906" xlink:href="#DejaVuSans-115"/>
     <use x="612.353516" xlink:href="#DejaVuSans-104"/>
     <use x="675.732422" xlink:href="#DejaVuSans-97"/>
     <use x="737.011719" xlink:href="#DejaVuSans-112"/>
     <use x="800.488281" xlink:href="#DejaVuSans-101"/>
     <use x="862.011719" xlink:href="#DejaVuSans-58"/>
     <use x="895.703125" xlink:href="#DejaVuSans-32"/>
     <use x="927.490234" xlink:href="#DejaVuSans-116"/>
     <use x="966.699219" xlink:href="#DejaVuSans-111"/>
     <use x="1027.880859" xlink:href="#DejaVuSans-114"/>
     <use x="1066.744141" xlink:href="#DejaVuSans-99"/>
     <use x="1121.724609" xlink:href="#DejaVuSans-104"/>
     <use x="1185.103516" xlink:href="#DejaVuSans-46"/>
     <use x="1216.890625" xlink:href="#DejaVuSans-83"/>
     <use x="1280.367188" xlink:href="#DejaVuSans-105"/>
     <use x="1308.150391" xlink:href="#DejaVuSans-122"/>
     <use x="1360.640625" xlink:href="#DejaVuSans-101"/>
     <use x="1422.164062" xlink:href="#DejaVuSans-40"/>
     <use x="1461.177734" xlink:href="#DejaVuSans-91"/>
     <use x="1500.191406" xlink:href="#DejaVuSans-50"/>
     <use x="1563.814453" xlink:href="#DejaVuSans-44"/>
     <use x="1595.601562" xlink:href="#DejaVuSans-32"/>
     <use x="1627.388672" xlink:href="#DejaVuSans-50"/>
     <use x="1691.011719" xlink:href="#DejaVuSans-53"/>
     <use x="1754.634766" xlink:href="#DejaVuSans-54"/>
     <use x="1818.257812" xlink:href="#DejaVuSans-44"/>
     <use x="1850.044922" xlink:href="#DejaVuSans-32"/>
     <use x="1881.832031" xlink:href="#DejaVuSans-54"/>
     <use x="1945.455078" xlink:href="#DejaVuSans-52"/>
     <use x="2009.078125" xlink:href="#DejaVuSans-93"/>
     <use x="2048.091797" xlink:href="#DejaVuSans-41"/>
     <use x="2087.105469" xlink:href="#DejaVuSans-46"/>
     <use x="2118.892578" xlink:href="#DejaVuSans-32"/>
     <use x="2150.679688" xlink:href="#DejaVuSans-85"/>
     <use x="2223.873047" xlink:href="#DejaVuSans-110"/>
     <use x="2287.251953" xlink:href="#DejaVuSans-105"/>
     <use x="2315.035156" xlink:href="#DejaVuSans-102"/>
     <use x="2350.240234" xlink:href="#DejaVuSans-111"/>
     <use x="2411.421875" xlink:href="#DejaVuSans-114"/>
     <use x="2450.785156" xlink:href="#DejaVuSans-109"/>
     <use x="2548.197266" xlink:href="#DejaVuSans-108"/>
     <use x="2575.980469" xlink:href="#DejaVuSans-121"/>
     <use x="2635.160156" xlink:href="#DejaVuSans-32"/>
     <use x="2666.947266" xlink:href="#DejaVuSans-115"/>
     <use x="2719.046875" xlink:href="#DejaVuSans-97"/>
     <use x="2780.326172" xlink:href="#DejaVuSans-109"/>
     <use x="2877.738281" xlink:href="#DejaVuSans-112"/>
     <use x="2941.214844" xlink:href="#DejaVuSans-108"/>
     <use x="2968.998047" xlink:href="#DejaVuSans-105"/>
     <use x="2996.78125" xlink:href="#DejaVuSans-110"/>
     <use x="3060.160156" xlink:href="#DejaVuSans-103"/>
     <use x="3123.636719" xlink:href="#DejaVuSans-32"/>
     <use x="3155.423828" xlink:href="#DejaVuSans-49"/>
     <use x="3219.046875" xlink:href="#DejaVuSans-54"/>
     <use x="3282.669922" xlink:href="#DejaVuSans-32"/>
     <use x="3314.457031" xlink:href="#DejaVuSans-99"/>
     <use x="3369.4375" xlink:href="#DejaVuSans-104"/>
     <use x="3432.816406" xlink:href="#DejaVuSans-97"/>
     <use x="3494.095703" xlink:href="#DejaVuSans-110"/>
     <use x="3557.474609" xlink:href="#DejaVuSans-110"/>
     <use x="3620.853516" xlink:href="#DejaVuSans-101"/>
     <use x="3682.376953" xlink:href="#DejaVuSans-108"/>
     <use x="3710.160156" xlink:href="#DejaVuSans-115"/>
    </g>
   </g>
  </g>
 </g>
 <defs>
  <clipPath id="p77c3f3333a">
   <rect height="266.112" width="892.8" x="144" y="41.472"/>
  </clipPath>
 </defs>
</svg>
