<?xml version="1.0" encoding="utf-8" standalone="no"?>
<!DOCTYPE svg PUBLIC "-//W3C//DTD SVG 1.1//EN"
  "http://www.w3.org/Graphics/SVG/1.1/DTD/svg11.dtd">
<!-- Created with matplotlib (https://matplotlib.org/) -->
<svg height="345.6pt" version="1.1" viewBox="0 0 1152 345.6" width="1152pt" xmlns="http://www.w3.org/2000/svg" xmlns:xlink="http://www.w3.org/1999/xlink">
 <metadata>
  <rdf:RDF xmlns:cc="http://creativecommons.org/ns#" xmlns:dc="http://purl.org/dc/elements/1.1/" xmlns:rdf="http://www.w3.org/1999/02/22-rdf-syntax-ns#">
   <cc:Work>
    <dc:type rdf:resource="http://purl.org/dc/dcmitype/StillImage"/>
    <dc:date>2021-12-24T07:14:19.100338</dc:date>
    <dc:format>image/svg+xml</dc:format>
    <dc:creator>
     <cc:Agent>
      <dc:title>Matplotlib v3.3.3, https://matplotlib.org/</dc:title>
     </cc:Agent>
    </dc:creator>
   </cc:Work>
  </rdf:RDF>
 </metadata>
 <defs>
  <style type="text/css">*{stroke-linecap:butt;stroke-linejoin:round;}</style>
 </defs>
 <g id="figure_1">
  <g id="patch_1">
   <path d="M 0 345.6 
L 1152 345.6 
L 1152 0 
L 0 0 
z
" style="fill:#ffffff;"/>
  </g>
  <g id="axes_1">
   <g id="patch_2">
    <path d="M 144 307.584 
L 1036.8 307.584 
L 1036.8 41.472 
L 144 41.472 
z
" style="fill:#ffffff;"/>
   </g>
   <g id="matplotlib.axis_1">
    <g id="xtick_1">
     <g id="line2d_1">
      <defs>
       <path d="M 0 0 
L 0 3.5 
" id="m590e0f27a3" style="stroke:#000000;stroke-width:0.8;"/>
      </defs>
      <g>
       <use style="stroke:#000000;stroke-width:0.8;" x="184.581818" xlink:href="#m590e0f27a3" y="307.584"/>
      </g>
     </g>
     <g id="text_1">
      <!-- 0 -->
      <g transform="translate(181.400568 322.182437)scale(0.1 -0.1)">
       <defs>
        <path d="M 31.78125 66.40625 
Q 24.171875 66.40625 20.328125 58.90625 
Q 16.5 51.421875 16.5 36.375 
Q 16.5 21.390625 20.328125 13.890625 
Q 24.171875 6.390625 31.78125 6.390625 
Q 39.453125 6.390625 43.28125 13.890625 
Q 47.125 21.390625 47.125 36.375 
Q 47.125 51.421875 43.28125 58.90625 
Q 39.453125 66.40625 31.78125 66.40625 
z
M 31.78125 74.21875 
Q 44.046875 74.21875 50.515625 64.515625 
Q 56.984375 54.828125 56.984375 36.375 
Q 56.984375 17.96875 50.515625 8.265625 
Q 44.046875 -1.421875 31.78125 -1.421875 
Q 19.53125 -1.421875 13.0625 8.265625 
Q 6.59375 17.96875 6.59375 36.375 
Q 6.59375 54.828125 13.0625 64.515625 
Q 19.53125 74.21875 31.78125 74.21875 
z
" id="DejaVuSans-48"/>
       </defs>
       <use xlink:href="#DejaVuSans-48"/>
      </g>
     </g>
    </g>
    <g id="xtick_2">
     <g id="line2d_2">
      <g>
       <use style="stroke:#000000;stroke-width:0.8;" x="313.412987" xlink:href="#m590e0f27a3" y="307.584"/>
      </g>
     </g>
     <g id="text_2">
      <!-- 10 -->
      <g transform="translate(307.050487 322.182437)scale(0.1 -0.1)">
       <defs>
        <path d="M 12.40625 8.296875 
L 28.515625 8.296875 
L 28.515625 63.921875 
L 10.984375 60.40625 
L 10.984375 69.390625 
L 28.421875 72.90625 
L 38.28125 72.90625 
L 38.28125 8.296875 
L 54.390625 8.296875 
L 54.390625 0 
L 12.40625 0 
z
" id="DejaVuSans-49"/>
       </defs>
       <use xlink:href="#DejaVuSans-49"/>
       <use x="63.623047" xlink:href="#DejaVuSans-48"/>
      </g>
     </g>
    </g>
    <g id="xtick_3">
     <g id="line2d_3">
      <g>
       <use style="stroke:#000000;stroke-width:0.8;" x="442.244156" xlink:href="#m590e0f27a3" y="307.584"/>
      </g>
     </g>
     <g id="text_3">
      <!-- 20 -->
      <g transform="translate(435.881656 322.182437)scale(0.1 -0.1)">
       <defs>
        <path d="M 19.1875 8.296875 
L 53.609375 8.296875 
L 53.609375 0 
L 7.328125 0 
L 7.328125 8.296875 
Q 12.9375 14.109375 22.625 23.890625 
Q 32.328125 33.6875 34.8125 36.53125 
Q 39.546875 41.84375 41.421875 45.53125 
Q 43.3125 49.21875 43.3125 52.78125 
Q 43.3125 58.59375 39.234375 62.25 
Q 35.15625 65.921875 28.609375 65.921875 
Q 23.96875 65.921875 18.8125 64.3125 
Q 13.671875 62.703125 7.8125 59.421875 
L 7.8125 69.390625 
Q 13.765625 71.78125 18.9375 73 
Q 24.125 74.21875 28.421875 74.21875 
Q 39.75 74.21875 46.484375 68.546875 
Q 53.21875 62.890625 53.21875 53.421875 
Q 53.21875 48.921875 51.53125 44.890625 
Q 49.859375 40.875 45.40625 35.40625 
Q 44.1875 33.984375 37.640625 27.21875 
Q 31.109375 20.453125 19.1875 8.296875 
z
" id="DejaVuSans-50"/>
       </defs>
       <use xlink:href="#DejaVuSans-50"/>
       <use x="63.623047" xlink:href="#DejaVuSans-48"/>
      </g>
     </g>
    </g>
    <g id="xtick_4">
     <g id="line2d_4">
      <g>
       <use style="stroke:#000000;stroke-width:0.8;" x="571.075325" xlink:href="#m590e0f27a3" y="307.584"/>
      </g>
     </g>
     <g id="text_4">
      <!-- 30 -->
      <g transform="translate(564.712825 322.182437)scale(0.1 -0.1)">
       <defs>
        <path d="M 40.578125 39.3125 
Q 47.65625 37.796875 51.625 33 
Q 55.609375 28.21875 55.609375 21.1875 
Q 55.609375 10.40625 48.1875 4.484375 
Q 40.765625 -1.421875 27.09375 -1.421875 
Q 22.515625 -1.421875 17.65625 -0.515625 
Q 12.796875 0.390625 7.625 2.203125 
L 7.625 11.71875 
Q 11.71875 9.328125 16.59375 8.109375 
Q 21.484375 6.890625 26.8125 6.890625 
Q 36.078125 6.890625 40.9375 10.546875 
Q 45.796875 14.203125 45.796875 21.1875 
Q 45.796875 27.640625 41.28125 31.265625 
Q 36.765625 34.90625 28.71875 34.90625 
L 20.21875 34.90625 
L 20.21875 43.015625 
L 29.109375 43.015625 
Q 36.375 43.015625 40.234375 45.921875 
Q 44.09375 48.828125 44.09375 54.296875 
Q 44.09375 59.90625 40.109375 62.90625 
Q 36.140625 65.921875 28.71875 65.921875 
Q 24.65625 65.921875 20.015625 65.03125 
Q 15.375 64.15625 9.8125 62.3125 
L 9.8125 71.09375 
Q 15.4375 72.65625 20.34375 73.4375 
Q 25.25 74.21875 29.59375 74.21875 
Q 40.828125 74.21875 47.359375 69.109375 
Q 53.90625 64.015625 53.90625 55.328125 
Q 53.90625 49.265625 50.4375 45.09375 
Q 46.96875 40.921875 40.578125 39.3125 
z
" id="DejaVuSans-51"/>
       </defs>
       <use xlink:href="#DejaVuSans-51"/>
       <use x="63.623047" xlink:href="#DejaVuSans-48"/>
      </g>
     </g>
    </g>
    <g id="xtick_5">
     <g id="line2d_5">
      <g>
       <use style="stroke:#000000;stroke-width:0.8;" x="699.906494" xlink:href="#m590e0f27a3" y="307.584"/>
      </g>
     </g>
     <g id="text_5">
      <!-- 40 -->
      <g transform="translate(693.543994 322.182437)scale(0.1 -0.1)">
       <defs>
        <path d="M 37.796875 64.3125 
L 12.890625 25.390625 
L 37.796875 25.390625 
z
M 35.203125 72.90625 
L 47.609375 72.90625 
L 47.609375 25.390625 
L 58.015625 25.390625 
L 58.015625 17.1875 
L 47.609375 17.1875 
L 47.609375 0 
L 37.796875 0 
L 37.796875 17.1875 
L 4.890625 17.1875 
L 4.890625 26.703125 
z
" id="DejaVuSans-52"/>
       </defs>
       <use xlink:href="#DejaVuSans-52"/>
       <use x="63.623047" xlink:href="#DejaVuSans-48"/>
      </g>
     </g>
    </g>
    <g id="xtick_6">
     <g id="line2d_6">
      <g>
       <use style="stroke:#000000;stroke-width:0.8;" x="828.737662" xlink:href="#m590e0f27a3" y="307.584"/>
      </g>
     </g>
     <g id="text_6">
      <!-- 50 -->
      <g transform="translate(822.375162 322.182437)scale(0.1 -0.1)">
       <defs>
        <path d="M 10.796875 72.90625 
L 49.515625 72.90625 
L 49.515625 64.59375 
L 19.828125 64.59375 
L 19.828125 46.734375 
Q 21.96875 47.46875 24.109375 47.828125 
Q 26.265625 48.1875 28.421875 48.1875 
Q 40.625 48.1875 47.75 41.5 
Q 54.890625 34.8125 54.890625 23.390625 
Q 54.890625 11.625 47.5625 5.09375 
Q 40.234375 -1.421875 26.90625 -1.421875 
Q 22.3125 -1.421875 17.546875 -0.640625 
Q 12.796875 0.140625 7.71875 1.703125 
L 7.71875 11.625 
Q 12.109375 9.234375 16.796875 8.0625 
Q 21.484375 6.890625 26.703125 6.890625 
Q 35.15625 6.890625 40.078125 11.328125 
Q 45.015625 15.765625 45.015625 23.390625 
Q 45.015625 31 40.078125 35.4375 
Q 35.15625 39.890625 26.703125 39.890625 
Q 22.75 39.890625 18.8125 39.015625 
Q 14.890625 38.140625 10.796875 36.28125 
z
" id="DejaVuSans-53"/>
       </defs>
       <use xlink:href="#DejaVuSans-53"/>
       <use x="63.623047" xlink:href="#DejaVuSans-48"/>
      </g>
     </g>
    </g>
    <g id="xtick_7">
     <g id="line2d_7">
      <g>
       <use style="stroke:#000000;stroke-width:0.8;" x="957.568831" xlink:href="#m590e0f27a3" y="307.584"/>
      </g>
     </g>
     <g id="text_7">
      <!-- 60 -->
      <g transform="translate(951.206331 322.182437)scale(0.1 -0.1)">
       <defs>
        <path d="M 33.015625 40.375 
Q 26.375 40.375 22.484375 35.828125 
Q 18.609375 31.296875 18.609375 23.390625 
Q 18.609375 15.53125 22.484375 10.953125 
Q 26.375 6.390625 33.015625 6.390625 
Q 39.65625 6.390625 43.53125 10.953125 
Q 47.40625 15.53125 47.40625 23.390625 
Q 47.40625 31.296875 43.53125 35.828125 
Q 39.65625 40.375 33.015625 40.375 
z
M 52.59375 71.296875 
L 52.59375 62.3125 
Q 48.875 64.0625 45.09375 64.984375 
Q 41.3125 65.921875 37.59375 65.921875 
Q 27.828125 65.921875 22.671875 59.328125 
Q 17.53125 52.734375 16.796875 39.40625 
Q 19.671875 43.65625 24.015625 45.921875 
Q 28.375 48.1875 33.59375 48.1875 
Q 44.578125 48.1875 50.953125 41.515625 
Q 57.328125 34.859375 57.328125 23.390625 
Q 57.328125 12.15625 50.6875 5.359375 
Q 44.046875 -1.421875 33.015625 -1.421875 
Q 20.359375 -1.421875 13.671875 8.265625 
Q 6.984375 17.96875 6.984375 36.375 
Q 6.984375 53.65625 15.1875 63.9375 
Q 23.390625 74.21875 37.203125 74.21875 
Q 40.921875 74.21875 44.703125 73.484375 
Q 48.484375 72.75 52.59375 71.296875 
z
" id="DejaVuSans-54"/>
       </defs>
       <use xlink:href="#DejaVuSans-54"/>
       <use x="63.623047" xlink:href="#DejaVuSans-48"/>
      </g>
     </g>
    </g>
   </g>
   <g id="matplotlib.axis_2">
    <g id="ytick_1">
     <g id="line2d_8">
      <defs>
       <path d="M 0 0 
L -3.5 0 
" id="m063582ced7" style="stroke:#000000;stroke-width:0.8;"/>
      </defs>
      <g>
       <use style="stroke:#000000;stroke-width:0.8;" x="144" xlink:href="#m063582ced7" y="275.593539"/>
      </g>
     </g>
     <g id="text_8">
      <!-- −0.2 -->
      <g transform="translate(112.717187 279.392757)scale(0.1 -0.1)">
       <defs>
        <path d="M 10.59375 35.5 
L 73.1875 35.5 
L 73.1875 27.203125 
L 10.59375 27.203125 
z
" id="DejaVuSans-8722"/>
        <path d="M 10.6875 12.40625 
L 21 12.40625 
L 21 0 
L 10.6875 0 
z
" id="DejaVuSans-46"/>
       </defs>
       <use xlink:href="#DejaVuSans-8722"/>
       <use x="83.789062" xlink:href="#DejaVuSans-48"/>
       <use x="147.412109" xlink:href="#DejaVuSans-46"/>
       <use x="179.199219" xlink:href="#DejaVuSans-50"/>
      </g>
     </g>
    </g>
    <g id="ytick_2">
     <g id="line2d_9">
      <g>
       <use style="stroke:#000000;stroke-width:0.8;" x="144" xlink:href="#m063582ced7" y="221.514568"/>
      </g>
     </g>
     <g id="text_9">
      <!-- −0.1 -->
      <g transform="translate(112.717187 225.313787)scale(0.1 -0.1)">
       <use xlink:href="#DejaVuSans-8722"/>
       <use x="83.789062" xlink:href="#DejaVuSans-48"/>
       <use x="147.412109" xlink:href="#DejaVuSans-46"/>
       <use x="179.199219" xlink:href="#DejaVuSans-49"/>
      </g>
     </g>
    </g>
    <g id="ytick_3">
     <g id="line2d_10">
      <g>
       <use style="stroke:#000000;stroke-width:0.8;" x="144" xlink:href="#m063582ced7" y="167.435597"/>
      </g>
     </g>
     <g id="text_10">
      <!-- 0.0 -->
      <g transform="translate(121.096875 171.234816)scale(0.1 -0.1)">
       <use xlink:href="#DejaVuSans-48"/>
       <use x="63.623047" xlink:href="#DejaVuSans-46"/>
       <use x="95.410156" xlink:href="#DejaVuSans-48"/>
      </g>
     </g>
    </g>
    <g id="ytick_4">
     <g id="line2d_11">
      <g>
       <use style="stroke:#000000;stroke-width:0.8;" x="144" xlink:href="#m063582ced7" y="113.356627"/>
      </g>
     </g>
     <g id="text_11">
      <!-- 0.1 -->
      <g transform="translate(121.096875 117.155846)scale(0.1 -0.1)">
       <use xlink:href="#DejaVuSans-48"/>
       <use x="63.623047" xlink:href="#DejaVuSans-46"/>
       <use x="95.410156" xlink:href="#DejaVuSans-49"/>
      </g>
     </g>
    </g>
    <g id="ytick_5">
     <g id="line2d_12">
      <g>
       <use style="stroke:#000000;stroke-width:0.8;" x="144" xlink:href="#m063582ced7" y="59.277656"/>
      </g>
     </g>
     <g id="text_12">
      <!-- 0.2 -->
      <g transform="translate(121.096875 63.076875)scale(0.1 -0.1)">
       <use xlink:href="#DejaVuSans-48"/>
       <use x="63.623047" xlink:href="#DejaVuSans-46"/>
       <use x="95.410156" xlink:href="#DejaVuSans-50"/>
      </g>
     </g>
    </g>
   </g>
   <g id="line2d_13">
    <path clip-path="url(#p1b509a920f)" d="M 184.581818 75.103366 
L 197.464935 128.535362 
L 210.348052 198.971611 
L 223.231169 226.608457 
L 236.114286 211.507006 
L 248.997403 180.258075 
L 261.880519 165.731274 
L 274.763636 194.260685 
L 287.646753 200.068697 
L 300.52987 198.93775 
L 313.412987 162.304907 
L 326.296104 107.048265 
L 339.179221 145.154022 
L 352.062338 179.461285 
L 364.945455 192.846991 
L 377.828571 147.393917 
L 390.711688 124.27432 
L 403.594805 133.862921 
L 416.477922 139.48035 
L 429.361039 158.145651 
L 442.244156 181.732749 
L 455.127273 133.155686 
L 468.01039 122.019187 
L 480.893506 173.175205 
L 493.776623 221.53461 
L 506.65974 245.662181 
L 519.542857 204.318559 
L 532.425974 171.42822 
L 545.309091 179.893243 
L 558.192208 183.752172 
L 571.075325 207.305854 
L 583.958442 184.042863 
L 596.841558 147.460991 
L 609.724675 156.333709 
L 622.607792 162.994696 
L 635.490909 140.087969 
L 648.374026 144.29403 
L 661.257143 141.16203 
L 674.14026 161.698518 
L 687.023377 175.93784 
L 699.906494 162.235595 
L 712.78961 140.080599 
L 725.672727 104.747368 
L 738.555844 146.971504 
L 751.438961 187.385418 
L 764.322078 210.019817 
L 777.205195 234.731073 
L 790.088312 158.436525 
L 802.971429 149.448485 
L 815.854545 209.666388 
L 828.737662 250.911798 
L 841.620779 210.452464 
L 854.503896 155.57642 
L 867.387013 129.875223 
L 880.27013 120.314067 
L 893.153247 150.84266 
L 906.036364 153.699764 
L 918.919481 165.113267 
L 931.802597 136.105796 
L 944.685714 162.386036 
L 957.568831 147.947533 
L 970.451948 159.508779 
L 983.335065 159.168736 
L 996.218182 128.46944 
" style="fill:none;stroke:#1f77b4;stroke-linecap:square;stroke-width:1.5;"/>
   </g>
   <g id="line2d_14">
    <path clip-path="url(#p1b509a920f)" d="M 184.581818 167.706799 
L 197.464935 183.172409 
L 210.348052 171.701757 
L 223.231169 196.869863 
L 236.114286 168.832642 
L 248.997403 172.367132 
L 261.880519 184.656916 
L 274.763636 208.992009 
L 287.646753 175.769131 
L 300.52987 197.174067 
L 313.412987 159.987907 
L 326.296104 173.803578 
L 339.179221 189.450884 
L 352.062338 197.826668 
L 364.945455 200.542079 
L 377.828571 162.902277 
L 390.711688 129.289849 
L 403.594805 187.779345 
L 416.477922 144.173802 
L 429.361039 152.07735 
L 442.244156 193.579713 
L 455.127273 150.542445 
L 468.01039 164.223768 
L 480.893506 182.724832 
L 493.776623 152.569554 
L 506.65974 210.128694 
L 519.542857 184.63584 
L 532.425974 184.557728 
L 545.309091 212.10103 
L 558.192208 144.073816 
L 571.075325 183.875564 
L 583.958442 179.781122 
L 596.841558 160.032548 
L 609.724675 182.315146 
L 622.607792 191.434512 
L 635.490909 209.05897 
L 648.374026 183.209619 
L 661.257143 183.112089 
L 674.14026 211.457825 
L 687.023377 169.116886 
L 699.906494 208.841708 
L 712.78961 187.261889 
L 725.672727 174.571302 
L 738.555844 205.768454 
L 751.438961 136.145619 
L 764.322078 170.720626 
L 777.205195 144.805925 
L 790.088312 180.631872 
L 802.971429 156.518259 
L 815.854545 174.844634 
L 828.737662 179.624538 
L 841.620779 159.034047 
L 854.503896 201.612627 
L 867.387013 137.408972 
L 880.27013 199.280505 
L 893.153247 182.692084 
L 906.036364 202.182585 
L 918.919481 159.877581 
L 931.802597 152.081505 
L 944.685714 171.245456 
L 957.568831 175.785393 
L 970.451948 178.174925 
L 983.335065 131.291921 
L 996.218182 166.827904 
" style="fill:none;stroke:#ff7f0e;stroke-linecap:square;stroke-width:1.5;"/>
   </g>
   <g id="line2d_15">
    <path clip-path="url(#p1b509a920f)" d="M 184.581818 77.140746 
L 197.464935 115.78454 
L 210.348052 144.531128 
L 223.231169 168.931959 
L 236.114286 201.351168 
L 248.997403 170.390463 
L 261.880519 154.724824 
L 274.763636 174.183089 
L 287.646753 207.407293 
L 300.52987 233.37771 
L 313.412987 200.417138 
L 326.296104 141.226406 
L 339.179221 138.818326 
L 352.062338 178.160217 
L 364.945455 221.854452 
L 377.828571 190.490658 
L 390.711688 147.161748 
L 403.594805 148.978526 
L 416.477922 135.588681 
L 429.361039 155.342607 
L 442.244156 184.454339 
L 455.127273 141.952294 
L 468.01039 131.792206 
L 480.893506 134.942094 
L 493.776623 141.711417 
L 506.65974 184.559853 
L 519.542857 172.650331 
L 532.425974 171.774596 
L 545.309091 137.422846 
L 558.192208 167.26247 
L 571.075325 200.692541 
L 583.958442 182.307969 
L 596.841558 149.695858 
L 609.724675 180.997724 
L 622.607792 195.248792 
L 635.490909 170.24218 
L 648.374026 170.261605 
L 661.257143 141.61832 
L 674.14026 129.707455 
L 687.023377 171.248621 
L 699.906494 164.925067 
L 712.78961 189.946243 
L 725.672727 141.626475 
L 738.555844 124.357503 
L 751.438961 148.352765 
L 764.322078 162.032643 
L 777.205195 200.218438 
L 790.088312 170.74645 
L 802.971429 138.040627 
L 815.854545 171.566976 
L 828.737662 204.986387 
L 841.620779 213.421434 
L 854.503896 188.011066 
L 867.387013 157.934018 
L 880.27013 166.893739 
L 893.153247 160.930826 
L 906.036364 176.391079 
L 918.919481 210.355792 
L 931.802597 162.754473 
L 944.685714 136.88079 
L 957.568831 148.40698 
L 970.451948 169.225939 
L 983.335065 176.538316 
L 996.218182 128.463146 
" style="fill:none;stroke:#2ca02c;stroke-linecap:square;stroke-width:1.5;"/>
   </g>
   <g id="line2d_16">
    <path clip-path="url(#p1b509a920f)" d="M 184.581818 174.599661 
L 197.464935 172.149333 
L 210.348052 183.629596 
L 223.231169 134.133534 
L 236.114286 135.528354 
L 248.997403 183.067048 
L 261.880519 174.720022 
L 274.763636 118.315871 
L 287.646753 120.602557 
L 300.52987 132.618695 
L 313.412987 155.430585 
L 326.296104 164.247794 
L 339.179221 184.544546 
L 352.062338 155.852931 
L 364.945455 120.127011 
L 377.828571 159.924065 
L 390.711688 201.442438 
L 403.594805 183.072257 
L 416.477922 162.894889 
L 429.361039 164.125625 
L 442.244156 167.441587 
L 455.127273 183.946095 
L 468.01039 200.316803 
L 480.893506 195.900383 
L 493.776623 198.008933 
L 506.65974 185.179493 
L 519.542857 188.03172 
L 532.425974 165.714272 
L 545.309091 130.752895 
L 558.192208 165.722215 
L 571.075325 150.785764 
L 583.958442 148.507331 
L 596.841558 176.572666 
L 609.724675 184.184301 
L 622.607792 162.339672 
L 635.490909 127.380296 
L 648.374026 162.950027 
L 661.257143 179.814433 
L 674.14026 131.715728 
L 687.023377 154.229926 
L 699.906494 150.136027 
L 712.78961 158.262702 
L 725.672727 197.553823 
L 738.555844 182.762464 
L 751.438961 173.252843 
L 764.322078 155.638992 
L 777.205195 166.474002 
L 790.088312 195.219723 
L 802.971429 198.247379 
L 815.854545 164.652593 
L 828.737662 131.993452 
L 841.620779 121.054613 
L 854.503896 141.022767 
L 867.387013 183.687696 
L 880.27013 191.150268 
L 893.153247 159.966188 
L 906.036364 106.282871 
L 918.919481 139.258333 
L 931.802597 196.383021 
L 944.685714 175.623099 
L 957.568831 142.39048 
L 970.451948 121.372033 
L 983.335065 148.578948 
L 996.218182 152.841691 
" style="fill:none;stroke:#d62728;stroke-linecap:square;stroke-width:1.5;"/>
   </g>
   <g id="line2d_17">
    <path clip-path="url(#p1b509a920f)" d="M 184.581818 192.086021 
L 197.464935 231.222783 
L 210.348052 216.780222 
L 223.231169 183.448475 
L 236.114286 146.891917 
L 248.997403 184.947589 
L 261.880519 265.99546 
L 274.763636 257.660647 
L 287.646753 219.269299 
L 300.52987 129.12551 
L 313.412987 79.858158 
L 326.296104 148.540884 
L 339.179221 235.755811 
L 352.062338 228.050358 
L 364.945455 146.837007 
L 377.828571 111.880082 
L 390.711688 122.580107 
L 403.594805 152.992592 
L 416.477922 209.181498 
L 429.361039 178.155942 
L 442.244156 117.273973 
L 455.127273 140.920943 
L 468.01039 191.908261 
L 480.893506 202.098008 
L 493.776623 209.875805 
L 506.65974 195.967117 
L 519.542857 201.66904 
L 532.425974 214.246098 
L 545.309091 217.089507 
L 558.192208 183.133658 
L 571.075325 134.28285 
L 583.958442 137.592739 
L 596.841558 161.401173 
L 609.724675 185.239299 
L 622.607792 153.485943 
L 635.490909 143.340546 
L 648.374026 126.41994 
L 661.257143 133.520409 
L 674.14026 187.328981 
L 687.023377 167.168013 
L 699.906494 156.756277 
L 712.78961 131.500492 
L 725.672727 183.493786 
L 738.555844 250.221927 
L 751.438961 206.50796 
L 764.322078 215.156826 
L 777.205195 125.869 
L 790.088312 190.695154 
L 802.971429 295.488 
L 815.854545 231.623361 
L 828.737662 177.837788 
L 841.620779 102.722019 
L 854.503896 96.320314 
L 867.387013 120.098891 
L 880.27013 191.807505 
L 893.153247 212.537449 
L 906.036364 166.420981 
L 918.919481 92.285983 
L 931.802597 87.298103 
L 944.685714 155.043286 
L 957.568831 176.371115 
L 970.451948 177.855651 
L 983.335065 91.880888 
L 996.218182 154.922234 
" style="fill:none;stroke:#9467bd;stroke-linecap:square;stroke-width:1.5;"/>
   </g>
   <g id="line2d_18">
    <path clip-path="url(#p1b509a920f)" d="M 184.581818 148.150346 
L 197.464935 130.02884 
L 210.348052 118.16374 
L 223.231169 143.158078 
L 236.114286 157.635297 
L 248.997403 127.469808 
L 261.880519 148.570235 
L 274.763636 167.602959 
L 287.646753 188.299718 
L 300.52987 212.777069 
L 313.412987 189.508592 
L 326.296104 177.42759 
L 339.179221 143.533625 
L 352.062338 163.705982 
L 364.945455 233.433768 
L 377.828571 185.404872 
L 390.711688 142.498827 
L 403.594805 198.449671 
L 416.477922 177.583028 
L 429.361039 169.741135 
L 442.244156 204.86703 
L 455.127273 164.515063 
L 468.01039 161.136924 
L 480.893506 138.24524 
L 493.776623 103.455788 
L 506.65974 171.636487 
L 519.542857 161.926345 
L 532.425974 182.04793 
L 545.309091 157.577163 
L 558.192208 129.861588 
L 571.075325 188.901595 
L 583.958442 184.425375 
L 596.841558 147.722226 
L 609.724675 189.615053 
L 622.607792 197.793679 
L 635.490909 228.769598 
L 648.374026 189.839498 
L 661.257143 152.842238 
L 674.14026 172.20508 
L 687.023377 163.07825 
L 699.906494 178.916474 
L 712.78961 204.007827 
L 725.672727 170.124378 
L 738.555844 130.272884 
L 751.438961 118.533306 
L 764.322078 139.87149 
L 777.205195 154.938227 
L 790.088312 161.893931 
L 802.971429 114.071595 
L 815.854545 139.551556 
L 828.737662 174.55016 
L 841.620779 201.110361 
L 854.503896 212.041539 
L 867.387013 156.37087 
L 880.27013 198.729934 
L 893.153247 175.573433 
L 906.036364 229.235732 
L 918.919481 198.354757 
L 931.802597 145.970369 
L 944.685714 151.861747 
L 957.568831 180.769338 
L 970.451948 194.044106 
L 983.335065 174.865697 
L 996.218182 160.621516 
" style="fill:none;stroke:#8c564b;stroke-linecap:square;stroke-width:1.5;"/>
   </g>
   <g id="line2d_19">
    <path clip-path="url(#p1b509a920f)" d="M 184.581818 197.850463 
L 197.464935 194.631823 
L 210.348052 191.084902 
L 223.231169 181.812942 
L 236.114286 165.166246 
L 248.997403 191.823593 
L 261.880519 236.363978 
L 274.763636 211.864113 
L 287.646753 208.866927 
L 300.52987 134.946975 
L 313.412987 139.967371 
L 326.296104 169.498166 
L 339.179221 209.917669 
L 352.062338 169.106802 
L 364.945455 161.541729 
L 377.828571 135.080172 
L 390.711688 148.020185 
L 403.594805 172.018131 
L 416.477922 211.467177 
L 429.361039 173.686552 
L 442.244156 124.458608 
L 455.127273 155.472923 
L 468.01039 177.100767 
L 480.893506 159.327077 
L 493.776623 185.469726 
L 506.65974 172.831282 
L 519.542857 176.690673 
L 532.425974 192.523946 
L 545.309091 178.277317 
L 558.192208 167.430261 
L 571.075325 138.022358 
L 583.958442 162.713193 
L 596.841558 181.100126 
L 609.724675 165.509963 
L 622.607792 149.286928 
L 635.490909 171.846044 
L 648.374026 114.329754 
L 661.257143 130.920207 
L 674.14026 174.870668 
L 687.023377 174.990475 
L 699.906494 160.580484 
L 712.78961 144.484045 
L 725.672727 186.313638 
L 738.555844 192.897779 
L 751.438961 188.059259 
L 764.322078 176.213739 
L 777.205195 177.20603 
L 790.088312 182.730757 
L 802.971429 229.135808 
L 815.854545 191.765156 
L 828.737662 164.06358 
L 841.620779 155.594017 
L 854.503896 123.152511 
L 867.387013 158.215412 
L 880.27013 170.65126 
L 893.153247 183.188701 
L 906.036364 178.483517 
L 918.919481 108.730298 
L 931.802597 110.988401 
L 944.685714 172.797109 
L 957.568831 184.0471 
L 970.451948 179.886628 
L 983.335065 153.642324 
L 996.218182 149.932859 
" style="fill:none;stroke:#e377c2;stroke-linecap:square;stroke-width:1.5;"/>
   </g>
   <g id="line2d_20">
    <path clip-path="url(#p1b509a920f)" d="M 184.581818 179.484743 
L 197.464935 220.038061 
L 210.348052 185.569151 
L 223.231169 177.804529 
L 236.114286 151.548731 
L 248.997403 179.805596 
L 261.880519 188.79954 
L 274.763636 178.156423 
L 287.646753 149.565561 
L 300.52987 110.051693 
L 313.412987 130.495409 
L 326.296104 184.699153 
L 339.179221 169.045806 
L 352.062338 165.32291 
L 364.945455 132.697833 
L 377.828571 140.416423 
L 390.711688 155.998901 
L 403.594805 155.150455 
L 416.477922 177.992955 
L 429.361039 154.533935 
L 442.244156 156.927954 
L 455.127273 175.705269 
L 468.01039 172.145925 
L 480.893506 168.842848 
L 493.776623 185.865702 
L 506.65974 151.689448 
L 519.542857 153.49705 
L 532.425974 163.419903 
L 545.309091 190.499386 
L 558.192208 153.335455 
L 571.075325 140.998783 
L 583.958442 146.779541 
L 596.841558 168.81036 
L 609.724675 156.846749 
L 622.607792 171.219188 
L 635.490909 183.461649 
L 648.374026 163.866018 
L 661.257143 173.254053 
L 674.14026 198.642655 
L 687.023377 156.062599 
L 699.906494 163.789628 
L 712.78961 165.038446 
L 725.672727 176.479759 
L 738.555844 199.980691 
L 751.438961 179.427262 
L 764.322078 171.195122 
L 777.205195 142.124349 
L 790.088312 171.606277 
L 802.971429 213.198507 
L 815.854545 193.725324 
L 828.737662 161.261196 
L 841.620779 114.616955 
L 854.503896 132.670055 
L 867.387013 158.413109 
L 880.27013 156.763858 
L 893.153247 184.543974 
L 906.036364 166.663825 
L 918.919481 145.55846 
L 931.802597 149.637078 
L 944.685714 181.38924 
L 957.568831 166.343825 
L 970.451948 170.714925 
L 983.335065 160.573221 
L 996.218182 197.422217 
" style="fill:none;stroke:#7f7f7f;stroke-linecap:square;stroke-width:1.5;"/>
   </g>
   <g id="line2d_21">
    <path clip-path="url(#p1b509a920f)" d="M 184.581818 202.789116 
L 197.464935 173.263029 
L 210.348052 181.878669 
L 223.231169 125.521804 
L 236.114286 148.366658 
L 248.997403 200.721781 
L 261.880519 196.289912 
L 274.763636 139.46052 
L 287.646753 173.13555 
L 300.52987 139.625558 
L 313.412987 163.691334 
L 326.296104 181.702926 
L 339.179221 212.415678 
L 352.062338 153.56897 
L 364.945455 149.034185 
L 377.828571 180.597391 
L 390.711688 197.848855 
L 403.594805 167.429908 
L 416.477922 175.569111 
L 429.361039 170.883418 
L 442.244156 135.735779 
L 455.127273 180.525269 
L 468.01039 197.038154 
L 480.893506 162.511493 
L 493.776623 167.90524 
L 506.65974 144.707331 
L 519.542857 168.033415 
L 532.425974 160.37348 
L 545.309091 136.702939 
L 558.192208 186.996274 
L 571.075325 134.214936 
L 583.958442 153.58623 
L 596.841558 197.537426 
L 609.724675 180.553226 
L 622.607792 154.685921 
L 635.490909 141.827174 
L 648.374026 145.419252 
L 661.257143 154.907214 
L 674.14026 115.875966 
L 687.023377 165.687681 
L 699.906494 145.931221 
L 712.78961 150.716071 
L 725.672727 215.620506 
L 738.555844 165.556373 
L 751.438961 172.080344 
L 764.322078 130.015121 
L 777.205195 165.712378 
L 790.088312 190.181506 
L 802.971429 208.724015 
L 815.854545 166.277631 
L 828.737662 121.320584 
L 841.620779 127.893704 
L 854.503896 144.696549 
L 867.387013 206.261515 
L 880.27013 183.820512 
L 893.153247 163.584325 
L 906.036364 127.296984 
L 918.919481 148.611969 
L 931.802597 165.615623 
L 944.685714 138.022473 
L 957.568831 136.607657 
L 970.451948 136.92024 
L 983.335065 173.937379 
L 996.218182 160.217697 
" style="fill:none;stroke:#bcbd22;stroke-linecap:square;stroke-width:1.5;"/>
   </g>
   <g id="line2d_22">
    <path clip-path="url(#p1b509a920f)" d="M 184.581818 108.664223 
L 197.464935 133.040173 
L 210.348052 165.345369 
L 223.231169 222.599499 
L 236.114286 202.426017 
L 248.997403 146.066665 
L 261.880519 145.046589 
L 274.763636 201.53475 
L 287.646753 185.50548 
L 300.52987 197.476734 
L 313.412987 167.272259 
L 326.296104 109.251599 
L 339.179221 122.254842 
L 352.062338 181.560845 
L 364.945455 203.580334 
L 377.828571 148.207899 
L 390.711688 121.651776 
L 403.594805 144.411034 
L 416.477922 154.019945 
L 429.361039 153.475683 
L 442.244156 187.672225 
L 455.127273 150.918371 
L 468.01039 123.566596 
L 480.893506 154.927371 
L 493.776623 179.671695 
L 506.65974 206.658914 
L 519.542857 179.726629 
L 532.425974 183.875484 
L 545.309091 183.501448 
L 558.192208 159.066658 
L 571.075325 196.071922 
L 583.958442 180.154686 
L 596.841558 144.287978 
L 609.724675 157.647947 
L 622.607792 174.972996 
L 635.490909 179.84909 
L 648.374026 150.527387 
L 661.257143 136.5153 
L 674.14026 171.898304 
L 687.023377 159.161572 
L 699.906494 157.665751 
L 712.78961 162.963713 
L 725.672727 104.812983 
L 738.555844 140.907157 
L 751.438961 160.70129 
L 764.322078 195.307147 
L 777.205195 211.607083 
L 790.088312 149.274537 
L 802.971429 151.33858 
L 815.854545 199.810117 
L 828.737662 237.631942 
L 841.620779 224.627692 
L 854.503896 169.62278 
L 867.387013 128.113376 
L 880.27013 139.190602 
L 893.153247 167.622542 
L 906.036364 202.420916 
L 918.919481 175.966384 
L 931.802597 123.61719 
L 944.685714 151.925978 
L 957.568831 180.108108 
L 970.451948 180.864381 
L 983.335065 179.847105 
L 996.218182 152.588053 
" style="fill:none;stroke:#17becf;stroke-linecap:square;stroke-width:1.5;"/>
   </g>
   <g id="line2d_23">
    <path clip-path="url(#p1b509a920f)" d="M 184.581818 155.899641 
L 197.464935 194.259725 
L 210.348052 218.045228 
L 223.231169 219.38127 
L 236.114286 189.639543 
L 248.997403 186.471 
L 261.880519 219.884049 
L 274.763636 275.329056 
L 287.646753 242.007441 
L 300.52987 154.300032 
L 313.412987 112.664434 
L 326.296104 118.340965 
L 339.179221 175.039296 
L 352.062338 185.786784 
L 364.945455 182.336549 
L 377.828571 117.55864 
L 390.711688 101.104119 
L 403.594805 147.280078 
L 416.477922 217.290721 
L 429.361039 193.80981 
L 442.244156 125.303293 
L 455.127273 149.36989 
L 468.01039 153.243652 
L 480.893506 166.559627 
L 493.776623 229.752102 
L 506.65974 212.199951 
L 519.542857 197.890704 
L 532.425974 236.703784 
L 545.309091 247.356321 
L 558.192208 188.212538 
L 571.075325 157.400456 
L 583.958442 164.129771 
L 596.841558 158.56989 
L 609.724675 138.921206 
L 622.607792 153.328113 
L 635.490909 176.416966 
L 648.374026 100.693173 
L 661.257143 125.04818 
L 674.14026 169.789335 
L 687.023377 169.97567 
L 699.906494 140.4152 
L 712.78961 98.810067 
L 725.672727 128.329176 
L 738.555844 188.574158 
L 751.438961 201.237911 
L 764.322078 184.678769 
L 777.205195 186.515104 
L 790.088312 151.143491 
L 802.971429 226.229427 
L 815.854545 239.660168 
L 828.737662 225.038509 
L 841.620779 202.567885 
L 854.503896 101.793446 
L 867.387013 111.110361 
L 880.27013 122.05526 
L 893.153247 186.632801 
L 906.036364 205.122247 
L 918.919481 101.19318 
L 931.802597 53.568 
L 944.685714 131.038041 
L 957.568831 190.645101 
L 970.451948 184.670747 
L 983.335065 154.171216 
L 996.218182 144.718455 
" style="fill:none;stroke:#1f77b4;stroke-linecap:square;stroke-width:1.5;"/>
   </g>
   <g id="line2d_24">
    <path clip-path="url(#p1b509a920f)" d="M 184.581818 177.121667 
L 197.464935 189.183937 
L 210.348052 167.756972 
L 223.231169 130.717635 
L 236.114286 145.478976 
L 248.997403 198.455195 
L 261.880519 195.693281 
L 274.763636 133.693915 
L 287.646753 139.765542 
L 300.52987 122.904002 
L 313.412987 175.459384 
L 326.296104 187.917387 
L 339.179221 190.874322 
L 352.062338 176.897154 
L 364.945455 142.137134 
L 377.828571 183.130202 
L 390.711688 218.660467 
L 403.594805 171.478012 
L 416.477922 186.257987 
L 429.361039 139.35068 
L 442.244156 135.418214 
L 455.127273 182.830921 
L 468.01039 181.580554 
L 480.893506 163.598323 
L 493.776623 160.541283 
L 506.65974 122.86118 
L 519.542857 154.107369 
L 532.425974 153.449224 
L 545.309091 111.876581 
L 558.192208 158.287022 
L 571.075325 138.873027 
L 583.958442 152.89503 
L 596.841558 170.535951 
L 609.724675 170.391789 
L 622.607792 168.829896 
L 635.490909 141.73994 
L 648.374026 179.031503 
L 661.257143 188.063184 
L 674.14026 160.383293 
L 687.023377 165.072212 
L 699.906494 153.16513 
L 712.78961 194.240066 
L 725.672727 209.633522 
L 738.555844 179.71841 
L 751.438961 157.751028 
L 764.322078 132.810038 
L 777.205195 134.097173 
L 790.088312 169.746108 
L 802.971429 211.227468 
L 815.854545 153.886442 
L 828.737662 132.453381 
L 841.620779 113.156862 
L 854.503896 139.880699 
L 867.387013 201.57252 
L 880.27013 192.403906 
L 893.153247 185.692259 
L 906.036364 122.842581 
L 918.919481 163.066221 
L 931.802597 205.046127 
L 944.685714 205.17503 
L 957.568831 162.049077 
L 970.451948 154.068944 
L 983.335065 171.731759 
L 996.218182 178.147893 
" style="fill:none;stroke:#ff7f0e;stroke-linecap:square;stroke-width:1.5;"/>
   </g>
   <g id="line2d_25">
    <path clip-path="url(#p1b509a920f)" d="M 184.581818 141.301108 
L 197.464935 168.951076 
L 210.348052 169.716158 
L 223.231169 162.364558 
L 236.114286 178.935757 
L 248.997403 209.851594 
L 261.880519 212.479017 
L 274.763636 189.294613 
L 287.646753 235.028928 
L 300.52987 202.383529 
L 313.412987 163.895355 
L 326.296104 203.066337 
L 339.179221 221.89308 
L 352.062338 212.709121 
L 364.945455 215.033295 
L 377.828571 185.311478 
L 390.711688 155.34555 
L 403.594805 144.469346 
L 416.477922 141.889119 
L 429.361039 164.142696 
L 442.244156 179.950876 
L 455.127273 153.639147 
L 468.01039 180.274651 
L 480.893506 153.880267 
L 493.776623 187.657297 
L 506.65974 205.361054 
L 519.542857 170.350269 
L 532.425974 181.196268 
L 545.309091 175.929267 
L 558.192208 189.426733 
L 571.075325 205.558851 
L 583.958442 204.038131 
L 596.841558 205.666346 
L 609.724675 215.824391 
L 622.607792 195.870096 
L 635.490909 180.132967 
L 648.374026 150.745994 
L 661.257143 115.869254 
L 674.14026 165.393163 
L 687.023377 177.173718 
L 699.906494 195.970222 
L 712.78961 194.751033 
L 725.672727 185.422847 
L 738.555844 136.833294 
L 751.438961 120.077255 
L 764.322078 196.886 
L 777.205195 157.958767 
L 790.088312 193.052239 
L 802.971429 175.60363 
L 815.854545 163.181374 
L 828.737662 153.385216 
L 841.620779 152.27091 
L 854.503896 212.739247 
L 867.387013 178.488407 
L 880.27013 203.0375 
L 893.153247 161.326424 
L 906.036364 164.116351 
L 918.919481 139.487123 
L 931.802597 130.935667 
L 944.685714 127.930615 
L 957.568831 130.622043 
L 970.451948 169.999979 
L 983.335065 135.37883 
L 996.218182 145.200929 
" style="fill:none;stroke:#2ca02c;stroke-linecap:square;stroke-width:1.5;"/>
   </g>
   <g id="line2d_26">
    <path clip-path="url(#p1b509a920f)" d="M 184.581818 129.867261 
L 197.464935 104.116391 
L 210.348052 151.400464 
L 223.231169 192.469351 
L 236.114286 209.763185 
L 248.997403 166.499936 
L 261.880519 154.53551 
L 274.763636 170.420264 
L 287.646753 194.065886 
L 300.52987 241.196033 
L 313.412987 224.412682 
L 326.296104 153.341418 
L 339.179221 130.046573 
L 352.062338 143.841954 
L 364.945455 206.709287 
L 377.828571 179.305646 
L 390.711688 145.957792 
L 403.594805 170.110022 
L 416.477922 142.53429 
L 429.361039 175.617856 
L 442.244156 189.947641 
L 455.127273 152.902946 
L 468.01039 137.810529 
L 480.893506 144.829405 
L 493.776623 151.523152 
L 506.65974 207.869579 
L 519.542857 178.98083 
L 532.425974 170.938714 
L 545.309091 166.561015 
L 558.192208 175.047765 
L 571.075325 228.020413 
L 583.958442 204.454186 
L 596.841558 162.17645 
L 609.724675 165.320926 
L 622.607792 165.642498 
L 635.490909 185.38326 
L 648.374026 163.063153 
L 661.257143 167.407854 
L 674.14026 175.215688 
L 687.023377 172.383825 
L 699.906494 189.726249 
L 712.78961 172.987634 
L 725.672727 127.308084 
L 738.555844 118.801006 
L 751.438961 155.820588 
L 764.322078 166.641099 
L 777.205195 203.783232 
L 790.088312 143.968618 
L 802.971429 66.524432 
L 815.854545 135.411028 
L 828.737662 193.285181 
L 841.620779 253.137736 
L 854.503896 217.935211 
L 867.387013 157.199545 
L 880.27013 149.573775 
L 893.153247 134.702646 
L 906.036364 185.096961 
L 918.919481 196.367116 
L 931.802597 184.581786 
L 944.685714 166.417574 
L 957.568831 169.75383 
L 970.451948 166.208187 
L 983.335065 172.652445 
L 996.218182 135.190762 
" style="fill:none;stroke:#d62728;stroke-linecap:square;stroke-width:1.5;"/>
   </g>
   <g id="line2d_27">
    <path clip-path="url(#p1b509a920f)" d="M 184.581818 96.21881 
L 197.464935 167.181216 
L 210.348052 155.710416 
L 223.231169 165.596309 
L 236.114286 201.032997 
L 248.997403 192.722396 
L 261.880519 159.468429 
L 274.763636 188.127647 
L 287.646753 193.446735 
L 300.52987 193.192179 
L 313.412987 203.184981 
L 326.296104 166.231149 
L 339.179221 138.589005 
L 352.062338 184.481231 
L 364.945455 210.731575 
L 377.828571 187.560241 
L 390.711688 181.384195 
L 403.594805 174.614825 
L 416.477922 175.763315 
L 429.361039 143.512142 
L 442.244156 173.275813 
L 455.127273 169.860823 
L 468.01039 152.344071 
L 480.893506 138.504482 
L 493.776623 161.238174 
L 506.65974 160.880068 
L 519.542857 163.173494 
L 532.425974 182.398179 
L 545.309091 140.592678 
L 558.192208 156.449062 
L 571.075325 185.250486 
L 583.958442 173.136648 
L 596.841558 159.187562 
L 609.724675 163.939957 
L 622.607792 205.281976 
L 635.490909 173.80832 
L 648.374026 163.586667 
L 661.257143 168.777256 
L 674.14026 140.262024 
L 687.023377 175.986458 
L 699.906494 147.515379 
L 712.78961 198.510671 
L 725.672727 166.821398 
L 738.555844 144.603859 
L 751.438961 157.768888 
L 764.322078 141.795311 
L 777.205195 190.274464 
L 790.088312 157.89396 
L 802.971429 176.622374 
L 815.854545 185.874077 
L 828.737662 195.653911 
L 841.620779 197.863805 
L 854.503896 150.228578 
L 867.387013 163.332773 
L 880.27013 160.646368 
L 893.153247 169.187496 
L 906.036364 166.048065 
L 918.919481 191.276279 
L 931.802597 178.604056 
L 944.685714 160.079778 
L 957.568831 171.991216 
L 970.451948 166.569887 
L 983.335065 193.088578 
L 996.218182 153.684528 
" style="fill:none;stroke:#9467bd;stroke-linecap:square;stroke-width:1.5;"/>
   </g>
   <g id="line2d_28">
    <path clip-path="url(#p1b509a920f)" d="M 184.581818 188.787382 
L 197.464935 142.519444 
L 210.348052 193.155733 
L 223.231169 171.015193 
L 236.114286 166.460408 
L 248.997403 171.433667 
L 261.880519 157.022885 
L 274.763636 119.416245 
L 287.646753 142.512053 
L 300.52987 144.868557 
L 313.412987 128.030705 
L 326.296104 122.849097 
L 339.179221 172.40323 
L 352.062338 141.195841 
L 364.945455 126.417362 
L 377.828571 122.096765 
L 390.711688 134.315795 
L 403.594805 167.088533 
L 416.477922 121.319791 
L 429.361039 182.190229 
L 442.244156 168.229437 
L 455.127273 158.11023 
L 468.01039 197.170699 
L 480.893506 187.654524 
L 493.776623 219.00753 
L 506.65974 239.813076 
L 519.542857 201.761244 
L 532.425974 158.63997 
L 545.309091 138.6827 
L 558.192208 195.773859 
L 571.075325 178.525379 
L 583.958442 154.160083 
L 596.841558 183.999693 
L 609.724675 175.244613 
L 622.607792 125.430055 
L 635.490909 113.323901 
L 648.374026 126.81921 
L 661.257143 163.750383 
L 674.14026 131.217707 
L 687.023377 151.93726 
L 699.906494 175.265449 
L 712.78961 125.987116 
L 725.672727 154.090275 
L 738.555844 154.979891 
L 751.438961 189.567061 
L 764.322078 193.404338 
L 777.205195 205.2372 
L 790.088312 192.411435 
L 802.971429 146.39277 
L 815.854545 164.781641 
L 828.737662 141.999124 
L 841.620779 164.545638 
L 854.503896 167.831834 
L 867.387013 172.540489 
L 880.27013 179.097611 
L 893.153247 128.237012 
L 906.036364 143.251038 
L 918.919481 128.77916 
L 931.802597 171.938459 
L 944.685714 140.656225 
L 957.568831 150.420138 
L 970.451948 112.166909 
L 983.335065 131.498107 
L 996.218182 134.923968 
" style="fill:none;stroke:#8c564b;stroke-linecap:square;stroke-width:1.5;"/>
   </g>
   <g id="patch_3">
    <path d="M 144 307.584 
L 144 41.472 
" style="fill:none;stroke:#000000;stroke-linecap:square;stroke-linejoin:miter;stroke-width:0.8;"/>
   </g>
   <g id="patch_4">
    <path d="M 1036.8 307.584 
L 1036.8 41.472 
" style="fill:none;stroke:#000000;stroke-linecap:square;stroke-linejoin:miter;stroke-width:0.8;"/>
   </g>
   <g id="patch_5">
    <path d="M 144 307.584 
L 1036.8 307.584 
" style="fill:none;stroke:#000000;stroke-linecap:square;stroke-linejoin:miter;stroke-width:0.8;"/>
   </g>
   <g id="patch_6">
    <path d="M 144 41.472 
L 1036.8 41.472 
" style="fill:none;stroke:#000000;stroke-linecap:square;stroke-linejoin:miter;stroke-width:0.8;"/>
   </g>
   <g id="text_13">
    <!-- 8th layer's shape: torch.Size([2, 256, 64]). Uniformly sampling 16 channels -->
    <g transform="translate(364.66875 35.472)scale(0.12 -0.12)">
     <defs>
      <path d="M 31.78125 34.625 
Q 24.75 34.625 20.71875 30.859375 
Q 16.703125 27.09375 16.703125 20.515625 
Q 16.703125 13.921875 20.71875 10.15625 
Q 24.75 6.390625 31.78125 6.390625 
Q 38.8125 6.390625 42.859375 10.171875 
Q 46.921875 13.96875 46.921875 20.515625 
Q 46.921875 27.09375 42.890625 30.859375 
Q 38.875 34.625 31.78125 34.625 
z
M 21.921875 38.8125 
Q 15.578125 40.375 12.03125 44.71875 
Q 8.5 49.078125 8.5 55.328125 
Q 8.5 64.0625 14.71875 69.140625 
Q 20.953125 74.21875 31.78125 74.21875 
Q 42.671875 74.21875 48.875 69.140625 
Q 55.078125 64.0625 55.078125 55.328125 
Q 55.078125 49.078125 51.53125 44.71875 
Q 48 40.375 41.703125 38.8125 
Q 48.828125 37.15625 52.796875 32.3125 
Q 56.78125 27.484375 56.78125 20.515625 
Q 56.78125 9.90625 50.3125 4.234375 
Q 43.84375 -1.421875 31.78125 -1.421875 
Q 19.734375 -1.421875 13.25 4.234375 
Q 6.78125 9.90625 6.78125 20.515625 
Q 6.78125 27.484375 10.78125 32.3125 
Q 14.796875 37.15625 21.921875 38.8125 
z
M 18.3125 54.390625 
Q 18.3125 48.734375 21.84375 45.5625 
Q 25.390625 42.390625 31.78125 42.390625 
Q 38.140625 42.390625 41.71875 45.5625 
Q 45.3125 48.734375 45.3125 54.390625 
Q 45.3125 60.0625 41.71875 63.234375 
Q 38.140625 66.40625 31.78125 66.40625 
Q 25.390625 66.40625 21.84375 63.234375 
Q 18.3125 60.0625 18.3125 54.390625 
z
" id="DejaVuSans-56"/>
      <path d="M 18.3125 70.21875 
L 18.3125 54.6875 
L 36.8125 54.6875 
L 36.8125 47.703125 
L 18.3125 47.703125 
L 18.3125 18.015625 
Q 18.3125 11.328125 20.140625 9.421875 
Q 21.96875 7.515625 27.59375 7.515625 
L 36.8125 7.515625 
L 36.8125 0 
L 27.59375 0 
Q 17.1875 0 13.234375 3.875 
Q 9.28125 7.765625 9.28125 18.015625 
L 9.28125 47.703125 
L 2.6875 47.703125 
L 2.6875 54.6875 
L 9.28125 54.6875 
L 9.28125 70.21875 
z
" id="DejaVuSans-116"/>
      <path d="M 54.890625 33.015625 
L 54.890625 0 
L 45.90625 0 
L 45.90625 32.71875 
Q 45.90625 40.484375 42.875 44.328125 
Q 39.84375 48.1875 33.796875 48.1875 
Q 26.515625 48.1875 22.3125 43.546875 
Q 18.109375 38.921875 18.109375 30.90625 
L 18.109375 0 
L 9.078125 0 
L 9.078125 75.984375 
L 18.109375 75.984375 
L 18.109375 46.1875 
Q 21.34375 51.125 25.703125 53.5625 
Q 30.078125 56 35.796875 56 
Q 45.21875 56 50.046875 50.171875 
Q 54.890625 44.34375 54.890625 33.015625 
z
" id="DejaVuSans-104"/>
      <path id="DejaVuSans-32"/>
      <path d="M 9.421875 75.984375 
L 18.40625 75.984375 
L 18.40625 0 
L 9.421875 0 
z
" id="DejaVuSans-108"/>
      <path d="M 34.28125 27.484375 
Q 23.390625 27.484375 19.1875 25 
Q 14.984375 22.515625 14.984375 16.5 
Q 14.984375 11.71875 18.140625 8.90625 
Q 21.296875 6.109375 26.703125 6.109375 
Q 34.1875 6.109375 38.703125 11.40625 
Q 43.21875 16.703125 43.21875 25.484375 
L 43.21875 27.484375 
z
M 52.203125 31.203125 
L 52.203125 0 
L 43.21875 0 
L 43.21875 8.296875 
Q 40.140625 3.328125 35.546875 0.953125 
Q 30.953125 -1.421875 24.3125 -1.421875 
Q 15.921875 -1.421875 10.953125 3.296875 
Q 6 8.015625 6 15.921875 
Q 6 25.140625 12.171875 29.828125 
Q 18.359375 34.515625 30.609375 34.515625 
L 43.21875 34.515625 
L 43.21875 35.40625 
Q 43.21875 41.609375 39.140625 45 
Q 35.0625 48.390625 27.6875 48.390625 
Q 23 48.390625 18.546875 47.265625 
Q 14.109375 46.140625 10.015625 43.890625 
L 10.015625 52.203125 
Q 14.9375 54.109375 19.578125 55.046875 
Q 24.21875 56 28.609375 56 
Q 40.484375 56 46.34375 49.84375 
Q 52.203125 43.703125 52.203125 31.203125 
z
" id="DejaVuSans-97"/>
      <path d="M 32.171875 -5.078125 
Q 28.375 -14.84375 24.75 -17.8125 
Q 21.140625 -20.796875 15.09375 -20.796875 
L 7.90625 -20.796875 
L 7.90625 -13.28125 
L 13.1875 -13.28125 
Q 16.890625 -13.28125 18.9375 -11.515625 
Q 21 -9.765625 23.484375 -3.21875 
L 25.09375 0.875 
L 2.984375 54.6875 
L 12.5 54.6875 
L 29.59375 11.921875 
L 46.6875 54.6875 
L 56.203125 54.6875 
z
" id="DejaVuSans-121"/>
      <path d="M 56.203125 29.59375 
L 56.203125 25.203125 
L 14.890625 25.203125 
Q 15.484375 15.921875 20.484375 11.0625 
Q 25.484375 6.203125 34.421875 6.203125 
Q 39.59375 6.203125 44.453125 7.46875 
Q 49.3125 8.734375 54.109375 11.28125 
L 54.109375 2.78125 
Q 49.265625 0.734375 44.1875 -0.34375 
Q 39.109375 -1.421875 33.890625 -1.421875 
Q 20.796875 -1.421875 13.15625 6.1875 
Q 5.515625 13.8125 5.515625 26.8125 
Q 5.515625 40.234375 12.765625 48.109375 
Q 20.015625 56 32.328125 56 
Q 43.359375 56 49.78125 48.890625 
Q 56.203125 41.796875 56.203125 29.59375 
z
M 47.21875 32.234375 
Q 47.125 39.59375 43.09375 43.984375 
Q 39.0625 48.390625 32.421875 48.390625 
Q 24.90625 48.390625 20.390625 44.140625 
Q 15.875 39.890625 15.1875 32.171875 
z
" id="DejaVuSans-101"/>
      <path d="M 41.109375 46.296875 
Q 39.59375 47.171875 37.8125 47.578125 
Q 36.03125 48 33.890625 48 
Q 26.265625 48 22.1875 43.046875 
Q 18.109375 38.09375 18.109375 28.8125 
L 18.109375 0 
L 9.078125 0 
L 9.078125 54.6875 
L 18.109375 54.6875 
L 18.109375 46.1875 
Q 20.953125 51.171875 25.484375 53.578125 
Q 30.03125 56 36.53125 56 
Q 37.453125 56 38.578125 55.875 
Q 39.703125 55.765625 41.0625 55.515625 
z
" id="DejaVuSans-114"/>
      <path d="M 17.921875 72.90625 
L 17.921875 45.796875 
L 9.625 45.796875 
L 9.625 72.90625 
z
" id="DejaVuSans-39"/>
      <path d="M 44.28125 53.078125 
L 44.28125 44.578125 
Q 40.484375 46.53125 36.375 47.5 
Q 32.28125 48.484375 27.875 48.484375 
Q 21.1875 48.484375 17.84375 46.4375 
Q 14.5 44.390625 14.5 40.28125 
Q 14.5 37.15625 16.890625 35.375 
Q 19.28125 33.59375 26.515625 31.984375 
L 29.59375 31.296875 
Q 39.15625 29.25 43.1875 25.515625 
Q 47.21875 21.78125 47.21875 15.09375 
Q 47.21875 7.46875 41.1875 3.015625 
Q 35.15625 -1.421875 24.609375 -1.421875 
Q 20.21875 -1.421875 15.453125 -0.5625 
Q 10.6875 0.296875 5.421875 2 
L 5.421875 11.28125 
Q 10.40625 8.6875 15.234375 7.390625 
Q 20.0625 6.109375 24.8125 6.109375 
Q 31.15625 6.109375 34.5625 8.28125 
Q 37.984375 10.453125 37.984375 14.40625 
Q 37.984375 18.0625 35.515625 20.015625 
Q 33.0625 21.96875 24.703125 23.78125 
L 21.578125 24.515625 
Q 13.234375 26.265625 9.515625 29.90625 
Q 5.8125 33.546875 5.8125 39.890625 
Q 5.8125 47.609375 11.28125 51.796875 
Q 16.75 56 26.8125 56 
Q 31.78125 56 36.171875 55.265625 
Q 40.578125 54.546875 44.28125 53.078125 
z
" id="DejaVuSans-115"/>
      <path d="M 18.109375 8.203125 
L 18.109375 -20.796875 
L 9.078125 -20.796875 
L 9.078125 54.6875 
L 18.109375 54.6875 
L 18.109375 46.390625 
Q 20.953125 51.265625 25.265625 53.625 
Q 29.59375 56 35.59375 56 
Q 45.5625 56 51.78125 48.09375 
Q 58.015625 40.1875 58.015625 27.296875 
Q 58.015625 14.40625 51.78125 6.484375 
Q 45.5625 -1.421875 35.59375 -1.421875 
Q 29.59375 -1.421875 25.265625 0.953125 
Q 20.953125 3.328125 18.109375 8.203125 
z
M 48.6875 27.296875 
Q 48.6875 37.203125 44.609375 42.84375 
Q 40.53125 48.484375 33.40625 48.484375 
Q 26.265625 48.484375 22.1875 42.84375 
Q 18.109375 37.203125 18.109375 27.296875 
Q 18.109375 17.390625 22.1875 11.75 
Q 26.265625 6.109375 33.40625 6.109375 
Q 40.53125 6.109375 44.609375 11.75 
Q 48.6875 17.390625 48.6875 27.296875 
z
" id="DejaVuSans-112"/>
      <path d="M 11.71875 12.40625 
L 22.015625 12.40625 
L 22.015625 0 
L 11.71875 0 
z
M 11.71875 51.703125 
L 22.015625 51.703125 
L 22.015625 39.3125 
L 11.71875 39.3125 
z
" id="DejaVuSans-58"/>
      <path d="M 30.609375 48.390625 
Q 23.390625 48.390625 19.1875 42.75 
Q 14.984375 37.109375 14.984375 27.296875 
Q 14.984375 17.484375 19.15625 11.84375 
Q 23.34375 6.203125 30.609375 6.203125 
Q 37.796875 6.203125 41.984375 11.859375 
Q 46.1875 17.53125 46.1875 27.296875 
Q 46.1875 37.015625 41.984375 42.703125 
Q 37.796875 48.390625 30.609375 48.390625 
z
M 30.609375 56 
Q 42.328125 56 49.015625 48.375 
Q 55.71875 40.765625 55.71875 27.296875 
Q 55.71875 13.875 49.015625 6.21875 
Q 42.328125 -1.421875 30.609375 -1.421875 
Q 18.84375 -1.421875 12.171875 6.21875 
Q 5.515625 13.875 5.515625 27.296875 
Q 5.515625 40.765625 12.171875 48.375 
Q 18.84375 56 30.609375 56 
z
" id="DejaVuSans-111"/>
      <path d="M 48.78125 52.59375 
L 48.78125 44.1875 
Q 44.96875 46.296875 41.140625 47.34375 
Q 37.3125 48.390625 33.40625 48.390625 
Q 24.65625 48.390625 19.8125 42.84375 
Q 14.984375 37.3125 14.984375 27.296875 
Q 14.984375 17.28125 19.8125 11.734375 
Q 24.65625 6.203125 33.40625 6.203125 
Q 37.3125 6.203125 41.140625 7.25 
Q 44.96875 8.296875 48.78125 10.40625 
L 48.78125 2.09375 
Q 45.015625 0.34375 40.984375 -0.53125 
Q 36.96875 -1.421875 32.421875 -1.421875 
Q 20.0625 -1.421875 12.78125 6.34375 
Q 5.515625 14.109375 5.515625 27.296875 
Q 5.515625 40.671875 12.859375 48.328125 
Q 20.21875 56 33.015625 56 
Q 37.15625 56 41.109375 55.140625 
Q 45.0625 54.296875 48.78125 52.59375 
z
" id="DejaVuSans-99"/>
      <path d="M 53.515625 70.515625 
L 53.515625 60.890625 
Q 47.90625 63.578125 42.921875 64.890625 
Q 37.9375 66.21875 33.296875 66.21875 
Q 25.25 66.21875 20.875 63.09375 
Q 16.5 59.96875 16.5 54.203125 
Q 16.5 49.359375 19.40625 46.890625 
Q 22.3125 44.4375 30.421875 42.921875 
L 36.375 41.703125 
Q 47.40625 39.59375 52.65625 34.296875 
Q 57.90625 29 57.90625 20.125 
Q 57.90625 9.515625 50.796875 4.046875 
Q 43.703125 -1.421875 29.984375 -1.421875 
Q 24.8125 -1.421875 18.96875 -0.25 
Q 13.140625 0.921875 6.890625 3.21875 
L 6.890625 13.375 
Q 12.890625 10.015625 18.65625 8.296875 
Q 24.421875 6.59375 29.984375 6.59375 
Q 38.421875 6.59375 43.015625 9.90625 
Q 47.609375 13.234375 47.609375 19.390625 
Q 47.609375 24.75 44.3125 27.78125 
Q 41.015625 30.8125 33.5 32.328125 
L 27.484375 33.5 
Q 16.453125 35.6875 11.515625 40.375 
Q 6.59375 45.0625 6.59375 53.421875 
Q 6.59375 63.09375 13.40625 68.65625 
Q 20.21875 74.21875 32.171875 74.21875 
Q 37.3125 74.21875 42.625 73.28125 
Q 47.953125 72.359375 53.515625 70.515625 
z
" id="DejaVuSans-83"/>
      <path d="M 9.421875 54.6875 
L 18.40625 54.6875 
L 18.40625 0 
L 9.421875 0 
z
M 9.421875 75.984375 
L 18.40625 75.984375 
L 18.40625 64.59375 
L 9.421875 64.59375 
z
" id="DejaVuSans-105"/>
      <path d="M 5.515625 54.6875 
L 48.1875 54.6875 
L 48.1875 46.484375 
L 14.40625 7.171875 
L 48.1875 7.171875 
L 48.1875 0 
L 4.296875 0 
L 4.296875 8.203125 
L 38.09375 47.515625 
L 5.515625 47.515625 
z
" id="DejaVuSans-122"/>
      <path d="M 31 75.875 
Q 24.46875 64.65625 21.28125 53.65625 
Q 18.109375 42.671875 18.109375 31.390625 
Q 18.109375 20.125 21.3125 9.0625 
Q 24.515625 -2 31 -13.1875 
L 23.1875 -13.1875 
Q 15.875 -1.703125 12.234375 9.375 
Q 8.59375 20.453125 8.59375 31.390625 
Q 8.59375 42.28125 12.203125 53.3125 
Q 15.828125 64.359375 23.1875 75.875 
z
" id="DejaVuSans-40"/>
      <path d="M 8.59375 75.984375 
L 29.296875 75.984375 
L 29.296875 69 
L 17.578125 69 
L 17.578125 -6.203125 
L 29.296875 -6.203125 
L 29.296875 -13.1875 
L 8.59375 -13.1875 
z
" id="DejaVuSans-91"/>
      <path d="M 11.71875 12.40625 
L 22.015625 12.40625 
L 22.015625 4 
L 14.015625 -11.625 
L 7.71875 -11.625 
L 11.71875 4 
z
" id="DejaVuSans-44"/>
      <path d="M 30.421875 75.984375 
L 30.421875 -13.1875 
L 9.71875 -13.1875 
L 9.71875 -6.203125 
L 21.390625 -6.203125 
L 21.390625 69 
L 9.71875 69 
L 9.71875 75.984375 
z
" id="DejaVuSans-93"/>
      <path d="M 8.015625 75.875 
L 15.828125 75.875 
Q 23.140625 64.359375 26.78125 53.3125 
Q 30.421875 42.28125 30.421875 31.390625 
Q 30.421875 20.453125 26.78125 9.375 
Q 23.140625 -1.703125 15.828125 -13.1875 
L 8.015625 -13.1875 
Q 14.5 -2 17.703125 9.0625 
Q 20.90625 20.125 20.90625 31.390625 
Q 20.90625 42.671875 17.703125 53.65625 
Q 14.5 64.65625 8.015625 75.875 
z
" id="DejaVuSans-41"/>
      <path d="M 8.6875 72.90625 
L 18.609375 72.90625 
L 18.609375 28.609375 
Q 18.609375 16.890625 22.84375 11.734375 
Q 27.09375 6.59375 36.625 6.59375 
Q 46.09375 6.59375 50.34375 11.734375 
Q 54.59375 16.890625 54.59375 28.609375 
L 54.59375 72.90625 
L 64.5 72.90625 
L 64.5 27.390625 
Q 64.5 13.140625 57.4375 5.859375 
Q 50.390625 -1.421875 36.625 -1.421875 
Q 22.796875 -1.421875 15.734375 5.859375 
Q 8.6875 13.140625 8.6875 27.390625 
z
" id="DejaVuSans-85"/>
      <path d="M 54.890625 33.015625 
L 54.890625 0 
L 45.90625 0 
L 45.90625 32.71875 
Q 45.90625 40.484375 42.875 44.328125 
Q 39.84375 48.1875 33.796875 48.1875 
Q 26.515625 48.1875 22.3125 43.546875 
Q 18.109375 38.921875 18.109375 30.90625 
L 18.109375 0 
L 9.078125 0 
L 9.078125 54.6875 
L 18.109375 54.6875 
L 18.109375 46.1875 
Q 21.34375 51.125 25.703125 53.5625 
Q 30.078125 56 35.796875 56 
Q 45.21875 56 50.046875 50.171875 
Q 54.890625 44.34375 54.890625 33.015625 
z
" id="DejaVuSans-110"/>
      <path d="M 37.109375 75.984375 
L 37.109375 68.5 
L 28.515625 68.5 
Q 23.6875 68.5 21.796875 66.546875 
Q 19.921875 64.59375 19.921875 59.515625 
L 19.921875 54.6875 
L 34.71875 54.6875 
L 34.71875 47.703125 
L 19.921875 47.703125 
L 19.921875 0 
L 10.890625 0 
L 10.890625 47.703125 
L 2.296875 47.703125 
L 2.296875 54.6875 
L 10.890625 54.6875 
L 10.890625 58.5 
Q 10.890625 67.625 15.140625 71.796875 
Q 19.390625 75.984375 28.609375 75.984375 
z
" id="DejaVuSans-102"/>
      <path d="M 52 44.1875 
Q 55.375 50.25 60.0625 53.125 
Q 64.75 56 71.09375 56 
Q 79.640625 56 84.28125 50.015625 
Q 88.921875 44.046875 88.921875 33.015625 
L 88.921875 0 
L 79.890625 0 
L 79.890625 32.71875 
Q 79.890625 40.578125 77.09375 44.375 
Q 74.3125 48.1875 68.609375 48.1875 
Q 61.625 48.1875 57.5625 43.546875 
Q 53.515625 38.921875 53.515625 30.90625 
L 53.515625 0 
L 44.484375 0 
L 44.484375 32.71875 
Q 44.484375 40.625 41.703125 44.40625 
Q 38.921875 48.1875 33.109375 48.1875 
Q 26.21875 48.1875 22.15625 43.53125 
Q 18.109375 38.875 18.109375 30.90625 
L 18.109375 0 
L 9.078125 0 
L 9.078125 54.6875 
L 18.109375 54.6875 
L 18.109375 46.1875 
Q 21.1875 51.21875 25.484375 53.609375 
Q 29.78125 56 35.6875 56 
Q 41.65625 56 45.828125 52.96875 
Q 50 49.953125 52 44.1875 
z
" id="DejaVuSans-109"/>
      <path d="M 45.40625 27.984375 
Q 45.40625 37.75 41.375 43.109375 
Q 37.359375 48.484375 30.078125 48.484375 
Q 22.859375 48.484375 18.828125 43.109375 
Q 14.796875 37.75 14.796875 27.984375 
Q 14.796875 18.265625 18.828125 12.890625 
Q 22.859375 7.515625 30.078125 7.515625 
Q 37.359375 7.515625 41.375 12.890625 
Q 45.40625 18.265625 45.40625 27.984375 
z
M 54.390625 6.78125 
Q 54.390625 -7.171875 48.1875 -13.984375 
Q 42 -20.796875 29.203125 -20.796875 
Q 24.46875 -20.796875 20.265625 -20.09375 
Q 16.0625 -19.390625 12.109375 -17.921875 
L 12.109375 -9.1875 
Q 16.0625 -11.328125 19.921875 -12.34375 
Q 23.78125 -13.375 27.78125 -13.375 
Q 36.625 -13.375 41.015625 -8.765625 
Q 45.40625 -4.15625 45.40625 5.171875 
L 45.40625 9.625 
Q 42.625 4.78125 38.28125 2.390625 
Q 33.9375 0 27.875 0 
Q 17.828125 0 11.671875 7.65625 
Q 5.515625 15.328125 5.515625 27.984375 
Q 5.515625 40.671875 11.671875 48.328125 
Q 17.828125 56 27.875 56 
Q 33.9375 56 38.28125 53.609375 
Q 42.625 51.21875 45.40625 46.390625 
L 45.40625 54.6875 
L 54.390625 54.6875 
z
" id="DejaVuSans-103"/>
     </defs>
     <use xlink:href="#DejaVuSans-56"/>
     <use x="63.623047" xlink:href="#DejaVuSans-116"/>
     <use x="102.832031" xlink:href="#DejaVuSans-104"/>
     <use x="166.210938" xlink:href="#DejaVuSans-32"/>
     <use x="197.998047" xlink:href="#DejaVuSans-108"/>
     <use x="225.78125" xlink:href="#DejaVuSans-97"/>
     <use x="287.060547" xlink:href="#DejaVuSans-121"/>
     <use x="346.240234" xlink:href="#DejaVuSans-101"/>
     <use x="407.763672" xlink:href="#DejaVuSans-114"/>
     <use x="448.876953" xlink:href="#DejaVuSans-39"/>
     <use x="476.367188" xlink:href="#DejaVuSans-115"/>
     <use x="528.466797" xlink:href="#DejaVuSans-32"/>
     <use x="560.253906" xlink:href="#DejaVuSans-115"/>
     <use x="612.353516" xlink:href="#DejaVuSans-104"/>
     <use x="675.732422" xlink:href="#DejaVuSans-97"/>
     <use x="737.011719" xlink:href="#DejaVuSans-112"/>
     <use x="800.488281" xlink:href="#DejaVuSans-101"/>
     <use x="862.011719" xlink:href="#DejaVuSans-58"/>
     <use x="895.703125" xlink:href="#DejaVuSans-32"/>
     <use x="927.490234" xlink:href="#DejaVuSans-116"/>
     <use x="966.699219" xlink:href="#DejaVuSans-111"/>
     <use x="1027.880859" xlink:href="#DejaVuSans-114"/>
     <use x="1066.744141" xlink:href="#DejaVuSans-99"/>
     <use x="1121.724609" xlink:href="#DejaVuSans-104"/>
     <use x="1185.103516" xlink:href="#DejaVuSans-46"/>
     <use x="1216.890625" xlink:href="#DejaVuSans-83"/>
     <use x="1280.367188" xlink:href="#DejaVuSans-105"/>
     <use x="1308.150391" xlink:href="#DejaVuSans-122"/>
     <use x="1360.640625" xlink:href="#DejaVuSans-101"/>
     <use x="1422.164062" xlink:href="#DejaVuSans-40"/>
     <use x="1461.177734" xlink:href="#DejaVuSans-91"/>
     <use x="1500.191406" xlink:href="#DejaVuSans-50"/>
     <use x="1563.814453" xlink:href="#DejaVuSans-44"/>
     <use x="1595.601562" xlink:href="#DejaVuSans-32"/>
     <use x="1627.388672" xlink:href="#DejaVuSans-50"/>
     <use x="1691.011719" xlink:href="#DejaVuSans-53"/>
     <use x="1754.634766" xlink:href="#DejaVuSans-54"/>
     <use x="1818.257812" xlink:href="#DejaVuSans-44"/>
     <use x="1850.044922" xlink:href="#DejaVuSans-32"/>
     <use x="1881.832031" xlink:href="#DejaVuSans-54"/>
     <use x="1945.455078" xlink:href="#DejaVuSans-52"/>
     <use x="2009.078125" xlink:href="#DejaVuSans-93"/>
     <use x="2048.091797" xlink:href="#DejaVuSans-41"/>
     <use x="2087.105469" xlink:href="#DejaVuSans-46"/>
     <use x="2118.892578" xlink:href="#DejaVuSans-32"/>
     <use x="2150.679688" xlink:href="#DejaVuSans-85"/>
     <use x="2223.873047" xlink:href="#DejaVuSans-110"/>
     <use x="2287.251953" xlink:href="#DejaVuSans-105"/>
     <use x="2315.035156" xlink:href="#DejaVuSans-102"/>
     <use x="2350.240234" xlink:href="#DejaVuSans-111"/>
     <use x="2411.421875" xlink:href="#DejaVuSans-114"/>
     <use x="2450.785156" xlink:href="#DejaVuSans-109"/>
     <use x="2548.197266" xlink:href="#DejaVuSans-108"/>
     <use x="2575.980469" xlink:href="#DejaVuSans-121"/>
     <use x="2635.160156" xlink:href="#DejaVuSans-32"/>
     <use x="2666.947266" xlink:href="#DejaVuSans-115"/>
     <use x="2719.046875" xlink:href="#DejaVuSans-97"/>
     <use x="2780.326172" xlink:href="#DejaVuSans-109"/>
     <use x="2877.738281" xlink:href="#DejaVuSans-112"/>
     <use x="2941.214844" xlink:href="#DejaVuSans-108"/>
     <use x="2968.998047" xlink:href="#DejaVuSans-105"/>
     <use x="2996.78125" xlink:href="#DejaVuSans-110"/>
     <use x="3060.160156" xlink:href="#DejaVuSans-103"/>
     <use x="3123.636719" xlink:href="#DejaVuSans-32"/>
     <use x="3155.423828" xlink:href="#DejaVuSans-49"/>
     <use x="3219.046875" xlink:href="#DejaVuSans-54"/>
     <use x="3282.669922" xlink:href="#DejaVuSans-32"/>
     <use x="3314.457031" xlink:href="#DejaVuSans-99"/>
     <use x="3369.4375" xlink:href="#DejaVuSans-104"/>
     <use x="3432.816406" xlink:href="#DejaVuSans-97"/>
     <use x="3494.095703" xlink:href="#DejaVuSans-110"/>
     <use x="3557.474609" xlink:href="#DejaVuSans-110"/>
     <use x="3620.853516" xlink:href="#DejaVuSans-101"/>
     <use x="3682.376953" xlink:href="#DejaVuSans-108"/>
     <use x="3710.160156" xlink:href="#DejaVuSans-115"/>
    </g>
   </g>
  </g>
 </g>
 <defs>
  <clipPath id="p1b509a920f">
   <rect height="266.112" width="892.8" x="144" y="41.472"/>
  </clipPath>
 </defs>
</svg>
