<?xml version="1.0" encoding="utf-8" standalone="no"?>
<!DOCTYPE svg PUBLIC "-//W3C//DTD SVG 1.1//EN"
  "http://www.w3.org/Graphics/SVG/1.1/DTD/svg11.dtd">
<!-- Created with matplotlib (https://matplotlib.org/) -->
<svg height="345.6pt" version="1.1" viewBox="0 0 1152 345.6" width="1152pt" xmlns="http://www.w3.org/2000/svg" xmlns:xlink="http://www.w3.org/1999/xlink">
 <metadata>
  <rdf:RDF xmlns:cc="http://creativecommons.org/ns#" xmlns:dc="http://purl.org/dc/elements/1.1/" xmlns:rdf="http://www.w3.org/1999/02/22-rdf-syntax-ns#">
   <cc:Work>
    <dc:type rdf:resource="http://purl.org/dc/dcmitype/StillImage"/>
    <dc:date>2021-12-24T07:22:21.638133</dc:date>
    <dc:format>image/svg+xml</dc:format>
    <dc:creator>
     <cc:Agent>
      <dc:title>Matplotlib v3.3.3, https://matplotlib.org/</dc:title>
     </cc:Agent>
    </dc:creator>
   </cc:Work>
  </rdf:RDF>
 </metadata>
 <defs>
  <style type="text/css">*{stroke-linecap:butt;stroke-linejoin:round;}</style>
 </defs>
 <g id="figure_1">
  <g id="patch_1">
   <path d="M 0 345.6 
L 1152 345.6 
L 1152 0 
L 0 0 
z
" style="fill:#ffffff;"/>
  </g>
  <g id="axes_1">
   <g id="patch_2">
    <path d="M 144 307.584 
L 1036.8 307.584 
L 1036.8 41.472 
L 144 41.472 
z
" style="fill:#ffffff;"/>
   </g>
   <g id="matplotlib.axis_1">
    <g id="xtick_1">
     <g id="line2d_1">
      <defs>
       <path d="M 0 0 
L 0 3.5 
" id="mb2aa501d08" style="stroke:#000000;stroke-width:0.8;"/>
      </defs>
      <g>
       <use style="stroke:#000000;stroke-width:0.8;" x="184.581818" xlink:href="#mb2aa501d08" y="307.584"/>
      </g>
     </g>
     <g id="text_1">
      <!-- 0 -->
      <g transform="translate(181.400568 322.182437)scale(0.1 -0.1)">
       <defs>
        <path d="M 31.78125 66.40625 
Q 24.171875 66.40625 20.328125 58.90625 
Q 16.5 51.421875 16.5 36.375 
Q 16.5 21.390625 20.328125 13.890625 
Q 24.171875 6.390625 31.78125 6.390625 
Q 39.453125 6.390625 43.28125 13.890625 
Q 47.125 21.390625 47.125 36.375 
Q 47.125 51.421875 43.28125 58.90625 
Q 39.453125 66.40625 31.78125 66.40625 
z
M 31.78125 74.21875 
Q 44.046875 74.21875 50.515625 64.515625 
Q 56.984375 54.828125 56.984375 36.375 
Q 56.984375 17.96875 50.515625 8.265625 
Q 44.046875 -1.421875 31.78125 -1.421875 
Q 19.53125 -1.421875 13.0625 8.265625 
Q 6.59375 17.96875 6.59375 36.375 
Q 6.59375 54.828125 13.0625 64.515625 
Q 19.53125 74.21875 31.78125 74.21875 
z
" id="DejaVuSans-48"/>
       </defs>
       <use xlink:href="#DejaVuSans-48"/>
      </g>
     </g>
    </g>
    <g id="xtick_2">
     <g id="line2d_2">
      <g>
       <use style="stroke:#000000;stroke-width:0.8;" x="343.259504" xlink:href="#mb2aa501d08" y="307.584"/>
      </g>
     </g>
     <g id="text_2">
      <!-- 200 -->
      <g transform="translate(333.715754 322.182437)scale(0.1 -0.1)">
       <defs>
        <path d="M 19.1875 8.296875 
L 53.609375 8.296875 
L 53.609375 0 
L 7.328125 0 
L 7.328125 8.296875 
Q 12.9375 14.109375 22.625 23.890625 
Q 32.328125 33.6875 34.8125 36.53125 
Q 39.546875 41.84375 41.421875 45.53125 
Q 43.3125 49.21875 43.3125 52.78125 
Q 43.3125 58.59375 39.234375 62.25 
Q 35.15625 65.921875 28.609375 65.921875 
Q 23.96875 65.921875 18.8125 64.3125 
Q 13.671875 62.703125 7.8125 59.421875 
L 7.8125 69.390625 
Q 13.765625 71.78125 18.9375 73 
Q 24.125 74.21875 28.421875 74.21875 
Q 39.75 74.21875 46.484375 68.546875 
Q 53.21875 62.890625 53.21875 53.421875 
Q 53.21875 48.921875 51.53125 44.890625 
Q 49.859375 40.875 45.40625 35.40625 
Q 44.1875 33.984375 37.640625 27.21875 
Q 31.109375 20.453125 19.1875 8.296875 
z
" id="DejaVuSans-50"/>
       </defs>
       <use xlink:href="#DejaVuSans-50"/>
       <use x="63.623047" xlink:href="#DejaVuSans-48"/>
       <use x="127.246094" xlink:href="#DejaVuSans-48"/>
      </g>
     </g>
    </g>
    <g id="xtick_3">
     <g id="line2d_3">
      <g>
       <use style="stroke:#000000;stroke-width:0.8;" x="501.93719" xlink:href="#mb2aa501d08" y="307.584"/>
      </g>
     </g>
     <g id="text_3">
      <!-- 400 -->
      <g transform="translate(492.39344 322.182437)scale(0.1 -0.1)">
       <defs>
        <path d="M 37.796875 64.3125 
L 12.890625 25.390625 
L 37.796875 25.390625 
z
M 35.203125 72.90625 
L 47.609375 72.90625 
L 47.609375 25.390625 
L 58.015625 25.390625 
L 58.015625 17.1875 
L 47.609375 17.1875 
L 47.609375 0 
L 37.796875 0 
L 37.796875 17.1875 
L 4.890625 17.1875 
L 4.890625 26.703125 
z
" id="DejaVuSans-52"/>
       </defs>
       <use xlink:href="#DejaVuSans-52"/>
       <use x="63.623047" xlink:href="#DejaVuSans-48"/>
       <use x="127.246094" xlink:href="#DejaVuSans-48"/>
      </g>
     </g>
    </g>
    <g id="xtick_4">
     <g id="line2d_4">
      <g>
       <use style="stroke:#000000;stroke-width:0.8;" x="660.614876" xlink:href="#mb2aa501d08" y="307.584"/>
      </g>
     </g>
     <g id="text_4">
      <!-- 600 -->
      <g transform="translate(651.071126 322.182437)scale(0.1 -0.1)">
       <defs>
        <path d="M 33.015625 40.375 
Q 26.375 40.375 22.484375 35.828125 
Q 18.609375 31.296875 18.609375 23.390625 
Q 18.609375 15.53125 22.484375 10.953125 
Q 26.375 6.390625 33.015625 6.390625 
Q 39.65625 6.390625 43.53125 10.953125 
Q 47.40625 15.53125 47.40625 23.390625 
Q 47.40625 31.296875 43.53125 35.828125 
Q 39.65625 40.375 33.015625 40.375 
z
M 52.59375 71.296875 
L 52.59375 62.3125 
Q 48.875 64.0625 45.09375 64.984375 
Q 41.3125 65.921875 37.59375 65.921875 
Q 27.828125 65.921875 22.671875 59.328125 
Q 17.53125 52.734375 16.796875 39.40625 
Q 19.671875 43.65625 24.015625 45.921875 
Q 28.375 48.1875 33.59375 48.1875 
Q 44.578125 48.1875 50.953125 41.515625 
Q 57.328125 34.859375 57.328125 23.390625 
Q 57.328125 12.15625 50.6875 5.359375 
Q 44.046875 -1.421875 33.015625 -1.421875 
Q 20.359375 -1.421875 13.671875 8.265625 
Q 6.984375 17.96875 6.984375 36.375 
Q 6.984375 53.65625 15.1875 63.9375 
Q 23.390625 74.21875 37.203125 74.21875 
Q 40.921875 74.21875 44.703125 73.484375 
Q 48.484375 72.75 52.59375 71.296875 
z
" id="DejaVuSans-54"/>
       </defs>
       <use xlink:href="#DejaVuSans-54"/>
       <use x="63.623047" xlink:href="#DejaVuSans-48"/>
       <use x="127.246094" xlink:href="#DejaVuSans-48"/>
      </g>
     </g>
    </g>
    <g id="xtick_5">
     <g id="line2d_5">
      <g>
       <use style="stroke:#000000;stroke-width:0.8;" x="819.292562" xlink:href="#mb2aa501d08" y="307.584"/>
      </g>
     </g>
     <g id="text_5">
      <!-- 800 -->
      <g transform="translate(809.748812 322.182437)scale(0.1 -0.1)">
       <defs>
        <path d="M 31.78125 34.625 
Q 24.75 34.625 20.71875 30.859375 
Q 16.703125 27.09375 16.703125 20.515625 
Q 16.703125 13.921875 20.71875 10.15625 
Q 24.75 6.390625 31.78125 6.390625 
Q 38.8125 6.390625 42.859375 10.171875 
Q 46.921875 13.96875 46.921875 20.515625 
Q 46.921875 27.09375 42.890625 30.859375 
Q 38.875 34.625 31.78125 34.625 
z
M 21.921875 38.8125 
Q 15.578125 40.375 12.03125 44.71875 
Q 8.5 49.078125 8.5 55.328125 
Q 8.5 64.0625 14.71875 69.140625 
Q 20.953125 74.21875 31.78125 74.21875 
Q 42.671875 74.21875 48.875 69.140625 
Q 55.078125 64.0625 55.078125 55.328125 
Q 55.078125 49.078125 51.53125 44.71875 
Q 48 40.375 41.703125 38.8125 
Q 48.828125 37.15625 52.796875 32.3125 
Q 56.78125 27.484375 56.78125 20.515625 
Q 56.78125 9.90625 50.3125 4.234375 
Q 43.84375 -1.421875 31.78125 -1.421875 
Q 19.734375 -1.421875 13.25 4.234375 
Q 6.78125 9.90625 6.78125 20.515625 
Q 6.78125 27.484375 10.78125 32.3125 
Q 14.796875 37.15625 21.921875 38.8125 
z
M 18.3125 54.390625 
Q 18.3125 48.734375 21.84375 45.5625 
Q 25.390625 42.390625 31.78125 42.390625 
Q 38.140625 42.390625 41.71875 45.5625 
Q 45.3125 48.734375 45.3125 54.390625 
Q 45.3125 60.0625 41.71875 63.234375 
Q 38.140625 66.40625 31.78125 66.40625 
Q 25.390625 66.40625 21.84375 63.234375 
Q 18.3125 60.0625 18.3125 54.390625 
z
" id="DejaVuSans-56"/>
       </defs>
       <use xlink:href="#DejaVuSans-56"/>
       <use x="63.623047" xlink:href="#DejaVuSans-48"/>
       <use x="127.246094" xlink:href="#DejaVuSans-48"/>
      </g>
     </g>
    </g>
    <g id="xtick_6">
     <g id="line2d_6">
      <g>
       <use style="stroke:#000000;stroke-width:0.8;" x="977.970248" xlink:href="#mb2aa501d08" y="307.584"/>
      </g>
     </g>
     <g id="text_6">
      <!-- 1000 -->
      <g transform="translate(965.245248 322.182437)scale(0.1 -0.1)">
       <defs>
        <path d="M 12.40625 8.296875 
L 28.515625 8.296875 
L 28.515625 63.921875 
L 10.984375 60.40625 
L 10.984375 69.390625 
L 28.421875 72.90625 
L 38.28125 72.90625 
L 38.28125 8.296875 
L 54.390625 8.296875 
L 54.390625 0 
L 12.40625 0 
z
" id="DejaVuSans-49"/>
       </defs>
       <use xlink:href="#DejaVuSans-49"/>
       <use x="63.623047" xlink:href="#DejaVuSans-48"/>
       <use x="127.246094" xlink:href="#DejaVuSans-48"/>
       <use x="190.869141" xlink:href="#DejaVuSans-48"/>
      </g>
     </g>
    </g>
   </g>
   <g id="matplotlib.axis_2">
    <g id="ytick_1">
     <g id="line2d_7">
      <defs>
       <path d="M 0 0 
L -3.5 0 
" id="m439e4ec5d7" style="stroke:#000000;stroke-width:0.8;"/>
      </defs>
      <g>
       <use style="stroke:#000000;stroke-width:0.8;" x="144" xlink:href="#m439e4ec5d7" y="285.031589"/>
      </g>
     </g>
     <g id="text_7">
      <!-- −0.0075 -->
      <g transform="translate(93.629687 288.830808)scale(0.1 -0.1)">
       <defs>
        <path d="M 10.59375 35.5 
L 73.1875 35.5 
L 73.1875 27.203125 
L 10.59375 27.203125 
z
" id="DejaVuSans-8722"/>
        <path d="M 10.6875 12.40625 
L 21 12.40625 
L 21 0 
L 10.6875 0 
z
" id="DejaVuSans-46"/>
        <path d="M 8.203125 72.90625 
L 55.078125 72.90625 
L 55.078125 68.703125 
L 28.609375 0 
L 18.3125 0 
L 43.21875 64.59375 
L 8.203125 64.59375 
z
" id="DejaVuSans-55"/>
        <path d="M 10.796875 72.90625 
L 49.515625 72.90625 
L 49.515625 64.59375 
L 19.828125 64.59375 
L 19.828125 46.734375 
Q 21.96875 47.46875 24.109375 47.828125 
Q 26.265625 48.1875 28.421875 48.1875 
Q 40.625 48.1875 47.75 41.5 
Q 54.890625 34.8125 54.890625 23.390625 
Q 54.890625 11.625 47.5625 5.09375 
Q 40.234375 -1.421875 26.90625 -1.421875 
Q 22.3125 -1.421875 17.546875 -0.640625 
Q 12.796875 0.140625 7.71875 1.703125 
L 7.71875 11.625 
Q 12.109375 9.234375 16.796875 8.0625 
Q 21.484375 6.890625 26.703125 6.890625 
Q 35.15625 6.890625 40.078125 11.328125 
Q 45.015625 15.765625 45.015625 23.390625 
Q 45.015625 31 40.078125 35.4375 
Q 35.15625 39.890625 26.703125 39.890625 
Q 22.75 39.890625 18.8125 39.015625 
Q 14.890625 38.140625 10.796875 36.28125 
z
" id="DejaVuSans-53"/>
       </defs>
       <use xlink:href="#DejaVuSans-8722"/>
       <use x="83.789062" xlink:href="#DejaVuSans-48"/>
       <use x="147.412109" xlink:href="#DejaVuSans-46"/>
       <use x="179.199219" xlink:href="#DejaVuSans-48"/>
       <use x="242.822266" xlink:href="#DejaVuSans-48"/>
       <use x="306.445312" xlink:href="#DejaVuSans-55"/>
       <use x="370.068359" xlink:href="#DejaVuSans-53"/>
      </g>
     </g>
    </g>
    <g id="ytick_2">
     <g id="line2d_8">
      <g>
       <use style="stroke:#000000;stroke-width:0.8;" x="144" xlink:href="#m439e4ec5d7" y="253.85422"/>
      </g>
     </g>
     <g id="text_8">
      <!-- −0.0050 -->
      <g transform="translate(93.629687 257.653439)scale(0.1 -0.1)">
       <use xlink:href="#DejaVuSans-8722"/>
       <use x="83.789062" xlink:href="#DejaVuSans-48"/>
       <use x="147.412109" xlink:href="#DejaVuSans-46"/>
       <use x="179.199219" xlink:href="#DejaVuSans-48"/>
       <use x="242.822266" xlink:href="#DejaVuSans-48"/>
       <use x="306.445312" xlink:href="#DejaVuSans-53"/>
       <use x="370.068359" xlink:href="#DejaVuSans-48"/>
      </g>
     </g>
    </g>
    <g id="ytick_3">
     <g id="line2d_9">
      <g>
       <use style="stroke:#000000;stroke-width:0.8;" x="144" xlink:href="#m439e4ec5d7" y="222.676852"/>
      </g>
     </g>
     <g id="text_9">
      <!-- −0.0025 -->
      <g transform="translate(93.629687 226.47607)scale(0.1 -0.1)">
       <use xlink:href="#DejaVuSans-8722"/>
       <use x="83.789062" xlink:href="#DejaVuSans-48"/>
       <use x="147.412109" xlink:href="#DejaVuSans-46"/>
       <use x="179.199219" xlink:href="#DejaVuSans-48"/>
       <use x="242.822266" xlink:href="#DejaVuSans-48"/>
       <use x="306.445312" xlink:href="#DejaVuSans-50"/>
       <use x="370.068359" xlink:href="#DejaVuSans-53"/>
      </g>
     </g>
    </g>
    <g id="ytick_4">
     <g id="line2d_10">
      <g>
       <use style="stroke:#000000;stroke-width:0.8;" x="144" xlink:href="#m439e4ec5d7" y="191.499483"/>
      </g>
     </g>
     <g id="text_10">
      <!-- 0.0000 -->
      <g transform="translate(102.009375 195.298702)scale(0.1 -0.1)">
       <use xlink:href="#DejaVuSans-48"/>
       <use x="63.623047" xlink:href="#DejaVuSans-46"/>
       <use x="95.410156" xlink:href="#DejaVuSans-48"/>
       <use x="159.033203" xlink:href="#DejaVuSans-48"/>
       <use x="222.65625" xlink:href="#DejaVuSans-48"/>
       <use x="286.279297" xlink:href="#DejaVuSans-48"/>
      </g>
     </g>
    </g>
    <g id="ytick_5">
     <g id="line2d_11">
      <g>
       <use style="stroke:#000000;stroke-width:0.8;" x="144" xlink:href="#m439e4ec5d7" y="160.322114"/>
      </g>
     </g>
     <g id="text_11">
      <!-- 0.0025 -->
      <g transform="translate(102.009375 164.121333)scale(0.1 -0.1)">
       <use xlink:href="#DejaVuSans-48"/>
       <use x="63.623047" xlink:href="#DejaVuSans-46"/>
       <use x="95.410156" xlink:href="#DejaVuSans-48"/>
       <use x="159.033203" xlink:href="#DejaVuSans-48"/>
       <use x="222.65625" xlink:href="#DejaVuSans-50"/>
       <use x="286.279297" xlink:href="#DejaVuSans-53"/>
      </g>
     </g>
    </g>
    <g id="ytick_6">
     <g id="line2d_12">
      <g>
       <use style="stroke:#000000;stroke-width:0.8;" x="144" xlink:href="#m439e4ec5d7" y="129.144746"/>
      </g>
     </g>
     <g id="text_12">
      <!-- 0.0050 -->
      <g transform="translate(102.009375 132.943964)scale(0.1 -0.1)">
       <use xlink:href="#DejaVuSans-48"/>
       <use x="63.623047" xlink:href="#DejaVuSans-46"/>
       <use x="95.410156" xlink:href="#DejaVuSans-48"/>
       <use x="159.033203" xlink:href="#DejaVuSans-48"/>
       <use x="222.65625" xlink:href="#DejaVuSans-53"/>
       <use x="286.279297" xlink:href="#DejaVuSans-48"/>
      </g>
     </g>
    </g>
    <g id="ytick_7">
     <g id="line2d_13">
      <g>
       <use style="stroke:#000000;stroke-width:0.8;" x="144" xlink:href="#m439e4ec5d7" y="97.967377"/>
      </g>
     </g>
     <g id="text_13">
      <!-- 0.0075 -->
      <g transform="translate(102.009375 101.766596)scale(0.1 -0.1)">
       <use xlink:href="#DejaVuSans-48"/>
       <use x="63.623047" xlink:href="#DejaVuSans-46"/>
       <use x="95.410156" xlink:href="#DejaVuSans-48"/>
       <use x="159.033203" xlink:href="#DejaVuSans-48"/>
       <use x="222.65625" xlink:href="#DejaVuSans-55"/>
       <use x="286.279297" xlink:href="#DejaVuSans-53"/>
      </g>
     </g>
    </g>
    <g id="ytick_8">
     <g id="line2d_14">
      <g>
       <use style="stroke:#000000;stroke-width:0.8;" x="144" xlink:href="#m439e4ec5d7" y="66.790008"/>
      </g>
     </g>
     <g id="text_14">
      <!-- 0.0100 -->
      <g transform="translate(102.009375 70.589227)scale(0.1 -0.1)">
       <use xlink:href="#DejaVuSans-48"/>
       <use x="63.623047" xlink:href="#DejaVuSans-46"/>
       <use x="95.410156" xlink:href="#DejaVuSans-48"/>
       <use x="159.033203" xlink:href="#DejaVuSans-49"/>
       <use x="222.65625" xlink:href="#DejaVuSans-48"/>
       <use x="286.279297" xlink:href="#DejaVuSans-48"/>
      </g>
     </g>
    </g>
   </g>
   <g id="line2d_15">
    <path clip-path="url(#pc3d4270595)" d="M 184.581818 216.164821 
L 185.375207 203.411654 
L 186.168595 228.232243 
L 186.961983 198.718769 
L 187.755372 219.978141 
L 188.54876 188.915124 
L 189.342149 255.086213 
L 190.135537 163.569972 
L 190.928926 211.442307 
L 191.722314 158.373282 
L 192.515702 233.587799 
L 194.102479 127.074438 
L 194.895868 202.492287 
L 195.689256 180.728864 
L 196.482645 201.335356 
L 197.276033 143.023905 
L 198.069421 145.399547 
L 198.86281 148.33735 
L 199.656198 194.203296 
L 200.449587 161.809279 
L 201.242975 123.53157 
L 202.036364 174.567656 
L 202.829752 181.830687 
L 203.62314 179.552132 
L 204.416529 234.149888 
L 205.209917 187.645617 
L 206.003306 152.876609 
L 206.796694 210.014973 
L 207.590083 249.250979 
L 208.383471 178.003874 
L 209.17686 171.075355 
L 209.970248 115.000581 
L 210.763636 251.537979 
L 211.557025 239.357325 
L 212.350413 210.221244 
L 213.143802 224.684033 
L 213.93719 226.347208 
L 214.730579 265.260481 
L 215.523967 188.222042 
L 216.317355 199.315316 
L 217.110744 178.010461 
L 217.904132 213.149984 
L 218.697521 202.529407 
L 219.490909 152.227291 
L 220.284298 158.112429 
L 221.077686 174.296779 
L 221.871074 270.052021 
L 222.664463 199.928765 
L 223.457851 237.883047 
L 224.25124 174.462473 
L 225.044628 204.106593 
L 225.838017 202.004186 
L 226.631405 173.665979 
L 227.424793 226.587358 
L 228.218182 170.360189 
L 229.01157 193.760247 
L 229.804959 199.019496 
L 230.598347 200.870076 
L 231.391736 144.231288 
L 232.185124 125.995314 
L 232.978512 235.421922 
L 233.771901 189.846446 
L 234.565289 193.974962 
L 235.358678 236.491 
L 236.152066 155.180553 
L 236.945455 229.393789 
L 237.738843 147.688371 
L 238.532231 158.175057 
L 240.119008 196.472683 
L 240.912397 247.520968 
L 241.705785 150.969112 
L 242.499174 127.410474 
L 244.08595 223.682 
L 244.879339 167.99017 
L 245.672727 194.729444 
L 246.466116 180.563746 
L 247.259504 214.146055 
L 248.052893 235.186032 
L 248.846281 225.768218 
L 249.639669 242.717099 
L 251.226446 230.803746 
L 252.019835 231.217207 
L 252.813223 145.235391 
L 253.606612 196.256512 
L 254.4 213.817364 
L 255.193388 151.497399 
L 255.986777 199.85689 
L 256.780165 184.933048 
L 257.573554 178.702157 
L 258.366942 186.862674 
L 259.160331 196.836155 
L 259.953719 164.149706 
L 260.747107 209.461051 
L 261.540496 140.440161 
L 262.333884 176.651868 
L 263.127273 153.763224 
L 263.920661 174.64454 
L 264.71405 205.949546 
L 265.507438 232.189449 
L 266.300826 144.993064 
L 267.094215 242.005596 
L 267.887603 268.750457 
L 268.680992 220.201606 
L 269.47438 147.456491 
L 270.267769 218.380369 
L 271.061157 191.884358 
L 271.854545 210.807428 
L 272.647934 100.415664 
L 273.441322 166.692939 
L 274.234711 159.025127 
L 275.028099 185.071681 
L 275.821488 187.831199 
L 276.614876 211.874904 
L 277.408264 88.672088 
L 278.201653 201.88419 
L 278.995041 186.464508 
L 279.78843 217.964348 
L 280.581818 191.607157 
L 281.375207 173.738509 
L 282.168595 175.369972 
L 282.961983 195.452211 
L 283.755372 201.936697 
L 284.54876 145.694262 
L 285.342149 145.669503 
L 286.135537 215.643044 
L 286.928926 225.12567 
L 287.722314 186.382013 
L 288.515702 197.130679 
L 289.309091 173.923674 
L 290.102479 287.654861 
L 290.895868 217.298089 
L 291.689256 181.118693 
L 292.482645 179.871556 
L 293.276033 164.53224 
L 294.069421 204.796588 
L 294.86281 230.491543 
L 295.656198 203.846355 
L 296.449587 209.053471 
L 297.242975 249.395556 
L 298.036364 178.359675 
L 298.829752 258.8063 
L 299.62314 152.588931 
L 300.416529 245.266558 
L 301.209917 218.991706 
L 302.003306 150.628239 
L 302.796694 159.699135 
L 303.590083 217.827875 
L 304.383471 228.53766 
L 305.17686 237.26831 
L 305.970248 173.448485 
L 306.763636 156.683257 
L 307.557025 201.376654 
L 308.350413 198.935137 
L 309.143802 161.534501 
L 309.93719 146.766522 
L 310.730579 181.427315 
L 311.523967 162.422761 
L 312.317355 195.934876 
L 313.110744 263.88049 
L 313.904132 157.477237 
L 314.697521 152.675357 
L 315.490909 207.366575 
L 316.284298 152.781438 
L 317.077686 184.838857 
L 317.871074 154.356389 
L 318.664463 154.832905 
L 319.457851 180.238287 
L 320.25124 140.297088 
L 321.044628 195.598739 
L 321.838017 183.38284 
L 322.631405 206.815764 
L 323.424793 190.242347 
L 324.218182 224.496732 
L 325.01157 160.379685 
L 325.804959 212.798159 
L 326.598347 171.150241 
L 327.391736 199.11731 
L 328.185124 167.691584 
L 328.978512 207.407057 
L 329.771901 162.358417 
L 330.565289 200.795826 
L 331.358678 220.712765 
L 332.152066 199.595337 
L 332.945455 88.662715 
L 334.532231 281.806259 
L 336.119008 171.642236 
L 336.912397 159.75708 
L 337.705785 176.068204 
L 338.499174 201.014655 
L 339.292562 277.354849 
L 340.08595 138.053003 
L 340.879339 159.942661 
L 341.672727 97.379414 
L 342.466116 230.3011 
L 343.259504 229.954417 
L 344.052893 169.301237 
L 344.846281 87.188943 
L 345.639669 203.36021 
L 346.433058 169.445242 
L 347.226446 247.491746 
L 348.019835 165.807077 
L 348.813223 217.742105 
L 349.606612 180.178782 
L 350.4 198.961867 
L 351.193388 225.489552 
L 351.986777 154.637727 
L 352.780165 167.139725 
L 353.573554 182.414843 
L 354.366942 183.491002 
L 355.160331 202.365001 
L 355.953719 240.880636 
L 356.747107 167.812955 
L 357.540496 199.499618 
L 358.333884 236.689198 
L 359.127273 161.807784 
L 359.920661 110.617958 
L 360.71405 135.334983 
L 361.507438 138.211854 
L 362.300826 152.790154 
L 363.094215 189.894802 
L 363.887603 215.738513 
L 364.680992 171.699284 
L 365.47438 198.402783 
L 366.267769 177.222525 
L 367.061157 211.926153 
L 367.854545 174.305936 
L 368.647934 196.134149 
L 369.441322 138.954727 
L 370.234711 212.265501 
L 371.028099 135.733255 
L 371.821488 160.304194 
L 372.614876 198.695229 
L 373.408264 160.89265 
L 374.201653 183.85808 
L 374.995041 241.645292 
L 375.78843 195.162825 
L 376.581818 198.946944 
L 377.375207 200.51725 
L 378.168595 207.678663 
L 378.961983 159.407507 
L 379.755372 189.468027 
L 380.54876 208.607403 
L 381.342149 140.285485 
L 382.135537 131.906234 
L 382.928926 114.969803 
L 383.722314 206.714059 
L 384.515702 259.624098 
L 385.309091 144.411745 
L 386.895868 173.682654 
L 387.689256 257.901544 
L 388.482645 126.500607 
L 389.276033 183.684529 
L 390.069421 188.491799 
L 390.86281 243.513341 
L 391.656198 155.428678 
L 392.449587 160.3783 
L 393.242975 158.790747 
L 394.036364 218.495396 
L 394.829752 210.965373 
L 395.62314 251.106664 
L 396.416529 234.627812 
L 397.209917 242.675444 
L 398.003306 215.621566 
L 399.590083 119.02937 
L 400.383471 219.889087 
L 401.17686 228.554176 
L 401.970248 189.130583 
L 402.763636 235.799666 
L 403.557025 196.513193 
L 404.350413 164.853293 
L 405.143802 178.635537 
L 405.93719 183.512937 
L 406.730579 141.380474 
L 407.523967 209.027227 
L 408.317355 186.667408 
L 409.110744 206.200171 
L 409.904132 104.372756 
L 410.697521 139.465944 
L 411.490909 202.943397 
L 412.284298 162.502068 
L 413.077686 213.333392 
L 413.871074 203.835346 
L 414.664463 206.284424 
L 415.457851 209.254985 
L 416.25124 157.364747 
L 417.044628 197.351221 
L 417.838017 246.287029 
L 418.631405 166.202254 
L 419.424793 227.036945 
L 420.218182 207.883009 
L 421.01157 231.426555 
L 421.804959 180.112218 
L 422.598347 218.087748 
L 423.391736 132.461969 
L 424.185124 188.117959 
L 424.978512 139.551224 
L 425.771901 180.167927 
L 426.565289 200.085806 
L 427.358678 241.373833 
L 428.152066 193.70361 
L 428.945455 186.292783 
L 429.738843 180.704441 
L 430.532231 169.993462 
L 431.32562 122.355785 
L 432.119008 257.788936 
L 433.705785 210.674133 
L 434.499174 197.661633 
L 435.292562 198.99552 
L 436.08595 157.873581 
L 436.879339 196.111112 
L 437.672727 167.031963 
L 438.466116 159.31458 
L 439.259504 186.834348 
L 440.052893 156.957361 
L 440.846281 222.626424 
L 441.639669 207.211712 
L 442.433058 246.766613 
L 443.226446 194.899047 
L 444.019835 185.75603 
L 444.813223 211.502658 
L 445.606612 142.88499 
L 446.4 191.410554 
L 447.193388 172.477313 
L 447.986777 138.008891 
L 448.780165 135.793291 
L 449.573554 166.752222 
L 450.366942 169.969079 
L 451.953719 188.863028 
L 452.747107 160.910368 
L 453.540496 192.775644 
L 454.333884 203.856294 
L 455.127273 208.325781 
L 455.920661 206.667068 
L 456.71405 205.666317 
L 457.507438 211.718153 
L 458.300826 192.448394 
L 459.094215 191.602188 
L 459.887603 209.426554 
L 460.680992 195.521409 
L 461.47438 251.402647 
L 462.267769 110.340059 
L 463.061157 209.69628 
L 464.647934 186.981592 
L 465.441322 157.075021 
L 466.234711 282.993926 
L 467.028099 269.892938 
L 467.821488 217.655455 
L 468.614876 227.039074 
L 469.408264 202.900331 
L 470.201653 205.59947 
L 470.995041 160.398556 
L 471.78843 176.85085 
L 472.581818 256.408091 
L 473.375207 188.583376 
L 474.168595 254.132508 
L 474.961983 237.721374 
L 475.755372 126.255943 
L 476.54876 158.992702 
L 477.342149 144.361443 
L 478.135537 252.151032 
L 478.928926 166.714356 
L 479.722314 161.607373 
L 480.515702 165.707587 
L 481.309091 126.647037 
L 482.102479 140.695772 
L 482.895868 173.753329 
L 483.689256 150.866394 
L 484.482645 196.757774 
L 485.276033 136.30841 
L 486.069421 221.48718 
L 486.86281 182.333967 
L 487.656198 183.870789 
L 488.449587 220.954642 
L 489.242975 198.136161 
L 490.036364 261.051837 
L 490.829752 204.602999 
L 491.62314 260.256036 
L 492.416529 175.127474 
L 493.209917 216.570611 
L 494.003306 53.568 
L 494.796694 204.646701 
L 495.590083 229.278879 
L 496.383471 244.751955 
L 497.17686 141.364969 
L 497.970248 204.943577 
L 498.763636 207.813812 
L 499.557025 227.359238 
L 500.350413 194.052692 
L 501.143802 183.362968 
L 501.93719 182.55258 
L 502.730579 231.954949 
L 503.523967 232.160041 
L 504.317355 151.115626 
L 505.110744 236.060515 
L 505.904132 131.474286 
L 506.697521 258.042701 
L 507.490909 160.37767 
L 508.284298 166.001277 
L 509.077686 204.64278 
L 509.871074 172.828039 
L 510.664463 215.981217 
L 511.457851 186.847844 
L 512.25124 161.875194 
L 513.044628 241.73632 
L 513.838017 202.994298 
L 514.631405 173.687778 
L 515.424793 196.722449 
L 516.218182 178.465941 
L 517.01157 179.874132 
L 517.804959 175.159932 
L 518.598347 224.591047 
L 519.391736 186.823153 
L 520.185124 182.841246 
L 520.978512 133.087211 
L 521.771901 199.411834 
L 522.565289 153.387632 
L 523.358678 209.924467 
L 524.152066 176.472915 
L 524.945455 243.184164 
L 525.738843 174.252839 
L 526.532231 190.777365 
L 527.32562 233.778675 
L 528.119008 130.23091 
L 528.912397 162.903058 
L 529.705785 232.236862 
L 530.499174 172.649318 
L 531.292562 78.431873 
L 532.08595 222.588767 
L 532.879339 188.730874 
L 533.672727 192.144052 
L 534.466116 169.992048 
L 535.259504 136.799185 
L 536.052893 214.819951 
L 536.846281 223.2561 
L 537.639669 186.249041 
L 538.433058 170.493686 
L 539.226446 250.83348 
L 540.019835 200.807648 
L 540.813223 188.985926 
L 541.606612 244.348625 
L 542.4 203.872251 
L 543.193388 252.850444 
L 543.986777 140.363447 
L 544.780165 105.951889 
L 545.573554 169.50216 
L 546.366942 145.042245 
L 547.160331 190.752899 
L 547.953719 199.289233 
L 548.747107 125.776358 
L 549.540496 220.563708 
L 550.333884 200.707996 
L 551.127273 209.920191 
L 551.920661 236.727619 
L 552.71405 101.595236 
L 553.507438 194.824973 
L 554.300826 181.574246 
L 555.094215 164.330732 
L 555.887603 227.304801 
L 556.680992 163.340476 
L 557.47438 186.580113 
L 558.267769 219.474827 
L 559.061157 181.282188 
L 559.854545 190.282423 
L 560.647934 194.348042 
L 561.441322 185.494684 
L 562.234711 250.523641 
L 563.028099 256.256557 
L 563.821488 119.600965 
L 564.614876 182.479953 
L 565.408264 187.176057 
L 566.201653 228.218018 
L 566.995041 152.840718 
L 567.78843 126.91809 
L 568.581818 234.370769 
L 569.375207 202.745179 
L 570.168595 207.017004 
L 570.961983 228.036217 
L 571.755372 162.965302 
L 572.54876 230.234744 
L 573.342149 127.238626 
L 574.135537 198.27047 
L 574.928926 231.634312 
L 575.722314 252.054568 
L 576.515702 188.160269 
L 577.309091 186.636853 
L 578.102479 181.33026 
L 578.895868 207.498524 
L 579.689256 184.423033 
L 580.482645 174.192888 
L 581.276033 170.261664 
L 582.069421 151.856638 
L 582.86281 127.510039 
L 584.449587 217.14195 
L 585.242975 208.400275 
L 586.036364 217.460221 
L 587.62314 183.982556 
L 588.416529 208.082309 
L 589.209917 186.674658 
L 590.003306 161.452099 
L 590.796694 117.593217 
L 591.590083 201.117997 
L 592.383471 159.956178 
L 593.17686 185.587319 
L 593.970248 167.29525 
L 594.763636 169.859639 
L 595.557025 239.239397 
L 596.350413 204.832288 
L 597.143802 203.387546 
L 597.93719 226.939221 
L 598.730579 202.090752 
L 599.523967 237.632067 
L 600.317355 223.272798 
L 601.110744 156.534919 
L 601.904132 171.469077 
L 602.697521 172.823836 
L 603.490909 179.499874 
L 604.284298 156.14197 
L 605.077686 153.423387 
L 605.871074 182.596635 
L 606.664463 168.878226 
L 607.457851 180.763797 
L 608.25124 145.953598 
L 609.044628 159.953045 
L 610.631405 234.534649 
L 611.424793 196.282183 
L 612.218182 243.663847 
L 613.01157 187.7983 
L 613.804959 214.967344 
L 614.598347 187.976263 
L 615.391736 202.578886 
L 616.185124 185.012933 
L 616.978512 282.737827 
L 617.771901 221.253064 
L 618.565289 184.245087 
L 619.358678 180.931349 
L 620.152066 233.854468 
L 620.945455 176.659112 
L 621.738843 222.422959 
L 622.532231 227.43691 
L 623.32562 192.312363 
L 624.119008 181.179731 
L 624.912397 118.808201 
L 625.705785 140.836993 
L 626.499174 209.155175 
L 627.292562 144.201596 
L 628.08595 232.471846 
L 628.879339 184.595865 
L 629.672727 232.02051 
L 630.466116 193.518154 
L 631.259504 208.096608 
L 632.052893 153.162808 
L 632.846281 210.521351 
L 633.639669 237.278247 
L 634.433058 183.09068 
L 636.019835 130.771227 
L 636.813223 144.097812 
L 637.606612 245.203073 
L 638.4 162.137908 
L 639.193388 155.294435 
L 639.986777 181.892314 
L 640.780165 155.464091 
L 641.573554 117.852998 
L 642.366942 206.651723 
L 643.160331 171.310291 
L 643.953719 143.513278 
L 644.747107 199.868727 
L 645.540496 227.986995 
L 646.333884 241.826809 
L 647.127273 170.317846 
L 647.920661 223.177856 
L 648.71405 150.147998 
L 649.507438 148.067659 
L 650.300826 142.041216 
L 651.094215 154.432923 
L 651.887603 153.984265 
L 652.680992 184.070232 
L 653.47438 163.971665 
L 654.267769 273.088318 
L 655.061157 239.066272 
L 655.854545 174.459351 
L 656.647934 153.821839 
L 657.441322 250.548141 
L 659.028099 202.773369 
L 659.821488 214.875 
L 660.614876 192.390095 
L 661.408264 181.081266 
L 662.201653 212.477593 
L 662.995041 194.823069 
L 663.78843 107.469715 
L 664.581818 216.404076 
L 665.375207 155.005891 
L 666.168595 197.134853 
L 666.961983 122.040939 
L 667.755372 140.939513 
L 668.54876 187.925308 
L 669.342149 193.581193 
L 670.135537 194.465175 
L 670.928926 175.707488 
L 671.722314 189.075133 
L 672.515702 128.91294 
L 673.309091 170.99784 
L 674.102479 266.458979 
L 674.895868 162.66368 
L 675.689256 228.155294 
L 676.482645 248.590748 
L 677.276033 213.882224 
L 678.069421 217.298554 
L 678.86281 188.463294 
L 679.656198 151.115126 
L 680.449587 157.554743 
L 681.242975 193.521848 
L 682.036364 194.378557 
L 682.829752 235.585466 
L 683.62314 217.508976 
L 684.416529 120.727162 
L 685.209917 187.865175 
L 686.003306 192.793606 
L 686.796694 189.711953 
L 687.590083 191.384105 
L 688.383471 215.84687 
L 689.17686 216.812433 
L 689.970248 222.067913 
L 690.763636 218.659146 
L 691.557025 190.243675 
L 692.350413 246.245402 
L 693.143802 160.325843 
L 693.93719 150.981833 
L 694.730579 210.364623 
L 695.523967 151.441307 
L 696.317355 180.639319 
L 697.110744 218.427388 
L 697.904132 218.118954 
L 698.697521 135.856787 
L 699.490909 199.602943 
L 700.284298 127.832852 
L 701.077686 180.607717 
L 701.871074 203.383075 
L 702.664463 280.42362 
L 703.457851 124.686026 
L 704.25124 193.996388 
L 705.044628 215.157914 
L 705.838017 200.80754 
L 706.631405 244.885405 
L 707.424793 152.944772 
L 708.218182 168.84681 
L 709.01157 230.449696 
L 709.804959 177.654532 
L 711.391736 236.345439 
L 712.185124 199.408143 
L 712.978512 246.836184 
L 713.771901 163.59314 
L 714.565289 234.091119 
L 715.358678 154.852795 
L 716.152066 198.440062 
L 716.945455 155.611441 
L 717.738843 142.952865 
L 718.532231 268.044645 
L 719.32562 178.136134 
L 720.119008 195.601695 
L 720.912397 209.615703 
L 721.705785 208.437564 
L 722.499174 187.101102 
L 723.292562 202.067278 
L 724.08595 139.397187 
L 724.879339 202.372187 
L 725.672727 210.316812 
L 726.466116 182.277462 
L 727.259504 149.346956 
L 728.052893 198.203047 
L 728.846281 216.395334 
L 729.639669 150.099577 
L 730.433058 175.879576 
L 731.226446 111.646455 
L 732.019835 158.462754 
L 732.813223 226.599611 
L 733.606612 281.535665 
L 734.4 74.233728 
L 735.193388 260.504447 
L 735.986777 215.294607 
L 736.780165 200.767078 
L 737.573554 158.722122 
L 738.366942 176.341083 
L 739.160331 104.03578 
L 739.953719 198.146822 
L 740.747107 221.123763 
L 741.540496 159.960983 
L 742.333884 225.111962 
L 743.127273 136.213473 
L 743.920661 198.803523 
L 744.71405 173.591939 
L 745.507438 213.163242 
L 746.300826 200.118743 
L 747.094215 238.498347 
L 747.887603 216.009602 
L 748.680992 160.125659 
L 749.47438 225.41386 
L 750.267769 164.018587 
L 751.061157 255.267195 
L 751.854545 242.869707 
L 752.647934 246.659209 
L 753.441322 159.151646 
L 754.234711 158.34982 
L 755.028099 160.82008 
L 755.821488 88.540218 
L 756.614876 180.531354 
L 757.408264 112.775614 
L 758.201653 173.330723 
L 758.995041 154.651815 
L 759.78843 215.964338 
L 760.581818 201.121533 
L 761.375207 137.852729 
L 762.168595 234.854175 
L 762.961983 199.693235 
L 763.755372 243.523329 
L 765.342149 211.371884 
L 766.135537 163.524362 
L 766.928926 209.575135 
L 767.722314 205.711184 
L 768.515702 225.938614 
L 769.309091 187.79646 
L 770.102479 295.488 
L 770.895868 229.178033 
L 771.689256 128.316287 
L 772.482645 232.760985 
L 773.276033 200.918713 
L 774.069421 113.923316 
L 774.86281 193.582573 
L 775.656198 252.155556 
L 776.449587 207.193866 
L 778.036364 162.893429 
L 778.829752 220.939212 
L 779.62314 251.246084 
L 780.416529 182.385927 
L 781.209917 177.296056 
L 782.003306 210.346994 
L 782.796694 218.341098 
L 783.590083 143.298448 
L 784.383471 182.204247 
L 785.17686 115.421792 
L 785.970248 207.138532 
L 786.763636 205.209677 
L 787.557025 240.275249 
L 788.350413 151.729486 
L 789.143802 140.524435 
L 789.93719 203.978805 
L 790.730579 179.646751 
L 791.523967 266.804591 
L 792.317355 258.653053 
L 793.110744 191.254734 
L 793.904132 216.095759 
L 794.697521 190.948248 
L 795.490909 207.728726 
L 796.284298 202.176516 
L 797.077686 225.210375 
L 797.871074 191.729839 
L 798.664463 281.184344 
L 799.457851 176.908609 
L 800.25124 178.449386 
L 801.044628 232.215204 
L 801.838017 210.924763 
L 802.631405 154.90312 
L 803.424793 169.107289 
L 804.218182 163.048453 
L 805.01157 204.303932 
L 805.804959 200.618586 
L 806.598347 133.597905 
L 807.391736 211.378039 
L 808.185124 227.062851 
L 808.978512 209.783119 
L 809.771901 171.522043 
L 811.358678 130.922203 
L 812.152066 160.267126 
L 813.738843 232.711685 
L 814.532231 193.588259 
L 815.32562 198.182177 
L 816.119008 164.865654 
L 816.912397 193.333772 
L 817.705785 135.581518 
L 818.499174 213.793762 
L 819.292562 242.768342 
L 820.08595 155.795071 
L 820.879339 203.839302 
L 821.672727 213.770452 
L 822.466116 190.517417 
L 823.259504 236.90217 
L 824.052893 246.570166 
L 824.846281 150.776498 
L 825.639669 245.098258 
L 826.433058 233.629972 
L 827.226446 159.566074 
L 828.019835 204.846248 
L 828.813223 170.661348 
L 829.606612 215.462401 
L 830.4 167.258879 
L 831.193388 195.460241 
L 831.986777 198.720267 
L 832.780165 183.53332 
L 833.573554 210.009806 
L 834.366942 167.303699 
L 835.160331 213.003354 
L 835.953719 138.691834 
L 836.747107 177.800904 
L 838.333884 139.066412 
L 839.127273 122.324437 
L 839.920661 181.892108 
L 840.71405 256.023913 
L 841.507438 251.807168 
L 842.300826 184.254231 
L 843.094215 218.807544 
L 843.887603 186.933052 
L 844.680992 192.409179 
L 845.47438 180.118334 
L 846.267769 199.75065 
L 847.061157 197.117457 
L 847.854545 174.250445 
L 848.647934 212.683917 
L 849.441322 164.647386 
L 850.234711 140.063079 
L 851.028099 208.757019 
L 851.821488 180.127993 
L 852.614876 166.984422 
L 853.408264 214.926972 
L 854.201653 170.52501 
L 854.995041 199.989312 
L 855.78843 197.298828 
L 856.581818 215.568893 
L 857.375207 198.510588 
L 858.168595 197.087426 
L 858.961983 146.804126 
L 859.755372 278.854295 
L 860.54876 192.331327 
L 861.342149 224.936627 
L 862.928926 117.735599 
L 863.722314 218.221689 
L 864.515702 203.22946 
L 865.309091 235.618619 
L 866.102479 223.95163 
L 866.895868 199.166166 
L 867.689256 147.108193 
L 868.482645 149.406199 
L 869.276033 204.35197 
L 870.069421 185.573108 
L 870.86281 147.263241 
L 871.656198 154.680851 
L 872.449587 125.944303 
L 873.242975 194.893407 
L 874.036364 195.995423 
L 874.829752 151.915224 
L 875.62314 203.991414 
L 876.416529 181.443796 
L 877.209917 200.20939 
L 878.003306 185.483447 
L 878.796694 246.922021 
L 879.590083 226.595032 
L 880.383471 177.903728 
L 881.17686 200.100602 
L 881.970248 206.077043 
L 882.763636 164.300633 
L 883.557025 218.244988 
L 884.350413 150.644714 
L 885.143802 249.156745 
L 885.93719 187.329707 
L 886.730579 186.486842 
L 887.523967 226.978484 
L 888.317355 181.102673 
L 889.110744 170.211718 
L 889.904132 250.767864 
L 890.697521 196.160003 
L 891.490909 209.89952 
L 892.284298 152.577232 
L 893.077686 217.658623 
L 893.871074 147.772878 
L 894.664463 150.132034 
L 895.457851 147.090339 
L 896.25124 200.055632 
L 897.044628 163.480956 
L 897.838017 212.065282 
L 898.631405 139.676259 
L 899.424793 174.688775 
L 900.218182 173.819581 
L 901.01157 187.948282 
L 901.804959 143.880827 
L 902.598347 143.200791 
L 903.391736 174.354725 
L 904.185124 187.582445 
L 904.978512 182.663722 
L 905.771901 226.48734 
L 906.565289 189.033028 
L 907.358678 235.346385 
L 908.152066 251.107582 
L 908.945455 218.532742 
L 909.738843 194.27992 
L 910.532231 218.832579 
L 911.32562 199.853682 
L 912.119008 175.304901 
L 912.912397 191.878341 
L 913.705785 221.51921 
L 914.499174 178.927885 
L 915.292562 235.398461 
L 916.08595 197.678652 
L 916.879339 203.575138 
L 917.672727 170.814874 
L 918.466116 226.011675 
L 919.259504 197.568351 
L 920.052893 210.014851 
L 920.846281 180.270328 
L 921.639669 168.770912 
L 922.433058 152.243365 
L 923.226446 190.470071 
L 924.019835 179.143324 
L 924.813223 160.556295 
L 925.606612 235.222781 
L 926.4 165.464694 
L 927.193388 217.715049 
L 927.986777 179.277362 
L 928.780165 129.215171 
L 929.573554 190.651237 
L 930.366942 189.703653 
L 931.160331 206.581786 
L 931.953719 218.482234 
L 932.747107 135.645055 
L 933.540496 269.682321 
L 934.333884 198.503507 
L 935.127273 206.599825 
L 935.920661 167.966119 
L 936.71405 230.963021 
L 937.507438 165.027441 
L 938.300826 200.829411 
L 939.094215 132.765531 
L 939.887603 161.917044 
L 940.680992 212.525767 
L 941.47438 143.334349 
L 942.267769 178.065567 
L 943.061157 127.130966 
L 943.854545 160.36242 
L 944.647934 170.218959 
L 945.441322 237.428927 
L 946.234711 249.579709 
L 947.028099 184.085188 
L 947.821488 204.524327 
L 948.614876 264.537608 
L 949.408264 202.389666 
L 950.201653 199.382976 
L 950.995041 200.971879 
L 951.78843 102.654505 
L 952.581818 202.842368 
L 953.375207 185.82288 
L 954.168595 270.396048 
L 954.961983 166.818962 
L 955.755372 267.378038 
L 956.54876 218.175844 
L 957.342149 180.107584 
L 958.135537 236.023901 
L 958.928926 249.773218 
L 959.722314 223.35365 
L 960.515702 152.816028 
L 961.309091 241.498439 
L 962.102479 211.254205 
L 962.895868 155.065874 
L 963.689256 185.320908 
L 964.482645 238.973954 
L 965.276033 185.416266 
L 966.069421 226.485426 
L 966.86281 160.307202 
L 967.656198 233.372066 
L 968.449587 185.366762 
L 969.242975 182.653719 
L 970.036364 176.824163 
L 970.829752 197.985044 
L 971.62314 191.267642 
L 972.416529 245.246 
L 973.209917 257.02392 
L 974.003306 164.64385 
L 974.796694 246.191418 
L 975.590083 219.95456 
L 976.383471 91.718867 
L 977.17686 187.199318 
L 977.970248 153.277213 
L 978.763636 137.087921 
L 979.557025 220.84711 
L 980.350413 216.04349 
L 981.143802 161.762191 
L 981.93719 168.355618 
L 982.730579 206.56784 
L 983.523967 172.774878 
L 984.317355 167.233934 
L 985.110744 176.853514 
L 985.904132 167.569137 
L 986.697521 153.437072 
L 987.490909 201.749687 
L 988.284298 215.276395 
L 989.077686 231.223174 
L 989.871074 211.612689 
L 990.664463 205.568005 
L 991.457851 221.288741 
L 992.25124 260.379028 
L 993.044628 169.154504 
L 993.838017 176.18665 
L 994.631405 197.879731 
L 996.218182 179.915045 
L 996.218182 179.915045 
" style="fill:none;stroke:#1f77b4;stroke-linecap:square;stroke-width:1.5;"/>
   </g>
   <g id="patch_3">
    <path d="M 144 307.584 
L 144 41.472 
" style="fill:none;stroke:#000000;stroke-linecap:square;stroke-linejoin:miter;stroke-width:0.8;"/>
   </g>
   <g id="patch_4">
    <path d="M 1036.8 307.584 
L 1036.8 41.472 
" style="fill:none;stroke:#000000;stroke-linecap:square;stroke-linejoin:miter;stroke-width:0.8;"/>
   </g>
   <g id="patch_5">
    <path d="M 144 307.584 
L 1036.8 307.584 
" style="fill:none;stroke:#000000;stroke-linecap:square;stroke-linejoin:miter;stroke-width:0.8;"/>
   </g>
   <g id="patch_6">
    <path d="M 144 41.472 
L 1036.8 41.472 
" style="fill:none;stroke:#000000;stroke-linecap:square;stroke-linejoin:miter;stroke-width:0.8;"/>
   </g>
   <g id="text_15">
    <!-- Transpose of the compressed signal -->
    <g transform="translate(482.84625 35.472)scale(0.12 -0.12)">
     <defs>
      <path d="M -0.296875 72.90625 
L 61.375 72.90625 
L 61.375 64.59375 
L 35.5 64.59375 
L 35.5 0 
L 25.59375 0 
L 25.59375 64.59375 
L -0.296875 64.59375 
z
" id="DejaVuSans-84"/>
      <path d="M 41.109375 46.296875 
Q 39.59375 47.171875 37.8125 47.578125 
Q 36.03125 48 33.890625 48 
Q 26.265625 48 22.1875 43.046875 
Q 18.109375 38.09375 18.109375 28.8125 
L 18.109375 0 
L 9.078125 0 
L 9.078125 54.6875 
L 18.109375 54.6875 
L 18.109375 46.1875 
Q 20.953125 51.171875 25.484375 53.578125 
Q 30.03125 56 36.53125 56 
Q 37.453125 56 38.578125 55.875 
Q 39.703125 55.765625 41.0625 55.515625 
z
" id="DejaVuSans-114"/>
      <path d="M 34.28125 27.484375 
Q 23.390625 27.484375 19.1875 25 
Q 14.984375 22.515625 14.984375 16.5 
Q 14.984375 11.71875 18.140625 8.90625 
Q 21.296875 6.109375 26.703125 6.109375 
Q 34.1875 6.109375 38.703125 11.40625 
Q 43.21875 16.703125 43.21875 25.484375 
L 43.21875 27.484375 
z
M 52.203125 31.203125 
L 52.203125 0 
L 43.21875 0 
L 43.21875 8.296875 
Q 40.140625 3.328125 35.546875 0.953125 
Q 30.953125 -1.421875 24.3125 -1.421875 
Q 15.921875 -1.421875 10.953125 3.296875 
Q 6 8.015625 6 15.921875 
Q 6 25.140625 12.171875 29.828125 
Q 18.359375 34.515625 30.609375 34.515625 
L 43.21875 34.515625 
L 43.21875 35.40625 
Q 43.21875 41.609375 39.140625 45 
Q 35.0625 48.390625 27.6875 48.390625 
Q 23 48.390625 18.546875 47.265625 
Q 14.109375 46.140625 10.015625 43.890625 
L 10.015625 52.203125 
Q 14.9375 54.109375 19.578125 55.046875 
Q 24.21875 56 28.609375 56 
Q 40.484375 56 46.34375 49.84375 
Q 52.203125 43.703125 52.203125 31.203125 
z
" id="DejaVuSans-97"/>
      <path d="M 54.890625 33.015625 
L 54.890625 0 
L 45.90625 0 
L 45.90625 32.71875 
Q 45.90625 40.484375 42.875 44.328125 
Q 39.84375 48.1875 33.796875 48.1875 
Q 26.515625 48.1875 22.3125 43.546875 
Q 18.109375 38.921875 18.109375 30.90625 
L 18.109375 0 
L 9.078125 0 
L 9.078125 54.6875 
L 18.109375 54.6875 
L 18.109375 46.1875 
Q 21.34375 51.125 25.703125 53.5625 
Q 30.078125 56 35.796875 56 
Q 45.21875 56 50.046875 50.171875 
Q 54.890625 44.34375 54.890625 33.015625 
z
" id="DejaVuSans-110"/>
      <path d="M 44.28125 53.078125 
L 44.28125 44.578125 
Q 40.484375 46.53125 36.375 47.5 
Q 32.28125 48.484375 27.875 48.484375 
Q 21.1875 48.484375 17.84375 46.4375 
Q 14.5 44.390625 14.5 40.28125 
Q 14.5 37.15625 16.890625 35.375 
Q 19.28125 33.59375 26.515625 31.984375 
L 29.59375 31.296875 
Q 39.15625 29.25 43.1875 25.515625 
Q 47.21875 21.78125 47.21875 15.09375 
Q 47.21875 7.46875 41.1875 3.015625 
Q 35.15625 -1.421875 24.609375 -1.421875 
Q 20.21875 -1.421875 15.453125 -0.5625 
Q 10.6875 0.296875 5.421875 2 
L 5.421875 11.28125 
Q 10.40625 8.6875 15.234375 7.390625 
Q 20.0625 6.109375 24.8125 6.109375 
Q 31.15625 6.109375 34.5625 8.28125 
Q 37.984375 10.453125 37.984375 14.40625 
Q 37.984375 18.0625 35.515625 20.015625 
Q 33.0625 21.96875 24.703125 23.78125 
L 21.578125 24.515625 
Q 13.234375 26.265625 9.515625 29.90625 
Q 5.8125 33.546875 5.8125 39.890625 
Q 5.8125 47.609375 11.28125 51.796875 
Q 16.75 56 26.8125 56 
Q 31.78125 56 36.171875 55.265625 
Q 40.578125 54.546875 44.28125 53.078125 
z
" id="DejaVuSans-115"/>
      <path d="M 18.109375 8.203125 
L 18.109375 -20.796875 
L 9.078125 -20.796875 
L 9.078125 54.6875 
L 18.109375 54.6875 
L 18.109375 46.390625 
Q 20.953125 51.265625 25.265625 53.625 
Q 29.59375 56 35.59375 56 
Q 45.5625 56 51.78125 48.09375 
Q 58.015625 40.1875 58.015625 27.296875 
Q 58.015625 14.40625 51.78125 6.484375 
Q 45.5625 -1.421875 35.59375 -1.421875 
Q 29.59375 -1.421875 25.265625 0.953125 
Q 20.953125 3.328125 18.109375 8.203125 
z
M 48.6875 27.296875 
Q 48.6875 37.203125 44.609375 42.84375 
Q 40.53125 48.484375 33.40625 48.484375 
Q 26.265625 48.484375 22.1875 42.84375 
Q 18.109375 37.203125 18.109375 27.296875 
Q 18.109375 17.390625 22.1875 11.75 
Q 26.265625 6.109375 33.40625 6.109375 
Q 40.53125 6.109375 44.609375 11.75 
Q 48.6875 17.390625 48.6875 27.296875 
z
" id="DejaVuSans-112"/>
      <path d="M 30.609375 48.390625 
Q 23.390625 48.390625 19.1875 42.75 
Q 14.984375 37.109375 14.984375 27.296875 
Q 14.984375 17.484375 19.15625 11.84375 
Q 23.34375 6.203125 30.609375 6.203125 
Q 37.796875 6.203125 41.984375 11.859375 
Q 46.1875 17.53125 46.1875 27.296875 
Q 46.1875 37.015625 41.984375 42.703125 
Q 37.796875 48.390625 30.609375 48.390625 
z
M 30.609375 56 
Q 42.328125 56 49.015625 48.375 
Q 55.71875 40.765625 55.71875 27.296875 
Q 55.71875 13.875 49.015625 6.21875 
Q 42.328125 -1.421875 30.609375 -1.421875 
Q 18.84375 -1.421875 12.171875 6.21875 
Q 5.515625 13.875 5.515625 27.296875 
Q 5.515625 40.765625 12.171875 48.375 
Q 18.84375 56 30.609375 56 
z
" id="DejaVuSans-111"/>
      <path d="M 56.203125 29.59375 
L 56.203125 25.203125 
L 14.890625 25.203125 
Q 15.484375 15.921875 20.484375 11.0625 
Q 25.484375 6.203125 34.421875 6.203125 
Q 39.59375 6.203125 44.453125 7.46875 
Q 49.3125 8.734375 54.109375 11.28125 
L 54.109375 2.78125 
Q 49.265625 0.734375 44.1875 -0.34375 
Q 39.109375 -1.421875 33.890625 -1.421875 
Q 20.796875 -1.421875 13.15625 6.1875 
Q 5.515625 13.8125 5.515625 26.8125 
Q 5.515625 40.234375 12.765625 48.109375 
Q 20.015625 56 32.328125 56 
Q 43.359375 56 49.78125 48.890625 
Q 56.203125 41.796875 56.203125 29.59375 
z
M 47.21875 32.234375 
Q 47.125 39.59375 43.09375 43.984375 
Q 39.0625 48.390625 32.421875 48.390625 
Q 24.90625 48.390625 20.390625 44.140625 
Q 15.875 39.890625 15.1875 32.171875 
z
" id="DejaVuSans-101"/>
      <path id="DejaVuSans-32"/>
      <path d="M 37.109375 75.984375 
L 37.109375 68.5 
L 28.515625 68.5 
Q 23.6875 68.5 21.796875 66.546875 
Q 19.921875 64.59375 19.921875 59.515625 
L 19.921875 54.6875 
L 34.71875 54.6875 
L 34.71875 47.703125 
L 19.921875 47.703125 
L 19.921875 0 
L 10.890625 0 
L 10.890625 47.703125 
L 2.296875 47.703125 
L 2.296875 54.6875 
L 10.890625 54.6875 
L 10.890625 58.5 
Q 10.890625 67.625 15.140625 71.796875 
Q 19.390625 75.984375 28.609375 75.984375 
z
" id="DejaVuSans-102"/>
      <path d="M 18.3125 70.21875 
L 18.3125 54.6875 
L 36.8125 54.6875 
L 36.8125 47.703125 
L 18.3125 47.703125 
L 18.3125 18.015625 
Q 18.3125 11.328125 20.140625 9.421875 
Q 21.96875 7.515625 27.59375 7.515625 
L 36.8125 7.515625 
L 36.8125 0 
L 27.59375 0 
Q 17.1875 0 13.234375 3.875 
Q 9.28125 7.765625 9.28125 18.015625 
L 9.28125 47.703125 
L 2.6875 47.703125 
L 2.6875 54.6875 
L 9.28125 54.6875 
L 9.28125 70.21875 
z
" id="DejaVuSans-116"/>
      <path d="M 54.890625 33.015625 
L 54.890625 0 
L 45.90625 0 
L 45.90625 32.71875 
Q 45.90625 40.484375 42.875 44.328125 
Q 39.84375 48.1875 33.796875 48.1875 
Q 26.515625 48.1875 22.3125 43.546875 
Q 18.109375 38.921875 18.109375 30.90625 
L 18.109375 0 
L 9.078125 0 
L 9.078125 75.984375 
L 18.109375 75.984375 
L 18.109375 46.1875 
Q 21.34375 51.125 25.703125 53.5625 
Q 30.078125 56 35.796875 56 
Q 45.21875 56 50.046875 50.171875 
Q 54.890625 44.34375 54.890625 33.015625 
z
" id="DejaVuSans-104"/>
      <path d="M 48.78125 52.59375 
L 48.78125 44.1875 
Q 44.96875 46.296875 41.140625 47.34375 
Q 37.3125 48.390625 33.40625 48.390625 
Q 24.65625 48.390625 19.8125 42.84375 
Q 14.984375 37.3125 14.984375 27.296875 
Q 14.984375 17.28125 19.8125 11.734375 
Q 24.65625 6.203125 33.40625 6.203125 
Q 37.3125 6.203125 41.140625 7.25 
Q 44.96875 8.296875 48.78125 10.40625 
L 48.78125 2.09375 
Q 45.015625 0.34375 40.984375 -0.53125 
Q 36.96875 -1.421875 32.421875 -1.421875 
Q 20.0625 -1.421875 12.78125 6.34375 
Q 5.515625 14.109375 5.515625 27.296875 
Q 5.515625 40.671875 12.859375 48.328125 
Q 20.21875 56 33.015625 56 
Q 37.15625 56 41.109375 55.140625 
Q 45.0625 54.296875 48.78125 52.59375 
z
" id="DejaVuSans-99"/>
      <path d="M 52 44.1875 
Q 55.375 50.25 60.0625 53.125 
Q 64.75 56 71.09375 56 
Q 79.640625 56 84.28125 50.015625 
Q 88.921875 44.046875 88.921875 33.015625 
L 88.921875 0 
L 79.890625 0 
L 79.890625 32.71875 
Q 79.890625 40.578125 77.09375 44.375 
Q 74.3125 48.1875 68.609375 48.1875 
Q 61.625 48.1875 57.5625 43.546875 
Q 53.515625 38.921875 53.515625 30.90625 
L 53.515625 0 
L 44.484375 0 
L 44.484375 32.71875 
Q 44.484375 40.625 41.703125 44.40625 
Q 38.921875 48.1875 33.109375 48.1875 
Q 26.21875 48.1875 22.15625 43.53125 
Q 18.109375 38.875 18.109375 30.90625 
L 18.109375 0 
L 9.078125 0 
L 9.078125 54.6875 
L 18.109375 54.6875 
L 18.109375 46.1875 
Q 21.1875 51.21875 25.484375 53.609375 
Q 29.78125 56 35.6875 56 
Q 41.65625 56 45.828125 52.96875 
Q 50 49.953125 52 44.1875 
z
" id="DejaVuSans-109"/>
      <path d="M 45.40625 46.390625 
L 45.40625 75.984375 
L 54.390625 75.984375 
L 54.390625 0 
L 45.40625 0 
L 45.40625 8.203125 
Q 42.578125 3.328125 38.25 0.953125 
Q 33.9375 -1.421875 27.875 -1.421875 
Q 17.96875 -1.421875 11.734375 6.484375 
Q 5.515625 14.40625 5.515625 27.296875 
Q 5.515625 40.1875 11.734375 48.09375 
Q 17.96875 56 27.875 56 
Q 33.9375 56 38.25 53.625 
Q 42.578125 51.265625 45.40625 46.390625 
z
M 14.796875 27.296875 
Q 14.796875 17.390625 18.875 11.75 
Q 22.953125 6.109375 30.078125 6.109375 
Q 37.203125 6.109375 41.296875 11.75 
Q 45.40625 17.390625 45.40625 27.296875 
Q 45.40625 37.203125 41.296875 42.84375 
Q 37.203125 48.484375 30.078125 48.484375 
Q 22.953125 48.484375 18.875 42.84375 
Q 14.796875 37.203125 14.796875 27.296875 
z
" id="DejaVuSans-100"/>
      <path d="M 9.421875 54.6875 
L 18.40625 54.6875 
L 18.40625 0 
L 9.421875 0 
z
M 9.421875 75.984375 
L 18.40625 75.984375 
L 18.40625 64.59375 
L 9.421875 64.59375 
z
" id="DejaVuSans-105"/>
      <path d="M 45.40625 27.984375 
Q 45.40625 37.75 41.375 43.109375 
Q 37.359375 48.484375 30.078125 48.484375 
Q 22.859375 48.484375 18.828125 43.109375 
Q 14.796875 37.75 14.796875 27.984375 
Q 14.796875 18.265625 18.828125 12.890625 
Q 22.859375 7.515625 30.078125 7.515625 
Q 37.359375 7.515625 41.375 12.890625 
Q 45.40625 18.265625 45.40625 27.984375 
z
M 54.390625 6.78125 
Q 54.390625 -7.171875 48.1875 -13.984375 
Q 42 -20.796875 29.203125 -20.796875 
Q 24.46875 -20.796875 20.265625 -20.09375 
Q 16.0625 -19.390625 12.109375 -17.921875 
L 12.109375 -9.1875 
Q 16.0625 -11.328125 19.921875 -12.34375 
Q 23.78125 -13.375 27.78125 -13.375 
Q 36.625 -13.375 41.015625 -8.765625 
Q 45.40625 -4.15625 45.40625 5.171875 
L 45.40625 9.625 
Q 42.625 4.78125 38.28125 2.390625 
Q 33.9375 0 27.875 0 
Q 17.828125 0 11.671875 7.65625 
Q 5.515625 15.328125 5.515625 27.984375 
Q 5.515625 40.671875 11.671875 48.328125 
Q 17.828125 56 27.875 56 
Q 33.9375 56 38.28125 53.609375 
Q 42.625 51.21875 45.40625 46.390625 
L 45.40625 54.6875 
L 54.390625 54.6875 
z
" id="DejaVuSans-103"/>
      <path d="M 9.421875 75.984375 
L 18.40625 75.984375 
L 18.40625 0 
L 9.421875 0 
z
" id="DejaVuSans-108"/>
     </defs>
     <use xlink:href="#DejaVuSans-84"/>
     <use x="46.333984" xlink:href="#DejaVuSans-114"/>
     <use x="87.447266" xlink:href="#DejaVuSans-97"/>
     <use x="148.726562" xlink:href="#DejaVuSans-110"/>
     <use x="212.105469" xlink:href="#DejaVuSans-115"/>
     <use x="264.205078" xlink:href="#DejaVuSans-112"/>
     <use x="327.681641" xlink:href="#DejaVuSans-111"/>
     <use x="388.863281" xlink:href="#DejaVuSans-115"/>
     <use x="440.962891" xlink:href="#DejaVuSans-101"/>
     <use x="502.486328" xlink:href="#DejaVuSans-32"/>
     <use x="534.273438" xlink:href="#DejaVuSans-111"/>
     <use x="595.455078" xlink:href="#DejaVuSans-102"/>
     <use x="630.660156" xlink:href="#DejaVuSans-32"/>
     <use x="662.447266" xlink:href="#DejaVuSans-116"/>
     <use x="701.65625" xlink:href="#DejaVuSans-104"/>
     <use x="765.035156" xlink:href="#DejaVuSans-101"/>
     <use x="826.558594" xlink:href="#DejaVuSans-32"/>
     <use x="858.345703" xlink:href="#DejaVuSans-99"/>
     <use x="913.326172" xlink:href="#DejaVuSans-111"/>
     <use x="974.507812" xlink:href="#DejaVuSans-109"/>
     <use x="1071.919922" xlink:href="#DejaVuSans-112"/>
     <use x="1135.396484" xlink:href="#DejaVuSans-114"/>
     <use x="1174.259766" xlink:href="#DejaVuSans-101"/>
     <use x="1235.783203" xlink:href="#DejaVuSans-115"/>
     <use x="1287.882812" xlink:href="#DejaVuSans-115"/>
     <use x="1339.982422" xlink:href="#DejaVuSans-101"/>
     <use x="1401.505859" xlink:href="#DejaVuSans-100"/>
     <use x="1464.982422" xlink:href="#DejaVuSans-32"/>
     <use x="1496.769531" xlink:href="#DejaVuSans-115"/>
     <use x="1548.869141" xlink:href="#DejaVuSans-105"/>
     <use x="1576.652344" xlink:href="#DejaVuSans-103"/>
     <use x="1640.128906" xlink:href="#DejaVuSans-110"/>
     <use x="1703.507812" xlink:href="#DejaVuSans-97"/>
     <use x="1764.787109" xlink:href="#DejaVuSans-108"/>
    </g>
   </g>
  </g>
 </g>
 <defs>
  <clipPath id="pc3d4270595">
   <rect height="266.112" width="892.8" x="144" y="41.472"/>
  </clipPath>
 </defs>
</svg>
