<?xml version="1.0" encoding="utf-8" standalone="no"?>
<!DOCTYPE svg PUBLIC "-//W3C//DTD SVG 1.1//EN"
  "http://www.w3.org/Graphics/SVG/1.1/DTD/svg11.dtd">
<!-- Created with matplotlib (https://matplotlib.org/) -->
<svg height="345.6pt" version="1.1" viewBox="0 0 1152 345.6" width="1152pt" xmlns="http://www.w3.org/2000/svg" xmlns:xlink="http://www.w3.org/1999/xlink">
 <metadata>
  <rdf:RDF xmlns:cc="http://creativecommons.org/ns#" xmlns:dc="http://purl.org/dc/elements/1.1/" xmlns:rdf="http://www.w3.org/1999/02/22-rdf-syntax-ns#">
   <cc:Work>
    <dc:type rdf:resource="http://purl.org/dc/dcmitype/StillImage"/>
    <dc:date>2021-12-24T07:21:03.326817</dc:date>
    <dc:format>image/svg+xml</dc:format>
    <dc:creator>
     <cc:Agent>
      <dc:title>Matplotlib v3.3.3, https://matplotlib.org/</dc:title>
     </cc:Agent>
    </dc:creator>
   </cc:Work>
  </rdf:RDF>
 </metadata>
 <defs>
  <style type="text/css">*{stroke-linecap:butt;stroke-linejoin:round;}</style>
 </defs>
 <g id="figure_1">
  <g id="patch_1">
   <path d="M 0 345.6 
L 1152 345.6 
L 1152 0 
L 0 0 
z
" style="fill:#ffffff;"/>
  </g>
  <g id="axes_1">
   <g id="patch_2">
    <path d="M 144 307.584 
L 1036.8 307.584 
L 1036.8 41.472 
L 144 41.472 
z
" style="fill:#ffffff;"/>
   </g>
   <g id="matplotlib.axis_1">
    <g id="xtick_1">
     <g id="line2d_1">
      <defs>
       <path d="M 0 0 
L 0 3.5 
" id="m965c80a7f9" style="stroke:#000000;stroke-width:0.8;"/>
      </defs>
      <g>
       <use style="stroke:#000000;stroke-width:0.8;" x="184.581818" xlink:href="#m965c80a7f9" y="307.584"/>
      </g>
     </g>
     <g id="text_1">
      <!-- 0 -->
      <g transform="translate(181.400568 322.182437)scale(0.1 -0.1)">
       <defs>
        <path d="M 31.78125 66.40625 
Q 24.171875 66.40625 20.328125 58.90625 
Q 16.5 51.421875 16.5 36.375 
Q 16.5 21.390625 20.328125 13.890625 
Q 24.171875 6.390625 31.78125 6.390625 
Q 39.453125 6.390625 43.28125 13.890625 
Q 47.125 21.390625 47.125 36.375 
Q 47.125 51.421875 43.28125 58.90625 
Q 39.453125 66.40625 31.78125 66.40625 
z
M 31.78125 74.21875 
Q 44.046875 74.21875 50.515625 64.515625 
Q 56.984375 54.828125 56.984375 36.375 
Q 56.984375 17.96875 50.515625 8.265625 
Q 44.046875 -1.421875 31.78125 -1.421875 
Q 19.53125 -1.421875 13.0625 8.265625 
Q 6.59375 17.96875 6.59375 36.375 
Q 6.59375 54.828125 13.0625 64.515625 
Q 19.53125 74.21875 31.78125 74.21875 
z
" id="DejaVuSans-48"/>
       </defs>
       <use xlink:href="#DejaVuSans-48"/>
      </g>
     </g>
    </g>
    <g id="xtick_2">
     <g id="line2d_2">
      <g>
       <use style="stroke:#000000;stroke-width:0.8;" x="343.259504" xlink:href="#m965c80a7f9" y="307.584"/>
      </g>
     </g>
     <g id="text_2">
      <!-- 200 -->
      <g transform="translate(333.715754 322.182437)scale(0.1 -0.1)">
       <defs>
        <path d="M 19.1875 8.296875 
L 53.609375 8.296875 
L 53.609375 0 
L 7.328125 0 
L 7.328125 8.296875 
Q 12.9375 14.109375 22.625 23.890625 
Q 32.328125 33.6875 34.8125 36.53125 
Q 39.546875 41.84375 41.421875 45.53125 
Q 43.3125 49.21875 43.3125 52.78125 
Q 43.3125 58.59375 39.234375 62.25 
Q 35.15625 65.921875 28.609375 65.921875 
Q 23.96875 65.921875 18.8125 64.3125 
Q 13.671875 62.703125 7.8125 59.421875 
L 7.8125 69.390625 
Q 13.765625 71.78125 18.9375 73 
Q 24.125 74.21875 28.421875 74.21875 
Q 39.75 74.21875 46.484375 68.546875 
Q 53.21875 62.890625 53.21875 53.421875 
Q 53.21875 48.921875 51.53125 44.890625 
Q 49.859375 40.875 45.40625 35.40625 
Q 44.1875 33.984375 37.640625 27.21875 
Q 31.109375 20.453125 19.1875 8.296875 
z
" id="DejaVuSans-50"/>
       </defs>
       <use xlink:href="#DejaVuSans-50"/>
       <use x="63.623047" xlink:href="#DejaVuSans-48"/>
       <use x="127.246094" xlink:href="#DejaVuSans-48"/>
      </g>
     </g>
    </g>
    <g id="xtick_3">
     <g id="line2d_3">
      <g>
       <use style="stroke:#000000;stroke-width:0.8;" x="501.93719" xlink:href="#m965c80a7f9" y="307.584"/>
      </g>
     </g>
     <g id="text_3">
      <!-- 400 -->
      <g transform="translate(492.39344 322.182437)scale(0.1 -0.1)">
       <defs>
        <path d="M 37.796875 64.3125 
L 12.890625 25.390625 
L 37.796875 25.390625 
z
M 35.203125 72.90625 
L 47.609375 72.90625 
L 47.609375 25.390625 
L 58.015625 25.390625 
L 58.015625 17.1875 
L 47.609375 17.1875 
L 47.609375 0 
L 37.796875 0 
L 37.796875 17.1875 
L 4.890625 17.1875 
L 4.890625 26.703125 
z
" id="DejaVuSans-52"/>
       </defs>
       <use xlink:href="#DejaVuSans-52"/>
       <use x="63.623047" xlink:href="#DejaVuSans-48"/>
       <use x="127.246094" xlink:href="#DejaVuSans-48"/>
      </g>
     </g>
    </g>
    <g id="xtick_4">
     <g id="line2d_4">
      <g>
       <use style="stroke:#000000;stroke-width:0.8;" x="660.614876" xlink:href="#m965c80a7f9" y="307.584"/>
      </g>
     </g>
     <g id="text_4">
      <!-- 600 -->
      <g transform="translate(651.071126 322.182437)scale(0.1 -0.1)">
       <defs>
        <path d="M 33.015625 40.375 
Q 26.375 40.375 22.484375 35.828125 
Q 18.609375 31.296875 18.609375 23.390625 
Q 18.609375 15.53125 22.484375 10.953125 
Q 26.375 6.390625 33.015625 6.390625 
Q 39.65625 6.390625 43.53125 10.953125 
Q 47.40625 15.53125 47.40625 23.390625 
Q 47.40625 31.296875 43.53125 35.828125 
Q 39.65625 40.375 33.015625 40.375 
z
M 52.59375 71.296875 
L 52.59375 62.3125 
Q 48.875 64.0625 45.09375 64.984375 
Q 41.3125 65.921875 37.59375 65.921875 
Q 27.828125 65.921875 22.671875 59.328125 
Q 17.53125 52.734375 16.796875 39.40625 
Q 19.671875 43.65625 24.015625 45.921875 
Q 28.375 48.1875 33.59375 48.1875 
Q 44.578125 48.1875 50.953125 41.515625 
Q 57.328125 34.859375 57.328125 23.390625 
Q 57.328125 12.15625 50.6875 5.359375 
Q 44.046875 -1.421875 33.015625 -1.421875 
Q 20.359375 -1.421875 13.671875 8.265625 
Q 6.984375 17.96875 6.984375 36.375 
Q 6.984375 53.65625 15.1875 63.9375 
Q 23.390625 74.21875 37.203125 74.21875 
Q 40.921875 74.21875 44.703125 73.484375 
Q 48.484375 72.75 52.59375 71.296875 
z
" id="DejaVuSans-54"/>
       </defs>
       <use xlink:href="#DejaVuSans-54"/>
       <use x="63.623047" xlink:href="#DejaVuSans-48"/>
       <use x="127.246094" xlink:href="#DejaVuSans-48"/>
      </g>
     </g>
    </g>
    <g id="xtick_5">
     <g id="line2d_5">
      <g>
       <use style="stroke:#000000;stroke-width:0.8;" x="819.292562" xlink:href="#m965c80a7f9" y="307.584"/>
      </g>
     </g>
     <g id="text_5">
      <!-- 800 -->
      <g transform="translate(809.748812 322.182437)scale(0.1 -0.1)">
       <defs>
        <path d="M 31.78125 34.625 
Q 24.75 34.625 20.71875 30.859375 
Q 16.703125 27.09375 16.703125 20.515625 
Q 16.703125 13.921875 20.71875 10.15625 
Q 24.75 6.390625 31.78125 6.390625 
Q 38.8125 6.390625 42.859375 10.171875 
Q 46.921875 13.96875 46.921875 20.515625 
Q 46.921875 27.09375 42.890625 30.859375 
Q 38.875 34.625 31.78125 34.625 
z
M 21.921875 38.8125 
Q 15.578125 40.375 12.03125 44.71875 
Q 8.5 49.078125 8.5 55.328125 
Q 8.5 64.0625 14.71875 69.140625 
Q 20.953125 74.21875 31.78125 74.21875 
Q 42.671875 74.21875 48.875 69.140625 
Q 55.078125 64.0625 55.078125 55.328125 
Q 55.078125 49.078125 51.53125 44.71875 
Q 48 40.375 41.703125 38.8125 
Q 48.828125 37.15625 52.796875 32.3125 
Q 56.78125 27.484375 56.78125 20.515625 
Q 56.78125 9.90625 50.3125 4.234375 
Q 43.84375 -1.421875 31.78125 -1.421875 
Q 19.734375 -1.421875 13.25 4.234375 
Q 6.78125 9.90625 6.78125 20.515625 
Q 6.78125 27.484375 10.78125 32.3125 
Q 14.796875 37.15625 21.921875 38.8125 
z
M 18.3125 54.390625 
Q 18.3125 48.734375 21.84375 45.5625 
Q 25.390625 42.390625 31.78125 42.390625 
Q 38.140625 42.390625 41.71875 45.5625 
Q 45.3125 48.734375 45.3125 54.390625 
Q 45.3125 60.0625 41.71875 63.234375 
Q 38.140625 66.40625 31.78125 66.40625 
Q 25.390625 66.40625 21.84375 63.234375 
Q 18.3125 60.0625 18.3125 54.390625 
z
" id="DejaVuSans-56"/>
       </defs>
       <use xlink:href="#DejaVuSans-56"/>
       <use x="63.623047" xlink:href="#DejaVuSans-48"/>
       <use x="127.246094" xlink:href="#DejaVuSans-48"/>
      </g>
     </g>
    </g>
    <g id="xtick_6">
     <g id="line2d_6">
      <g>
       <use style="stroke:#000000;stroke-width:0.8;" x="977.970248" xlink:href="#m965c80a7f9" y="307.584"/>
      </g>
     </g>
     <g id="text_6">
      <!-- 1000 -->
      <g transform="translate(965.245248 322.182437)scale(0.1 -0.1)">
       <defs>
        <path d="M 12.40625 8.296875 
L 28.515625 8.296875 
L 28.515625 63.921875 
L 10.984375 60.40625 
L 10.984375 69.390625 
L 28.421875 72.90625 
L 38.28125 72.90625 
L 38.28125 8.296875 
L 54.390625 8.296875 
L 54.390625 0 
L 12.40625 0 
z
" id="DejaVuSans-49"/>
       </defs>
       <use xlink:href="#DejaVuSans-49"/>
       <use x="63.623047" xlink:href="#DejaVuSans-48"/>
       <use x="127.246094" xlink:href="#DejaVuSans-48"/>
       <use x="190.869141" xlink:href="#DejaVuSans-48"/>
      </g>
     </g>
    </g>
   </g>
   <g id="matplotlib.axis_2">
    <g id="ytick_1">
     <g id="line2d_7">
      <defs>
       <path d="M 0 0 
L -3.5 0 
" id="m69c376824e" style="stroke:#000000;stroke-width:0.8;"/>
      </defs>
      <g>
       <use style="stroke:#000000;stroke-width:0.8;" x="144" xlink:href="#m69c376824e" y="273.026825"/>
      </g>
     </g>
     <g id="text_7">
      <!-- −0.2 -->
      <g transform="translate(112.717187 276.826044)scale(0.1 -0.1)">
       <defs>
        <path d="M 10.59375 35.5 
L 73.1875 35.5 
L 73.1875 27.203125 
L 10.59375 27.203125 
z
" id="DejaVuSans-8722"/>
        <path d="M 10.6875 12.40625 
L 21 12.40625 
L 21 0 
L 10.6875 0 
z
" id="DejaVuSans-46"/>
       </defs>
       <use xlink:href="#DejaVuSans-8722"/>
       <use x="83.789062" xlink:href="#DejaVuSans-48"/>
       <use x="147.412109" xlink:href="#DejaVuSans-46"/>
       <use x="179.199219" xlink:href="#DejaVuSans-50"/>
      </g>
     </g>
    </g>
    <g id="ytick_2">
     <g id="line2d_8">
      <g>
       <use style="stroke:#000000;stroke-width:0.8;" x="144" xlink:href="#m69c376824e" y="222.004761"/>
      </g>
     </g>
     <g id="text_8">
      <!-- −0.1 -->
      <g transform="translate(112.717187 225.80398)scale(0.1 -0.1)">
       <use xlink:href="#DejaVuSans-8722"/>
       <use x="83.789062" xlink:href="#DejaVuSans-48"/>
       <use x="147.412109" xlink:href="#DejaVuSans-46"/>
       <use x="179.199219" xlink:href="#DejaVuSans-49"/>
      </g>
     </g>
    </g>
    <g id="ytick_3">
     <g id="line2d_9">
      <g>
       <use style="stroke:#000000;stroke-width:0.8;" x="144" xlink:href="#m69c376824e" y="170.982697"/>
      </g>
     </g>
     <g id="text_9">
      <!-- 0.0 -->
      <g transform="translate(121.096875 174.781916)scale(0.1 -0.1)">
       <use xlink:href="#DejaVuSans-48"/>
       <use x="63.623047" xlink:href="#DejaVuSans-46"/>
       <use x="95.410156" xlink:href="#DejaVuSans-48"/>
      </g>
     </g>
    </g>
    <g id="ytick_4">
     <g id="line2d_10">
      <g>
       <use style="stroke:#000000;stroke-width:0.8;" x="144" xlink:href="#m69c376824e" y="119.960633"/>
      </g>
     </g>
     <g id="text_10">
      <!-- 0.1 -->
      <g transform="translate(121.096875 123.759852)scale(0.1 -0.1)">
       <use xlink:href="#DejaVuSans-48"/>
       <use x="63.623047" xlink:href="#DejaVuSans-46"/>
       <use x="95.410156" xlink:href="#DejaVuSans-49"/>
      </g>
     </g>
    </g>
    <g id="ytick_5">
     <g id="line2d_11">
      <g>
       <use style="stroke:#000000;stroke-width:0.8;" x="144" xlink:href="#m69c376824e" y="68.938569"/>
      </g>
     </g>
     <g id="text_11">
      <!-- 0.2 -->
      <g transform="translate(121.096875 72.737788)scale(0.1 -0.1)">
       <use xlink:href="#DejaVuSans-48"/>
       <use x="63.623047" xlink:href="#DejaVuSans-46"/>
       <use x="95.410156" xlink:href="#DejaVuSans-50"/>
      </g>
     </g>
    </g>
   </g>
   <g id="line2d_12">
    <path clip-path="url(#pa7d15bc687)" d="M 184.581818 137.286855 
L 185.375207 216.707022 
L 186.961983 150.243059 
L 187.755372 210.104654 
L 189.342149 155.387411 
L 190.135537 180.978579 
L 190.928926 170.253761 
L 191.722314 186.090922 
L 192.515702 127.577388 
L 193.309091 201.639406 
L 194.102479 152.817963 
L 194.895868 144.686574 
L 195.689256 193.543164 
L 196.482645 223.581113 
L 197.276033 144.436441 
L 198.069421 179.013484 
L 198.86281 154.894785 
L 199.656198 244.506766 
L 200.449587 104.618975 
L 201.242975 237.469746 
L 202.036364 165.881634 
L 202.829752 183.111043 
L 203.62314 140.145036 
L 204.416529 203.287616 
L 205.209917 171.975297 
L 206.003306 152.629478 
L 206.796694 190.621164 
L 207.590083 133.414046 
L 208.383471 293.937012 
L 209.17686 175.166593 
L 209.970248 105.615454 
L 210.763636 195.301589 
L 211.557025 163.748833 
L 212.350413 209.291264 
L 213.143802 186.038514 
L 213.93719 198.669556 
L 214.730579 158.913254 
L 215.523967 113.548926 
L 216.317355 174.994214 
L 217.110744 181.231647 
L 217.904132 179.969868 
L 218.697521 200.578001 
L 219.490909 79.577605 
L 220.284298 182.634845 
L 221.077686 233.093076 
L 221.871074 141.540409 
L 222.664463 183.45343 
L 223.457851 186.33539 
L 224.25124 101.792452 
L 225.044628 168.037658 
L 225.838017 204.63867 
L 226.631405 204.131752 
L 227.424793 139.724133 
L 228.218182 179.012365 
L 229.804959 111.515566 
L 230.598347 140.515942 
L 231.391736 179.806914 
L 232.185124 212.249811 
L 232.978512 151.236788 
L 233.771901 146.588794 
L 234.565289 234.686233 
L 236.152066 120.484524 
L 236.945455 189.674994 
L 237.738843 144.960004 
L 238.532231 165.505438 
L 239.32562 234.64482 
L 240.119008 199.426016 
L 240.912397 124.178535 
L 241.705785 145.38238 
L 242.499174 137.602028 
L 243.292562 107.989981 
L 244.08595 158.918249 
L 244.879339 175.043232 
L 245.672727 204.640997 
L 246.466116 108.741382 
L 247.259504 224.052244 
L 248.052893 185.708959 
L 248.846281 186.805032 
L 249.639669 115.845608 
L 250.433058 255.514566 
L 251.226446 232.446877 
L 252.019835 169.48226 
L 252.813223 128.31348 
L 253.606612 190.912037 
L 254.4 170.413463 
L 255.193388 212.154562 
L 255.986777 106.874909 
L 256.780165 227.82896 
L 257.573554 183.820193 
L 258.366942 175.166176 
L 259.160331 220.076181 
L 260.747107 173.417901 
L 261.540496 127.947454 
L 262.333884 93.059115 
L 263.127273 169.142511 
L 263.920661 197.470181 
L 264.71405 142.48627 
L 265.507438 226.570884 
L 266.300826 158.399252 
L 267.094215 167.410346 
L 267.887603 102.824315 
L 268.680992 175.026855 
L 269.47438 187.189753 
L 270.267769 248.710612 
L 271.061157 127.278302 
L 271.854545 176.772985 
L 272.647934 159.459984 
L 273.441322 204.406068 
L 274.234711 143.869508 
L 275.028099 131.67269 
L 275.821488 95.531807 
L 276.614876 118.639313 
L 277.408264 181.331417 
L 278.201653 211.666122 
L 278.995041 193.960463 
L 279.78843 140.159369 
L 280.581818 150.653056 
L 281.375207 146.284002 
L 282.168595 175.934746 
L 282.961983 164.304766 
L 283.755372 192.68722 
L 284.54876 225.594241 
L 285.342149 154.026366 
L 286.135537 159.93698 
L 286.928926 121.318347 
L 287.722314 159.773567 
L 288.515702 181.589099 
L 289.309091 139.224316 
L 290.102479 238.475721 
L 290.895868 180.457689 
L 291.689256 73.407746 
L 292.482645 202.889928 
L 293.276033 203.956825 
L 294.069421 106.281519 
L 294.86281 117.290338 
L 295.656198 113.900681 
L 296.449587 205.861533 
L 297.242975 181.056441 
L 298.036364 146.898269 
L 298.829752 138.17007 
L 299.62314 146.564242 
L 300.416529 168.089618 
L 301.209917 134.738605 
L 302.003306 137.112996 
L 302.796694 178.570057 
L 303.590083 138.426549 
L 304.383471 180.322104 
L 305.17686 166.6517 
L 305.970248 124.006554 
L 306.763636 203.593829 
L 307.557025 206.614362 
L 308.350413 179.877811 
L 309.143802 135.250689 
L 309.93719 165.225949 
L 310.730579 135.322274 
L 311.523967 131.786449 
L 312.317355 150.211916 
L 313.110744 177.240183 
L 313.904132 186.763224 
L 314.697521 107.465451 
L 316.284298 185.642614 
L 317.077686 246.584626 
L 317.871074 171.272918 
L 318.664463 126.397599 
L 319.457851 148.162214 
L 320.25124 180.539627 
L 321.044628 179.49972 
L 321.838017 177.245365 
L 322.631405 69.799411 
L 323.424793 133.720781 
L 324.218182 235.077241 
L 325.01157 211.030898 
L 325.804959 153.054751 
L 326.598347 151.169233 
L 327.391736 207.728431 
L 328.185124 179.33915 
L 328.978512 182.184569 
L 329.771901 134.083438 
L 330.565289 95.821097 
L 331.358678 147.739209 
L 332.152066 173.754975 
L 332.945455 115.83385 
L 333.738843 121.538819 
L 334.532231 205.420851 
L 335.32562 125.098761 
L 336.119008 267.830927 
L 336.912397 231.186661 
L 337.705785 153.101113 
L 338.499174 146.291234 
L 339.292562 202.142092 
L 340.08595 109.691035 
L 340.879339 122.832183 
L 341.672727 133.01737 
L 342.466116 193.634594 
L 343.259504 205.75824 
L 344.052893 209.789869 
L 344.846281 156.914972 
L 345.639669 114.031371 
L 346.433058 143.377005 
L 347.226446 152.029307 
L 348.019835 167.022697 
L 348.813223 155.355657 
L 349.606612 148.003616 
L 350.4 114.336124 
L 351.193388 204.14367 
L 351.986777 228.579721 
L 352.780165 183.790492 
L 353.573554 173.047804 
L 354.366942 190.525986 
L 355.160331 162.370217 
L 355.953719 179.375142 
L 356.747107 129.286538 
L 357.540496 147.025387 
L 358.333884 177.944634 
L 359.127273 187.770341 
L 359.920661 173.625262 
L 360.71405 131.912117 
L 361.507438 147.919564 
L 362.300826 205.70984 
L 363.094215 92.7092 
L 363.887603 177.640254 
L 364.680992 149.639569 
L 365.47438 245.49708 
L 366.267769 255.615988 
L 367.061157 177.426579 
L 367.854545 215.450791 
L 368.647934 135.950903 
L 369.441322 190.205733 
L 370.234711 81.064218 
L 371.028099 204.735447 
L 371.821488 261.563029 
L 372.614876 81.063975 
L 374.201653 136.041032 
L 374.995041 118.414872 
L 375.78843 86.864714 
L 376.581818 197.828938 
L 377.375207 135.592211 
L 378.168595 179.432705 
L 379.755372 100.126015 
L 380.54876 246.732806 
L 381.342149 161.032375 
L 382.135537 215.480404 
L 382.928926 165.469971 
L 383.722314 178.978888 
L 385.309091 118.094452 
L 386.102479 180.55722 
L 386.895868 166.374991 
L 387.689256 171.828658 
L 388.482645 143.689746 
L 389.276033 119.53703 
L 390.069421 172.266635 
L 390.86281 247.197289 
L 391.656198 53.707308 
L 392.449587 188.173942 
L 393.242975 157.513848 
L 394.036364 118.324071 
L 394.829752 140.269879 
L 395.62314 233.593395 
L 396.416529 201.263147 
L 397.209917 224.678121 
L 398.003306 180.017775 
L 398.796694 97.010377 
L 399.590083 188.36764 
L 400.383471 199.749589 
L 401.17686 125.270366 
L 401.970248 193.303191 
L 402.763636 217.326364 
L 403.557025 129.792331 
L 404.350413 207.052357 
L 405.143802 203.539457 
L 405.93719 164.941948 
L 406.730579 87.316546 
L 407.523967 203.05461 
L 408.317355 206.253187 
L 409.110744 193.970476 
L 409.904132 195.014534 
L 410.697521 206.57019 
L 411.490909 156.229877 
L 412.284298 131.862314 
L 413.077686 134.637167 
L 413.871074 169.838268 
L 414.664463 172.260952 
L 415.457851 189.50919 
L 416.25124 278.237879 
L 417.044628 240.593321 
L 417.838017 152.915964 
L 418.631405 208.07028 
L 419.424793 172.477423 
L 420.218182 202.462965 
L 421.01157 166.478513 
L 421.804959 219.447001 
L 422.598347 117.35367 
L 423.391736 159.68941 
L 424.185124 241.650068 
L 424.978512 192.780793 
L 425.771901 184.41995 
L 426.565289 162.504539 
L 427.358678 119.605342 
L 428.152066 196.597994 
L 428.945455 157.214395 
L 429.738843 85.841838 
L 430.532231 188.75986 
L 431.32562 105.104936 
L 432.119008 187.28718 
L 432.912397 156.41124 
L 433.705785 137.992527 
L 434.499174 251.248278 
L 435.292562 181.725143 
L 436.08595 203.11606 
L 436.879339 228.28311 
L 437.672727 155.946245 
L 438.466116 182.077037 
L 439.259504 252.600161 
L 440.052893 180.782293 
L 440.846281 180.986288 
L 441.639669 134.337606 
L 442.433058 220.584297 
L 443.226446 94.236064 
L 444.019835 197.748693 
L 444.813223 166.538658 
L 445.606612 202.28392 
L 446.4 215.113614 
L 447.193388 144.467636 
L 447.986777 151.099801 
L 448.780165 211.221833 
L 449.573554 146.453138 
L 450.366942 176.203696 
L 451.160331 218.033702 
L 451.953719 208.489879 
L 452.747107 149.688931 
L 453.540496 204.443691 
L 454.333884 185.683303 
L 455.127273 102.196933 
L 455.920661 200.437971 
L 456.71405 185.886465 
L 457.507438 119.702112 
L 458.300826 222.439434 
L 459.094215 125.91024 
L 459.887603 217.794466 
L 460.680992 127.558871 
L 461.47438 118.12202 
L 462.267769 137.373801 
L 463.061157 177.774413 
L 463.854545 190.414797 
L 464.647934 196.809395 
L 465.441322 247.606833 
L 466.234711 160.856002 
L 467.028099 186.286288 
L 467.821488 200.125795 
L 468.614876 175.443513 
L 469.408264 123.474741 
L 470.201653 138.42049 
L 470.995041 201.896579 
L 471.78843 89.200783 
L 472.581818 270.268798 
L 473.375207 211.21204 
L 474.168595 136.981839 
L 474.961983 127.036458 
L 476.54876 196.755366 
L 477.342149 192.21488 
L 478.135537 192.366375 
L 478.928926 157.688551 
L 479.722314 200.419899 
L 480.515702 159.249085 
L 481.309091 139.694584 
L 482.102479 178.250577 
L 482.895868 143.24377 
L 483.689256 233.233003 
L 484.482645 151.593901 
L 485.276033 179.717427 
L 486.069421 220.449011 
L 486.86281 209.34651 
L 487.656198 209.742761 
L 488.449587 197.489215 
L 489.242975 237.18092 
L 490.036364 183.104101 
L 490.829752 179.214008 
L 491.62314 207.216206 
L 492.416529 126.634984 
L 493.209917 91.879984 
L 494.003306 219.234968 
L 494.796694 104.63564 
L 495.590083 93.542689 
L 496.383471 262.272644 
L 497.17686 188.079041 
L 497.970248 79.28205 
L 498.763636 178.183661 
L 499.557025 192.851186 
L 500.350413 169.113224 
L 501.143802 204.893074 
L 501.93719 193.401798 
L 502.730579 178.628755 
L 503.523967 189.936979 
L 504.317355 261.402305 
L 505.110744 128.12616 
L 505.904132 173.537513 
L 506.697521 171.699398 
L 507.490909 55.325869 
L 508.284298 103.304931 
L 509.077686 215.005832 
L 509.871074 105.398954 
L 510.664463 93.368317 
L 511.457851 236.612111 
L 512.25124 142.837649 
L 513.044628 173.551258 
L 513.838017 147.737718 
L 514.631405 197.337155 
L 515.424793 197.538126 
L 516.218182 110.777399 
L 517.01157 199.292215 
L 517.804959 143.978712 
L 518.598347 154.219727 
L 519.391736 169.587617 
L 520.185124 142.441731 
L 520.978512 255.128697 
L 521.771901 190.897318 
L 522.565289 190.781908 
L 523.358678 214.010318 
L 524.152066 159.231448 
L 524.945455 233.223465 
L 525.738843 222.207497 
L 526.532231 110.071209 
L 527.32562 129.187043 
L 528.119008 82.372895 
L 528.912397 123.069796 
L 529.705785 144.549949 
L 530.499174 157.032223 
L 531.292562 183.770303 
L 532.08595 216.147401 
L 532.879339 70.626521 
L 533.672727 237.048592 
L 534.466116 196.92445 
L 535.259504 167.713019 
L 536.052893 259.721239 
L 536.846281 177.523613 
L 537.639669 154.880316 
L 538.433058 188.389959 
L 540.019835 90.884562 
L 540.813223 213.147019 
L 541.606612 146.45221 
L 542.4 206.544393 
L 543.193388 224.57146 
L 543.986777 122.339437 
L 544.780165 246.625286 
L 545.573554 256.795309 
L 546.366942 159.199809 
L 547.160331 154.267034 
L 547.953719 186.162529 
L 548.747107 128.841845 
L 549.540496 142.632922 
L 550.333884 126.54454 
L 551.127273 234.458857 
L 551.920661 239.156696 
L 552.71405 156.451062 
L 553.507438 212.65501 
L 554.300826 143.965232 
L 555.094215 86.151807 
L 555.887603 132.079076 
L 556.680992 210.371554 
L 557.47438 198.224008 
L 558.267769 106.325624 
L 559.061157 209.810229 
L 559.854545 149.318591 
L 560.647934 154.89423 
L 561.441322 135.23513 
L 562.234711 235.92161 
L 563.028099 231.169426 
L 563.821488 146.29556 
L 564.614876 183.116976 
L 565.408264 169.941138 
L 566.201653 177.478948 
L 566.995041 102.944448 
L 567.78843 104.374497 
L 569.375207 189.964184 
L 570.168595 258.495891 
L 570.961983 107.52126 
L 571.755372 221.359825 
L 572.54876 221.575891 
L 573.342149 192.625991 
L 574.135537 181.624111 
L 574.928926 149.736158 
L 576.515702 179.856312 
L 577.309091 205.713588 
L 578.102479 166.460018 
L 578.895868 189.313513 
L 579.689256 195.718249 
L 580.482645 183.178389 
L 581.276033 135.57818 
L 582.069421 171.791042 
L 582.86281 151.805425 
L 583.656198 135.023109 
L 584.449587 123.320117 
L 585.242975 101.687715 
L 586.036364 142.122682 
L 586.829752 214.163418 
L 587.62314 192.087319 
L 588.416529 186.677622 
L 589.209917 115.2227 
L 590.796694 164.917322 
L 591.590083 120.49681 
L 592.383471 175.720794 
L 593.17686 180.193207 
L 593.970248 82.426449 
L 594.763636 195.571392 
L 595.557025 132.437342 
L 596.350413 149.827488 
L 597.143802 295.488 
L 597.93719 92.842942 
L 598.730579 200.340775 
L 599.523967 224.675623 
L 601.110744 102.361307 
L 601.904132 140.164296 
L 602.697521 157.425393 
L 603.490909 199.452765 
L 604.284298 174.678987 
L 605.077686 224.775004 
L 605.871074 235.764314 
L 606.664463 91.223286 
L 607.457851 239.224574 
L 608.25124 116.580723 
L 609.044628 136.208873 
L 609.838017 276.446374 
L 610.631405 200.936486 
L 611.424793 138.676148 
L 612.218182 233.97869 
L 613.01157 113.980139 
L 613.804959 191.426298 
L 614.598347 193.055354 
L 615.391736 181.780626 
L 616.185124 122.233456 
L 616.978512 124.172039 
L 617.771901 157.893661 
L 618.565289 163.62635 
L 619.358678 126.282705 
L 620.152066 201.098705 
L 620.945455 115.178664 
L 621.738843 144.830736 
L 622.532231 136.815442 
L 623.32562 191.509192 
L 624.119008 148.886 
L 624.912397 210.797033 
L 625.705785 181.370138 
L 626.499174 202.817872 
L 627.292562 166.188662 
L 628.08595 165.601912 
L 628.879339 135.376464 
L 629.672727 192.007515 
L 630.466116 165.233482 
L 631.259504 168.638836 
L 632.052893 190.61628 
L 632.846281 171.603767 
L 633.639669 185.882076 
L 634.433058 144.083101 
L 635.226446 234.500886 
L 636.019835 162.581959 
L 636.813223 171.833764 
L 637.606612 139.277595 
L 638.4 138.940599 
L 639.193388 217.444733 
L 639.986777 109.889185 
L 640.780165 155.032938 
L 641.573554 187.747548 
L 642.366942 150.129529 
L 643.160331 183.143768 
L 643.953719 78.967329 
L 644.747107 177.600054 
L 645.540496 155.200034 
L 646.333884 217.995455 
L 647.127273 178.623592 
L 647.920661 203.814294 
L 648.71405 135.456077 
L 649.507438 177.767169 
L 650.300826 230.072604 
L 651.094215 255.582148 
L 651.887603 200.979499 
L 652.680992 131.570071 
L 653.47438 127.134596 
L 654.267769 223.066747 
L 655.061157 212.858475 
L 655.854545 252.401742 
L 656.647934 246.028133 
L 657.441322 178.765993 
L 658.234711 196.972766 
L 659.028099 136.593829 
L 659.821488 241.750722 
L 660.614876 155.371796 
L 661.408264 215.293388 
L 662.201653 150.975802 
L 662.995041 164.390993 
L 663.78843 115.918489 
L 665.375207 193.929316 
L 666.168595 137.216627 
L 666.961983 169.932718 
L 667.755372 175.889135 
L 668.54876 126.83042 
L 669.342149 177.012393 
L 670.135537 237.234216 
L 670.928926 150.752542 
L 671.722314 159.953353 
L 672.515702 179.826548 
L 673.309091 279.414622 
L 675.689256 146.327819 
L 676.482645 137.062338 
L 678.069421 178.625009 
L 678.86281 175.886504 
L 679.656198 109.90192 
L 680.449587 193.18339 
L 681.242975 119.919915 
L 682.036364 156.910519 
L 682.829752 99.036066 
L 683.62314 193.434506 
L 684.416529 101.361354 
L 685.209917 196.450751 
L 686.003306 190.622195 
L 686.796694 155.201992 
L 687.590083 91.445153 
L 688.383471 154.393399 
L 689.17686 201.81295 
L 689.970248 167.111732 
L 690.763636 202.354066 
L 691.557025 132.407429 
L 692.350413 208.370084 
L 693.93719 111.065894 
L 694.730579 165.716698 
L 695.523967 238.264794 
L 696.317355 135.061617 
L 697.110744 83.751593 
L 697.904132 134.214626 
L 698.697521 222.129191 
L 699.490909 161.069076 
L 700.284298 225.733427 
L 701.077686 130.856848 
L 701.871074 219.760274 
L 702.664463 229.913742 
L 703.457851 169.407001 
L 704.25124 178.058977 
L 705.044628 232.272163 
L 705.838017 183.538864 
L 706.631405 181.696786 
L 707.424793 174.259633 
L 708.218182 128.011486 
L 709.01157 135.018151 
L 709.804959 153.438898 
L 710.598347 227.438324 
L 711.391736 147.172971 
L 712.185124 221.187897 
L 712.978512 195.350313 
L 713.771901 112.66993 
L 714.565289 197.562235 
L 715.358678 124.761958 
L 716.152066 177.382694 
L 716.945455 158.820646 
L 717.738843 53.568 
L 718.532231 202.969093 
L 719.32562 180.379643 
L 720.119008 119.614283 
L 720.912397 159.132513 
L 721.705785 129.986242 
L 722.499174 120.720312 
L 723.292562 156.073048 
L 724.08595 77.938781 
L 724.879339 253.688407 
L 725.672727 151.958256 
L 727.259504 141.302472 
L 728.052893 133.462036 
L 728.846281 120.744622 
L 729.639669 246.020743 
L 730.433058 117.838399 
L 731.226446 138.220393 
L 732.019835 155.174127 
L 732.813223 215.966585 
L 733.606612 182.62073 
L 734.4 223.39997 
L 735.193388 135.268891 
L 735.986777 206.177824 
L 737.573554 169.177028 
L 738.366942 200.342623 
L 739.160331 117.078324 
L 739.953719 233.860666 
L 740.747107 195.510348 
L 741.540496 113.081121 
L 742.333884 183.252065 
L 743.127273 200.768101 
L 743.920661 230.23104 
L 744.71405 165.199256 
L 745.507438 188.729269 
L 746.300826 173.912444 
L 747.094215 209.311199 
L 747.887603 147.18301 
L 748.680992 126.852362 
L 749.47438 135.469223 
L 750.267769 108.447587 
L 751.061157 170.017933 
L 751.854545 174.020486 
L 752.647934 196.847235 
L 753.441322 201.442849 
L 754.234711 177.16265 
L 755.028099 164.694998 
L 755.821488 214.079448 
L 756.614876 247.762008 
L 757.408264 218.595718 
L 758.201653 137.951145 
L 758.995041 154.431108 
L 759.78843 178.514924 
L 760.581818 196.171282 
L 761.375207 152.377859 
L 762.168595 222.57805 
L 762.961983 189.621112 
L 763.755372 186.893127 
L 764.54876 161.590487 
L 765.342149 208.880021 
L 766.135537 159.365402 
L 766.928926 199.50157 
L 767.722314 230.949083 
L 768.515702 130.4355 
L 769.309091 182.677963 
L 770.102479 146.022041 
L 770.895868 127.10683 
L 771.689256 208.853699 
L 772.482645 148.909794 
L 773.276033 246.392334 
L 774.069421 209.40295 
L 774.86281 145.278476 
L 775.656198 168.790198 
L 776.449587 122.905817 
L 778.036364 219.174202 
L 778.829752 248.885995 
L 779.62314 142.265333 
L 780.416529 188.250119 
L 781.209917 159.976061 
L 782.003306 204.610855 
L 782.796694 231.991183 
L 783.590083 147.380778 
L 784.383471 232.150041 
L 785.17686 119.058684 
L 785.970248 176.582034 
L 786.763636 172.730901 
L 787.557025 226.253612 
L 788.350413 141.839661 
L 789.143802 166.488538 
L 789.93719 229.179851 
L 790.730579 124.612291 
L 791.523967 198.969512 
L 792.317355 138.403471 
L 793.110744 89.844997 
L 793.904132 186.824373 
L 794.697521 201.580718 
L 795.490909 126.479216 
L 796.284298 180.071045 
L 797.077686 169.768288 
L 797.871074 216.388108 
L 798.664463 159.556071 
L 799.457851 223.312507 
L 800.25124 173.800554 
L 801.044628 164.480025 
L 801.838017 143.850949 
L 802.631405 208.824603 
L 803.424793 242.432975 
L 804.218182 162.565899 
L 805.01157 194.32685 
L 805.804959 205.341325 
L 806.598347 183.931098 
L 807.391736 207.954822 
L 808.185124 166.070868 
L 808.978512 177.291208 
L 809.771901 193.405001 
L 810.565289 181.216176 
L 811.358678 220.149123 
L 812.152066 160.458589 
L 812.945455 193.052588 
L 813.738843 194.400212 
L 814.532231 107.732278 
L 815.32562 218.689678 
L 816.119008 258.581066 
L 816.912397 99.980062 
L 817.705785 160.619022 
L 818.499174 205.308651 
L 819.292562 241.279754 
L 820.08595 244.15708 
L 820.879339 121.793941 
L 821.672727 198.045744 
L 822.466116 142.79544 
L 823.259504 187.028802 
L 824.052893 179.917117 
L 824.846281 129.232185 
L 825.639669 115.621118 
L 826.433058 163.96773 
L 827.226446 252.911674 
L 828.019835 99.353053 
L 828.813223 226.089405 
L 829.606612 57.226673 
L 830.4 157.137229 
L 831.193388 207.525237 
L 831.986777 105.880589 
L 832.780165 121.132232 
L 833.573554 230.334033 
L 834.366942 133.499613 
L 835.160331 205.662535 
L 835.953719 188.229677 
L 836.747107 156.223444 
L 837.540496 116.349576 
L 838.333884 231.82549 
L 839.127273 232.234217 
L 839.920661 228.912347 
L 840.71405 113.430762 
L 841.507438 217.229271 
L 842.300826 146.461805 
L 843.094215 203.765518 
L 843.887603 137.036838 
L 845.47438 285.09319 
L 846.267769 268.341103 
L 847.061157 125.537782 
L 847.854545 159.04728 
L 848.647934 148.00529 
L 849.441322 93.31921 
L 850.234711 153.668461 
L 851.028099 104.036723 
L 851.821488 217.496136 
L 852.614876 209.838919 
L 853.408264 211.97708 
L 854.201653 162.445645 
L 854.995041 191.088055 
L 855.78843 150.981044 
L 856.581818 142.792359 
L 857.375207 145.751808 
L 858.168595 195.440478 
L 858.961983 122.206044 
L 859.755372 211.025375 
L 860.54876 255.424898 
L 861.342149 246.710309 
L 862.135537 131.492605 
L 862.928926 207.870856 
L 863.722314 151.621294 
L 864.515702 250.277695 
L 865.309091 78.686448 
L 866.102479 233.674651 
L 866.895868 196.799768 
L 867.689256 186.032497 
L 868.482645 162.954719 
L 869.276033 154.467626 
L 870.069421 120.568505 
L 870.86281 172.836366 
L 871.656198 155.732798 
L 872.449587 184.019536 
L 873.242975 181.213077 
L 874.036364 201.933687 
L 874.829752 227.65255 
L 875.62314 144.127386 
L 876.416529 155.510593 
L 877.209917 139.860806 
L 878.003306 181.664664 
L 878.796694 159.553585 
L 879.590083 152.674612 
L 880.383471 160.463911 
L 881.17686 137.417742 
L 881.970248 128.263635 
L 882.763636 166.351021 
L 883.557025 264.375053 
L 884.350413 135.093264 
L 885.143802 118.478504 
L 885.93719 182.317122 
L 886.730579 207.274174 
L 887.523967 177.583264 
L 888.317355 157.22513 
L 889.110744 210.987828 
L 889.904132 167.08529 
L 890.697521 131.745515 
L 891.490909 233.112311 
L 892.284298 128.398579 
L 893.077686 267.7927 
L 893.871074 175.065187 
L 894.664463 164.183176 
L 895.457851 228.914993 
L 896.25124 119.515484 
L 897.044628 131.938286 
L 897.838017 146.716425 
L 898.631405 187.878216 
L 899.424793 160.714896 
L 900.218182 143.422345 
L 901.01157 56.06842 
L 901.804959 177.289667 
L 902.598347 177.55999 
L 903.391736 103.79356 
L 904.185124 240.665343 
L 904.978512 203.670618 
L 905.771901 195.880825 
L 906.565289 238.174366 
L 907.358678 226.665978 
L 908.152066 146.013123 
L 908.945455 163.261805 
L 909.738843 164.358441 
L 910.532231 174.283318 
L 911.32562 166.148146 
L 912.119008 70.469947 
L 912.912397 119.17137 
L 913.705785 179.154235 
L 914.499174 194.685272 
L 915.292562 202.602868 
L 916.08595 229.577869 
L 916.879339 171.185545 
L 917.672727 95.123951 
L 918.466116 111.701882 
L 919.259504 152.929121 
L 920.052893 234.103525 
L 920.846281 202.947026 
L 921.639669 108.125396 
L 922.433058 146.352888 
L 923.226446 201.039262 
L 924.019835 225.610591 
L 924.813223 245.531399 
L 925.606612 183.5144 
L 926.4 171.383485 
L 927.193388 174.145321 
L 927.986777 164.656222 
L 928.780165 116.217841 
L 929.573554 133.051104 
L 930.366942 187.299286 
L 931.160331 186.907198 
L 931.953719 198.08253 
L 932.747107 171.8139 
L 933.540496 191.136672 
L 934.333884 157.96787 
L 935.127273 214.241731 
L 935.920661 201.774475 
L 936.71405 101.335914 
L 937.507438 127.312522 
L 938.300826 166.842849 
L 939.094215 153.245804 
L 939.887603 161.242459 
L 940.680992 179.699918 
L 941.47438 174.124767 
L 942.267769 158.782363 
L 943.061157 202.497686 
L 943.854545 189.069352 
L 944.647934 210.46689 
L 945.441322 273.048069 
L 946.234711 220.542721 
L 947.028099 183.587432 
L 947.821488 122.402229 
L 948.614876 252.015454 
L 949.408264 236.862314 
L 950.201653 124.427275 
L 950.995041 175.467459 
L 951.78843 187.792051 
L 952.581818 166.376275 
L 953.375207 185.777269 
L 954.168595 127.6028 
L 954.961983 139.724707 
L 955.755372 186.941751 
L 956.54876 117.420491 
L 957.342149 190.41698 
L 958.135537 132.159659 
L 958.928926 158.864175 
L 959.722314 240.974164 
L 960.515702 211.346847 
L 961.309091 210.621764 
L 962.102479 181.86791 
L 962.895868 176.642281 
L 963.689256 183.58655 
L 964.482645 197.210143 
L 965.276033 186.082329 
L 966.069421 169.001095 
L 966.86281 180.676297 
L 967.656198 156.290827 
L 968.449587 219.380149 
L 969.242975 171.411562 
L 970.036364 203.546608 
L 970.829752 121.819822 
L 971.62314 124.720446 
L 972.416529 172.822625 
L 973.209917 155.908097 
L 974.003306 213.770265 
L 974.796694 223.138074 
L 975.590083 201.910019 
L 976.383471 168.686782 
L 977.17686 163.726696 
L 977.970248 152.328461 
L 978.763636 219.674335 
L 979.557025 109.534123 
L 980.350413 132.737652 
L 981.143802 150.023049 
L 981.93719 151.4048 
L 982.730579 157.479922 
L 983.523967 126.516676 
L 985.110744 261.331195 
L 985.904132 242.847658 
L 986.697521 203.65022 
L 987.490909 224.257822 
L 988.284298 211.864482 
L 989.077686 181.775199 
L 989.871074 121.180575 
L 990.664463 139.542167 
L 991.457851 177.75402 
L 992.25124 222.84063 
L 993.044628 128.088697 
L 993.838017 231.562225 
L 994.631405 225.821659 
L 995.424793 124.543576 
L 996.218182 181.199658 
L 996.218182 181.199658 
" style="fill:none;stroke:#1f77b4;stroke-linecap:square;stroke-width:1.5;"/>
   </g>
   <g id="patch_3">
    <path d="M 144 307.584 
L 144 41.472 
" style="fill:none;stroke:#000000;stroke-linecap:square;stroke-linejoin:miter;stroke-width:0.8;"/>
   </g>
   <g id="patch_4">
    <path d="M 1036.8 307.584 
L 1036.8 41.472 
" style="fill:none;stroke:#000000;stroke-linecap:square;stroke-linejoin:miter;stroke-width:0.8;"/>
   </g>
   <g id="patch_5">
    <path d="M 144 307.584 
L 1036.8 307.584 
" style="fill:none;stroke:#000000;stroke-linecap:square;stroke-linejoin:miter;stroke-width:0.8;"/>
   </g>
   <g id="patch_6">
    <path d="M 144 41.472 
L 1036.8 41.472 
" style="fill:none;stroke:#000000;stroke-linecap:square;stroke-linejoin:miter;stroke-width:0.8;"/>
   </g>
   <g id="text_12">
    <!-- Transpose of the compressed signal -->
    <g transform="translate(482.84625 35.472)scale(0.12 -0.12)">
     <defs>
      <path d="M -0.296875 72.90625 
L 61.375 72.90625 
L 61.375 64.59375 
L 35.5 64.59375 
L 35.5 0 
L 25.59375 0 
L 25.59375 64.59375 
L -0.296875 64.59375 
z
" id="DejaVuSans-84"/>
      <path d="M 41.109375 46.296875 
Q 39.59375 47.171875 37.8125 47.578125 
Q 36.03125 48 33.890625 48 
Q 26.265625 48 22.1875 43.046875 
Q 18.109375 38.09375 18.109375 28.8125 
L 18.109375 0 
L 9.078125 0 
L 9.078125 54.6875 
L 18.109375 54.6875 
L 18.109375 46.1875 
Q 20.953125 51.171875 25.484375 53.578125 
Q 30.03125 56 36.53125 56 
Q 37.453125 56 38.578125 55.875 
Q 39.703125 55.765625 41.0625 55.515625 
z
" id="DejaVuSans-114"/>
      <path d="M 34.28125 27.484375 
Q 23.390625 27.484375 19.1875 25 
Q 14.984375 22.515625 14.984375 16.5 
Q 14.984375 11.71875 18.140625 8.90625 
Q 21.296875 6.109375 26.703125 6.109375 
Q 34.1875 6.109375 38.703125 11.40625 
Q 43.21875 16.703125 43.21875 25.484375 
L 43.21875 27.484375 
z
M 52.203125 31.203125 
L 52.203125 0 
L 43.21875 0 
L 43.21875 8.296875 
Q 40.140625 3.328125 35.546875 0.953125 
Q 30.953125 -1.421875 24.3125 -1.421875 
Q 15.921875 -1.421875 10.953125 3.296875 
Q 6 8.015625 6 15.921875 
Q 6 25.140625 12.171875 29.828125 
Q 18.359375 34.515625 30.609375 34.515625 
L 43.21875 34.515625 
L 43.21875 35.40625 
Q 43.21875 41.609375 39.140625 45 
Q 35.0625 48.390625 27.6875 48.390625 
Q 23 48.390625 18.546875 47.265625 
Q 14.109375 46.140625 10.015625 43.890625 
L 10.015625 52.203125 
Q 14.9375 54.109375 19.578125 55.046875 
Q 24.21875 56 28.609375 56 
Q 40.484375 56 46.34375 49.84375 
Q 52.203125 43.703125 52.203125 31.203125 
z
" id="DejaVuSans-97"/>
      <path d="M 54.890625 33.015625 
L 54.890625 0 
L 45.90625 0 
L 45.90625 32.71875 
Q 45.90625 40.484375 42.875 44.328125 
Q 39.84375 48.1875 33.796875 48.1875 
Q 26.515625 48.1875 22.3125 43.546875 
Q 18.109375 38.921875 18.109375 30.90625 
L 18.109375 0 
L 9.078125 0 
L 9.078125 54.6875 
L 18.109375 54.6875 
L 18.109375 46.1875 
Q 21.34375 51.125 25.703125 53.5625 
Q 30.078125 56 35.796875 56 
Q 45.21875 56 50.046875 50.171875 
Q 54.890625 44.34375 54.890625 33.015625 
z
" id="DejaVuSans-110"/>
      <path d="M 44.28125 53.078125 
L 44.28125 44.578125 
Q 40.484375 46.53125 36.375 47.5 
Q 32.28125 48.484375 27.875 48.484375 
Q 21.1875 48.484375 17.84375 46.4375 
Q 14.5 44.390625 14.5 40.28125 
Q 14.5 37.15625 16.890625 35.375 
Q 19.28125 33.59375 26.515625 31.984375 
L 29.59375 31.296875 
Q 39.15625 29.25 43.1875 25.515625 
Q 47.21875 21.78125 47.21875 15.09375 
Q 47.21875 7.46875 41.1875 3.015625 
Q 35.15625 -1.421875 24.609375 -1.421875 
Q 20.21875 -1.421875 15.453125 -0.5625 
Q 10.6875 0.296875 5.421875 2 
L 5.421875 11.28125 
Q 10.40625 8.6875 15.234375 7.390625 
Q 20.0625 6.109375 24.8125 6.109375 
Q 31.15625 6.109375 34.5625 8.28125 
Q 37.984375 10.453125 37.984375 14.40625 
Q 37.984375 18.0625 35.515625 20.015625 
Q 33.0625 21.96875 24.703125 23.78125 
L 21.578125 24.515625 
Q 13.234375 26.265625 9.515625 29.90625 
Q 5.8125 33.546875 5.8125 39.890625 
Q 5.8125 47.609375 11.28125 51.796875 
Q 16.75 56 26.8125 56 
Q 31.78125 56 36.171875 55.265625 
Q 40.578125 54.546875 44.28125 53.078125 
z
" id="DejaVuSans-115"/>
      <path d="M 18.109375 8.203125 
L 18.109375 -20.796875 
L 9.078125 -20.796875 
L 9.078125 54.6875 
L 18.109375 54.6875 
L 18.109375 46.390625 
Q 20.953125 51.265625 25.265625 53.625 
Q 29.59375 56 35.59375 56 
Q 45.5625 56 51.78125 48.09375 
Q 58.015625 40.1875 58.015625 27.296875 
Q 58.015625 14.40625 51.78125 6.484375 
Q 45.5625 -1.421875 35.59375 -1.421875 
Q 29.59375 -1.421875 25.265625 0.953125 
Q 20.953125 3.328125 18.109375 8.203125 
z
M 48.6875 27.296875 
Q 48.6875 37.203125 44.609375 42.84375 
Q 40.53125 48.484375 33.40625 48.484375 
Q 26.265625 48.484375 22.1875 42.84375 
Q 18.109375 37.203125 18.109375 27.296875 
Q 18.109375 17.390625 22.1875 11.75 
Q 26.265625 6.109375 33.40625 6.109375 
Q 40.53125 6.109375 44.609375 11.75 
Q 48.6875 17.390625 48.6875 27.296875 
z
" id="DejaVuSans-112"/>
      <path d="M 30.609375 48.390625 
Q 23.390625 48.390625 19.1875 42.75 
Q 14.984375 37.109375 14.984375 27.296875 
Q 14.984375 17.484375 19.15625 11.84375 
Q 23.34375 6.203125 30.609375 6.203125 
Q 37.796875 6.203125 41.984375 11.859375 
Q 46.1875 17.53125 46.1875 27.296875 
Q 46.1875 37.015625 41.984375 42.703125 
Q 37.796875 48.390625 30.609375 48.390625 
z
M 30.609375 56 
Q 42.328125 56 49.015625 48.375 
Q 55.71875 40.765625 55.71875 27.296875 
Q 55.71875 13.875 49.015625 6.21875 
Q 42.328125 -1.421875 30.609375 -1.421875 
Q 18.84375 -1.421875 12.171875 6.21875 
Q 5.515625 13.875 5.515625 27.296875 
Q 5.515625 40.765625 12.171875 48.375 
Q 18.84375 56 30.609375 56 
z
" id="DejaVuSans-111"/>
      <path d="M 56.203125 29.59375 
L 56.203125 25.203125 
L 14.890625 25.203125 
Q 15.484375 15.921875 20.484375 11.0625 
Q 25.484375 6.203125 34.421875 6.203125 
Q 39.59375 6.203125 44.453125 7.46875 
Q 49.3125 8.734375 54.109375 11.28125 
L 54.109375 2.78125 
Q 49.265625 0.734375 44.1875 -0.34375 
Q 39.109375 -1.421875 33.890625 -1.421875 
Q 20.796875 -1.421875 13.15625 6.1875 
Q 5.515625 13.8125 5.515625 26.8125 
Q 5.515625 40.234375 12.765625 48.109375 
Q 20.015625 56 32.328125 56 
Q 43.359375 56 49.78125 48.890625 
Q 56.203125 41.796875 56.203125 29.59375 
z
M 47.21875 32.234375 
Q 47.125 39.59375 43.09375 43.984375 
Q 39.0625 48.390625 32.421875 48.390625 
Q 24.90625 48.390625 20.390625 44.140625 
Q 15.875 39.890625 15.1875 32.171875 
z
" id="DejaVuSans-101"/>
      <path id="DejaVuSans-32"/>
      <path d="M 37.109375 75.984375 
L 37.109375 68.5 
L 28.515625 68.5 
Q 23.6875 68.5 21.796875 66.546875 
Q 19.921875 64.59375 19.921875 59.515625 
L 19.921875 54.6875 
L 34.71875 54.6875 
L 34.71875 47.703125 
L 19.921875 47.703125 
L 19.921875 0 
L 10.890625 0 
L 10.890625 47.703125 
L 2.296875 47.703125 
L 2.296875 54.6875 
L 10.890625 54.6875 
L 10.890625 58.5 
Q 10.890625 67.625 15.140625 71.796875 
Q 19.390625 75.984375 28.609375 75.984375 
z
" id="DejaVuSans-102"/>
      <path d="M 18.3125 70.21875 
L 18.3125 54.6875 
L 36.8125 54.6875 
L 36.8125 47.703125 
L 18.3125 47.703125 
L 18.3125 18.015625 
Q 18.3125 11.328125 20.140625 9.421875 
Q 21.96875 7.515625 27.59375 7.515625 
L 36.8125 7.515625 
L 36.8125 0 
L 27.59375 0 
Q 17.1875 0 13.234375 3.875 
Q 9.28125 7.765625 9.28125 18.015625 
L 9.28125 47.703125 
L 2.6875 47.703125 
L 2.6875 54.6875 
L 9.28125 54.6875 
L 9.28125 70.21875 
z
" id="DejaVuSans-116"/>
      <path d="M 54.890625 33.015625 
L 54.890625 0 
L 45.90625 0 
L 45.90625 32.71875 
Q 45.90625 40.484375 42.875 44.328125 
Q 39.84375 48.1875 33.796875 48.1875 
Q 26.515625 48.1875 22.3125 43.546875 
Q 18.109375 38.921875 18.109375 30.90625 
L 18.109375 0 
L 9.078125 0 
L 9.078125 75.984375 
L 18.109375 75.984375 
L 18.109375 46.1875 
Q 21.34375 51.125 25.703125 53.5625 
Q 30.078125 56 35.796875 56 
Q 45.21875 56 50.046875 50.171875 
Q 54.890625 44.34375 54.890625 33.015625 
z
" id="DejaVuSans-104"/>
      <path d="M 48.78125 52.59375 
L 48.78125 44.1875 
Q 44.96875 46.296875 41.140625 47.34375 
Q 37.3125 48.390625 33.40625 48.390625 
Q 24.65625 48.390625 19.8125 42.84375 
Q 14.984375 37.3125 14.984375 27.296875 
Q 14.984375 17.28125 19.8125 11.734375 
Q 24.65625 6.203125 33.40625 6.203125 
Q 37.3125 6.203125 41.140625 7.25 
Q 44.96875 8.296875 48.78125 10.40625 
L 48.78125 2.09375 
Q 45.015625 0.34375 40.984375 -0.53125 
Q 36.96875 -1.421875 32.421875 -1.421875 
Q 20.0625 -1.421875 12.78125 6.34375 
Q 5.515625 14.109375 5.515625 27.296875 
Q 5.515625 40.671875 12.859375 48.328125 
Q 20.21875 56 33.015625 56 
Q 37.15625 56 41.109375 55.140625 
Q 45.0625 54.296875 48.78125 52.59375 
z
" id="DejaVuSans-99"/>
      <path d="M 52 44.1875 
Q 55.375 50.25 60.0625 53.125 
Q 64.75 56 71.09375 56 
Q 79.640625 56 84.28125 50.015625 
Q 88.921875 44.046875 88.921875 33.015625 
L 88.921875 0 
L 79.890625 0 
L 79.890625 32.71875 
Q 79.890625 40.578125 77.09375 44.375 
Q 74.3125 48.1875 68.609375 48.1875 
Q 61.625 48.1875 57.5625 43.546875 
Q 53.515625 38.921875 53.515625 30.90625 
L 53.515625 0 
L 44.484375 0 
L 44.484375 32.71875 
Q 44.484375 40.625 41.703125 44.40625 
Q 38.921875 48.1875 33.109375 48.1875 
Q 26.21875 48.1875 22.15625 43.53125 
Q 18.109375 38.875 18.109375 30.90625 
L 18.109375 0 
L 9.078125 0 
L 9.078125 54.6875 
L 18.109375 54.6875 
L 18.109375 46.1875 
Q 21.1875 51.21875 25.484375 53.609375 
Q 29.78125 56 35.6875 56 
Q 41.65625 56 45.828125 52.96875 
Q 50 49.953125 52 44.1875 
z
" id="DejaVuSans-109"/>
      <path d="M 45.40625 46.390625 
L 45.40625 75.984375 
L 54.390625 75.984375 
L 54.390625 0 
L 45.40625 0 
L 45.40625 8.203125 
Q 42.578125 3.328125 38.25 0.953125 
Q 33.9375 -1.421875 27.875 -1.421875 
Q 17.96875 -1.421875 11.734375 6.484375 
Q 5.515625 14.40625 5.515625 27.296875 
Q 5.515625 40.1875 11.734375 48.09375 
Q 17.96875 56 27.875 56 
Q 33.9375 56 38.25 53.625 
Q 42.578125 51.265625 45.40625 46.390625 
z
M 14.796875 27.296875 
Q 14.796875 17.390625 18.875 11.75 
Q 22.953125 6.109375 30.078125 6.109375 
Q 37.203125 6.109375 41.296875 11.75 
Q 45.40625 17.390625 45.40625 27.296875 
Q 45.40625 37.203125 41.296875 42.84375 
Q 37.203125 48.484375 30.078125 48.484375 
Q 22.953125 48.484375 18.875 42.84375 
Q 14.796875 37.203125 14.796875 27.296875 
z
" id="DejaVuSans-100"/>
      <path d="M 9.421875 54.6875 
L 18.40625 54.6875 
L 18.40625 0 
L 9.421875 0 
z
M 9.421875 75.984375 
L 18.40625 75.984375 
L 18.40625 64.59375 
L 9.421875 64.59375 
z
" id="DejaVuSans-105"/>
      <path d="M 45.40625 27.984375 
Q 45.40625 37.75 41.375 43.109375 
Q 37.359375 48.484375 30.078125 48.484375 
Q 22.859375 48.484375 18.828125 43.109375 
Q 14.796875 37.75 14.796875 27.984375 
Q 14.796875 18.265625 18.828125 12.890625 
Q 22.859375 7.515625 30.078125 7.515625 
Q 37.359375 7.515625 41.375 12.890625 
Q 45.40625 18.265625 45.40625 27.984375 
z
M 54.390625 6.78125 
Q 54.390625 -7.171875 48.1875 -13.984375 
Q 42 -20.796875 29.203125 -20.796875 
Q 24.46875 -20.796875 20.265625 -20.09375 
Q 16.0625 -19.390625 12.109375 -17.921875 
L 12.109375 -9.1875 
Q 16.0625 -11.328125 19.921875 -12.34375 
Q 23.78125 -13.375 27.78125 -13.375 
Q 36.625 -13.375 41.015625 -8.765625 
Q 45.40625 -4.15625 45.40625 5.171875 
L 45.40625 9.625 
Q 42.625 4.78125 38.28125 2.390625 
Q 33.9375 0 27.875 0 
Q 17.828125 0 11.671875 7.65625 
Q 5.515625 15.328125 5.515625 27.984375 
Q 5.515625 40.671875 11.671875 48.328125 
Q 17.828125 56 27.875 56 
Q 33.9375 56 38.28125 53.609375 
Q 42.625 51.21875 45.40625 46.390625 
L 45.40625 54.6875 
L 54.390625 54.6875 
z
" id="DejaVuSans-103"/>
      <path d="M 9.421875 75.984375 
L 18.40625 75.984375 
L 18.40625 0 
L 9.421875 0 
z
" id="DejaVuSans-108"/>
     </defs>
     <use xlink:href="#DejaVuSans-84"/>
     <use x="46.333984" xlink:href="#DejaVuSans-114"/>
     <use x="87.447266" xlink:href="#DejaVuSans-97"/>
     <use x="148.726562" xlink:href="#DejaVuSans-110"/>
     <use x="212.105469" xlink:href="#DejaVuSans-115"/>
     <use x="264.205078" xlink:href="#DejaVuSans-112"/>
     <use x="327.681641" xlink:href="#DejaVuSans-111"/>
     <use x="388.863281" xlink:href="#DejaVuSans-115"/>
     <use x="440.962891" xlink:href="#DejaVuSans-101"/>
     <use x="502.486328" xlink:href="#DejaVuSans-32"/>
     <use x="534.273438" xlink:href="#DejaVuSans-111"/>
     <use x="595.455078" xlink:href="#DejaVuSans-102"/>
     <use x="630.660156" xlink:href="#DejaVuSans-32"/>
     <use x="662.447266" xlink:href="#DejaVuSans-116"/>
     <use x="701.65625" xlink:href="#DejaVuSans-104"/>
     <use x="765.035156" xlink:href="#DejaVuSans-101"/>
     <use x="826.558594" xlink:href="#DejaVuSans-32"/>
     <use x="858.345703" xlink:href="#DejaVuSans-99"/>
     <use x="913.326172" xlink:href="#DejaVuSans-111"/>
     <use x="974.507812" xlink:href="#DejaVuSans-109"/>
     <use x="1071.919922" xlink:href="#DejaVuSans-112"/>
     <use x="1135.396484" xlink:href="#DejaVuSans-114"/>
     <use x="1174.259766" xlink:href="#DejaVuSans-101"/>
     <use x="1235.783203" xlink:href="#DejaVuSans-115"/>
     <use x="1287.882812" xlink:href="#DejaVuSans-115"/>
     <use x="1339.982422" xlink:href="#DejaVuSans-101"/>
     <use x="1401.505859" xlink:href="#DejaVuSans-100"/>
     <use x="1464.982422" xlink:href="#DejaVuSans-32"/>
     <use x="1496.769531" xlink:href="#DejaVuSans-115"/>
     <use x="1548.869141" xlink:href="#DejaVuSans-105"/>
     <use x="1576.652344" xlink:href="#DejaVuSans-103"/>
     <use x="1640.128906" xlink:href="#DejaVuSans-110"/>
     <use x="1703.507812" xlink:href="#DejaVuSans-97"/>
     <use x="1764.787109" xlink:href="#DejaVuSans-108"/>
    </g>
   </g>
  </g>
 </g>
 <defs>
  <clipPath id="pa7d15bc687">
   <rect height="266.112" width="892.8" x="144" y="41.472"/>
  </clipPath>
 </defs>
</svg>
